<svg xmlns="http://www.w3.org/2000/svg" viewBox="0 0 270 270"><defs><style>.cls-1{fill:#fff;}.cls-2{fill:#002d26;}.cls-3{fill:#a01a22;}.cls-4{fill:#a78126;}</style></defs><g id="Capa_2" data-name="Capa 2"><g id="Home"><rect class="cls-1" width="270" height="270" rx="9.75"/><path class="cls-2" d="M244,18.23c.27,0,.54,0,.81,0a6.77,6.77,0,0,1,1.49.58,18.93,18.93,0,0,1,3.28,1.46,6.73,6.73,0,0,1,2.33,2.23,7.48,7.48,0,0,1,.87,3c.19,1.24.19,2.46.26,3.71a10.27,10.27,0,0,1-.39,3.26,9.09,9.09,0,0,1-3.87,5.31,12,12,0,0,1,2.64,2.38,8.79,8.79,0,0,1,1.27,2.89A10.39,10.39,0,0,1,253,44.8c.05.47.18.92.27,1.38a17.18,17.18,0,0,1,0,3.44,22.87,22.87,0,0,1-.36,3.6,18,18,0,0,1-1.06,3.36,11.14,11.14,0,0,1-1.71,2.72,5.64,5.64,0,0,1-2.42,1.9.93.93,0,0,0-.34.18l-.5.18.11-.06a7.65,7.65,0,0,1-3.59.88,7.48,7.48,0,0,0-1.05-.06,3.48,3.48,0,0,1-.79,0c-.21,0-.39-.23-.6-.23s-.45.06-.7.06a10.37,10.37,0,0,1-3.49-.88,8.31,8.31,0,0,1-3.07-1.94c-1.68-1.81-1.93-4.23-2.35-6.55a23.38,23.38,0,0,1-.42-3.91,15.91,15.91,0,0,1,.26-4c.58-2.33,1.5-4.68,3.52-6.12a10.09,10.09,0,0,1-2.31-6.38,14.93,14.93,0,0,1,.31-3.71c.19-1.08.23-2.17.44-3.25A8.18,8.18,0,0,1,236.89,20a7.92,7.92,0,0,1,3.17-1.18c1.06-.14,2.1-.44,3.17-.51a1.55,1.55,0,0,1,.74-.07Zm-5.83,25.59c-.11.87-.42,1.73-.52,2.61s-.1,1.75-.15,2.62-.06,2-.05,3c0,.4.1.78.13,1.18s-.07.76,0,1.12c.11.69.1,1.65.2,2.21a7.56,7.56,0,0,0,.33,1.15l0-.07a6.49,6.49,0,0,0,.73,1.25.84.84,0,0,0,.43.34l.68.24a2.29,2.29,0,0,0,.56.18,3.56,3.56,0,0,1,.8,0l.8.1c.24,0,.42-.1.65-.18a5.52,5.52,0,0,1,.71-.11,1.6,1.6,0,0,0,.4-.28c.33-.25.71-.44,1-.71a4.76,4.76,0,0,0,1.2-1.67,10.69,10.69,0,0,0,.93-2.76,16.36,16.36,0,0,0,.11-2.62c0-1.08.13-2.16,0-3.24a4.63,4.63,0,0,0-.12-1.12c-.12-.44-.28-.87-.39-1.31s-.26-.63-.43-.92a2.93,2.93,0,0,0-.56-.77,4.13,4.13,0,0,0-1.73-1.25L241,42.06a8.93,8.93,0,0,1-1.43-.4c-.12,0-.49-.26-.58-.17l-.62,1.3Zm4.87-23c-.52.06-.86.51-1.35.71l.2-.08-.33.21-.46.47-.11.13a11.64,11.64,0,0,0-1.51,4.58,15.42,15.42,0,0,0-.15,1.8,23.07,23.07,0,0,1-.25,2.49V31c-.07.12,0,.34-.05.42a2.58,2.58,0,0,0,.27,1.52,6.39,6.39,0,0,0,.95,1.56c1,1.07,2.72,1,4,1.46a12.46,12.46,0,0,0,1.42-1.83,11,11,0,0,0,.79-2.06,6.71,6.71,0,0,0,.2-1.73l0-1.23a2.93,2.93,0,0,0,0-.58c-.1-.75-.11-1.5-.18-2.26-.05-.49-.18-1-.28-1.49A7.68,7.68,0,0,0,244.79,21c-.37-.4-1.3-.22-1.78-.16Z"/><path class="cls-2" d="M84.89,111.17a4.75,4.75,0,0,0-4.78,1.41,3.44,3.44,0,0,0-.39,4.34,1,1,0,0,0,.49.37,6.07,6.07,0,0,0,.41,1c1.57,3,5.89,3,7.87.4C91,115.45,88.5,111.94,84.89,111.17Z"/><path class="cls-3" d="M115.77,118.87a56.76,56.76,0,0,1-5.56,4l0,0c1.31,1.7,2.37,3.52,3.59,5.28a9.32,9.32,0,0,0,2,2.29,4.44,4.44,0,0,1,1.14,1,32.08,32.08,0,0,0,5.21-4.15l1-1A22,22,0,0,1,115.77,118.87Z"/><path class="cls-3" d="M112.22,130.16a48.92,48.92,0,0,1-3.5-6.29.61.61,0,0,1,0-.13,52.12,52.12,0,0,1-6.17,3.07L102,127a1,1,0,0,1,.13.15c1.65,2.76,2.74,6.63,5.56,8.43a1,1,0,0,1,.39.44,63.2,63.2,0,0,0,6.69-3.22A8.47,8.47,0,0,1,112.22,130.16Z"/><path class="cls-2" d="M218.29,130.18c-4,1.83-8,3.57-12.11,5.11-6.52,2.44-14.06,5.86-21.07,6.06-1,0-1.11-1.41-.33-1.8,3.49-1.75,7.51-2.43,11.23-3.62,4.06-1.29,8.1-2.69,12.06-4.28,3.56-1.43,7.1-2.92,10.56-4.58A51.05,51.05,0,0,1,224,124.5c-1.81-1.45-3.6-2.93-5.31-4.49a159.42,159.42,0,0,1-20.82,12.4c-7,3.64-14.69,8.13-22.48,9.75a.92.92,0,0,1-.56-1.72c6.88-4.07,14.86-6.51,22-10.21,6.95-3.6,13.42-7.83,20.11-11.86a38.5,38.5,0,0,1-4.49-5.06,4.58,4.58,0,0,1-.31-.49c-4,5.13-11,9.27-16.15,12.61-6.27,4-13.69,9.08-21.08,10.61-.92.19-1.69-1.17-.83-1.74,6.08-4,13.22-6.51,19.42-10.48a121,121,0,0,0,11.13-8,72.62,72.62,0,0,1,6.4-5.23c-.68-1.4-1.45-2.75-2.58-3.07-3.43-1-7.1,4.52-9.28,6.35-2.93,2.47-5.92,4.88-9,7.16a182.78,182.78,0,0,1-19.34,13.09c-5.79,3.24-14.11-.91-19.92-2.74-7.21-2.26-15.33-4.37-21.86-8.32a34.9,34.9,0,0,1-2.26,3.12,1.35,1.35,0,0,1-1,1.24,35.55,35.55,0,0,1-7.61,6.47,66.4,66.4,0,0,1-8.58,4.58c.84,7.58,1.76,14.06,7.37,19.88s13,9.44,20.78,11.51c2.68.7,5.38,1.3,8.09,1.83-1.13-.86-2.2-1.73-3.15-2.43-2-1.49-5.87-3.28-5.61-6.19a.87.87,0,0,1,1.53-.44c2,2.5,4.88,4.34,7.5,6.12a60.12,60.12,0,0,0,6.33,4,7.21,7.21,0,0,0,3.15-.3c-4.49-3.34-9.27-7.94-12-12.75-.43-.76.66-1.74,1.33-1.13,2.15,1.94,3.94,4.24,6,6.27s4.23,3.89,6.36,5.83a4.72,4.72,0,0,0,.22-1.6c0-.23,0-.45,0-.67a69.59,69.59,0,0,0-4.75-5.84,21.63,21.63,0,0,1-4-5.35c-.56-1.13,1.14-1.92,1.75-.84,1.31,2.35,3.74,4.17,5.74,6.21,0-.1-.06-.21-.11-.32-2.78-7.11-5.87-14.11-8.83-21.16-.73-1.72,1.88-3,2.61-1.25,2.55,6.09,5.14,12.16,7.67,18.25,1.73,4.16,3.16,8.17,2.68,12.74l-.09.58c7.28-5.86,13.4-12.86,19.43-20a.82.82,0,0,1,.56-.65c4.41-1.39,9-1.93,13.47-3.34a102.09,102.09,0,0,0,14-5.61c6.39-3,12.23-7.23,18-11.23,1.57-1.09,1.25-3.06.2-4.48C223.76,128,220.81,129,218.29,130.18Z"/><path class="cls-4" d="M114.83,160.21c-4.75-5.16-9.25-13.46-7.44-20.76a67.28,67.28,0,0,1-24.26,5.14c3.85,9.19,6.7,18.55,13.77,26a39.4,39.4,0,0,0,29.32,12.42c9.79,0,19.08-2,27.37-6.91-4.13,0-9.15-1.8-12-2.49C132,171.34,121.7,167.68,114.83,160.21Z"/><path class="cls-3" d="M111.86,92.68a1.24,1.24,0,0,1-1.14.54c-2.25-.32-4.46-.86-6.68-1.32-1.28-.27-1.2-2.25.17-2.09,2.24.27,4.5.47,6.72.89a1.5,1.5,0,0,1,.77.37c-.61-2.77-1.3-5.53-1.76-8.11-.66-3.67-1.56-7.41-2.15-11.15a9.74,9.74,0,0,1-3.46-1c-1.34-.64-.61-2.79.81-2.21a8.92,8.92,0,0,0,2.31.59c-.09-.76-.15-1.52-.19-2.28a8,8,0,0,1-5-1.24Q101,67.95,99.58,70.2a1.29,1.29,0,0,1,.18.16,5,5,0,0,0,2.11,1.84,7.64,7.64,0,0,1,2.32.88.88.88,0,0,1,.06,1.35c-1,1-2.72.41-3.77-.19a5.6,5.6,0,0,1-2.11-2.1c-2,3.16-4,6.26-6.11,9.36-.36.54-.72,1.09-1.09,1.63a9.46,9.46,0,0,0,1.45,1.14,12.43,12.43,0,0,0,1.77.73c.88.33,2.48,1,1.68,2.25s-2.91.25-3.83-.18a8.19,8.19,0,0,1-2.57-1.69q-1.4,2.09-2.76,4.2l0,0a3.9,3.9,0,0,0,1.46,1.06,6.93,6.93,0,0,1,2.15.74,1,1,0,0,1,.07,1.47c-.78.81-2.42.49-3.32,0a6.18,6.18,0,0,1-1.82-1.37c-1.33,1.67-2.93,3.69-3,4.67-.25,4.19,6.3,5,9.42,6.13,5,1.83,11.45,4,16.79,2.82,2.57-.58,4.36-2.13,4.34-4.91a40.47,40.47,0,0,0-1-7.81ZM99,77a7.2,7.2,0,0,0,3.88,1.29,25.7,25.7,0,0,1,3.27-.18,1,1,0,0,1,.54,1.69c-2.26,2.24-6.84.69-9-.87A1.18,1.18,0,0,1,99,77Zm-3.45,7.16a1,1,0,0,1,.74-1.09c1.18-.26,2.35.8,3.5,1.07s2.28.13,3.24.75a.91.91,0,0,1,.07,1.41c-1.1,1-2.91.67-4.2.26S95.73,85.58,95.51,84.15Zm-1.82,5c1.22.32,2.07,1.31,3.27,1.71,1,.35,2.24.18,3.21.67a1,1,0,0,1,.3,1.68c-1.11.88-2.73.64-4,.16-1.52-.57-2.38-1.67-3.66-2.55C91.88,90.22,92.69,88.92,93.69,89.19ZM94,99.56c-2.61.49-5.64-1.24-7.95-2.26-1.2-.53-.54-2.41.71-1.92A36.54,36.54,0,0,0,91,96.67a10.26,10.26,0,0,1,3.38,1.11A1,1,0,0,1,94,99.56Zm12.24,2.53c-2.08,2.44-6.87,1-9.29-.15-1.41-.7-.61-3,.85-2.33a10.69,10.69,0,0,0,4.54,1.1c1.17,0,2.4-.31,3.51.14A.82.82,0,0,1,106.23,102.09ZM110,97c-1.36,3.24-6.5,1.19-8.72.23a1,1,0,0,1,.71-1.92,14.08,14.08,0,0,0,3.84.87c1.18.06,2.28-.49,3.43-.35A.88.88,0,0,1,110,97Z"/><path class="cls-3" d="M100.56,127.69v-.09c-1.92.75-4,1.5-6.08,2.13,1.13,1.18,1.42,3.28,2.11,4.74a14.66,14.66,0,0,0,1.51,2.64A9.74,9.74,0,0,1,99.51,139q3-.87,6-2C102.8,135,101.38,130.75,100.56,127.69Z"/><path class="cls-3" d="M92.94,130.17a36.85,36.85,0,0,1-6.4,1.17,92.83,92.83,0,0,0,2.61,10.16l1-.21c2.33-.46,4.67-1,7-1.59a11.71,11.71,0,0,1-2.42-3.7C94,134.4,92.66,132,92.94,130.17Z"/><path class="cls-2" d="M105.39,51a1.25,1.25,0,0,1-.16.17c-2.86,2.14-7,3.78-4.46,8.12,2,3.51,5.27,6.51,9.25,3.52,3.45-2.61,5-6.3,1.56-9.72A7.7,7.7,0,0,0,105.39,51Z"/><path class="cls-3" d="M121.06,114.07q-1.89,1.94-3.94,3.7s0,0,.07.06a31.53,31.53,0,0,0,7.84,6.58c1.38-1.69,2.35-3.67.89-5.24C124.33,117.45,122.7,115.75,121.06,114.07Z"/><path class="cls-3" d="M80.88,131.13c-.41,3-.8,6.05,0,9.08.65,2.35,3.56,2.21,6.15,1.74a26.11,26.11,0,0,1-1.71-10.54A19.45,19.45,0,0,1,80.88,131.13Z"/><path class="cls-4" d="M113.87,105.46a13.64,13.64,0,0,1-7.76,2.73c-5.18.25-10.41-1.45-15.2-3.26-2.58-1-7.65-1.89-10.22-3.89-3.19,4-6.91,8-8.52,13-2.63,8.08,3.94,11.13,9.54,14.81,3.4-.69,7-.66,10.36-1.49a57.06,57.06,0,0,0,10.58-3.58,59.49,59.49,0,0,0,16-11,14.16,14.16,0,0,1-2.54-3.48A39.41,39.41,0,0,1,113.87,105.46ZM88.49,118.73c-2,2.55-6.3,2.62-7.87-.4a6.07,6.07,0,0,1-.41-1,1,1,0,0,1-.49-.37,3.44,3.44,0,0,1,.39-4.34,4.75,4.75,0,0,1,4.78-1.41C88.5,111.94,91,115.45,88.49,118.73Z"/><path class="cls-4" d="M148.05,203.58a31.44,31.44,0,0,0-4.48-.94h-.1l-.76-.1a76.22,76.22,0,0,0,.45-8.42c.2-3.6.72-7.2.81-10.8-.75.25-1.51.48-2.28.7a73.93,73.93,0,0,0-.93,8.27c-.24,3.22-.73,6.8-.23,10.05a60.83,60.83,0,0,0-14.4.88.88.88,0,0,0,.09,1.73,64.1,64.1,0,0,0,8.19.14c-2.45,1.17-4.86,2.48-7.24,3.76-.46.24-.41,1.09.19,1.07a15.3,15.3,0,0,0,6.36-2c1-.48,2-1,3-1.4a29.31,29.31,0,0,0-5.9,5.52c-.4.5.25,1.29.81,1,4-2.31,7.78-5.1,11.68-7.6a24.62,24.62,0,0,1,3.79.8C148.8,206.65,149.74,204.06,148.05,203.58Z"/><path class="cls-4" d="M128.71,201.77c1.8-.14,1.29-3-.53-2.77s-3.57.24-5.4.26c.65-1.82,0-3.87-.13-5.85-.19-2.53-.18-5.14-.48-7.68-.93-.09-1.85-.22-2.78-.36a64.5,64.5,0,0,0,.27,7.36c.11,2.05-.14,4.66.85,6.52-6.64-.07-13.42-.43-19.56,2.24-.71.32-.27,1.23.39,1.19,3.67-.19,7.25-1,10.89-1.36a37.14,37.14,0,0,0-6.9,3.32c-.82.53-.55,2.1.59,1.79a46.35,46.35,0,0,0,5.89-2.3c2.34-1,5.09-1.46,7.26-2.72a1.2,1.2,0,0,0,.21-.17l.33,0a31,31,0,0,0-8.1,7.1c-.63.8.57,1.88,1.31,1.19a55.84,55.84,0,0,1,10.32-7.71.86.86,0,0,0,.26-.2A30.33,30.33,0,0,0,128.71,201.77Z"/><path class="cls-3" d="M69.53,113.89a.49.49,0,0,0-.61-.52c-2.39.52-10,2.38-10.17,4.81s8.55,3.93,11.27,4.33a.48.48,0,0,0,.51-.62,20.58,20.58,0,0,1-.91-4.44A19.85,19.85,0,0,1,69.53,113.89Z"/><path class="cls-4" d="M85.68,112.9a1.32,1.32,0,0,0,0,2.63A1.32,1.32,0,0,0,85.68,112.9Z"/><path class="cls-2" d="M243,158.41l.65-3c.24-1,.39-2,.57-3l.54-3c0-.2.07-.38.11-.58a.35.35,0,0,0,.07-.12,17.77,17.77,0,0,1,3.38-5.07c1.11-1.23,3-3.17,4.83-3.83a2.71,2.71,0,0,0,.05.75,1.71,1.71,0,0,0,.66,1.22,1.42,1.42,0,0,0,2.15,0,2.15,2.15,0,0,0-1.29-3.79c-2.58-.19-4.94,1.88-6.77,3.59a20.4,20.4,0,0,0-2.45,2.87c.06-.5.17-1,.21-1.52l.17-1.53c.07-.62.15-1.36.23-2.18s.18-1.69.18-2.57a44.11,44.11,0,0,0-.09-4.76c.07-1.54.12-3.08.14-4.63,0-1,0-2.08-.07-3.12l-.18-3.13c.43-1.45.69-2.91,1.07-4.37.18-.73.39-1.46.61-2.19s.44-1.44.73-2.16a14.63,14.63,0,0,1,2.17-3.57,6.47,6.47,0,0,1,.73-.75,2.2,2.2,0,0,0,.58,2.51c.89.73,2.74,1.31,3.43,0a2.25,2.25,0,0,0,.75-1.11,2.83,2.83,0,0,0-.82-3.1,3.47,3.47,0,0,0-2.84-1,5.31,5.31,0,0,0-3,2.3c-.21.29-.4.59-.59.89s-.38.61-.56.91c-.35.61-.65,1.2-.89,1.71A26.47,26.47,0,0,0,245.6,117c-.11-.76-.19-1.53-.32-2.29l-.44-2.27c-.3-1.51-.57-3-1-4.51,1.18-.86,2.23-3,2.67-3.87a20.68,20.68,0,0,0,1.28-3c.37-1.05.69-2.13,1-3.22.15-.57.31-1.15.42-1.73s.21-1.16.3-1.75a28.7,28.7,0,0,0,.27-3.63,13.89,13.89,0,0,0-.4-3.42,6.82,6.82,0,0,0-1.44-3.1c-1.09-1-2.71.32-3.42,1a11.53,11.53,0,0,0-2.83,5.66c-.14.61-.26,1.22-.35,1.83s-.2,1.24-.27,1.87a22.16,22.16,0,0,0-.08,3.73c-1.37-3.82-2.84-7.59-4.51-11.28l-.24-.53v-.15a18.5,18.5,0,0,1-.19-3.06,16.46,16.46,0,0,1,.22-3,23.16,23.16,0,0,1,.66-3,9.83,9.83,0,0,1,1.29-2.89,2.7,2.7,0,0,0,.48.59,1.75,1.75,0,0,0,1.22.65,1.43,1.43,0,0,0,1.8-1.17,2.07,2.07,0,0,0-1-2.44,2.17,2.17,0,0,0-2.24,0,6,6,0,0,0-2.45,2.91,24.4,24.4,0,0,0-1.19,3.79,16.08,16.08,0,0,0-.48,3.76c-.46-.92-.9-1.84-1.35-2.77a45.07,45.07,0,0,0-5-8.09c-.38-.67-.75-1.35-1.15-2l-1.26-1.94c-.58-.87-1.15-1.75-1.76-2.6L222,62.6c-.22-.72-.45-1.44-.7-2.15s-.54-1.4-.79-2.1-.49-1.42-.7-2.15c-.11-.37-.2-.74-.29-1.12s-.19-.73-.26-1.11a13.78,13.78,0,0,1-.16-4.15,7.45,7.45,0,0,1,.19-1,2.2,2.2,0,0,0,1.88,1.77c1.15.12,3-.42,2.87-1.89a2.2,2.2,0,0,0,0-1.33,2.9,2.9,0,0,0-2.36-2.14,3.46,3.46,0,0,0-2.91.75,5.33,5.33,0,0,0-1.29,3.6,19.92,19.92,0,0,0,.2,4.05,21.57,21.57,0,0,0,.68,2.94,24.25,24.25,0,0,0,1,2.9,91.47,91.47,0,0,0-6.42-6.64c.52-1.36.21-3.74.11-4.68a29.46,29.46,0,0,0-1.5-6.47,26.6,26.6,0,0,0-3-6.5c-.25-.38-.56-.84-.92-1.31a15.53,15.53,0,0,0-1.25-1.34,6.55,6.55,0,0,0-2.9-1.8,1.51,1.51,0,0,0-1.61.86,6.32,6.32,0,0,0-.69,1.83,11.25,11.25,0,0,0,.68,6.29,35.8,35.8,0,0,0,1.48,3.45,22.29,22.29,0,0,0,2,3.16l-2.44-1.82-1.22-.9c-.4-.31-.8-.62-1.23-.89L197.9,41l-1.25-.87c-.41-.29-.85-.55-1.27-.82l-.49-.32a.83.83,0,0,0-.08-.12A18.5,18.5,0,0,1,193,36.38c-.27-.44-.53-.87-.77-1.31s-.47-.9-.68-1.38a24.32,24.32,0,0,1-1-2.85,9.77,9.77,0,0,1-.46-3.15,2.9,2.9,0,0,0,.72.24,1.65,1.65,0,0,0,1.36-.09,1.42,1.42,0,0,0,.89-2,2.3,2.3,0,0,0-.89-1.24,2,2,0,0,0-1.22-.3A2.18,2.18,0,0,0,189,25.56a6,6,0,0,0-.49,3.76,14.47,14.47,0,0,0,.44,1.95c.18.66.39,1.3.59,1.9a16,16,0,0,0,1.63,3.41c-.89-.52-1.76-1.06-2.64-1.6-1-.67-2.6-1.49-4.18-2.28-.79-.39-1.58-.8-2.33-1.1s-1.47-.56-2.06-.74c-1.36-.72-2.73-1.45-4.15-2l-2.88-1.24c-.48-.21-1-.38-1.46-.56L170,26.5c-.58-.48-1.16-.95-1.76-1.42l-.88-.71-.9-.67a24.68,24.68,0,0,1-3.4-3,14.15,14.15,0,0,1-2.36-3.41,5.36,5.36,0,0,1-.39-1,2.21,2.21,0,0,0,2.54.46c1-.54,2.31-1.94,1.4-3.14a2.05,2.05,0,0,0-.7-1.12A2.92,2.92,0,0,0,160.4,12a3.45,3.45,0,0,0-2,2.15,5.47,5.47,0,0,0,.83,3.78,19.15,19.15,0,0,0,2.35,3.27,25.62,25.62,0,0,0,2.14,2.16,25.46,25.46,0,0,0,2.41,1.87c-1.48-.41-3-.82-4.46-1.21l-4.52-.94c-.28-1.48-1.82-3.27-2.41-4A29.45,29.45,0,0,0,150,14.4a26.41,26.41,0,0,0-6-3.87,18.89,18.89,0,0,0-3.25-1.1c-.31-.07-.61-.13-.92-.17s-.6,0-.89,0a4.6,4.6,0,0,0-1.59.27c-1.37.53-.86,2.57-.52,3.51a9.2,9.2,0,0,0,1.6,2.71,12.9,12.9,0,0,0,1.09,1.13c.39.38.81.74,1.24,1.09a27,27,0,0,0,6.44,3.77l-1.51-.15-.76-.08-.75,0-3-.18c-2-.17-4-.14-6.06-.22l-.59,0-.13-.06a28.43,28.43,0,0,1-2.85-1.08,17.29,17.29,0,0,1-2.65-1.53c-1.37-1-3.55-2.53-4.46-4.25a2.59,2.59,0,0,0,.73-.17,1.69,1.69,0,0,0,1.11-.84,1.41,1.41,0,0,0-.29-2.12,2.15,2.15,0,0,0-3.55,1.84c.17,2.59,2.54,4.61,4.49,6.16l.76.56.79.55A15.76,15.76,0,0,0,130,21H128.5c-.51,0-1,0-1.54,0-1.23,0-3,.13-4.76.27a37.37,37.37,0,0,0-4.69.78l-1.16.07c-.38,0-.76.09-1.15.13l-2.3.29-1.55.21-.77.11-.77.15-3.06.63c-.74-.11-1.5-.24-2.24-.29s-1.49-.12-2.24-.2-1.49-.17-2.24-.3c-.38-.06-.75-.14-1.13-.22s-.74-.15-1.11-.25A13.52,13.52,0,0,1,94,20.76a7,7,0,0,1-.84-.62,2.2,2.2,0,0,0,2.41-.92c.6-1,.92-2.91-.47-3.41a2.23,2.23,0,0,0-1.19-.59,2.9,2.9,0,0,0-2.95,1.21,3.48,3.48,0,0,0-.58,2.94A5.37,5.37,0,0,0,93,22.1a20.38,20.38,0,0,0,3.75,1.57,21.64,21.64,0,0,0,2.94.66,24.12,24.12,0,0,0,3,.34c-3,.78-5.88,1.84-8.77,2.91-1-1-3.27-1.8-4.16-2.12-.52-.18-1-.35-1.58-.51l-.8-.22-.81-.17c-1.08-.22-2.18-.4-3.3-.55-.58-.08-1.17-.15-1.77-.2l-.89-.07c-.3,0-.59,0-.89,0a27.69,27.69,0,0,0-3.61.2c-1.85.18-5,1.08-6.21,2.64-.89,1.16.63,2.62,1.43,3.25a11.17,11.17,0,0,0,6,2.09,33.4,33.4,0,0,0,3.75.17,24.19,24.19,0,0,0,3.71-.4c-.91.44-1.8.94-2.7,1.41s-1.8.93-2.68,1.42L76.82,36c-.87.51-1.77,1-2.62,1.53l-.49.31-.14,0a20.33,20.33,0,0,1-6.06.72c-1.65-.06-4.38-.29-6.06-1.24a3,3,0,0,0,.53-.53,1.65,1.65,0,0,0,.51-1.28,1.42,1.42,0,0,0-1.38-1.64,2.38,2.38,0,0,0-1.51.26,2,2,0,0,0-.8,1,2.19,2.19,0,0,0,.28,2.23c1.54,2.11,4.57,2.47,7.1,2.81a15.34,15.34,0,0,0,3.77,0c-.85.58-1.71,1.14-2.57,1.7-.51.34-1.16.73-1.82,1.21s-1.36,1-2.05,1.56-1.39,1.09-2,1.63S60.37,47.36,60,47.81c-1.23.93-2.49,1.83-3.64,2.87-.79.67-1.58,1.36-2.36,2-.39.34-.77.71-1.13,1.08l-1.11,1.1c-2.79,1.19-5.26,2.84-8.26,3.74a14.22,14.22,0,0,1-4.09.66,6,6,0,0,1-1-.07,2.19,2.19,0,0,0,1.51-2.08c0-1.17-.78-2.95-2.22-2.63a2.12,2.12,0,0,0-1.32.15,2.91,2.91,0,0,0-1.82,2.62,3.36,3.36,0,0,0,1.06,2.77,5.45,5.45,0,0,0,3.75.88,19.72,19.72,0,0,0,4-.7c.48-.13.95-.29,1.42-.46s1-.34,1.44-.54a25.93,25.93,0,0,0,2.74-1.37c-1,1.16-2.05,2.31-3,3.51L43,65.05c-1.43-.37-3.72.24-4.65.45a27.32,27.32,0,0,0-3.18.94c-1,.39-2.05.85-3.07,1.32S30,68.81,29,69.42a27.84,27.84,0,0,0-2.92,2.13c-.36.3-.77.67-1.19,1.09A10.23,10.23,0,0,0,23.66,74a6.63,6.63,0,0,0-1.41,3.12c-.12,1.46,1.95,1.86,3,2a11.27,11.27,0,0,0,6.13-1.47,25.75,25.75,0,0,0,3.26-1.88,30.93,30.93,0,0,0,2.91-2.33c-.55.85-1,1.75-1.52,2.63L34.5,78.71c-.49.89-.93,1.8-1.4,2.7s-.94,1.79-1.38,2.7c-.09.17-.17.35-.25.53a.31.31,0,0,0-.11.09,18.23,18.23,0,0,1-2.19,2.12,24.53,24.53,0,0,1-2.51,1.76c-1.42.85-3.81,2.16-5.76,2.26a2.59,2.59,0,0,0,.17-.73,1.69,1.69,0,0,0-.27-1.35,1.43,1.43,0,0,0-2.06-.64,2.08,2.08,0,0,0-1.29,2.29,2.22,2.22,0,0,0,1.46,1.73,5.89,5.89,0,0,0,3.78,0,21.11,21.11,0,0,0,3.72-1.5,16.31,16.31,0,0,0,3.16-2l-1.24,2.83-.87,2c-.31.76-.58,1.6-.87,2.43s-.56,1.67-.8,2.46c-.05.19-.11.38-.16.57s-.09.37-.13.55c-.07.36-.13.7-.18,1l-.78,2.17c-.25.74-.53,1.46-.72,2.21-.28,1-.56,2-.82,3l-.39,1.51c-.12.51-.21,1-.32,1.54-.8,1.26-1.53,2.58-2.32,3.87a24.08,24.08,0,0,1-2.5,3.79A12.43,12.43,0,0,1,16,120.09a15.3,15.3,0,0,1-1.6,1.29,6.13,6.13,0,0,1-.9.51,2.27,2.27,0,0,0,.11-2.58c-.63-1-2.23-2-3.28-1a2.3,2.3,0,0,0-1.05.85,2.91,2.91,0,0,0,0,3.2,3.4,3.4,0,0,0,2.42,1.73,5.34,5.34,0,0,0,3.61-1.33A20,20,0,0,0,18.16,120,21.3,21.3,0,0,0,21.54,115c-.21,1.53-.39,3.06-.57,4.59,0,.38-.09.77-.12,1.15l-.07,1.15-.14,2.31A11.55,11.55,0,0,0,17,127.08a34.06,34.06,0,0,0-4,5.34c-.59,1-1.16,2-1.67,3.12-.26.54-.5,1.1-.72,1.66a13.1,13.1,0,0,0-.6,1.73,18.44,18.44,0,0,0-.6,3.38,10.23,10.23,0,0,0,0,1.84,4,4,0,0,0,.49,1.54c.74,1.29,2.67.49,3.56,0a9.19,9.19,0,0,0,2.44-2,15,15,0,0,0,1.9-2.63,23.59,23.59,0,0,0,1.62-3.36,20.61,20.61,0,0,0,1.2-3.55l.14,3c.05,1,.18,2,.26,3l.26,3,.39,3c0,.2.05.39.07.58a.74.74,0,0,0,0,.14,20.85,20.85,0,0,1-1.79,5.83,25.67,25.67,0,0,1-1.5,2.66,8.79,8.79,0,0,1-2.05,2.39,3,3,0,0,0-.28-.7,1.76,1.76,0,0,0-1-1A1.58,1.58,0,0,0,14,156a1.51,1.51,0,0,0-1,.79,2.17,2.17,0,0,0,2.37,3.26c2.54-.56,4.17-3.21,5.4-5.38a16.33,16.33,0,0,0,1.58-3.46c.16,1,.31,2,.46,3,.23,1.21.59,2.94,1,4.66a24.09,24.09,0,0,0,.72,2.48c.26.77.51,1.48.76,2,.29,1.51.74,3,1.18,4.47l.45,1.5.23.75c.08.25.18.49.26.74l1.11,2.92c0,.75,0,1.52.07,2.26s.11,1.49.15,2.25a32.94,32.94,0,0,1,0,4.55,13.67,13.67,0,0,1-1,4,6.76,6.76,0,0,1-.47.93,2.21,2.21,0,0,0-1.3-2.23c-1.07-.44-3-.45-3.28,1a2.18,2.18,0,0,0-.4,1.27,3,3,0,0,0,1.66,2.74,3.54,3.54,0,0,0,3,.1,5.31,5.31,0,0,0,2.25-3.09,20.67,20.67,0,0,0,1-3.95,20.19,20.19,0,0,0,.18-3,24.1,24.1,0,0,0-.15-3.07c.65,1.4,1.28,2.8,2,4.15l1.1,2c.36.68.73,1.36,1.14,2-.88,1.16-1.26,3.52-1.43,4.46-.1.54-.18,1.08-.25,1.63s-.09,1.1-.12,1.65c0,1.1,0,2.23,0,3.36,0,.59,0,1.18.08,1.78s.13,1.17.22,1.76a26.41,26.41,0,0,0,.78,3.54,13.78,13.78,0,0,0,.52,1.52,16.85,16.85,0,0,0,.83,1.64,6.57,6.57,0,0,0,2.27,2.55c1.3.68,2.5-1.07,3-1.94a11.38,11.38,0,0,0,1.1-6.24c0-.62-.1-1.23-.18-1.85s-.16-1.25-.28-1.87a21.63,21.63,0,0,0-1-3.59l1.83,2.43c.61.8,1.19,1.64,1.85,2.41l1.91,2.35,1,1.18,1,1.15.38.44a.65.65,0,0,0,0,.13A19.59,19.59,0,0,1,49,207.2a19.22,19.22,0,0,1,.64,3,15.25,15.25,0,0,1-.22,6.18,2.22,2.22,0,0,0-.62-.43,1.71,1.71,0,0,0-1.35-.29,1.44,1.44,0,0,0-1.4,1.64,2.84,2.84,0,0,0,.16.82,2,2,0,0,0,.36.6,2.08,2.08,0,0,0,1.09.64,2.18,2.18,0,0,0,2.15-.64,6,6,0,0,0,1.53-3.48,24.13,24.13,0,0,0,.07-4,16,16,0,0,0-.6-3.74c.7.76,1.39,1.51,2.08,2.28l.68.75c.26.27.54.54.83.82.58.58,1.22,1.19,1.87,1.79a27.26,27.26,0,0,0,3.7,3l1.66,1.61,1.76,1.5c.8.68,1.6,1.35,2.41,2l2.52,1.85c.42.63.85,1.25,1.28,1.87l1.34,1.8a28.54,28.54,0,0,1,2.42,3.86,13.4,13.4,0,0,1,1.32,3.93,7.18,7.18,0,0,1,.1,1,2.19,2.19,0,0,0-2.3-1.17c-1.13.21-2.78,1.26-2.22,2.62a2.18,2.18,0,0,0,.35,1.28,2.92,2.92,0,0,0,2.88,1.38A3.4,3.4,0,0,0,76,238.19a5.43,5.43,0,0,0,.25-3.83A19.84,19.84,0,0,0,75,230.53a25.12,25.12,0,0,0-3.25-5.14l2,1.23,1,.61,1,.56c1.36.74,2.7,1.48,4.07,2.2-.12,1.44.85,3.63,1.2,4.5a24.93,24.93,0,0,0,1.45,3c.55,1,1.16,1.88,1.8,2.81a30.71,30.71,0,0,0,2.14,2.85,28,28,0,0,0,2.57,2.54,13.6,13.6,0,0,0,2.82,2,6.6,6.6,0,0,0,3.29.9c1.46-.11,1.53-2.22,1.46-3.23A11.06,11.06,0,0,0,94,239.49a28.67,28.67,0,0,0-2.37-2.91c-.43-.46-.88-.89-1.34-1.3s-.95-.8-1.43-1.2c.46.21.94.38,1.42.55l1.42.52,2.85,1.06c1.93.61,3.85,1.27,5.78,1.87l.56.17.11.08a19.24,19.24,0,0,1,2.44,1.84c.38.33.74.69,1.1,1.06s.7.74,1,1.14c1.06,1.26,2.72,3.42,3.12,5.33a2.29,2.29,0,0,0-.74,0,1.64,1.64,0,0,0-1.29.48,1.42,1.42,0,0,0-.31,2.12,2.07,2.07,0,0,0,2.45.92,2.22,2.22,0,0,0,1.48-1.7,6,6,0,0,0-.58-3.74,20.88,20.88,0,0,0-2.06-3.44,16.41,16.41,0,0,0-2.52-2.8l3,.78,2.12.54c.79.2,1.67.33,2.53.5a29,29,0,0,0,4.73.55c1.51.29,3,.58,4.56.82,1,.12,2.07.24,3.1.34l1.56.16c.52,0,1,.1,1.56.11,1.37.59,2.78,1.11,4.17,1.7l1,.45c.35.14.69.28,1,.44a19.41,19.41,0,0,1,2,1.05,14.47,14.47,0,0,1,3.2,2.68,6.33,6.33,0,0,1,.64.81,2.29,2.29,0,0,0-2.57.22c-.84.77-1.68,2.51-.49,3.39a2.19,2.19,0,0,0,1,.91,2.78,2.78,0,0,0,1.7.32,3.27,3.27,0,0,0,1.47-.69,3.52,3.52,0,0,0,1.37-2.65,5.33,5.33,0,0,0-1.83-3.37,16,16,0,0,0-1.6-1.38c-.54-.44-1.08-.82-1.56-1.14a17.5,17.5,0,0,0-2.64-1.48c-.92-.43-1.87-.77-2.84-1.14.39,0,.77,0,1.16,0l1.15,0,2.31-.08,2.31-.1,2.3-.22c.67,1.3,2.65,2.68,3.42,3.24a34.25,34.25,0,0,0,5.82,3.19,26,26,0,0,0,3.32,1.24,27,27,0,0,0,3.52.84,10.41,10.41,0,0,0,1.59.16c.59,0,1.22,0,1.84,0a6.71,6.71,0,0,0,3.28-.94c1.16-.91.11-2.72-.48-3.53a11.43,11.43,0,0,0-5.14-3.69,26.55,26.55,0,0,0-7.22-1.85c4-.75,7.93-1.63,11.84-2.69l.56-.15.14,0a18.33,18.33,0,0,1,3.06.29,16.75,16.75,0,0,1,3,.71c1.57.52,4.14,1.52,5.47,2.87a2.51,2.51,0,0,0-.65.38,1.69,1.69,0,0,0-.84,1.08,1.43,1.43,0,0,0,.87,2,2,2,0,0,0,2.55-.56,2.17,2.17,0,0,0,.35-2.21,5.92,5.92,0,0,0-2.48-2.88,12.4,12.4,0,0,0-1.75-1c-.6-.29-1.22-.58-1.8-.82a15.58,15.58,0,0,0-3.63-1.07c1-.31,2-.6,2.95-.89l1-.29,1.1-.39,2.42-.91a27.52,27.52,0,0,0,4.29-2l2.17-.81c.72-.28,1.42-.61,2.12-.92L187.1,230c.93-.47,1.84-1,2.75-1.48.75-.1,1.49-.22,2.24-.34s1.47-.3,2.21-.43a25.85,25.85,0,0,1,4.53-.5,13.33,13.33,0,0,1,4.11.51,6.6,6.6,0,0,1,1,.35,2.21,2.21,0,0,0-2,1.57c-.3,1.12-.07,3.06,1.4,3.15a2.16,2.16,0,0,0,1.31.23,2.94,2.94,0,0,0,2.49-2,3.85,3.85,0,0,0,.21-1.57,3.18,3.18,0,0,0-.46-1.4,3.74,3.74,0,0,0-1.41-1.19,8.81,8.81,0,0,0-1.95-.7,19.47,19.47,0,0,0-4-.44c-.5,0-1,0-1.5,0s-1,.06-1.52.12a25.45,25.45,0,0,0-3,.54l1.95-1.24c.65-.42,1.31-.82,1.93-1.28l3.73-2.72c1.26.74,3.64.81,4.59.87a28.31,28.31,0,0,0,3.32,0c1.09-.09,2.2-.24,3.31-.41a33.34,33.34,0,0,0,3.5-.7,26.58,26.58,0,0,0,3.4-1.21,14.14,14.14,0,0,0,3-1.7,6.61,6.61,0,0,0,2.24-2.57c.53-1.37-1.34-2.34-2.28-2.72a11.16,11.16,0,0,0-6.3-.34,28.52,28.52,0,0,0-3.65.88c-.6.2-1.18.41-1.76.65l-.84.38-.86.38c.78-.65,1.47-1.39,2.2-2.09l2.19-2.11,2.09-2.2,1.06-1.09c.35-.37.7-.73,1-1.11l.39-.44a.31.31,0,0,0,.13-.06,19.88,19.88,0,0,1,2.71-1.4c.47-.2.95-.37,1.44-.53s1-.32,1.46-.45c1.61-.4,4.28-1,6.18-.51a2.84,2.84,0,0,0-.38.65,1.7,1.7,0,0,0-.13,1.37,1.44,1.44,0,0,0,1.79,1.2,2.14,2.14,0,0,0,1-3.89,6,6,0,0,0-3.63-1.1,22.66,22.66,0,0,0-4,.39,15.32,15.32,0,0,0-3.61,1.06c.65-.79,1.32-1.58,2-2.36.4-.47.89-1,1.41-1.67s1-1.36,1.53-2.08,1-1.44,1.47-2.12.78-1.35,1.06-1.91l1.38-1.85c.23-.32.46-.62.68-1l.63-1c1.12-1.75,2.26-3.51,3.21-5.36.57-.49,1.13-1,1.69-1.51l.83-.76.81-.78a25.56,25.56,0,0,1,3.52-2.89,14.64,14.64,0,0,1,3.74-1.8,7,7,0,0,1,1-.23,2.22,2.22,0,0,0-.85,2.44,3.74,3.74,0,0,0,1.08,1.62,1.54,1.54,0,0,0,1.8.26,2.1,2.1,0,0,0,1.22-.51,2.94,2.94,0,0,0,1-3.05,3.41,3.41,0,0,0-1.8-2.36,5.5,5.5,0,0,0-3.86.24,19.58,19.58,0,0,0-3.61,1.81,28.68,28.68,0,0,0-2.46,1.77,24.61,24.61,0,0,0-2.23,2.1c.64-1.41,1.28-2.81,1.9-4.22l1.64-4.32c1.5-.05,3.51-1.3,4.33-1.76a28.69,28.69,0,0,0,2.77-1.82l.68-.51c.21-.18.42-.36.64-.53l1.26-1.11c.87-.79,1.72-1.62,2.54-2.51a15,15,0,0,0,1.15-1.38c.36-.49.71-1,1-1.5a18,18,0,0,0,1.6-3.06,6.64,6.64,0,0,0,.43-3.4c-.31-1.44-2.41-1.23-3.4-1a9.24,9.24,0,0,0-2.92,1.18,14.41,14.41,0,0,0-1.29.92c-.41.34-.81.7-1.23,1.07a24.6,24.6,0,0,0-2.57,2.74c-.39.49-.76,1-1.1,1.51s-.72,1-1,1.56l.39-1.47C242.78,159.41,242.87,158.91,243,158.41Zm-1.49-19.47a13,13,0,0,0-4.33-4.25c-.94-.63-2.46-1.87-3.64-1a2.31,2.31,0,0,0-.59,2,9.22,9.22,0,0,0,.12,1.19c0,.37.08.7.11,1a13.79,13.79,0,0,0,.52,2.65c.26.87.62,1.74.94,2.58a16.83,16.83,0,0,0,3,4.78,30,30,0,0,0,4.17,4c-.15.81-.26,1.64-.45,2.45l-.53,2.44-.52,2.45-.64,2.42c0-.57-.1-1.12-.18-1.68a15.71,15.71,0,0,0-.3-1.64c-.62-2.61-1.59-5.72-3.94-7.25-.82-.56-1.78-1.14-2.73-.66a1.31,1.31,0,0,0-.31.23,1.44,1.44,0,0,0-1,1.28,2.8,2.8,0,0,0,.09.59,2.1,2.1,0,0,0,3.11,1.46,2.19,2.19,0,0,0,.79-.83,7.67,7.67,0,0,1,.55.76,15.27,15.27,0,0,1,1.74,4.18,25.06,25.06,0,0,1,.51,9.19c-.65,2.24-1.53,4.4-2.35,6.58-.2.55-.45,1.08-.68,1.62L234.3,177c-.49,1.06-.94,2.14-1.51,3.16a12.08,12.08,0,0,0,.1-1.35c0-.45,0-.91,0-1.37-.05-.9-.15-1.8-.27-2.66a14.41,14.41,0,0,0-2-5.46c-.78-1.32-2.1-3.12-3.85-2.6a2.28,2.28,0,0,0-1.49,1.73,7.38,7.38,0,0,0-.22,1.23c-.05.41-.09.79-.12,1.11a32.49,32.49,0,0,0,.16,6.3c.1.85.24,1.73.43,2.62q.15.67.33,1.35c.12.45.23.89.37,1.33a19.57,19.57,0,0,0,2.31,5.05c-.19.31-.4.6-.61.9l-.68.85c-.47.56-.93,1.12-1.37,1.7a7.66,7.66,0,0,0-1.1,1.38c-.36.54-.75,1.12-1.1,1.72a25.3,25.3,0,0,1-2.12,3.26c-.76.85-1.8,2.44-2.54,3.32a16.49,16.49,0,0,0,1.32-5,14.13,14.13,0,0,0-1.28-5.94c-.41-1-1-2.93-2.48-2.82-1.27.06-2.14,2.3-2.59,3.2a20.15,20.15,0,0,0-1,2.5,18.64,18.64,0,0,0-.63,2.68c-.75,3.73,0,7.57,1.18,11.31l-1.72,1.81c-.57.61-1.19,1.16-1.78,1.75-1.2,1.16-2.36,2.36-3.63,3.45.27-.5.53-1,.77-1.5s.43-1,.63-1.56a21.1,21.1,0,0,0,1.12-4.08,8,8,0,0,0-.44-4.15c-.38-.91-.86-1.92-1.92-2a1,1,0,0,0-.39,0,1.44,1.44,0,0,0-1.51.54,2.37,2.37,0,0,0-.23.56,2.1,2.1,0,0,0,1.8,2.94,2,2,0,0,0,1.11-.28,7.82,7.82,0,0,1,.06,1,15.21,15.21,0,0,1-.87,4.43c-.11.37-.23.74-.37,1.1a11,11,0,0,1-.45,1q-.49,1-1.08,2c-.38.66-.8,1.32-1.23,2s-.94,1.23-1.44,1.84a89.49,89.49,0,0,1-11.44,8,23.08,23.08,0,0,0,2.74-4.64,13.59,13.59,0,0,0,.94-2.78,15.55,15.55,0,0,0,.37-2.88c.07-1.53-.05-3.76-1.81-4.28s-3,1.41-3.77,2.45a23.5,23.5,0,0,0-1.77,2.58c-.27.45-.53.92-.78,1.4s-.5.93-.74,1.41a27.72,27.72,0,0,0-1.91,5.08,19.22,19.22,0,0,0-.78,5.49c-.67.29-1.34.57-2,.79s-1.39.44-2.07.68a8.07,8.07,0,0,0-1.68.56c-.3.14-.6.28-.9.44l-.94.45a31.27,31.27,0,0,1-3.54,1.6c-1.09.34-2.84,1.08-3.93,1.42.71-.5,1.41-1,2.06-1.59.32-.29.63-.58.92-.89a8.76,8.76,0,0,0,.8-1,13.71,13.71,0,0,0,2.13-5.66c.19-1.13.69-3.05-.59-3.74a1.36,1.36,0,0,0-.94-.1,4.27,4.27,0,0,0-1.09.34,17.93,17.93,0,0,0-1.87,1.08,19.26,19.26,0,0,0-4.19,3.48,18.67,18.67,0,0,0-3.13,4.71,34.62,34.62,0,0,0-1.93,5.49c-1.62.37-3.24.79-4.86,1.14l-4.91,1a28.55,28.55,0,0,0,2.81-1.87c2.14-1.53,4.54-3.89,5-6.57.17-1,.31-2.07-.53-2.75a1.39,1.39,0,0,0-.34-.2,1.47,1.47,0,0,0-1.57-.37,2.62,2.62,0,0,0-.5.35,2.12,2.12,0,0,0,0,3.46,2.18,2.18,0,0,0,1.09.34,8.6,8.6,0,0,1-.47.84,13.1,13.1,0,0,1-3.1,3.29,25.22,25.22,0,0,1-8.14,4.34l-3.48.35-1.74.16c-.58,0-1.17.06-1.75.08L134,241c-.59,0-1.17,0-1.75,0l-1.76,0a22.11,22.11,0,0,0,2.5-1.07,21.36,21.36,0,0,0,2.3-1.4,16.22,16.22,0,0,0,2.27-1.83,12.51,12.51,0,0,0,1.86-2.23c.88-1.28,2-3.27.75-4.61a1.78,1.78,0,0,0-1-.58,4.43,4.43,0,0,0-1.21,0,10.21,10.21,0,0,0-2.29.65c-.49.18-1,.38-1.46.6l-1.42.68a26.64,26.64,0,0,0-2.8,1.55c-.73.45-1.46,1-2.19,1.53a24.56,24.56,0,0,0-2.13,1.74,19.64,19.64,0,0,0-3.58,4.29c-1.43-.25-2.84-.65-4.25-.94a16.94,16.94,0,0,0-3.75-.67l-2.06-.18c-.33,0-.65-.07-1-.12s-.59-.13-.85-.2c-1.09-.32-3-.56-4.09-.85a16.7,16.7,0,0,0,5.06-1,13.77,13.77,0,0,0,4.82-3.72c.76-.84,2.19-2.16,1.48-3.45-.61-1.13-3-.93-4-.94A19.3,19.3,0,0,0,103,231.26c-.4.26-.8.54-1.19.83s-.76.56-1.14.87c-.75.6-1.48,1.24-2.2,1.92l-2.38-.77c-.4-.12-.79-.27-1.18-.41l-1.17-.44c-1.56-.59-3.15-1.1-4.68-1.78q.84.06,1.68.06t1.68-.12a21.45,21.45,0,0,0,4.16-.75,8.28,8.28,0,0,0,3.56-2.19c.66-.74,1.36-1.61,1-2.62a1.51,1.51,0,0,0-.19-.35,1.44,1.44,0,0,0-1.14-1.12,2.43,2.43,0,0,0-.61,0,2.1,2.1,0,0,0-1.87,2.9,2,2,0,0,0,.74.88,7.83,7.83,0,0,1-.84.46,15.3,15.3,0,0,1-4.37,1.14,19.09,19.09,0,0,1-4.59.1q-1.15-.09-2.31-.27c-.77-.12-1.52-.31-2.29-.49-1-.5-2.11-1-3.16-1.51L77.41,226l-1.54-.85-1.48-.92c-1-.62-2-1.24-3-1.87a25.34,25.34,0,0,0,5.38.45,10.5,10.5,0,0,0,1.47-.11,13.54,13.54,0,0,0,1.44-.26,14.84,14.84,0,0,0,2.76-.9,7.83,7.83,0,0,0,2.17-1.29,2.38,2.38,0,0,0,.9-2.2c-.26-1.69-2.54-2.09-3.84-2.33a24,24,0,0,0-3.09-.49c-1-.1-2.14-.11-3.19-.14a26.2,26.2,0,0,0-5.41.48,19.2,19.2,0,0,0-5.28,1.66c-.55-.47-1.08-1-1.6-1.48s-1-1.06-1.51-1.57a7.31,7.31,0,0,0-1.23-1.28c-.49-.42-1-.83-1.59-1.27a29.57,29.57,0,0,1-3-2.5c-.78-.83-2.2-2.09-3-2.93a25.35,25.35,0,0,0,2.33,1.17c.39.16.79.32,1.2.45a10.46,10.46,0,0,0,1.26.28,13.8,13.8,0,0,0,6-.53c1.1-.32,3-.7,3.12-2.16,0-1.22-2-2.39-2.89-2.94A19.29,19.29,0,0,0,59,200.17a14.32,14.32,0,0,0-1.4-.35c-.46-.1-.92-.19-1.38-.26a20.34,20.34,0,0,0-2.82-.18,25.84,25.84,0,0,0-2.89.2c-1,.12-1.92.26-2.89.44L46,198.08c-.53-.64-1.06-1.28-1.55-2l-1.5-2c-.5-.66-1-1.31-1.49-2,.23.17.45.33.69.49l.72.44q.73.44,1.47.81c.59.31,1.22.62,1.88.9.32.14.66.27,1,.39a9.65,9.65,0,0,0,1,.3,8.17,8.17,0,0,0,4.16.08c1-.27,2-.63,2.26-1.67a1.71,1.71,0,0,0,0-.4,1.45,1.45,0,0,0-.35-1.57A2.39,2.39,0,0,0,50.68,193a2.1,2.1,0,0,0,.16,1.13q-.5,0-1-.06a8.54,8.54,0,0,1-2.19-.52c-.72-.25-1.42-.55-2.1-.86a22.31,22.31,0,0,1-2.06-1.07c-.65-.4-1.27-.85-1.88-1.31s-1.2-1-1.79-1.48c-.29-.26-.59-.51-.86-.79l-.82-.84-1.83-3c-.6-1-1.13-2-1.69-3.06-1.16-2-2.08-4.18-3.06-6.29a24.46,24.46,0,0,0,4.25,3.29,15.78,15.78,0,0,0,5.46,2,10.79,10.79,0,0,0,1.22.14,5.76,5.76,0,0,0,1.32-.07,2.38,2.38,0,0,0,1.93-1.36c.67-1.55-1-3.13-2-4l-1.14-1.06c-.39-.34-.79-.68-1.2-1A30.68,30.68,0,0,0,38.87,171a25.94,25.94,0,0,0-4.77-2.53,27.61,27.61,0,0,0-2.64-.92,18.08,18.08,0,0,0-2.71-.55c-.4-1.39-.69-2.82-.95-4.24a12.63,12.63,0,0,0-1-3.67,30.05,30.05,0,0,1-1.09-3.73c0-.28-.13-.6-.22-1,0-.17-.09-.35-.14-.53l-.12-.55c-.17-.74-.34-1.48-.42-2.05a22.53,22.53,0,0,0,1.28,2.25,11.34,11.34,0,0,0,1.69,2,11.78,11.78,0,0,0,2.5,1.73,13.94,13.94,0,0,0,1.37.61c.48.18,1,.35,1.47.49,1.09.34,2.93,1.08,3.78-.1a2.29,2.29,0,0,0,0-2,17.49,17.49,0,0,0-.79-2,13.81,13.81,0,0,0-1.3-2.38,19.89,19.89,0,0,0-1.59-2.21,15.42,15.42,0,0,0-2-2,18.84,18.84,0,0,0-2.24-1.7,31.69,31.69,0,0,0-5.2-2.64l-.45-5c-.1-.83-.1-1.67-.15-2.5l-.12-2.5a29.18,29.18,0,0,0,1.42,3,17,17,0,0,0,2.43,3.49,7.88,7.88,0,0,0,3.39,2.34c.93.3,2,.58,2.8-.15a1.31,1.31,0,0,0,.25-.31,1.48,1.48,0,0,0,.59-1.5,2.46,2.46,0,0,0-.26-.54,2.12,2.12,0,0,0-3.42-.52,2.28,2.28,0,0,0-.5,1c-.26-.18-.52-.38-.75-.57a13.44,13.44,0,0,1-2.86-3.51,24.89,24.89,0,0,1-2-4.16,43,43,0,0,1-1.16-4.5c0-1.17.09-2.33.14-3.5s.11-2.33.22-3.49l.41-3.47c.08-.58.14-1.16.23-1.74l.32-1.72c.08.44.18.88.29,1.32a12.17,12.17,0,0,0,.4,1.3c.32.85.68,1.68,1.06,2.47a16,16,0,0,0,1.47,2.51,14.32,14.32,0,0,0,2,2.15c1.15,1,2.94,2.39,4.46,1.38a2.25,2.25,0,0,0,.89-2.09,10.37,10.37,0,0,0-.11-1.25c-.06-.4-.14-.78-.2-1.09a25.75,25.75,0,0,0-.86-3c-.34-1-.69-2-1.13-3a25.28,25.28,0,0,0-1.19-2.39c-.46-.8-.89-1.58-1.41-2.35a19.87,19.87,0,0,0-3.69-4.18c.41-1.39,1.07-2.7,1.56-4.06a8.62,8.62,0,0,0,.66-1.64c.22-.61.4-1.28.57-2l.5-2c.09-.32.17-.63.26-.92s.22-.55.33-.8c.49-1,1-2.86,1.49-3.91a16.4,16.4,0,0,0,.16,5.15,13.92,13.92,0,0,0,2.93,5.33c.71.87,1.79,2.49,3.18,2,1.21-.43,1.38-2.82,1.55-3.81A19.44,19.44,0,0,0,38,87.76c-.19-.43-.41-.87-.63-1.3s-.43-.84-.67-1.26c-.47-.84-1-1.67-1.55-2.49l1.14-2.22c.38-.74.81-1.45,1.21-2.18l1.22-2.19c.39-.74.86-1.42,1.29-2.14a18.59,18.59,0,0,0-.48,3.32,20.73,20.73,0,0,0,.08,4.23,8,8,0,0,0,1.59,3.85c.63.77,1.37,1.6,2.43,1.42a1.49,1.49,0,0,0,.37-.13,1.42,1.42,0,0,0,1.28-1,2.54,2.54,0,0,0,.06-.6,2.09,2.09,0,0,0-2.55-2.3,2,2,0,0,0-1,.58,6,6,0,0,1-.31-.9A15.27,15.27,0,0,1,41.09,78c0-.39,0-.78,0-1.16s.09-.76.15-1.14c.11-.75.27-1.5.45-2.25s.38-1.5.64-2.23.55-1.45.85-2.18l1-1.44.5-.72c.17-.24.35-.47.52-.7l2.14-2.78.53-.69c.18-.23.38-.44.57-.66l1.14-1.33,1.15-1.32c.39-.44.77-.88,1.19-1.29a15.44,15.44,0,0,0-.83,2.6c-.21.88-.37,1.77-.5,2.63-.07.48-.12,1-.15,1.45s0,1,0,1.47A15.45,15.45,0,0,0,51,69.14c.37,1.49,1.11,3.6,2.95,3.6a2.31,2.31,0,0,0,1.93-1.23,14.38,14.38,0,0,0,1-2.16,24.14,24.14,0,0,0,1-3c.13-.51.24-1,.35-1.56s.23-1,.32-1.56c.15-.84.26-1.72.33-2.63s.08-1.86.09-2.77a19.3,19.3,0,0,0-.79-5.5c1.09-1,2.37-1.7,3.52-2.56,1.85-1,4.14-3.68,5.93-4.9,1-.6,2.42-1.84,3.39-2.46a15.53,15.53,0,0,0-2.67,4.41,14,14,0,0,0-.45,6c.1,1.1.18,3.12,1.6,3.42,1.22.27,2.7-1.62,3.38-2.36a21.51,21.51,0,0,0,1.69-2.12,19.38,19.38,0,0,0,1.36-2.39,20.16,20.16,0,0,0,1.07-2.63A19.54,19.54,0,0,0,77.55,44c.15-.93.22-1.92.28-2.88s.06-1.93,0-2.92c1.46-.81,2.87-1.7,4.36-2.44l2.21-1.17L85.55,34l1.13-.54a18.31,18.31,0,0,0-2.19,2.55,19.62,19.62,0,0,0-2.22,3.6,8.32,8.32,0,0,0-.75,4.11c.12,1,.29,2.08,1.28,2.5a1.59,1.59,0,0,0,.39.09,1.46,1.46,0,0,0,1.6-.09,4,4,0,0,0,.38-.48,2.12,2.12,0,0,0,.42-1.85,2,2,0,0,0-1.34-1.49,2,2,0,0,0-1.14,0,9.2,9.2,0,0,1,.21-.94,15.13,15.13,0,0,1,2.07-4,16,16,0,0,1,1.39-1.85c.51-.57,1-1.11,1.6-1.64s1.14-1,1.74-1.54,1.25-.93,1.89-1.38l3.23-1.35c1.09-.4,2.2-.78,3.3-1.17l1.65-.58c.55-.19,1.12-.33,1.68-.5l3.37-.94a24.18,24.18,0,0,0-3.93,3.68,15.82,15.82,0,0,0-2.84,5.07c-.5,1.43-1,3.67.55,4.61s3.27-.48,4.31-1.28c.83-.64,1.65-1.26,2.42-2s1.51-1.5,2.24-2.3A26.08,26.08,0,0,0,111.24,30c.25-.4.47-.82.7-1.23s.43-.81.62-1.23a17.3,17.3,0,0,0,1-2.6c.71-.09,1.44-.14,2.16-.19l1.09-.06,1.09,0a12.92,12.92,0,0,0,3.78-.41,24.17,24.17,0,0,1,3.85-.52c.57,0,1.33-.1,2.09-.19s1.51-.11,2.09-.11l-1.23.43a9.54,9.54,0,0,0-1.19.52,12.6,12.6,0,0,0-2.19,1.37A11.17,11.17,0,0,0,123,28a16.79,16.79,0,0,0-1.53,2.65c-.5,1-1.52,2.72-.48,3.76a2.31,2.31,0,0,0,2,.29c.8-.13,1.61-.37,2.1-.49a13.77,13.77,0,0,0,2.56-.92l1.24-.6c.4-.21.8-.43,1.2-.67a15.77,15.77,0,0,0,2.31-1.67c.35-.32.7-.65,1-1s.66-.66,1-1a30.06,30.06,0,0,0,3.36-4.74l1.25,0,1.25.08,2.49.15,1.25.06c.42,0,.84.05,1.25.1l2.49.25a27.57,27.57,0,0,0-3.2,1,21.24,21.24,0,0,0-3.8,1.93,9.83,9.83,0,0,0-1.64,1.35,6.72,6.72,0,0,0-1.18,1.7c-.43.9-.86,1.94-.24,2.8a1.2,1.2,0,0,0,.28.27,1.81,1.81,0,0,0,.62.61,1.13,1.13,0,0,0,.79.18,2.39,2.39,0,0,0,.57-.19,2.09,2.09,0,0,0,1-3.3,2.28,2.28,0,0,0-.95-.65c.22-.23.45-.45.68-.66a15.46,15.46,0,0,1,3.89-2.35A24,24,0,0,1,149,25.51l1.14-.23,1.15-.13c.77-.08,1.54-.14,2.33-.18,2.32.29,4.59.84,6.88,1.3.57.11,1.13.26,1.7.41l1.69.46,1.69.47.84.23.83.28a14.63,14.63,0,0,0-2.7.38c-.89.19-1.76.42-2.59.68a14.43,14.43,0,0,0-5.09,2.8c-1.19,1-2.77,2.56-2,4.21a2.33,2.33,0,0,0,2,1.2,14.24,14.24,0,0,0,2.38,0A22.28,22.28,0,0,0,162.3,37c.52-.1,1-.23,1.56-.36s1-.24,1.54-.38q1.24-.35,2.52-.84c.85-.33,1.72-.74,2.54-1.13a19,19,0,0,0,4.61-3.08c1.34.56,2.56,1.39,3.83,2.07a16.38,16.38,0,0,0,3.43,1.66,30.84,30.84,0,0,1,3.56,1.56c1,.61,2.7,1.39,3.68,2A23,23,0,0,0,187,38a9.62,9.62,0,0,0-2.57,0,13.85,13.85,0,0,0-5.64,2.2c-1,.58-2.74,1.52-2.4,2.92a2.44,2.44,0,0,0,1.54,1.36,20.15,20.15,0,0,0,2.05.68c.43.13.87.23,1.32.33s.88.19,1.33.26a20.79,20.79,0,0,0,2.74.2c.48,0,1,0,1.44,0s.93-.07,1.39-.13a19.41,19.41,0,0,0,2.77-.63,24.14,24.14,0,0,0,2.72-1c.89-.36,1.77-.78,2.65-1.22,2.76,1.86,5.45,3.83,8.09,5.88a19.46,19.46,0,0,0-3.25-.86,18.55,18.55,0,0,0-4.21-.44,8.22,8.22,0,0,0-4,1.1c-.84.53-1.75,1.16-1.7,2.24a1.36,1.36,0,0,0,.08.38,1.46,1.46,0,0,0,.78,1.41,3.35,3.35,0,0,0,.59.14,2.17,2.17,0,0,0,1.85-.43,1.94,1.94,0,0,0,.76-1.85,2.09,2.09,0,0,0-.47-1c.31-.09.63-.15.94-.21a14.54,14.54,0,0,1,4.51.12,19.38,19.38,0,0,1,2.27.45c.73.21,1.46.46,2.17.74a26.12,26.12,0,0,1,4.21,2l2.6,2.34c.85.8,1.66,1.63,2.49,2.46l1.24,1.24c.4.42.78.86,1.17,1.3l2.32,2.62a24.61,24.61,0,0,0-5-1.94,15.82,15.82,0,0,0-5.8-.37c-1.5.17-3.73.71-3.92,2.5s1.85,2.73,3,3.32a27.06,27.06,0,0,0,2.83,1.32c1,.4,2,.71,3,1a26.85,26.85,0,0,0,5.31,1.06,19.76,19.76,0,0,0,5.54-.12c.39.61.76,1.24,1.12,1.86s.65,1.3,1,1.93a7.72,7.72,0,0,0,.82,1.58c.35.55.79,1.09,1.18,1.67A31.38,31.38,0,0,1,230,79.53c.13.26.3.54.47.86s.37.64.55,1c.38.65.77,1.31,1,1.83A14.08,14.08,0,0,0,228,80a13.57,13.57,0,0,0-5.93-1.19c-1.15,0-3.12-.19-3.6,1.19-.39,1.16,1.28,2.86,1.93,3.63a19.78,19.78,0,0,0,4.1,3.56,19.05,19.05,0,0,0,5.14,2.33,33.85,33.85,0,0,0,5.73,1l.94,2.32.48,1.15c.17.38.33.77.46,1.16.56,1.57,1.16,3.13,1.72,4.7a26.94,26.94,0,0,0-2.27-2.49c-1.85-1.87-4.55-3.87-7.26-3.9-1,0-2.1,0-2.64,1a1.09,1.09,0,0,0-.14.37,1.43,1.43,0,0,0-.12,1.6,2.82,2.82,0,0,0,.41.43,2.13,2.13,0,0,0,3.43-.49,2.16,2.16,0,0,0,.17-1.13c.31.1.61.22.9.33a13.17,13.17,0,0,1,3.72,2.55,18.08,18.08,0,0,1,3.09,3.4c.45.63.87,1.27,1.28,1.93a20.57,20.57,0,0,1,1.16,2c.57,2.26,1.22,4.5,1.62,6.8.22,1.15.47,2.29.65,3.44l.45,3.48a20.83,20.83,0,0,0-1.44-2.31c-.26-.37-.53-.73-.8-1.07s-.59-.68-.88-1a15.67,15.67,0,0,0-4.62-3.48c-1.41-.67-3.54-1.43-4.68,0a1.87,1.87,0,0,0-.42,1.07,3.33,3.33,0,0,0,.13,1.2,9.77,9.77,0,0,0,1,2.15c.26.45.54.9.82,1.34s.55.88.84,1.31a30.52,30.52,0,0,0,2,2.52c.59.65,1.16,1.3,1.79,1.94a24.26,24.26,0,0,0,2,1.85,20.7,20.7,0,0,0,2.29,1.64,17.31,17.31,0,0,0,2.43,1.31c0,1.45-.22,2.9-.29,4.34a12.9,12.9,0,0,0-.17,3.81c0,.69.11,1.4.11,2.06a14.46,14.46,0,0,1-.1,1.82,19.92,19.92,0,0,0-.13,2.08,17.33,17.33,0,0,1-.15,2.09,17,17,0,0,0-.63-2.53A12.13,12.13,0,0,0,241.49,138.94Z"/></g></g></svg>