<svg xmlns="http://www.w3.org/2000/svg" viewBox="0 0 270 270"><defs><style>.cls-1{fill:#fff;}.cls-2{fill:#a78126;}.cls-3{fill:#a01a22;}.cls-4{fill:#002d26;}</style></defs><g id="Capa_2" data-name="Capa 2"><g id="Home"><rect class="cls-1" width="270" height="270" rx="9.75"/><path class="cls-2" d="M216.68,18.38c.28-.26.6.08.87.2a5.89,5.89,0,0,0,1.35.37l.65.17c.13,0,.28,0,.4.1s.08.14.29.17l.3.05.57.06a6.18,6.18,0,0,0,1,.18c.46,0,.91.06,1.37.09a7.41,7.41,0,0,1,1.2.34,8.53,8.53,0,0,0,1.51.11.48.48,0,0,1,.55.38,1.71,1.71,0,0,1-.19,1.51c-.23.26-.78.28-1.09.42a1.66,1.66,0,0,0-.57.4,6.49,6.49,0,0,0-.45,1l-.11.45,0,.77a19.48,19.48,0,0,1-.11,2.52v-.11c0,.72-.12,1.43-.12,2.15l0,1.09c0,.07,0,.57.06.63a18.54,18.54,0,0,1,.08,4.34c-.12,1.54-.22,3.11-.45,4.64a20.42,20.42,0,0,0,0,3.75c0,.69.08,1.38.06,2.08,0,.48-.09.94-.14,1.42-.12,1.23.06,2.51,0,3.75a12.32,12.32,0,0,1-.19,2,11.05,11.05,0,0,0-.27,1.37c0,.41-.12.82-.12,1.23a2.57,2.57,0,0,0,.22.68c.05.24.08.49.12.74a2.31,2.31,0,0,0,1.87,1.61,1.8,1.8,0,0,0,.52,0c.16,0,.17-.08.32-.11a.39.39,0,0,1,.41.19,1.82,1.82,0,0,1,.17,1c0,.32-.13.82-.46.93a1.39,1.39,0,0,1-.7.06h-.87a13.31,13.31,0,0,0-1.55.12l-.76.12c-.23,0-.46.06-.69.06a2.57,2.57,0,0,1-1.32,0c-.15-.12-.06-.18-.28-.18h-.29l-.37.06a10.92,10.92,0,0,1-1.37.24c-.36.11-.58.35-1,.41a1.93,1.93,0,0,1-.59-.18c-.11-.06-.22-.18-.31-.23H216a6.11,6.11,0,0,1-1.41.17,1,1,0,0,0-.58.12c-.15.06-.4.18-.56.06a.85.85,0,0,0-.55-.12.42.42,0,0,1-.35.18c-.59-.18-.48-1.19-.32-1.61a.81.81,0,0,1,.77-.59l1.13-.07c.67-.49,1.54-.64,2.12-1.26a2.3,2.3,0,0,0,.43-1.54l.13-1.87c.07-1.36.05-2.72,0-4.08a10.72,10.72,0,0,1,0-2,11.55,11.55,0,0,0,.21-1.55V45.52c0-.5.1-1,.12-1.49,0-1.19,0-2.38,0-3.57a9.81,9.81,0,0,1,.1-2,15,15,0,0,0,.27-1.61l.11-2c0-.56.11-1.1.19-1.66s.05-1.25.1-1.88.14-1.16.22-1.74l0,.1a5.11,5.11,0,0,0,.12-.85,14.1,14.1,0,0,1,.21-2.05c0-.54.14-1.09.14-1.6V23c-.76.5-1.56.94-2.33,1.44a9.62,9.62,0,0,0-1.41,1.06,8.44,8.44,0,0,1-1.25,1.06,21.63,21.63,0,0,0-2.39,1.87c-.46.41-.91.85-1.4,1.23a3.53,3.53,0,0,1-1.23.78c-.46.12-1.4.06-1.63-.45a1.07,1.07,0,0,1-.37-.57.8.8,0,0,1,.13-.56,1.15,1.15,0,0,1,.66-.43l.29-.1a1,1,0,0,1,.24-.26c.17-.13.37-.17.52-.31l.6-.5c.76-.65,1.52-1.31,2.3-1.94a16.78,16.78,0,0,0,1.44-1.07A11.87,11.87,0,0,1,214.15,23c.51-.38,1-.72,1.59-1.05a2.68,2.68,0,0,0,1.08-.92.7.7,0,0,0-.09-.59,1.72,1.72,0,0,1-.41-1.16,1.39,1.39,0,0,1,.36-.94Z"/><path class="cls-2" d="M241.76,18.71a9.5,9.5,0,0,1,2.76.24A11.09,11.09,0,0,1,246.91,20a7,7,0,0,1,2.17,1.6,6.59,6.59,0,0,1,1.06,2.22,7.08,7.08,0,0,1,.37,1.58v.09s0,0-.06-.08a4.39,4.39,0,0,1,.24.68l0-.09c.24.53.07,1.08.17,1.61a8.18,8.18,0,0,1,.09,1.71l0,2.2a3.73,3.73,0,0,1-.36,1.83l.05-.08a4.66,4.66,0,0,1-.4,1.3l-.59,1.49a5.2,5.2,0,0,1-1.86,2.38l.19-.14a6.54,6.54,0,0,1-.83.74,7.16,7.16,0,0,1,1.49,1,8.81,8.81,0,0,1,1.2,1.08A6.86,6.86,0,0,1,251.19,44a9.64,9.64,0,0,1,.57,3.4c0,.62.08,1.22.08,1.84l0,1.75a23.22,23.22,0,0,1-.25,3.33,10.31,10.31,0,0,1-1.06,3.14,9.56,9.56,0,0,1-1.64,2.75A12.33,12.33,0,0,1,246,62l.1-.06a10.29,10.29,0,0,1-4.4.71l-2.28.05a4.31,4.31,0,0,1-1.92-.29,26.91,26.91,0,0,1-2.64-2.12,7.25,7.25,0,0,1-1.8-3.1,36.61,36.61,0,0,1-.9-3.86,8.19,8.19,0,0,1-.2-1.08c0-.22-.1-.42-.11-.64a9.3,9.3,0,0,1,.1-1.75,6.17,6.17,0,0,1,.18-1.27,3.83,3.83,0,0,1,.71-1.22,4,4,0,0,1,2.52-.77,3.81,3.81,0,0,1,3.13.8,3.75,3.75,0,0,1,.56,3.39c0-.17,0,.29,0,.3l0,1.12,0,2.24a18.5,18.5,0,0,0,0,2,9.22,9.22,0,0,0,.38,1.57,14,14,0,0,0,.77,1.73c.12.27.11.34.42.26a4.89,4.89,0,0,0,.64-.14,6.79,6.79,0,0,0,1.36-.58,6.09,6.09,0,0,0,1.29-1.19l-.07.1.21-.29c.08-.1.19-.15.27-.24l-.12.09c.84-.82,1-2.21,1.35-3.27a8.51,8.51,0,0,0,.29-.85l.13-.85a7,7,0,0,1,.19-1.55,6.11,6.11,0,0,0,.05-.86,3.11,3.11,0,0,0,0-1,2.72,2.72,0,0,1-.12-.9c0-.26-.08-.5-.1-.76s0-.64-.07-1c-.14-1.19-.5-2.35-.62-3.55a6.39,6.39,0,0,0-.49-2.29c-.21-.38-.61-.26-.92-.54a7.05,7.05,0,0,0-1.36-.24c-1-.06-2.24.39-3.14-.19-.49-.31-.44-.87-.41-1.37s.16-.7.67-.77a4.08,4.08,0,0,0,.79-.06,2.38,2.38,0,0,1,.84-.07h.91c.24,0,.41-.21.64-.29a1.66,1.66,0,0,0,.94-.78,9,9,0,0,1,.44-1.62l0,.12a3.63,3.63,0,0,0,.29-.75,2.44,2.44,0,0,1,.14-.77v.11c0-.41.1-1,.11-1.33,0-.58.13-1.17.15-1.75a11.31,11.31,0,0,0,0-1.84c-.08-.56-.07-1.13-.17-1.69a9.45,9.45,0,0,0-.57-1.62,7.21,7.21,0,0,1-.48-1.92,2.27,2.27,0,0,0-.79-1.34,3.75,3.75,0,0,0-1.39-.64c-.42-.14-1,.46-1.38.75l-.09.06.07-.06c-.14.05-.4.4-.48.48a2.81,2.81,0,0,0-.48.7c-.22.46-.43,1.2-.56,1.57s-.3.88-.42,1.32A5.93,5.93,0,0,0,238,27v1.06c0,.35-.12.69-.13,1a1.27,1.27,0,0,1-1,1.2,1.3,1.3,0,0,1-.44,0,3,3,0,0,0-.52,0c-.3,0-.58-.12-.88-.15a13.3,13.3,0,0,0-1.55-.09,2,2,0,0,1-1.69-.68,3.72,3.72,0,0,1-.18-2,8.72,8.72,0,0,1,.45-2.37,9.91,9.91,0,0,1,.69-1.82,5.92,5.92,0,0,1,1.36-2.13,6.79,6.79,0,0,1,2.1-1.26,15.19,15.19,0,0,1,5.53-1.11Z"/><path class="cls-3" d="M187.49,115.39c-4.34-17.64-16.36-34.76-34.66-40-17.76-5.05-57.5,1.94-32.66,27.34,12.93,13.23,28.71,24.16,48.13,21.84h.28a28.48,28.48,0,0,0-.47-10.71c-16.13.31-35.28-6.12-43.48-21-7.85-14.24,16-14.27,23.07-11.61,31.39,11.78,39.83,58,6.58,71.8a95.56,95.56,0,0,1,4,10.45C173.4,151.84,192.92,137.51,187.49,115.39Z"/><path class="cls-3" d="M96.63,162.9c-7.95-3.94-22.27-10.74-21.29-22,2.1-24.11,32.35-14.78,43.71-3.38,14.3,14.34,23.77,41.45,7.47,58.17A49.77,49.77,0,0,1,76.75,209c2.5,4.17,5,8.37,7.31,12.64,22-.37,53.35-7.22,65.33-28.07,11.58-20.17-4.11-52.24-20.49-65.93-10.57-8.83-26.07-15.93-40.14-12.06-13,3.56-25.13,15.58-20.13,30.27,8.29,24.41,32.88,38.12,58,33.65a3.78,3.78,0,0,1,.81-.06,28.46,28.46,0,0,0,.94-10.45C117.3,170.51,106.77,167.92,96.63,162.9Z"/><path class="cls-3" d="M210.27,64.16c.07-8.73-1.38-17.51-5.53-25.32-3.92-7.37-8.3-9.28-14.79-7.69,18.84,16,16,47.12-3.54,62a1.83,1.83,0,0,1-.28.14,55.44,55.44,0,0,1,4.31,8.36C201.32,91.88,210.15,79.48,210.27,64.16Z"/><path class="cls-2" d="M36.11,181c.59-.48,1.2.38,1.73.7A70.39,70.39,0,0,1,47.46,189c3.74,3.29,7.15,6.94,11.15,9.93a1.35,1.35,0,0,0,1.74.17c1-.56,1.82-1.41,2.83-2A2.17,2.17,0,0,0,64.37,195c-.33-2.37.54-4.49,1.12-6.67a63.15,63.15,0,0,1,3.86-11.1,12,12,0,0,1,1.72-2.71c.53-.63,1-.65,1.51,0,.32.41.68.8,1,1.19,1.33,8.41,1.62,21.46,1.15,24.5a14.6,14.6,0,0,0-.55,2.66c.05,2.09,1,3,3,2.69a72.39,72.39,0,0,0,12.74-3c3.76-1.38,7.54-2.71,11.42-4-1.46,1.31-2.57,2.92-4,4.26A79.3,79.3,0,0,1,90.07,209c-1.28,1-2.67,1.86-4,2.73-2.21,1.38-4.7,2.34-6.69,4.06-1.56,1.35-1,3-.48,4.82.43,1.39,1.14,2.69,1.48,4.11a20,20,0,0,0,.91,3.8,86.22,86.22,0,0,1,3.63,9.86c.85,2.83,1.35,5.71,2.11,8.55a7.73,7.73,0,0,1,.14,2.25c0,.37.45.82,0,1.08-.33.16-.64-.21-1-.4a29,29,0,0,1-6.41-6c-3.59-4.1-7.09-8.28-10.57-12.48-.81-1-1.34-2.19-2.2-3.18-2.16-2.52-4.36-.45-6.37,1.35a39.36,39.36,0,0,0-7,9.07,107.29,107.29,0,0,1-6,9.4c-.6.82-.6,2.05-1.72,2.59-.11.05,0,.58-.36.56s-.37-.44-.42-.73a45.29,45.29,0,0,1-.48-7.62A77,77,0,0,0,44,230.94c-.71-4.92-1-11.41-7.19-11.95a40.1,40.1,0,0,0-4.1.12A12.27,12.27,0,0,1,27.43,218a17.11,17.11,0,0,1,4.85-2.68,25.71,25.71,0,0,0,5.79-4.11c1.16-1,2.15-2.28,3.52-2.94s5.75-1.82,5.18-4.26c-.12-.54-1-.81-1.19-1.42-1.1-3-3.09-5.53-4.35-8.45-1.61-3.72-3.71-7.22-4.93-11.11C36.09,182.35,35.51,181.49,36.11,181Z"/><path class="cls-2" d="M74.84,177.16c-.39-.5-.81-.95-1.23-1.41-.13-.82-.26-1.62-.41-2.34A22.21,22.21,0,0,0,74.84,177.16Z"/><path class="cls-4" d="M241.88,106.38c-.37-.3-.75.24-1.08.44a43,43,0,0,0-6,4.58c-2.33,2.06-4.47,4.34-7,6.21a.83.83,0,0,1-1.08.1c-.65-.34-1.14-.88-1.77-1.23a1.34,1.34,0,0,1-.74-1.33,10.34,10.34,0,0,0-.71-4.16,39.31,39.31,0,0,0-2.41-6.94,7.72,7.72,0,0,0-1.07-1.7c-.34-.39-.62-.4-.95,0-.2.25-.42.49-.65.74a79.27,79.27,0,0,0-.71,15.32,8.88,8.88,0,0,1,.34,1.66c0,1.31-.62,1.9-1.9,1.68a44.52,44.52,0,0,1-8-1.89c-2.35-.86-4.72-1.69-7.14-2.46.91.81,1.6,1.82,2.49,2.66a51.12,51.12,0,0,0,4.6,3.84c.8.59,1.67,1.16,2.53,1.7a30.64,30.64,0,0,1,4.18,2.54c1,.84.65,1.88.3,3-.27.87-.71,1.68-.93,2.57a12.46,12.46,0,0,1-.56,2.38,51.63,51.63,0,0,0-2.27,6.16c-.53,1.77-.85,3.57-1.32,5.34A5.15,5.15,0,0,0,210,149c0,.23-.28.52,0,.67s.4-.13.59-.24a18.21,18.21,0,0,0,4-3.78c2.24-2.56,4.43-5.17,6.6-7.8.51-.62.84-1.37,1.38-2,1.35-1.58,2.72-.28,4,.85a24.33,24.33,0,0,1,4.37,5.66,69.2,69.2,0,0,0,3.78,5.88c.38.51.37,1.29,1.07,1.62.07,0,0,.36.23.35s.23-.28.26-.46a28.12,28.12,0,0,0,.3-4.76,48.36,48.36,0,0,1,.38-7.42c.44-3.07.63-7.13,4.5-7.47.85-.08,1.71.07,2.56.07a7.57,7.57,0,0,0,3.28-.71,10.65,10.65,0,0,0-3-1.67,16.89,16.89,0,0,1-3.62-2.57,11.32,11.32,0,0,0-2.2-1.84c-.89-.43-3.59-1.14-3.24-2.67.08-.33.61-.5.75-.88.69-1.88,1.93-3.46,2.72-5.28a71.64,71.64,0,0,0,3.08-7C241.89,107.22,242.26,106.69,241.88,106.38Z"/><path class="cls-4" d="M217.67,104c.24-.31.5-.6.76-.88.08-.52.17-1,.26-1.47A14.39,14.39,0,0,1,217.67,104Z"/><path class="cls-3" d="M225.55,217.92A24,24,0,0,1,220,232.64c-2.14,2.45-6.88,7.67-10.74,5.83-10.86-5.16,1.51-19,7.73-22,8.76-4.12,22.49,1.38,25.58,10.52,1.68,5,3.18,11.28-.19,15.95a13.58,13.58,0,0,1-8.76,5.78c1.05,1,2.06,2.06,3,3.17,4.36-2.85,9-7.39,10.45-12.48,1.65-5.84-.84-11.24-4.25-15.93-6.25-8.62-18.06-16.79-28.68-10.07-5.06,3.2-11,7.44-12.75,13.48s-.73,15.73,7.81,15.61c6.74-.09,11.45-4.92,14.64-10.44,2.4-4.15,5.14-8.61,5.5-13.5a18.14,18.14,0,0,0-3.86-.8A.62.62,0,0,1,225.55,217.92Z"/><path class="cls-3" d="M199.52,192.83c3.24,9.14-6.46,18.81-14,22.65-2.2,1.13-6.12.31-6.8-2.42-1-3.82,1-8.19,3.2-11.3,5-7.16,14.18-13.56,23.4-11.95,5,.87,8.95,3.83,12.26,7.56,2.83,3.19,5.85,6.57,6.16,10.95a17.86,17.86,0,0,1,3.23.47c.44.11.89.23,1.33.36a43.35,43.35,0,0,0-8-14.13c-3.42-4.25-6.71-8.2-12.07-10-5.8-2-9.93-1.17-15.21,1.76-4.42,2.45-8.6,5.33-11.73,9.36-3,3.84-7.87,10.94-5.89,16.07,2.63,6.81,10.66,6.12,16,3.16,8.53-4.71,12.84-13.25,14.66-22.5A16.81,16.81,0,0,0,199.52,192.83Z"/><path class="cls-3" d="M193.16,175.47a28.41,28.41,0,0,0-10.64-4c-3.67-.56-8.81-1.27-12,1.16-1.75,1.32-1.93,4.62-2,7.41,7.52-6,20.14-6.13,24.55,3.61a25.09,25.09,0,0,1,6.45-2.39C197.23,179.61,195.67,177,193.16,175.47Z"/><path class="cls-2" d="M97,90.38c-2.8-10,8.31-19.69,16.61-23.25,2.45-1.06,6.59.11,7.12,3.09.73,4.17-1.72,8.7-4.26,11.87-5.86,7.32-16.19,13.5-25.95,11.1-5.29-1.29-9.32-4.76-12.6-9C75.09,80.56,72.1,76.72,72.09,72a20,20,0,0,1-3.43-.73c-.47-.15-.94-.31-1.4-.49a46.56,46.56,0,0,0,7.53,15.73c3.35,4.81,6.59,9.28,12.21,11.64,6.07,2.54,10.55,2,16.43-.77,4.91-2.31,9.6-5.09,13.26-9.19,3.47-3.89,9.23-11.15,7.48-16.78-2.32-7.5-11-7.35-17-4.57-9.49,4.42-14.73,13.26-17.36,23A18.08,18.08,0,0,0,97,90.38Z"/><path class="cls-2" d="M102.51,109.46a30.7,30.7,0,0,0,11.12,5c3.9.87,9.35,2,13-.36,2-1.29,2.4-4.82,2.67-7.8-8.5,5.84-22,5.1-26.06-5.67a26.65,26.65,0,0,1-7.08,2.1C98.46,104.72,99.93,107.62,102.51,109.46Z"/><path class="cls-4" d="M89.56,41.1A107.7,107.7,0,0,1,110.4,38c7-.53,14.08-1.48,21.1-1.24a1,1,0,0,1,.14,2c-12.7,2.6-25.77,2.17-38.44,5.3S68.63,53.54,58.27,61.43c-19,14.49-31.77,35.4-39.4,57.78l.25.08a1.65,1.65,0,0,1,.22,3,7.23,7.23,0,0,1-3,1,2.3,2.3,0,0,1-2.62-2.94C21.26,96.15,35.22,73.89,55.33,58.2A98.12,98.12,0,0,1,89.56,41.1Z"/><path class="cls-4" d="M128.41,36.65c4.11-1.23,9.07.25,13.1,1.32a44.71,44.71,0,0,1,12.71,6.13c.74.48.4,1.87-.56,1.71-4.18-.68-7.86-3.33-11.91-4.59-4.49-1.41-9-.72-13.51-1.69C126.63,39.18,127.14,37,128.41,36.65Z"/><path class="cls-4" d="M132.58,30.58a30.85,30.85,0,0,1,11.47-2.92c1,0,1.18,1.41.38,1.84-3.27,1.74-6.82,2.83-10.21,4.31s-6.75,4.38-10.45,4.75a1.15,1.15,0,0,1-1.18-1.72C124.63,33.48,129.11,32.06,132.58,30.58Z"/><path class="cls-4" d="M133.24,15c-.23,5.27-4.07,10.91-7.49,14.71s-8.86,9.57-14.47,10c-1.32.1-2.46-1.46-1.27-2.5,1.76-1.52,4-2.33,6-3.5a37.41,37.41,0,0,0,6.8-5.34c4.17-4,5.59-9.25,8.5-14A1.08,1.08,0,0,1,133.24,15Z"/><path class="cls-4" d="M114.09,10.15c.13,6.58-2.53,12.89-6,18.37-3.12,4.92-8.87,12-14.89,13.19A1.56,1.56,0,0,1,91.83,39c1.88-2.15,4.66-3.52,6.87-5.37A37.63,37.63,0,0,0,105,26.56c3.59-5.1,5.26-10.89,6.81-16.84C112.2,8.38,114.07,8.91,114.09,10.15Z"/><path class="cls-4" d="M91.21,11.27c2.58,5.91.05,14.51-2.07,20.24-2.24,6-6.42,13.52-12.22,16.74a1.71,1.71,0,0,1-2.19-2.44c1.66-2.29,3.83-4.15,5.58-6.39a42.68,42.68,0,0,0,5.31-9.06A40.2,40.2,0,0,0,88.41,20.2c.43-2.91,0-5.93.78-8.78A1.1,1.1,0,0,1,91.21,11.27Z"/><path class="cls-4" d="M134.56,41c3.28,2.46,7.07,4.92,9.73,8.07a1.14,1.14,0,0,1-1.45,1.71c-2.92-1.42-5.45-3.73-8-5.72a22.3,22.3,0,0,0-4.32-3c-1.26-.57-2.47-.49-3.59-1.36-.54-.42-.7-1.46.09-1.76C129.69,37.88,132.42,39.37,134.56,41Z"/><path class="cls-4" d="M101.31,39.23c6.18-1.48,13.76,2,19.06,4.87,5.87,3.21,13.35,7.62,17.1,13.32.47.72-.52,1.34-1.13,1-2.9-1.53-5.34-4-8-5.95A49.47,49.47,0,0,0,119,46.91a57.12,57.12,0,0,0-8.82-3c-3-.79-6.14-.67-9.09-1.57A1.64,1.64,0,0,1,101.31,39.23Z"/><path class="cls-4" d="M87.83,45.34A62.38,62.38,0,0,1,102,47.28a65.49,65.49,0,0,1,13.23,5.08c3.7,1.83,8.24,3.88,10.59,7.42.43.65-.38,1.37-1,1.18-3.59-1.06-6.8-3.74-10.14-5.44A55.76,55.76,0,0,0,102,51.2a72,72,0,0,0-13.15-1.71c-4.51-.19-9.28,1.23-13.69.63A1.69,1.69,0,0,1,74.49,47C78.25,45,83.66,45.3,87.83,45.34Z"/><path class="cls-4" d="M61,54.09c7.75-2.84,17.35-2.55,25.37-1.2,9.12,1.54,17.65,6.28,25.22,11.41a1.12,1.12,0,0,1-1,2c-3.85-.94-7.17-3.31-10.61-5.21A40,40,0,0,0,87.4,56.86a57.92,57.92,0,0,0-11.54-.75c-4.63.11-9,1.25-13.6,1.62C60.28,57.89,58.75,54.91,61,54.09Z"/><path class="cls-4" d="M50.44,63.92c8.3-3.06,17.26-2.4,25.8-1,7.85,1.33,16.66,4.41,22.62,9.87,1.14,1-.45,2.52-1.63,1.92-7.39-3.8-14.11-7.38-22.41-8.82-7.78-1.34-15.48.33-23.08,1.75C49.59,68.07,48.26,64.73,50.44,63.92Z"/><path class="cls-4" d="M71.47,21.77C73,27.44,72.89,34.22,72.58,40c-.25,4.71-1.21,12.07-6,14.25a1.54,1.54,0,0,1-2-2.2C65.69,50,67,48.29,67.89,46a33.78,33.78,0,0,0,1.62-8.87C69.94,32,68.62,27,68.62,22,68.62,20.26,71.07,20.26,71.47,21.77Z"/><path class="cls-4" d="M58.52,29.76c3.11,4.56,2.82,12.26,2.64,17.6-.16,4.55-.95,11.13-5.51,13.4-1.15.57-2.76-.59-2.2-1.89.77-1.8,1.95-3.3,2.73-5.11a23.17,23.17,0,0,0,1.47-8c.26-5.24-1.75-10.39-1.43-15.49A1.23,1.23,0,0,1,58.52,29.76Z"/><path class="cls-4" d="M46,40.57c2.91,7.9,5.28,22.65-.26,30-.91,1.21-3.17.75-3-1,.49-4.38,2.37-8.45,2.72-12.94.4-5.21-1.45-10.09-2-15.19C43.33,40.05,45.44,39,46,40.57Z"/><path class="cls-4" d="M31.93,56c3.77,2.89,4.65,10.08,5.37,14.5s1.15,10.38-2.6,13.4c-.88.71-2.5.19-2.33-1.12.27-2.11,1.27-3.92,1.67-6a20.74,20.74,0,0,0-.37-7,51.05,51.05,0,0,0-1.76-7.12c-.69-2.24-1.64-3.57-1.48-5.85A1,1,0,0,1,31.93,56Z"/><path class="cls-4" d="M49.89,72.43A81.12,81.12,0,0,1,64.17,72c6.7.29,16.83,4.81,20.73,10.41.43.6,0,1.61-.84,1.3-2.51-.9-4.55-2.83-6.77-4.29a21.07,21.07,0,0,0-11.83-3.73,119.1,119.1,0,0,0-13.21.75c-4.06.38-7.87,2.18-11.85,2.46A1.61,1.61,0,0,1,39,76.1C41.79,73.42,46.19,72.92,49.89,72.43Z"/><path class="cls-4" d="M39.13,86.23a71,71,0,0,1,13.34-3.7c5.92-1,16.35-.61,20,5.08.27.43-.25.89-.67.77-3.25-.9-6-2.59-9.43-3.13-3.87-.62-8.24.55-12,1.55a112.15,112.15,0,0,0-10.9,3.61c-3.51,1.32-6.87,3.65-10.56,4.24a1.47,1.47,0,0,1-1.27-2.5C30.45,89,35.3,87.67,39.13,86.23Z"/><path class="cls-4" d="M53.08,92.94A.54.54,0,0,1,53,94c-4.42,1.11-9,1.11-13.45,2.38-4.91,1.4-8.61,4.44-12.85,7.09-1.74,1.09-3.3-1.53-2-2.86C30.87,94.52,44.72,89.66,53.08,92.94Z"/><path class="cls-4" d="M23.1,74.35c2.84,2.82,4.71,6.61,6.16,10.3,1,2.64,2.48,6,.09,8.26A1.41,1.41,0,0,1,27,92.15,40.2,40.2,0,0,0,24.89,84a72.13,72.13,0,0,0-4.48-7.77C19.43,74.53,21.83,73.1,23.1,74.35Z"/></g></g></svg>