<svg xmlns="http://www.w3.org/2000/svg" viewBox="0 0 270 270"><defs><style>.cls-1{fill:#fff;}.cls-2{fill:#002d26;}.cls-3{fill:#a78126;}.cls-4{fill:#a01a22;}</style></defs><g id="Capa_2" data-name="Capa 2"><g id="Home"><rect class="cls-1" width="270" height="270" rx="9.75"/><path class="cls-2" d="M243.11,21a1.8,1.8,0,0,1,.81.39c.39.22.89.26,1.31.45a2.08,2.08,0,0,0,.66.11,1.14,1.14,0,0,1,.49.19,1.26,1.26,0,0,1,.51.76,1.14,1.14,0,0,1,0,.52c0,.13-.13.24-.12.38a18,18,0,0,1-.07,2.54c-.07,1,0,2,0,3a36,36,0,0,1-.06,5.69v.23l0,.74c0,.51-.13,1-.18,1.51-.12,1.16-.08,2.35-.1,3.51l-.08,4v2.36c0,.21-.09.32.15.32h.93q1,0,2-.09a8.34,8.34,0,0,1,1.4-.16,2.14,2.14,0,0,1,1.27.33,1.65,1.65,0,0,1,.39,1.39c0,.49-.25.68-.74.72a7.3,7.3,0,0,1-.81,0A6.67,6.67,0,0,0,250,50a27.17,27.17,0,0,1-3.72.16,20.55,20.55,0,0,0,.13,2.08c.07.76,0,1.54.07,2.3a22.2,22.2,0,0,1,.05,2.31,11.16,11.16,0,0,1,0,1.16l-.09.57a1.75,1.75,0,0,0,.07.88,2.07,2.07,0,0,0,.65.7,1.8,1.8,0,0,0,1,.2c.41,0,.82.11,1.23.17s.75,0,1,.16a1,1,0,0,1,.25.61,1.67,1.67,0,0,1-.25,1.18c-.18.23-.42.17-.68.17a6.11,6.11,0,0,0-1.05-.06,20.19,20.19,0,0,0-2.06-.17l-.47.06a1.1,1.1,0,0,1-.37.23,1.21,1.21,0,0,1-1,0,4.22,4.22,0,0,0-.87,0c-.09,0-.31-.06-.4,0h.12a4.63,4.63,0,0,1-.9.12l-.47-.06a.77.77,0,0,1-.36.12,1.49,1.49,0,0,1-.73-.06,1.5,1.5,0,0,0-.73-.06,32.38,32.38,0,0,0-3.41.12c-.35,0-.93.24-1.13-.18a1.59,1.59,0,0,1-.14-.84A1.25,1.25,0,0,1,236,61c.17-.17.4-.13.61-.14s.55,0,.65-.07.34-.16.57-.2a3.11,3.11,0,0,0,.65-.28,4.67,4.67,0,0,0,1.35-.78c.19-.16.11-.53.12-.78l0-.75c0-.57.06-1.13.06-1.69,0-1.14-.09-2.29,0-3.42,0-.4.12-.81.13-1.21a13.14,13.14,0,0,1,0-1.54,23.56,23.56,0,0,1-2.38-.09l-1.89-.23c-1.49-.18-3,.2-4.46.13l-3-.19a2,2,0,0,1-.84-.13c-1.2-.59-.51-1.89-.13-2.69a9.89,9.89,0,0,1,.43-1.3,2.87,2.87,0,0,1,.5-.66s.2-.26.14-.16l.09-.15c.39-.63.7-1.3,1.07-1.93.27-.46.7-1,1-1.36l2-2.79a6,6,0,0,1,.85-1.85c.32-.46.72-.84,1-1.29.89-1.34,1.74-2.72,2.55-4.1a47,47,0,0,0,2.15-4.25,19.8,19.8,0,0,1,1.86-3.88c-.22.24,0-.08,0-.16l.11-.25a3.75,3.75,0,0,0,.19-.53,1.39,1.39,0,0,1,.61-.88,1.74,1.74,0,0,1,1-.39Zm-2.06,8a49.09,49.09,0,0,1-2.58,4.79L237,36.17c-.25.38-.49.75-.77,1.1a7.36,7.36,0,0,0-.63.75c-.41.68-.55,1.49-1,2.14s-.94,1.18-1.36,1.81-.93,1.23-1.31,1.9l-1.73,2.79c-.15.16-.16.53-.24.74l0-.08s0,.08,0,.08c.52,0,1,.05,1.57.12h-.09a16.06,16.06,0,0,0,2-.08,11.16,11.16,0,0,1,2.38-.09l1.11.09a10.89,10.89,0,0,1,1.14.21,17.78,17.78,0,0,0,2.42,0c0-1.63.14-3.24.21-4.87s.11-3.24.26-4.85c.12-1.32.25-2.65.25-4,0-1.68-.06-3.34-.08-5Z"/><path class="cls-3" d="M121.86,80.55c-11.47,11.94-3.59,22.53-1.5,35.29A54.6,54.6,0,0,1,132,94.8c6.66-7.47,14.38-13.64,17.67-23.18a37.8,37.8,0,0,0,2-15C146.92,65.14,128.67,73.46,121.86,80.55Z"/><path class="cls-3" d="M132.13,46.26c-11.54,4.92-12.08,16.86-14.41,26.36A41.4,41.4,0,0,1,132.1,61.43c6.85-3.23,14.06-5.23,19.19-10.91,2.88-3.19,4.59-13.24,5.81-16.67C151.29,38.36,139,43.34,132.13,46.26Z"/><path class="cls-2" d="M74.37,186.15a63.17,63.17,0,0,0,11.17,12.32,25,25,0,0,1,4.88-7.76,2.32,2.32,0,0,1,2.18-.49c7.23,2.3,14.3,8.31,20.69,12.78,2.74-4.58,6.25-8.72,8.73-13.37a2,2,0,0,1,2.57-.58,124,124,0,0,1,16,10.93c1.37-5.51,3.87-14.34,8.88-13.69,6.56.84,13.12,5.06,18.39,9.12a48.66,48.66,0,0,0,4.54-10,2.2,2.2,0,0,1,2.66-1.35c3.5.91,5.38,3.8,8.69,4.92a52.27,52.27,0,0,0,3.33-9C150,183.89,111.73,188.08,74.37,186.15Zm89.65-.49a2.87,2.87,0,0,1,2.44-1.24,2.8,2.8,0,0,1,2.66,1.94,2.4,2.4,0,0,1-.76,2.51l-.15.11a2.85,2.85,0,0,1-3.65-.06l-.15-.11A2.44,2.44,0,0,1,164,185.66Zm-26.57,3.45a2.6,2.6,0,1,1-2.83,2.54A2.72,2.72,0,0,1,137.45,189.11Zm-25.79,3a2.65,2.65,0,1,1-2.89,2.6A2.77,2.77,0,0,1,111.66,192.08Z"/><path class="cls-3" d="M128.3,174c16.32-.23,32.67-.58,48.82-2.64a73.31,73.31,0,0,1-6.57-10.09c-.51,2.55-1,5.08-1.58,7.55-.36,1.54-2.94,1.07-2.58-.46.72-3.07,1.32-6.27,2-9.46l-.28-.09q-5.65,2.46-11.3,5c-1.72.78-2.39-1.62-1-1.94q4.43-2.09,8.91-4.08c-4.24-1.36-8.4-2.84-12.38-4.55a.88.88,0,0,1,.59-1.65c4.64,1.07,9.25,2.36,13.85,3.74a30.59,30.59,0,0,1-4.14-8.55c-.16-.63.65-1.33,1.24-.77a32.47,32.47,0,0,1,5.58,8.16,50.53,50.53,0,0,1,2.53-7.69c.58-1.34,2.63-.33,2.13,1a61,61,0,0,0-2.14,7.16c3.36-1.43,6.73-2.83,10.13-4.17a1.12,1.12,0,1,1,.77,2.11c-3.54,1.46-7,2.95-10.56,4.45,5.14,1.59,10.27,3.21,15.41,4.68,1.58.45,1.13,2.79-.49,2.36-4.74-1.24-9.59-2.5-14.43-3.85,2.17,3.74,4.31,7.54,7.31,10.77q4.55-.65,9.07-1.49a145,145,0,0,0,.88-31.42c-20.51,6.84-42.56,6.51-64.1,7.62-11.93.62-23.8,2-35.74,2.45-10.23.36-21.13.43-31.19-1.94,1.6,10.64,3.62,21.13,9.3,30.71,9.51-.52,18.94-1.69,28.47-2.14C107.31,174.31,117.8,174.18,128.3,174Zm-18.82-15.79c4.77-.18,9.59-.15,14.41,0a32.38,32.38,0,0,1-6.56-7.13.74.74,0,0,1,1-1.06,34.64,34.64,0,0,1,7.82,6.38,49,49,0,0,1,.1-8c.15-1.44,2.42-1,2.34.38a57.87,57.87,0,0,0,.11,7.44q4.18-3.37,8.45-6.65a1.15,1.15,0,0,1,1.38,1.83q-4.43,3.48-8.78,7c5.42.18,10.83.4,16.2.47,1.65,0,1.93,2.39.25,2.4-4.93,0-10,.1-15,.06,3.26,3.08,6.52,6.23,10.46,8.56,1.42.84.3,3.08-1.14,2.22-4.23-2.53-7.65-5.84-11.17-9.15.28,2.58.58,5.15.77,7.67.12,1.56-2.49,1.79-2.61.22-.24-3.14-.64-6.36-1-9.6h-.29c-3.13,2.56-6.24,5.13-9.32,7.74-1.42,1.2-2.8-.94-1.53-1.61q3.6-3.17,7.3-6.25c-4.47-.19-8.91-.53-13.25-1.13A.87.87,0,0,1,109.48,158.25ZM87.31,172.17c0,1.57-2.58,1.56-2.62,0-.06-2.52,0-5.1,0-7.7-3.17,3.59-6.25,7.16-10.2,10-1.34,1-2.69-1.16-1.36-2.12,3.68-2.64,6.61-6,9.54-9.39-5,.46-10,.81-14.94,1.18-1.68.12-1.64-2.25,0-2.41,5.34-.51,10.71-1.18,16.08-1.81-3.13-2.1-6.28-4.2-9.45-6.27a1.13,1.13,0,1,1,1.19-1.93c3.06,1.93,6.08,3.91,9.09,5.92a60.52,60.52,0,0,0-.64-7.42c-.22-1.37,2-2,2.29-.57a50.23,50.23,0,0,1,.91,8,33.55,33.55,0,0,1,7.14-7c.7-.45,1.35.39,1.07,1a31.56,31.56,0,0,1-5.82,7.64c4.79-.52,9.58-1,14.36-1.16a.87.87,0,0,1,.24,1.72c-4.26,1-8.64,1.67-13.08,2.23,2.66,1.85,5.3,3.71,7.91,5.62,1.32.56.17,2.8-1.36,1.72-3.34-2.34-6.7-4.64-10.07-6.93l-.29,0C87.3,165.78,87.23,169,87.31,172.17Z"/><path class="cls-2" d="M95.28,177.27c-5.46.3-10.92.69-16.36,1.23-3.06.3-6.14.64-9.2.66.54.87,1.1,1.75,1.66,2.62a1073.7,1073.7,0,0,0,116.75-6.21c.22-1,.42-2,.6-3,0-.16.05-.32.07-.48-19.92,3.65-40.27,4.16-60.54,4.42C117.27,176.61,106.26,176.69,95.28,177.27Z"/><path class="cls-2" d="M93.28,145.64c11.39-.65,22.74-1.86,34.14-2.39,21-1,42.52-.89,62.49-7.67-.07-.84-.15-1.67-.22-2.51-11.2,2.49-22.7,2.24-34,4.31-10.68,2-21.1,4-32,4.64-11.79.73-23.65,1.36-35.47,1.2-9.73-.14-20.46-.08-30-2.55,0,.2,0,.4.08.59.13.87.25,1.73.38,2.6A158.5,158.5,0,0,0,93.28,145.64Z"/><path class="cls-4" d="M203.84,136.33c6.37-2.69,12.83-5,19.94-2,5.3,2.22,6.38,7,6.69,12,.38,6.24.59,12.67-3.26,18-3.23,4.51-15.17,7.27-19.13,2.14-1.12-1.44-.06-2.26-.56-3.88-.77-2.58-4.74-2.93-6.62-.88l-3.83,4.14c-.93,4.53,2.63,9,7.31,10.06,6.54,1.43,13.37.29,19.58-1.88,10.41-3.62,17.78-12.32,18.2-22.86.46-11.57-5.49-20-16.81-24.75-7-3-15.23-4.33-22.09-.13-2.63,1.6-7.21,4.23-6.92,7.77.25,3.21.64,5.11,4.65,3.4Z"/><path class="cls-4" d="M170.66,200.14a2.62,2.62,0,0,1-3.87.4,56,56,0,0,0-14-8.55c-5.85-2.43-7.56,9.24-8.57,12.58-.51,1.68-2.66,2-3.95.9-5.31-4.33-10.9-8.33-16.37-12.49-3.3,4.18-5.54,9.8-7.86,14.32a2.4,2.4,0,0,1-3.16.71Q105.13,203,97.4,197.83c-4.75-3.13-6.71-.33-8.51,3.13a37.32,37.32,0,0,0,6.39,3.45c10.77,4.53,22.62,5.86,34.33,6.26,13.82.47,29.42.5,41.3-7.08a34.18,34.18,0,0,0,10.52-10.53c-2.24-1-3.87-2.56-5.77-4A55.48,55.48,0,0,1,170.66,200.14Zm-74.59,4.21a2.51,2.51,0,1,1,2.74-2.45A2.63,2.63,0,0,1,96.07,204.35Zm29.72.1a2.61,2.61,0,1,1,.09-5.21A2.61,2.61,0,1,1,125.79,204.45Zm26.07-3.52a2.6,2.6,0,1,1,2.83-2.55A2.72,2.72,0,0,1,151.86,200.93Z"/><path class="cls-4" d="M91.32,138.75c10.83-.07,21.69-.44,32.48-1.18,11.5-.78,22.32-3.49,33.67-4.88,10.62-1.31,21.37-1.56,31.8-4q-.51-4.81-1.13-9.64c-2.4,3.93-5.81,9.08-9.57,8-2.92-.79-5.76-4.12-8-5.85-7.93-6.09-10.77,3-14.07,8.26a2.43,2.43,0,0,1-3.17.71,77.14,77.14,0,0,1-13-9.36c-1.53,1.83-3,3.67-4.63,5.42a1.86,1.86,0,0,1-.26.23c-.74,1.18-1.51,2.34-2.35,3.51a2.19,2.19,0,0,1-2.85.65c-4.86-3.18-9.54-6.49-13.31-10.72a85.54,85.54,0,0,1-11.33,11.77,2.09,2.09,0,0,1-2.76,0c-4-3.83-7.95-7.77-11.75-11.8-2.56,3.7-5.14,7.39-7.78,11.05a1.67,1.67,0,0,1-2.72,0c-2.79-3.57-9.82-13.7-14.87-9.34-3,2.62-6,5.33-8.91,8,.26,2.32.55,4.64.86,6.94C68.9,137,80,138.83,91.32,138.75Zm71.76-14.42a3,3,0,0,1,2.73-.62l.8.16a1.67,1.67,0,0,1,1.3,1.63l-.09.74a2.7,2.7,0,0,1-2.09,2.47,2.94,2.94,0,0,1-3.14-1.25A2.47,2.47,0,0,1,163.08,124.33Zm-21.41,2.29a2.64,2.64,0,1,1-.09,5.27A2.64,2.64,0,1,1,141.67,126.62Zm-25.21-.24a2.71,2.71,0,1,1-.09,5.41A2.71,2.71,0,1,1,116.46,126.38Zm-24.95.08a2.72,2.72,0,1,1-3,2.66A2.86,2.86,0,0,1,91.51,126.46Zm-23.69,4.45a2.63,2.63,0,1,1,.09-5.25A2.63,2.63,0,1,1,67.82,130.91Z"/><path class="cls-2" d="M67.41,116.24a1.66,1.66,0,0,1,1.9-.2,65.61,65.61,0,0,1,12.49,11.5q3.66-5.73,7.44-11.39a2,2,0,0,1,2.91-.3q5.86,6.15,12.08,12c3.89-3.65,7.64-7.41,11.63-11a1.5,1.5,0,0,1,1.72-.18c4.5,3.09,8.68,6.54,13.2,9.61.73-1,1.48-1.92,2.26-2.85a41.38,41.38,0,0,1,5-7,2.53,2.53,0,0,1,3.72-.38,72.31,72.31,0,0,0,11.88,9.19c2.83-5.24,6.68-13.64,13.5-11.49,3.11,1,6.14,4.38,8.6,6.25,5.41,4.11,7.93-2.71,10.81-6.5a2.2,2.2,0,0,1,.77-.64q-.81-6-1.61-12a1.71,1.71,0,0,1-1-1.19c-.69-3.69-60.67,3.26-67.25,3.56-11.2.52-22.47.85-33.68.25-5.1-.27-10.2-.62-15.27-1.21-2.2-.26-10.69-2.22-13.29-1.36a194.48,194.48,0,0,0,1.08,24.58A119,119,0,0,1,67.41,116.24ZM179.59,112a2.62,2.62,0,1,1-.08,5.23A2.62,2.62,0,1,1,179.59,112Zm-27.11,3.29a2.6,2.6,0,1,1-2.83,2.54A2.72,2.72,0,0,1,152.48,115.29Zm-25.63.62a3.27,3.27,0,0,1,2.37-.84,2.66,2.66,0,0,1,2.65,2.54c-.07-.29-.06-.15,0,.4,0,.22-.07.44-.11.65a2.26,2.26,0,0,1-.7,1,1.92,1.92,0,0,1-1,.45,3,3,0,0,1-2.7-.08A2.55,2.55,0,0,1,126.85,115.91Zm-22.94-1a2.69,2.69,0,1,1-2.94,2.64A2.83,2.83,0,0,1,103.91,114.87Zm-23.36-.72A2.85,2.85,0,0,1,83,112.91a2.79,2.79,0,0,1,2.65,1.94,2.56,2.56,0,0,1-.76,2.5l-.12.13a2.76,2.76,0,0,1-3.69-.06l-.12-.14A2.5,2.5,0,0,1,80.55,114.15Z"/><path class="cls-2" d="M111.29,222.2a114,114,0,0,0,21.42,2.59c7.91.33,16.61,1.08,24.28-1.16,5.19-1.52,10.69-3.74,10.71-9.75,0-1.17,0-2.33-.11-3.48-11,4.75-24.36,6-38.07,5.39-9.83-.43-20.21-1.2-29.71-4.14a8.59,8.59,0,0,1,.31,1.74C100.56,219,106.39,221.05,111.29,222.2Z"/></g></g></svg>