<svg xmlns="http://www.w3.org/2000/svg" viewBox="0 0 270 270"><defs><style>.cls-1{fill:#fff;}.cls-2{fill:#a78126;}.cls-3{fill:#d7b88b;}.cls-4{fill:#a01a22;}</style></defs><g id="Capa_2" data-name="Capa 2"><g id="Home"><rect class="cls-1" width="270" height="270" rx="9.75"/><path class="cls-2" d="M211.08,16.66c.28-.25.6.08.87.21a6.26,6.26,0,0,0,1.35.36l.64.18c.14,0,.29,0,.41.09s.07.14.29.17l.3,0,.56.06a7.58,7.58,0,0,0,1,.19c.46,0,.91.06,1.37.08a8.46,8.46,0,0,1,1.19.34,7.72,7.72,0,0,0,1.52.11.48.48,0,0,1,.55.38,1.74,1.74,0,0,1-.19,1.51c-.23.27-.79.28-1.09.43a1.66,1.66,0,0,0-.58.4,6,6,0,0,0-.44,1l-.11.46,0,.76a18.1,18.1,0,0,1-.1,2.53v-.12c0,.72-.12,1.43-.12,2.15l0,1.1c0,.06,0,.57.06.63a19,19,0,0,1,.08,4.33c-.13,1.54-.22,3.11-.45,4.65a20.31,20.31,0,0,0,0,3.74c0,.69.09,1.39.07,2.08,0,.48-.1.94-.14,1.42-.13,1.24.06,2.52,0,3.75a11.43,11.43,0,0,1-.2,2,9.06,9.06,0,0,0-.26,1.36c0,.41-.13.82-.13,1.23,0,.25.16.44.22.68a6,6,0,0,1,.12.74,2.35,2.35,0,0,0,1.88,1.62,1.75,1.75,0,0,0,.51,0c.16,0,.17-.07.32-.11a.4.4,0,0,1,.42.19,1.82,1.82,0,0,1,.16,1c0,.33-.12.82-.45.94a1.54,1.54,0,0,1-.71.06h-.86a11.58,11.58,0,0,0-1.56.12l-.75.11c-.24,0-.47.06-.7.06a2.43,2.43,0,0,1-1.31,0c-.15-.12-.06-.17-.28-.17h-.29l-.37,0a11.25,11.25,0,0,1-1.37.24,6.23,6.23,0,0,1-1,.41,2,2,0,0,1-.6-.18,2.37,2.37,0,0,1-.3-.23h-.3A6.12,6.12,0,0,1,209,60a1,1,0,0,0-.58.11c-.16.06-.4.18-.56.06a.86.86,0,0,0-.55-.12.42.42,0,0,1-.35.18c-.59-.18-.48-1.19-.33-1.6a.82.82,0,0,1,.78-.59l1.12-.08c.68-.49,1.55-.64,2.12-1.26a2.37,2.37,0,0,0,.44-1.54l.13-1.87c.06-1.36.05-2.72,0-4.08a11.68,11.68,0,0,1,0-2,13.28,13.28,0,0,0,.22-1.54V43.81c0-.5.1-1,.11-1.5,0-1.19,0-2.37,0-3.56a11.48,11.48,0,0,1,.1-2,15.7,15.7,0,0,0,.28-1.62l.11-2c0-.57.11-1.1.19-1.66s.05-1.26.1-1.89.13-1.16.22-1.74l0,.1a4.13,4.13,0,0,0,.11-.85,17.58,17.58,0,0,1,.21-2.05c0-.53.15-1.09.15-1.6v-2.2c-.76.5-1.56.95-2.33,1.44a10.7,10.7,0,0,0-1.42,1.06A7.32,7.32,0,0,1,208,24.81a20.58,20.58,0,0,0-2.39,1.88c-.47.4-.91.84-1.4,1.22a3.52,3.52,0,0,1-1.24.78c-.45.12-1.39.06-1.62-.44a1.1,1.1,0,0,1-.37-.58.81.81,0,0,1,.13-.56,1.13,1.13,0,0,1,.66-.42l.28-.11a1,1,0,0,1,.25-.26c.17-.13.37-.17.52-.31l.59-.49c.77-.65,1.52-1.32,2.31-1.95a16.52,16.52,0,0,0,1.43-1.06,11.84,11.84,0,0,1,1.37-1.18,18.92,18.92,0,0,1,1.58-1.06,2.64,2.64,0,0,0,1.09-.92.7.7,0,0,0-.09-.59,1.7,1.7,0,0,1-.41-1.16,1.37,1.37,0,0,1,.36-.94Z"/><path class="cls-2" d="M236.17,16.59c.57.12,1.17.09,1.75.19a8.52,8.52,0,0,1,1.69.54,21.88,21.88,0,0,1,2.95,1.24,10.56,10.56,0,0,1,2.63,2.36,8.11,8.11,0,0,1,1.66,3,12.63,12.63,0,0,1,.35,2l.12,1,0,.16a58.48,58.48,0,0,1,.78,9V40.5a19,19,0,0,1-.08,2.26l-.29,1.49v-.12c0,.48-.22,1-.23,1.44a12,12,0,0,1-.22,1.56,31.66,31.66,0,0,1-.83,3.46c-.33,1.18-.58,2.38-.82,3.58a8.14,8.14,0,0,1-1.13,3.06,7.62,7.62,0,0,1-4.9,3.15,8.57,8.57,0,0,1-3.45.29c-.18,0-.27-.06-.44,0l-.42.12a4.2,4.2,0,0,1-.87.06,7.83,7.83,0,0,1-1.67-.18,8,8,0,0,1-3.05-1.81,6,6,0,0,1-2-2.65,15.18,15.18,0,0,1-.73-3.58c-.07-.55-.19-1.08-.23-1.62s0-1.22-.07-1.82c0-.93-.07-2.23.85-2.79a3.52,3.52,0,0,1,1.41-.23l1.77-.31c.93-.14,2.4-.24,2.63,1a3.46,3.46,0,0,1-.18,1.23,6.6,6.6,0,0,0,.07,1.66,14,14,0,0,0,.16,1.83c.13.57.34,1.13.47,1.71a19.28,19.28,0,0,0,.77,3.56,2.76,2.76,0,0,0,.85,1.22,2.59,2.59,0,0,0,1,.13c.4-.27.6-.85.9-1.21a6.52,6.52,0,0,0,.78-1.29,30.9,30.9,0,0,0,2.52-6.93,18.14,18.14,0,0,0,.39-3.45c0-.66.1-1.31.19-2l.12-.9a3.13,3.13,0,0,0,0-.36l.07-.53a10.51,10.51,0,0,1-3.8,1.54,7.64,7.64,0,0,0-1.53.25,2.9,2.9,0,0,1-1.84,0,10.52,10.52,0,0,1-3.57-1.79,11.55,11.55,0,0,1-2.87-2.47l.08.13c-.07,0-.23-.29-.26-.34a5.19,5.19,0,0,1-.66-1.48L226.5,36a11.76,11.76,0,0,1-.52-3.82V28.27c0-2.35-.11-4.89,1.12-7a11.22,11.22,0,0,1,2.2-2.66,7.62,7.62,0,0,1,3.28-1.5,13.61,13.61,0,0,1,1.88-.38l.87-.09a3.21,3.21,0,0,1,.82-.06Zm-.7,2.63a3.88,3.88,0,0,0-.77.43l.19-.17a6.27,6.27,0,0,0-1.67,1.81,6.37,6.37,0,0,0-.46,1.19l-.15.71,0,.16c-.09,1.09,0,2.2-.11,3.3,0,.51-.25,1-.32,1.49a7.26,7.26,0,0,0,0,.94c0,2,0,3.86.14,5.76a19.28,19.28,0,0,0,.51,2.09c.18.65.35,1.31.58,2a3.3,3.3,0,0,0,.83,1.26,3.67,3.67,0,0,0,.65.53,3.58,3.58,0,0,0,.66.19c.25.09.66-.07.94-.1s.45,0,.67-.07a9.84,9.84,0,0,0,1.82-.57,5.22,5.22,0,0,0,2.42-1.82c.36-.59.25-.87.15-2l-.13-2.06c0-.68-.08-1.35-.09-2a8.59,8.59,0,0,0-.07-1l-.05-.28c-.07-.62-.1-1.23-.14-1.84a8.29,8.29,0,0,1-.09-1.1l0,.09c-.27-1.34-.59-2.68-.76-4a9.26,9.26,0,0,0-.86-3.32,2.44,2.44,0,0,0-.93-1c-.38-.2-.75-.54-1.19-.52a5.93,5.93,0,0,1-.94,0A2.38,2.38,0,0,0,235.47,19.22Z"/><path class="cls-2" d="M153,58.69c19.8,4.46,27.64,18.28,26,39.06-1.53,19.89-13.93,24.9-14.37,27.39s37.44,22.37,31.08,38.32-33.74-5.09-35.61-3.78,27.36,61.77,0,73.27-29-43.34-31.54-43.55S108.94,235.28,86,223.68s18.44-65.29,16-69.71-32.13,9.48-36.12-8.79,47.57-25.22,49.23-28S104.35,105,110.2,84.05,130.38,53.6,153,58.69Z"/><path class="cls-3" d="M152.62,232.45a11.36,11.36,0,0,1-5.57-1.46c-10.87-6.07-14.59-29.83-16.6-42.59-.29-1.9-.6-3.84-.86-5.22-.71,1.19-1.65,2.87-2.56,4.51-7.64,13.75-23.52,42.34-39.86,34.1a10.41,10.41,0,0,1-5.41-6.48c-3.82-12.39,9.37-36.28,18.1-52.08,3.15-5.72,6.42-11.62,6.4-12.87-.53-1.12-7,.13-11.27.95-10.23,2-24.23,4.7-26.62-6.2-2.82-12.9,25.75-19.63,42.81-23.65,3.66-.86,7.43-1.75,8.73-2.27a29.61,29.61,0,0,0-1.84-3.5c-3.38-5.87-9.65-16.78-6-29.95,5.42-19.4,20.8-28.77,40.13-24.41h0c17.22,3.88,25.89,16.52,24.42,35.61-1,13.29-10,22.57-14.31,27-.72.75-1.51,1.57-1.93,2.09,1,.86,3.51,2.59,6,4.28,11.9,8.13,31.82,21.74,27.44,32.72a7.51,7.51,0,0,1-4.51,4.54c-6.41,2.3-16.68-3.37-25-7.93a64.16,64.16,0,0,0-8.1-4c.38,1.43,1.19,4,2,6.6,5.82,18.19,19.45,60.8-.09,69A14.39,14.39,0,0,1,152.62,232.45ZM130,179.13h.18c1.53.13,1.73,1.46,2.89,8.85,1.79,11.44,5.52,35.24,15.27,40.68,2.63,1.47,5.52,1.51,8.82.12,17.31-7.28,4.2-48.27-1.4-65.77-2.65-8.29-2.93-9.16-1.64-9.9,1.79-1.05,4.83.54,11.51,4.22,7.39,4.07,17.51,9.65,22.77,7.76a4.88,4.88,0,0,0,2.95-3c3.59-9-16.71-22.89-26.47-29.56-6.4-4.37-7.6-5.24-7.36-6.62.17-.9,1-1.75,2.91-3.77,4.41-4.56,12.61-13,13.57-25.39,1.37-17.86-6.36-29.21-22.36-32.82-18.1-4.07-31.92,4.36-37,22.54-3.38,12.1,2.32,22,5.72,27.92,1.81,3.14,2.81,4.88,2,6.25-.6,1-2.28,1.47-10.55,3.42-14,3.29-43.1,10.15-40.84,20.51,1.7,7.73,11.66,6.46,23.54,4.17,7.44-1.45,12.82-2.49,14.26.79.68,1.57-.64,4.25-6.57,15-8,14.47-21.38,38.7-17.88,50a7.75,7.75,0,0,0,4.06,4.9c14,7.06,29.11-20,36.35-33C128.08,180.36,128.8,179.13,130,179.13Z"/><path class="cls-3" d="M137.21,114.5c-9.3-3.21-15.77-14-16.43-17.66a1.28,1.28,0,1,1,2.53-.44c.63,3.46,7.67,14.75,17.17,16.28,8.87,1.4,17.26-4.08,22.14-9.69a1.29,1.29,0,1,1,1.95,1.7c-5.34,6.12-14.58,12.1-24.5,10.53A16.19,16.19,0,0,1,137.21,114.5Z"/><path class="cls-3" d="M92.64,151.25c-.14-.05-.43.06-.55,0a12.63,12.63,0,0,1-3.65-5.72c-.61-2.17.61-3.85,1.59-5.2s1.47-2.1,1.28-3.06c-.29-1.44-1.54-2.62-2.74-3.76a9.09,9.09,0,0,1-2.52-3.15,1.28,1.28,0,0,1,.74-1.66,1.29,1.29,0,0,1,1.66.75,7.87,7.87,0,0,0,1.88,2.19c1.36,1.28,3.06,2.88,3.51,5.13s-.78,3.77-1.73,5.07-1.45,2.08-1.19,3a10.37,10.37,0,0,0,2.82,4.45c.55.45.53.77.07,1.32S93.12,151.42,92.64,151.25Z"/><path class="cls-3" d="M165.24,159.7a1.12,1.12,0,0,1-.59-.41,4.81,4.81,0,0,1-.33-5.3c.9-1.64,2.62-1.94,4.15-2.2,1.38-.25,2.57-.45,3.27-1.44.44-.63.27-1.12-.35-2.37s-1.68-3.45.09-5.8a6.45,6.45,0,0,1,7-2.66h0a1.29,1.29,0,0,1,.81,1.62c-.23.67-.7.69-1.37.48a4.8,4.8,0,0,0-4.43,2.11c-.78,1-.51,1.74.17,3.12s1.48,3,.14,5-3.32,2.22-4.94,2.51c-1.25.21-2,.37-2.33.88a2.92,2.92,0,0,0,.09,2.91,1.3,1.3,0,0,1-.35,1.79C166,160.15,165.61,159.83,165.24,159.7Z"/><path class="cls-3" d="M135.9,210.33a1.29,1.29,0,0,1-.85-1.42,9.21,9.21,0,0,1,5.68-6.66c2.69-1.06,4.86-.08,6.79.8,1.6.72,3,1.36,4.65.93s1.91-1.27,2.33-2.58.95-3,3.17-3.46c3.6-.81,8.22,1.8,8.74,2.08a1.29,1.29,0,0,1,.47,1.76c-.36.61-.4,1-1,.7-1.17-.69-5.43-2.51-7.65-2-.7.15-.87.49-1.27,1.74a5.49,5.49,0,0,1-4.15,4.29c-2.52.67-4.54-.24-6.35-1.09s-3.12-1.4-4.79-.75a8.17,8.17,0,0,0-4.51,5.07c-.12.71-.36.78-1,.67Z"/><path class="cls-3" d="M112.28,209.09a1.24,1.24,0,0,1-.82-.86c-.65-2.34-2.2-6.39-3.62-7.33a5.85,5.85,0,0,0-3.14-.39c-1.77.07-3.79.15-5.57-1.23a7.33,7.33,0,0,1-2.31-3.69c-.58-1.59-1-2.77-3.09-3.31a6.32,6.32,0,0,0-6.29,2,1.3,1.3,0,0,1-1.82.14c-.53-.45-.14-1.07.31-1.61a8,8,0,0,1,8.49-3c3.3.92,4.18,3.15,4.82,4.92a5.13,5.13,0,0,0,1.47,2.54c1.05.81,2.36.75,3.89.68a7.59,7.59,0,0,1,4.65.82c2.69,1.78,4.52,7.67,4.71,8.37a1.23,1.23,0,0,1-.85,1.57C112.84,208.77,112.52,209.18,112.28,209.09Z"/><path class="cls-3" d="M131.65,159.88c3.48.39,3.28,7-.43,6.64S126.85,159.33,131.65,159.88Z"/><path class="cls-3" d="M133.79,146.36c3.47.39,3.28,7-.43,6.63S129,145.81,133.79,146.36Z"/><path class="cls-3" d="M135.82,134c3.47.4,3.27,7-.43,6.64S131,133.48,135.82,134Z"/><path class="cls-3" d="M131.8,82.93h0a1.28,1.28,0,0,1-.75-1.66A5.38,5.38,0,0,1,136.77,78a1.34,1.34,0,0,1,1.1,1.46,1.3,1.3,0,0,1-1.46,1.1,2.76,2.76,0,0,0-3,1.63A1.29,1.29,0,0,1,131.8,82.93Z"/><path class="cls-3" d="M157.48,89.93a1.26,1.26,0,0,1-.87-1.23c0-.74-1-2.53-2.07-3.69a1.29,1.29,0,0,1,.06-1.82,1.31,1.31,0,0,1,1.82.06c1,1,2.8,3.53,2.77,5.49a1.27,1.27,0,0,1-1.71,1.19Z"/><path class="cls-3" d="M136.81,86c3,.11,1.24,9.12-1.14,8.93S132.62,85.86,136.81,86Z"/><path class="cls-3" d="M152.6,89.27c3,.11,1.23,9.13-1.14,8.93S148.4,89.13,152.6,89.27Z"/><path class="cls-3" d="M137.32,123.82c3.17.36,3,6.38-.39,6.05S132.94,123.32,137.32,123.82Z"/><path class="cls-3" d="M129.82,119.42c2.24-.75,7.14,6.21,7.14,6.21l-.58,2.71s-7.16,1.67-8.45,0c-.62-.81.61-2.31.91-4S128.63,119.83,129.82,119.42Z"/><path class="cls-3" d="M146.6,122.42c-1.85-1.48-8.85,3.35-8.85,3.35l-.39,2.74s6.14,4.05,7.93,2.93c.86-.54.22-2.38.52-4S147.58,123.21,146.6,122.42Z"/><path class="cls-4" d="M92.38,100.33c2.06,1,.53,5-1.69,4S89.52,99,92.38,100.33Z"/><path class="cls-4" d="M50.29,180.47c2.07,1,.54,5-1.68,4S47.43,179.1,50.29,180.47Z"/><path class="cls-4" d="M143.94,239.17c2.07,1,.53,5-1.69,4S141.08,237.8,143.94,239.17Z"/><path class="cls-4" d="M80.22,166.1c2.06,1,.53,5-1.69,4S77.36,164.74,80.22,166.1Z"/><path class="cls-4" d="M41.72,130.46c2.07,1,.53,5-1.69,4S38.86,129.09,41.72,130.46Z"/><path class="cls-4" d="M55.06,151.83c2.07,1,.53,5-1.69,4S52.2,150.47,55.06,151.83Z"/><path class="cls-4" d="M147.49,37.69c2.07,1,.53,5-1.69,4S144.63,36.32,147.49,37.69Z"/><path class="cls-4" d="M193.72,91.39c2.07,1,.53,5-1.69,4S190.86,90,193.72,91.39Z"/><path class="cls-4" d="M220.34,126.41c2.07,1,.53,5-1.69,4S217.48,125.05,220.34,126.41Z"/><path class="cls-4" d="M185.32,221.67c2.06,1,.53,5-1.69,4S182.46,220.31,185.32,221.67Z"/><path class="cls-4" d="M122.35,251.28c2.07,1,.53,5-1.69,4S119.49,249.91,122.35,251.28Z"/><path class="cls-4" d="M113,230.27c2.07,1,.53,5-1.68,4S110.15,228.9,113,230.27Z"/><path class="cls-4" d="M213.41,165.36c2.07,1,.53,5-1.69,4S210.55,164,213.41,165.36Z"/><path class="cls-4" d="M102.84,39.74c2.07,1,.53,5-1.69,4S100,38.37,102.84,39.74Z"/><path class="cls-4" d="M128.2,22.82c3.23,1.55.83,7.87-2.64,6.28S123.73,20.69,128.2,22.82Z"/><path class="cls-4" d="M188.57,46c3.43,1.63.88,8.34-2.79,6.65S183.83,43.68,188.57,46Z"/><path class="cls-4" d="M196.66,117.06c3.43,1.64.88,8.34-2.79,6.66S191.93,114.8,196.66,117.06Z"/><path class="cls-4" d="M171.45,238.47c3.42,1.64.88,8.34-2.8,6.66S166.71,236.21,171.45,238.47Z"/><path class="cls-4" d="M56.77,103.83c3.43,1.64.88,8.34-2.79,6.65S52,101.57,56.77,103.83Z"/><path class="cls-4" d="M61,207.5c3.43,1.63.88,8.33-2.79,6.65S56.24,205.23,61,207.5Z"/><path class="cls-4" d="M208.07,66.94c3.42,1.64.88,8.34-2.8,6.65S203.33,64.68,208.07,66.94Z"/><path class="cls-4" d="M191.2,192c1.51,1,.41-10.75,5.35-2.8a4.83,4.83,0,0,1,.67,3.56c-.36,3.35-3.57,4.44-6.52,4.87-6.09.9-8.26-4-8-9.22.06-1.22-1.83-1.18-1.9,0-.26,4.69,1.26,10.38,6.69,11.18,4.46.65,11.27-1.49,11.85-6.65.45-4-3.1-9-7.43-8.17a4.85,4.85,0,0,0-1.67,8.84c1,.66,1.94-1,.92-1.65Z"/><path class="cls-4" d="M82.91,237.61c-.1-1.44-8.41,5.25-5.13-1.93a4.48,4.48,0,0,1,2.33-2.24c2.75-1.49,5.38,0,7.37,1.6,4.1,3.38,1.62,7.23-2.55,9.73-1,.58.13,1.75,1.1,1.17,3.72-2.23,7.19-6.1,4.75-9.93-2-3.13-7.46-6.32-11.72-4-3.26,1.74-5.13,6.57-2,8.85s7.92,0,7.67-3.47c-.07-1-1.85-.72-1.78.26Z"/><path class="cls-4" d="M87.1,77.23q5.43-.42,2.66,3.1c0,1.67-.78,2.47-2.24,2.38a5.3,5.3,0,0,1-3.41-.7c-2.34-1.4-2.38-3.83-1.82-6.26,1.42-6.24,6.39-7,11.42-3.94,1,.63,2-1,.92-1.65-4-2.43-9.61-3.55-12.56,1.09-2.16,3.39-3.33,9.44.46,12.16,2.94,2.11,8.64,1.69,10.08-2.07a4.6,4.6,0,0,0-6.47-5.74c-1.06.59-.1,2.22,1,1.63Z"/></g></g></svg>