<svg xmlns="http://www.w3.org/2000/svg" viewBox="0 0 270 270"><defs><style>.cls-1{fill:#fff;}.cls-2{fill:#002d26;}.cls-3{fill:#a78126;}.cls-4{fill:#a01a22;}</style></defs><g id="Capa_2" data-name="Capa 2"><g id="Home"><rect class="cls-1" width="270" height="270" rx="9.75"/><path class="cls-2" d="M42.53,24.7c.69-.63,1.47.19,2.13.49a14.56,14.56,0,0,0,3.3.91l1.57.42c.32.09.69,0,1,.23s.19.35.7.41l.75.12,1.37.15a16,16,0,0,0,2.53.45c1.12,0,2.23.15,3.33.21a20.62,20.62,0,0,1,2.93.82,19.1,19.1,0,0,0,3.7.28,1.18,1.18,0,0,1,1.34.94,4.23,4.23,0,0,1-.47,3.68c-.55.64-1.91.68-2.66,1a4.25,4.25,0,0,0-1.41,1,15.89,15.89,0,0,0-1.07,2.47l-.27,1.1.08,1.87c0,.49,0,6.16-.26,6.16v-.28c0,1.76-.29,3.49-.28,5.23L60.89,55c0,.17,0,1.39.15,1.54a46.79,46.79,0,0,1,.18,10.58c-.3,3.77-.53,7.59-1.08,11.34a48.84,48.84,0,0,0-.09,9.13c.06,1.69.2,3.38.15,5.07,0,1.17-.23,2.32-.35,3.47-.29,3,.15,6.14.08,9.16a29,29,0,0,1-.47,4.91,27.39,27.39,0,0,0-.66,3.34c-.07,1-.29,2-.29,3,0,.62.38,1.07.53,1.68a18.06,18.06,0,0,1,.3,1.79c.48,2.22,2.43,3.34,4.57,4a4.41,4.41,0,0,0,1.26.08c.39,0,.42-.17.77-.26a.94.94,0,0,1,1,.46,4.56,4.56,0,0,1,.39,2.4c0,.79-.31,2-1.11,2.28a3.46,3.46,0,0,1-1.72.14H62.41a34,34,0,0,0-3.78.29l-1.85.29c-.57,0-1.12.14-1.69.14-.79.14-2.56.43-3.21,0-.36-.29-.15-.43-.69-.43h-.7l-.9.14a28.14,28.14,0,0,1-3.34.58,13.46,13.46,0,0,1-2.43,1,5,5,0,0,1-1.44-.43c-.27-.14-.53-.43-.75-.57H40.9a14.33,14.33,0,0,1-3.43.43,2.43,2.43,0,0,0-1.42.28c-.38.15-1,.43-1.37.15a2.14,2.14,0,0,0-1.35-.29,1,1,0,0,1-.85.43c-1.45-.43-1.17-2.91-.79-3.92a2,2,0,0,1,1.89-1.43l2.75-.18c1.64-1.19,3.76-1.56,5.17-3.08,1-1.08.93-2.36,1-3.76l.33-4.57c.15-3.31.13-6.63,0-9.94a28.4,28.4,0,0,1,.1-4.79,31.66,31.66,0,0,0,.53-3.77V91c0-1.23.24-2.45.27-3.65.07-2.91,0-5.81,0-8.7A25.31,25.31,0,0,1,44,73.83a35.41,35.41,0,0,0,.67-4l.27-5c.06-1.39.28-2.69.46-4.06.2-1.52.12-3.07.25-4.6s.32-2.83.53-4.23l0,.23a13.66,13.66,0,0,0,.27-2.07,40.11,40.11,0,0,1,.51-5c.09-1.3.36-2.66.36-3.9V35.89c-1.85,1.24-3.81,2.31-5.68,3.53A23.05,23.05,0,0,0,38.13,42a19.81,19.81,0,0,1-3.05,2.59,52.23,52.23,0,0,0-5.82,4.57c-1.14,1-2.21,2.07-3.41,3a8.93,8.93,0,0,1-3,1.92c-1.11.29-3.4.15-4-1.1a2.57,2.57,0,0,1-.9-1.4,2,2,0,0,1,.31-1.36,2.86,2.86,0,0,1,1.61-1l.7-.25a2.77,2.77,0,0,1,.6-.63c.41-.32.91-.42,1.28-.77l1.44-1.2c1.87-1.59,3.71-3.22,5.63-4.75A42.86,42.86,0,0,0,33,39a31.44,31.44,0,0,1,3.32-2.88c1.25-.92,2.56-1.76,3.88-2.58a6.54,6.54,0,0,0,2.65-2.23,1.71,1.71,0,0,0-.22-1.44,4.3,4.3,0,0,1-1-2.83,3.47,3.47,0,0,1,.9-2.3Z"/><path class="cls-2" d="M99.19,24.7c.7-.63,1.48.19,2.14.49a14.56,14.56,0,0,0,3.3.91l1.56.42c.32.09.7,0,1,.23s.18.35.7.41l.74.12,1.38.15a15.87,15.87,0,0,0,2.52.45c1.12,0,2.23.15,3.34.21a20.13,20.13,0,0,1,2.92.82,19.21,19.21,0,0,0,3.71.28,1.19,1.19,0,0,1,1.34.94,4.23,4.23,0,0,1-.48,3.68c-.55.64-1.9.68-2.66,1a4.1,4.1,0,0,0-1.4,1,17,17,0,0,0-1.08,2.47l-.27,1.1.08,1.87c0,.49,0,6.16-.25,6.16v-.28c0,1.76-.29,3.49-.29,5.23l.07,2.68c0,.17,0,1.39.15,1.54a46.79,46.79,0,0,1,.19,10.58c-.3,3.77-.54,7.59-1.09,11.34a48.84,48.84,0,0,0-.09,9.13c.06,1.69.21,3.38.15,5.07,0,1.17-.23,2.32-.34,3.47-.3,3,.14,6.14.07,9.16a28,28,0,0,1-.46,4.91,27.42,27.42,0,0,0-.67,3.34c-.06,1-.29,2-.29,3,0,.62.38,1.07.53,1.68A13.65,13.65,0,0,1,116,120c.49,2.22,2.44,3.34,4.58,4a4.34,4.34,0,0,0,1.25.08c.4,0,.42-.17.78-.26a1,1,0,0,1,1,.46,4.56,4.56,0,0,1,.39,2.4c0,.79-.31,2-1.12,2.28a3.42,3.42,0,0,1-1.71.14h-2.12a34,34,0,0,0-3.78.29l-1.86.29c-.56,0-1.12.14-1.69.14-.79.14-2.55.43-3.2,0-.37-.29-.15-.43-.69-.43h-.71l-.89.14a28.3,28.3,0,0,1-3.35.58c-.89.28-1.42.86-2.42,1a5,5,0,0,1-1.45-.43c-.27-.14-.52-.43-.74-.57h-.74a14.26,14.26,0,0,1-3.43.43,2.44,2.44,0,0,0-1.42.28c-.38.15-1,.43-1.37.15a2.11,2.11,0,0,0-1.34-.29,1,1,0,0,1-.85.43c-1.45-.43-1.17-2.91-.79-3.92a2,2,0,0,1,1.88-1.43l2.76-.18c1.63-1.19,3.76-1.56,5.17-3.08,1-1.08.92-2.36,1-3.76l.32-4.57c.15-3.31.13-6.63,0-9.94a29.49,29.49,0,0,1,.11-4.79,33.84,33.84,0,0,0,.52-3.77V91c0-1.23.24-2.45.27-3.65.08-2.91,0-5.81,0-8.7a26.17,26.17,0,0,1,.24-4.77,37.91,37.91,0,0,0,.68-4l.26-5c.07-1.39.28-2.69.46-4.06.2-1.52.12-3.07.25-4.6s.33-2.83.53-4.23l0,.23a12.5,12.5,0,0,0,.27-2.07,42.11,42.11,0,0,1,.52-5c.09-1.3.35-2.66.35-3.9V35.89c-1.85,1.24-3.81,2.31-5.68,3.53A24.11,24.11,0,0,0,94.79,42a19.73,19.73,0,0,1-3,2.59,51.32,51.32,0,0,0-5.82,4.57c-1.14,1-2.22,2.07-3.41,3a8.93,8.93,0,0,1-3,1.92c-1.12.29-3.41.15-4-1.1a2.63,2.63,0,0,1-.9-1.4,2.13,2.13,0,0,1,.31-1.36,2.89,2.89,0,0,1,1.61-1l.71-.25a2.53,2.53,0,0,1,.59-.63c.41-.32.91-.42,1.28-.77l1.44-1.2c1.87-1.59,3.72-3.22,5.64-4.75A41,41,0,0,0,89.69,39,32.48,32.48,0,0,1,93,36.08c1.25-.92,2.56-1.76,3.88-2.58a6.41,6.41,0,0,0,2.65-2.23,1.68,1.68,0,0,0-.22-1.44,4.24,4.24,0,0,1-1-2.83,3.42,3.42,0,0,1,.9-2.3Z"/><path class="cls-2" d="M178.07,167.44a6.07,6.07,0,0,0-1.62,3,4.54,4.54,0,0,0,.51,3.2,4.3,4.3,0,0,0,2.7,2,14.76,14.76,0,0,0,2.47.31,5,5,0,0,0,3.6-1.87,4.91,4.91,0,0,0,1.13-4.74,4.78,4.78,0,0,0-3.4-3.26,4.16,4.16,0,0,0-2.21.09A4.73,4.73,0,0,0,178.07,167.44Z"/><path class="cls-2" d="M175.72,181.31a4.49,4.49,0,0,0-2,2.75,4.59,4.59,0,0,0,.06,2.24c.17.34.31.71.45,1,.26.51.48,1,.77,1.47a4.35,4.35,0,0,0,4.85,1.9,4.22,4.22,0,0,0,2.95-3.12,7.67,7.67,0,0,0,.25-1.95,4.41,4.41,0,0,0-1.22-2.81,0,0,0,0,1,0,0A4.47,4.47,0,0,0,175.72,181.31Z"/><path class="cls-2" d="M166.41,191.26a3.19,3.19,0,0,0-.28,1.45,3,3,0,0,0,.23,1.16.24.24,0,0,0,0,.14c0,.06.05.11.08.2a2.75,2.75,0,0,0,.71,1.16,3.11,3.11,0,0,0,2.15.83,3,3,0,0,0,2.87-2.33,8.23,8.23,0,0,0,0-1.79,3,3,0,0,0-3.07-2.92,3.09,3.09,0,0,0-2.09.94A3.2,3.2,0,0,0,166.41,191.26Z"/><path class="cls-2" d="M156.54,192.59a3,3,0,0,0-.87,1.17,5.1,5.1,0,0,0-.49,1.61,4.21,4.21,0,0,0-.31,1.56c.06,2,1.87,4,4,3.75a4.9,4.9,0,0,0,2.16-.63,4.63,4.63,0,0,0,1.56-1.64,5.27,5.27,0,0,0,.31-.8,2.11,2.11,0,0,0,.23-.39,4.31,4.31,0,0,0-.12-3.95,4.14,4.14,0,0,0-2.49-1.81,4.27,4.27,0,0,0-2.16,0A4,4,0,0,0,156.54,192.59Z"/><path class="cls-2" d="M158.78,188.57a4.19,4.19,0,0,0,1.08-2.1,2.85,2.85,0,0,0,.12-.54.15.15,0,0,1,0-.09,4.68,4.68,0,0,0-.51-3.54,4.24,4.24,0,0,0-6.66-.71,4.07,4.07,0,0,0-1.14,2,5.72,5.72,0,0,0-.11,1.36,7.12,7.12,0,0,0,0,.8,4.12,4.12,0,0,0,4.28,4.05A4.2,4.2,0,0,0,158.78,188.57Z"/><path class="cls-2" d="M161.88,181.53a4.79,4.79,0,0,0,3.48,3.32,4.71,4.71,0,0,0,3.55-.57,5.54,5.54,0,0,0,1.33-1.13,5,5,0,1,0-8.59-3.29A5.52,5.52,0,0,0,161.88,181.53Z"/><path class="cls-2" d="M158.87,170.13a3.09,3.09,0,0,0-1.28-.45.35.35,0,0,0-.17-.06,4.26,4.26,0,0,0-4,1.19,4.35,4.35,0,0,0-1,4.09,4.29,4.29,0,0,0,2.7,2.8l.65.26a4.26,4.26,0,0,0,2.24,0,4.19,4.19,0,0,0,2.89-5.3,2.3,2.3,0,0,0-.45-1A4,4,0,0,0,158.87,170.13Z"/><path class="cls-2" d="M165.42,163.92a5,5,0,0,0-1.19,4.62,4.27,4.27,0,0,0,3.37,3.12h-.11c3.29,1.11,7.23-2.61,6.21-5.92a4.59,4.59,0,0,0-4.56-3.63A5.11,5.11,0,0,0,165.42,163.92Z"/><path class="cls-3" d="M179.66,175.58a14.76,14.76,0,0,0,2.47.31,5,5,0,0,0,3.6-1.87,4.91,4.91,0,0,0,1.13-4.74,4.78,4.78,0,0,0-3.4-3.26,4.16,4.16,0,0,0-2.21.09,4.73,4.73,0,0,0-3.18,1.33,6.07,6.07,0,0,0-1.62,3,4.54,4.54,0,0,0,.51,3.2A4.3,4.3,0,0,0,179.66,175.58Zm-5.45,11.77c.26.51.48,1,.77,1.47a4.35,4.35,0,0,0,4.85,1.9,4.22,4.22,0,0,0,2.95-3.12,7.67,7.67,0,0,0,.25-1.95,4.41,4.41,0,0,0-1.22-2.81,0,0,0,0,1,0,0,4.42,4.42,0,0,0-8.08,1.25,4.59,4.59,0,0,0,.06,2.24C173.93,186.64,174.07,187,174.21,187.35Zm-7.85,6.52a.24.24,0,0,0,0,.14c0,.06.05.11.08.2a2.75,2.75,0,0,0,.71,1.16,3.11,3.11,0,0,0,2.15.83,3,3,0,0,0,2.87-2.33,8.23,8.23,0,0,0,0-1.79,3,3,0,0,0-3.07-2.92,3.09,3.09,0,0,0-2.09.94,4.32,4.32,0,0,0-.94,2.61A3,3,0,0,0,166.36,193.87Zm1.13-22.21c3.29,1.11,7.23-2.61,6.21-5.92a4.59,4.59,0,0,0-4.56-3.63,5.11,5.11,0,0,0-3.72,1.81,5,5,0,0,0-1.19,4.62,4.27,4.27,0,0,0,3.37,3.12Zm-2.13,13.19a4.71,4.71,0,0,0,3.55-.57,5.54,5.54,0,0,0,1.33-1.13,5,5,0,1,0-8.59-3.29,5.52,5.52,0,0,0,.23,1.67A4.79,4.79,0,0,0,165.36,184.85Zm-1.61-29.49c.34-3.41,1.13-7,4.82-8a5.73,5.73,0,0,1,2,0c.51.09,1,.14,1.56.2a6.84,6.84,0,0,1,4.06,2.13c1.45,1.73,1.84,3.77,2.55,5.84.85,2.61,2.1,5,4.57,6.38a.2.2,0,0,1,.11.06,1.07,1.07,0,0,0,1.22.56c4,1.73,11.29,3.78,9.76,8.82-1.36,4.43-5.7,5.65-8,9.22-1.81,2.81-1.67,5.64-.54,8.71.65,1.78,1.7,3.8,1.7,5.75,0,4.91-4.42,3.95-7.43,2.75-1.87-.76-5.16-1.53-6.89.09s-1.61,3.77-1.95,6c-2.67-1.42-3.92-6.53-7.44-4.54-1.27.71-1.75,3.12-2.58,4.25-2.35,3.29-6.55,4.74-8.87,0-1.45-3-2.21-7.68-5.53-9.33-3.6-1.78.56-5.24,0-8.11-.2-1-1.56-2.07-2.36-2.58l-.88-.51a1.63,1.63,0,0,0-1.47-1.08H142a16.91,16.91,0,0,1-3-2.52c-4.42-5-3-12.88,4.85-11,2.38.56,6.61,1.47,8.42-.94a6.46,6.46,0,0,0,1.45-3.23,1.46,1.46,0,0,0,.37-1.9c1-2.33,3.83-1.62,5.78-.12a1.11,1.11,0,0,0,1.54,0A12.83,12.83,0,0,0,163.75,155.36Zm-12.06,28.27a5.72,5.72,0,0,0-.11,1.36,7.12,7.12,0,0,0,0,.8,4.12,4.12,0,0,0,4.28,4.05,4.13,4.13,0,0,0,4-3.37,2.85,2.85,0,0,0,.12-.54.15.15,0,0,1,0-.09,4.68,4.68,0,0,0-.51-3.54,4.24,4.24,0,0,0-6.66-.71A4.07,4.07,0,0,0,151.69,183.63Zm3.49,11.74a4.21,4.21,0,0,0-.31,1.56c.06,2,1.87,4,4,3.75a4.9,4.9,0,0,0,2.16-.63,4.63,4.63,0,0,0,1.56-1.64,5.27,5.27,0,0,0,.31-.8,2.11,2.11,0,0,0,.23-.39,4.31,4.31,0,0,0-.12-3.95,4.14,4.14,0,0,0-2.49-1.81,4.27,4.27,0,0,0-2.16,0,4,4,0,0,0-1.79,1.1,3,3,0,0,0-.87,1.17A5.1,5.1,0,0,0,155.18,195.37ZM161,174.81a4,4,0,0,0-.09-2.18,2.3,2.3,0,0,0-.45-1,4,4,0,0,0-1.56-1.51,3.09,3.09,0,0,0-1.28-.45.35.35,0,0,0-.17-.06,4.26,4.26,0,0,0-4,1.19,4.35,4.35,0,0,0-1,4.09,4.29,4.29,0,0,0,2.7,2.8l.65.26a4.26,4.26,0,0,0,2.24,0A4.07,4.07,0,0,0,161,174.81Z"/><path class="cls-4" d="M162.27,205.67a16.53,16.53,0,0,0,2-3.18c1.07-2.09,2.5-.28,3.44,1.07a28,28,0,0,0,5.71,20.77c.5.61,1.25-.2,1-.8-1.84-4.16-4.09-7.66-4.66-12.29-.26-2-.34-4.06-.6-6.07a5.27,5.27,0,0,0,2.69,1.09,1.13,1.13,0,0,0,1.31-.81,11.66,11.66,0,0,0,.42-2.94,3.77,3.77,0,0,1,.31-1.32c.82,5.55,4.78,11.23,7.63,15.7a98.55,98.55,0,0,1,9.94,19.72c.23.63,1.25.54,1.2-.18-.48-6.37-4.48-12.34-7.83-17.56-2-3.17-4.16-6.3-5.94-9.62-1.63-3.05-2.49-6.28-3.79-9.42a4.25,4.25,0,0,1,3.93,0c.57.27,1.12.52,1.68.74,1.85,4,5.46,7.18,8.76,10,4.11,3.48,6,7.22,8.18,12,.16.36.67.09.59-.26-.93-4.19-2.51-8.39-5.56-11.53-1.81-1.85-3.84-3.48-5.61-5.36-1.21-1.28-2.31-2.69-3.47-4l.34,0a4.89,4.89,0,0,0,5.29-4.16c.47-4-1.21-6.72-1.85-10.55a6.21,6.21,0,0,1-.06-1.76c6.31,4.73,13.53,8.25,19,14.06,5.79,6.14,9.07,13.79,7.27,22.29-2.83,13.29-10.67,24.87-11,38.59-8.38-7.37-19.29-10.9-28.5-17.1-6-4-10.66-9.51-12.79-16.55-1.77-5.87-1.92-11.79-2.86-17.77A10.37,10.37,0,0,0,162.27,205.67Z"/><path class="cls-4" d="M193.78,176.89a13.92,13.92,0,0,0,9,.72,55.41,55.41,0,0,1,5.52-1.62c2.25-.43,4.51-.42,6.78-.69a.4.4,0,0,0,.08-.79,20,20,0,0,0-9.25.42c-2,.49-4.17,1.23-6.3,1.08a32.83,32.83,0,0,1-4.45-.77,7.15,7.15,0,0,0,.64-1.19,9.93,9.93,0,0,0,.83-4.08c5.6-.29,11.14-3.22,16.64-4.27a52.86,52.86,0,0,1,18.73,0c.65.1,1.14-.9.44-1.17-5.4-2.08-11.64-2.2-17.3-1.32a81.23,81.23,0,0,0-10.18,2.49c-2.81.82-5.91,1.41-8.52,2.79a6.13,6.13,0,0,0-2.23-3.45,10.58,10.58,0,0,0-1.57-1,16,16,0,0,0,6.45-4.9c1.58-1.93,2.68-3.64,5.18-4.56,1.48-.56,3-1,4.45-1.59a.67.67,0,0,0-.2-1.31c-2.83.07-6.19.82-8.33,2.83-1.34,1.25-2.15,2.79-3.42,4.11a19.64,19.64,0,0,1-5.67,4,.77.77,0,0,0-.42.47c-1.33-.56-2.73-1.05-4-1.64,2.18-1.63,3.7-4.25,5.23-6.42,2.62-3.72,5.49-7.71,8.91-10.75,6.75-6,15.47-6.74,23.86-4,8.75,2.89,16.19,8.49,24.47,12.38,4.71,2.22,9.69,4.44,14.86,5.1-8.75,5.51-14.53,15.24-21.64,22.52a77.59,77.59,0,0,1-16.26,12.64c-5.66,3.28-12.45,5.59-18.27,1.39a1.2,1.2,0,0,0-1.47.05,73.05,73.05,0,0,0-18.22-11.81C189.38,180.38,191.88,178.83,193.78,176.89Z"/><path class="cls-4" d="M98,171.17c-5.52-6.35-10-15.75-18.32-18.8a59.88,59.88,0,0,0,14.49-1.83,105.08,105.08,0,0,0,15.9-6.09c5.42-2.53,10.9-5.47,16.86-6.48,3.1-.52,7.13-.9,9.92.88s4.71,4.41,6.67,7a1.67,1.67,0,0,0,1.38.7c.34,6.25,2.16,12.25,6.23,17.15a4.32,4.32,0,0,1-2.44,2.62,89.59,89.59,0,0,1-7.81-8c-2.24-2.75-4.63-5.68-8-7.09-.45-.19-.95.38-.53.74,3.35,2.91,5.84,6.21,8.65,9.63a23.84,23.84,0,0,0,4.67,4.74,22.55,22.55,0,0,0-5.49-.74,5.65,5.65,0,0,0-3.63,1.57c-5.5-2.85-10-8.59-16.61-8.72-.66,0-.7.93-.11,1.1,6,1.74,10,6.59,15.53,9a8.13,8.13,0,0,0-1.31,3.81v.37a19.17,19.17,0,0,0-7.31-1.44c-3-.07-6.36-.13-9.21.78a.83.83,0,0,0,.26,1.62c2.69.25,5.47-.39,8.18-.39a41.8,41.8,0,0,1,8.13.87,11.85,11.85,0,0,0,4.61,7.65A43,43,0,0,0,122.68,186,48.28,48.28,0,0,1,98,171.17Z"/><path class="cls-4" d="M144.81,188.26c-.65,1-1.36,1.78-1.92,2.78-.06.11-.1.22-.15.33-2.11-.59-4.72-.07-6.7.41a18.3,18.3,0,0,0-7.68,3.43.62.62,0,0,0,.62,1c4.22-1.7,9-4.34,13.68-3.46a5.17,5.17,0,0,0,.81,1.56,3.87,3.87,0,0,0,1.4,1.07c-3.09,2-6.16,3.88-9.45,5.55-3.59,1.83-7.72,3.26-10.95,5.64a.66.66,0,0,0,.52,1.19c4-.9,7.82-3.32,11.4-5.22,3.41-1.81,7-3.61,9.5-6.59a3,3,0,0,1,.65.52,12,12,0,0,1,2.16,3.76c-2.47,5.29-7.26,8.3-11.7,11.83a.74.74,0,0,0,.77,1.27c4.37-2,9.87-6.37,11.63-11.28l0,.08a14.15,14.15,0,0,0,3.36,5.41,4.73,4.73,0,0,0,3,1.34,45,45,0,0,0,0,8.12,1.42,1.42,0,0,0-.14.38c-1.38,7-7.77,13.16-13.32,17.21a52,52,0,0,1-18.61,8.88c-13.16,3.1-26.61.17-39.94.75,7.79-11.78,10.05-26.55,18.86-37.64,9.9-12.46,23.52-20.58,39.54-21.5a1.6,1.6,0,0,0,1-.35C144.58,185.68,145.77,186.89,144.81,188.26Z"/><path class="cls-4" d="M182.89,158.85c-2.64-3-2.13-8.11-5.25-10.77-.24-.2-.5-.4-.77-.59,2.56-5.05,4.94-12.19,3.86-17.68-.15-.73-1.2-.6-1.36,0-.83,3.14-1,6.38-1.93,9.52-.68,2.39-1.58,4.74-2.2,7.16a14,14,0,0,0-4.93-1.48c.68-5.71,1.14-11.51,1.77-17.25.44-4.08,1-9.92-1.76-13.35a.65.65,0,0,0-1.19.35c.06,2.7,1,5.29,1,8a71.8,71.8,0,0,1-.79,9.14c-.57,4.17-1.59,8.91-.39,13a7.11,7.11,0,0,0-4.23,1.43,7,7,0,0,0-2.32,3.95c-.31-2.83-.79-5.65-.91-8.3a32.68,32.68,0,0,1,.78-10.34c.85-3,2.36-5.31,3.85-8,.32-.57-.4-1.34-1-.92-4.57,3.41-5.76,10.36-5.83,15.72-.06,3.71.32,7.37.62,11.06.27,3.28.06,6.67.5,9.92a.14.14,0,0,0,0,.07c0,.08-.08.17-.12.24-2.35-1.6-6-3.19-7.83-.24l-.13.23c-7.41-12.07-4-28.29,1.87-40.38,3.35-6.88,7.67-13.1,11.59-19.65a53.24,53.24,0,0,0,5.67-12c3.3,9.69,12.1,17.18,16.71,26.16,2.76,5.37,6,12.38,5.61,18.6-.46,6.6-2.63,12.93-4.14,19.32a.74.74,0,0,0,.86.89c-1.73,2.83-3.76,5.85-6.33,7.29A7.79,7.79,0,0,1,182.89,158.85Z"/><path class="cls-3" d="M237.05,45.89a3,3,0,0,0-1.42-2.13,1.69,1.69,0,0,0-.41,1.2c-1.09,15.91-6.5,31.7-12.74,46.28a316.92,316.92,0,0,1-21.76,41.45,72.28,72.28,0,0,0-3.37-34.52,59.16,59.16,0,0,1,9.73,6.12,2.11,2.11,0,0,0,3.29-1.58,71.33,71.33,0,0,0-5.3-29.16,36,36,0,0,1,3.36,1.75A37.47,37.47,0,0,1,216,81.44a2,2,0,0,0,3.52-1.16,70.1,70.1,0,0,0-1.94-26.91,23.58,23.58,0,0,1,5.73,4.43,2.07,2.07,0,0,0,3.49-.64,221.54,221.54,0,0,0,7.62-27c2.3,5.13,5,10.17,6,15.67a39.12,39.12,0,0,1-2,22.26A1.82,1.82,0,0,0,241,70.27c2.63-1.51,5.31-2.93,8-4.32a44.35,44.35,0,0,1-13.54,17.52c-1.5,1.18-.28,3.93,1.64,3.42,5.59-1.52,11.22-2.87,16.83-4.3A88.72,88.72,0,0,1,228.36,109c-1.54,1.06-.56,3.74,1.23,3.75l7,0c-10.5,6-19.26,15.42-30.25,20.17A238,238,0,0,0,226,92.49c3-8,6-16,8.43-24.19A64.24,64.24,0,0,0,237,55.14C237.17,53.31,237.8,48.71,237.05,45.89Z"/><path class="cls-3" d="M102.8,196.07a239.31,239.31,0,0,0-24.89,29.85,34.73,34.73,0,0,1-4.23-8.78,1.44,1.44,0,0,0-2.62-.43q-7.31,12.6-14.59,25.22a40.07,40.07,0,0,1-3.54-9.43,1.42,1.42,0,0,0-2.33-.7c-6.72,5.36-13.22,11-19.43,16.89a78,78,0,0,1,26.94-31.32C71.87,207.92,87.24,201.82,102.8,196.07Z"/><path class="cls-3" d="M55.29,215.93c-10.76,8-20.86,18.65-26.07,31.27.32-7.23,2.35-13.88,7.57-19.72a1.46,1.46,0,0,0-.59-2.42,42.44,42.44,0,0,1-8.37-3c5.67-5.06,13.81-5.39,20.8-7.87,1.24-.45,1.7-2.5.09-2.86a81.14,81.14,0,0,1-8.34-2.37,210,210,0,0,1,29-7.87,1.47,1.47,0,0,0,.44-2.66,12.69,12.69,0,0,1-3-3.1,104.61,104.61,0,0,1,30.85-.45C82.86,200.32,68,206.51,55.29,215.93Z"/><path class="cls-3" d="M49.3,157.06A1.42,1.42,0,0,0,51.5,156,44,44,0,0,1,53,145.15c2,.95,3.31,4.1,4.27,5.6,1.68,2.63,3.33,5.27,4.92,7.95q3.72,6.27,7.16,12.69a1.43,1.43,0,0,0,2.63-.14,82.3,82.3,0,0,1,3.86-10.6c4.78,5.55,6.39,13.21,11.65,18.49a1.44,1.44,0,0,0,2.25-.1l4.5-7.42A249.43,249.43,0,0,0,105,194.3a143.42,143.42,0,0,1-36.81-15.83c-12.84-7.83-23.45-17.33-33.85-28.1a1,1,0,0,0-1.46,1.23c17.31,22.17,43.56,37.62,70.48,45.18-2.17,1.21-4.18,2.69-6.43,3.86a41.57,41.57,0,0,1-10.73,4,43.81,43.81,0,0,1-20.4-.65c3-2.87,6.16-5.58,9.45-8.14a1.37,1.37,0,0,0-.78-2.39c-10.57,0-21.88-.18-30.51-6.88l8.65-3.43a1.41,1.41,0,0,0-.13-2.59,77.06,77.06,0,0,1-25.11-11.64c2.73-1,5.46-1.9,8.19-2.88a1.49,1.49,0,0,0,.5-2.28,36.24,36.24,0,0,1-6.62-22.6A76.65,76.65,0,0,0,49.3,157.06Z"/></g></g></svg>