<svg xmlns="http://www.w3.org/2000/svg" viewBox="0 0 270 270"><defs><style>.cls-1{fill:#fff;}.cls-2{fill:#a01a22;}.cls-3{fill:#a78126;}.cls-4{fill:#002d26;}</style></defs><g id="Capa_2" data-name="Capa 2"><g id="Home"><rect class="cls-1" width="270" height="270" rx="9.75"/><path class="cls-2" d="M25.87,16.66c.28-.25.6.08.87.21a6.26,6.26,0,0,0,1.35.36l.64.18c.14,0,.29,0,.41.09s.07.14.29.17l.3,0,.56.06a7.58,7.58,0,0,0,1,.19c.46,0,.91.06,1.37.08a9,9,0,0,1,1.2.34,7.57,7.57,0,0,0,1.51.11.48.48,0,0,1,.55.38,1.74,1.74,0,0,1-.19,1.51c-.23.27-.78.28-1.09.43a1.66,1.66,0,0,0-.58.4,6,6,0,0,0-.44,1l-.11.46,0,.76a18.1,18.1,0,0,1-.1,2.53v-.12c0,.72-.12,1.43-.12,2.15l0,1.1c0,.06,0,.57.06.63a19,19,0,0,1,.08,4.33c-.13,1.54-.22,3.11-.45,4.65a20.31,20.31,0,0,0,0,3.74c0,.69.08,1.39.06,2.08,0,.48-.1.94-.14,1.42-.13,1.24.06,2.52,0,3.75a11.43,11.43,0,0,1-.2,2,10.52,10.52,0,0,0-.26,1.36c0,.41-.13.82-.13,1.23,0,.25.16.44.22.68a6,6,0,0,1,.12.74,2.35,2.35,0,0,0,1.88,1.62,1.75,1.75,0,0,0,.51,0c.16,0,.18-.07.32-.11a.4.4,0,0,1,.42.19,1.82,1.82,0,0,1,.16,1c0,.33-.12.82-.45.94a1.51,1.51,0,0,1-.7.06H34a11.7,11.7,0,0,0-1.56.12l-.75.11c-.24,0-.47.06-.69.06a2.46,2.46,0,0,1-1.32,0c-.15-.12-.06-.17-.28-.17h-.29l-.37,0a11.25,11.25,0,0,1-1.37.24,6.23,6.23,0,0,1-1,.41,2,2,0,0,1-.6-.18,2.37,2.37,0,0,1-.3-.23h-.3a6.12,6.12,0,0,1-1.41.18,1,1,0,0,0-.58.11c-.16.06-.4.18-.56.06a.86.86,0,0,0-.55-.12.42.42,0,0,1-.35.18c-.59-.18-.48-1.19-.33-1.6a.82.82,0,0,1,.78-.59L23.33,58c.67-.49,1.54-.64,2.12-1.26a2.36,2.36,0,0,0,.43-1.54L26,53.32c.06-1.36,0-2.72,0-4.08a11.68,11.68,0,0,1,0-2,13.28,13.28,0,0,0,.22-1.54V43.81c0-.5.1-1,.12-1.5,0-1.19,0-2.37,0-3.56a11.48,11.48,0,0,1,.1-2,15.7,15.7,0,0,0,.28-1.62l.11-2c0-.57.11-1.1.19-1.66s.05-1.26.1-1.89.13-1.16.22-1.74l0,.1a4.13,4.13,0,0,0,.11-.85,15.66,15.66,0,0,1,.22-2.05c0-.53.14-1.09.14-1.6v-2.2c-.76.5-1.56.95-2.33,1.44a10.7,10.7,0,0,0-1.42,1.06,7.32,7.32,0,0,1-1.24,1.06,20.58,20.58,0,0,0-2.39,1.88c-.46.4-.91.84-1.4,1.22a3.48,3.48,0,0,1-1.23.78c-.46.12-1.4.06-1.63-.44a1.1,1.1,0,0,1-.37-.58.81.81,0,0,1,.13-.56,1.13,1.13,0,0,1,.66-.42l.28-.11a1,1,0,0,1,.25-.26c.17-.13.37-.17.52-.31l.59-.49c.77-.65,1.52-1.32,2.31-1.95A16.52,16.52,0,0,0,22,22.51a11.84,11.84,0,0,1,1.37-1.18,19.09,19.09,0,0,1,1.59-1.06A2.68,2.68,0,0,0,26,19.35a.7.7,0,0,0-.09-.59,1.7,1.7,0,0,1-.41-1.16,1.37,1.37,0,0,1,.36-.94Z"/><path class="cls-2" d="M53.34,16.67a4.35,4.35,0,0,1,2.06,0,7.91,7.91,0,0,1,1.93.29,5.82,5.82,0,0,1,1.8.75A13.09,13.09,0,0,1,60.62,19a10.84,10.84,0,0,1,.82.84,5.73,5.73,0,0,1,.46.8,16.64,16.64,0,0,1,.81,1.64A13.14,13.14,0,0,1,63.29,24l.26,1c0,.11.27.7.2.78l-.1-.17a6.27,6.27,0,0,0,.43.95,1.26,1.26,0,0,1,.21.75,1.7,1.7,0,0,1-.91,1.42,12.69,12.69,0,0,1-3.88,1.2,5.4,5.4,0,0,1-2,.4,1.23,1.23,0,0,1-1-1.17,1,1,0,0,0-.07-.51,1.52,1.52,0,0,1-.1-.47c0-.24,0-.47,0-.7a6,6,0,0,1,0-1.2,1.61,1.61,0,0,1,0-.49v.09c-.13-.93-.19-1.87-.28-2.8v.08a23.82,23.82,0,0,0-.19-2.81l.07.12a5.37,5.37,0,0,0-.48-1,.9.9,0,0,0-.26-.22,1.31,1.31,0,0,1-.54.17c-.34.2-.64.44-1,.63a2.55,2.55,0,0,0-.77.52l.08-.1a2.86,2.86,0,0,0-.4.45,3.92,3.92,0,0,0-.51.7c-.4.7-.74,1.44-1.18,2.13a23.74,23.74,0,0,0-1.27,2,13.74,13.74,0,0,0-.77,2,20.28,20.28,0,0,0-.58,4.73c-.08,1.51-.14,3-.29,4.52a17,17,0,0,1,5.11-1.26,11.11,11.11,0,0,1,4.8.36,7.2,7.2,0,0,1,2.66,1.61,6.69,6.69,0,0,1,1.69,2.78A14.36,14.36,0,0,1,63,44.05c.11,1.3,0,2.61.1,3.91a10.48,10.48,0,0,1-.41,3.73c-.17.65-.35,1.29-.57,1.92a17.8,17.8,0,0,1-.59,1.74A6.71,6.71,0,0,1,59.36,58a26.19,26.19,0,0,1-3.29,1.79c-.09-.06-.25.06-.36.12a3.79,3.79,0,0,1-1.6.29h.07l-.38.12a2.14,2.14,0,0,0-.62.06A2,2,0,0,1,52,60.32a1.69,1.69,0,0,0-.54-.12l-.72-.06a3.15,3.15,0,0,1-1.3-.35A13.11,13.11,0,0,1,47,58.67a10.21,10.21,0,0,1-2-1.59,5.83,5.83,0,0,1-1.39-1.37l-.07-.1.06.09c0-.17-.37-.46-.46-.58s-.46-.55-.43-.64l.1.1a4.1,4.1,0,0,1-1.09-2.37l-.37-2.76c-.12-1-.28-1.93-.32-2.9l-.08-2.91c0-1-.19-2-.15-3,0-.46.07-.91.07-1.36a12.56,12.56,0,0,1,0-1.37c.09-.81.16-1.61.28-2.42a10.44,10.44,0,0,1,.33-2.16l-.1.27a15.08,15.08,0,0,0,.35-2.22,19.63,19.63,0,0,1,.52-2.27c.19-.76.38-1.53.53-2.31a5.85,5.85,0,0,0,.11-.84,2,2,0,0,1,.09-.59c0-.09.05-.35.07-.1V25.1a9.07,9.07,0,0,1,.31-1.7,7.3,7.3,0,0,1,.74-1.86A12.39,12.39,0,0,1,45.46,20a7.36,7.36,0,0,1,1.42-1.25,13.16,13.16,0,0,1,3.66-1.56,12.78,12.78,0,0,1,2.13-.44l.8-.11Zm.11,21.39a13.85,13.85,0,0,0-1.44.2,15.39,15.39,0,0,0-2,.5,7.85,7.85,0,0,0-1.82,1.05c-.21.19-.35.22-.36.51l0,1.74c0,1.33-.07,2.64,0,4s.05,2.6.15,3.9c.17,2.1.67,4.51,2.15,6.1.45.5.94,1,1.43,1.43a1,1,0,0,0,.52.31c.23.06.36-.15.58-.23s.51,0,.73-.14a3.17,3.17,0,0,0,.56-.4,7.2,7.2,0,0,0,.85-1,11.74,11.74,0,0,0,1.88-6,24.11,24.11,0,0,0,0-2.55c0-.86,0-1.71,0-2.56a11.57,11.57,0,0,0-.9-4.54l-.07-.17-.33-.69c-.1-.18-.19-.36-.3-.53,0,0-.13-.17,0-.09a7.43,7.43,0,0,0-.73-.64L53.88,38Zm-1.71,19.6c-.07,0,0,0,.06,0Z"/><path class="cls-3" d="M137.22,134.37a108.1,108.1,0,0,1-1.33,14.47c-1.42-.23-2.84-.51-4.25-.84a7.71,7.71,0,0,0,.26-3c0-.27-.32-.54-.6-.35a13,13,0,0,0-2.75,2.74,1.72,1.72,0,0,0-1.4,1.95,52.91,52.91,0,0,1-3.47,5.06,72,72,0,0,1-9,9c-8.61,7.1-18.54,7.16-29.18,6.87a1.81,1.81,0,0,0-1.91,2l0,0c-3.42,5.3-5,12.25-7.56,18-2.09,4.8-4.23,9.57-6.57,14.25-1.35-1.1-3.52-1.49-5-2.29a2.1,2.1,0,0,0-.3-.15c3-5.86,5.1-12.6,7.07-18.56,2.18-6.58,5.35-15.15,4.61-22.42a1.82,1.82,0,0,0,.35-.52c1-2.24,5.68-3.41,7.59-4.85a33.86,33.86,0,0,0,5.89-5.52,27.21,27.21,0,0,0,4.73-7.82,1.6,1.6,0,0,0,.22-.58,1.85,1.85,0,0,0,0-.23,10,10,0,0,0,.4-2.55c1-7.74.16-15.73,3-23.17,3.4-9,10.62-13.35,19.51-16.09,1.14-.35,2.3-.67,3.46-1C119.75,111.86,122.11,133.32,137.22,134.37Z"/><path class="cls-3" d="M181.15,176c-2.73-9.39-4.91-19-7.66-28.34a29.8,29.8,0,0,0,6-3.26c.44-.26.88-.54,1.32-.82-.22,5.05,1.18,10.2,2.37,15.06,1.26,5.15,2.68,10.25,4.21,15.33a152.33,152.33,0,0,0,9.72,24.74,21.83,21.83,0,0,0-4.92,2.53C188,193,183.72,184.83,181.15,176Z"/><path class="cls-3" d="M230.84,87.86a2.31,2.31,0,0,1-.25.64c4.83,3.17,10.67,4.54,15.38.38a10.16,10.16,0,0,0,1.63-13.3c-1.6-2.46-4.38-3.3-7-4.41A36.57,36.57,0,0,0,230.84,87.86Zm8.57-3.94a6.5,6.5,0,0,1,2.08-.62,3,3,0,0,1,1,0c.21,0,.49.3.69.32.45,0,.7.66.24.89-.14.07-.23.27-.32.39a2.3,2.3,0,0,1-.76.59,14.55,14.55,0,0,1-1.89.85C239,86.92,238,84.52,239.41,83.92Z"/><path class="cls-2" d="M141.5,122.45c-10.8-.77-9.49-17.4-9.06-25.63a99.88,99.88,0,0,1,10.49-.62c2.82,0,5.76.21,8.71.4C151.77,104.57,152.1,123.22,141.5,122.45Z"/><path class="cls-4" d="M182.58,68.09c-.81,1.68-1.57,3.3-2.31,4.71l-.46.86c-4.92-3.3-10-6.35-15.05-9.52,1.07-2.28,2.3-4.71,3.69-7.13,4.58,3.69,9.22,7.31,13.87,10.92A1,1,0,0,0,182.58,68.09Z"/><path class="cls-4" d="M97,98.69c-4-1.45-7.9-4-12.28-4.22-9-.53-17,4.14-22.81,10.7A77.51,77.51,0,0,0,43.5,143c-.72,4.27-.46,8.53-1.64,12.68l-.39-.27a2.06,2.06,0,0,0-.23-.75l-.05-.08c-.6-4.39.17-9.74.6-14.05A78.85,78.85,0,0,1,44.64,125c2.36-7.8,6-15.54,11.62-21.56,6.4-6.84,14.94-12.25,24.65-11.71,9.1.51,18.28,2.66,24.23,10-.42.26-.83.53-1.23.8C102.45,100.15,99.56,99.63,97,98.69Z"/><path class="cls-3" d="M85.22,174.16a1.55,1.55,0,0,0,.31,0c2.92.12,5.87.16,8.79,0-2.83,7.21-5.41,14.47-8.58,21.56-1.53,3.45-3,6.94-4.69,10.33-.39.79-.83,1.56-1.26,2.32a57.09,57.09,0,0,0-6.17-2,2.7,2.7,0,0,0-.77-.13,112.47,112.47,0,0,0,6.35-14.57C81.14,186,84.18,180.11,85.22,174.16Z"/><path class="cls-4" d="M80.42,105.65c-5.49,3.24-9.53,8.64-12.88,14C59.77,132,55.82,146,53.06,160.17c-.53-.12-1.06-.26-1.58-.4a37,37,0,0,1-7.25-2.71c1.16-3.07,1.33-6.24,1.57-9.51a52.81,52.81,0,0,1,2.4-12.31,78.21,78.21,0,0,1,11.18-22.58c5.25-7.22,12.68-15.51,22.37-15.72,4.53-.1,7.87,1.47,12,3.16,2.89,1.2,6.12,1.63,8.37,3.86a23.22,23.22,0,0,0-2.13,2C93.85,103.89,86.34,102.15,80.42,105.65Z"/><path class="cls-4" d="M71.93,127c-4.65,10-9.16,22.47-8.53,33.76a43.27,43.27,0,0,1-5.7.19c-.7-.07-1.4-.17-2.09-.29,2.36-11.94,5.58-24,11.32-34.8,3-5.61,6.53-11.77,11.51-15.85,6-5,12.9-4.24,19.83-2.16-.33.43-.65.87-1,1.32a2.06,2.06,0,0,0-.46-.12C85.24,107.69,76.42,117.33,71.93,127Z"/><path class="cls-4" d="M222.3,52.22c1.53-4.48,3-9,4.47-13.49a76.7,76.7,0,0,1,6.84,3.92c-1.19,2-2,4.22-3.17,6.27-1.42,2.56-3,5.09-4.27,7.75-1.39-1.33-2.8-2.65-4.28-3.88A1.17,1.17,0,0,0,222.3,52.22Z"/><path class="cls-4" d="M191.47,54.35a1,1,0,0,0,.33.34,17.51,17.51,0,0,0-3.06,2.92,78.82,78.82,0,0,0-7.42-7.54A51,51,0,0,0,176.6,46,27,27,0,0,1,181,42.37c.76-.48,1.56-1,2.39-1.42.67,1.91,2.2,3.61,3.25,5.27C188.3,48.9,189.87,51.63,191.47,54.35Z"/><path class="cls-4" d="M201.06,45s0-.05,0-.08c-.28-3.45-1.79-6.49-2.67-9.77A44.37,44.37,0,0,1,207.33,34a73.64,73.64,0,0,0-.53,12.33,5.61,5.61,0,0,0-3.65,1.11A12.78,12.78,0,0,0,201.06,45Z"/><path class="cls-4" d="M174.57,82.64c-1.16-1.68-3.73-2.53-5.49-3.28-2.65-1.12-5.19-2.21-7.27-4.27a1.15,1.15,0,0,0-.73-.36,56.34,56.34,0,0,1,2.63-8.23c4.94,3.17,9.88,6.38,15,9.22A75.38,75.38,0,0,1,174.57,82.64Z"/><path class="cls-4" d="M187.38,59.38a50.22,50.22,0,0,0-3.71,6.47c-4.63-3.69-9.26-7.36-14-11a54.19,54.19,0,0,1,5.08-7c1.7,1.68,3.83,3.09,5.54,4.65C182.74,54.76,185,57.08,187.38,59.38Z"/><path class="cls-4" d="M198.35,42.79c-1.81-1.41-3.65-2.74-6-2.81a1,1,0,0,0-1,.76c-.73,2-.33,3.79.14,5.81s.85,4.11,1.37,6.14a71.81,71.81,0,0,0-4.21-7.64c-1.08-1.72-2.35-3.35-3.31-5.14a60.05,60.05,0,0,1,10.93-4.19A35.16,35.16,0,0,0,197.58,40C197.88,40.94,198.12,41.86,198.35,42.79Z"/><path class="cls-4" d="M167.11,81.26a38.18,38.18,0,0,1,4.06,1.87,15.24,15.24,0,0,0,2.16,1.23,40,40,0,0,1-4,4.3c-1.36-1.12-3.44-1.43-5.06-1.94a22.19,22.19,0,0,0-5.21-1.45c.42-2.66.87-5.32,1.42-8A20.59,20.59,0,0,0,167.11,81.26Z"/><path class="cls-4" d="M156.06,117.3c-2.06,7.17-6.25,11.47-13.78,12.69-18,2.89-17-19.52-18-31.86,1.83-.39,3.69-.72,5.55-1-1.05,9.17-1.13,28.31,11.66,28,5.52-.15,8.78-3.15,10.15-8.47a63.12,63.12,0,0,0,2.06-19.92c1.29.07,2.59.12,3.87.13A49.1,49.1,0,0,1,156.06,117.3Z"/><path class="cls-4" d="M167.76,90.11,165,92.64a1.12,1.12,0,0,0-.18.2q-3.45.07-6.93.1c.32-1.84.62-3.71.91-5.59,1.68,1,3.91,1.28,5.71,1.82A23.45,23.45,0,0,0,167.76,90.11Z"/><path class="cls-4" d="M209.47,34h0a40.23,40.23,0,0,1,7.86,1.15c-1.21,1.79-1.73,4.12-2.32,6.17s-1.09,4.07-1.54,6.13a15.14,15.14,0,0,0-4.4-1.06C209,42.27,209.16,38.15,209.47,34Z"/><path class="cls-4" d="M218.94,35.6a46,46,0,0,1,5.54,2c-1.52,4.55-3,9.13-4.38,13.72-.25-.19-.5-.39-.76-.57a33.36,33.36,0,0,0-3.69-2.34c.6-2.48,1.21-5,1.93-7.42A25.8,25.8,0,0,0,218.94,35.6Z"/><path class="cls-3" d="M178.46,178.46c-3.1-10.24-6.7-20.86-8.36-31.46,0-.06-.07-.13-.11-.2a1.77,1.77,0,0,1,2.15-2.53c2.18-.49,4.94-2.72,6.71-3.8a58.21,58.21,0,0,0,7.68-5.78,63.92,63.92,0,0,0,11.65-14c6.37-9.93,10.41-21.26,13.81-32.49-8.65-.91-16.8-7.32-18.6-16.25a1.5,1.5,0,0,1,.65-1.61c.14-.1.34-.35.56-.29,1.4.39,1.49,1,1.91,2.36a16.87,16.87,0,0,0,4.73,8.12c5.55,5.14,13.39,4.82,20,2.44a1.45,1.45,0,0,1,.76-.08,1.63,1.63,0,0,1,2.42,0,27.76,27.76,0,0,0,2.48,2.66A34.31,34.31,0,0,1,236.5,69c-4.22-1.73-8.1-5.91-10.88-9.09s-4.91-6.14-8.24-8.52c-2.91-2.08-9.79-4.68-12.89-1.59a1.19,1.19,0,0,1-.6.34,1,1,0,0,1-1.37.46c-1.64-.77-2.68-2.56-4-3.83a22.36,22.36,0,0,0-5.68-4.39c-.42,1.77.47,4.08.92,5.65.56,2,1.29,3.92,1.84,5.9a1.16,1.16,0,0,1,0,.36,1.27,1.27,0,0,1-.13,1.12c-2.1,3.62-5.4,6.59-7.75,10.12a110.36,110.36,0,0,0-6.08,11.35c-3.22,6.31-7.66,14.43-14.34,17.75a1.47,1.47,0,0,1-1.11,1.27,27.49,27.49,0,0,1-5.07.81c1.44,7.9.2,16.53-2.25,24.07-2.55,7.82-8.71,11.66-16.4,13.18,0,.05,0,.11,0,.17a95.85,95.85,0,0,1-1,15,1.82,1.82,0,0,1-.09.37l1.3.08a101.41,101.41,0,0,0,10.61-.68c-.18-.5-.36-1-.56-1.49-.6-1.52,1.87-2.51,2.61-1.1,2.45,4.66,2.75,10.09,5,14.91,2.62,5.58,4.63,11.44,7.15,17.06,4.5,10,10.62,19.53,17,28.52a3,3,0,0,1,1-1.3c1.18-.84,2.39-1.65,3.6-2.44C185.15,195.11,181,186.94,178.46,178.46ZM206,67.69a1.36,1.36,0,0,1,2.6,0c.22,1.3.11,2.64.73,3.83,1,1.92,4.27.54,5.47-.24,1.81-1.16,3.21-.92,4.06,1.12a.49.49,0,0,1-.47.62c-1.74-.15-2.34.77-3.85,1.32a9,9,0,0,1-4.83.58C206.38,74.15,205.39,70.71,206,67.69Z"/><path class="cls-4" d="M28.44,204.89a14.75,14.75,0,0,1,5.69-6.13c3.75-1.89,7.32-.09,10.6,1.78,3.9,2.21,7.75,4.5,11.68,6.66a120.29,120.29,0,0,0,44.94,14.33,307.43,307.43,0,0,0,32,1.91c9.32.15,18.74.21,27.94-1.5A94.91,94.91,0,0,0,176,218.21c5.85-2.1,11.34-5.21,16.85-8.06,6.22-3.21,12.65-6.06,18.61-9.76a111.07,111.07,0,0,0,11.2-8.06c2.12-1.71,4.79-3.54,7.56-3.88,3.12-.39,4.78,1.87,7.07,3.64,2.08,1.63,3.31,7.65.55,9.25-4,2.31-7.8-.4-11.89-.21-4.79.22-8.94,5.76-12.4,8.6-3,2.46-5.8,5.52-9,7.71-14.29,9.95-31.81,15.62-49,17.62a157.88,157.88,0,0,1-37.75-.43,209.62,209.62,0,0,1-44.46-10.55,210.42,210.42,0,0,1-21.31-9c-3.18-1.54-6.67-3-9.46-5.15-4.63-3.6-9.22,3.2-13.34.35-2.28-1.58-1.4-3.39-.94-5.32A1.27,1.27,0,0,0,28.44,204.89Z"/><path class="cls-2" d="M172,89.37c6.1,10.42,15.23,19.18,27.71,20.55,13.93,1.54,21.88-9,28-19.83.6-1.06,2.2-.12,1.63,1-3.31,6.21-6.78,12.43-12.38,16.86-4.84,3.84-11.22,5-17.24,4.71-13.35-.71-23.7-11-30.07-21.87A1.37,1.37,0,0,1,172,89.37Z"/></g></g></svg>