<svg xmlns="http://www.w3.org/2000/svg" viewBox="0 0 270 270"><defs><style>.cls-1{fill:#fff;}.cls-2{fill:#002d26;}.cls-3{fill:#a01a22;}.cls-4{fill:#b3484e;}.cls-5{fill:#a78126;}</style></defs><g id="Capa_2" data-name="Capa 2"><g id="Home"><rect class="cls-1" width="270" height="270" rx="9.75"/><path class="cls-2" d="M87.86,163.49c-1.48-4.41,4.85-5.88,5.1-10.15s-4.41-9.24-8.8-10.66-9.83-.55-9.9-3.27S85,134.52,84.79,128.89s-5-9.82-9.55-11.94-8.7-2.27-8.52-5.07,11.36-5.15,11.75-12.3-7.64-10.52-8-13.89,7.71-8.42,8.95-13.2-2.95-18.86,1-19.68,8.72,14,12.73,14.83,8.33-.86,10.27,1.16-1,12.1,2.53,15.36,14.72-2.7,17.45,0-8.72,13.24-3.16,20.09,19.2,4.81,21.7,7.77-10.16,9.74-5.56,16.25,13,1,15.62,4-17.65,26.32-21.69,29.17S89.34,167.9,87.86,163.49Z"/><path class="cls-1" d="M128.68,159a157.18,157.18,0,0,1-11.56-11.34,28.37,28.37,0,0,1-4.43-23.55c.1-.46.18-.85.24-1.18a.74.74,0,0,0-.6-.85.75.75,0,0,0-.86.6c0,.31-.13.68-.22,1.12a29.85,29.85,0,0,0,1.53,18.94,95.84,95.84,0,0,1-9.57-13.29,75.81,75.81,0,0,1-5-10.67c-2-6.58-1-14.62,2.82-24h0a.74.74,0,1,0-1.37-.57,45.41,45.41,0,0,0-3.9,17.42,138.53,138.53,0,0,1-4.68-21.36.72.72,0,0,0-.83-.64.74.74,0,0,0-.64.83,137,137,0,0,0,7.2,28.76,24.1,24.1,0,0,0,1.11,2.9s.07,0,.09.06a71.83,71.83,0,0,0,3.92,8c.62,1.07,1.3,2.15,2,3.21-6.35-6.45-14.33-14.19-16.11-14.75a.74.74,0,1,0-.45,1.41c2.14.67,20.16,18.88,23.45,22.71,0,0,.08,0,.12,0,1.67,2,3.36,4,5,5.72,0,0,0,.08.07.12s0,0,.07,0a160.68,160.68,0,0,0,11.64,11.43.74.74,0,0,0,1-.08A.74.74,0,0,0,128.68,159Z"/><path class="cls-2" d="M99.22,154.87c-3.88,2.57.2,7.62-2.22,11.15s-9.17,4.57-13.5,3-8.09-5.62-9.82-3.51,5.43,10.44,1.84,14.77-10,4.68-14.88,3.53-8.26-3.55-9.83-1.23,5.78,11,1.69,16.92-12.49,3.6-14.81,6,.89,11.38-1.06,15.92-13.93,13-11.34,16.13,15.47-5.64,19.16-3.87,6,5.8,8.81,5.4S59.92,229,64.7,228.57s10,11.18,13.76,10.73,1.27-15.8,9.87-17.78,18.11,8,21.9,7.22-2-13.93,5.6-16.24,10.86,7.24,14.75,6.5,2.28-31.61.85-36.35S103.09,152.31,99.22,154.87Z"/><path class="cls-1" d="M128.55,182.07a160.36,160.36,0,0,0-17,2c-.06,0-.11-.05-.17,0a4.48,4.48,0,0,0-.52.16c-2,.35-4.09.75-6.2,1.22,0,0-.09,0-.14,0-5,1-30.35,4.25-32.46,3.48a.73.73,0,0,0-1,.44.74.74,0,0,0,.43.95,7.32,7.32,0,0,0,2,.18c4,0,12.58-1,19.81-1.91-1.21.41-2.41.85-3.57,1.32A70.3,70.3,0,0,0,82,193.65c-.08,0-.17,0-.24,0a23.7,23.7,0,0,0-2.83,1.75,137.48,137.48,0,0,0-23.2,18.11.73.73,0,0,0,0,1,.7.7,0,0,0,.52.22.73.73,0,0,0,.52-.21,140,140,0,0,1,16.81-13.92,45.47,45.47,0,0,0-7.61,16.09l1.42.39c2.67-9.64,6.82-16.51,12.36-20.49a75.54,75.54,0,0,1,10.66-5.47,98.14,98.14,0,0,1,16.69-4.79c-5.54,5-9.3,15.92-9.35,16.06a.73.73,0,0,0,.46.93.67.67,0,0,0,.24,0,.74.74,0,0,0,.7-.5c1.4-4.14,6.62-16,12.29-17.34a160.11,160.11,0,0,1,17.23-2,.74.74,0,0,0-.07-1.48Z"/><path class="cls-2" d="M145.13,120c4.34-1.68,6.09,4.57,10.37,4.63s9-4.82,10.25-9.27.11-9.85,2.82-10,5.38,10.47,11,10,9.59-5.42,11.49-10.09,1.88-8.78,4.68-8.73,5.66,11.11,12.82,11.18,10.17-8.11,13.51-8.58,8.76,7.31,13.6,8.34,18.7-3.8,19.71.09-13.55,9.35-14.24,13.39,1.23,8.28-.7,10.31-12.13-.45-15.22,3.22,3.36,14.59.79,17.44-13.62-8.11-20.22-2.25-3.93,19.41-6.77,22-10.2-9.71-16.49-4.82-.38,13-3.24,15.78-27.1-16.43-30.13-20.34S140.79,121.62,145.13,120Z"/><path class="cls-1" d="M218.16,118.38a137,137,0,0,0-28.38,8.5,22.18,22.18,0,0,0-2.87,1.24s-.06.08-.1.12a72.24,72.24,0,0,0-7.74,4.25c-1,.68-2.1,1.4-3.13,2.15,6.15-6.65,13.54-15,14-16.78a.74.74,0,1,0-1.43-.38c-.58,2.17-17.95,21-21.62,24.46,0,0,0,.09-.06.13-2.63,2.38-5.06,4.78-7.21,7a5.15,5.15,0,0,0-.42.34s0,.11-.07.16c-5.29,5.55-8.74,9.93-8.81,10a.74.74,0,0,0,.58,1.19.75.75,0,0,0,.58-.28c.07-.09,3.68-4.65,9.14-10.34,4.08-3.32,21.08-9.29,31.55-6.88a.72.72,0,0,0,.89-.55.73.73,0,0,0-.55-.89c-8.55-2-20.91,1.27-28.11,4.5a102.05,102.05,0,0,1,15.45-12.62,74.43,74.43,0,0,1,10.43-5.48c6.49-2.29,14.56-1.72,24.06,1.72a.85.85,0,0,0,.26.05.74.74,0,0,0,.25-1.44,45.43,45.43,0,0,0-17.57-3.1,137.9,137.9,0,0,1,21.12-5.65.74.74,0,0,0,.6-.86A.72.72,0,0,0,218.16,118.38Z"/><path class="cls-3" d="M141.56,171.88c4,9.58,1.7,22.24-6.29,28.28-3.68,2.85-8.68,4.3-14.87,3.24-.06,0-.22,0-.35-.09-6-1.29-22.11-10.1-16.62-27.51C109,158.09,135.63,157.89,141.56,171.88Z"/><path class="cls-4" d="M133.61,191.53a14.47,14.47,0,0,1,1.66,8.63c-3.68,2.85-8.68,4.3-14.87,3.24-.06,0-.22,0-.35-.09-3.64-4.68-5.23-12.09-.75-16C121.2,185.77,128.75,183.22,133.61,191.53Z"/><path class="cls-4" d="M109.2,177c1.85.94,6.77-5.47,3.41-6.85S106.55,175.68,109.2,177Z"/><path class="cls-4" d="M174.65,171v.07a19.16,19.16,0,0,1,0,13.76c-1,2.87-4.68,8.29-10.24,11.69-5.07,3.1-11.89,4.45-19.81.41-16.5-8.43-12.27-34.75,2.55-38.27C157.73,156.22,170.59,161.16,174.65,171Z"/><path class="cls-3" d="M163.72,166.79a12.94,12.94,0,0,1,10.93,4.2v.07a19.16,19.16,0,0,1,0,13.76c-1,2.87-4.68,8.29-10.24,11.69-4.27.23-8.94-1.17-11.07-4.41C147.6,183.38,150.41,167.64,163.72,166.79Z"/><path class="cls-4" d="M153.46,163.78c-.54-2-8.6-1.35-7.36,2.06S154.24,166.64,153.46,163.78Z"/><path class="cls-1" d="M171.19,179.24c.19,1.13-4,2.25-4,2.25s2.71,3,2,3.87-4.34-1-4.34-1-.68,3-1.52,3-1.25-3.22-1.25-3.22-3.31,1.11-3.73.28c-.52-1,3.05-3.48,3.05-3.48s-3.61-1.89-3.18-2.88c.5-1.17,5.08.4,5.08.4s.71-4.65,1.95-4.59,1.43,4.59,1.43,4.59S171,178.12,171.19,179.24Z"/><path class="cls-3" d="M152.65,145.11c1.18,4,.84,8.53-1.56,13.38v.07a4.65,4.65,0,0,1-.41.88c-2.79,5.08-16.54,18.15-31.58,7.23s-6.65-36.25,8.54-37.39C138.25,128.51,149.86,135.08,152.65,145.11Z"/><path class="cls-4" d="M152.65,145.11c1.18,4,.84,8.53-1.56,13.38v.07c-5.52,3-13.43,3-16-3.28-.91-2.28-.89-10.27,8.52-12.21A10.65,10.65,0,0,1,152.65,145.11Z"/><path class="cls-4" d="M119.68,141.25c1.56,1.38,7.94-3.58,5-5.76S117.47,139.28,119.68,141.25Z"/><path class="cls-1" d="M127.71,152.22c0,1.15-4.3,1.6-4.3,1.6s2.2,3.4,1.4,4.14-4.12-1.7-4.12-1.7-1.15,2.89-2,2.72-.72-3.38-.72-3.38-3.46.58-3.74-.32c-.34-1.1,3.56-2.94,3.56-2.94s-3.26-2.45-2.69-3.35c.69-1.08,5,1.19,5,1.19s1.43-4.48,2.65-4.22.69,4.76.69,4.76S127.7,151.09,127.71,152.22Z"/><path class="cls-5" d="M26.79,20c.62,0,1.23.23,1.84.33a8.91,8.91,0,0,1,1.69.43,5.55,5.55,0,0,1,2.76,2.08,7.48,7.48,0,0,1,.85,1.48,10.17,10.17,0,0,1,.71,1.58,12.38,12.38,0,0,1,.48,3.78,31.05,31.05,0,0,1-.1,3.86A11.64,11.64,0,0,1,33.94,37c-.29.6-.67,1.14-1,1.72A7.2,7.2,0,0,1,32,40.23a9.83,9.83,0,0,1-2.72,2.21c-1,.53-2,1-3.05,1.4-.28.13-.46.35-.74.46a3.75,3.75,0,0,0-.69.29c-.46.31-.92.63-1.35,1a6.64,6.64,0,0,0-1.38,2.89l-.55,1.59a8.39,8.39,0,0,0-.27.85,1.53,1.53,0,0,1-.07.36v-.09a2.33,2.33,0,0,1-.11.7v-.09a5.21,5.21,0,0,1-.27,1l-.45,1.49c-.28,1-.52,2-.73,3a5.64,5.64,0,0,1,2.29-.79,10.48,10.48,0,0,1,1.12,0c.43,0,.84-.09,1.27-.12A7.18,7.18,0,0,1,28.82,58a18.75,18.75,0,0,1,1.91,1.64c.23.2.79.8,1.14.58.88-.55.74-2.32.54-3.14a2.29,2.29,0,0,1,.29-1.64c.27-.37.73-.28,1.13-.26a.81.81,0,0,1,.91.76,11.23,11.23,0,0,1,.13,1.74,7.12,7.12,0,0,1-.14,2,7.94,7.94,0,0,0,0,.85l-.07.89c0,.64-.17,1.29-.25,1.94a3.25,3.25,0,0,0-.06.59,1.42,1.42,0,0,1-.1.7c-.31.65-1.39.41-1.85.06s-.38-.82-.58-1.23-.67-.3-1-.3c-.55.06-1.12,0-1.67.06a8.69,8.69,0,0,1-1.76.18,9.82,9.82,0,0,1-3.63-.88l.14,0a7.63,7.63,0,0,0-2.05-.52,4.91,4.91,0,0,1-1,0,3.37,3.37,0,0,0-1.29.22c-.43.13-.69.55-1.09.73a1.14,1.14,0,0,1-1.26-.24c-.44-.37-.4-.91-.38-1.46s.08-1.26.16-1.88a40.83,40.83,0,0,1,1.8-7.72c.14-.43.16-.88.27-1.32s.37-1,.54-1.58a31.91,31.91,0,0,1,1.28-3.5A5.94,5.94,0,0,1,23.07,43a15.6,15.6,0,0,1,1.54-1,2.54,2.54,0,0,0,.46-.35l.25-.25.21-.16,0-.06a14.89,14.89,0,0,0,1.67-3.06c.45-1.09.83-2.48,1.2-3.69.11-.37.29-.71.37-1.09s.05-.75.1-1.11a10.65,10.65,0,0,0,.21-1.1c0-.4,0-.8,0-1.2a16.91,16.91,0,0,0-.19-1.79,25.32,25.32,0,0,1-.4-2.59A3.85,3.85,0,0,0,28,23.59a5.2,5.2,0,0,0-.57-.76c-.2-.24-.24-.38-.56-.3s-.92.1-1.25.48a9.15,9.15,0,0,0-1,1.73l0-.11a13.52,13.52,0,0,0-.5,2.16,19.26,19.26,0,0,0,0,2.74,6,6,0,0,1-.1,2.57,1.16,1.16,0,0,1-.61.77,2.13,2.13,0,0,1-1.12.06c-1,0-1.89,0-2.83.06a3.59,3.59,0,0,1-2.1-.3c-.74-.48-.58-1.2-.58-2a19,19,0,0,1-.13-2.51c.29-2.39,1-4.77,3-6.27A10.19,10.19,0,0,1,23,20.3a8.25,8.25,0,0,1,2-.24,15.62,15.62,0,0,1,1.81,0Z"/><path class="cls-5" d="M50,20c.62,0,1.23.23,1.84.33a8.73,8.73,0,0,1,1.69.43,5.5,5.5,0,0,1,2.76,2.08,7.06,7.06,0,0,1,.86,1.48,11.16,11.16,0,0,1,.7,1.58,12.38,12.38,0,0,1,.48,3.78,31.05,31.05,0,0,1-.1,3.86A11.36,11.36,0,0,1,57.15,37c-.28.6-.67,1.14-1,1.72a7.25,7.25,0,0,1-1,1.49,9.83,9.83,0,0,1-2.72,2.21c-1,.53-2,1-3,1.4-.27.13-.46.35-.74.46a3.39,3.39,0,0,0-.68.29c-.46.31-.93.63-1.36,1a6.64,6.64,0,0,0-1.38,2.89l-.55,1.59c-.1.28-.19.56-.27.85a1.53,1.53,0,0,1-.07.36v-.09a2.33,2.33,0,0,1-.11.7v-.09a4.12,4.12,0,0,1-.27,1l-.45,1.49c-.28,1-.52,2-.73,3a5.74,5.74,0,0,1,2.29-.79,10.48,10.48,0,0,1,1.12,0c.43,0,.85-.09,1.27-.12A7.21,7.21,0,0,1,52,58a19.77,19.77,0,0,1,1.9,1.64c.23.2.79.8,1.15.58.87-.55.74-2.32.53-3.14a2.29,2.29,0,0,1,.29-1.64c.27-.37.73-.28,1.13-.26a.83.83,0,0,1,.92.76,12.62,12.62,0,0,1,.13,1.74,7.51,7.51,0,0,1-.14,2,4.8,4.8,0,0,0,0,.85l-.08.89a18.73,18.73,0,0,1-.25,1.94,3.25,3.25,0,0,0-.06.59,1.54,1.54,0,0,1-.09.7c-.32.65-1.4.41-1.85.06s-.39-.82-.59-1.23-.67-.3-1-.3c-.55.06-1.12,0-1.66.06a8.76,8.76,0,0,1-1.76.18,9.72,9.72,0,0,1-3.63-.88l.13,0A7.53,7.53,0,0,0,45,62.05a4.91,4.91,0,0,1-1,0,3.37,3.37,0,0,0-1.29.22c-.43.13-.69.55-1.09.73a1.13,1.13,0,0,1-1.25-.24c-.45-.37-.41-.91-.39-1.46s.08-1.26.16-1.88a41.62,41.62,0,0,1,1.8-7.72c.14-.43.16-.88.27-1.32s.37-1,.54-1.58A31.91,31.91,0,0,1,44,45.29,5.94,5.94,0,0,1,46.28,43a15.6,15.6,0,0,1,1.54-1,2.24,2.24,0,0,0,.46-.35l.25-.25.22-.16,0-.06a15.34,15.34,0,0,0,1.66-3.06c.45-1.09.83-2.48,1.2-3.69A10.76,10.76,0,0,0,52,33.3c.08-.36,0-.75.1-1.11a10.65,10.65,0,0,0,.21-1.1q0-.6,0-1.2c0-.6-.1-1.23-.19-1.79a25.36,25.36,0,0,1-.41-2.59,3.75,3.75,0,0,0-.53-1.92,5.2,5.2,0,0,0-.57-.76c-.19-.24-.24-.38-.56-.3s-.92.1-1.24.48a8.67,8.67,0,0,0-1,1.73l0-.11a12.55,12.55,0,0,0-.51,2.16,22.75,22.75,0,0,0,0,2.74,6.18,6.18,0,0,1-.09,2.57,1.2,1.2,0,0,1-.62.77,2.13,2.13,0,0,1-1.12.06c-1,0-1.89,0-2.83.06a3.59,3.59,0,0,1-2.1-.3c-.74-.48-.57-1.2-.57-2a20.88,20.88,0,0,1-.14-2.51c.29-2.39,1-4.77,3-6.27a10.24,10.24,0,0,1,3.26-1.65,8.11,8.11,0,0,1,2-.24A15.66,15.66,0,0,1,50,20Z"/></g></g></svg>