<svg xmlns="http://www.w3.org/2000/svg" viewBox="0 0 270 270"><defs><style>.cls-1{fill:#fff;}.cls-2{fill:#002d26;}.cls-3{fill:#a01a22;}.cls-4{fill:#d7b88b;}.cls-5{fill:#a78126;}</style></defs><g id="Capa_2" data-name="Capa 2"><g id="Home"><rect class="cls-1" width="270" height="270" rx="9.75"/><path class="cls-2" d="M232,19.88c.29-.25.61.08.88.21a6.73,6.73,0,0,0,1.35.37l.64.17c.13,0,.29,0,.4.09s.08.15.29.17l.31.05.56.06a6.14,6.14,0,0,0,1,.19c.45,0,.91.06,1.36.08a10.21,10.21,0,0,1,1.2.34,7.72,7.72,0,0,0,1.52.11.49.49,0,0,1,.55.39,1.75,1.75,0,0,1-.2,1.51c-.22.26-.78.28-1.09.42a1.76,1.76,0,0,0-.57.4,7.05,7.05,0,0,0-.45,1l-.1.45,0,.76a16.53,16.53,0,0,1-.11,2.53v-.12c0,.73-.12,1.43-.11,2.15l0,1.1c0,.07,0,.57.07.63a19,19,0,0,1,.07,4.33c-.12,1.55-.22,3.11-.44,4.65a19.47,19.47,0,0,0,0,3.74c0,.7.09,1.39.06,2.08,0,.48-.09,1-.14,1.42-.12,1.24.06,2.52,0,3.76a11.4,11.4,0,0,1-.19,2,10.55,10.55,0,0,0-.27,1.36c0,.41-.12.82-.12,1.23,0,.25.16.44.22.69a5.85,5.85,0,0,1,.12.73,2.35,2.35,0,0,0,1.88,1.62,1.71,1.71,0,0,0,.51,0c.16,0,.17-.07.32-.11a.4.4,0,0,1,.42.19,1.86,1.86,0,0,1,.16,1c0,.32-.13.81-.46.93a1.39,1.39,0,0,1-.7.06h-.87a13.31,13.31,0,0,0-1.55.12l-.76.11c-.23,0-.46.06-.69.06a2.46,2.46,0,0,1-1.32,0c-.14-.11-.06-.17-.28-.17h-.29l-.37.06a12.63,12.63,0,0,1-1.37.23,5.15,5.15,0,0,1-1,.41,1.76,1.76,0,0,1-.59-.18,2.49,2.49,0,0,1-.31-.23h-.3a5.6,5.6,0,0,1-1.4.18,1,1,0,0,0-.58.12c-.16.05-.41.17-.57.05a.85.85,0,0,0-.55-.12.42.42,0,0,1-.35.18c-.59-.18-.47-1.19-.32-1.6a.81.81,0,0,1,.77-.59l1.13-.08c.67-.48,1.54-.63,2.12-1.26a2.29,2.29,0,0,0,.43-1.54l.13-1.87c.07-1.36.06-2.71,0-4.07a11.79,11.79,0,0,1,0-2A13.28,13.28,0,0,0,232.4,49V47c0-.5.1-1,.11-1.5,0-1.18,0-2.37,0-3.56a10.58,10.58,0,0,1,.1-1.95,14.82,14.82,0,0,0,.28-1.62l.11-2c0-.57.11-1.1.18-1.66s.05-1.26.11-1.89.13-1.16.21-1.73v.09a6.24,6.24,0,0,0,.11-.84,15.8,15.8,0,0,1,.21-2.06c0-.53.14-1.09.14-1.6v-2.2c-.76.51-1.56,1-2.32,1.45a9.83,9.83,0,0,0-1.42,1A7.39,7.39,0,0,1,228.94,28a20.48,20.48,0,0,0-2.38,1.88c-.47.4-.91.84-1.4,1.22a3.69,3.69,0,0,1-1.24.79c-.45.11-1.39.06-1.63-.45a1.12,1.12,0,0,1-.37-.58.86.86,0,0,1,.13-.56,1.2,1.2,0,0,1,.66-.42l.29-.11a2,2,0,0,1,.24-.26c.17-.13.38-.16.53-.31l.59-.49c.76-.65,1.52-1.32,2.3-1.95a15.26,15.26,0,0,0,1.44-1.06,11.74,11.74,0,0,1,1.36-1.18c.51-.38,1-.73,1.59-1.06a2.63,2.63,0,0,0,1.09-.92A.71.71,0,0,0,232,22a1.75,1.75,0,0,1-.41-1.15,1.4,1.4,0,0,1,.37-.94Z"/><path class="cls-3" d="M190,239.43c-.28-1.77-.64-3.54-1-5.31,0,1.13.05,2.27.09,3.4.05,1.56.11,3.13.18,4.69,0,.62-.23,3.92.18,4.33l.12.17h1.33c0-.25,0-.51-.05-.74C190.65,243.78,190.37,241.6,190,239.43Z"/><path class="cls-3" d="M240.75,237.71c-.13-2-.25-4.08-.3-6.13s-.08-4.26-.08-6.39c-8.22,0-16.45.16-24.66.6-4.68.25-9.36.54-14,.93-3.45.28-7,.87-10.5.82l-.12.18c2.65,3.3,4.64,7.05,9.61,7.12a1.17,1.17,0,0,1,1.19,1,.92.92,0,0,1,.11,1c-1.49,3-6.22.45-8.1-.88a19.19,19.19,0,0,1-3.89-3.57c.45,2,.76,4,1.09,6,.28,1.73.54,3.47.78,5.21.09.71,0,2.14.25,3.14,13.61,0,27.22.16,40.82.58,2,.06,4.83,1.38,6.73.24,2.05-1.22,1.51-4.73,1.34-6.76C240.91,239.76,240.82,238.74,240.75,237.71Z"/><path class="cls-3" d="M186.48,239.08c-.06-2.29-.11-4.58-.12-6.88a15.39,15.39,0,0,1-3,3.61c-1.93,1.7-4.38,4.33-7.11,4.32l-.08.09c-1.3,1.11-2.61.95-4.06.11a1.26,1.26,0,0,1-.26-2c2.34-2.05,5.5-2.56,7.88-4.59a35.11,35.11,0,0,0,5.82-7l-.07-.12c-26.4-.05-52.63,3.43-79,4.06-25.12.6-51,.42-75.9-3.47.24,3,.47,6,.72,8.95.19,2.39.39,4.78.58,7.17.15,1.76.36,4.44,2,5.67,1.94,1.49,6.06.33,8.3.21q12.21-.66,24.41-1.26c16.28-.78,32.56-1.4,48.86-1.58q10.74-.12,21.48,0c16.63.27,33.27.21,49.9.24C186.21,244.32,186.55,241.37,186.48,239.08Z"/><path class="cls-3" d="M200.23,212.23c-2.28,1-6,4.72-6.72,5.45-.92.93-1.79,1.89-2.63,2.88.88-.42,1.77-.82,2.68-1.18,1.2-.46,10-2.36,9.2-4.33A4.5,4.5,0,0,0,200.23,212.23Z"/><path class="cls-3" d="M202.58,223.09c-3.72.24-7.48.63-11.21.68a2.15,2.15,0,0,1,.21.4,3.14,3.14,0,0,1,.22,1.11,94.62,94.62,0,0,1,9.89-1c4.67-.39,9.34-.73,14-1,8.22-.46,16.45-.73,24.68-.76,0-.51,0-1,0-1.51q-12.3.48-24.6,1.23Q209.2,222.65,202.58,223.09Z"/><path class="cls-3" d="M187.43,198c.31,2.55.63,5.1.9,7.65,0-.29,0-.58,0-.87,0-5,.08-10,.26-14.95l-1.54-.09C187.44,192.42,187.11,195.22,187.43,198Z"/><path class="cls-3" d="M185.06,189.6c-16.33-.87-32.63-.89-49-.27-35.54,1.35-71.6,4.31-107.12.86a.91.91,0,0,1-.13.08c-1.6.79-.52,6.51-.43,7.91.15,2.54.37,5.07.55,7.61q.54,7.61,1.12,15.22c0,.07,0,.13,0,.2l2.73.31c25.65,2.9,51.26,6.22,77.14,4.82,23-1.25,46-5.62,69.11-4.07-3.18-1-6.35-2.08-8.73-4.37s-4.78-6.62-1-9c6.7-4.16,13.47.86,17.08,7.18a104.53,104.53,0,0,0-.85-12C184.93,199.68,183.36,194,185.06,189.6Z"/><path class="cls-3" d="M181.91,223.77c-25.64-2.25-51,3.26-76.59,4.07-25.12.79-50.29-2-75.15-5.44.06.77.13,1.53.19,2.29,26,2.1,51.54,4.4,77.64,3.48,25.08-.89,50.06-4.06,75.17-4.18l-.23-.12Z"/><path class="cls-3" d="M239,189.84a1,1,0,0,1-.93-.56c-15.87,2.65-31.94,1.62-48,.6l-.46,0c0,5-.16,9.93-.2,14.89,0,2.82-.06,5.63,0,8.44,0,.73,0,1.47,0,2.21a18.41,18.41,0,0,1,3.54-3.68c2.54-2,8.68-3.36,11.63-1.45,1.35.88,2,2.44,1.39,4.94-1,3.88-4.39,4.41-7.71,5.51-1.53.51-3.07,1-4.58,1.63,7.31-.79,14.76-.93,22.06-1.37,8.21-.49,16.42-.92,24.63-1.24,0-.66,0-1.32.05-2,.16-4.61.4-9.22.68-13.83C241.3,201.65,243.57,189.71,239,189.84Z"/><path class="cls-3" d="M178.08,213.24q-2.78-3-6.38.66l2,1.8c3.31,1.87,6.65,3.69,10,5.51l.79.31c-.72-2.16-2.54-4.24-3.9-5.76A20.44,20.44,0,0,0,178.08,213.24Z"/><path class="cls-4" d="M50.72,201.16a22.69,22.69,0,0,0,0-4.36A34.31,34.31,0,0,1,48,200.39a.36.36,0,0,1-.5,0l-2.66-2.25c.29,1.4.56,2.82.87,4.22a.32.32,0,0,1-.15.37q-2.34,1-4.75,1.83a16.51,16.51,0,0,0,1.86.36l2.94.47a.35.35,0,0,1,.24.43,15.91,15.91,0,0,0-.87,3.57,9.19,9.19,0,0,0,1.24-1.28c.48-.49,1-1,1.45-1.48.31-.3.79-1,1.32-.72a17.63,17.63,0,0,0,2.52,1.4,15.71,15.71,0,0,1,1.62.73,10.76,10.76,0,0,0-1.35-2.19c-.22-.34-.82-1-.55-1.46.17-.3.68-.43,1-.58l1.43-.71,1.8-.88c-1.48-.17-3-.4-4.43-.72A.36.36,0,0,1,50.72,201.16Z"/><path class="cls-4" d="M169.67,196.38a14.06,14.06,0,0,0-1.68.29l-2.63.53a.31.31,0,0,1-.34-.29,14.59,14.59,0,0,0-.4-3.29,9.46,9.46,0,0,0-.64,1.48c-.25.57-.5,1.14-.76,1.71-.16.35-.33,1.12-.88,1a15.79,15.79,0,0,0-2.57-.39,14.17,14.17,0,0,1-1.6-.09,10.65,10.65,0,0,0,1.83,1.42c.3.21,1,.57.93,1.05-.05.31-.44.58-.63.8l-1,1.05L158.07,203c1.31-.33,2.63-.6,4-.8a.32.32,0,0,1,.33.21,20.82,20.82,0,0,0,1.36,3.68,29.89,29.89,0,0,1,1.2-3.91.31.31,0,0,1,.42-.15c1,.34,2,.7,3,1.05-.69-1.09-1.36-2.2-2.07-3.29a.29.29,0,0,1,0-.35C167.35,198.37,168.48,197.35,169.67,196.38Z"/><path class="cls-4" d="M224.51,233.66a14.06,14.06,0,0,0-1.68.29l-2.63.53a.32.32,0,0,1-.35-.29,13.88,13.88,0,0,0-.39-3.28,7.54,7.54,0,0,0-.64,1.47l-.76,1.71c-.16.36-.34,1.12-.89,1a16.77,16.77,0,0,0-2.57-.39,14.12,14.12,0,0,1-1.59-.09,9.84,9.84,0,0,0,1.83,1.42c.3.21,1,.57.93,1.05-.05.31-.44.58-.64.8l-1,1.05-1.24,1.32c1.31-.33,2.63-.6,4-.8a.32.32,0,0,1,.33.21,20.82,20.82,0,0,0,1.36,3.68,29.89,29.89,0,0,1,1.2-3.91.3.3,0,0,1,.41-.15c1,.34,2,.7,3,1.05-.69-1.09-1.37-2.2-2.08-3.29a.3.3,0,0,1,0-.35Q222.73,235.12,224.51,233.66Z"/><path class="cls-4" d="M77.9,213.7a29.06,29.06,0,0,1-4,.53.31.31,0,0,1-.3-.3q-.15-1.53-.27-3.06c-.69,1.06-1.4,2.11-2.07,3.18a.28.28,0,0,1-.32.13c-1.39-.53-2.75-1.13-4.09-1.79a11.47,11.47,0,0,0,.94,1.37l1.54,2.12a.31.31,0,0,1-.12.42A14.06,14.06,0,0,0,66.51,218a8.9,8.9,0,0,0,1.57,0l1.82,0c.38,0,1.13-.17,1.27.36a16.36,16.36,0,0,0,.7,2.43,12.76,12.76,0,0,1,.56,1.45A10.22,10.22,0,0,0,73,220c.06-.35.09-1.13.55-1.25.29-.08.69.15,1,.24l1.33.44,1.68.56a35.87,35.87,0,0,1-2.32-3.18.32.32,0,0,1,0-.38A20.34,20.34,0,0,0,77.9,213.7Z"/><path class="cls-4" d="M131.65,235.38a30.58,30.58,0,0,1-3.94.53.32.32,0,0,1-.31-.31c-.1-1-.18-2-.27-3-.69,1.06-1.39,2.1-2.06,3.17a.29.29,0,0,1-.32.14c-1.4-.54-2.76-1.13-4.09-1.79a12.24,12.24,0,0,0,.93,1.37l1.54,2.11a.31.31,0,0,1-.11.42,13.82,13.82,0,0,0-2.75,1.69,7.9,7.9,0,0,0,1.56,0l1.82,0c.38,0,1.13-.16,1.27.36a15,15,0,0,0,.71,2.43c.2.48.41,1,.56,1.45a9.4,9.4,0,0,0,.51-2.2c.07-.34.1-1.12.55-1.24.3-.08.7.15,1,.23l1.33.44,1.67.57a36.58,36.58,0,0,1-2.32-3.19.3.3,0,0,1,0-.37A20.26,20.26,0,0,0,131.65,235.38Z"/><path class="cls-4" d="M216.18,198.53a28.92,28.92,0,0,1-3.94.53.32.32,0,0,1-.31-.31l-.27-3.05c-.69,1.06-1.39,2.11-2.06,3.18a.29.29,0,0,1-.32.13c-1.39-.54-2.76-1.13-4.09-1.79a12.69,12.69,0,0,0,.93,1.37c.52.7,1,1.41,1.54,2.11a.31.31,0,0,1-.11.42,13.82,13.82,0,0,0-2.75,1.69,8.78,8.78,0,0,0,1.56,0l1.82,0c.38,0,1.14-.16,1.28.37a15.13,15.13,0,0,0,.7,2.42,13.53,13.53,0,0,1,.56,1.45,9.44,9.44,0,0,0,.51-2.19c.07-.35.1-1.13.55-1.25s.7.15,1,.24l1.33.44,1.67.56a36.58,36.58,0,0,1-2.32-3.19.3.3,0,0,1,0-.37A20.26,20.26,0,0,0,216.18,198.53Z"/><path class="cls-4" d="M126.27,208.59a7.57,7.57,0,0,0-1.14.2l-1.77.37a.21.21,0,0,1-.23-.19,9.2,9.2,0,0,0-.29-2.22,5.81,5.81,0,0,0-.42,1l-.51,1.15c-.1.24-.22.76-.59.7a9.87,9.87,0,0,0-1.73-.24c-.36,0-.72,0-1.08-.06a6.8,6.8,0,0,0,1.24.95c.2.14.69.38.64.7s-.3.4-.43.54l-.66.72-.83.9a24.35,24.35,0,0,1,2.67-.56.23.23,0,0,1,.23.14,13.62,13.62,0,0,0,.93,2.47,22.8,22.8,0,0,1,.79-2.64.23.23,0,0,1,.28-.11l2,.7c-.47-.73-.93-1.48-1.42-2.21a.2.2,0,0,1,0-.24C124.71,209.94,125.47,209.24,126.27,208.59Z"/><path class="cls-4" d="M87.9,236.76a9,9,0,0,0-1.13.21l-1.78.36a.2.2,0,0,1-.23-.19,9.7,9.7,0,0,0-.28-2.21,6.19,6.19,0,0,0-.43,1c-.16.39-.33.78-.5,1.16s-.22.76-.59.7a11.22,11.22,0,0,0-1.74-.25,7.59,7.59,0,0,1-1.07-.06,6.52,6.52,0,0,0,1.24,1c.2.14.68.38.63.7s-.29.4-.43.54l-.65.72-.83.89a24.31,24.31,0,0,1,2.67-.55.2.2,0,0,1,.22.13,14.23,14.23,0,0,0,.94,2.48,18.64,18.64,0,0,1,.79-2.64.22.22,0,0,1,.28-.11l2,.7c-.47-.74-.93-1.48-1.41-2.21a.2.2,0,0,1,0-.24C86.34,238.11,87.1,237.42,87.9,236.76Z"/><path class="cls-4" d="M102.47,201.17a.4.4,0,0,1-.43-.26,15.44,15.44,0,0,1-.52-4.89c-.84,1.15-1.6,2.34-2.36,3.54a.43.43,0,0,1-.6.06l-3.75-2.75c.18.67.38,1.33.59,2a13.42,13.42,0,0,1,.88,2.64.39.39,0,0,1-.17.38,14,14,0,0,1-1.91.91,14.38,14.38,0,0,0-1.85,1.11,18.75,18.75,0,0,0,2.34.31c.6.07,1.34,0,1.75.53.25.35,0,.94-.16,1.26-.32.95-.62,1.9-.89,2.86q1.9-1.09,3.74-2.29a.42.42,0,0,1,.51,0,20.42,20.42,0,0,0,3.84,3c-.13-.93-.29-1.85-.46-2.77-.09-.51-.68-1.89-.33-2.34a23.88,23.88,0,0,1,3.85-3.49A16.83,16.83,0,0,0,102.47,201.17Z"/><path class="cls-4" d="M156.3,235.79a.26.26,0,0,1-.25-.15,9.34,9.34,0,0,1-.3-2.87c-.49.67-.94,1.37-1.38,2.07a.24.24,0,0,1-.35,0l-2.2-1.61c.11.39.22.77.35,1.16a7.94,7.94,0,0,1,.51,1.54.25.25,0,0,1-.1.23,8.22,8.22,0,0,1-1.12.53,7.93,7.93,0,0,0-1.08.65,10.71,10.71,0,0,0,1.37.18c.35,0,.79,0,1,.31s0,.55-.09.74c-.19.55-.36,1.11-.52,1.67.74-.42,1.47-.87,2.19-1.34a.24.24,0,0,1,.29,0,12.15,12.15,0,0,0,2.26,1.72q-.12-.81-.27-1.62c-.06-.29-.4-1.1-.2-1.36a14.33,14.33,0,0,1,2.26-2.05A9.61,9.61,0,0,0,156.3,235.79Z"/><path class="cls-4" d="M147.79,213.21a.28.28,0,0,1-.31-.18,11.11,11.11,0,0,1-.36-3.48c-.6.81-1.15,1.66-1.68,2.51a.3.3,0,0,1-.43.05l-2.68-2c.13.47.27.94.43,1.41a10.61,10.61,0,0,1,.62,1.88.31.31,0,0,1-.12.28,11.24,11.24,0,0,1-1.36.64,11,11,0,0,0-1.32.79,11.75,11.75,0,0,0,1.67.22c.43,0,.95,0,1.24.39s0,.66-.11.89c-.23.68-.44,1.35-.63,2,.9-.52,1.79-1.06,2.66-1.63a.3.3,0,0,1,.36,0,14,14,0,0,0,2.74,2.1c-.09-.66-.2-1.31-.32-2-.07-.36-.49-1.35-.24-1.66a16.34,16.34,0,0,1,2.74-2.49A12.29,12.29,0,0,0,147.79,213.21Z"/><path class="cls-4" d="M50.51,237.53a.28.28,0,0,1-.31-.18,11.38,11.38,0,0,1-.37-3.48c-.59.81-1.14,1.66-1.67,2.51a.3.3,0,0,1-.43.05l-2.68-2q.2.71.42,1.41a9.89,9.89,0,0,1,.63,1.88A.31.31,0,0,1,46,238a11.24,11.24,0,0,1-1.36.64,9.27,9.27,0,0,0-1.32.8,13.14,13.14,0,0,0,1.67.21c.43.05,1,0,1.24.39.18.24,0,.67-.11.89q-.35,1-.63,2c.9-.52,1.79-1.06,2.66-1.63a.3.3,0,0,1,.36,0,14,14,0,0,0,2.74,2.1c-.09-.66-.2-1.31-.32-2-.07-.36-.49-1.35-.24-1.66a16.34,16.34,0,0,1,2.74-2.49A12.29,12.29,0,0,0,50.51,237.53Z"/><path class="cls-4" d="M231.89,211.48a.31.31,0,0,1-.31-.18,11.45,11.45,0,0,1-.37-3.49c-.59.82-1.14,1.67-1.67,2.52a.31.31,0,0,1-.43,0l-2.68-2q.19.71.42,1.41a9.89,9.89,0,0,1,.63,1.88.29.29,0,0,1-.12.27,10,10,0,0,1-1.36.65,9.22,9.22,0,0,0-1.32.79,13.15,13.15,0,0,0,1.67.22c.43.05,1,0,1.24.38s0,.67-.11.9q-.34,1-.63,2c.9-.52,1.79-1.06,2.66-1.64a.3.3,0,0,1,.36,0,14.76,14.76,0,0,0,2.74,2.1c-.09-.66-.2-1.32-.32-2-.07-.37-.49-1.35-.24-1.67a17.24,17.24,0,0,1,2.74-2.49A11.79,11.79,0,0,0,231.89,211.48Z"/><path class="cls-5" d="M117.61,173.81l-.06-6.13q-.06-6.13-.11-12.26-.12-12.25-.22-24.51c-.15-15.83-.59-31.76.32-47.57-2.36.1-4.79-.17-5.91-.2-8.78-.27-17.56-.44-26.34-.69-8.2-.24-16.41-.21-24.6-.38-.75,0-1.57,0-2.42.05,0,8.25-.51,16.46-.17,24.72.33,8,.75,16,1.13,24s.78,16.19,1.16,24.28L61,167.5c.09,2.05.19,4.11.28,6.16,0,1.09.15,2.17.28,3.25s-.16,3.25,1.19,3.77a2.92,2.92,0,0,0,.78.16c4.75.54,9.58-.67,14.39-.53,4.14.12,8.13,1.17,12.25,1.44a124.39,124.39,0,0,0,13.79,0c2.34-.1,4.67-.23,7-.36l3.4-.17c.72,0,2.15.29,2.76-.09a1.28,1.28,0,0,0,.48-.81,16.19,16.19,0,0,0,.06-2.7C117.69,176.35,117.62,175.07,117.61,173.81Z"/><path class="cls-2" d="M75.28,34.22c-.79,3.81.92,8.12,2.92,11.28a33.42,33.42,0,0,0,4.73,5.67,13.88,13.88,0,0,1,1.15,1l0,0a2.34,2.34,0,0,1,.66-.54,3,3,0,0,1,1.36-.3,27.68,27.68,0,0,0-3.27-9C81,39.06,79,35.52,75.28,34.22Z"/><path class="cls-2" d="M89.52,33c-4,4.72-2.5,12.56-2,18.14a.38.38,0,0,1-.12.32v0a2.21,2.21,0,0,1,.75.32A26.69,26.69,0,0,1,90.06,49a37.29,37.29,0,0,0,2.46-8.63,16.9,16.9,0,0,0,0-5.07C92.22,34,91.5,30.63,89.52,33Z"/><path class="cls-5" d="M73.92,63.21c-2.64.86-7.91,2-8.65-1.91-.51-2.77,2.89-4.57,5.49-5.51a19.45,19.45,0,0,1-3.15.18c-1.85-.08-3.71-.21-5.56-.12a44,44,0,0,1-5.1.4c-1.05-.09-5.28-1.31-4.82,1.37,1,5.9,1.69,12.81.88,18.92a14.1,14.1,0,0,1,.2,1.59c.15,2.16,2.14,1.48,3.52,1.51,2.73,0,5.46.1,8.19.17,5.81.14,11.62.43,17.43.53l.77,0A29.94,29.94,0,0,1,83.9,57.5,30.23,30.23,0,0,1,73.92,63.21Z"/><path class="cls-2" d="M73.49,48.52a15.37,15.37,0,0,0-5.49.23,13.27,13.27,0,0,0-2.8,1c-.06,0-2,.89-.76,1,3.73.48,7.48.9,11.23,1.23,2,.18,4.24.14,6.3.53-.44-.44-.88-.89-1.31-1.36A18.71,18.71,0,0,0,73.49,48.52Z"/><path class="cls-5" d="M94.13,60.87a48,48,0,0,0-5.83-4.42c1.14,2.69,2,5.52,3.1,8.21a14.36,14.36,0,0,0,2.33,4.17c.79.88,3.35,3.63,4.21,1.09.8-2.34.79-4.31-1-6.23A34.6,34.6,0,0,0,94.13,60.87Z"/><path class="cls-5" d="M84.3,55.23c-3.2-.69-6.52,0-9.68.69a19.44,19.44,0,0,0-4.87,1.65c-.94.51-5.19,3.27-2.37,4.66s7.2-.49,9.74-1.72a29.73,29.73,0,0,0,7.41-5.1.55.55,0,0,1,.15-.08l-.19-.1A.61.61,0,0,1,84.3,55.23Z"/><path class="cls-2" d="M105.11,40.29c-4.09.32-7.83,3.22-10.69,6A33.88,33.88,0,0,0,91,50.1l-.23.57a.62.62,0,0,1-.49.38l-.72,1a34,34,0,0,1,6.25-1.78,27.84,27.84,0,0,0,3.21-1.66,21.35,21.35,0,0,0,4.72-3.8C104.41,44.07,107.88,40.08,105.11,40.29Z"/><path class="cls-2" d="M99.93,51.18a40.16,40.16,0,0,0-4.31.59,54,54,0,0,1-5.41,1.88c5.31,0,10.64.13,16,.24,1.24,0,2.6,0,4,0a22.93,22.93,0,0,0-3.64-1.51A16,16,0,0,0,99.93,51.18Z"/><path class="cls-5" d="M99.15,59.34c2.24.5,4.91,1.08,7.15.31.58-.19,4.73-2.15,5.69-3.55-7.15-.21-14.31-.12-21.46-.35A27.66,27.66,0,0,0,99.15,59.34Z"/><path class="cls-5" d="M120.13,65.76c0-2,.36-4,.36-6,0-3.42-2.54-3.42-5.27-3.54-.56,0-1.13,0-1.69-.06-.25,1.6-3.24,3.07-4.36,3.68a11.61,11.61,0,0,1-7.67,1.3,32,32,0,0,1-7.08-1.91A28.43,28.43,0,0,1,98,62.78c2.19,2.64,2.7,6.34.33,9.14-2,2.32-5.8-2.35-6.6-3.77a31.28,31.28,0,0,1-1.92-4.31c.15,1.22.25,2.42.33,3.55a100.16,100.16,0,0,1,0,13.08c3.58.06,7.17.12,10.75.2l9.3.16c1,0,10.73.72,10.74-1.44a1.29,1.29,0,0,1-.27-.73C120.47,74.36,120.19,70.06,120.13,65.76Z"/><path class="cls-5" d="M84.79,58.48a29.11,29.11,0,0,0-.4,21.9h.07A19.91,19.91,0,0,1,84,76.31c-.14-2.49-.2-5-.12-7.47A72.35,72.35,0,0,1,84.79,58.48Z"/><path class="cls-5" d="M88.06,61.31c-.38-2-1-3.87-1.34-5.84a1.46,1.46,0,0,1-.36,0v0c-.42,4.21-1.13,8.37-1.25,12.62-.07,2.24-.08,4.48,0,6.72a20.58,20.58,0,0,0,.6,5.53l3.07,0A98.84,98.84,0,0,0,88.89,68,54.25,54.25,0,0,0,88.06,61.31Z"/><path class="cls-3" d="M104.51,89.64c-2.17.56-3.87,2.6-5.53,4-3.18,2.66-6.33,1.62-9.16-.84a6.15,6.15,0,0,0-2.71-1.52,10.07,10.07,0,0,0-6.36,1.2c-2.52,1.25-5,3.58-7.92,1.91a29.69,29.69,0,0,0-3.78-2.19c-4.1-1.57-8.13,0-11,2.91,0,1.7-.06,3.4-.07,5.1,3.13-3,5.94-7,10.93-4.37,2,1,4,3.22,6.45,3.09,2.65-.14,4.29-1.37,6.25-3,4.57-3.93,6.46.08,10,2.51a6,6,0,0,0,5.53.23c1-.46,7.77-5.56,7.91-5.43,3.23,3.13,7.4,6,12,6.09,0-1.4,0-2.8.06-4.19a21.46,21.46,0,0,1-7.83-2.68C108.09,91.67,106.29,89.17,104.51,89.64Z"/><path class="cls-4" d="M112.15,110.27a7.15,7.15,0,0,0-2.31-1.67c-3.16-.87-6.27,1.37-8.74,3-2.3,1.54-3.2,3.17-5.73.76-1.46-1.4-2.91-2.83-4.45-4.15a7.14,7.14,0,0,0-6.18-1.59c-2.36.39-4.06,3.14-5.39,4.82-3.78,4.77-7.77-1.84-11.32-2.79-4.39-1.17-7.49.8-9.67,3.86.1,2.2.19,4.41.3,6.61,2.18-4.27,5.36-9.51,10.68-5.14,1.8,1.48,4.12,3.76,6.67,3.64a7.87,7.87,0,0,0,5.63-2.35c2.74-2.53,3.78-7.11,8.47-2.69,3.67,3.47,6.84,6.48,11.49,3.07a45,45,0,0,1,4-2.69c3.06-1.77,4.6.64,6.58,2.06a8.16,8.16,0,0,0,4.83,1.54c0-1.37,0-2.73,0-4.1A13.43,13.43,0,0,1,112.15,110.27Z"/><path class="cls-2" d="M117.17,127.17c-3.8-2.17-7.75-3-10.89,1.79-1.42,2.19-3.54,7.56-7.85,3.86-1.65-1.42-2.5-3.48-4.2-4.89-1.44-1.18-4.16-1.39-5.48.17-3.53,4.15-6.24,11.79-12.6,6-2.42-2.21-5.1-6.12-8.88-6a12.69,12.69,0,0,0-8,3.74l.27,5.63a39.85,39.85,0,0,1,3.4-3.62c5.44-5.24,9.77,2.46,13.58,5,5.16,3.43,9.46-1.2,12.3-5.05,1.54-2.1,3.15-4,5-1.15a18,18,0,0,0,3.2,3.67c1.34,1.17,3.83,2.15,5.62,1.52a9.53,9.53,0,0,0,4.77-3.77c1.83-2.45,2.75-7.61,8.25-3.34l1.53,1.18v-1C117.2,129.66,117.19,128.41,117.17,127.17Z"/><path class="cls-3" d="M116.36,148.71c-1.48-.85-2.67-2.13-4.12-3.05-2.14-1.37-5.61-.24-7.24,1.42a19.94,19.94,0,0,0-2.78,3.61c-1.77,2.82-2.73,3.52-5.42,1-2-1.85-5.31-6.85-8.44-6.73A6.67,6.67,0,0,0,83,148c-1.87,2.49-3.42,4.83-6.52,5.95-3.53,1.28-5.58-3.48-7.73-5.15a7.78,7.78,0,0,0-8.65-.67l.21,4.38A5.49,5.49,0,0,1,64,150.74c3.33-.29,3.77,3,5.7,4.6a8.53,8.53,0,0,0,5.88,2.18c2.44.07,4.53-1.44,6.34-2.85a19.85,19.85,0,0,0,3.35-3.9c2.41-3.21,4.66-1,6.78,1.11,3.68,3.7,7.13,8.32,11.85,3.47,2.8-2.88,3.86-8.61,8.78-4.28a15.2,15.2,0,0,0,4.74,2.94l0-4.76C117,149.08,116.7,148.91,116.36,148.71Z"/><path class="cls-4" d="M117.53,165.24c-3.59-1.6-7.54-2.62-10.45-.2-1.73,1.43-3.1,4.28-6.09,3-1.77-.75-3.38-2.21-5-3.24a18.16,18.16,0,0,0-8.72-3.34c-2.37-.17-5.58,1.43-7.28,3a41.6,41.6,0,0,0-4.28,4.62c-3,3.65-7.25.88-9.83-1.45-1.89-1.7-3.58-2.3-5-2L61,167.5l0,1.21c2.06-.26,4.34,3.33,6.55,4.65,1.66,1,3.71,2.1,5.74,1.55,7.18-1.95,9.4-13.9,18.55-8.72,3.49,2,8.7,8.34,13.31,5.77,3.15-1.76,3.74-5.16,8.48-4a17.14,17.14,0,0,1,3.93,1.69c0-.66,0-1.32,0-2Z"/><path class="cls-2" d="M76.1,87.66a2.13,2.13,0,1,0,2.13,2.13A2.15,2.15,0,0,0,76.1,87.66Z"/><path class="cls-2" d="M63.38,96.92c-2.75,0-2.75,4.26,0,4.26S66.12,96.92,63.38,96.92Z"/><path class="cls-2" d="M95.93,87.35c-2.73,0-2.73,4.23,0,4.23S98.66,87.35,95.93,87.35Z"/><path class="cls-2" d="M84.53,96.73c-2.57,0-2.57,4,0,4S87.1,96.73,84.53,96.73Z"/><path class="cls-2" d="M105,96.54c-2.6,0-2.6,4,0,4S107.62,96.54,105,96.54Z"/><path class="cls-2" d="M113.12,88.75a1.87,1.87,0,0,0,0,3.74A1.87,1.87,0,0,0,113.12,88.75Z"/><path class="cls-3" d="M64.86,114.43c-2.54,0-2.54,3.94,0,3.94S67.4,114.43,64.86,114.43Z"/><path class="cls-3" d="M76.43,106.2a1.61,1.61,0,1,0,1.6,1.61A1.62,1.62,0,0,0,76.43,106.2Z"/><path class="cls-3" d="M88.5,115.47a1.59,1.59,0,1,0,1.59,1.59A1.61,1.61,0,0,0,88.5,115.47Z"/><path class="cls-3" d="M97.58,107.23a1.9,1.9,0,0,0,0,3.8A1.9,1.9,0,0,0,97.58,107.23Z"/><path class="cls-3" d="M107.83,114.47a1.93,1.93,0,1,0,1.94,1.93A2,2,0,0,0,107.83,114.47Z"/><path class="cls-2" d="M66.19,134.38c-2.6,0-2.6,4,0,4S68.78,134.38,66.19,134.38Z"/><path class="cls-2" d="M80.4,127.77a1.86,1.86,0,1,0,1.85,1.85A1.87,1.87,0,0,0,80.4,127.77Z"/><path class="cls-2" d="M92.13,134.14c-2.7,0-2.7,4.19,0,4.19S94.83,134.14,92.13,134.14Z"/><path class="cls-2" d="M100.56,127.34a1.79,1.79,0,0,0,0,3.57A1.79,1.79,0,0,0,100.56,127.34Z"/><path class="cls-2" d="M111,132.19a1.89,1.89,0,0,0,0,3.78A1.89,1.89,0,0,0,111,132.19Z"/><path class="cls-4" d="M63.38,153.64a1.93,1.93,0,0,0,0,3.85A1.93,1.93,0,0,0,63.38,153.64Z"/><path class="cls-4" d="M76.43,147.87a1.75,1.75,0,0,0,0,3.5A1.75,1.75,0,0,0,76.43,147.87Z"/><path class="cls-4" d="M89,150.71c-2.64,0-2.64,4.1,0,4.1S91.63,150.71,89,150.71Z"/><path class="cls-4" d="M100.06,144.75a1.89,1.89,0,1,0,1.89,1.89A1.9,1.9,0,0,0,100.06,144.75Z"/><path class="cls-4" d="M110.31,151.88c-2.63,0-2.63,4.07,0,4.07S112.94,151.88,110.31,151.88Z"/><path class="cls-3" d="M63.71,173a1.73,1.73,0,1,0,1.73,1.73A1.74,1.74,0,0,0,63.71,173Z"/><path class="cls-3" d="M71.64,164.05a1.76,1.76,0,0,0,0,3.52A1.76,1.76,0,0,0,71.64,164.05Z"/><path class="cls-3" d="M88.5,166.87a1.92,1.92,0,1,0,1.91,1.92A1.93,1.93,0,0,0,88.5,166.87Z"/><path class="cls-3" d="M112,170.92a2,2,0,1,0,2,2A2,2,0,0,0,112,170.92Z"/><path class="cls-3" d="M102.38,161.53c-2.75,0-2.75,4.26,0,4.26S105.12,161.53,102.38,161.53Z"/><path class="cls-2" d="M161.89,119.42h-.23c-6.37,0-12.75.18-19.11-.22-2.78-.18-5.5-.87-8.29-.92-3.7-.06-5.11,1.23-5.65,5-.64,4.46.7,8.66,1.33,13,.7,4.84,1.43,9.68,2,14.54.51,4.43,1,8.87,1.06,13.33.09,3.24-.19,6.57-.26,9.81a5.37,5.37,0,0,0,5,5.41c1.4.07,2.66-.58,4.08-.65,2-.09,4,0,6,.06,5.4.19,10.77,1,16.16,1.19.54,0,1.09,0,1.63,0C168.42,159.65,159.36,139.68,161.89,119.42Z"/><path class="cls-5" d="M163.66,94.77c-3.26,7.16-1.31,15.19.81,22.76A82.24,82.24,0,0,0,163.66,94.77Z"/><path class="cls-5" d="M152.67,117.69a30.57,30.57,0,0,0-8.31-4.8,17.82,17.82,0,0,0-6.36-1.25,12.06,12.06,0,0,0-4.66.87c7,1.61,12.88,5.3,20,5.73Z"/><path class="cls-5" d="M148.81,100.35a27.39,27.39,0,0,0,1,6.67,18.9,18.9,0,0,0,4.91,8.31c.9.67,1.79,1.36,2.66,2a1.57,1.57,0,0,1,.64,1.41c1.21,0,2.43,0,3.65,0-3.45-7.65-6.64-15.62-10.64-23C148.62,91.36,148.77,99.83,148.81,100.35Z"/><path class="cls-5" d="M176.22,100.43c.05.69-.12-8.54-2.71-5.84a13.34,13.34,0,0,0-2.5,3.33c-1.19,2.28-2.1,4.66-3.14,7a92.07,92.07,0,0,1-.3,13.78l.88,0C172.76,114.49,176.62,106.42,176.22,100.43Z"/><path class="cls-5" d="M191.57,107.26c-5.26-.84-9.38,1.06-14.25,3.35a29.11,29.11,0,0,1-3.9,7.14c3.63-.34,7.44-2.39,10.5-4.12A23.63,23.63,0,0,0,191.57,107.26Z"/><path class="cls-2" d="M196.93,163.23c.11-4.95.28-9.9.4-14.85s.23-9.89.12-14.83c-.08-3.83,1.27-10.11-1.89-13.1-4-3.81-12.46-1.69-17.25-1.49s-9.44.38-14.17.44c.46,10.79,2,21.18,3.43,31.88,1.3,9.55,2.16,19.1.67,28.66,3.83-.25,7.65-.82,11.52-.65,3.58.15,7.07,1.31,10.63,1.74,2.64.31,4.89,1.13,6.29-1.91a9.71,9.71,0,0,0,.63-4.44C197.15,170.84,196.85,167.09,196.93,163.23Z"/><polygon class="cls-5" points="136.98 129.7 140.89 130.57 138.14 124.48 136.98 129.7"/><polygon class="cls-5" points="145.35 174.33 149.27 175.2 146.51 169.11 145.35 174.33"/><polygon class="cls-5" points="182.78 175.45 186.69 176.32 183.94 170.23 182.78 175.45"/><polygon class="cls-5" points="147.89 139.17 149.19 132.65 145.42 132.65 147.89 139.17"/><polygon class="cls-5" points="153.88 164.56 155.19 158.03 151.42 158.03 153.88 164.56"/><polygon class="cls-5" points="183.07 155.42 184.37 148.9 180.6 148.9 183.07 155.42"/><polygon class="cls-5" points="155.61 126.94 159.23 125.78 156.33 121.87 155.61 126.94"/><polygon class="cls-5" points="137.02 166.52 140.65 165.36 137.75 161.44 137.02 166.52"/><polygon class="cls-5" points="154.83 150 159.33 149.42 155.56 144.64 154.83 150"/><polygon class="cls-5" points="189.32 163.98 193.81 163.4 190.04 158.62 189.32 163.98"/><polygon class="cls-5" points="143.07 152.61 146.98 152.75 144.95 147.53 143.07 152.61"/><polygon class="cls-5" points="159.71 175.74 163.63 175.89 161.59 170.67 159.71 175.74"/><path class="cls-5" d="M137.05,145c0,.43,2-5.66,2-5.66l-4.21.15S137.05,144.57,137.05,145Z"/><polygon class="cls-5" points="169.92 144.8 174.85 144.66 172.38 138.56 169.92 144.8"/><polygon class="cls-5" points="168.95 129.21 170.11 123.7 166.77 123.99 168.95 129.21"/><polygon class="cls-5" points="180.24 134.8 184.73 135.38 180.82 129.87 180.24 134.8"/><polygon class="cls-5" points="190.05 144.93 195.41 145.94 192.37 139.42 190.05 144.93"/><polygon class="cls-5" points="172.16 166.23 177.53 167.24 174.48 160.72 172.16 166.23"/><path class="cls-5" d="M191.93,129.36l1.3-5.8-3.33.43S191.78,128.63,191.93,129.36Z"/><path class="cls-3" d="M168,32c-1-4-3.67-7.8-7.77-9s-12.9.43-7.33,6.13c2.9,3,6.44,5.42,10.8,4.9h.06a6.49,6.49,0,0,0-.11-2.4c-3.61.07-7.91-1.37-9.75-4.7s3.59-3.2,5.18-2.61c7,2.65,8.93,13,1.47,16.11a19.87,19.87,0,0,1,.9,2.34C164.82,40.21,169.2,37,168,32Z"/><path class="cls-3" d="M147.6,42.69c-1.78-.88-5-2.41-4.77-4.93.47-5.41,7.25-3.31,9.8-.76,3.21,3.22,5.33,9.3,1.68,13a11.19,11.19,0,0,1-11.17,3c.57.93,1.12,1.87,1.64,2.83,4.95-.08,12-1.62,14.66-6.3,2.59-4.52-.93-11.71-4.6-14.78-2.37-2-5.85-3.57-9-2.71-2.91.8-5.64,3.5-4.52,6.79a11.47,11.47,0,0,0,13,7.55.57.57,0,0,1,.18,0,6.52,6.52,0,0,0,.22-2.35A12,12,0,0,1,147.6,42.69Z"/><path class="cls-3" d="M173.09,20.55a11.76,11.76,0,0,0-1.24-5.68c-.88-1.65-1.86-2.08-3.32-1.72,4.23,3.57,3.59,10.56-.79,13.9l-.07,0a11.83,11.83,0,0,1,1,1.87C171.08,26.77,173.06,24,173.09,20.55Z"/><path class="cls-3" d="M25.28,97.28c3.3,1.38,7.42,1.48,10.39-.8s6.42-9.33-.51-8.38c-3.6.5-7.18,1.72-9.09,5.06l0,0a5.68,5.68,0,0,0,1.75,1.18c1.84-2.59,5.1-4.87,8.41-4.43s.39,4.21-.86,5c-5.54,3.58-13.84-.49-12.14-7.37A21,21,0,0,1,21.08,87C21.16,90.78,21.15,95.55,25.28,97.28Z"/><path class="cls-3" d="M28.41,77.33c1.55-.79,4.3-2.26,6-.79,3.57,3.16-1.45,6.85-4.58,7.32-3.95.58-9.35-1.1-10.09-5.64a9.83,9.83,0,0,1,3.73-9.43c-1-.09-1.9-.19-2.85-.32C18.06,72,15.48,77.76,17.38,82.1s8.74,5.46,12.83,4.48c2.64-.64,5.58-2.26,6.61-4.94,1-2.47.48-5.81-2.43-6.74a10.07,10.07,0,0,0-12.12,5.24l-.09.14a5.42,5.42,0,0,0,1.55,1.37A10.54,10.54,0,0,1,28.41,77.33Z"/><path class="cls-3" d="M30.72,106.89A10.4,10.4,0,0,0,35.37,109c1.63.24,2.45-.23,3-1.44-4.73,1.11-9.32-3-9.39-7.83,0,0,0,0,0-.06a10.55,10.55,0,0,1-1.83-.29C27.38,102.22,28.31,105.07,30.72,106.89Z"/><path class="cls-5" d="M239.65,125a13.4,13.4,0,0,1-5.73,6.63c-1.59.87-5.08,2.68-6.74,1-4.68-4.8,4.47-9.66,8.29-10,5.38-.46,11.49,5.07,11.34,10.45-.08,2.92-.52,6.51-3.18,8.31a7.61,7.61,0,0,1-5.71,1.32c.36.73.68,1.48,1,2.24,2.83-.64,6.14-2.12,7.88-4.5,2-2.73,1.74-6,.86-9.15-1.6-5.72-6.19-12.28-13-10.82-3.26.69-7.17,1.76-9.27,4.58s-3.43,8.08,1.06,9.67c3.55,1.26,6.94-.35,9.68-2.62,2.06-1.71,4.35-3.51,5.49-6a10.1,10.1,0,0,0-1.87-1.17A.19.19,0,0,1,239.65,125Z"/><path class="cls-5" d="M230.9,106.87c-.07,5.41-7,8.58-11.68,9.14-1.37.17-3.26-1-3.09-2.58.25-2.18,2.13-4.08,3.86-5.29,4-2.78,10-4.34,14.55-1.72a12,12,0,0,1,5,6.33c.86,2.22,1.79,4.57,1.1,6.92a10,10,0,0,1,1.6.87l.62.44a24.15,24.15,0,0,0-1.44-8.93c-1-2.89-1.92-5.59-4.37-7.58-2.65-2.16-5-2.54-8.29-2a20.69,20.69,0,0,0-8,2.63c-2.3,1.43-6.23,4.2-6.19,7.26.06,4.07,4.39,5.26,7.77,4.76,5.38-.81,9.28-4.45,12-8.93A9.59,9.59,0,0,0,230.9,106.87Z"/><path class="cls-5" d="M230.94,96.56a15.74,15.74,0,0,0-4.8-4.13c-1.81-1-4.36-2.38-6.51-1.73-1.17.36-1.91,2-2.48,3.49,5.09-1.66,11.72.7,12.14,6.65a14.11,14.11,0,0,1,3.84,0C232.26,99.51,232,97.85,230.94,96.56Z"/><path class="cls-2" d="M27.57,137.32c-1.4-5,4.14-9.82,8.28-11.6,1.23-.53,3.29,0,3.56,1.54.36,2.08-.86,4.34-2.13,5.93-2.92,3.65-8.08,6.73-13,5.54a11.55,11.55,0,0,1-6.29-4.5c-1.39-1.81-2.88-3.73-2.89-6.08a9,9,0,0,1-1.71-.37c-.24-.07-.47-.15-.7-.24a23.15,23.15,0,0,0,3.76,7.85c1.67,2.4,3.29,4.63,6.09,5.81,3,1.27,5.27,1,8.2-.39a19.77,19.77,0,0,0,6.62-4.58c1.73-1.94,4.61-5.56,3.73-8.38-1.16-3.74-5.47-3.66-8.45-2.28-4.74,2.21-7.36,6.62-8.67,11.51A9,9,0,0,0,27.57,137.32Z"/><path class="cls-2" d="M30.34,146.84a15.15,15.15,0,0,0,5.54,2.52c1.95.43,4.67,1,6.48-.19,1-.64,1.2-2.4,1.33-3.89-4.24,2.92-11,2.55-13-2.83a13.38,13.38,0,0,1-3.54,1.05C28.31,144.48,29.05,145.93,30.34,146.84Z"/><path class="cls-2" d="M185.18,59.56c3.14-2.84,8.67-.54,11.47,1.84.83.7,1.15,2.42.16,3.15-1.38,1-3.48,1-5.09.6-3.73-.81-7.85-3.45-8.74-7.44a9.43,9.43,0,0,1,1-6.22c.82-1.67,1.68-3.46,3.39-4.31A8.71,8.71,0,0,1,187,45.8c0-.2-.06-.4-.08-.6a19,19,0,0,0-4.36,5.58c-1.15,2.1-2.19,4.08-2,6.55a7.31,7.31,0,0,0,3.25,5.85,16.16,16.16,0,0,0,5.74,3.16c2.05.56,5.73,1.35,7.47-.31,2.31-2.2.69-5.32-1.4-7-3.33-2.66-7.5-3-11.54-2.16A7.34,7.34,0,0,0,185.18,59.56Z"/><path class="cls-2" d="M179.24,65a12.37,12.37,0,0,0,.17,5c.39,1.57,1,3.77,2.48,4.66.83.48,2.19,0,3.32-.44-3.66-2-5.84-7.1-2.64-10.51a11.17,11.17,0,0,1-2-2.2C180.23,62.7,179.44,63.76,179.24,65Z"/></g></g></svg>