<svg xmlns="http://www.w3.org/2000/svg" viewBox="0 0 270 270"><defs><style>.cls-1{fill:#fff;}.cls-2{fill:#a78126;}.cls-3{fill:#a01a22;}</style></defs><g id="Capa_2" data-name="Capa 2"><g id="Home"><rect class="cls-1" width="270" height="270" rx="9.75"/><path class="cls-2" d="M213.92,18.38c.29-.26.6.08.87.2a5.83,5.83,0,0,0,1.36.37l.64.17c.13,0,.28,0,.4.1s.08.14.29.17l.3.05.57.06a6.18,6.18,0,0,0,1,.18c.46,0,.92.06,1.37.09a7.41,7.41,0,0,1,1.2.34,8.57,8.57,0,0,0,1.52.11.48.48,0,0,1,.54.38,1.71,1.71,0,0,1-.19,1.51c-.23.26-.78.28-1.09.42a1.66,1.66,0,0,0-.57.4,6.49,6.49,0,0,0-.45,1l-.11.45,0,.77a19.48,19.48,0,0,1-.11,2.52v-.11c0,.72-.12,1.43-.12,2.15l0,1.09c0,.07,0,.57.06.63a18.54,18.54,0,0,1,.08,4.34c-.12,1.54-.22,3.11-.45,4.64a20.42,20.42,0,0,0,0,3.75c0,.69.08,1.38.06,2.08,0,.48-.09.94-.14,1.42-.12,1.23.06,2.51,0,3.75a12.32,12.32,0,0,1-.19,2,11.05,11.05,0,0,0-.27,1.37c0,.41-.12.82-.12,1.23,0,.25.16.43.22.68s.09.49.12.74a2.34,2.34,0,0,0,1.87,1.61,1.8,1.8,0,0,0,.52,0c.16,0,.17-.08.32-.11a.4.4,0,0,1,.42.19,1.92,1.92,0,0,1,.16,1c0,.32-.13.82-.46.93a1.39,1.39,0,0,1-.7.06h-.87a13.31,13.31,0,0,0-1.55.12l-.76.12c-.23,0-.46.06-.69.06a2.57,2.57,0,0,1-1.32,0c-.14-.12-.06-.18-.28-.18h-.29l-.37.06a10.92,10.92,0,0,1-1.37.24c-.36.11-.58.35-1,.41a1.93,1.93,0,0,1-.59-.18c-.11-.06-.22-.18-.31-.23h-.3a6.09,6.09,0,0,1-1.4.17,1,1,0,0,0-.59.12c-.15.06-.4.18-.56.06a.85.85,0,0,0-.55-.12.42.42,0,0,1-.35.18c-.59-.18-.48-1.19-.32-1.61a.81.81,0,0,1,.77-.59l1.13-.07c.67-.49,1.54-.64,2.12-1.26a2.3,2.3,0,0,0,.43-1.54l.13-1.87c.07-1.36.06-2.72,0-4.08a10.72,10.72,0,0,1,0-2,11.55,11.55,0,0,0,.21-1.55V45.52c0-.5.1-1,.12-1.49,0-1.19,0-2.38,0-3.57a9.81,9.81,0,0,1,.1-2,15,15,0,0,0,.27-1.61l.11-2c0-.56.12-1.1.19-1.66s0-1.25.11-1.88.13-1.16.21-1.74v.1a6.39,6.39,0,0,0,.11-.85,14.1,14.1,0,0,1,.21-2.05c0-.54.14-1.09.14-1.6V23c-.76.5-1.56.94-2.33,1.44a9.62,9.62,0,0,0-1.41,1.06,8.44,8.44,0,0,1-1.25,1.06,21.63,21.63,0,0,0-2.39,1.87c-.46.41-.91.85-1.39,1.23a3.67,3.67,0,0,1-1.24.78c-.46.12-1.4.06-1.63-.45a1.07,1.07,0,0,1-.37-.57.85.85,0,0,1,.13-.56,1.18,1.18,0,0,1,.66-.43l.29-.1a1.2,1.2,0,0,1,.24-.26c.17-.13.37-.17.52-.31l.6-.5c.76-.65,1.52-1.31,2.3-1.94A16.78,16.78,0,0,0,210,24.22,11.87,11.87,0,0,1,211.39,23c.51-.38,1.05-.72,1.59-1.05a2.78,2.78,0,0,0,1.09-.92.75.75,0,0,0-.1-.59,1.72,1.72,0,0,1-.41-1.16,1.36,1.36,0,0,1,.37-.94Z"/><path class="cls-2" d="M243.17,19.47a1.66,1.66,0,0,1,.81.39c.4.21.89.25,1.31.44a1.64,1.64,0,0,0,.66.11,1.17,1.17,0,0,1,.49.19,1.24,1.24,0,0,1,.51.77,1.14,1.14,0,0,1,0,.52c0,.12-.12.24-.11.37a19.54,19.54,0,0,1-.08,2.54c-.06,1,0,2,0,3.05a35.89,35.89,0,0,1-.05,5.68l0,.23v.74c0,.51-.13,1-.19,1.52-.12,1.15-.07,2.34-.1,3.5l-.08,4v2.36c0,.2-.09.31.16.31h.92c.68,0,1.36,0,2-.09a8.34,8.34,0,0,1,1.41-.16,2.34,2.34,0,0,1,1.27.33,1.67,1.67,0,0,1,.38,1.4c0,.48-.24.68-.74.72h-.81a6.65,6.65,0,0,0-.88.07,29,29,0,0,1-3.73.16c0,.7.07,1.38.13,2.07s0,1.54.08,2.3a22.32,22.32,0,0,1,.05,2.31,9.15,9.15,0,0,1,0,1.17l-.09.56a1.78,1.78,0,0,0,.08.89,2,2,0,0,0,.65.69,1.7,1.7,0,0,0,1,.21c.41,0,.82.11,1.23.17s.76,0,1,.16a.91.91,0,0,1,.25.61,1.59,1.59,0,0,1-.25,1.17c-.18.24-.42.18-.67.18a6.22,6.22,0,0,0-1.05-.06c-.72,0-1.35-.24-2.06-.18l-.48.06a.91.91,0,0,1-.37.24,1.25,1.25,0,0,1-1,0,4.12,4.12,0,0,0-.86,0c-.09,0-.32-.06-.4,0h.11a4.43,4.43,0,0,1-.89.12l-.47-.06a.83.83,0,0,1-.37.11,1.64,1.64,0,0,1-.73,0,1.45,1.45,0,0,0-.72-.06c-1.15,0-2.27,0-3.41.11-.35,0-.93.24-1.14-.17a1.65,1.65,0,0,1-.14-.85,1.34,1.34,0,0,1,.32-.86c.17-.16.4-.12.62-.14s.54,0,.64-.06.35-.17.58-.2a3.65,3.65,0,0,0,.64-.28,4.54,4.54,0,0,0,1.35-.78c.19-.17.11-.54.12-.78l0-.76c0-.56.06-1.12.06-1.69,0-1.13-.09-2.28,0-3.41,0-.41.12-.81.12-1.22a13.3,13.3,0,0,1,.06-1.54,21.21,21.21,0,0,1-2.39-.08L236,48.27c-1.49-.17-3,.21-4.45.14l-3-.2a2,2,0,0,1-.85-.13c-1.19-.59-.5-1.88-.13-2.68a11,11,0,0,1,.43-1.3,3,3,0,0,1,.51-.67s.19-.25.13-.15l.1-.15c.38-.64.7-1.3,1.07-1.94.26-.46.69-1,.94-1.35l2-2.79a6.42,6.42,0,0,1,.86-1.86c.31-.45.72-.83,1-1.29.9-1.33,1.75-2.71,2.55-4.1a44.61,44.61,0,0,0,2.16-4.25,19.74,19.74,0,0,1,1.85-3.88c-.22.25,0-.08,0-.15l.1-.26a3.39,3.39,0,0,0,.2-.53,1.33,1.33,0,0,1,.61-.87,1.62,1.62,0,0,1,1-.39Zm-2.06,8a47.72,47.72,0,0,1-2.57,4.78L237,34.67c-.24.37-.49.75-.77,1.1a7.26,7.26,0,0,0-.63.74,22.07,22.07,0,0,1-1,2.14c-.44.62-.93,1.18-1.35,1.81s-.93,1.23-1.32,1.9l-1.72,2.8c-.15.15-.17.53-.24.73l0-.07s0,.07,0,.07c.53,0,1.05.06,1.57.12h-.09a18.62,18.62,0,0,0,2-.07,10.52,10.52,0,0,1,2.38-.09l1.1.09c.39,0,.76.14,1.15.2a19.35,19.35,0,0,0,2.41.06c0-1.63.14-3.24.21-4.87s.12-3.24.26-4.86c.12-1.31.25-2.64.26-4,0-1.67-.06-3.34-.08-5Z"/><path class="cls-3" d="M165.06,116.33c-9.42-11.87-26.85-17.41-40.2-11.37a2.49,2.49,0,0,0-2.13.14c-15.73,7.67-17.45,33.13-9,46.59,7.72,12.26,30.56,19.68,42.54,9.36C170.24,149,177.34,131.82,165.06,116.33Zm-12.25,36.42c-9.19,9.75-27,2.32-33-7.17-5.25-8.22-3.71-19.38.67-28.15a3.5,3.5,0,0,0,1.4-.73c10.71-9.07,22.71-6.08,33.18,1.73C168.59,128.53,162.33,142.64,152.81,152.75Z"/><path class="cls-3" d="M176.86,128.4c8.18-6.1,17.11-16.3,10.77-25.18-8-11.23-20.21-8-29.59-1.13-.43-12.93-5.29-28.66-18.85-29.47C126,71.82,118.83,83.33,117,95.16c-9-6.56-20.42-9.89-27.89,1.12-6.38,9.39-.19,20,8.33,26.25-9.33,3-18.84,9.05-17.83,18.74,1.24,11.93,11.89,13.21,22.09,11.79-4.41,7.85-5.68,17.74.59,24.79,9.5,10.7,20.24,5.75,28.48-2.49,2.16,10.83,8.94,19.91,22.11,17.71,12.18-2,14.22-14.63,13-25.53,8.63,3.62,18.16,1.54,25-7.19C200.83,147.69,188.11,135.38,176.86,128.4Zm-14.2,26.69c-2.63-2.88-8.77-.66-7.35,3.62a49,49,0,0,1,2.91,14.19q-.56,15.94-18.37,6A28.26,28.26,0,0,1,138.28,165a4.13,4.13,0,0,0-4.33-4.31c-3.7.1-6.8,6.52-9.34,8.8-3.34,3-9,6.79-13.88,4.95a7.13,7.13,0,0,1-2.7-1.91c-6.48-7.07,1-18.59,7.23-23,3.29-2.34.36-8.05-3.44-7-6,1.87-14.6,5.46-20.87,3.86a6.69,6.69,0,0,1-2.9-1.39c-1.9-1.71-1.88-4.82-.66-7.06,4.12-7.56,15.09-9.57,22.79-10.2,4.7-.39,3.48-7.05-.54-7.68-7.82-1.84-19.11-10.53-13.41-19.78a7,7,0,0,1,1.74-2c5.85-4.41,14.88,2.06,18.61,6.25a34.12,34.12,0,0,0,.51,3.78c.62,3,3.63,3.65,5.77,2.65a4,4,0,0,0,3.92-6.33c-.8-1.06-1.75-2.15-2.76-3.24a23.91,23.91,0,0,1,.8-8.29Q128,78.41,146.31,86.9c4.46,7.26,4.51,16.37,3.14,24.45-.55,3.29,4.37,5.79,6.64,3.28,3.1-3.44,6.5-7.23,10.9-8.89a15.28,15.28,0,0,1,5.48-1.32,7.81,7.81,0,0,1,7.37,6.58c.8,6.3-8.18,11.77-13.05,13.88-3.51,1.82-2.75,6.28.5,7.79,6.85,3.17,12.91,6.69,17.09,13.27.2,2.46.39,4.93.59,7.4Q172.37,167.19,162.66,155.09Z"/><path class="cls-3" d="M139.87,132c1.78-7.68,5-15.31,6-23.12a1.37,1.37,0,0,0-2.49-.84c-4.36,7.4-6,16.87-8,25.15-2.06,8.55-4,17.44-4.64,26.22-.2,2.71,3.62,2.76,4.1.24C136.54,150.46,137.75,141.2,139.87,132Z"/><path class="cls-3" d="M167.33,139.06c-16.87-6.49-36.18-6.53-52.5-14.61-2-1-3.81,2.56-1.79,3.58,7.6,3.86,15.86,5.58,24.08,7.6,9.69,2.38,19.62,5.75,29.53,6.88C168.71,142.75,169.14,139.76,167.33,139.06Z"/><path class="cls-3" d="M162.39,116.53c-7.73,3.85-14.72,9.64-21.85,14.51-7.61,5.19-17,9-24,14.8a1,1,0,0,0,.83,1.68c8.4-.89,16.53-7.27,23.4-11.82,7.8-5.16,16.51-10.12,23.43-16.42A1.67,1.67,0,0,0,162.39,116.53Z"/><path class="cls-3" d="M154.48,153.79c-3.32-3.41-5.78-8.14-8.48-12.07-6.53-9.53-15.4-19.44-19.65-30.19-.76-1.93-4-.82-3.44,1.17,2.29,7.55,7.82,14,12.17,20.52,5,7.53,9.68,17,16,23.5a2.27,2.27,0,0,0,3.81-.75A2.1,2.1,0,0,0,154.48,153.79Z"/><path class="cls-3" d="M179.72,63.75c-9.81,14.12-19.21,28.91-27.89,43.76-1.19,2,2.17,4.21,3.51,2.25,9.72-14.18,19.09-29,27.68-43.89C184.12,63.94,181,61.92,179.72,63.75Z"/><path class="cls-3" d="M198.73,65.56c-4.57-1-9.57-.45-14.23-.45-4.19,0-4.06-12-4.51-14.94-.37-2.39-4-2.1-3.76.35.38,4.67-.32,13.89,3.7,17.32,1.49,1.27,3.1,1.43,5,1.5,4.42.16,9.38.59,13.7-.35A1.74,1.74,0,0,0,198.73,65.56Z"/><path class="cls-3" d="M187.44,82c-3.56-.43-14.44,3.15-15.62-2.11-1.28-5.73-2.1-11.56-3.84-17.19-.59-1.91-3.52-1.18-3.35.75a126,126,0,0,0,2.06,12.64c.57,3,.85,6,2.44,8.62,3,4.92,14.54,2.28,18.62.76C189.39,84.86,189.28,82.22,187.44,82Z"/><path class="cls-3" d="M207.3,124c-4.62,0-9.29.81-14,.86a120.86,120.86,0,0,0-15.55,1.36c-2.33.34-1.56,3.76.72,3.54a170.53,170.53,0,0,1,18.36-.81c3.79,0,8.49.59,11.36-2.31C209,125.76,208.73,124,207.3,124Z"/><path class="cls-3" d="M221.33,134.51A86.58,86.58,0,0,1,210,125.62c2.43-5.35,7.48-8.79,10.47-13.83,1-1.6-1.18-3.82-2.58-2.29-4.56,5-10.15,9.43-12.51,16a2.13,2.13,0,0,0,.41,2.11,92.52,92.52,0,0,0,13.1,10.59C221.22,139.76,223.71,136.08,221.33,134.51Z"/><path class="cls-3" d="M207.29,139.23c-3.82-4.19-8.7-7.61-13.25-11.1,4-4.63,9.2-9.77,11.16-15.21a1.81,1.81,0,0,0-2.06-2.35,1.27,1.27,0,0,0-1.1,1.06c.13-1.2-.07-.24-.67.68a49.3,49.3,0,0,1-3.79,4.41c-2.89,3.47-5.72,7-8.56,10.51a2.25,2.25,0,0,0,.59,3.09c4.87,4,9.65,8.69,15.08,11.84C206.55,143.24,208.87,141,207.29,139.23Z"/><path class="cls-3" d="M186.19,210.27a105.69,105.69,0,0,1,.61-14.12c.36-3.23.93-5.3-1.33-7.88-6.7-7.65-13.29-15.47-20.55-22.6a1.58,1.58,0,0,0-2.39,2.07c4.56,6.13,9.62,11.86,14.59,17.66l3.34,3.84c3,3.47,2.07,5.23,1.63,9a78.44,78.44,0,0,0-.34,11.77C181.85,212.83,186.25,213.15,186.19,210.27Z"/><path class="cls-3" d="M205,192.61c-6.52-1.2-13.33-2.91-20-3.1a1.75,1.75,0,0,0-.66,3.39c6.45,2.2,13.65,3,20.35,4.19C207.6,197.6,207.83,193.13,205,192.61Z"/><path class="cls-3" d="M196,179.61c-6.58-.33-14.12.66-20.28-2a2.21,2.21,0,0,0-2.91,2c-.25,5.77-1.78,10.89-3.65,16.3-.71,2.06,2.4,3.73,3.5,1.74A37.9,37.9,0,0,0,177,182.72c5.93,1.73,12.73,1.23,18.74,1.32C198.62,184.09,198.92,179.75,196,179.61Z"/><path class="cls-3" d="M126.33,205.71c1.69-10.93,3.88-21.59,6.3-32.38a1.85,1.85,0,0,0-2.53-2.21,1.29,1.29,0,0,0-1.54.87,2.12,2.12,0,0,0,0,1.82,145.67,145.67,0,0,0-5.35,22.11c-.87,5-.65,9.24-4.67,12.87-3.32,3-6.66,5.94-9.9,9-2.09,2,.74,5.27,2.92,3.38,3.38-2.91,6.66-5.94,10-8.94C123.58,210.36,125.88,208.63,126.33,205.71Z"/><path class="cls-3" d="M138.19,221.4c-2.2-2.36-4.45-4.67-6.6-7.07s-4.28-5.3-6.91-7.34c-1.3-1-2.87.63-2.28,2,2.52,5.69,8.08,11,12.45,15.34C136.85,226.29,140.16,223.5,138.19,221.4Z"/><path class="cls-3" d="M141.39,203.44a28.59,28.59,0,0,1-9.2-7.85c-1.53-2-2.26-4.09-4.8-5-2.07-.7-4.47.68-6.21,1.51-1.18.56-8.53,6.25-9.4,6a2,2,0,0,0-1.29,3.76c1.2.51,2.1.94,3.23.11a67.14,67.14,0,0,1,11.19-6.71c1.93-.91,5.38,5.09,6.21,6a28.13,28.13,0,0,0,7.75,5.81C141.39,208.52,143.93,204.83,141.39,203.44Z"/><path class="cls-3" d="M102.13,150.72c-3.86,2.35-7.61,4.76-11.65,6.81-4.5,2.29-10.66,2.64-14.74,5.28-6.5,4.2-8.33,15-11.06,21.88-1,2.42,2.65,4.16,4,2a3.7,3.7,0,0,0,.72-1.65q2.26-5.62,4.5-11.27c1.15-2.92,1.64-6.35,5.24-7.44,1.62-.5,3.26-.91,4.86-1.48,7.23-2.56,14.32-6,20-11.19C105.55,152.36,103.92,149.63,102.13,150.72Z"/><path class="cls-3" d="M75,162.89c-6.37-3.06-13.2-5.39-19.66-8.35-2.32-1.06-4.22,2.77-2,4,6.34,3.56,13.69,7,20.89,8.3C76.73,167.3,76.92,163.8,75,162.89Z"/><path class="cls-3" d="M86.57,179.49a75.11,75.11,0,0,1,2.26-15.56,2.22,2.22,0,0,0-1.37-2.79A46.17,46.17,0,0,1,76.51,156c-3-1.89-5.34-4.48-8.85-5.25a1.7,1.7,0,0,0-1.1,3.21c3.35,1.62,6,4.53,9.07,6.56a41.71,41.71,0,0,0,8.51,4.1A73.87,73.87,0,0,0,82,179.22C81.83,182.19,86.45,182.48,86.57,179.49Z"/><path class="cls-3" d="M100.63,119.84c-10.2-3-20.38-5.33-30.31-9.25-2.49-1-5.54-2.69-8.22-1.11-1.25.73-12,6.79-10.44,8.37a2.12,2.12,0,0,0-3.29.2l-.21.27c-1.33,1.7.5,4,2.42,3.64,2.4-.44,4.23-2.16,6.24-3.48,2.3-1.52,6.69-5.23,9.53-4.43,2.48.7,5,2,7.39,2.9,8.35,3.11,17.25,5.82,26.14,6.72C102.09,123.89,102.76,120.47,100.63,119.84Z"/><path class="cls-3" d="M65.75,110v-.3a1.26,1.26,0,0,0-.56-1.13c-.7-.36-1.7-3-2.15-3.77-.82-1.36-1.7-2.68-2.58-4-1.54-2.31-3.42-6-6.25-6.75A1.72,1.72,0,0,0,52,96c.21,2.83,3.38,5.55,5,7.81,1.74,2.44,3,5.74,5.32,7.71a2,2,0,0,0,2.07.14l.39-.2A1.75,1.75,0,0,0,65.75,110Z"/><path class="cls-3" d="M79.9,112.75c-4.82-5.49-7.09-11.64-10.74-17.73a1.9,1.9,0,0,0-3.55,1.21c.65,6.52,5,12.85,9.36,17.83a114,114,0,0,0-13.76,14.28c-1.27,1.57,1.29,3.86,2.66,2.36A131.24,131.24,0,0,1,79.67,116,2.29,2.29,0,0,0,79.9,112.75Z"/><path class="cls-3" d="M119.37,97.91c-.68-9.18-7.65-16.82-12-24.56-2.07-3.69-2.64-6.79-6.42-9a85.67,85.67,0,0,0-15.41-6.86c-2.17-.74-3.87,2.46-1.83,3.68A109.52,109.52,0,0,0,94,66.21c6.34,2.92,8.08,7.37,11.36,12.81,4,6.67,7.77,12.77,10.6,20.07C116.75,101.21,119.51,99.8,119.37,97.91Z"/><path class="cls-3" d="M111.84,46.27a1.61,1.61,0,0,0-2.88-.58c-2.45,3.2-3.59,7.84-5.46,11.47-1.64,3.17-3.49,6.47-3.34,10.11.06,1.47,2.16,2.63,3,1,2-3.71,3.54-7.72,5.54-11.48C110.46,53.6,112.71,50,111.84,46.27Z"/><path class="cls-3" d="M116.08,64.72c-1.63,4.43-2.83,10.36-5.25,14.6-3.35-.63-7.06-2.62-10.11-3.68C97,74.35,93.29,73,89.5,71.92a2,2,0,0,0-1.28,3.76c4.24,1.79,8.59,3.28,12.92,4.83,3.37,1.22,7.13,3.22,10.72,3.48,2.1.15,2.8-2.42,3.35-3.91l5.14-13.9C121.36,63.45,117.08,62,116.08,64.72Z"/></g></g></svg>