<svg xmlns="http://www.w3.org/2000/svg" viewBox="0 0 270 270"><defs><style>.cls-1{fill:#fff;}.cls-2{fill:#a78126;}.cls-3{fill:#002d26;}.cls-4{fill:#d7b88b;}.cls-5{fill:#a01a22;}</style></defs><g id="Capa_2" data-name="Capa 2"><g id="Home"><rect class="cls-1" width="270" height="270" rx="9.75"/><path class="cls-2" d="M214.31,18.78c.29-.26.6.08.87.2a5.83,5.83,0,0,0,1.36.37l.64.17c.13,0,.28,0,.4.1s.08.14.29.17l.3.05.57.06a6.18,6.18,0,0,0,1,.18c.46,0,.92.07,1.37.09a8.59,8.59,0,0,1,1.2.34,8.57,8.57,0,0,0,1.52.11.48.48,0,0,1,.54.38,1.71,1.71,0,0,1-.19,1.51c-.23.26-.78.28-1.09.43a1.52,1.52,0,0,0-.57.39,6.49,6.49,0,0,0-.45,1l-.11.45,0,.77a19.64,19.64,0,0,1-.11,2.53V28c0,.72-.12,1.43-.12,2.15l0,1.09c0,.07,0,.57.06.63a18.54,18.54,0,0,1,.08,4.34c-.12,1.54-.22,3.11-.45,4.65a20.3,20.3,0,0,0,0,3.74c0,.69.08,1.38.06,2.08,0,.48-.09.94-.14,1.42-.12,1.23.06,2.51,0,3.75a12.22,12.22,0,0,1-.19,2A11.05,11.05,0,0,0,221,55.2c0,.41-.12.82-.12,1.23,0,.25.16.43.22.68s.09.49.12.74a2.34,2.34,0,0,0,1.87,1.61,1.8,1.8,0,0,0,.52,0c.16,0,.17-.07.32-.11a.4.4,0,0,1,.42.19,1.92,1.92,0,0,1,.16,1c0,.32-.13.82-.46.93a1.39,1.39,0,0,1-.7.07h-.87a13.3,13.3,0,0,0-1.55.11l-.76.12c-.23,0-.46.06-.69.06a2.46,2.46,0,0,1-1.32,0c-.14-.12-.06-.18-.28-.18h-.29l-.37.06a10.92,10.92,0,0,1-1.37.24c-.36.11-.58.35-1,.41a1.93,1.93,0,0,1-.59-.18c-.11-.06-.22-.17-.31-.23h-.3a6.09,6.09,0,0,1-1.4.17,1,1,0,0,0-.59.12c-.15.06-.4.18-.56.06a.85.85,0,0,0-.55-.12.42.42,0,0,1-.35.18c-.59-.18-.48-1.19-.32-1.61a.79.79,0,0,1,.77-.58l1.13-.08c.67-.49,1.54-.64,2.12-1.26a2.3,2.3,0,0,0,.43-1.54l.13-1.87c.07-1.36.06-2.72,0-4.08a10.72,10.72,0,0,1,0-2,11.33,11.33,0,0,0,.21-1.55V45.93c0-.51.1-1,.12-1.5,0-1.19,0-2.37,0-3.57a9.81,9.81,0,0,1,.1-2,15,15,0,0,0,.27-1.61l.11-2c0-.57.12-1.11.19-1.67s.05-1.25.11-1.88.13-1.16.21-1.74v.1a6.39,6.39,0,0,0,.11-.85,14.1,14.1,0,0,1,.21-2c0-.54.14-1.09.14-1.6v-2.2c-.76.5-1.56.94-2.33,1.44a9.62,9.62,0,0,0-1.41,1.06,8.44,8.44,0,0,1-1.25,1.06,21.63,21.63,0,0,0-2.39,1.87c-.46.41-.91.85-1.39,1.23a3.67,3.67,0,0,1-1.24.78c-.46.12-1.4.06-1.63-.45a1,1,0,0,1-.37-.57.86.86,0,0,1,.13-.56,1.18,1.18,0,0,1,.66-.43l.29-.1a1.2,1.2,0,0,1,.24-.26c.17-.13.37-.17.52-.31l.6-.5c.76-.65,1.52-1.31,2.3-1.94a16.78,16.78,0,0,0,1.44-1.07,11.87,11.87,0,0,1,1.36-1.18c.51-.38,1.05-.72,1.59-1.05a2.78,2.78,0,0,0,1.09-.92.75.75,0,0,0-.1-.59,1.7,1.7,0,0,1-.41-1.16,1.38,1.38,0,0,1,.37-.94Z"/><path class="cls-2" d="M243.21,18.78a4.55,4.55,0,0,0,.72.3l.72.15A8.55,8.55,0,0,1,250,22.56a13.9,13.9,0,0,1,2.28,6.35c.19,1.16.51,2.27.8,3.41a27.51,27.51,0,0,1,.55,3.37c.22,1.91,0,3.81.07,5.73s-.17,3.78-.23,5.67c0,.95-.05,1.91-.12,2.85s-.25,1.86-.41,2.79c-.31,1.77-.42,3.57-1.43,5.12a8,8,0,0,1-2.43,2.44,7.81,7.81,0,0,1-1.67.87c-.47.16-1,.1-1.41.28a15,15,0,0,1-3.56.94,10.32,10.32,0,0,1-1.92-.12c-.5-.06-1,.06-1.46,0-2.37-.06-4.66-1.71-6.14-3.47a14.26,14.26,0,0,1-1.94-3,10.27,10.27,0,0,1-.64-2.87,34.51,34.51,0,0,1-.82-4.61c0-.81.08-1.61.06-2.42s-.13-1.47-.15-2.21c.06.24,0-.09,0-.12l-.06-.4-.12-1c0-.62,0-1.24,0-1.86a25.66,25.66,0,0,1,.28-3.72,35.19,35.19,0,0,0,.1-3.56,13.66,13.66,0,0,1,.63-3.59c.39-1.23.89-2.42,1.36-3.62a8.74,8.74,0,0,1,1.59-2.82,14.78,14.78,0,0,1,2.5-2.24,5.11,5.11,0,0,1,1.39-.72c.29-.1.59-.16.88-.24a2.29,2.29,0,0,1,.37-.12l-.08.05a9.26,9.26,0,0,1,3.28-1A3.49,3.49,0,0,1,243.21,18.78Zm-.85,2.73c-.22.15-.45.26-.66.41l-.13.1a8.75,8.75,0,0,0-2.25,3.15c-.31.66-.65,1.3-1,1.94l-.51.94-.13.29a16.5,16.5,0,0,0-.31,2.11c-.11.78-.36,1.54-.52,2.31a16.78,16.78,0,0,0-.38,2.34c-.07.87,0,1.73-.1,2.6-.1,1.3-.08,2.6-.17,3.9s-.11,2.65-.09,4a7.51,7.51,0,0,0,.16,1.71,10,10,0,0,1,.21,1.81,24.09,24.09,0,0,0,.2,3.5,34.39,34.39,0,0,0,1,3.56,9.91,9.91,0,0,0,1.56,3l.33.4c.2.25.2.27.52.29s.78,0,1.16-.08a6,6,0,0,0,2.42-1.44A12.28,12.28,0,0,0,245,57.2a3.6,3.6,0,0,0,.65-1.24c.42-1.23.69-2.51,1-3.77a14.93,14.93,0,0,0,.49-3.18c0-1.32,0-2.64.13-4a38.17,38.17,0,0,0,.25-4c0-1.34-.24-2.69-.39-4s-.26-2.69-.3-4c0-1.2-.21-2.35-.36-3.53v.08c-.24-.86-.45-1.7-.77-2.55s-.75-1.76-1.14-2.64A7.37,7.37,0,0,0,243.44,22a3.45,3.45,0,0,0-.53-.39l-.38-.23Z"/><path class="cls-3" d="M103.39,89.56a97.35,97.35,0,0,0,12.92,14.27,12,12,0,0,1,1.68-.92A121.63,121.63,0,0,1,104.46,87.7,100.66,100.66,0,0,1,90.32,61.62Q89,57.83,87.9,53.87a61.15,61.15,0,0,1-1.83-10.21A38.17,38.17,0,0,1,88.72,25C91,19.83,95.92,16.71,101,14.84c3.42-1.25,6.26-.23,8.66,2.4a16,16,0,0,1,2.53,3.58c1.58,3.16-3.14,6.32-3.78,2.3a1,1,0,0,0-2,.26c.58,3.49,6.15,5.4,7.58,1.35,1.7-4.84-3.23-10.55-7.64-12-5-1.69-11.68,2.69-15.23,5.79-4.57,4-6.17,10.6-6.82,16.39A49.69,49.69,0,0,0,70.37,13a.81.81,0,0,0-1.23.35c-2.47,5,0,10.78,2.08,15.47A53,53,0,0,0,83.7,46a.67.67,0,0,0,.78.16A62.88,62.88,0,0,0,86.25,55,53.21,53.21,0,0,0,67.82,36.93a.85.85,0,0,0-1.28,1c3.8,10.91,11.62,21.18,22.15,26.37a.68.68,0,0,0,.68,0c1.11,2.8,2.34,5.53,3.63,8.16-1.41-1.5-2.88-2.81-3.33-3.24A60.6,60.6,0,0,0,74.28,58.36c-.84-.42-1.53.72-1,1.4A64.15,64.15,0,0,0,95.87,79.19a.73.73,0,0,0,.73,0c.81,1.43,1.68,2.84,2.57,4.24A61.82,61.82,0,0,0,91.11,78c-4.61-2.78-9.34-5.74-14.69-6.8a.91.91,0,0,0-1,1.26A28.87,28.87,0,0,0,86.83,84.2c4.89,2.79,10.83,4.11,16.28,5.35A.54.54,0,0,0,103.39,89.56Z"/><path class="cls-3" d="M140.42,71.84c-2-1.84-4.06-3.63-6.09-5.45A41.65,41.65,0,0,0,139.25,83c.41.77-.58,1.68-1.33,1.29L135,82.73c3.08,4.79,4.69,10.62,8.24,15a111.54,111.54,0,0,1,.58-21.15c.92-7.5,1.82-15.53,4.95-22.49a.84.84,0,0,1,1.55.67c-3,6.88-4.18,14.64-4.75,22.07a148.48,148.48,0,0,0,.07,22,34,34,0,0,1,8.91-13.66,27.81,27.81,0,0,0-5.39.43,1,1,0,0,1-1-1.37,33.68,33.68,0,0,1,8.55-11,15.1,15.1,0,0,0-1.78,0,17.8,17.8,0,0,0-4.51.91,1,1,0,0,1-1.22-1.25,32.89,32.89,0,0,1,6.66-10.8,11,11,0,0,0-3.35.6,1,1,0,0,1-1.32-1,105.64,105.64,0,0,1,2.7-12.93A34.82,34.82,0,0,0,147.91,54a18.41,18.41,0,0,0-4,9.72.85.85,0,0,1-1.52.39c-.77-1.2-1.57-2.37-2.39-3.54a20.81,20.81,0,0,0,1.83,10.25A.92.92,0,0,1,140.42,71.84Z"/><path class="cls-4" d="M143.06,108.12c-4.6-1.16-9.37-1.76-14-2.73q-7.42-1.58-14.75-3.61A172.46,172.46,0,0,1,85.41,91C66.53,81.94,50.63,69,36.5,53.62c-.47-.51-1.17.17-.78.7C48.05,71.07,65.47,84.19,84.13,93.06a190.57,190.57,0,0,0,28.63,10.69c4.86,1.41,9.78,2.62,14.72,3.71a114.39,114.39,0,0,0,15.22,2.79A1.09,1.09,0,0,0,143.06,108.12Z"/><path class="cls-4" d="M28.73,48l-.09.14a.75.75,0,0,0,.08.89c1.07,1.51,3.17,2.79,4.57,4,1.87,1.66,3.63,3.72,5.84,4.9.53.28,1.28-.25.93-.85a22.13,22.13,0,0,0-4.56-4.81,42.2,42.2,0,0,0-5.39-4.61A1,1,0,0,0,28.73,48Z"/><path class="cls-4" d="M37.06,58a12.83,12.83,0,0,0-6.32-.5.48.48,0,0,0,0,.93c1.91.56,3.92.68,5.85,1.2,1.67.44,3.4,1.67,5.12,1.59.3,0,.59-.33.41-.63C41.08,59,38.78,58.52,37.06,58Z"/><path class="cls-4" d="M46.37,66.35c-4.25-1.44-8-2.55-12.44-1.22a.67.67,0,0,0,.3,1.31,29,29,0,0,1,5.89-.31A45.85,45.85,0,0,1,46,67.49.6.6,0,0,0,46.37,66.35Z"/><path class="cls-4" d="M51.41,70.55c-4-1.53-9.39-.5-13,1.64a.76.76,0,0,0,.7,1.35A22.85,22.85,0,0,1,45,71.84a28.39,28.39,0,0,1,6.11.28C52.1,72.19,52.22,70.86,51.41,70.55Z"/><path class="cls-4" d="M58.71,76.38A5.75,5.75,0,0,0,56,76.2c-1.16.06-2.27-.24-3.45-.1a26.67,26.67,0,0,0-7.19,1.83c-1,.4-.37,2.08.63,1.74a54.35,54.35,0,0,1,6.29-1.78c1.06-.23,2.13-.39,3.17-.72s2.15.08,3.21-.28A.27.27,0,0,0,58.71,76.38Z"/><path class="cls-4" d="M59.33,81a17.42,17.42,0,0,0-7.87,2.73.65.65,0,0,0,.59,1.15,23.14,23.14,0,0,1,8-2.34c2.48-.23,4.78.64,7.2.62a.6.6,0,0,0,.34-1.09C65.35,80.64,61.84,80.79,59.33,81Z"/><path class="cls-4" d="M65.32,85.6c-1.9.57-4.75,1.49-5.55,3.47-.34.85,1,1.47,1.47.67.75-1.37,3.57-2.09,4.95-2.51a11.59,11.59,0,0,1,2.67-.47,10.75,10.75,0,0,0,2.54-.11.5.5,0,0,0,.26-.81C70.15,84.3,67.12,85.06,65.32,85.6Z"/><path class="cls-4" d="M82.9,90.73c-2-.78-4.62.16-6.5.86S71.79,93.74,71,95.87c-.09.25.17.58.44.48,1.68-.6,3.08-1.88,4.7-2.66a14.74,14.74,0,0,1,3.18-1,29.28,29.28,0,0,0,3.52-.53A.74.74,0,0,0,82.9,90.73Z"/><path class="cls-4" d="M91.26,94.39c-2.09-.92-5,.38-6.91,1.3-2.08,1-4.94,2.63-5.92,4.8-.39.85.87,1.22,1.36.63,1.34-1.63,3.58-2.78,5.45-3.71s4.14-.89,6.14-1.67C92.06,95.47,91.77,94.62,91.26,94.39Z"/><path class="cls-4" d="M98,97.75c-2.33.25-4.79,2-6.85,3.09a7.81,7.81,0,0,0-4,3.71.82.82,0,0,0,.55,1,1,1,0,0,0,.35,0h0a.81.81,0,0,0,.59-.37A7.34,7.34,0,0,1,92,102.45c2.09-1.09,4.92-2,6.55-3.69A.59.59,0,0,0,98,97.75Z"/><path class="cls-4" d="M108.05,99.8c-4.68.29-10.15,3.58-12.34,7.78-.37.71.48,1.52,1.12.93a43.34,43.34,0,0,1,4.85-4.33,20.27,20.27,0,0,1,6.54-2.6C109.17,101.33,109.11,99.73,108.05,99.8Z"/><path class="cls-4" d="M110.37,104.31c-1.79.89-3.77,2.26-4.61,4.12-.23.5.45,1,.89.74,1.62-.92,2.92-2.29,4.6-3.17,1.38-.72,3.29-.76,4.3-2a.54.54,0,0,0-.17-.76C113.86,102.42,111.78,103.61,110.37,104.31Z"/><path class="cls-4" d="M37.52,49.67c-.7,1.1.66,2.81,1.12,3.85.4.89.74,1.8,1.06,2.71a4.78,4.78,0,0,0,1.06,2.19.57.57,0,0,0,1-.22c.48-1.78-1-4.35-1.75-6C39.84,52,38.31,48.41,37.52,49.67Z"/><path class="cls-4" d="M46.19,57.26a12.47,12.47,0,0,0-.11,2.8,23.89,23.89,0,0,0,.77,3.55c.37,1.34,1,3.53,2.7,3.47a.7.7,0,0,0,.71-.85,9.1,9.1,0,0,0-.85-1.6,12,12,0,0,1-.8-2.48c-.47-1.71-.92-3.32-1.51-5A.46.46,0,0,0,46.19,57.26Z"/><path class="cls-4" d="M51.48,61.25c-.11,3,1,6.18,2,9,.67,1.93,1.47,4.92,3.88,5.12.41,0,.81-.51.55-.88-.49-.72-1.1-1.3-1.56-2.06a21.05,21.05,0,0,1-1.62-4.14c-.8-2.41-1.13-5-2-7.32C52.46,60.34,51.5,60.64,51.48,61.25Z"/><path class="cls-4" d="M57.52,65.7c0,2.83,1.16,6.16,2.2,8.77,1,2.41,2.51,5.67,5.22,6.42.51.14,1.14-.44.8-1a28,28,0,0,0-2.12-2.5,14.27,14.27,0,0,1-2.1-3.9c-1.06-2.61-1.22-5.69-2.64-8.13A.73.73,0,0,0,57.52,65.7Z"/><path class="cls-4" d="M68,72.78c-1.16,2.28.26,5.21,1.1,7.41s2.48,5.49,5,5.89c.48.08.69-.5.55-.86a6,6,0,0,0-1.36-1.86,15,15,0,0,1-2.13-3.43,24.06,24.06,0,0,1-2-6.94A.65.65,0,0,0,68,72.78Z"/><path class="cls-4" d="M78.12,79.13c-1.45,1.8.53,5.73,1.39,7.53,1,2.2,3,5.16,5.62,5.45a.58.58,0,0,0,.53-.84c-1.13-1.8-2.93-3-4-4.88a25,25,0,0,1-2.34-7A.65.65,0,0,0,78.12,79.13Z"/><path class="cls-4" d="M84.19,83.05c.75,1.09.91,2.75,1.39,4a16.81,16.81,0,0,0,2,3.51c1.42,2,3.42,4.57,5.85,5.34a.72.72,0,0,0,.74-1.16,25.71,25.71,0,0,0-2.75-2.56,20.22,20.22,0,0,1-3.09-4c-1.08-1.78-1.35-4.94-3.16-6C84.62,81.87,83.79,82.46,84.19,83.05Z"/><path class="cls-4" d="M95,87.14c-.42,4.65,4.5,11.77,9.34,12.2a.64.64,0,0,0,.5-1.07c-1.74-1.77-3.94-2.82-5.58-4.79s-2-4.59-3.5-6.62C95.51,86.53,95,86.8,95,87.14Z"/><path class="cls-4" d="M103.43,91.13c.56,4.14,2.47,10.14,7,11.46a.65.65,0,0,0,.67-1c-1.36-1.94-3.18-3.33-4.35-5.46-1-1.72-.91-4.13-2.44-5.44A.55.55,0,0,0,103.43,91.13Z"/><path class="cls-4" d="M111.35,94.59c.86,3.28,4.41,9.93,8.45,9.76a.6.6,0,0,0,.45-1c-1.16-1.62-3.06-2.63-4.33-4.25s-2-3.6-3.15-5.25C112.27,93.17,111.16,93.83,111.35,94.59Z"/><path class="cls-2" d="M100.35,52c-1.15,5.46.71,12.2,2.65,17.3a50.88,50.88,0,0,0,9.32,15.31,75.33,75.33,0,0,0,15.27,13c2.77,1.82,5.65,3.47,8.57,5s6,3.38,9.36,3.92a1.19,1.19,0,0,0,.49-2.33c-5.87-1.9-11.37-5.14-16.56-8.43A76.35,76.35,0,0,1,115,84a51.18,51.18,0,0,1-9.81-14.7,47.89,47.89,0,0,1-2.56-7.84c-.79-3.16-.6-6.24-1-9.42A.68.68,0,0,0,100.35,52Z"/><path class="cls-2" d="M100.12,84.17a.43.43,0,0,0-.06.79c2.77,1.06,5.89,1.11,8.77,1.77a44.29,44.29,0,0,1,5.68,1.72,25.88,25.88,0,0,0,4.38,1.61.75.75,0,0,0,.65-1.28c-2.38-2.14-6.39-3-9.42-3.83S103.26,83.26,100.12,84.17Z"/><path class="cls-2" d="M100.11,75.8a17.18,17.18,0,0,0-5-.34.48.48,0,0,0-.18.9c2.33,1.11,5.06,1.13,7.56,1.66,2.88.62,5.08,2.71,7.88,3.41a.9.9,0,0,0,.79-1.54,18.21,18.21,0,0,0-6.44-3.4A26.87,26.87,0,0,0,100.11,75.8Z"/><path class="cls-2" d="M96.31,68.53c-1.49-.25-2.92-.74-4.42-.92a.59.59,0,0,0-.39,1.09,17.41,17.41,0,0,0,6.64,2c2.85.48,5,2.49,7.72,3.07a.8.8,0,0,0,.7-1.36c-1.62-1.74-4.29-2.57-6.54-3.23A30.59,30.59,0,0,0,96.31,68.53Z"/><path class="cls-2" d="M89.44,59.77c1.41,1.88,3.94,2.68,6,3.57,1.22.52,2.43,1,3.6,1.65a35.74,35.74,0,0,1,3.65,2.69c.78.54,1.4-.56,1.09-1.2-1-2-3.31-3.07-5.26-3.87-1.08-.45-2.2-.8-3.31-1.15-1.87-.59-3.49-1.6-5.29-2.26C89.62,59.08,89.18,59.41,89.44,59.77Z"/><path class="cls-2" d="M88.18,50.47c-.61,0-.78.79-.41,1.15,1.91,1.83,4.87,2.64,7,4.26a25.74,25.74,0,0,1,5.71,6.38c.52.77,1.85.19,1.5-.72-1.13-2.87-3.82-4.94-6.15-6.82C93.73,53,91,50.65,88.18,50.47Z"/><path class="cls-2" d="M88.78,43c-.26,0-.34.35-.18.5,1.77,1.7,4.19,2.61,6,4.32a28.93,28.93,0,0,1,4.95,6.28c.71,1.19,2.55,0,1.8-1.18a23.31,23.31,0,0,0-5.67-6.29C93.76,45.15,91.29,43.19,88.78,43Z"/><path class="cls-2" d="M92,38.47c-.5-.07-1,.61-.5,1,2.44,1.8,4.47,3.21,6,5.93,1.38,2.42,1.93,5.07,2.82,7.66a1,1,0,0,0,1.91-.37c.06-2.85-1.72-5.94-3.13-8.33C97.64,41.8,95.11,38.84,92,38.47Z"/><path class="cls-2" d="M96.81,31.83a10.73,10.73,0,0,0,1,3.9,40.76,40.76,0,0,1,1.49,5.4c.72,3.32.44,7.15,1.67,10.31a.63.63,0,0,0,1.21-.07c.67-3.41-.37-7.49-1-10.85-.55-2.86-1.36-7.27-4-9C97,31.43,96.81,31.63,96.81,31.83Z"/><path class="cls-2" d="M93.46,34c-.64-.05-.84.74-.61,1.19A9.5,9.5,0,0,0,94.59,37a17.1,17.1,0,0,1,2.53,3.55c1.21,2.1,1.79,4.6,3.17,6.59.38.55,1.38.31,1.29-.42-.33-2.71-1.85-5.44-3.22-7.77a19.33,19.33,0,0,0-2.54-3.3c-.47-.5-1.5-1.69-2.25-1.74Z"/><path class="cls-2" d="M105.59,34.07c-1.68,2-2.63,4.72-3.65,7.12s-2,5.37-1.89,8a.54.54,0,0,0,1,.22c1-2.14,1.36-4.61,2.09-6.85.92-2.79,2.37-5.3,3.33-8C106.66,34,105.9,33.68,105.59,34.07Z"/><path class="cls-2" d="M108.52,43a24,24,0,0,0-5.16,6c-1.42,2.12-3.49,5-2.89,7.62.15.69,1,.59,1.36.11,1.19-1.88,2-4.06,3.11-6,1.37-2.31,3.2-4.21,4.72-6.39C110.2,43.63,109.4,42.38,108.52,43Z"/><path class="cls-2" d="M108.55,52.52a26.15,26.15,0,0,0-2.09,5A41.86,41.86,0,0,0,105,61.64a12.14,12.14,0,0,0-.11,4.21c.14,1.52-.1,3,0,4.53a.81.81,0,0,0,1.52.32c1.14-2.27.57-5,.32-7.37-.39-3.72,2.38-6.8,3-10.38A.64.64,0,0,0,108.55,52.52Z"/><path class="cls-2" d="M112.31,61.57c-1.75,3-1.11,6.95-1.16,10.27s.09,8,1.47,11.14a.65.65,0,0,0,1.24-.07c.51-3-.34-6.38-.77-9.35a22,22,0,0,1-.38-6.17c.22-1.8.84-3.51,1.07-5.3A.79.79,0,0,0,112.31,61.57Z"/><path class="cls-2" d="M118.31,70.48c-1.46,2.61-1.07,6.65-.4,9.45a69.83,69.83,0,0,0,4.49,12.79,1.06,1.06,0,0,0,2-.67c-1.1-3.52-2.59-6.91-4-10.31a17.49,17.49,0,0,1-1.24-5.37c-.15-1.91.4-3.75.3-5.64A.63.63,0,0,0,118.31,70.48Z"/><path class="cls-2" d="M126.51,80.23c-.54,3.2-.52,6.93.87,9.91a57.24,57.24,0,0,0,6,10.59,1,1,0,0,0,1.72-1.12,51.19,51.19,0,0,0-5.79-8.77c-2.37-3-1.23-7-1.85-10.54C127.37,79.8,126.61,79.66,126.51,80.23Z"/><path class="cls-5" d="M112.5,48.31A13,13,0,0,0,113,52c.32.94,2.25,1.73,1.89,2.64a.87.87,0,0,1-1,.43,3.67,3.67,0,0,1-1.05-.56,12.18,12.18,0,0,0-1.62-.8,2.27,2.27,0,0,0-.65-.22c-1.27-.2-2.64.62-3.68,1.24-1.22.73-2.4,1.63-3.65,2.28-.48.24-3.75,2.41-4.08,2.22,1.73,1,3.65,1.58,5.18,2.93A14.15,14.15,0,0,0,107,64.45a4.25,4.25,0,0,0,4.55-.5c.53-.43,1.3-1.18,1.92-.46a1.57,1.57,0,0,1,0,1.75c-.37.67-1,1.19-1.29,1.89a5.89,5.89,0,0,0-.35,2.79c.07,1.34.15,2.68.35,4,.16,1.11.3,3.15,1.06,4,1.58-1.15,3.11-2.48,4.62-3.73,1.22-1,2.79-2,2.89-3.73,0-.64-.19-1.28-.12-1.92s.6-1.32,1.23-1.17c.86,1.23.41,2.91.52,4.41a9.39,9.39,0,0,0,1.83,4.49,16.77,16.77,0,0,0,1.15,1.61c.35.4,1.1.73,1.06,1.35a7.6,7.6,0,0,1,1.57-2.4A12.91,12.91,0,0,0,129.6,74c1.22-3.1-1.38-5.77-2-8.71,1.26-.16,2.37.74,3.56,1.14a8,8,0,0,0,5.6-.64c.65-.29,1.1-.82,1.86-.9.44-.05,1.47.25,1.64-.36.11-.41-1-1.64-1.23-2-1.52-2.11-3.71-2.9-6.15-3.49A4,4,0,0,0,132,59a6,6,0,0,0-.73.07c-1,.1-2.05-.46-1.3-1.53s2.08-1.21,3-1.94a3.12,3.12,0,0,0,1-2.65c-.15-2.19-1-4.11-.79-6.34-2,.32-4,1.12-6,1.47a5.16,5.16,0,0,0-3.36,1.59,1,1,0,0,0-.25.53,2.08,2.08,0,0,0,.07.55,2.38,2.38,0,0,1-.15,1.42,1.22,1.22,0,0,1-1,.82c-.61,0-1-.61-1.15-1.21-.31-1.57,0-3.37-.89-4.78a7.55,7.55,0,0,0-2.73-2.23c-.76-.44-1.59-.84-2.31-1.36L113.62,42a21.76,21.76,0,0,0-.67,2.84A14.91,14.91,0,0,0,112.5,48.31Z"/><path class="cls-3" d="M118.21,54.87a14.48,14.48,0,0,1,2.68,2,3.62,3.62,0,0,1,1.09-2.5,1,1,0,0,1,1.57.39,4.65,4.65,0,0,1-.06,2.84,12,12,0,0,1,2.4-.6,1,1,0,0,1,1.07.51.92.92,0,0,1,.33,1.45,9.52,9.52,0,0,1-2.57,2c.19.28.37.56.53.85,1.07,1.45,2,3.27.15,3.79-1.13.32-2.41-1.27-3-2a2.73,2.73,0,0,1-.4-.64,12.07,12.07,0,0,1-3.9,3,.79.79,0,0,1-1.07-.28c-1.06-1.57.5-3.35,2-4.73l-.85,0a8.59,8.59,0,0,1-2.08.12,1,1,0,0,1-.81-1.2c.27-1.13,1.59-1.52,2.93-1.59A8.59,8.59,0,0,1,117,55.88.88.88,0,0,1,118.21,54.87Z"/><path class="cls-5" d="M65.34,132.11a5.88,5.88,0,0,0,3.58-4c.35-1.46.49-3.68-1.06-4.66-1.25-.78-2.93,0-4.33-.21-1.1-.15-3.11-.35-3.89-1.32-2-2.42,1-4.91,3-5.83,4.58-2.13,10.41-2,15.52-1.48a92.58,92.58,0,0,1,9.75,1.49q5.7,1.17,11.33,2.79c1.87.54,3.73,1.15,5.59,1.72,1.69.51,3.5,1.41,5.26,1.09a3,3,0,0,0,2.16-1.56,6.57,6.57,0,0,0,.59-2c.38-2.13.24-5-1.72-6.66-1.07-.88-2.88-1.23-4.15-1.66a138,138,0,0,0-30.54-6.36c-8.79-.88-18.56-1.34-24.59,5.5a15,15,0,0,0-3.93,10.52c.18,3.79,1.62,7.92,5.38,9.89A30.56,30.56,0,0,0,59.91,132C61.7,132.42,63.64,132.78,65.34,132.11ZM58,129.86c-2-.71-4.58-1.52-6.06-3.19a10.64,10.64,0,0,1-2.45-6.08c-.66-8.43,5.94-14.79,14.19-15.92,4.75-.65,9.78,0,14.59.55s9.46,1.27,14.15,2.28a124.75,124.75,0,0,1,13.47,3.66c1.2.4,2.42.8,3.6,1.28s1.27,1.81,1.5,2.78a5.55,5.55,0,0,1,.12,2.43c-.69,3.62-5.32,1.58-7.9.81q-6-1.81-12.18-3.23c-6.78-1.57-13.79-2.82-20.65-2.4a22.67,22.67,0,0,0-8.21,1.64c-1.91.89-4.24,2.38-4.65,4.59A4.37,4.37,0,0,0,60.3,124a10.36,10.36,0,0,0,3.22.8c.95.1,2-.57,3-.24,1.17.42,1.3,2.3,1.08,3.26A4.19,4.19,0,0,1,65,130.6C62.83,131.48,60.2,130.62,58,129.86Z"/><path class="cls-5" d="M64.6,130.34c.15-.42.28-.84.4-1.27.19-1.68.1-3.36.24-5a.58.58,0,0,1,1.09-.22.76.76,0,0,1,.6.11c1.42,1,1.16,2.73.87,4.15-.2,1-.61,2.39-1.67,2.58,0,.06,0,.11,0,.16C65.78,131.68,64.3,131.23,64.6,130.34Z"/><path class="cls-5" d="M54.17,129.15a9.24,9.24,0,0,1-3.24-2.94c-1.08-1.43-1.08-3-1.75-4.59a.71.71,0,0,1,.54-.93q3.62-.51,7.26-.92a.89.89,0,0,1,1,.58c.29,1.11.58,2.27,1.75,2.84a.67.67,0,0,1,.3.27l.08-.08c.63-.62,1.63.39,1,1-1.38,1.47-2.77,2.93-4.23,4.32A2.19,2.19,0,0,1,54.17,129.15Z"/><path class="cls-5" d="M58.24,117.52a5.76,5.76,0,0,1-1.31-.9,16.47,16.47,0,0,0-1.85-1.11,16.13,16.13,0,0,0-4.34-1.57.84.84,0,0,1-.52-1.2A19.47,19.47,0,0,1,55,107.32a1.32,1.32,0,0,1,.2-.12c-.16-.55.62-1.08,1.22-.6,2.81,2.23,5.56,4.52,8.33,6.8a.73.73,0,0,1-.32,1.26,11.83,11.83,0,0,0-4.22,2.16C59.57,117.33,59.15,117.8,58.24,117.52Z"/><path class="cls-5" d="M72.36,113.49c1.61,0,3.22.1,4.84.19a.68.68,0,0,0,.16-1.34c-.74-.24-1-2-1.22-2.57-.31-.77-.63-1.54-1-2.3-.43-1-.92-3-1.91-3.64-1.17-.7-3.27-.65-4.57-.74a4.49,4.49,0,0,0-2.82.41c-.42-.37-1.28,0-1,.62a53.53,53.53,0,0,0,4.33,8.5C69.85,113.71,71.29,113.46,72.36,113.49Zm.06-8.23a2.63,2.63,0,0,1,.3.57,1.06,1.06,0,0,0-.15-.15c0-.05,0-.09-.07-.14a1.25,1.25,0,0,0-.09-.12A.92.92,0,0,0,72.42,105.26Z"/><path class="cls-5" d="M91.56,116.25a49.55,49.55,0,0,0-6-1.4.88.88,0,0,1-.76-.58c-.23-1-.44-1.9-.64-2.84-.73-2-1.42-4-2.12-6a.72.72,0,0,1,.93-.88,23.19,23.19,0,0,0,6.62,1.59.87.87,0,0,1,.78.6c.53,3.05,2,5.77,2.07,8.89A.66.66,0,0,1,91.56,116.25Z"/><path class="cls-5" d="M105.44,120.58a3.59,3.59,0,0,0-.34-.17.69.69,0,0,1-.61,0,41,41,0,0,0-4.9-1.79.86.86,0,0,1-.61-.78,52.11,52.11,0,0,0-2.23-9.39c-.27-.85,1-1.07,1.3-.29a.69.69,0,0,1,0,.13.27.27,0,0,1,.09,0,16.21,16.21,0,0,1,4.55,1.3.79.79,0,0,1,1.46.17c.92,3.32,2.23,6.76,2.43,10.16C106.66,120.61,106,120.81,105.44,120.58Z"/><path class="cls-5" d="M131.36,240.16c1.23-.32,2.46-.61,3.7-.89-1.07-1.14-2.16-2.26-3.32-3.31h-.05C131.55,237.37,131.42,238.76,131.36,240.16Z"/><path class="cls-5" d="M144.78,162.68a1.48,1.48,0,0,1,.27.1,4.56,4.56,0,0,1,.42-.31C145.09,162.3,145,162.41,144.78,162.68Z"/><path class="cls-5" d="M131,235.29c-.63-.54-1.27-1.07-1.93-1.56s-1.25-.88-1.88-1.3c-.19,1.47-.32,2.93-.37,4.41A34.34,34.34,0,0,1,131,235.29Z"/><path class="cls-3" d="M138.06,250a.44.44,0,0,1-.38-.57c.57-1.35,1.12-2.71,1.75-4a25.65,25.65,0,0,0-3.82,0,.45.45,0,0,1-.53-.46c.08-.81.15-1.63.22-2.45a9.11,9.11,0,0,0,.17-2.41c-1.51.33-3,.68-4.49,1.07a.44.44,0,0,1-.52-.46,30.46,30.46,0,0,1,.42-4.47,31.91,31.91,0,0,0-4.32,1.68.43.43,0,0,1-.62-.41,32.85,32.85,0,0,1,.34-4.65,15.1,15.1,0,0,1-4,0,27.41,27.41,0,0,0-2.09,2.82c-3.14,4.94-4.39,11.55-.59,16.5a15.28,15.28,0,0,0,11.3,6.25.82.82,0,0,1,.31-.07,20.2,20.2,0,0,0,8.23-1.7l2.83-1.31a31.74,31.74,0,0,0,.95-4.85C141.47,250.37,139.76,250.21,138.06,250Z"/><path class="cls-5" d="M144.07,250.63a33,33,0,0,1-.77,4.2l2.44-1.12C145.23,252.65,144.67,251.63,144.07,250.63Z"/><path class="cls-5" d="M176.65,151.31a1.62,1.62,0,0,1,.19.37l.32-.45-.51.07Z"/><path class="cls-2" d="M128.74,225.78c-.91,1.06-1.88,2.08-2.85,3.09,4.47,1.77,8.47,5.83,11.58,9.23,4.09,4.47,8,9,10.48,14.61,1.34-.6,2.66-1.21,4-1.84a81.7,81.7,0,0,0-10.65-14.41A105.2,105.2,0,0,0,128.74,225.78Z"/><path class="cls-5" d="M138.72,249.18c1.56.19,3.13.33,4.7.42-.94-1.46-2-2.85-3-4.21a.27.27,0,0,1-.12,0C139.79,246.69,139.24,247.94,138.72,249.18Z"/><path class="cls-5" d="M136,244.5a26.16,26.16,0,0,1,3.65,0c-1.06-1.29-2.17-2.55-3.29-3.8,0,.29-.06.58-.09.88Z"/><path class="cls-5" d="M167.38,161c-.23,0-.46,0-.7,0,.77.16,1.6.39,2.44.6l-.58-.37C168.16,161.1,167.77,161,167.38,161Z"/><path class="cls-3" d="M186.19,220.9a65.63,65.63,0,0,0,6.79,1.75l.08,0c-.79-1.92-1.5-3.84-2.09-5.79A18.86,18.86,0,0,1,186.19,220.9Z"/><path class="cls-3" d="M154,249.84c1.07-.54,2.13-1.09,3.19-1.66-1.38,0-2.76-.06-4.14-.12C153.38,248.65,153.69,249.25,154,249.84Z"/><path class="cls-3" d="M193.25,223.17v0c-.73,1.79-1.45,3.58-2.18,5.36,1.25-.63,2.49-1.28,3.71-1.95l0-.06C194.22,225.43,193.73,224.3,193.25,223.17Z"/><path class="cls-3" d="M183.8,206.21a18.06,18.06,0,0,0,5.48,2.2,36.13,36.13,0,0,1-.05-5.41Z"/><path class="cls-3" d="M193,188.37c-1.91.66-3.82,1.37-5.7,2.13a27.39,27.39,0,0,0,3.63,3.43A42.17,42.17,0,0,1,193,188.37Z"/><path class="cls-3" d="M191.5,181.38q1,2.85,2.15,5.67a30,30,0,0,1,3.87-5.85A52.64,52.64,0,0,1,191.5,181.38Z"/><path class="cls-3" d="M202.36,221.85c4.6-3.47,8.31-7.76,9.92-13.69.89-3.27-.13-5.65-1.48-8.61q-1.77-3.93-3.63-7.82c-.7-1.47-1.42-2.94-2.13-4.4C195.24,196.67,196.29,210.42,202.36,221.85Z"/><path class="cls-5" d="M170.06,123.32c-.49.44-1.8-.17-2.28-.33a15,15,0,0,1-2.44-1c-.05,1.14-.12,2.27-.26,3.4-.08.68,0,1.57-.52,2.09s-1.72-.23-2.13-.35l-3.46-1c-.36,1.78-.75,3.55-1.1,5.33,0,.22-.2.45-.46.41a21.17,21.17,0,0,1-5.14-1.41c-.37,1.53-.75,3-1.06,4.6-.05.25-.35.32-.56.28-1.92-.44-3.83-.94-5.73-1.48-.43,1.67-.88,3.35-1.32,5a.43.43,0,0,1-.54.27,26.63,26.63,0,0,1-4.62-1.62c-.44,1.8-.92,3.6-1.4,5.39a.42.42,0,0,1-.54.27,48.82,48.82,0,0,1-5-1.75c-.46,1.18-.93,2.36-1.42,3.52-.14.35-.39,1.49-1,1.45a8.32,8.32,0,0,1-4.45-2.1c-.59,1.6-1.28,3.16-1.94,4.73a.44.44,0,0,1-.56.28,44.66,44.66,0,0,1-5.17-2.37c-.56,1.58-1.1,3.16-1.75,4.7,5.41,9.8,10.35,19.89,15.13,30,4.56,9.6,9.13,19.08,5.94,29.83a42.19,42.19,0,0,1-3.93,9.17.32.32,0,0,1,.35.27,27.39,27.39,0,0,1,.39,3.94c1.48-.47,3-.87,4.5-1.22a.43.43,0,0,1,.51.45,35.84,35.84,0,0,0,.17,4.86c1.19-.46,2.42-.81,3.63-1.19.28-.09.49.19.5.43a36.5,36.5,0,0,1-.07,4.56,16.79,16.79,0,0,1,5.06-.42.42.42,0,0,1,.37.55,48.2,48.2,0,0,1-1.61,4.7c1.31-.29,2.64-.49,4-.72a.69.69,0,0,1,.75.3c.33.66-.29,2.18-.42,2.88s-.32,1.63-.48,2.45c1.33-.27,2.66-.49,4-.65a.44.44,0,0,1,.52.45,22,22,0,0,1-1.36,5c1.48,0,3,0,4.44.09a.4.4,0,0,1,.39.44c2.11-1.16,4.18-2.37,6.24-3.66,5.26-3.31,10.54-6.58,15.88-9.76,3-1.82,6.44-3.48,9.88-5.21.74-1.92,1.5-3.82,2.25-5.73a64.36,64.36,0,0,1-7.33-1.95.44.44,0,0,1-.06-.81,17.64,17.64,0,0,0,5.26-4.09,24.28,24.28,0,0,1-6.18-2.47.48.48,0,0,1-.06-.74,28.2,28.2,0,0,1,4.81-4.06,22.09,22.09,0,0,1-6.09-2.65.47.47,0,0,1,0-.81l6.18-3.64a7.42,7.42,0,0,1-.74-.5l-4.29-3.13a.48.48,0,0,1,0-.81l6.07-3.4a26.23,26.23,0,0,1-3.75-3.7.48.48,0,0,1,.14-.74q3.22-1.29,6.51-2.43-1.32-3.19-2.41-6.46c-.1-.3.21-.57.48-.56a48.46,48.46,0,0,0,6.6-.15q.5-3,1-6c-4.94-9.58-9.93-19.13-14.85-28.72-4.56-8.87-9.06-18-12.21-27.55-.13.73-.29,1.45-.45,2.16S170.69,122.75,170.06,123.32Zm-7.81,13.09a3.33,3.33,0,0,1,3.65-2.83,3.25,3.25,0,0,1,.7.17,2.3,2.3,0,0,1,.84.27,2.63,2.63,0,0,1,1.26,2,2.85,2.85,0,0,1,0,1.2c-.05.55-.07,1.3-.55,1.67a3.58,3.58,0,0,1-1.38.72,3.06,3.06,0,0,1-2.21-.34,2,2,0,0,1-1.12-.26A2.61,2.61,0,0,1,162.25,136.41Zm-17,17.77a37.9,37.9,0,0,0,.35-8.9c-.16-1.71-.93-3.84-.44-5.51a.94.94,0,0,1,1.39-.49l.13.11a.77.77,0,0,1,.26.31,1.17,1.17,0,0,1,.49.28,33.09,33.09,0,0,0,10.7,7,1.14,1.14,0,0,1,.59,1.67,18.63,18.63,0,0,0-1.91,11.07,1.14,1.14,0,0,1-2,1,23.88,23.88,0,0,0-8.9-5.46A1,1,0,0,1,145.24,154.18Zm-18.13,2.58c.32-2.11,2.49-4.51,4.85-3.54a3,3,0,0,1,2,2.4,3.15,3.15,0,0,1-1.11,2.91,4.36,4.36,0,0,1-2.4.77A2.48,2.48,0,0,1,127.11,156.76ZM152.22,188a3.75,3.75,0,0,1-1.49,2,3.06,3.06,0,0,1-1.88.82c-1.33,1-3.3-.45-3.66-1.88a4,4,0,0,1,2.16-4.48,3.65,3.65,0,0,1,3.82.16A3.27,3.27,0,0,1,152.22,188Zm-3.58-13.45a5.82,5.82,0,0,1-2.39-.4c-1.49-.34-3-.67-4.49-.92-2.27-.37-4.54-.66-6.83-.86a1.27,1.27,0,0,1-.76-2.19,75.25,75.25,0,0,0,5.56-5.45,53.53,53.53,0,0,1,4.29-4.84c1-.88,2.26.1,3.18.59a15.77,15.77,0,0,0,6.35,1.87c2.26.18.13,3-.29,3.91-.84,1.82-1.61,3.68-2.27,5.58C150.47,173.4,150.15,174.08,148.64,174.59Zm21.51-6.12a32.63,32.63,0,0,0-.39,16.07,1.3,1.3,0,0,1-2.22,1.12,31.63,31.63,0,0,0-11.16-7.94,1.24,1.24,0,0,1-.77-1.53,35.83,35.83,0,0,0,1.56-11.76s0-.06,0-.09c0-.2,0-.41,0-.61-.05-1.11,1.62-1.34,2.07-.5l.07,0a19.06,19.06,0,0,0,9.7,3.47A1.34,1.34,0,0,1,170.15,168.47ZM187.71,171a2,2,0,0,1-.1.26A2.32,2.32,0,0,1,186.5,173a3.13,3.13,0,0,1-2.75.11l-.12-.06a2.71,2.71,0,0,1-.92-.38,2.8,2.8,0,0,1,.47-4.88,2.58,2.58,0,0,1,1.31-.25,2.83,2.83,0,0,1,2.18.52A2.73,2.73,0,0,1,187.71,171Zm-6.55-20.79a56,56,0,0,0-4.71,6.9c-1.2,2.09-2,4.7-3.31,6.65-1,1.43-2.71.63-4.14.35l-8.58-1.7a2.84,2.84,0,0,1-1.49-1.86,47.35,47.35,0,0,0,3.79-11.07,1.22,1.22,0,0,1,1.25-.85,46.42,46.42,0,0,0,15.86-.4A1.31,1.31,0,0,1,181.16,150.17Z"/><path class="cls-2" d="M191.81,201.1c-1,8.78,1.37,16.47,5,24.36,1.24-.72,2.45-1.47,3.61-2.25-3.62-6.68-6.13-14.54-5-22.2.88-5.94,3.55-12.21,8.47-15.93q-1.16-2.33-2.32-4.63A34.66,34.66,0,0,0,191.81,201.1Z"/><path class="cls-3" d="M200.49,178.26c-.33-.67-.67-1.33-1-2l-.31-.59-.75,4.52A25.38,25.38,0,0,1,200.49,178.26Z"/><path class="cls-3" d="M185,213.55a24.32,24.32,0,0,0,5.66,2.19,41.56,41.56,0,0,1-1.19-5.83A26.94,26.94,0,0,0,185,213.55Z"/><path class="cls-2" d="M168.91,104.57c-2.07-2.22-4.56-3.89-5.84-6.72-1.2-2.61-.66-5.63-1.46-8.32-1.67-5.66-6.3-1-9.34.42-4.6,2.12-9.11,4.2-13.58,6.72-4.19,2.34-8,5.29-12.24,7.51-4.69,2.51-9.54,4.75-14.29,7.1-3.12,1.51-6.58,3.79-10.12,4.32-2.85,1.81-8.17,2.64-8.06,6.69.09,3.4,5.69,5.1,7.54,7.67,2.14,3,2.39,6.47,4.07,9.67,2,3.87,4.79,4.39,8.75,5,0,0,.12,0,.16,0a22.74,22.74,0,0,0,4.83-1.7c2.39-1,4.84-1.63,7.26-2.44a37.49,37.49,0,0,0,8.66-4,77,77,0,0,1,6.63-4.34c2.84-1.4,5.79-2.35,8.39-4.21a31.69,31.69,0,0,1,5.95-3.59c4.69-2,13.77-9.45,14.24-14.89A6.2,6.2,0,0,0,168.91,104.57Z"/><path class="cls-3" d="M123.85,144.09c-2,.73-4,1.62-6,2.3,1.4.67,2.82,1.31,4.27,1.88C122.66,146.87,123.22,145.47,123.85,144.09Z"/><path class="cls-3" d="M137.48,137.8c-1.74,1.07-3.49,2.07-5.29,3,1.38.48,2.75,1,4.15,1.41C136.7,140.72,137.08,139.26,137.48,137.8Z"/><path class="cls-3" d="M128.71,145.42c.39.11,1.42-2.52,1.95-3.9a44.84,44.84,0,0,1-5.56,2.15h0A14.69,14.69,0,0,0,128.71,145.42Z"/><path class="cls-3" d="M137.29,224.52c-1.4.33-2.79.7-4.18,1.1,1.5,1,2.95,2.15,4.37,3.33A34.41,34.41,0,0,1,137.29,224.52Z"/><path class="cls-3" d="M141.62,228.65c-1.1.36-2.22.72-3.35,1q1.68,1.47,3.27,3.06C141.62,231.35,141.64,230,141.62,228.65Z"/><path class="cls-3" d="M190.64,195l-5.74,3.19,2.4,1.75a10.28,10.28,0,0,0,2.08,1.51c.05-.42.1-.84.16-1.27A51.47,51.47,0,0,1,190.64,195Z"/><path class="cls-3" d="M132.07,221.14c-.55.93-1.15,1.82-1.78,2.68.69.42,1.38.85,2.06,1.3C132.33,223.79,132.21,222.47,132.07,221.14Z"/><path class="cls-3" d="M116.18,146.87a7.2,7.2,0,0,1-3.5.14c.72,1.24,1.43,2.49,2.12,3.75C115.22,149.45,115.7,148.16,116.18,146.87Z"/><path class="cls-3" d="M150,237.9c.16-.84-.09-.2-.75-.09l-1.08.18c-.56.09-1.13.18-1.69.25,1,1.21,1.9,2.46,2.78,3.73C149.5,240.61,149.74,239.26,150,237.9Z"/><path class="cls-3" d="M164.06,126.28c.19-1.39.32-2.79.41-4.19a34.1,34.1,0,0,1-4.81,3.3l2.07.59C162,126.06,164,126.87,164.06,126.28Z"/><path class="cls-5" d="M124.34,230.49c-.5.53-1,1.06-1.46,1.61a18.89,18.89,0,0,0,3.6-.13C125.75,231.5,125,231,124.34,230.49Z"/><path class="cls-3" d="M168.89,122.42c.84.19.77-.58.9-1.09.39-1.63.63-3.29,1-4.92-1.75,1.65-3.46,3.29-5.25,4.8a15.65,15.65,0,0,0,2.08.85C168,122.19,168.46,122.33,168.89,122.42Z"/><path class="cls-3" d="M153.57,242.69c-1.16.15-2.31.33-3.46.54.81,1.22,1.57,2.44,2.28,3.68A21.14,21.14,0,0,0,153.57,242.69Z"/><path class="cls-3" d="M158.07,126.22l-.79.37a33.52,33.52,0,0,0-5,3,32.29,32.29,0,0,0,4.83,1.24C157.39,129.31,157.71,127.76,158.07,126.22Z"/><path class="cls-3" d="M142.89,138.16c.37-1.43.74-2.86,1.12-4.29a21.12,21.12,0,0,0-2.76,1.51L139,136.85A29.91,29.91,0,0,0,142.89,138.16Z"/><path class="cls-3" d="M151.44,130.18a24.41,24.41,0,0,1-2.21,1.33c-1.14.59-2.34,1.09-3.52,1.61,1.57.43,3.15.84,4.74,1.2C150.74,132.93,151.05,131.55,151.44,130.18Z"/><path class="cls-3" d="M146.85,233.09a12,12,0,0,0-4.48.46c1.08,1.13,2.13,2.29,3.13,3.49C146,235.74,146.46,234.43,146.85,233.09Z"/><path class="cls-5" d="M169.76,55.64c-4.85-1.6-7.3,4.41-8.52,8-2.25,6.69-2.36,13.87-2,20.85a.75.75,0,0,0,1.5-.1c0-5-.21-10,.54-14.93.52-3.43,3.4-15.73,8.81-11.51,4.27,3.33-1.79,10.74-3.4,13.95a52.45,52.45,0,0,0-4.59,13.27,1,1,0,0,0,1.91.39,49.6,49.6,0,0,1,3.05-10.14c1.37-3.2,3.41-6,5-9.06C173.89,63,174.26,57.13,169.76,55.64Z"/></g></g></svg>