<svg xmlns="http://www.w3.org/2000/svg" viewBox="0 0 270 270"><defs><style>.cls-1{fill:#fff;}.cls-2{fill:#002d26;}.cls-3{fill:#a78126;}</style></defs><g id="Capa_2" data-name="Capa 2"><g id="Home"><rect class="cls-1" width="270" height="270" rx="9.75"/><path class="cls-2" d="M215.66,20c.62,0,1.23.23,1.84.33a8.91,8.91,0,0,1,1.69.43A5.55,5.55,0,0,1,222,22.87a7.48,7.48,0,0,1,.85,1.48,10.17,10.17,0,0,1,.71,1.58,12.38,12.38,0,0,1,.48,3.78,31.05,31.05,0,0,1-.1,3.86A11.64,11.64,0,0,1,222.81,37c-.29.6-.67,1.14-1,1.72a7.2,7.2,0,0,1-.94,1.49,9.83,9.83,0,0,1-2.72,2.21c-1,.53-2,1-3,1.4-.28.13-.46.35-.74.46a3.75,3.75,0,0,0-.69.29c-.46.31-.92.63-1.35,1A6.64,6.64,0,0,0,211,48.46l-.55,1.59a8.39,8.39,0,0,0-.27.85,1.53,1.53,0,0,1-.07.36v-.09a2.33,2.33,0,0,1-.11.7v-.09a5.21,5.21,0,0,1-.27,1l-.45,1.49c-.28,1-.53,2-.73,3a5.64,5.64,0,0,1,2.29-.79,10.48,10.48,0,0,1,1.12,0c.43,0,.84-.09,1.27-.12a7.18,7.18,0,0,1,4.51,1.6,18.75,18.75,0,0,1,1.91,1.64c.23.2.79.8,1.14.58.88-.55.74-2.32.54-3.14a2.29,2.29,0,0,1,.29-1.64c.26-.37.73-.28,1.13-.26a.81.81,0,0,1,.91.76,11.23,11.23,0,0,1,.13,1.74,7.12,7.12,0,0,1-.14,2,7.94,7.94,0,0,0,0,.85l-.07.89c0,.64-.17,1.29-.25,1.94a3.25,3.25,0,0,0-.06.59,1.42,1.42,0,0,1-.1.7c-.31.65-1.39.41-1.85.06s-.38-.82-.58-1.23-.67-.3-1-.3c-.55.06-1.12,0-1.67.06a8.69,8.69,0,0,1-1.76.18,9.82,9.82,0,0,1-3.63-.88l.14,0a7.63,7.63,0,0,0-2.05-.52,4.91,4.91,0,0,1-1,0,3.37,3.37,0,0,0-1.29.22c-.44.13-.69.55-1.09.73a1.14,1.14,0,0,1-1.26-.24c-.45-.37-.4-.91-.38-1.46s.08-1.26.16-1.88a40.83,40.83,0,0,1,1.8-7.72c.14-.43.16-.88.27-1.32s.37-1,.53-1.58a34.18,34.18,0,0,1,1.29-3.5A5.94,5.94,0,0,1,211.94,43a15.6,15.6,0,0,1,1.54-1,2.54,2.54,0,0,0,.46-.35l.25-.25.21-.16,0-.06a14.89,14.89,0,0,0,1.67-3.06c.45-1.09.83-2.48,1.2-3.69a10.69,10.69,0,0,0,.36-1.09c.08-.36.05-.75.1-1.11a8.56,8.56,0,0,0,.22-1.1c0-.4,0-.8,0-1.2a16.91,16.91,0,0,0-.19-1.79,25.32,25.32,0,0,1-.4-2.59,4,4,0,0,0-.53-1.92,5.2,5.2,0,0,0-.57-.76c-.2-.24-.24-.38-.57-.3s-.91.1-1.24.48a9.15,9.15,0,0,0-1,1.73l0-.11a14.73,14.73,0,0,0-.51,2.16,20.86,20.86,0,0,0,.05,2.74,6,6,0,0,1-.1,2.57,1.16,1.16,0,0,1-.61.77,2.13,2.13,0,0,1-1.12.06c-.95,0-1.89,0-2.83.06a3.59,3.59,0,0,1-2.1-.3c-.75-.48-.58-1.2-.58-2a19,19,0,0,1-.13-2.51c.29-2.39,1-4.77,3-6.27a10.19,10.19,0,0,1,3.25-1.65,8.25,8.25,0,0,1,2-.24,15.62,15.62,0,0,1,1.81,0Z"/><path class="cls-2" d="M238.94,20.3a9.44,9.44,0,0,1,2.76.24,11.72,11.72,0,0,1,2.4,1.07,7,7,0,0,1,2.16,1.6,6.28,6.28,0,0,1,1.06,2.21,6.54,6.54,0,0,1,.37,1.59v.09s0-.05,0-.08a3.18,3.18,0,0,1,.23.68l0-.1a6,6,0,0,1,.17,1.62,8.88,8.88,0,0,1,.1,1.71l0,2.19a3.72,3.72,0,0,1-.35,1.83l.05-.07a4.62,4.62,0,0,1-.41,1.29l-.59,1.49a5.09,5.09,0,0,1-1.86,2.39l.19-.14a6.3,6.3,0,0,1-.82.73,7.87,7.87,0,0,1,1.49,1,8.82,8.82,0,0,1,1.2,1.09,6.84,6.84,0,0,1,1.4,2.86A9.79,9.79,0,0,1,249,49c0,.63.08,1.22.07,1.85l0,1.74a23.1,23.1,0,0,1-.24,3.33,10.24,10.24,0,0,1-1.07,3.14,9.76,9.76,0,0,1-1.63,2.75,12.27,12.27,0,0,1-2.85,1.82l.1-.06a10.12,10.12,0,0,1-4.4.71l-2.27.06a4.22,4.22,0,0,1-1.93-.3,28,28,0,0,1-2.64-2.11,7.49,7.49,0,0,1-1.8-3.11,39.27,39.27,0,0,1-.9-3.86,9.75,9.75,0,0,1-.19-1.08c0-.22-.11-.41-.12-.64a9.41,9.41,0,0,1,.11-1.75,5,5,0,0,1,.18-1.26,3.45,3.45,0,0,1,.71-1.23,4,4,0,0,1,2.52-.77,3.83,3.83,0,0,1,3.13.8,3.76,3.76,0,0,1,.55,3.4c.05-.17,0,.28,0,.3v1.11l0,2.24a16.36,16.36,0,0,0,0,2,9.7,9.7,0,0,0,.38,1.57,13.26,13.26,0,0,0,.77,1.72c.11.27.1.35.42.27s.41-.06.63-.14a6.09,6.09,0,0,0,1.36-.59,5.41,5.41,0,0,0,1.29-1.19l-.07.1.22-.29c.07-.1.19-.15.26-.24l-.11.09c.84-.81,1-2.21,1.34-3.26a6.69,6.69,0,0,0,.29-.86l.14-.85a7,7,0,0,1,.18-1.55,4.85,4.85,0,0,0,.05-.85,2.86,2.86,0,0,0,0-1,3.05,3.05,0,0,1-.12-.9,6.76,6.76,0,0,0-.1-.77c0-.32,0-.64-.06-1-.15-1.19-.5-2.34-.63-3.54a6.39,6.39,0,0,0-.49-2.29c-.21-.39-.61-.26-.92-.54a5.63,5.63,0,0,0-1.35-.24c-1-.07-2.25.38-3.15-.19-.48-.31-.43-.88-.4-1.38s.16-.7.67-.77a4,4,0,0,0,.78-.06,2.38,2.38,0,0,1,.84-.07h.92c.23,0,.41-.21.63-.29a1.71,1.71,0,0,0,.95-.78,8.89,8.89,0,0,1,.43-1.61l0,.11a4,4,0,0,0,.29-.75,2.49,2.49,0,0,1,.13-.77v.12c0-.42.1-1,.12-1.34,0-.58.12-1.16.14-1.74a10.3,10.3,0,0,0,0-1.84c-.07-.56-.06-1.14-.17-1.69a9.55,9.55,0,0,0-.57-1.63,7.83,7.83,0,0,1-.48-1.92,2.17,2.17,0,0,0-.79-1.34,3.78,3.78,0,0,0-1.38-.63c-.43-.14-1,.45-1.39.74l-.09.07.08-.06c-.14,0-.4.4-.48.48a2.79,2.79,0,0,0-.49.69c-.21.46-.42,1.2-.56,1.58s-.29.87-.42,1.32c0,0-.15.47-.16.59v-.07l0,1.13c0,.34-.11.68-.13,1a1.21,1.21,0,0,1-1.4,1.21,2.36,2.36,0,0,0-.53,0,6.6,6.6,0,0,1-.87-.15c-.52,0-1-.08-1.56-.09A2,2,0,0,1,229,31a3.72,3.72,0,0,1-.18-2,8.72,8.72,0,0,1,.45-2.37,10.2,10.2,0,0,1,.69-1.82,5.78,5.78,0,0,1,1.35-2.12,7.15,7.15,0,0,1,2.1-1.27,15,15,0,0,1,5.54-1.1Z"/><path class="cls-3" d="M164.1,131.07c-.12-.71-.26-1.39-.4-2-3-13.94-14.51-24.91-29.28-23.94-7.34.49-14.88,3-20.4,8a26.46,26.46,0,0,0-9.14,18.2c-1,9.31.81,18.08,6.68,25.48,7.27,9.16,21,11.25,31.91,9.32,5.62-1,11.27-3.15,15.57-7C165.88,153,165.69,140,164.1,131.07Zm-4.39,18.57c-4.68,16.55-32.7,13.8-43.12,5.41-5.57-4.49-7.19-12.41-7.42-19.15-.31-9.49,5.48-22.45,15.06-25.23,4.27-1.24,8.64-1,13-.39,5,.73,10.37,1.61,14.12,5a25.19,25.19,0,0,1,4.45,6.07C160.62,129.62,162.35,140.33,159.71,149.64Z"/><path class="cls-3" d="M131,40.3c-.25-2.14-3.46-2.26-3.42,0,.32,21.67,2.22,43.59,3.78,65.21.2,2.67,4.35,2.71,4.2,0C134.37,83.84,133.45,61.85,131,40.3Z"/><path class="cls-3" d="M157.65,61c-7.41-4.47-17.46-1.66-22,5.79-6.2,10.18-6.33,24.47-3.32,35.73.44,1.64,3.12,1.34,3-.41-.54-7.82-.85-15.65.35-23.43a23,23,0,0,1,4.64-10.83,14.52,14.52,0,0,1,4.35-3.36l3.22-1.12q8.18-1.48,4.12,5.52l-.52-.52a2.5,2.5,0,0,0-2.92-.38c-6.49,2.85-.76,11.71,5.29,10C161.06,76,165.42,65.67,157.65,61Z"/><path class="cls-3" d="M119.32,60.54c-5.13-1.69-9.55-2.16-13.86,1.46-3.29,2.77-4.89,9.53-4.13,13.56,1.77,9.38,15.31,12.31,20.18,3.71,4.13-7.3-8.93-14.94-12-8a2.5,2.5,0,0,0,.87,3.3l.65.46a1.94,1.94,0,0,0,2.33-.23,6.28,6.28,0,0,0,.94,4.75c-4.4,1.53-8.46-1.79-8.47-6.57,0-8.14,6.65-10.35,13.35-7.5,8.35,3.56,9.86,17.08,12.65,24.51a1.4,1.4,0,0,0,2.73-.37C134.69,79.93,129.59,63.93,119.32,60.54Z"/><path class="cls-3" d="M142.94,39.39c-3.61,1.66-6.54,5.11-9.41,7.81a27.31,27.31,0,0,0-3.77,3.61c-1.44-1.33-2.44-3.25-3.65-4.7a16.71,16.71,0,0,0-5-3.71,1.45,1.45,0,0,0-1.46,2.51,24.09,24.09,0,0,1,6.61,6.47,8.64,8.64,0,0,0,3.38,3.11,1.55,1.55,0,0,0,2.26-.93c.3-1.81,5.43-4.72,6.86-5.89,2.29-1.87,4.72-3.63,6.31-6.14C146,40.09,144.26,38.79,142.94,39.39Z"/><path class="cls-3" d="M141.69,27.54a62.07,62.07,0,0,0-12.62,10.18c-1.42-1.2-2.71-3.76-3.77-5a15.85,15.85,0,0,0-4.94-3.82,1.34,1.34,0,0,0-1.62,2.1,63,63,0,0,1,5.63,6.15c1.34,1.82,2,3.41,4.08,4.48a1.92,1.92,0,0,0,2.26-.29,114.61,114.61,0,0,1,13-10.34C145.82,29.56,143.94,26.2,141.69,27.54Z"/><path class="cls-3" d="M129.63,17.37A4.9,4.9,0,0,0,123.57,21a4.8,4.8,0,0,0,0,1.69,4.67,4.67,0,0,0,3.86,4.59,5.09,5.09,0,0,0,2.2-9.93Z"/><path class="cls-3" d="M135.09,232.17c.11,2.15,3.31,2.47,3.42.22,1.05-21.65.54-43.64.35-65.32,0-2.68-4.17-3-4.19-.26C134.5,188.5,134,210.51,135.09,232.17Z"/><path class="cls-3" d="M109.82,209.85c7.1,4.94,17.31,2.77,22.32-4.38,6.83-9.77,7.86-24,5.57-35.45-.33-1.66-3-1.54-3,.22,0,7.84-.14,15.67-1.83,23.36a23,23,0,0,1-5.31,10.51,14.35,14.35,0,0,1-4.56,3.08l-3.28.91q-8.26,1-3.76-5.77l.48.56a2.49,2.49,0,0,0,2.89.56c6.65-2.43,1.5-11.64-4.65-10.33C107.36,194.68,102.35,204.67,109.82,209.85Z"/><path class="cls-3" d="M148,212.71c5,2,9.39,2.76,13.92-.58,3.46-2.55,5.49-9.19,5-13.27-1.17-9.47-14.5-13.26-19.91-5-4.59,7,8,15.47,11.44,8.72a2.51,2.51,0,0,0-.66-3.35l-.61-.49a1.94,1.94,0,0,0-2.35.08,6.3,6.3,0,0,0-.63-4.8c4.48-1.25,8.33,2.32,8,7.09-.5,8.12-7.29,9.91-13.79,6.63-8.11-4.07-8.76-17.66-11.08-25.26a1.4,1.4,0,0,0-2.75.2C133.93,192.38,138,208.68,148,212.71Z"/><path class="cls-3" d="M123.13,232.32c3.7-1.43,6.84-4.68,9.88-7.2a27,27,0,0,0,4-3.36c1.34,1.42,2.22,3.4,3.34,4.92a16.66,16.66,0,0,0,4.74,4,1.45,1.45,0,0,0,1.61-2.41,24.18,24.18,0,0,1-6.18-6.88,8.57,8.57,0,0,0-3.18-3.31,1.55,1.55,0,0,0-2.31.78c-.41,1.79-5.72,4.36-7.22,5.44-2.4,1.72-4.94,3.33-6.68,5.73C120.13,231.43,121.77,232.84,123.13,232.32Z"/><path class="cls-3" d="M123.62,244.22a61.71,61.71,0,0,0,13.24-9.35c1.34,1.28,2.47,3.92,3.45,5.22a15.69,15.69,0,0,0,4.69,4.12,1.34,1.34,0,0,0,1.74-2,64,64,0,0,1-5.23-6.49c-1.22-1.91-1.79-3.53-3.79-4.74a1.91,1.91,0,0,0-2.26.15,115.45,115.45,0,0,1-13.64,9.5C119.63,242,121.29,245.42,123.62,244.22Z"/><path class="cls-3" d="M135,255.15a4.91,4.91,0,0,0,6.28-3.27,5.07,5.07,0,0,0,.1-1.68,4.66,4.66,0,0,0-3.56-4.82,5,5,0,0,0-6,3.58A5,5,0,0,0,135,255.15Z"/><path class="cls-3" d="M230.62,132.42c2.14-.25,2.25-3.46,0-3.42-21.67.32-43.59,2.22-65.21,3.79-2.68.19-2.71,4.34,0,4.19C187.07,135.78,209.07,134.86,230.62,132.42Z"/><path class="cls-3" d="M209.94,159.06c4.48-7.41,1.67-17.46-5.79-22-10.18-6.2-24.47-6.33-35.73-3.32-1.63.44-1.34,3.12.41,3,7.82-.54,15.65-.85,23.44.35a23,23,0,0,1,10.82,4.64,14.2,14.2,0,0,1,3.36,4.35c.38,1.07.75,2.14,1.12,3.22,1,5.46-.84,6.82-5.52,4.12l.53-.52A2.49,2.49,0,0,0,203,150c-2.84-6.49-11.71-.76-10,5.29C195,162.47,205.24,166.83,209.94,159.06Z"/><path class="cls-3" d="M210.38,120.73c1.69-5.13,2.16-9.55-1.46-13.86-2.77-3.29-9.53-4.89-13.56-4.13-9.39,1.77-12.32,15.31-3.71,20.18,7.3,4.13,14.93-8.93,8-12a2.5,2.5,0,0,0-3.3.87l-.45.65a1.94,1.94,0,0,0,.23,2.33,6.28,6.28,0,0,0-4.75.94c-1.54-4.4,1.79-8.46,6.56-8.47,8.14,0,10.35,6.65,7.5,13.35-3.55,8.35-17.07,9.86-24.51,12.65a1.4,1.4,0,0,0,.37,2.73C191,136.1,207,131,210.38,120.73Z"/><path class="cls-3" d="M231.52,144.35c-1.66-3.61-5.1-6.54-7.81-9.41a26.65,26.65,0,0,0-3.6-3.77c1.32-1.43,3.25-2.44,4.69-3.65a16.54,16.54,0,0,0,3.71-5,1.45,1.45,0,0,0-2.5-1.46,24.09,24.09,0,0,1-6.47,6.61,8.53,8.53,0,0,0-3.11,3.39,1.55,1.55,0,0,0,.92,2.25c1.82.3,4.72,5.43,5.89,6.86,1.87,2.29,3.64,4.72,6.15,6.31C230.83,147.4,232.13,145.67,231.52,144.35Z"/><path class="cls-3" d="M243.37,143.1a61.68,61.68,0,0,0-10.17-12.62c1.19-1.42,3.75-2.71,5-3.77a15.85,15.85,0,0,0,3.82-4.94,1.34,1.34,0,0,0-2.1-1.61,64.33,64.33,0,0,1-6.15,5.63c-1.83,1.34-3.41,2-4.49,4.08a1.89,1.89,0,0,0,.3,2.25,115.73,115.73,0,0,1,10.34,13C241.36,147.23,244.72,145.35,243.37,143.1Z"/><path class="cls-3" d="M253.55,131a4.91,4.91,0,0,0-3.66-6.06,4.74,4.74,0,0,0-1.68,0,4.67,4.67,0,0,0-4.59,3.86,5.09,5.09,0,0,0,9.93,2.2Z"/><path class="cls-3" d="M38.47,135.43c-2.15.11-2.46,3.31-.21,3.41,21.65,1.06,43.64.55,65.31.36,2.69,0,3-4.17.27-4.19C82.14,134.84,60.14,134.36,38.47,135.43Z"/><path class="cls-3" d="M60.8,110.15c-4.94,7.11-2.77,17.32,4.38,22.33,9.77,6.83,24,7.86,35.45,5.57,1.66-.33,1.53-3-.22-3-7.84,0-15.67-.14-23.37-1.83a23.14,23.14,0,0,1-10.51-5.31,14.32,14.32,0,0,1-3.07-4.56c-.31-1.09-.61-2.19-.92-3.28q-1-8.26,5.77-3.77l-.55.49a2.47,2.47,0,0,0-.56,2.89c2.43,6.65,11.63,1.5,10.32-4.65C76,107.7,66,102.69,60.8,110.15Z"/><path class="cls-3" d="M57.94,148.37c-2,5-2.77,9.4.57,13.93,2.55,3.46,9.2,5.49,13.27,5,9.48-1.17,13.26-14.49,5-19.9-7-4.59-15.47,8-8.71,11.44a2.5,2.5,0,0,0,3.34-.66c.17-.21.34-.41.5-.62a1.94,1.94,0,0,0-.08-2.34,6.3,6.3,0,0,0,4.8-.63c1.25,4.48-2.33,8.33-7.09,8-8.12-.51-9.91-7.29-6.64-13.8,4.08-8.1,17.67-8.75,25.26-11.07A1.4,1.4,0,0,0,88,135C78.26,134.26,62,138.34,57.94,148.37Z"/><path class="cls-3" d="M38.33,123.46c1.43,3.71,4.68,6.85,7.19,9.89a27,27,0,0,0,3.36,4c-1.41,1.35-3.39,2.23-4.92,3.34a16.8,16.8,0,0,0-4,4.75,1.45,1.45,0,0,0,2.4,1.61,24.31,24.31,0,0,1,6.88-6.18,8.6,8.6,0,0,0,3.32-3.18,1.55,1.55,0,0,0-.78-2.31c-1.79-.41-4.36-5.72-5.44-7.22-1.73-2.4-3.33-4.94-5.74-6.68C39.22,120.46,37.81,122.11,38.33,123.46Z"/><path class="cls-3" d="M26.42,124a61.75,61.75,0,0,0,9.36,13.24c-1.29,1.34-3.92,2.47-5.22,3.44a15.88,15.88,0,0,0-4.13,4.7,1.34,1.34,0,0,0,2,1.74,62.75,62.75,0,0,1,6.5-5.23c1.91-1.22,3.53-1.79,4.73-3.79a1.88,1.88,0,0,0-.15-2.26A115.85,115.85,0,0,1,30,122.15C28.69,120,25.22,121.63,26.42,124Z"/><path class="cls-3" d="M15.5,135.35a4.91,4.91,0,0,0,3.27,6.28,5.07,5.07,0,0,0,1.68.11,4.67,4.67,0,0,0,4.82-3.57,5,5,0,0,0-3.58-6A5,5,0,0,0,15.5,135.35Z"/><path class="cls-3" d="M155.73,86.28c-2.69.64-3.86,6.08-4.54,8.24-.86,2.7-3.14,16.74,1.73,17.87a.78.78,0,0,0,0,.14c-.48,1.34,1.43,2.59,2.4,1.48,5.17-5.85,6.14-15.09,4.57-22.48C159.45,89.7,158.49,85.63,155.73,86.28Z"/><path class="cls-3" d="M179.18,91.05a1.78,1.78,0,0,0-1.42-1.32,4,4,0,0,0-2.74.54c-8.36,1-14,12-17.13,18.71a1.44,1.44,0,0,0-.08.25l-.24.17c-1.27.9-.08,2.64,1.27,2.24.16,0,.31-.11.47-.16a1.65,1.65,0,0,0,1.65-.57,41,41,0,0,0,11.71-7.62c3.37-2.94,7.64-6.61,6.81-11.51A1.82,1.82,0,0,0,179.18,91.05Z"/><path class="cls-3" d="M180.51,108.26c-8.5-3.33-18.4,1.12-26.36,4.19-2.74,1.06-1.06,5.13,1.69,4.2.26-.08.52-.15.77-.24a40.56,40.56,0,0,0,14.58.6c4.12-.53,9.78-1.78,10.58-6.47A2.14,2.14,0,0,0,180.51,108.26Z"/><path class="cls-3" d="M110.46,89c2.69.63,3.87,6.07,4.56,8.23.86,2.69,3.17,16.73-1.7,17.87a.78.78,0,0,1,.05.14,1.47,1.47,0,0,1-2.4,1.49c-5.17-5.85-6.16-15.08-4.6-22.47C106.75,92.43,107.7,88.36,110.46,89Z"/><path class="cls-3" d="M87,93.82a1.78,1.78,0,0,1,1.41-1.33,4.11,4.11,0,0,1,2.74.54c8.36,1,14,11.92,17.17,18.68,0,.09.05.17.08.25a1.88,1.88,0,0,0,.23.16c1.28.91.09,2.65-1.26,2.25-.16,0-.31-.1-.47-.15a1.65,1.65,0,0,1-1.65-.58,41,41,0,0,1-11.73-7.59c-3.37-2.93-7.65-6.6-6.83-11.5A1.78,1.78,0,0,1,87,93.82Z"/><path class="cls-3" d="M85.72,111c8.5-3.35,18.41,1.09,26.37,4.14,2.75,1,1.07,5.13-1.68,4.21l-.77-.24a40.78,40.78,0,0,1-14.58.63c-4.13-.53-9.78-1.77-10.59-6.45A2.16,2.16,0,0,1,85.72,111Z"/><path class="cls-3" d="M111.62,183.38c2.69-.64,3.86-6.07,4.55-8.24.85-2.69,3.14-16.73-1.73-17.86a.88.88,0,0,1,0-.15,1.47,1.47,0,0,0-2.41-1.48c-5.16,5.86-6.13,15.09-4.56,22.48C107.91,180,108.86,184,111.62,183.38Z"/><path class="cls-3" d="M88.18,178.62a1.8,1.8,0,0,0,1.41,1.32,4.15,4.15,0,0,0,2.74-.54c8.36-1.05,14-12,17.14-18.71a2.5,2.5,0,0,0,.07-.26l.24-.16c1.27-.9.08-2.64-1.26-2.25l-.47.16a1.66,1.66,0,0,0-1.66.58,41.33,41.33,0,0,0-11.71,7.61c-3.37,2.94-7.64,6.62-6.81,11.52A1.9,1.9,0,0,0,88.18,178.62Z"/><path class="cls-3" d="M86.84,161.4c8.51,3.34,18.41-1.11,26.36-4.18,2.75-1.06,1.07-5.14-1.69-4.21-.25.09-.51.16-.77.24a41,41,0,0,0-14.57-.6c-4.13.54-9.78,1.79-10.59,6.48A2.15,2.15,0,0,0,86.84,161.4Z"/><path class="cls-3" d="M162.26,183.34c-2.69-.64-3.87-6.07-4.56-8.23-.86-2.7-3.17-16.73,1.7-17.87a.88.88,0,0,1-.05-.15c-.48-1.33,1.42-2.59,2.4-1.48,5.17,5.84,6.16,15.08,4.61,22.47C166,179.91,165,184,162.26,183.34Z"/><path class="cls-3" d="M185.7,178.53a1.8,1.8,0,0,1-1.41,1.32,4.11,4.11,0,0,1-2.75-.53c-8.36-1-14-11.93-17.17-18.69a1.82,1.82,0,0,1-.07-.25l-.24-.16c-1.28-.9-.08-2.64,1.26-2.25l.47.16a1.65,1.65,0,0,1,1.65.57,41.23,41.23,0,0,1,11.73,7.59c3.38,2.94,7.65,6.61,6.83,11.51A1.88,1.88,0,0,1,185.7,178.53Z"/><path class="cls-3" d="M187,161.31c-8.5,3.35-18.41-1.08-26.37-4.13-2.75-1.06-1.07-5.14,1.69-4.21l.77.24a40.5,40.5,0,0,1,14.57-.63c4.13.52,9.78,1.76,10.59,6.45A2.14,2.14,0,0,1,187,161.31Z"/><path class="cls-3" d="M140.12,128.39c-8.53,0-8.52,13.23,0,13.22S148.65,128.38,140.12,128.39Z"/><path class="cls-3" d="M131.79,116.92c-7.75,0-7.74,12,0,12S139.55,116.91,131.79,116.92Z"/><circle class="cls-3" cx="125.64" cy="137.97" r="6.56"/><path class="cls-3" d="M139.33,145.28c-8.2,0-8.18,12.72,0,12.71S147.53,145.27,139.33,145.28Z"/><path class="cls-3" d="M152.74,139.64c-7.5,0-7.49,11.64,0,11.63S160.24,139.63,152.74,139.64Z"/><path class="cls-3" d="M146.55,117.16c-6.4,0-6.39,9.92,0,9.92S153,117.15,146.55,117.16Z"/><path class="cls-3" d="M119.45,120.71c-6.69,0-6.68,10.38,0,10.38S126.15,120.7,119.45,120.71Z"/><path class="cls-3" d="M124,147.17c-6.47,0-6.46,10,0,10S130.51,147.16,124,147.17Z"/></g></g></svg>