<svg xmlns="http://www.w3.org/2000/svg" xmlns:xlink="http://www.w3.org/1999/xlink" viewBox="0 0 440.87 556.23"><defs><style>.cls-1{isolation:isolate;}.cls-2{mix-blend-mode:multiply;fill:url(#radial-gradient);}.cls-3{fill:#a01a22;}.cls-4{fill:#a78126;}.cls-5{fill:#f6f2e9;}.cls-6{fill:#ccd5d4;}.cls-7{fill:#002d26;}.cls-8{fill:#f5e8e9;}</style><radialGradient id="radial-gradient" cx="187.05" cy="75631.97" r="222.82" gradientTransform="translate(35.37 -4806.7) scale(0.99 0.07)" gradientUnits="userSpaceOnUse"><stop offset="0" stop-color="#8f8f8f"/><stop offset="0.08" stop-color="#a2a2a2"/><stop offset="0.25" stop-color="#c3c3c3"/><stop offset="0.43" stop-color="#ddd"/><stop offset="0.61" stop-color="#f0f0f0"/><stop offset="0.8" stop-color="#fbfbfb"/><stop offset="1" stop-color="#fff"/></radialGradient></defs><g class="cls-1"><g id="Capa_2" data-name="Capa 2"><g id="Home"><ellipse class="cls-2" cx="220.44" cy="540.48" rx="220.44" ry="15.75"/><path class="cls-3" d="M117.07,477a5.4,5.4,0,0,0-.51,10.79h0l.51-10.79Z"/><path class="cls-3" d="M122.21,482.66a5.4,5.4,0,0,0-5.14-5.65s-2.3,1.35-2.47,5.29c-.18,4.12,2,5.5,2,5.5A5.4,5.4,0,0,0,122.21,482.66Z"/><path class="cls-4" d="M118.07,477.1c0,.34-2.51.39-2.51,0v-1h2.51Z"/><path class="cls-4" d="M116.82,476.89a.91.91,0,1,1,1-.9A.94.94,0,0,1,116.82,476.89Zm0-1.64a.74.74,0,1,0,.8.74A.77.77,0,0,0,116.82,475.25Z"/><path class="cls-3" d="M314.46,475.54a5.16,5.16,0,0,0-.48,10.3h0l.48-10.3Z"/><path class="cls-3" d="M319.37,480.93a5.15,5.15,0,0,0-4.91-5.39s-2.19,1.29-2.36,5c-.17,3.94,1.88,5.25,1.88,5.25A5.15,5.15,0,0,0,319.37,480.93Z"/><path class="cls-4" d="M315.42,475.63c0,.32-2.39.37-2.39,0v-1h2.39Z"/><path class="cls-4" d="M314.22,475.43a.87.87,0,1,1,.93-.87A.9.9,0,0,1,314.22,475.43Zm0-1.57a.71.71,0,1,0,.77.7A.73.73,0,0,0,314.22,473.86Z"/><polygon class="cls-5" points="236.6 36.04 224.96 29.81 213.23 35.86 215.57 22.87 206.19 13.58 219.26 11.79 225.2 0 230.94 11.88 243.99 13.88 234.47 23.02 236.6 36.04"/><path class="cls-6" d="M200,128c.69.86,1.4,1.67,2.12,2.43a99.06,99.06,0,0,1-12.73-2.75,1.4,1.4,0,1,0-.77,2.7c1.17.34,10.75,3,15.91,3l.72,0c.87.73,1.73,1.4,2.6,2-3.25.42-8.34.72-12,.83a1.41,1.41,0,0,0,0,2.82h0c2.06-.06,11.83-.41,15.36-1.45.91.52,1.81,1,2.68,1.42-3.18.8-7.81,1.69-11.25,2.24a1.41,1.41,0,0,0,.22,2.8l.23,0c2-.32,11.23-1.87,14.79-3.33.87.31,1.68.57,2.41.79A62.13,62.13,0,0,1,209,145.39a1.41,1.41,0,0,0,.32,2.78,1.86,1.86,0,0,0,.33,0c.43-.1,10.15-2.43,14.56-5.75l.32.05h.18a1.41,1.41,0,0,0,.18-2.8,30.48,30.48,0,0,1-5.42-1.43c-.18-5.07,1.81-13.79,1.83-13.89a1.41,1.41,0,0,0-2.74-.63,78.73,78.73,0,0,0-1.91,13.41,38.13,38.13,0,0,1-4.67-2.42c-.55-5.87,2.22-14.07,2.25-14.15a1.41,1.41,0,0,0-2.67-.91,49.68,49.68,0,0,0-2.47,13.15,39.34,39.34,0,0,1-3.2-2.63c-1.35-2.87.92-10.86,2.71-15.34a1.41,1.41,0,0,0-2.61-1c-.39,1-3,7.72-3.28,13.09-.19-.23-.39-.46-.58-.7a1.93,1.93,0,0,0-.22-.28,38,38,0,0,1-3-4.29c0-2.89,1.33-8.85,1.88-11a1.39,1.39,0,0,0-1-1.71,1.41,1.41,0,0,0-1.71,1c-.06.22-.93,3.65-1.5,7.07-2.41-5.38-5.12-13-5.85-18.38a1.42,1.42,0,0,0-1.59-1.2,1.39,1.39,0,0,0-1.2,1.58c1,7.42,5.4,18.48,8.23,23.49a1.35,1.35,0,0,0,.2.44c-3.24-1.89-6.72-4.29-7.7-6.21a1.41,1.41,0,1,0-2.51,1.28C188.38,122.19,197.8,126.91,200,128Z"/><path class="cls-7" d="M277.9,166.41a1.41,1.41,0,1,0-2.64-1c0,.06-2.36,6.37-6.93,16-.76.85-1.55,1.68-2.37,2.51a64.7,64.7,0,0,0,2-10.63,1.4,1.4,0,0,0-1.26-1.54,1.42,1.42,0,0,0-1.54,1.26c-.32,3.32-1.76,12.62-4.5,15.74l-.13.18c-1.26,1.07-2.54,2.12-3.84,3.13a111.74,111.74,0,0,0,3.23-11.8,1.4,1.4,0,0,0-1.08-1.67,1.42,1.42,0,0,0-1.67,1.08c0,.11-2.33,10.8-4.83,15.55a1.64,1.64,0,0,0-.21.25c-1.32.94-2.65,1.85-4,2.73a115.63,115.63,0,0,0,3.49-12.88,1.41,1.41,0,0,0-2.76-.57c0,.12-2.39,11.46-4.92,16.16-1.63,1-3.22,2-4.75,2.87a136,136,0,0,0,4.11-13.28,1.41,1.41,0,0,0-2.73-.69c0,.12-2.91,11.49-5.46,16.24a1.29,1.29,0,0,0-.17.16L231.76,208a110.48,110.48,0,0,0,3.75-13.62,1.4,1.4,0,1,0-2.75-.57c0,.12-2.42,11.57-5,16.23-1.8.89-2.87,1.38-2.92,1.4a1.41,1.41,0,0,0,.58,2.69A1.51,1.51,0,0,0,226,214c.22-.1,1.35-.62,3.13-1.5h.1c.06,0,5.55-1.18,14.8,3.28a1.43,1.43,0,0,0,.61.14,1.41,1.41,0,0,0,.61-2.68,37.24,37.24,0,0,0-10.82-3.46l2.27-1.24c1.43-.17,6.55-.43,14.37,3.34a1.37,1.37,0,0,0,.61.15,1.41,1.41,0,0,0,.62-2.68,37,37,0,0,0-10.92-3.48c1.6-1,3.27-2,5-3.05,1.53.05,6.59.59,13.67,5.35a1.43,1.43,0,0,0,.79.24,1.41,1.41,0,0,0,.78-2.58A35,35,0,0,0,250,200.49q2-1.34,4-2.78a43.08,43.08,0,0,1,15.24,8.2,1.45,1.45,0,0,0,.88.31,1.41,1.41,0,0,0,.88-2.51,50.4,50.4,0,0,0-11.92-7.2c1.54-.23,3.12-.4,4.73-.51,1.08.36,6.73,2.46,13.42,9.2a1.42,1.42,0,0,0,1,.41,1.4,1.4,0,0,0,1-.41,1.42,1.42,0,0,0,0-2,47.59,47.59,0,0,0-9.35-7.41c1.89,0,3.79.07,5.67.18a39.25,39.25,0,0,1,12.35,8.79,1.42,1.42,0,0,0,1,.41,1.39,1.39,0,0,0,1-.4,1.42,1.42,0,0,0,0-2,48.87,48.87,0,0,0-7.47-6.22,167.54,167.54,0,0,1,21.11,3.75,1.12,1.12,0,0,0,.36.05,1.41,1.41,0,0,0,.36-2.77,163.43,163.43,0,0,0-24.08-4.12,86.94,86.94,0,0,1,16.3-2.56,1.41,1.41,0,0,0,1.35-1.47,1.43,1.43,0,0,0-1.47-1.34c-11.06.46-23.13,4.34-23.63,4.51a1.31,1.31,0,0,0-.59.38c-1.11,0-2.21,0-3.31,0a42.66,42.66,0,0,1,11.52-4.88,1.4,1.4,0,1,0-.74-2.71c-1.38.37-2.67.78-3.87,1.21a46.17,46.17,0,0,0,10.72-7.81,1.4,1.4,0,1,0-2-2c-.1.1-8.64,8.6-16.83,9.49.35-.35.7-.7,1-1.06h0A55.94,55.94,0,0,0,284.9,174.6a1.41,1.41,0,1,0-2-2,57,57,0,0,1-9.35,7c4.36-5.36,11.88-15.42,12.59-21.9a1.41,1.41,0,0,0-2.8-.31c-.42,3.8-3.87,9.67-8.06,15.39C277,168.81,277.89,166.45,277.9,166.41Zm-11.64,22.77a17.64,17.64,0,0,0,5.21-.85,31.8,31.8,0,0,0-7.68,4.83c-1.5.11-3,.26-4.41.46,1.82-1.45,3.6-3,5.32-4.53A13.6,13.6,0,0,0,266.26,189.18Z"/><path class="cls-6" d="M251.47,111.16a1.41,1.41,0,0,0-2.73.67c1.14,4.67-.27,15.46-.28,15.57v0c-.68,1.05-1.39,2.07-2.11,3.08a73.53,73.53,0,0,0,0-10.86,1.41,1.41,0,0,0-2.81.22c0,.1.74,9.48-.84,15.4-.89,1.12-1.8,2.19-2.7,3.24a98,98,0,0,0,.5-11.09,1.41,1.41,0,0,0-1.41-1.39h0a1.41,1.41,0,0,0-1.38,1.43c0,.11.14,10.3-1.27,15-.92,1-1.81,1.91-2.68,2.79a96.4,96.4,0,0,0,.53-11.42,1.41,1.41,0,0,0-1.4-1.39h0a1.42,1.42,0,0,0-1.38,1.43c0,.1.14,10-1.2,14.79-3.5,3.32-5.92,5.29-6,5.34a1.4,1.4,0,0,0-.22,2,1.43,1.43,0,0,0,1.1.52,1.39,1.39,0,0,0,.88-.31c.16-.13,1.12-.9,2.61-2.22a25.16,25.16,0,0,0,6.35.67,79.35,79.35,0,0,0,12-1.1,1.42,1.42,0,0,0,1.14-1.63,1.4,1.4,0,0,0-1.63-1.14c-.11,0-9.35,1.62-15.25.85,1.1-1,2.33-2.19,3.64-3.5a43.19,43.19,0,0,0,4.77.23c4.71,0,9.72-.45,10-.48a1.41,1.41,0,1,0-.25-2.8,114.37,114.37,0,0,1-12,.43c.87-.92,1.77-1.89,2.68-2.9a10.68,10.68,0,0,0,2.64.28c5.21,0,13.4-2.08,16.33-2.88a1.41,1.41,0,0,0-.73-2.72c-5.83,1.58-12.67,2.87-16,2.82.78-.91,1.56-1.85,2.34-2.81l.72,0c5.94,0,16.7-4,18-4.48a1.41,1.41,0,0,0-1-2.64c-3,1.15-10.69,3.72-15.49,4.22l.86-1.17c2.8-.89,14.45-4.84,17.64-9.42a1.4,1.4,0,1,0-2.3-1.61c-1.81,2.59-8,5.35-12.59,7.09.42-.64.83-1.29,1.24-1.94,7.93-3.47,11.33-7.31,11.47-7.48a1.4,1.4,0,1,0-2.12-1.84,26.5,26.5,0,0,1-6.42,4.73c5.93-5.65,7.77-10.13,7.85-10.32a1.41,1.41,0,1,0-2.61-1,22.61,22.61,0,0,1-2.78,4.46c2.26-6.45,4.15-14,4.44-18.6a1.41,1.41,0,0,0-2.81-.17c-.38,6.07-3.87,18.08-7,24.55C252.06,118.15,252.13,113.87,251.47,111.16Z"/><path class="cls-6" d="M211.32,93.18a.76.76,0,0,0,.11.14q.69,2.58,1.5,5A79.79,79.79,0,0,1,202,91.17a1.41,1.41,0,1,0-1.73,2.22c1,.75,9.12,7,13.84,8.51.51,1.39,1,2.73,1.55,4-3.19-1.24-8.21-3.69-11.49-5.39a1.39,1.39,0,0,0-1.89.6,1.41,1.41,0,0,0,.6,1.9c1.84,1,10.47,5.38,14.22,6.32.8,1.83,1.59,3.51,2.33,5a112.35,112.35,0,0,1-11.34-4.57,1.41,1.41,0,1,0-1.19,2.55c.38.18,9.19,4.31,14.24,5.4,1.36,2.57,2.33,4.19,2.5,4.47a1.39,1.39,0,0,0,1.2.68c-.5.72-.79,1.12-.81,1.14a1.41,1.41,0,0,0,2.27,1.67l.13-.18h.71c5.51,0,14.41-2.58,14.83-2.7a1.41,1.41,0,0,0-.79-2.7,74.78,74.78,0,0,1-12.8,2.55c.51-.77,1.11-1.68,1.77-2.71h.12c3.83,0,12.76-2.85,15.64-3.8a1.41,1.41,0,0,0-.89-2.67A104.17,104.17,0,0,1,232,117c1-1.57,2-3.32,3-5.21,5.14-.2,15.2-5,16.4-5.56a1.4,1.4,0,0,0-1.22-2.53c-2.69,1.3-9.37,4.23-13.53,5.06q1.34-2.49,2.64-5.21a1.31,1.31,0,0,0,.27-.19c2.83-1.58,13.13-7.47,15.42-10.9a1.41,1.41,0,0,0-2.34-1.57c-1.34,2-7,5.65-11.29,8.19.16-.36.31-.73.47-1.1a1.47,1.47,0,0,0,.1-.13,4.89,4.89,0,0,0,.42-1.13,2.72,2.72,0,0,0,.11-.25,42.82,42.82,0,0,0,9.6-12.28,1.42,1.42,0,0,0-.64-1.89,1.4,1.4,0,0,0-1.88.64,43.23,43.23,0,0,1-4.7,7.08c2.08-6.59,5-20.06,5.19-25.81a1.4,1.4,0,0,0-1.35-1.46,1.37,1.37,0,0,0-1.46,1.34,102.56,102.56,0,0,1-2.39,14.64c-.59-2.61-1.22-4.81-1.28-5a1.41,1.41,0,0,0-2.7.79c.65,2.24,2.32,8.65,2.22,11.35,0,0,0,.07,0,.11-.35,1.29-.69,2.43-1,3.42A58.49,58.49,0,0,0,239,79.68a1.41,1.41,0,0,0-2.59,1.12c1.83,4.25,4.18,11.69,3.38,15-.2.49-.41,1-.61,1.45-.77-3.65-2-8.44-3.55-11.12a1.4,1.4,0,0,0-2.43,1.41c2,3.47,3.51,11.54,4,14.17-.66,1.4-1.34,2.78-2,4.1A54.66,54.66,0,0,0,232.41,95a1.41,1.41,0,0,0-2.64,1c0,.09,3.23,8.78,2.65,14.79l-1,1.82c-.11-4.55-.72-9.08-.76-9.37a1.41,1.41,0,0,0-2.79.39c0,.09,1.19,8.85.59,13.9-.84,1.34-1.6,2.51-2.25,3.47a1,1,0,0,0-.09-.21c-.07-.11-2.32-3.86-5-9.65,0-4.29,2.59-12,2.61-12.13a1.4,1.4,0,0,0-2.66-.9,73.35,73.35,0,0,0-2.16,8c-.54-1.3-1.08-2.66-1.61-4.07.57-6.1,4.43-14.61,4.47-14.7a1.41,1.41,0,1,0-2.56-1.17,72.33,72.33,0,0,0-3.76,10.52c-.49-1.55-1-3.14-1.37-4.75.6-2.52,2.64-10.58,4.88-13.94a1.41,1.41,0,0,0-2.34-1.57c-1.51,2.27-2.88,6.19-3.87,9.55-1.32-7.25-1.55-14.7.42-21.37a1.41,1.41,0,1,0-2.7-.8,42,42,0,0,0-1.57,12.33,28.63,28.63,0,0,1-2.21-7.71,1.4,1.4,0,0,0-1.49-1.32,1.42,1.42,0,0,0-1.32,1.49c0,.25.43,6,5.51,14.83l.08.09c.22,1.61.49,3.2.81,4.79-3.52-3.48-7.34-7.73-7.93-9.83a1.41,1.41,0,1,0-2.71.76C200.77,83.42,209.31,91.35,211.32,93.18Z"/><path class="cls-6" d="M162.39,156.91c.18.07,8.8,3.43,20.34,7.59-5.66.62-12.31,1.63-12.7,1.69a1.41,1.41,0,0,0,.21,2.8l.22,0c.13,0,13.42-2,18.32-2.13l.28,0,.19,0,4.95,1.72c-5,.77-10.46,2.12-10.81,2.21a1.41,1.41,0,0,0,.34,2.77,1.32,1.32,0,0,0,.34,0c3.41-.85,13-3,16.43-2.64a1.35,1.35,0,0,0,.52.11l.24,0,1.82.6c-4.6.81-9.33,2.08-9.64,2.17a1.4,1.4,0,0,0,.37,2.76,1.18,1.18,0,0,0,.37-.05c3.17-.86,12.16-3,15.56-2.67h.15a1.4,1.4,0,0,0,.73.23h.07c5,1.55,9.84,2.94,14.17,4h0a1.41,1.41,0,0,0,.57,2.7h0s1.13,0,3-.29a1.06,1.06,0,0,0,.31,0,1.34,1.34,0,0,0,.64-.18,61,61,0,0,0,8.83-2.06c4.27,2.32,14.88,3.56,16.12,3.69h.16a1.4,1.4,0,0,0,.15-2.8,84.83,84.83,0,0,1-12.36-2.31c1-.38,2-.79,3-1.25a1.16,1.16,0,0,0,.37-.07c3.35,1.17,10,1.36,14,1.36,1.6,0,2.78,0,3.15,0a1.41,1.41,0,1,0-.08-2.81,97.67,97.67,0,0,1-13.16-.51c.69-.36,1.38-.75,2.08-1.15a12.41,12.41,0,0,0,2.13.16c5.22,0,13.37-2,14.43-2.23a1.41,1.41,0,1,0-.67-2.73,89.85,89.85,0,0,1-11.45,2c.79-.55,1.59-1.12,2.39-1.71h.19c4.64-.59,13.87-6.72,14.91-7.42a1.41,1.41,0,0,0-1.57-2.34c-1.4.94-4.19,2.7-7,4.22a73.42,73.42,0,0,0,11.24-13.86,1.41,1.41,0,0,0-2.38-1.5,72.6,72.6,0,0,1-4.86,6.8,162.32,162.32,0,0,0,8.86-27.1,1.4,1.4,0,0,0-2.74-.62,178.16,178.16,0,0,1-5.73,19.2,26.08,26.08,0,0,0-.84-6.18,1.41,1.41,0,0,0-2.69.82c0,.06,1.56,5.36.1,13.77a67,67,0,0,1-4.21,7.87l-1.06,1a25.64,25.64,0,0,0,2.43-5.38,1.41,1.41,0,0,0-2.71-.75c0,.06-1.6,5.55-7.59,12-.41.27-.82.52-1.23.77.36-.57.71-1.16,1.06-1.77a1.41,1.41,0,0,0,.31-.58c5-9.06,8.36-21.45,8.56-22.19a1.4,1.4,0,1,0-2.71-.74,130,130,0,0,1-5.19,15c-.05-2.72-.47-5.54-1.71-7.36a1.41,1.41,0,0,0-2.33,1.58c1.86,2.73,1.19,9.81.71,12.75-.17.32-.35.62-.53.93a15.46,15.46,0,0,0-1.42-9.81,1.41,1.41,0,0,0-2.46,1.37c3,5.36-.06,12.73-.72,14.19l-.15.12c-1,.45-1.95.86-2.9,1.24a22.26,22.26,0,0,0,2.57-13,1.41,1.41,0,1,0-2.8.29,19.78,19.78,0,0,1-4.19,14.27c-1.73.55-3.34,1-4.78,1.31a22.3,22.3,0,0,0,4.72-12.3,1.41,1.41,0,1,0-2.81-.19,19.75,19.75,0,0,1-6.59,13.36c-1.16.16-2,.23-2.47.26a1.37,1.37,0,0,0,.71-.89,1.4,1.4,0,0,0-1-1.7c-4.38-1.1-9.27-2.51-14.34-4.08-2.93-2.86-7.39-11-8.92-14a1.41,1.41,0,0,0-2.51,1.27,109.52,109.52,0,0,0,6.58,11.24l-4.47-1.47-.14-.25,0,0-3.95-7.38s0-.09,0-.13c-.45-10.39,1.78-15,1.8-15a1.41,1.41,0,0,0-2.51-1.28c-.08.17-1.8,3.63-2.11,11.19l-1.71-3.2c.2-3.74-1.88-12.8-2-13.19a1.41,1.41,0,1,0-2.74.63c.29,1.25.79,3.62,1.21,6l-14.56-27.19a1.41,1.41,0,0,0-2.48,1.33l4.45,8.31c-.51-.6-.85-1-.91-1a1.41,1.41,0,0,0-2.12,1.85c.08.1,8.25,9.44,10.1,12.8a1.53,1.53,0,0,0,.48.5l3.54,6.6c-4.1-4-8.28-7.76-8.58-8a1.41,1.41,0,1,0-1.89,2.08c.12.11,12.07,11,15.35,15.07l3.22,6c-4-3.38-8.24-7.7-8.3-7.76a1.42,1.42,0,0,0-2,0,1.4,1.4,0,0,0,0,2c.24.25,4.06,4.13,8,7.47-1.47-.51-2.92-1-4.35-1.52-5.23-3.09-14.12-11.16-14.22-11.24a1.41,1.41,0,0,0-1.89,2.08c.22.2,3.21,2.92,6.76,5.81-9.75-3.56-16.72-6.28-16.88-6.34a1.41,1.41,0,1,0-1,2.62Z"/><path class="cls-7" d="M207.38,208.47a1.41,1.41,0,0,0,.49,2.73,1.36,1.36,0,0,0,.48-.09c.47-.17,11.22-4.15,15.19-7.05l1.27.07h0a1.41,1.41,0,0,0,0-2.82c-.07,0-1.26,0-3.26-.25l-.51-.11c-1-1.24-5-6.58-4.14-12.59a1.41,1.41,0,1,0-2.78-.41,17.05,17.05,0,0,0,1.3,9c-.11-.11-.22-.23-.32-.35-1.34-2.85-4.62-11-3.81-14.41a1.41,1.41,0,0,0-2.74-.65,15.15,15.15,0,0,0,.49,6.53,91.81,91.81,0,0,1-5.17-10.11,1.41,1.41,0,1,0-2.59,1.1c.37.87,1.85,4.26,4.05,8.27a27.81,27.81,0,0,0-4.74-2.19,1.41,1.41,0,1,0-.94,2.65,25.33,25.33,0,0,1,8.54,5.09,28.67,28.67,0,0,0-7.16-1.74,1.4,1.4,0,0,0-1.48.94,25.36,25.36,0,0,1-1.15-8.35,1.41,1.41,0,0,0-1.38-1.43h0a1.42,1.42,0,0,0-1.41,1.38,26.23,26.23,0,0,0,2.14,11.48l-1.87-.78a20.93,20.93,0,0,1-4.67-13.85,1.39,1.39,0,0,0-1.38-1.43,1.44,1.44,0,0,0-1.43,1.38,24.52,24.52,0,0,0,2.61,11.61l-.49-.25c-5.84-8.25-6.52-13.44-6.53-13.48a1.4,1.4,0,1,0-2.79.3c0,.19.47,4,4,10.14-1.42-.91-2.84-1.88-4.24-2.92-5.16-8.92-5.61-14.72-5.61-14.77a1.41,1.41,0,0,0-2.81.17c0,.2.28,3.93,2.93,10a60.45,60.45,0,0,1-7.55-8.5,1.41,1.41,0,0,0-2.27,1.66,63.49,63.49,0,0,0,12,12.46c-2.83-1.18-5.55-2.48-7-3.22a1.41,1.41,0,0,0-1.27,2.51c1.17.59,11.31,5.67,16.11,6.08q1.32.78,2.64,1.5a86.11,86.11,0,0,1-12.17-1,1.41,1.41,0,0,0-1.6,1.18,1.4,1.4,0,0,0,1.17,1.6,88.77,88.77,0,0,0,12.06,1.08,18.52,18.52,0,0,0,4.92-.51l.13-.05c.54.25,1.09.5,1.63.73a1.35,1.35,0,0,0,.56.25,90.53,90.53,0,0,1-13.52,1.74,1.41,1.41,0,0,0,.08,2.82h.08c1.34-.07,13.11-.79,17.38-3,1.1.41,2.19.79,3.26,1.14a83.47,83.47,0,0,1-12.25,3.42,1.4,1.4,0,0,0,.27,2.78,1.32,1.32,0,0,0,.28,0c1.2-.24,11.49-2.35,15.63-5q2.5.71,4.79,1.21A117.23,117.23,0,0,1,199,206.75a1.41,1.41,0,0,0,.44,2.75,1.62,1.62,0,0,0,.44-.07c.47-.16,11.19-3.69,15.34-6.45,1.34.24,2.57.43,3.67.58A124.33,124.33,0,0,1,207.38,208.47ZM202,196.71a11.52,11.52,0,0,1-1.76-3,1.58,1.58,0,0,0,.53.18,23.25,23.25,0,0,1,13.4,5.81,1.59,1.59,0,0,0,.37.27l0,0A93.66,93.66,0,0,1,202,196.71Z"/><path class="cls-7" d="M109.75,300.7a1.5,1.5,0,0,0,.61-.14,169.54,169.54,0,0,1,16.94-6.74,54.17,54.17,0,0,0-7.7,9.38,1.42,1.42,0,0,0,.41,1.95,1.47,1.47,0,0,0,.77.23,1.42,1.42,0,0,0,1.18-.64c5.85-8.92,11.82-12.68,12.87-13.29q2.68-.78,5.51-1.49a48.87,48.87,0,0,0-7.22,8.54,1.41,1.41,0,0,0,.37,2,1.46,1.46,0,0,0,.79.24,1.42,1.42,0,0,0,1.17-.62,40.36,40.36,0,0,1,11.2-11.52q2.57-.51,5.15-.88a53.08,53.08,0,0,0-8.13,9.55,1.41,1.41,0,0,0,2.34,1.58c5-7.35,9.68-10.81,11.07-11.74,1.85-.15,3.69-.24,5.51-.25a45.86,45.86,0,0,0-8.63,9.82,1.41,1.41,0,1,0,2.33,1.58c5.31-7.88,10.07-10.78,10.92-11.25h.17c1.11.56,2.23,1.1,3.36,1.64a41.79,41.79,0,0,0-9,8.45,1.41,1.41,0,1,0,2.18,1.78c4.77-5.83,8.92-8.26,9.94-8.8,1.3.59,2.6,1.17,3.91,1.73a42.58,42.58,0,0,0-8.65,8.18,1.4,1.4,0,0,0,.2,2,1.35,1.35,0,0,0,.89.32,1.42,1.42,0,0,0,1.09-.52,36.2,36.2,0,0,1,9.63-8.63c2.09.87,4.18,1.7,6.24,2.49a43.32,43.32,0,0,0-8.94,7.11,1.41,1.41,0,1,0,2,2,36,36,0,0,1,10.48-7.76c1.19.44,2.37.87,3.53,1.28a43.74,43.74,0,0,0-8.85,7.06,1.42,1.42,0,0,0,0,2,1.4,1.4,0,0,0,1,.41,1.42,1.42,0,0,0,1-.43,35.77,35.77,0,0,1,10.49-7.75,1.72,1.72,0,0,0,.54.18q3.11,1.05,6,2a43.36,43.36,0,0,0-8.7,7,1.41,1.41,0,0,0,2,2,35.91,35.91,0,0,1,10.48-7.76c1.82.56,3.55,1.08,5.14,1.54a43.54,43.54,0,0,0-8.59,6.9,1.41,1.41,0,0,0,1,2.4,1.41,1.41,0,0,0,1-.42,36,36,0,0,1,10.5-7.77c4.37,1.22,7.19,1.9,7.65,2l.33,0a1.4,1.4,0,0,0,.33-2.77c-.12,0-2.86-.7-7.31-1.94-2.72-3.28-5.07-12.35-5.75-15.6a1.41,1.41,0,0,0-2.76.58c.09.42,1.81,8.51,4.5,13.87-1.67-.49-3.48-1-5.41-1.63a1.36,1.36,0,0,0-.39-.12l-.17,0c-2.52-3.68-4.66-11.94-5.3-15a1.41,1.41,0,1,0-2.75.58,71,71,0,0,0,4.16,13.19c-1.62-.53-3.31-1.09-5-1.68-2.62-3.52-4.85-12.13-5.51-15.27a1.41,1.41,0,1,0-2.75.58,71.17,71.17,0,0,0,4.21,13.28l-.66-.23a33.18,33.18,0,0,1-5.31-5.55l0-.15c-1.22-3.51-.86-12.39-.61-15.51a1.41,1.41,0,0,0-2.81-.22,95.64,95.64,0,0,0-.17,10.63c-.58-.94-1.13-1.89-1.67-2.85-1.94-5.26-.52-13.92-.51-14a1.4,1.4,0,0,0-2.77-.47,46.69,46.69,0,0,0-.56,6.92,122.5,122.5,0,0,1-4.76-11.9,1.41,1.41,0,1,0-2.68.86,123.39,123.39,0,0,0,6.12,14.86c-1.73-2.2-2.75-3.81-2.77-3.84a1.4,1.4,0,1,0-2.38,1.49,56.82,56.82,0,0,0,10.75,12.26,54.22,54.22,0,0,0,3.82,5.13c-3.31-1.26-6.67-2.62-10-4.07-3.06-3-6.41-11.58-7.45-14.68a1.41,1.41,0,1,0-2.67.9,74.53,74.53,0,0,0,5.06,11.51q-2.07-1-4.1-2l-.11-.17c-2.73-3.23-5-12.62-5.7-16a1.41,1.41,0,0,0-2.76.54,73.44,73.44,0,0,0,4,13.22c-1.8-1-3.56-2-5.26-3-3.13-2.68-5.28-11.79-5.85-15.14a1.4,1.4,0,0,0-2.77.47,56,56,0,0,0,3.13,11.15c-1.09-.76-2.16-1.53-3.17-2.31l-.09-.07c-5.9-8.22-6.92-14.2-6.93-14.26a1.38,1.38,0,0,0-.6-.94l0,0s4-4.59,13.68-7.9c1.68-.05,3.45-.07,5.29-.06-5.87,2.72-8.45,5.5-8.59,5.65a1.41,1.41,0,0,0,.09,2,1.39,1.39,0,0,0,.95.37,1.43,1.43,0,0,0,1-.46c0-.05,4.08-4.39,13.94-7.35,3.26.18,6.66.46,10.12.9-7.12,2.94-10.21,6.26-10.37,6.43a1.41,1.41,0,0,0,.1,2,1.41,1.41,0,0,0,2-.09c0-.05,4.15-4.47,14.2-7.43,2.25.4,4.52.87,6.78,1.43-7.79,3-11.14,6.62-11.3,6.8a1.41,1.41,0,0,0,.09,2,1.43,1.43,0,0,0,.95.36,1.39,1.39,0,0,0,1-.46s4.11-4.41,14-7.37c2.1.64,4.19,1.36,6.24,2.16-8.22,3.07-11.74,6.86-11.91,7a1.41,1.41,0,0,0,.1,2,1.44,1.44,0,0,0,.95.37,1.41,1.41,0,0,0,1-.46s4.11-4.35,13.74-7.28a67.83,67.83,0,0,1,7,3.75c-8.5,1.82-12.48,4.89-12.67,5a1.41,1.41,0,0,0-.23,2,1.4,1.4,0,0,0,2,.24c.05,0,4.57-3.48,14.29-5q1.74,1.25,3.38,2.63C212.2,269,208,272,207.85,272.14a1.41,1.41,0,0,0,.85,2.53,1.39,1.39,0,0,0,.84-.28c.05,0,4.56-3.29,14.11-4.61l.56.53a1.4,1.4,0,0,0,2,0,1.41,1.41,0,0,0,0-2,56.93,56.93,0,0,0-5.78-5,1.43,1.43,0,0,0-.27-.28c-2.75-2.12-4.84-10.11-5.42-13a1.41,1.41,0,0,0-2.76.55,51,51,0,0,0,2.64,8.86c-.66-.39-1.31-.77-2-1.13l-.09-.09c-2.76-2.13-4.85-10.12-5.42-13a1.41,1.41,0,0,0-2.76.54,48.49,48.49,0,0,0,3.14,10c-1.22-.55-2.46-1.06-3.7-1.54-2.73-2.19-4.8-10.09-5.37-13a1.41,1.41,0,1,0-2.76.55,46.9,46.9,0,0,0,3.53,10.79c-2.07-.67-4.15-1.25-6.23-1.77-2.68-2.31-4.71-10-5.27-12.88a1.41,1.41,0,0,0-2.76.54,45.51,45.51,0,0,0,3.84,11.39c-1.18-.25-2.37-.47-3.55-.68-.92-.34-1.84-.7-2.74-1.06-2.73-2.19-4.8-10.09-5.37-13a1.41,1.41,0,1,0-2.76.54A48.09,48.09,0,0,0,177.63,246q-2.55-1.22-4.95-2.52c-2.63-2.42-4.6-10-5.15-12.78a1.42,1.42,0,0,0-1.66-1.11,1.41,1.41,0,0,0-1.11,1.65,50.62,50.62,0,0,0,2.81,9.26c-1.15-.72-2.27-1.44-3.35-2.16-1.49-2.05-2.5-6.32-2.81-8.92a1.41,1.41,0,1,0-2.8.34,36.37,36.37,0,0,0,1.14,5.41A103,103,0,0,1,143.25,220a1.41,1.41,0,1,0-2.18,1.78,96.13,96.13,0,0,0,10.72,10.56,35.39,35.39,0,0,0-6.86-.66,1.41,1.41,0,1,0,.06,2.81,32.12,32.12,0,0,1,11.83,2.29,1.46,1.46,0,0,0,.57.12h.06l.08.07a24.52,24.52,0,0,0-4-.29,1.41,1.41,0,1,0,.06,2.81,24.8,24.8,0,0,1,10.24,2.25,1.34,1.34,0,0,0,.64.15h.12l1.46.92a32.31,32.31,0,0,0-5.61.61,1.41,1.41,0,0,0,.3,2.78,1.53,1.53,0,0,0,.3,0,28,28,0,0,1,10.56-.06h0l.18,0c1.06.58,2.14,1.14,3.25,1.69a148.4,148.4,0,0,0-15.51-.57c-11.18-5.41-18.77-4.21-19.09-4.16a1.41,1.41,0,0,0,.47,2.78c.06,0,4.6-.69,11.72,1.62A133.11,133.11,0,0,0,138.46,249a1.4,1.4,0,0,0,.47,2.77c.15,0,3.81-.63,9.67-1.07a27.36,27.36,0,0,0-7.76,5.67,1.4,1.4,0,0,0,.17,2l.13.07a1.39,1.39,0,0,0-.37,1.18,26.62,26.62,0,0,0,2,6.12c-5.44-6.41-10.61-14.3-11.55-18.34a1.41,1.41,0,1,0-2.74.64c1.34,5.73,9.22,16.75,15.88,23.62-7.15-3.86-14.54-11.5-14.64-11.6a1.4,1.4,0,1,0-2,1.94c.53.56,13,13.44,22.22,14.56.63.46,1.27.93,1.93,1.38-8.83.86-21.26-4.8-21.4-4.87a1.41,1.41,0,1,0-1.18,2.56,70.29,70.29,0,0,0,11.7,4c-.34,0-.67-.07-1-.09a1.4,1.4,0,0,0-.22,2.8,43.14,43.14,0,0,1,12,2.55c-1.17.16-2.33.34-3.49.54a1.34,1.34,0,0,0-.69-.22,144.78,144.78,0,0,0-24.41,1,1.41,1.41,0,0,0,.2,2.8.75.75,0,0,0,.21,0,112.91,112.91,0,0,1,13.47-1A175.72,175.72,0,0,0,109.14,298a1.41,1.41,0,0,0,.61,2.68ZM150,280.78a19.07,19.07,0,0,0,5.21-.67l2.43,1.5.06.05a.72.72,0,0,0,.23.12c1.26.76,2.56,1.51,3.88,2.24-1.52,0-3.05.09-4.58.21l-.21,0a32,32,0,0,0-9.15-3.5Q148.91,280.78,150,280.78Z"/><path class="cls-7" d="M150.08,222.07a149.17,149.17,0,0,1,15-.43,26.54,26.54,0,0,0-7.7,4.2,1.4,1.4,0,0,0-.11,2,1.37,1.37,0,0,0,1.05.48,1.44,1.44,0,0,0,.93-.35s4.61-4,14.65-5.84c1.36.12,2.74.27,4.12.44-6.58,2.15-9.87,4.85-10,5a1.41,1.41,0,0,0,.91,2.48,1.39,1.39,0,0,0,.9-.33c.05,0,5-4.08,15.05-6,1.57.34,3.1.73,4.58,1.17-8.23,2.22-12.5,5.6-12.71,5.76a1.41,1.41,0,0,0-.21,2,1.43,1.43,0,0,0,1.1.52,1.39,1.39,0,0,0,.88-.31c.05,0,5.22-4.12,15.25-6.05l.44.28a1.49,1.49,0,0,0,.51.33q2,1.25,3.91,2.37c-8.11,1-12.17,3.63-12.37,3.76a1.41,1.41,0,0,0,.78,2.58,1.33,1.33,0,0,0,.76-.23c.05,0,5.11-3.23,15.24-3.66l1,.54.18.13a1.47,1.47,0,0,0,.5.22l1.3.65c-7.9,1.15-11.85,3.93-12,4.07a1.41,1.41,0,0,0-.32,2,1.4,1.4,0,0,0,2,.32c.05,0,5.05-3.57,15.37-4l.49.22c-3.09.92-7.28,2.36-9,3.8a1.4,1.4,0,0,0,.89,2.49,1.37,1.37,0,0,0,.89-.32c1.91-1.56,8.79-3.54,11.41-4.21,1.36.55,2.58,1,3.65,1.42-3,.92-6.73,2.25-8.36,3.59a1.41,1.41,0,1,0,1.78,2.18c1.89-1.55,8.58-3.49,11.29-4.18a1.33,1.33,0,0,0,.34.05,1.41,1.41,0,0,0,1.25-.8,1.5,1.5,0,0,0,.5-.14c.07,0,1.57-.81,4.1-2,6.46.86,12.42,5.48,12.48,5.52a1.41,1.41,0,0,0,.87.3,1.37,1.37,0,0,0,1.1-.54,1.4,1.4,0,0,0-.23-2,35,35,0,0,0-10.05-5.25c1.25-.56,2.61-1.17,4.07-1.8,6.43.88,12.34,5.46,12.41,5.51a1.39,1.39,0,0,0,.86.3,1.41,1.41,0,0,0,.87-2.52,35.17,35.17,0,0,0-9.75-5.15l2.71-1.1C252,232.33,258,237,258.1,237a1.41,1.41,0,0,0,1.74-2.22,35.14,35.14,0,0,0-9.64-5.11c1.12-.42,2.27-.84,3.43-1.25,6,2.56,10.46,8.54,10.5,8.6a1.39,1.39,0,0,0,1.14.57,1.4,1.4,0,0,0,1.13-2.24,34.6,34.6,0,0,0-9.09-8.2l2.43-.8h.06a38.92,38.92,0,0,1,4.39-.21c5.05,3.59,8.1,9.6,8.14,9.66a1.39,1.39,0,0,0,1.26.77,1.37,1.37,0,0,0,.62-.14,1.41,1.41,0,0,0,.63-1.89,34.4,34.4,0,0,0-5.95-8.09,39.91,39.91,0,0,1,6.44,1.39c5.24,3.95,8.13,11,8.16,11.1a1.4,1.4,0,0,0,1.3.88,1.42,1.42,0,0,0,.53-.1,1.4,1.4,0,0,0,.78-1.83,35.61,35.61,0,0,0-4.4-7.56,37.44,37.44,0,0,1,8.4,5.46,1.41,1.41,0,1,0,1.93-2,39.1,39.1,0,0,0-8.72-5.8,33.53,33.53,0,0,1,6.92,1.79,1.42,1.42,0,0,0,.53.1,1.41,1.41,0,0,0,.54-2.71c-.33-.13-7.9-3.18-15.19-2a43.06,43.06,0,0,0-6.9-1.45c2.4-.6,4.8-1.14,7.19-1.59l.18,0h0c8-.1,16,4.33,16,4.38A1.41,1.41,0,0,0,294,224a42.08,42.08,0,0,0-7.87-3.26l1.76-.11c4.63-.2,15.92.51,19.8,1.62a1.41,1.41,0,1,0,.77-2.71c-3-.87-9.89-1.48-15.29-1.68A73.64,73.64,0,0,1,305.74,215a1.4,1.4,0,1,0-.36-2.78c-.56.07-13.43,1.78-18.61,5.65-1.08.07-2.17.15-3.26.27a78.36,78.36,0,0,1,12.36-7.28,1.4,1.4,0,1,0-1.18-2.55c-.47.21-11.36,5.29-16.12,10.48-2.73.44-5.5,1-8.26,1.65a57.38,57.38,0,0,1,11.18-8.63,1.41,1.41,0,1,0-1.4-2.44c-.42.24-10.21,5.94-14.28,12.22-3,.81-5.94,1.7-8.81,2.65,3.91-5.19,10.42-9.93,10.5-10a1.41,1.41,0,0,0-1.65-2.28c-.4.29-9.61,7-13.12,13.74-2.13.75-4.21,1.53-6.2,2.3,2.63-5.45,7.93-11,8-11a1.41,1.41,0,0,0-2-2c-.31.32-7.43,7.73-9.58,14.43-2.21.9-4.29,1.78-6.19,2.62a52.94,52.94,0,0,1,7.81-10.67,1.41,1.41,0,1,0-2-2c-.31.32-7.34,7.64-9.53,14.3-4.75,2.17-7.78,3.74-8.19,4a1.34,1.34,0,0,0-.55.53l-.2-.07c-.74-.48-1.44-1-2.12-1.54-2.19-10-.41-16.18-.39-16.24a1.41,1.41,0,1,0-2.69-.82c-.08.24-1.57,5.34-.36,13.82-.85-.93-1.63-1.89-2.36-2.86-2.13-9.85-.35-15.52-.33-15.57a1.41,1.41,0,0,0-2.67-.9c-.06.2-1.25,3.84-.75,10.35a46.87,46.87,0,0,1-4-11,1.41,1.41,0,0,0-2.77.52,47.36,47.36,0,0,0,3.57,10.52,26.28,26.28,0,0,1-5.28-7,1.41,1.41,0,1,0-2.59,1.09c.1.26,2.73,6.34,11.87,12.94a1.29,1.29,0,0,0,.16.09l.23.31a1.25,1.25,0,0,0,.4.53,38.44,38.44,0,0,0,2.5,3c-3.06-1.24-6.79-2.9-10.85-5-3.76-2.94-4.9-11.73-5-14.93a1.41,1.41,0,0,0-2.82.1,38.66,38.66,0,0,0,2.48,11.91c-1.39-.8-2.8-1.66-4.22-2.56-2.85-3.32-2.44-11.78-2-14.81a1.41,1.41,0,0,0-1.21-1.58,1.39,1.39,0,0,0-1.58,1.2c0,.37-.9,6.91.44,12.27-.93-.65-1.86-1.32-2.78-2,0,0,0-.09-.1-.13-3.41-3.11-3.17-11.44-2.79-14.39a1.41,1.41,0,0,0-2.79-.36,33.72,33.72,0,0,0,.46,10.65c-.76-.65-1.51-1.33-2.25-2a1.88,1.88,0,0,0-.12-.18c-2.65-2.69-3.22-11.13-3.21-14.16a1.41,1.41,0,0,0-1.41-1.41h0a1.42,1.42,0,0,0-1.41,1.4,48.15,48.15,0,0,0,.88,9c-.38-.43-.76-.85-1.13-1.28s-.73-.89-1.12-1.4l-.08-.21c-4.49-9.46-4.43-15.37-4.43-15.42a1.41,1.41,0,0,0-1.37-1.44A1.37,1.37,0,0,0,166.6,190a26.68,26.68,0,0,0,.89,6.17c-4.07-6.61-8.11-14.18-9.69-18.82a1.41,1.41,0,1,0-2.66.91c2.52,7.4,11.1,22,16.45,29a100.17,100.17,0,0,1-13.05-5.87,1.41,1.41,0,1,0-1.34,2.48c.46.24,11.29,6.09,17.05,7l.39,0q1.85,2,3.8,3.91a83.84,83.84,0,0,1-12.07-3,1.41,1.41,0,1,0-.88,2.68c1.12.36,10.39,3.35,15.46,3.35.27,0,.52,0,.77,0,1.27,1.12,2.56,2.18,3.87,3.21h0a1.31,1.31,0,0,0-.59-.14,94,94,0,0,0-10.91-1.57H174l-1.16-.09c-9.38-5.52-15.78-5.56-16.06-5.56a1.41,1.41,0,0,0,0,2.81,26.85,26.85,0,0,1,9.14,2.4,147.7,147.7,0,0,0-16.08.45,1.41,1.41,0,0,0-1.27,1.53A1.43,1.43,0,0,0,150.08,222.07Z"/><path class="cls-7" d="M93.74,345.72l1.12-.49c3-1.28,8.32-3.62,13.5-5.8a29,29,0,0,0-4.64,4.88,1.39,1.39,0,0,0,.36,2,1.43,1.43,0,0,0,.79.24,1.41,1.41,0,0,0,1.16-.6c0-.07,4.45-6.33,15.14-11.41a2.46,2.46,0,0,0,.27-.17c1.67-.49,3.33-.93,5-1.34a78.2,78.2,0,0,0-11.19,11.24,1.41,1.41,0,0,0,.22,2,1.44,1.44,0,0,0,.88.3,1.41,1.41,0,0,0,1.1-.53c.1-.12,10.06-12.51,17.33-14.55a1.3,1.3,0,0,0,.46-.22l1.29-.21c-5.85,4.85-9.53,12.47-9.74,12.92a1.41,1.41,0,0,0,.67,1.87,1.42,1.42,0,0,0,.6.14,1.4,1.4,0,0,0,1.27-.81c.07-.13,6.35-13.15,14.8-15q2.91-.25,5.76-.36c-5.76,4.2-9.3,11.31-9.5,11.71a1.41,1.41,0,0,0,.64,1.88,1.38,1.38,0,0,0,.62.15,1.42,1.42,0,0,0,1.27-.79c.05-.12,5.78-11.61,13.8-13,2.56,0,5.09.15,7.56.33-6.81,4-10.88,11.75-11.1,12.17a1.41,1.41,0,0,0,.61,1.9,1.44,1.44,0,0,0,.64.16,1.4,1.4,0,0,0,1.25-.77c.06-.11,6-11.42,14.88-12.84,2.51.3,4.95.67,7.33,1.08-7.51,3.56-11.88,11.48-12.11,11.9a1.4,1.4,0,0,0,.57,1.9,1.36,1.36,0,0,0,.67.17,1.4,1.4,0,0,0,1.24-.74c.06-.11,6.1-11.07,15.62-12,1.48.33,2.94.67,4.36,1-7.78,3.39-12.34,11.76-12.57,12.19a1.4,1.4,0,0,0,.57,1.9,1.45,1.45,0,0,0,.67.17,1.42,1.42,0,0,0,1.24-.74c.06-.12,6.12-11.18,15.47-12.05,1.87.55,3.67,1.12,5.39,1.69-8.12,3.22-12.9,12-13.14,12.43a1.39,1.39,0,0,0,.58,1.9,1.3,1.3,0,0,0,.66.17,1.41,1.41,0,0,0,1.24-.74c.06-.11,6.13-11.2,15.49-12.05,2,.73,3.82,1.47,5.53,2.19-8.53,3-13.57,12.21-13.81,12.66a1.41,1.41,0,0,0,.58,1.91,1.44,1.44,0,0,0,.66.17,1.4,1.4,0,0,0,1.24-.75c.06-.11,6.23-11.39,15.73-12.07,1.3.6,2.49,1.17,3.56,1.7-8.66,2.9-13.78,12.28-14,12.74a1.4,1.4,0,0,0,.57,1.9,1.34,1.34,0,0,0,.67.17,1.42,1.42,0,0,0,1.24-.74c.06-.12,6.08-11.16,15.45-12,1.8,1,2.79,1.6,2.86,1.64a1.36,1.36,0,0,0,.75.22,1.39,1.39,0,0,0,1.19-.66,1.41,1.41,0,0,0-.43-1.94c-.08,0-1.24-.76-3.34-1.9l-.1,0c-.88-.48-1.93-1-3.14-1.63-5.68-8.52-6.07-14.53-6.07-14.59a1.41,1.41,0,1,0-2.81.13c0,.24.29,5.07,4.25,12.26-1.14-.52-2.36-1.05-3.65-1.6-5.7-8.54-6.09-14.57-6.09-14.63a1.41,1.41,0,0,0-2.82.13c0,.24.3,5.28,4.52,12.73l-1.5-.56a1.25,1.25,0,0,0-.6-.22l-2.93-1.05c-5.65-8.48-6-14.48-6-14.53a1.38,1.38,0,0,0-1.47-1.34,1.41,1.41,0,0,0-1.34,1.47c0,.24.31,5.41,4.69,13-.82-.26-1.66-.51-2.51-.76a1.34,1.34,0,0,0-.77-.23l-2-.56c-5.68-8.52-6.07-14.53-6.07-14.58a1.39,1.39,0,0,0-1.47-1.34A1.41,1.41,0,0,0,183,317.5c0,.25.32,5.6,4.92,13.43l-2.7-.64a1.48,1.48,0,0,0-.92-.29l-.29,0-.4-.08c-5.39-8.27-5.77-14.07-5.77-14.12a1.41,1.41,0,0,0-1.47-1.34A1.4,1.4,0,0,0,175,316c0,.24.31,5.5,4.8,13.23-1.34-.25-2.7-.49-4.09-.7-5.67-8.52-6.06-14.53-6.06-14.58a1.41,1.41,0,1,0-2.81.13c0,.24.32,5.62,5,13.49a54.68,54.68,0,0,1-6.66-3.94c-5.61-8.45-6-14.42-6-14.47a1.41,1.41,0,1,0-2.81.13c0,.21.23,4.06,3.07,10l-1.5-1.29,0-.06c-5.82-8.63-6.21-14.74-6.21-14.8a1.4,1.4,0,0,0-1.47-1.34,1.42,1.42,0,0,0-1.34,1.47,26.26,26.26,0,0,0,2.25,8.15A113.85,113.85,0,0,1,140,297.62a1.41,1.41,0,0,0-2.35,1.55,107.06,107.06,0,0,0,7.45,9.72c-6.7-2.51-9.67-5.47-9.7-5.5a1.41,1.41,0,1,0-2,1.95c.2.2,4.76,4.82,15.42,7.67a91.41,91.41,0,0,0,14.44,12.66,1.46,1.46,0,0,0,.47.32c.64.44,1.3.86,2,1.28-2.69-.22-5.45-.37-8.25-.43-3.25-3.69-12.49-8.58-13.58-9.15a1.41,1.41,0,0,0-1.31,2.5,83.8,83.8,0,0,1,10.71,6.64q-3.89,0-7.89.34c-4.23-4-15.6-8.38-16.1-8.57a1.41,1.41,0,1,0-1,2.63,80.73,80.73,0,0,1,13,6.32q-3.79.42-7.68,1.09c-4.47-3.61-16.66-7.42-17.2-7.59a1.41,1.41,0,1,0-.83,2.69,90.06,90.06,0,0,1,14.08,5.66c-2.28.48-4.58,1-6.89,1.65-3.42-1.7-11.7-2.62-12.68-2.73a1.41,1.41,0,0,0-.3,2.8,80,80,0,0,1,8.34,1.36c-6,2.22-19,7.87-24.32,10.17l-1.12.48a1.41,1.41,0,0,0,1.12,2.59Z"/><path class="cls-7" d="M303.31,235.39a1.4,1.4,0,1,0-2.54-1.2c0,.05-2.62,5.36-10.87,11.8l-.07.06q-1.93.91-3.93,1.71a57.85,57.85,0,0,0,5.74-9.11,1.41,1.41,0,0,0-2.52-1.26c-1.51,3-6.24,11.18-10,12.68a1.77,1.77,0,0,0-.33.19l-1.49.45a39.39,39.39,0,0,0,5.58-10.29,1.41,1.41,0,0,0-.86-1.8,1.43,1.43,0,0,0-1.8.87c-1.07,3.07-4.86,11.39-9.44,12.89h0c-1.25.28-2.49.54-3.73.78a31.54,31.54,0,0,0,5-9.57,1.41,1.41,0,1,0-2.69-.83c-.85,2.77-4,10.2-8.24,11.37l-.19.07c-1.21.18-2.41.34-3.6.49,3.36-3.88,5-9.6,5.14-9.93a1.41,1.41,0,0,0-2.71-.78c-.79,2.74-3.75,10.11-7.92,11.27l-.06,0-1.82.15c3.44-3.88,5.16-9.73,5.26-10.07a1.41,1.41,0,1,0-2.7-.78c-.78,2.68-3.64,9.78-7.66,11.17-1.19.06-2.34.11-3.45.14,3.73-3.85,5.6-10.18,5.7-10.53a1.41,1.41,0,0,0-2.71-.78c-.79,2.74-3.76,10.11-7.92,11.27a1.36,1.36,0,0,0-.3.13q-2,0-3.72,0c3.76-3.85,5.65-10.24,5.75-10.59a1.41,1.41,0,0,0-2.71-.78c-.78,2.71-3.69,9.91-7.76,11.21-1.51-.07-2.38-.14-2.43-.15a1.42,1.42,0,0,0-1.52,1.28,1.41,1.41,0,0,0,1.28,1.53h0a1.34,1.34,0,0,0,.56.46c8.37,3.8,11.7,8.78,11.73,8.82a1.41,1.41,0,0,0,1.19.65,1.35,1.35,0,0,0,.76-.23,1.41,1.41,0,0,0,.42-1.94c-.12-.19-2.53-3.84-8.37-7.44l2.57.05a.75.75,0,0,0,.15.09c8.38,3.8,11.71,8.78,11.74,8.82a1.4,1.4,0,0,0,1.18.65,1.33,1.33,0,0,0,.76-.23,1.41,1.41,0,0,0,.42-1.94c-.12-.19-2.51-3.82-8.32-7.41l1.4,0a1.28,1.28,0,0,0,.25.15c8.38,3.8,11.71,8.78,11.74,8.82a1.4,1.4,0,0,0,1.18.65,1.31,1.31,0,0,0,.76-.23,1.4,1.4,0,0,0,.43-1.94c-.13-.19-2.66-4-8.79-7.68l2.68-.18c8.26,3.78,11.55,8.7,11.58,8.74a1.4,1.4,0,0,0,1.18.65,1.36,1.36,0,0,0,.77-.23,1.41,1.41,0,0,0,.42-1.94c-.13-.19-2.66-4-8.79-7.69l1.34-.14c8.85,3.83,12.39,8.72,12.42,8.76a1.4,1.4,0,0,0,1.16.61,1.44,1.44,0,0,0,.8-.26,1.4,1.4,0,0,0,.35-2c-.13-.2-2.92-4.09-9.68-7.82,1.13-.16,2.26-.35,3.39-.54,9.55,5.79,12.65,10.5,12.68,10.54a1.39,1.39,0,0,0,1.19.66,1.36,1.36,0,0,0,.75-.22,1.41,1.41,0,0,0,.44-1.94c-.12-.19-2.77-4.28-10.68-9.59a57.32,57.32,0,0,1,6.18,1.14v0c8.32,6.25,10.68,11.9,10.71,12a1.4,1.4,0,0,0,1.3.89,1.55,1.55,0,0,0,.52-.1,1.4,1.4,0,0,0,.79-1.83c-.08-.2-1.67-4.05-6.73-9q2,.69,3.87,1.44c8.12,6.18,10.45,11.71,10.47,11.76a1.4,1.4,0,0,0,1.31.89,1.37,1.37,0,0,0,.52-.1,1.4,1.4,0,0,0,.78-1.83,26.16,26.16,0,0,0-4.81-7,100,100,0,0,1,9.31,5.27,1.42,1.42,0,0,0,1.95-.39,1.41,1.41,0,0,0-.39-1.95,100.1,100.1,0,0,0-10.71-6c6.17.37,9.41,1.94,9.45,2a1.43,1.43,0,0,0,.64.15,1.41,1.41,0,0,0,.63-2.66c-.24-.12-6-3-16.85-2.22l-1.05-.42a1,1,0,0,0-.28-.11,80.11,80.11,0,0,0-11.35-3.6c1-.25,1.92-.52,2.88-.79,4.29,2.41,14.59,4,15.8,4.17l.21,0a1.41,1.41,0,0,0,.2-2.8,86,86,0,0,1-12.08-2.7c1.32-.44,2.62-.92,3.92-1.42,3.53,1.15,10.06,1.41,15.34,1.41,4.29,0,7.75-.17,8.06-.19a1.41,1.41,0,1,0-.14-2.81c-.14,0-11.55.59-18.73-.34,1-.45,2-.93,2.92-1.43a16.44,16.44,0,0,0,2.93.22,97.5,97.5,0,0,0,13.4-1.41,1.41,1.41,0,1,0-.48-2.77,106.67,106.67,0,0,1-11.54,1.33,146.81,146.81,0,0,0,17-14,1.4,1.4,0,1,0-2-2,136.68,136.68,0,0,1-11.79,10.08A22.32,22.32,0,0,0,303.31,235.39Z"/><path class="cls-7" d="M241.53,419.45a1.4,1.4,0,1,0,2.12-1.84A27.8,27.8,0,0,1,238.2,404c2.33,1.24,5,2.58,7.92,4a30.63,30.63,0,0,0,7.42,16.94,1.37,1.37,0,0,0,1,.42,1.4,1.4,0,0,0,1-.41,1.42,1.42,0,0,0,0-2,28.06,28.06,0,0,1-6.36-13.55q2.56,1.15,5.39,2.34a1.43,1.43,0,0,0,.88.44c1.95,11.53,8.64,15.51,8.92,15.68a1.49,1.49,0,0,0,.7.18,1.4,1.4,0,0,0,.71-2.62c-.23-.13-5.24-3.19-7.24-12.08,1.32.52,2.68,1,4.07,1.55,3,10.79,10,15,10.28,15.17a1.37,1.37,0,0,0,.7.19,1.41,1.41,0,0,0,.72-2.62c-.06,0-5.47-3.34-8.38-11.55,1.83.63,3.75,1.27,5.74,1.9,3.68,11,11.17,15.5,11.49,15.69a1.44,1.44,0,0,0,.72.19,1.41,1.41,0,0,0,.71-2.62c-.07,0-6-3.64-9.53-12.22q3.65,1.1,7.6,2.13c3,10.62,9.85,14.26,10.14,14.41a1.51,1.51,0,0,0,.65.15,1.39,1.39,0,0,0,1.25-.76,1.41,1.41,0,0,0-.61-1.89c-.06,0-5.38-2.86-8.23-11.11,2.74.67,5.6,1.3,8.54,1.9,2.8,11,9.66,15,10,15.13a1.45,1.45,0,0,0,.69.18,1.41,1.41,0,0,0,.69-2.64c-.06,0-5.58-3.24-8.27-12.08q3.27.61,6.67,1.15A30.61,30.61,0,0,0,315,440.14a1.45,1.45,0,0,0,.75.22,1.41,1.41,0,0,0,.76-2.6,28.19,28.19,0,0,1-9.2-11.73q3.21.45,6.54.83a30.54,30.54,0,0,0,11.68,14.05,1.33,1.33,0,0,0,.69.19,1.41,1.41,0,0,0,.69-2.64,27.79,27.79,0,0,1-9.81-11.26c2.74.26,5.54.48,8.4.64,3.75,9.26,10.3,12.33,10.58,12.46a1.34,1.34,0,0,0,.58.12,1.4,1.4,0,0,0,.58-2.68s-5.23-2.46-8.61-9.74c2.27.11,4.57.17,6.9.2h.05a30.35,30.35,0,0,0,12.07,11.31,1.34,1.34,0,0,0,.58.12,1.39,1.39,0,0,0,1.28-.82,1.4,1.4,0,0,0-.7-1.86,28,28,0,0,1-9.85-8.72c2.57,0,5.19-.07,7.83-.16a30.8,30.8,0,0,0,15.73,9l.23,0a1.41,1.41,0,0,0,.22-2.8,27.89,27.89,0,0,1-12.27-6.36c2.22-.12,4.47-.28,6.73-.47A39.15,39.15,0,0,0,374.18,433h.08a1.41,1.41,0,0,0,.08-2.81A37.21,37.21,0,0,1,362.53,427l.49-.05c4.12-.44,20.16-2.35,24.25-3a1.41,1.41,0,1,0-.45-2.78c-3.37.54-15,1.94-21.13,2.65a30,30,0,0,0,7.18-6.19,1.41,1.41,0,1,0-2.23-1.73,29.44,29.44,0,0,1-13.32,8.75l0,0c-1.32.11-2.63.2-3.93.29a31.18,31.18,0,0,0,8.3-8.07,1.41,1.41,0,0,0-2.38-1.51,29.47,29.47,0,0,1-12.37,9.91c-1.78.07-3.55.11-5.3.14a31.11,31.11,0,0,0,8.63-8.3,1.41,1.41,0,1,0-2.37-1.51,29.56,29.56,0,0,1-11.7,9.61,1.34,1.34,0,0,0-.57.17l0,0c-1.47,0-2.94,0-4.39-.1a31.21,31.21,0,0,0,9.24-8.69A1.41,1.41,0,0,0,338,415.1,29.77,29.77,0,0,1,325.62,425c-1.8-.11-3.59-.24-5.36-.38a33.47,33.47,0,0,0,11.21-10,1.41,1.41,0,1,0-2.37-1.51,32.3,32.3,0,0,1-14.23,11c-1.7-.18-3.38-.39-5-.61a30,30,0,0,0,11.58-9.66,1.41,1.41,0,0,0-2.38-1.51,28.86,28.86,0,0,1-14.68,10.38c-1.81-.29-3.6-.6-5.35-.92a26,26,0,0,0,11.09-5.23,1.41,1.41,0,0,0-1.9-2.08c-.06.06-6.69,5.92-18.72,5.31h-.06q-2.61-.6-5.12-1.25a31.84,31.84,0,0,0,9.86-3,1.41,1.41,0,0,0-1.36-2.47,32.36,32.36,0,0,1-18.17,2.74q-5.69-1.74-10.73-3.61a118.29,118.29,0,0,0,20.66-2.41h.1a1.44,1.44,0,0,0,.66-.17l.69-.16c3.35,2.46,9,3,13.1,3a46,46,0,0,0,5.18-.27,1.4,1.4,0,0,0-.33-2.79c-2.68.31-9.26.58-13.71-.92,1.45-.37,2.88-.76,4.3-1.18l.11,0a1.41,1.41,0,0,0,.68-.18l.26-.15c1.15-.35,2.3-.71,3.42-1.09,3.47,2.1,9.23,2.55,13.56,2.55,3.14,0,5.53-.23,5.76-.26a1.4,1.4,0,0,0,1.25-1.54,1.43,1.43,0,0,0-1.54-1.26c-.11,0-9.3.92-15.13-.85,2.13-.78,4.2-1.61,6.22-2.46a1.47,1.47,0,0,0,.4-.14l.18-.11,1.24-.53c3.64,1.35,11.36,1.55,15.7,1.55,1.76,0,3,0,3.12,0a1.41,1.41,0,0,0-.08-2.82,99.25,99.25,0,0,1-14.6-.62c1.41-.67,2.77-1.36,4.1-2l.06,0c3.62,1.36,11.39,1.57,15.75,1.57,1.75,0,3,0,3.12,0a1.41,1.41,0,0,0,1.36-1.45A1.38,1.38,0,0,0,338,396.1a95.71,95.71,0,0,1-15.18-.71l1.91-1.08a1.49,1.49,0,0,0,.49-.2c.21-.14.42-.3.63-.46.8-.47,1.58-.93,2.35-1.4a42.61,42.61,0,0,0,10.07.88c5.34,0,10.49-.4,10.86-.42a1.41,1.41,0,1,0-.22-2.81,115.06,115.06,0,0,1-17.2.14c1.89-1.24,3.68-2.46,5.35-3.64,1.43.1,3,.15,4.55.15,6.42,0,13.21-.72,13.56-.76a1.41,1.41,0,1,0-.3-2.8c-.09,0-7.62.81-14.19.74l.18-.13a1.05,1.05,0,0,1,.11-.07l.17-.15,1.6-1.24H343c5.83,0,14.73-3,15.12-3.09a1.41,1.41,0,1,0-.89-2.67A75,75,0,0,1,346.51,379a209,209,0,0,0,15-14.86,1.41,1.41,0,1,0-2.08-1.89c-.07.07-5.08,5.58-10.86,11.06,2.63-4.6,4.57-8.87,4.71-9.19a1.41,1.41,0,1,0-2.56-1.16c-.07.14-6.21,13.71-11.34,18.2-1.87,1.43-3.94,2.95-6.22,4.51,3.64-4.82,6.64-9.73,6.85-10.08a1.39,1.39,0,0,0-.47-1.93,1.41,1.41,0,0,0-1.93.47c-.08.14-7.9,12.93-13.32,17.16-2.19,1.28-4.49,2.55-6.9,3.79a121.63,121.63,0,0,0,8.43-10.43,1.41,1.41,0,1,0-2.29-1.63c-.1.13-9.13,12.79-15.15,16.3-2.21.95-4.5,1.86-6.85,2.71a114.3,114.3,0,0,0,10.09-12.17,1.42,1.42,0,0,0-.33-2,1.4,1.4,0,0,0-2,.34c-.09.12-8.89,12.44-14.9,16.15-1.51.46-3.05.89-4.61,1.29A103.33,103.33,0,0,0,300,392a1.41,1.41,0,0,0-2.39-1.48c-.08.13-7.87,12.65-13.38,16.45-2.12.45-4.28.83-6.48,1.16a105.45,105.45,0,0,0,12-13,1.41,1.41,0,1,0-2.22-1.73c-.1.12-9.68,12.4-15.64,15.46-3,.29-6.05.48-9.17.54a105.47,105.47,0,0,0,14-10.9,1.4,1.4,0,0,0-1.91-2.06c-.12.1-11.76,10.89-18.33,12.88q-3.25-1.33-6.17-2.65c7-2,15-6.51,15.44-6.74a1.41,1.41,0,0,0-1.39-2.45c-.11.06-11.43,6.4-18.28,7.23q-2.46-1.19-4.62-2.3a91.94,91.94,0,0,0,16.59-5.17,1.41,1.41,0,0,0-1.09-2.59c-.13.05-12.8,5.37-19.93,5.4-1-.54-1.89-1-2.74-1.55,7.48-1.21,16.65-5.06,17.12-5.26a1.41,1.41,0,0,0-1.09-2.59c-.13.06-13,5.44-20.09,5.4-2-1.27-3.11-2-3.18-2.1a1.41,1.41,0,1,0-1.66,2.27,103.78,103.78,0,0,0,9.81,6.1A30.54,30.54,0,0,0,241.53,419.45Z"/><path class="cls-6" d="M224,70.13a1.41,1.41,0,0,0,1,.43,1.44,1.44,0,0,0,1-.39,1.41,1.41,0,0,0,0-2,39.85,39.85,0,0,1-5.66-8.73c-.52-6.42.4-8.62.4-8.62a1.41,1.41,0,0,0-2.51-1.27,10.3,10.3,0,0,0-.73,3.29c-.76-2.08-1.5-4.36-2.15-6.89a1.41,1.41,0,1,0-2.72.71C216.74,62.41,223.71,69.82,224,70.13Z"/><path class="cls-6" d="M228.67,69.46a60.42,60.42,0,0,1-5,10.34,1.4,1.4,0,0,0,.45,1.93,1.36,1.36,0,0,0,.74.22,1.42,1.42,0,0,0,1.2-.67,62.92,62.92,0,0,0,5.15-10.57,1.57,1.57,0,0,0,.19-.51c.23-.61.45-1.22.66-1.82,7.42-8.23,8.73-14.61,8.79-14.88a1.41,1.41,0,0,0-2.77-.53,25.49,25.49,0,0,1-3.78,8A103.94,103.94,0,0,0,237.24,44a1.4,1.4,0,1,0-2.8-.21,106.24,106.24,0,0,1-2.88,16.41,25.11,25.11,0,0,0-1.71-7.56,1.4,1.4,0,0,0-2.55,1.18C227.32,53.88,229.74,59.35,228.67,69.46Z"/><path class="cls-6" d="M211.75,162.22a1.41,1.41,0,0,0-1.77,2.19c.18.15,4.31,3.39,12.78,3.39l1.27,0,0,0a1.45,1.45,0,0,0,.72.2,1.4,1.4,0,0,0,1.21-.7,1.42,1.42,0,0,0-.5-1.93l-.66-.4c-5-5.78-5.77-9.59-5.78-9.62a1.4,1.4,0,1,0-2.76.51,17.14,17.14,0,0,0,1.87,4.54c-5-5.85-5.88-9.72-5.88-9.75a1.41,1.41,0,1,0-2.77.51,14.52,14.52,0,0,0,1.28,3.4c-2.88-2.53-4.64-4.33-4.68-4.37a1.41,1.41,0,0,0-2,2c.15.15,1.76,1.8,4.37,4.12a22.18,22.18,0,0,1-3.72-2.31,1.41,1.41,0,0,0-1.82,2.15c.17.14,4.14,3.45,12.73,6.05,1.16.87,2.38,1.75,3.66,2.61C214.25,164.12,211.77,162.24,211.75,162.22Z"/><path class="cls-7" d="M325.2,308.8a1.4,1.4,0,0,0-2.62-1c0,.06-2.39,5.95-10.87,13.57l-.08.1-.44.27a57.88,57.88,0,0,0,4.18-9.84,1.41,1.41,0,0,0-2.68-.85c-1,3.18-4.3,11.72-7.72,14.09-.78.39-1.57.77-2.37,1.15a47.81,47.81,0,0,0,5.21-12,1.41,1.41,0,0,0-2.72-.73c-.94,3.51-4.41,13.12-9.07,15.43a1.25,1.25,0,0,0-.24.16c-1,.37-1.95.73-2.93,1.08a39.66,39.66,0,0,0,4.86-11.09,1.41,1.41,0,1,0-2.73-.69c-.82,3.2-3.9,11.92-8.32,13.79l-.09.05c-3.27,1-6.56,1.87-9.83,2.64a32.25,32.25,0,0,0,4.52-4.87c6.78-1.24,11.39-6.56,11.59-6.79a1.41,1.41,0,0,0-2.15-1.82,20.76,20.76,0,0,1-6.92,4.94c.44-.7.86-1.41,1.25-2.12,6.39-3.07,9.49-14.86,9.62-15.37a1.4,1.4,0,1,0-2.72-.7,38.42,38.42,0,0,1-2.72,7.11,77.41,77.41,0,0,0,2.9-8.91,1.41,1.41,0,1,0-2.73-.67,79.85,79.85,0,0,1-4.05,11.55,58.3,58.3,0,0,0,0-7.78,1.41,1.41,0,1,0-2.81.22c0,.12.91,12.13-2.44,17.15l-.21.32a41.46,41.46,0,0,0,.12-10.08,1.41,1.41,0,1,0-2.79.35c.4,3.2.69,12.18-2.64,15.63a17.64,17.64,0,0,1-2.07,1.51c2.32-5.13,1.49-11.31,1.44-11.67a1.4,1.4,0,0,0-2.78.39c0,.1,1.28,9.75-3.92,13.6-1.41.26-2.82.51-4.2.73,4.72-6.3,4.86-12,4.86-12.3a1.41,1.41,0,0,0-1.39-1.42h0a1.42,1.42,0,0,0-1.41,1.38c0,.07-.2,6.6-6.28,13-1.24.17-2.45.34-3.64.49,4.77-6.32,4.9-12.08,4.9-12.36a1.4,1.4,0,0,0-1.39-1.42h0a1.4,1.4,0,0,0-1.41,1.39c0,.06-.16,6.47-6.2,12.89-2.38.26-4.66.48-6.79.66,5.05-6.46,5.19-12.44,5.19-12.72a1.41,1.41,0,0,0-1.39-1.43h0a1.41,1.41,0,0,0-1.41,1.4c0,.06-.16,6.59-6.36,13.06-1.91.13-3.67.23-5.25.3,5.13-6.5,5.28-12.55,5.28-12.83a1.4,1.4,0,0,0-1.39-1.42h0a1.4,1.4,0,0,0-1.4,1.39c0,.06-.16,6.56-6.32,13-2.2.07-3.74.08-4.46.08h-.48a1.41,1.41,0,0,0,0,2.81h.46c.87,0,2.89,0,5.81-.12,9.2,4.18,12.56,9.27,12.59,9.32a1.42,1.42,0,0,0,1.95.43,1.4,1.4,0,0,0,.43-1.94c-.12-.2-2.68-4.13-9.38-8.08,1.26-.07,2.6-.16,4-.27,9.42,4.2,12.86,9.4,12.89,9.45a1.38,1.38,0,0,0,.81.6,1.43,1.43,0,0,0-1,.92c0,.11-3.89,11.5-8.93,14.83l-.33.21a40.44,40.44,0,0,0,4-9.23,1.4,1.4,0,1,0-2.7-.77c-.88,3.11-4.11,11.47-8.52,13.37a18.2,18.2,0,0,1-5.67.83l-.39,0c-.4,0-.8,0-1.19-.1a1.52,1.52,0,0,0-.48,0c-3.28-.17-5.17-.37-5.27-.38a1.41,1.41,0,0,0-1.56,1.24,1.4,1.4,0,0,0,1.24,1.55l1.34.13a1.34,1.34,0,0,0,.54.43c9.5,4.21,13,9.45,13,9.49a1.41,1.41,0,0,0,1.19.66,1.36,1.36,0,0,0,.75-.22,1.4,1.4,0,0,0,.44-1.94c-.13-.2-2.67-4.11-9.31-8,1.49.06,3.17.1,5,.12,9.39,4.19,12.81,9.38,12.84,9.42a1.39,1.39,0,0,0,1.19.66,1.36,1.36,0,0,0,.75-.22,1.41,1.41,0,0,0,.44-1.94c-.13-.2-2.62-4-9.15-7.95,2.41-.05,5-.14,7.74-.29a1.39,1.39,0,0,0,.38.25c9.49,4.21,13,9.45,13,9.49a1.4,1.4,0,0,0,1.94.44,1.41,1.41,0,0,0,.44-1.94c-.14-.21-2.93-4.51-10.33-8.62,2.54-.21,5.18-.48,7.9-.81a1.53,1.53,0,0,0,.3.19c9.5,4.2,13,9.44,13,9.49a1.41,1.41,0,0,0,1.19.65,1.44,1.44,0,0,0,.75-.21,1.41,1.41,0,0,0,.44-1.94c-.14-.22-3-4.66-10.73-8.85,1.15-.17,2.32-.36,3.49-.55l.13.07c9.52,4.2,13.1,9.17,13.14,9.22a1.4,1.4,0,0,0,1.15.6,1.38,1.38,0,0,0,.8-.25,1.41,1.41,0,0,0,.36-2c-.14-.2-3.14-4.41-10.9-8.53,1.87-.36,3.75-.77,5.65-1.2a1.06,1.06,0,0,0,.21.16c8.82,5.53,11.65,11,11.68,11a1.4,1.4,0,0,0,1.26.78,1.45,1.45,0,0,0,.63-.15,1.42,1.42,0,0,0,.63-1.89c-.11-.21-2.48-4.82-9.57-10,1.21.11,2.41.26,3.61.44l0,0c8.81,5.53,11.65,11,11.67,11a1.41,1.41,0,0,0,1.89.63,1.4,1.4,0,0,0,.63-1.89c-.1-.2-2-3.9-7.47-8.38q2,.51,4,1.11c8.61,5.47,11.39,10.79,11.42,10.84a1.4,1.4,0,0,0,1.26.78,1.38,1.38,0,0,0,.62-.15,1.4,1.4,0,0,0,.63-1.89,26.14,26.14,0,0,0-5.38-6.56,96.65,96.65,0,0,1,9.71,4.47,1.41,1.41,0,0,0,1.37-2.47,101.37,101.37,0,0,0-11.19-5.1,27.42,27.42,0,0,1,9.59,1.15,1.39,1.39,0,0,0,.53.1,1.41,1.41,0,0,0,.53-2.71A28.41,28.41,0,0,0,312,371.26a1.38,1.38,0,0,0,.7-1,1.42,1.42,0,0,0-1.22-1.58,66.93,66.93,0,0,1-10.64-2.25l.12-.06,1.74-.62c3.84,2.18,10.67,2.71,16.37,2.71,5.07,0,9.24-.41,9.6-.45a1.41,1.41,0,0,0,1.26-1.54,1.43,1.43,0,0,0-1.55-1.26c-.15,0-14.33,1.43-21.93-.92q2.49-1,5-2.13A1.39,1.39,0,0,0,312,362a5.86,5.86,0,0,0,.55-.3c3.54,1.7,9.5,2.15,14.79,2.15,5.64,0,10.53-.51,10.92-.55a1.41,1.41,0,0,0-.29-2.8c-.17,0-14.36,1.49-22-.53q2.64-1.34,5.24-2.8a36,36,0,0,0,6.42.45,193.5,193.5,0,0,0,19.9-1.43,1.39,1.39,0,0,0,1.22-1.56,1.41,1.41,0,0,0-1.57-1.23c-.16,0-13.92,1.71-22,1.36.87-.54,1.73-1.1,2.58-1.67a7.27,7.27,0,0,0,1,.06c5.78,0,16.52-5.16,17.83-5.8a1.39,1.39,0,0,0,.64-1.88,1.41,1.41,0,0,0-1.88-.65,75.75,75.75,0,0,1-12.93,5c6.57-5.08,18.49-15.3,22.55-19.59a1.41,1.41,0,0,0-2.05-1.93c-2.45,2.59-8.06,7.58-13.48,12.16a30.55,30.55,0,0,0,3.14-5.74,1.41,1.41,0,0,0-2.64-1c0,.07-2.65,6.88-11.89,15.82l-.79.54a60.47,60.47,0,0,0,3.84-9.2,1.41,1.41,0,1,0-2.69-.85c-1,3.26-4.47,12.18-8,14.28a1.3,1.3,0,0,0-.31.26c-.74.43-1.48.84-2.22,1.24a48.26,48.26,0,0,0,4.61-11,1.4,1.4,0,1,0-2.71-.73c-.9,3.34-4.1,12.21-8.42,15q-2.7,1.26-5.43,2.38a40.3,40.3,0,0,0,4.51-10.57,1.4,1.4,0,0,0-.66-1.56,1.32,1.32,0,0,0,.34,0,1.39,1.39,0,0,0,1.23-.72,1.41,1.41,0,0,0-.55-1.92,101.72,101.72,0,0,0-11.18-5.1,27.42,27.42,0,0,1,9.59,1.15,1.39,1.39,0,0,0,.52.11,1.41,1.41,0,0,0,.53-2.71c-.25-.11-6.22-2.44-17-.79l-1.09-.34L292,339a83,83,0,0,0-10.25-2.42c1.19-.32,2.38-.64,3.56-1,4.31,2.15,15.14,2.89,16.39,3h.09a1.41,1.41,0,0,0,.09-2.81,87.42,87.42,0,0,1-11.9-1.58c2.68-.87,5.33-1.81,7.94-2.84,3.58,1.54,9.28,2,14.37,2,5.65,0,10.54-.5,10.93-.54a1.42,1.42,0,0,0,1.25-1.55,1.4,1.4,0,0,0-1.55-1.25c-.15,0-13.18,1.36-20.95-.3,1.27-.56,2.53-1.14,3.77-1.75a1.42,1.42,0,0,0,.45-.16l.35-.23,1.6-.82a34.8,34.8,0,0,0,6.5.46,197.81,197.81,0,0,0,19.9-1.42,1.41,1.41,0,0,0-.35-2.79c-.16,0-13.72,1.68-21.8,1.37l1.81-1.12a7.45,7.45,0,0,0,.83,0c5.79,0,16.53-5.16,17.84-5.8a1.41,1.41,0,0,0-1.24-2.53A77.18,77.18,0,0,1,319,319.79a91.6,91.6,0,0,0,16.57-18.09,1.41,1.41,0,1,0-2.37-1.52,80.74,80.74,0,0,1-9.31,11.27A19.9,19.9,0,0,0,325.2,308.8Zm-21.15,62.72-.25-.08A81.69,81.69,0,0,0,293.28,369l.19-.07.45-.23c1-.3,2-.61,3-.93,3.32,2,10.53,3.18,13.26,3.58-1.54.08-3.22.25-5,.52Zm3.66-21.31c-.79,3.13-3.76,11.5-8,13.64l-1.37.48a24.21,24.21,0,0,0,2.91-10.94,1.41,1.41,0,0,0-1.39-1.42h0a1.4,1.4,0,0,0-1.41,1.4c0,.09-.15,9.51-5.62,12.71-1.06.32-2.12.62-3.18.91,3-5.3,2.07-12.42,2-12.8A1.43,1.43,0,0,0,290,353a1.41,1.41,0,0,0-1.19,1.59c0,.1,1.31,9.78-4,13.63-1.57.38-3.13.73-4.69,1.06,4.64-6.26,4.77-11.91,4.78-12.18a1.41,1.41,0,0,0-1.39-1.42h0a1.41,1.41,0,0,0-1.41,1.38c0,.07-.2,6.66-6.37,13.09-2.65.48-5.26.9-7.81,1.26,4.77-6.33,4.9-12.09,4.91-12.36a1.4,1.4,0,0,0-1.39-1.42h0a1.4,1.4,0,0,0-1.41,1.39c0,.06-.16,6.5-6.23,12.92-7.54.89-14.45,1.25-20.27,1.35.71-.35,1.42-.72,2.11-1.11a17.75,17.75,0,0,0,3.83.42,23.2,23.2,0,0,0,9.49-2.15,1.41,1.41,0,1,0-1.26-2.52,20.57,20.57,0,0,1-8.3,1.85c.68-.48,1.34-1,2-1.46,7.08-.33,14.54-10,14.86-10.4a1.41,1.41,0,0,0-2.23-1.71,38.92,38.92,0,0,1-5.24,5.45,79.11,79.11,0,0,0,6.11-7,1.41,1.41,0,0,0-2.26-1.68,80.09,80.09,0,0,1-8.23,9,59.35,59.35,0,0,0,3-7.16,1.4,1.4,0,0,0-.89-1.78l-.08,0a1.68,1.68,0,0,0,.42-.17,1.41,1.41,0,0,0,.44-1.94c-.14-.21-2.84-4.36-10-8.41,1.37-.13,2.79-.28,4.24-.44h0l.08,0c9.32,4.19,12.72,9.34,12.75,9.39a1.43,1.43,0,0,0,1.19.66,1.45,1.45,0,0,0,.75-.22,1.4,1.4,0,0,0,.44-1.94c-.13-.21-2.88-4.43-10.13-8.51,1.31-.18,2.65-.37,4-.58h0c9.53,4.21,13.11,9.17,13.14,9.22a1.41,1.41,0,0,0,1.16.6,1.42,1.42,0,0,0,.8-.25,1.4,1.4,0,0,0,.35-2c-.14-.2-3.07-4.33-10.66-8.4.71-.13,1.43-.25,2.14-.39h0a1.44,1.44,0,0,0,.5-.1l3.07-.6c8.72,5.5,11.53,10.88,11.56,10.93a1.39,1.39,0,0,0,1.26.77,1.26,1.26,0,0,0,.62-.15,1.39,1.39,0,0,0,.63-1.88c-.11-.22-2.45-4.78-9.46-9.94,1.5.11,3,.29,4.5.52h0c8.82,5.53,11.65,11,11.68,11a1.41,1.41,0,0,0,1.26.78,1.45,1.45,0,0,0,.63-.15,1.42,1.42,0,0,0,.63-1.89c-.1-.19-2-3.9-7.47-8.38,1.36.34,2.69.72,4,1.11,8.61,5.47,11.4,10.79,11.42,10.84a1.41,1.41,0,0,0,1.26.78,1.41,1.41,0,0,0,1.26-2,26.35,26.35,0,0,0-5.39-6.56,100.25,100.25,0,0,1,9.68,4.44A1.41,1.41,0,0,0,307.71,350.21Z"/><path class="cls-7" d="M222.77,425.74c-2.52,2-5.11,3.81-7.73,5.59-10.13-2.53-13.38-5.7-13.46-5.77a1.41,1.41,0,0,0-2,1.94c.14.14,3.15,3.23,12.35,5.9q-2.82,1.8-5.7,3.48c-9.8-3.85-12.64-7.45-12.7-7.53a1.41,1.41,0,0,0-2.28,1.66c.12.16,2.78,3.72,11.87,7.63-2.23,1.23-4.47,2.41-6.74,3.53-10.21-3.72-12.35-8.45-12.4-8.57a1.41,1.41,0,0,0-2.62,1c.08.22,2.07,5.1,11.55,9.2-2.21,1-4.43,2-6.68,3-11.86-3.83-13.49-10.2-13.52-10.33a1.4,1.4,0,0,0-2.75.57c.06.3,1.52,6.86,12.39,11.33l-1.88.74c-2.18-.08-4.34-.21-6.45-.37l-.18-.08c-11.92-3.83-13.55-10.22-13.58-10.35a1.41,1.41,0,0,0-2.76.57c0,.25,1.07,4.81,7.63,8.92-1.91-.26-3.78-.55-5.61-.85l0,0c-10.93-3.57-12.54-9.73-12.61-10a1.4,1.4,0,1,0-2.74.61c0,.22.9,3.86,5.47,7.46l-.24-.05a1.4,1.4,0,0,0-.49-.24c-9-2.24-12.54-8.52-12.57-8.59a1.41,1.41,0,0,0-2.48,1.34,18.1,18.1,0,0,0,3.53,4.27c-1.71-.52-3.31-1-4.79-1.54a19.53,19.53,0,0,1-9-7.38,1.41,1.41,0,0,0-2.48,1.34,15.82,15.82,0,0,0,1.68,2.33c-1.36-.58-2.12-.93-2.16-.95a1.4,1.4,0,1,0-1.22,2.53,121.19,121.19,0,0,0,12.06,4.72,26.9,26.9,0,0,0,4,1.35l.23,0c2,.63,4.22,1.27,6.55,1.9-6.35,1-8.81,2.57-8.95,2.66a1.4,1.4,0,0,0-.41,1.93,1.42,1.42,0,0,0,1.19.65,1.36,1.36,0,0,0,.75-.22s4.14-2.52,15.73-3a171.73,171.73,0,0,0,23.19,3.47q-4.11,1.41-8.24,2.65h0c-11.48-.3-15.2-4.28-15.29-4.37a1.4,1.4,0,0,0-2.14,1.82c.13.16,2.76,3.15,10.16,4.6l-1,.27a1.65,1.65,0,0,0-.32,0h0c-12.09.21-15.84-4.68-15.92-4.79a1.41,1.41,0,0,0-2.32,1.6c.14.19,2.64,3.73,10,5.29-1.54.34-3.08.67-4.62,1-11.45-3.4-13.53-9.12-13.57-9.24a1.41,1.41,0,0,0-2.69.83c.08.26,1.79,5.52,10.86,9.45-2,.36-4,.7-5.91,1-9.17-.67-13.1-11.19-13.16-11.34a1.41,1.41,0,0,0-2.65.95c.15.4,2.87,7.78,9.35,11.35l-3.7.48a1.46,1.46,0,0,0-.94.11l-1.11.13h-.14a31.19,31.19,0,0,1-3.73-.27c-4.64-4.65-8.36-17.2-8.4-17.34a1.41,1.41,0,0,0-2.7.79c.14.49,2.87,9.72,6.86,15.71a47.21,47.21,0,0,1-7.53-2.7C99.84,454.52,96,439.2,96,439a1.41,1.41,0,1,0-2.73.67c.13.54,2.55,10.24,6.26,17.06-1.47-.84-2.92-1.72-4.34-2.66-5-4.91-8.89-19.55-8.93-19.7a1.41,1.41,0,0,0-2.72.72,87.57,87.57,0,0,0,5.35,14.47c-1.46-1.13-2.88-2.29-4.26-3.46a123.5,123.5,0,0,1-8.53-19.7,1.41,1.41,0,0,0-2.69.83A108.54,108.54,0,0,0,78.83,441,158.89,158.89,0,0,1,64,424.78a1.41,1.41,0,0,0-2.24,1.71,158.74,158.74,0,0,0,17.11,18.42c-7.06-1.26-11.14-.46-11.35-.41a1.4,1.4,0,1,0,.56,2.75c.06,0,5.62-1.06,15,1.49a1.18,1.18,0,0,0,.41.19q2.17,1.83,4.48,3.58c-6.34-1.05-9.9-.45-10.09-.41a1.4,1.4,0,1,0,.5,2.76c.06,0,5.59-1,15.43,1.86l.2,0a71.83,71.83,0,0,0,9.3,5.14l0,0a1.32,1.32,0,0,0,.76.32,51.56,51.56,0,0,0,5.65,2.11c-3.19.27-6.31.48-9.32.64h-.23a101.79,101.79,0,0,1-16.24-9.5,1.41,1.41,0,1,0-1.62,2.3,116.35,116.35,0,0,0,12.06,7.47c-4.26.16-8.28.23-12,.23-1.45-.24-17.36-3.07-25.73-8.78A1.41,1.41,0,1,0,55,459a53.13,53.13,0,0,0,13.78,6.09c-12.33-.61-28.46-1.82-28.67-1.84a1.41,1.41,0,0,0-.21,2.81c.21,0,17.21,1.29,29.71,1.89-8.42,3.92-14.41,7.11-14.48,7.15a1.4,1.4,0,0,0,.67,2.64,1.43,1.43,0,0,0,.66-.16c.08-.05,8.48-4.52,19.4-9.38.88,0,1.7,0,2.43.05l3.32,0c-7.24,4.62-9.64,8.48-9.76,8.68a1.42,1.42,0,0,0,1.21,2.13,1.39,1.39,0,0,0,1.2-.68c0-.05,3.12-4.94,13-10.17,2.61,0,5.34-.12,8.18-.23a41.82,41.82,0,0,0-9.36,9.57,1.41,1.41,0,0,0,1.2,2.15,1.38,1.38,0,0,0,1.19-.66c0-.06,3.59-5.65,12.14-11.3,2.14-.12,4.35-.27,6.59-.43-6.62,5.08-8.57,9.28-8.66,9.48a1.4,1.4,0,0,0,.7,1.85,1.36,1.36,0,0,0,.58.13,1.4,1.4,0,0,0,1.28-.82c0-.06,2.52-5.32,11.63-11.08l0,0c1.56-.15,3.13-.3,4.72-.47-5.92,5.45-7.71,9.85-7.8,10.06a1.41,1.41,0,0,0,.8,1.82,1.32,1.32,0,0,0,.51.1,1.41,1.41,0,0,0,1.31-.88c0-.06,2.29-5.53,10.23-11.69q2.74-.35,5.55-.74c-5.91,5.45-7.7,9.84-7.78,10.06a1.39,1.39,0,0,0,.79,1.81,1.34,1.34,0,0,0,.52.1,1.42,1.42,0,0,0,1.31-.88c0-.06,2.33-5.65,10.49-11.9,1.74-.28,3.48-.58,5.24-.89-5.8,5.38-7.56,9.71-7.64,9.92a1.4,1.4,0,0,0,.79,1.82,1.34,1.34,0,0,0,.52.1,1.4,1.4,0,0,0,1.3-.89c0-.05,2.36-5.71,10.65-12l0,0c2.14-.43,4.3-.9,6.46-1.39-5.23,5.07-6.85,9.05-6.93,9.25a1.4,1.4,0,0,0,.79,1.82,1.37,1.37,0,0,0,.52.1,1.41,1.41,0,0,0,1.31-.88c0-.06,2.3-5.56,10.29-11.74l2.75-.7c-5.23,7.16-5.64,11.6-5.66,11.81a1.39,1.39,0,0,0,1.28,1.5h.13a1.41,1.41,0,0,0,1.4-1.28c0-.05.57-5.15,7.43-13.32,2.48-.71,5-1.48,7.44-2.29-5.28,8.09-5.57,13.17-5.58,13.41a1.42,1.42,0,0,0,1.35,1.47h.06a1.4,1.4,0,0,0,1.4-1.35c0-.06.34-5.81,7.29-15.06,2.24-.79,4.47-1.61,6.7-2.48C178,459.64,178,465,177.94,465.28a1.42,1.42,0,0,0,1.4,1.41h0a1.41,1.41,0,0,0,1.41-1.4c0-.06.16-6.32,6.38-15.85q3.31-1.38,6.59-2.9c-4.48,7.5-4.68,12.22-4.69,12.45a1.41,1.41,0,0,0,1.37,1.44h0a1.42,1.42,0,0,0,1.41-1.35c0-.06.3-5.9,6.81-14.93q3.38-1.69,6.69-3.56c-3.34,6.58-3.38,10.76-3.38,11a1.41,1.41,0,0,0,1.41,1.4h0a1.42,1.42,0,0,0,1.41-1.4c0-.05.09-5.5,5.4-13.74l0-.06q3-1.81,5.93-3.76a.1.1,0,0,1,.05,0q4.23-2.83,8.29-6a1.41,1.41,0,0,0-1.73-2.22Z"/><path class="cls-7" d="M223.27,408.15c-.12,0-2.27.6-6,1.37-9.65-5.64-11-10.78-11-10.9a1.41,1.41,0,0,0-2.76.58c.05.24,1.2,5.36,9.76,11.12-1.74.32-3.68.66-5.79,1h-.06l-.65.11c-9.21-5.52-10.55-10.5-10.58-10.63a1.41,1.41,0,0,0-2.75.58c.05.23,1.14,5.1,9.11,10.68-2.66.38-5.53.74-8.57,1.07-9.65-5.64-11-10.79-11.06-10.92a1.41,1.41,0,0,0-1.65-1.08,1.42,1.42,0,0,0-1.1,1.67c0,.23,1.16,5.15,9.26,10.77q-2.61.24-5.34.42c-9.93-5.7-11.31-11-11.35-11.09a1.41,1.41,0,0,0-2.75.59c0,.23,1.16,5.16,9.28,10.79q-3.41.16-7,.23c-9.51-5.6-10.87-10.69-10.9-10.81a1.41,1.41,0,0,0-2.75.58c.05.22,1.09,4.87,8.56,10.28-1.78,0-3.58,0-5.4-.08h0c-7.52-5.11-9.19-11.93-9.2-12a1.41,1.41,0,0,0-2.75.62,23.85,23.85,0,0,0,7.2,11.2c-1,0-1.93-.1-2.9-.16-7.21-5.07-8.84-11.67-8.85-11.74a1.41,1.41,0,0,0-2.75.62,23.58,23.58,0,0,0,6.72,10.76c-1.24-.11-2.48-.22-3.73-.36-5.61-3.41-5-13.3-5-13.39a1.41,1.41,0,1,0-2.81-.21c0,.36-.44,6.77,2.34,11.76a20.13,20.13,0,0,1-2.15-1.39l0,0c-3.65-3.13-4-12.16-3.79-15.37a1.41,1.41,0,0,0-2.81-.17,41,41,0,0,0,.78,9.8c-.35-.43-.68-.86-1-1.3-2.87-5.36-2.79-15.59-2.79-15.7a1.41,1.41,0,0,0-1.39-1.42h0a1.4,1.4,0,0,0-1.4,1.39,57.27,57.27,0,0,0,.53,7.85,102.53,102.53,0,0,1-6.67-14.63,1.41,1.41,0,0,0-2.66.92,102.78,102.78,0,0,0,6,13.59,66.45,66.45,0,0,1-7.23-11.3,1.41,1.41,0,1,0-2.52,1.26c.75,1.5,7.48,14.66,14,17.1q.7,1,1.44,2a20.83,20.83,0,0,1-7.47-4.55,1.41,1.41,0,0,0-2,2c.21.22,5.29,5.35,12.27,6a34.72,34.72,0,0,0,4.72,4.47c-3-.47-5.89-1-8.84-1.67l-.08,0c-8.47-1.9-14.73-18.92-14.79-19.09a1.39,1.39,0,0,0-1.8-.85,1.41,1.41,0,0,0-.85,1.8c.2.55,3.64,9.91,9.25,16-6.69-3.38-14.9-19.22-17.66-25.43A1.41,1.41,0,0,0,98.53,384c.85,1.91,6.78,15,13.66,22.47l-1.7-.58c-5.77-2.44-15.07-19.13-18.21-25.45a1.41,1.41,0,1,0-2.52,1.26,138.2,138.2,0,0,0,11.46,19c-9.61-7.71-19.8-20.4-19.92-20.55A1.41,1.41,0,1,0,79.1,382a177.33,177.33,0,0,0,15.51,16.78c-8.6-4.62-19.49-10.92-23.52-13.39a1.41,1.41,0,1,0-1.47,2.4c4.46,2.73,18.73,11,27.85,15.69-6.19-.62-16.54-3-23.35-4.86a1.4,1.4,0,0,0-.74,2.71c3.51,1,19,5.06,26.64,5.06a10.42,10.42,0,0,0,2.82-.31l.69.28c.78.31,1.56.6,2.35.9-7.82,1.95-21.72,3-21.88,3a1.41,1.41,0,0,0,.1,2.81h.11c.8-.06,19.45-1.52,26-4.29q2.34.8,4.71,1.5c-7.1,3.43-21.08,4.79-21.24,4.8a1.41,1.41,0,0,0,.13,2.81H94c.76-.07,18.1-1.75,24.71-6.54q3.21.87,6.44,1.59a82.71,82.71,0,0,1-12.07,4.26,1.4,1.4,0,0,0,.36,2.76,1.55,1.55,0,0,0,.37,0c1.2-.33,11.55-3.17,15.4-6.12,1.07.21,2.13.42,3.19.61a81.26,81.26,0,0,0-11.65,5.2,1.3,1.3,0,0,0-.6.32h0l-.69.38c-11,.5-16.37,4-16.6,4.15a1.41,1.41,0,0,0,.79,2.58,1.38,1.38,0,0,0,.77-.23s3.12-2,9.28-3.06a103.21,103.21,0,0,0-10,7.24,1.4,1.4,0,0,0,.9,2.48,1.38,1.38,0,0,0,.9-.32c.08-.06,3.42-2.83,8.58-6.22a26.11,26.11,0,0,0-3.91,7.41,1.4,1.4,0,0,0,1,1.71,1.18,1.18,0,0,0,.37.05,1.41,1.41,0,0,0,1.36-1c0-.06,1.67-5.77,8.93-12.79,1.21-.66,2.46-1.31,3.75-1.93-4.43,5.45-5.55,9.43-5.61,9.64a1.4,1.4,0,0,0,1,1.72,1.18,1.18,0,0,0,.37.05,1.41,1.41,0,0,0,1.36-1c0-.06,1.65-5.88,9.25-13.11l0,0a55.5,55.5,0,0,1,7-2.16l1.56.22c-7.08,5.23-9.84,9.87-10,10.09a1.4,1.4,0,0,0,1.21,2.11,1.39,1.39,0,0,0,1.21-.69c0-.05,3.3-5.46,11.75-11l2.39.25c-7.1,5.71-9.29,10.62-9.39,10.85a1.4,1.4,0,0,0,.73,1.84,1.38,1.38,0,0,0,.56.12,1.4,1.4,0,0,0,1.29-.84c0-.06,2.54-5.61,11-11.61l2,.14a1.41,1.41,0,0,0,.44.08,1.26,1.26,0,0,0,.28,0l.22,0c-7,5.73-8.78,10.7-8.86,10.93a1.41,1.41,0,0,0,.86,1.79,1.48,1.48,0,0,0,.46.08,1.41,1.41,0,0,0,1.33-.94c0-.06,2.1-5.65,10.54-11.64h0c1.36.05,2.71.1,4,.13-6.63,5.58-8.35,10.36-8.43,10.58a1.42,1.42,0,0,0,.87,1.79,1.48,1.48,0,0,0,.46.08,1.42,1.42,0,0,0,1.33-.94c0-.05,2.06-5.54,10.28-11.45h.58c1.31,0,2.61,0,3.9,0a1.58,1.58,0,0,0,.31.09c-6.53,5.54-8.22,10.25-8.3,10.47a1.41,1.41,0,0,0,.86,1.79,1.55,1.55,0,0,0,.47.08,1.42,1.42,0,0,0,1.33-.94c0-.06,2.09-5.65,10.51-11.62,1.63-.07,3.24-.14,4.82-.24-6.26,5.43-7.91,10-8,10.21a1.41,1.41,0,0,0,.86,1.79,1.55,1.55,0,0,0,.47.08,1.42,1.42,0,0,0,1.33-.94c0-.05,2.06-5.55,10.3-11.47,1.76-.14,3.48-.29,5.15-.45-6.12,5.36-7.75,9.85-7.83,10.07a1.4,1.4,0,0,0,.86,1.78,1.33,1.33,0,0,0,.47.08,1.42,1.42,0,0,0,1.33-.93c0-.06,2.08-5.6,10.41-11.56,2-.24,4-.49,5.82-.75-5.78,5.19-7.33,9.48-7.41,9.69a1.41,1.41,0,0,0,.86,1.79,1.6,1.6,0,0,0,.47.08,1.42,1.42,0,0,0,1.33-.94c0-.05,2.06-5.54,10.29-11.46,1.51-.24,2.93-.49,4.25-.73-5.61,5.11-7.12,9.29-7.19,9.51a1.39,1.39,0,0,0,.86,1.78,1.5,1.5,0,0,0,.47.08,1.4,1.4,0,0,0,1.32-.94c0-.05,2.09-5.62,10.46-11.58,3.48-.73,5.46-1.25,5.58-1.28a1.41,1.41,0,0,0-.73-2.72Z"/><path class="cls-7" d="M109.71,363.5a84.25,84.25,0,0,1-11.86-2.37,1.41,1.41,0,0,0-.76,2.71c1.17.33,9.66,2.64,15.47,2.64a12.75,12.75,0,0,0,3.07-.32l.79.35c1.37.58,2.79,1.15,4.26,1.69a114,114,0,0,1-11.92-1.1,1.41,1.41,0,0,0-.42,2.78A110.3,110.3,0,0,0,122.17,371a22.59,22.59,0,0,0,5.5-.52q3,.89,6.08,1.68a1.49,1.49,0,0,0,.64.17h0l1.37.34c-8,1.21-19.7,1.49-19.85,1.5a1.41,1.41,0,0,0,0,2.81h0c.79,0,19.43-.47,26.18-2.88q3.31.69,6.7,1.3c-7.41,2.88-20.54,3.6-20.7,3.61a1.41,1.41,0,0,0,.07,2.81h.08c.76,0,18.48-1,25.14-5.64,2.48.41,5,.78,7.45,1.13a88.6,88.6,0,0,1-11.33,3.37,1.41,1.41,0,0,0-1.07,1.68,1.39,1.39,0,0,0,1.26,1.08c-7.1.86-10.73,3-10.92,3.11a1.4,1.4,0,0,0-.48,1.92,1.4,1.4,0,0,0,1.93.49,27.48,27.48,0,0,1,9.41-2.67,104.85,104.85,0,0,0-10.35,6.81,1.41,1.41,0,1,0,1.72,2.23,101,101,0,0,1,9-6,26.31,26.31,0,0,0-4.37,7.45,1.41,1.41,0,0,0,.92,1.76,1.52,1.52,0,0,0,.42.06,1.4,1.4,0,0,0,1.34-1c0-.06,2-5.84,9.73-12.66,1.16-.56,2.34-1.11,3.56-1.64-4.65,5.26-5.94,9.19-6,9.4a1.42,1.42,0,0,0,.92,1.77,1.52,1.52,0,0,0,.42.06,1.4,1.4,0,0,0,1.34-1c0-.06,1.9-5.81,9.8-12.72l0,0a53.84,53.84,0,0,1,7.08-1.85l1.77.18c-6.74,6.51-8.94,11.84-9,12.08a1.41,1.41,0,0,0,.78,1.83,1.39,1.39,0,0,0,.53.1,1.4,1.4,0,0,0,1.3-.88c0-.06,2.45-5.93,10.18-12.77l4.87.42c-7.2,5.36-9.55,10.09-9.66,10.31a1.41,1.41,0,0,0,.65,1.88,1.51,1.51,0,0,0,.62.14,1.4,1.4,0,0,0,1.26-.79c0-.05,2.79-5.52,11.52-11.18l0,0c1.25.1,2.47.18,3.68.26-6.89,5.32-8.81,10-8.9,10.25a1.41,1.41,0,0,0,.79,1.82,1.37,1.37,0,0,0,.52.1,1.41,1.41,0,0,0,1.31-.88c0-.05,2.29-5.44,10.74-11l1.51.09c-6.85,5.3-8.76,10-8.84,10.22a1.4,1.4,0,0,0,.79,1.82,1.32,1.32,0,0,0,.51.1,1.41,1.41,0,0,0,1.31-.89c0-.06,2.21-5.39,10.75-11l3.79.18c-6.9,5.32-8.83,10-8.91,10.26a1.4,1.4,0,0,0,.79,1.82,1.32,1.32,0,0,0,.51.1,1.4,1.4,0,0,0,1.31-.89c0-.06,2.23-5.46,10.91-11.12,1.73.06,3.29.11,4.67.14-6.67,5.23-8.55,9.82-8.63,10a1.39,1.39,0,0,0,.79,1.82,1.34,1.34,0,0,0,.52.1,1.4,1.4,0,0,0,1.3-.88c0-.05,2.29-5.42,10.71-11l1.94,0h0a1.41,1.41,0,0,0,0-2.81c-.09,0-1.43,0-3.75-.06-7-5.37-8.39-12.07-8.4-12.13a1.41,1.41,0,0,0-2.77.5,23.71,23.71,0,0,0,6.75,11.53l-4.92-.16c-7-5.37-8.29-12-8.3-12.07a1.41,1.41,0,1,0-2.77.51,23.69,23.69,0,0,0,6.6,11.37l-4.68-.23a22.35,22.35,0,0,1-8.39-12.13,1.4,1.4,0,1,0-2.76.51A23.6,23.6,0,0,0,197.12,378l-3.52-.23s0,0,0,0c-7.3-5.41-8.68-12.31-8.69-12.37a1.41,1.41,0,0,0-2.77.51,23.7,23.7,0,0,0,6.77,11.54l-3-.24c-6-2.83-6.25-12.83-6.25-12.93a1.41,1.41,0,1,0-2.81,0c0,.37.19,7.35,3.84,12.11a17.1,17.1,0,0,1-3.77-1.59l-.21-.18c-3.91-2.79-5.06-11.75-5.17-15a1.41,1.41,0,0,0-2.81.1,39.66,39.66,0,0,0,1.77,10l-.23-.22s0-.06-.05-.09c-3.45-3.66-5.74-17-6.33-21.82A1.41,1.41,0,1,0,161,348a107.45,107.45,0,0,0,2.62,13.46A98.06,98.06,0,0,1,155.48,347a1.41,1.41,0,0,0-2.59,1.12,98.16,98.16,0,0,0,6.75,12.49,68.08,68.08,0,0,1-7.73-10.08,1.41,1.41,0,0,0-2.39,1.48c.87,1.41,8.54,13.55,15.18,15.67.52.65,1.06,1.29,1.62,1.91a20.94,20.94,0,0,1-7.55-3.77,1.4,1.4,0,1,0-1.82,2.14c.23.2,5.62,4.73,12.52,4.89a35.36,35.36,0,0,0,4,3.24c-3.45-.37-7-.79-10.46-1.27a.45.45,0,0,0-.11,0c-4.66-1.16-8.9-9.1-10.14-12.06a1.41,1.41,0,0,0-2.6,1.08,37.29,37.29,0,0,0,6.43,10.09l-2.46-.39a1.79,1.79,0,0,0-.39-.2c-5-1.56-11.6-13.75-13.74-18.31a1.41,1.41,0,1,0-2.55,1.19c.64,1.36,5.14,10.79,10.36,16.23l-3.93-.77a1.11,1.11,0,0,0-.3-.17c-3.35-1.34-9-11.58-11.78-17.72a1.41,1.41,0,0,0-2.57,1.16c.59,1.3,4.7,10.22,9,15.51q-1.71-.39-3.39-.81a44.6,44.6,0,0,1-14.1-15.95,1.42,1.42,0,0,0-1.88-.66,1.39,1.39,0,0,0-.66,1.87,46.78,46.78,0,0,0,9.71,12.82q-2.82-.84-5.44-1.79c-8.85-5.34-16.85-17.43-16.94-17.56a1.4,1.4,0,0,0-1.94-.4,1.42,1.42,0,0,0-.41,1.95,83.11,83.11,0,0,0,10,12.18C99,355.59,95,352,93.89,350.44A1.4,1.4,0,0,0,91.57,352C93.58,355,99.68,358.83,109.71,363.5Zm45.91,19.61c-1.86,0-3.56.11-5.12.27,2.1-.48,11.61-2.78,15.35-5.4l1.58.2A84.15,84.15,0,0,0,155.62,383.11Z"/><path class="cls-7" d="M303.73,283l-.51.11a32.28,32.28,0,0,0,6.15-8.08,1.42,1.42,0,0,0-.63-1.89,1.41,1.41,0,0,0-1.89.63c0,.08-3.91,7.64-10.67,10.88l-.91.19a32.61,32.61,0,0,0,6.34-8.35,1.42,1.42,0,0,0-.64-1.89,1.4,1.4,0,0,0-1.88.64c0,.08-4,7.82-10.77,11l-2.21.43a29.73,29.73,0,0,0,5.83-7.8,1.41,1.41,0,0,0-2.54-1.21c0,.07-3.33,6.82-9.61,10.18l-1.5.26a24.88,24.88,0,0,0,4.86-5.94,1.41,1.41,0,1,0-2.47-1.34,21.76,21.76,0,0,1-9.14,8.4l-5.22.78a42.2,42.2,0,0,0,7-5.79,27.6,27.6,0,0,0,7.48-4.72,1.41,1.41,0,0,0-1.88-2.1l-.18.15a45.27,45.27,0,0,0,4.27-7.64,1.41,1.41,0,1,0-2.61-1.06,45.56,45.56,0,0,1-5.75,9.48c.69-2.29,1.17-4.29,1.27-4.73a1.41,1.41,0,0,0-2.74-.65c-.81,3.43-2.56,9.45-3.81,11a1.35,1.35,0,0,0-.14.22q-.54.49-1.11,1a57,57,0,0,0,.26-7.51,1.41,1.41,0,0,0-2.82.1c.07,2,.05,7.53-.81,9.93a33.36,33.36,0,0,1-6.55,3.36l-2,.22a27.79,27.79,0,0,0,5.13-6.29,1.41,1.41,0,1,0-2.45-1.39c0,.07-3.64,6.37-8.7,8.21l-2.71.17a27.7,27.7,0,0,0,5.64-6.73,1.41,1.41,0,0,0-2.45-1.39c0,.07-3.83,6.68-9.09,8.32-1.1,0-2.19,0-3.24,0a26.85,26.85,0,0,0,6.5-7.41,1.41,1.41,0,1,0-2.45-1.39c0,.07-4.11,7.19-9.67,8.5l-2-.22a25.79,25.79,0,0,0,7.41-8,1.41,1.41,0,0,0-2.45-1.38c0,.07-4.13,7.21-9.71,8.5l-.1,0h0a1.41,1.41,0,1,0-.69,2.73l.85.2c6.3,5,6.77,8.79,6.78,8.91a1.42,1.42,0,0,0,1.41,1.32h.06a1.4,1.4,0,0,0,1.34-1.47c0-.41-.31-3.55-4.47-7.91.48.05,1,.11,1.46.15,6.39,5.08,6.86,8.87,6.87,9a1.42,1.42,0,0,0,1.4,1.32h.07a1.4,1.4,0,0,0,1.34-1.47c0-.43-.36-3.87-5.12-8.56,1.05,0,2.12.05,3.22.05h.32a1.32,1.32,0,0,0,.4.11c6.31,5,6.78,8.81,6.79,8.93a1.41,1.41,0,0,0,1.41,1.31h.06a1.41,1.41,0,0,0,1.34-1.47c0-.45-.35-4.06-5.53-9l1.91-.09a1.23,1.23,0,0,0,.44.19,22,22,0,0,1,4.35,1.45c2.91,7.35,1.5,10.8,1.45,10.91a1.42,1.42,0,0,0,.63,1.87,1.46,1.46,0,0,0,.64.15,1.4,1.4,0,0,0,1.25-.78c.2-.39,1.59-3.53-.24-9.95a20.85,20.85,0,0,1,4.33,4.38.13.13,0,0,0,0,.06c2,8.06,0,11.38-.07,11.48a1.4,1.4,0,0,0,.35,1.94,1.4,1.4,0,0,0,2-.34c.19-.27,1.33-2.07,1.45-5.91a28.92,28.92,0,0,1,1.43,6.58,1.41,1.41,0,0,0,1.4,1.31h.1a1.4,1.4,0,0,0,1.3-1.5,33.34,33.34,0,0,0-3.68-12,7.4,7.4,0,0,1,3.43,3.68,1.41,1.41,0,0,0,1.35,1,1.49,1.49,0,0,0,.36-.05,1.4,1.4,0,0,0,1-1.72c-.05-.2-1.39-4.92-8.94-7.18a23,23,0,0,0-7.44-6.09l1.54-.14a1.54,1.54,0,0,0,.47.21c8.1,1.8,10.19,5.07,10.25,5.17a1.4,1.4,0,0,0,1.23.72,1.44,1.44,0,0,0,.66-.17,1.4,1.4,0,0,0,.57-1.91c-.18-.34-1.61-2.72-6.4-4.77q3.07-.37,6.18-.83l.22.07c8.1,1.81,10.18,5.07,10.24,5.18a1.43,1.43,0,0,0,1.23.71,1.36,1.36,0,0,0,.67-.17,1.4,1.4,0,0,0,.57-1.9c-.19-.35-1.67-2.79-6.63-4.87l3.45-.57a1.52,1.52,0,0,0,.2.06c8.1,1.81,10.19,5.08,10.25,5.18a1.4,1.4,0,0,0,1.23.72,1.44,1.44,0,0,0,.66-.17,1.41,1.41,0,0,0,.57-1.91c-.19-.35-1.72-2.87-6.88-5l3.17-.6a1.4,1.4,0,0,0,.36.13c.06,0,1.61.32,4.05.86,7.13,4.13,8.38,8.13,8.42,8.23a1.4,1.4,0,0,0,1.35,1.05,1.34,1.34,0,0,0,.35-.05,1.41,1.41,0,0,0,1-1.71c0-.15-.75-2.72-4.2-5.93,1.1.26,2.25.54,3.43.84,7,4.06,8,7.71,8,7.83a1.43,1.43,0,0,0,1.38,1.11l.27,0a1.41,1.41,0,0,0,1.11-1.65c-.07-.34-.6-2.49-3.46-5.31l1.68.48a1.24,1.24,0,0,0,.41.3c7.3,3.3,9,6,9.09,6.11a1.42,1.42,0,0,0,1.23.72,1.4,1.4,0,0,0,1.24-2.07,6.18,6.18,0,0,0-.85-1.13,18.72,18.72,0,0,1,4,2.29,1.35,1.35,0,0,0,.89.32,1.38,1.38,0,0,0,1.08-.51,1.4,1.4,0,0,0-.19-2c-1.81-1.49-5.08-3-9-4.41,3.47-.37,6.34-.94,6.55-1a1.41,1.41,0,0,0-.55-2.76c-.09,0-8.52,1.69-13.67,1.15a1.76,1.76,0,0,0-.33,0c-2.65-.77-5.35-1.49-7.92-2.14a1.3,1.3,0,0,0-.43-.11c-3.17-.8-6.13-1.49-8.54-2l1.92-.4.11,0a1.38,1.38,0,0,0,.56-.12l.16-.07.13,0,.27,0c8,0,10.7,1.76,10.8,1.83a1.36,1.36,0,0,0,.83.28,1.41,1.41,0,0,0,.86-2.53,10.88,10.88,0,0,0-3.91-1.54c5.62-.4,16.73,2.1,16.85,2.12a1.1,1.1,0,0,0,.31,0,1.42,1.42,0,0,0,1.37-1.1,1.4,1.4,0,0,0-1.06-1.68c-.29-.07-4.07-.92-8.39-1.55,9.22-2.25,15.49-4,16.36-4.23a1.41,1.41,0,1,0-.76-2.71c-.19.05-5.15,1.43-12.89,3.35,2.42-1.43,4.09-2.56,4.26-2.67a1.41,1.41,0,0,0-1.59-2.33c-.09.06-9.44,6.4-16.38,8.21A1.57,1.57,0,0,0,303.73,283Z"/><path class="cls-7" d="M402.24,460.8a1.41,1.41,0,0,0-1.56-1.23c-5.18.6-15.45,1.8-22.82,2.57,6.14-2.93,11.39-5.21,11.46-5.24a1.4,1.4,0,1,0-1.11-2.58c-.1,0-9.63,4.17-18.08,8.49l-.05,0-2.25.14c6.77-4.62,8.91-9.9,9-10.17a1.41,1.41,0,0,0-2.62-1c0,.07-2.78,6.75-12,11.18a1.34,1.34,0,0,0-.47.25.67.67,0,0,0-.11.07c-1.6.06-3.18.1-4.75.14,6.74-4.14,9.32-8.94,9.45-9.19a1.4,1.4,0,1,0-2.49-1.3c0,.06-3.54,6.56-13.34,10.57-1.37,0-2.73,0-4.08,0a24.46,24.46,0,0,0,8.75-8.48,1.41,1.41,0,1,0-2.46-1.38c-.05.09-5.14,8.93-15.14,9.61-1.77-.08-3.51-.17-5.23-.27a28,28,0,0,0,9.63-7.82,1.4,1.4,0,1,0-2.26-1.66c-.07.09-6.64,8.84-16.47,8.77a31.2,31.2,0,0,0,10.46-6.87,1.4,1.4,0,1,0-2.07-1.9,29.87,29.87,0,0,1-15.75,8c-1.53-.19-3-.39-4.54-.6a62.63,62.63,0,0,0,9.9-4.58,1.4,1.4,0,0,0,.51-1.92,1.41,1.41,0,0,0-1.93-.51c-.09.06-9.82,5.71-15.81,5.71h-.19a1.1,1.1,0,0,0-.44.07l-3.15-.56a63.26,63.26,0,0,0,10.37-4.74,1.41,1.41,0,0,0-1.42-2.43c-.1.05-9.83,5.7-15.81,5.7H293c-2.22-.47-4.39-1-6.5-1.48a62.74,62.74,0,0,0,10.41-4.75,1.41,1.41,0,0,0-1.42-2.43c-.1.05-8.89,5.16-14.9,5.66-3-.81-5.88-1.66-8.63-2.52a61.56,61.56,0,0,0,11.37-5,1.42,1.42,0,0,0,.5-1.93,1.39,1.39,0,0,0-1.92-.5c-.1.05-9.41,5.47-15.42,5.69q-2.49-.84-4.82-1.7a96.3,96.3,0,0,0,15.82-3.83,1.41,1.41,0,1,0-.91-2.66c-.13,0-13.82,4.64-20.77,3.9a1.46,1.46,0,0,0-.63.08q-2.23-.9-4.27-1.8a96.25,96.25,0,0,0,15.89-3.83,1.41,1.41,0,0,0,.88-1.79,1.42,1.42,0,0,0-1.79-.88c-.13,0-13.71,4.61-20.68,3.92-3.15-1.5-5.86-2.9-8.14-4.14,7.51-.71,16.79-3.83,17.26-4a1.4,1.4,0,0,0-.9-2.66c-.14,0-13.83,4.64-20.78,3.9a1.28,1.28,0,0,0-.34,0c-2.51-1.52-3.82-2.46-3.9-2.52a1.42,1.42,0,0,0-2,.31,1.4,1.4,0,0,0,.31,2c.4.3,8.09,5.87,22.84,12.3a55.51,55.51,0,0,0,.6,8.1,1.08,1.08,0,0,0-.08.19c-3.49,10.55-.1,17.8,0,18.1a1.42,1.42,0,0,0,1.27.8,1.47,1.47,0,0,0,.61-.14,1.41,1.41,0,0,0,.66-1.88c0-.05-2-4.22-1.11-10.76,2.76,9.37,7.45,13.51,7.73,13.75a1.45,1.45,0,0,0,.91.34,1.38,1.38,0,0,0,1.07-.5,1.4,1.4,0,0,0-.15-2c-.05,0-2.89-2.55-5.32-8.18a21.2,21.2,0,0,0,6.8,5,1.37,1.37,0,0,0,.52.1,1.39,1.39,0,0,0,1.3-.88,1.41,1.41,0,0,0-.78-1.83c-.06,0-6.33-2.66-10.44-11.12a52.17,52.17,0,0,1-.8-7.92c3.41,1.43,7.16,2.88,11.25,4.32,1.43,10.52,7.25,15.48,7.51,15.69a1.41,1.41,0,0,0,2-.19,1.41,1.41,0,0,0-.19-2s-4.72-4-6.3-12.49c3.59,1.2,7.51,2.4,11.75,3.57a1.4,1.4,0,0,0,.62.39c1.53,10.22,7.19,15,7.44,15.25a1.4,1.4,0,0,0,.9.32,1.38,1.38,0,0,0,1.08-.51,1.4,1.4,0,0,0-.18-2s-4.73-4-6.31-12.52q4.74,1.23,9.94,2.36c1.47,10.41,7.24,15.31,7.49,15.52a1.38,1.38,0,0,0,.89.33,1.41,1.41,0,0,0,.9-2.5c-.05,0-4.82-4.08-6.35-12.74,2.63.53,5.34,1,8.13,1.51a28.15,28.15,0,0,0,9,16,1.41,1.41,0,0,0,2-.24,1.41,1.41,0,0,0-.24-2,25.25,25.25,0,0,1-7.72-13.27q2.85.45,5.82.85c3.79,10.38,10.88,13.73,11.19,13.87a1.47,1.47,0,0,0,.58.12,1.4,1.4,0,0,0,.59-2.68c-.07,0-5.72-2.76-9.18-10.9,1.77.23,3.57.43,5.41.62,3.78,10.22,10.77,13.32,11.07,13.45a1.35,1.35,0,0,0,.55.11,1.4,1.4,0,0,0,.55-2.7c-.06,0-5.6-2.47-9-10.55,2.09.19,4.21.37,6.36.51a30.75,30.75,0,0,0,13.16,13,1.36,1.36,0,0,0,.56.11,1.4,1.4,0,0,0,.57-2.69,28.08,28.08,0,0,1-10.9-10.16c1.16.07,2.32.13,3.49.18a1.42,1.42,0,0,0,.45.08h.06l.53,0,2.15.09A30.82,30.82,0,0,0,353,478.74a1.5,1.5,0,0,0,.55.11,1.41,1.41,0,0,0,.55-2.7,28.13,28.13,0,0,1-10.86-9.9c2.26.05,4.56.08,6.88.08h.3a30.73,30.73,0,0,0,14.73,11,1.2,1.2,0,0,0,.38,0,1.41,1.41,0,0,0,.38-2.76,27.7,27.7,0,0,1-11.9-8.29q4.14,0,8.41-.23a30.67,30.67,0,0,0,16.06,8.08h.16a1.4,1.4,0,0,0,.15-2.8,27.75,27.75,0,0,1-12.24-5.46c1.42-.08,2.85-.16,4.3-.26l.8-.06c8.21,5.75,19.16,6,20.86,6h.2a1.41,1.41,0,0,0,0-2.82h0a40.48,40.48,0,0,1-16.23-3.61c7.45-.76,19-2.09,24.55-2.75A1.41,1.41,0,0,0,402.24,460.8Z"/><path class="cls-3" d="M148.8,288.48a5.53,5.53,0,1,0-.52,11h0l.52-11Z"/><path class="cls-3" d="M154.07,294.27a5.54,5.54,0,0,0-5.27-5.79s-2.36,1.39-2.53,5.42c-.19,4.23,2,5.63,2,5.63A5.53,5.53,0,0,0,154.07,294.27Z"/><path class="cls-4" d="M149.82,288.57c0,.35-2.56.4-2.56,0v-1.05h2.56Z"/><path class="cls-4" d="M148.54,288.36a.93.93,0,1,1,1-.93A1,1,0,0,1,148.54,288.36Zm0-1.69a.76.76,0,1,0,.83.76A.8.8,0,0,0,148.54,286.67Z"/><path class="cls-3" d="M276.41,254a6.26,6.26,0,0,0-.59,12.5h0l.59-12.5Z"/><path class="cls-3" d="M282.37,260.49a6.26,6.26,0,0,0-6-6.54s-2.66,1.57-2.86,6.13c-.21,4.77,2.27,6.37,2.27,6.37A6.27,6.27,0,0,0,282.37,260.49Z"/><path class="cls-4" d="M277.57,254.05c0,.39-2.9.46-2.9,0v-1.19h2.9Z"/><path class="cls-4" d="M276.12,253.82a1.06,1.06,0,1,1,1.13-1.06A1.1,1.1,0,0,1,276.12,253.82Zm0-1.91a.86.86,0,1,0,.93.85A.9.9,0,0,0,276.12,251.91Z"/><path class="cls-3" d="M249.78,295.11a5.76,5.76,0,1,0-.54,11.5h0l.54-11.5Z"/><path class="cls-3" d="M255.25,301.13a5.76,5.76,0,0,0-5.47-6s-2.45,1.44-2.64,5.64c-.19,4.39,2.1,5.86,2.1,5.86A5.75,5.75,0,0,0,255.25,301.13Z"/><path class="cls-4" d="M250.84,295.21c0,.36-2.67.42-2.67,0v-1.1h2.67Z"/><path class="cls-4" d="M249.5,295a1,1,0,1,1,1-1A1,1,0,0,1,249.5,295Zm0-1.76a.79.79,0,1,0,.87.79A.84.84,0,0,0,249.5,293.23Z"/><path class="cls-3" d="M197.29,197a5.78,5.78,0,0,0-.54,11.54h0l.54-11.54Z"/><path class="cls-3" d="M202.79,203.05a5.79,5.79,0,0,0-5.5-6.05s-2.46,1.45-2.64,5.66c-.19,4.42,2.1,5.88,2.1,5.88A5.76,5.76,0,0,0,202.79,203.05Z"/><path class="cls-4" d="M198.36,197.1c0,.36-2.68.42-2.68,0V196h2.68Z"/><path class="cls-4" d="M197,196.88a1,1,0,1,1,1-1A1,1,0,0,1,197,196.88Zm0-1.76a.8.8,0,1,0,.86.79A.82.82,0,0,0,197,195.12Z"/><path class="cls-8" d="M193.59,114.1a5.13,5.13,0,1,0-.49,10.25h0l.49-10.25Z"/><path class="cls-8" d="M198.47,119.47a5.13,5.13,0,0,0-4.88-5.37s-2.19,1.29-2.35,5c-.17,3.92,1.86,5.22,1.86,5.22A5.12,5.12,0,0,0,198.47,119.47Z"/><path class="cls-5" d="M194.54,114.19c0,.32-2.38.37-2.38,0v-1h2.38Z"/><path class="cls-5" d="M193.35,114a.86.86,0,1,1,0-1.72.86.86,0,1,1,0,1.72Zm0-1.56a.73.73,0,0,0-.77.7.77.77,0,0,0,1.53,0A.73.73,0,0,0,193.35,112.43Z"/><path class="cls-8" d="M243.1,88a3.26,3.26,0,1,0-.3,6.52h0l.3-6.52Z"/><path class="cls-8" d="M246.21,91.43A3.27,3.27,0,0,0,243.1,88a3.81,3.81,0,0,0-1.49,3.2c-.11,2.49,1.19,3.32,1.19,3.32A3.28,3.28,0,0,0,246.21,91.43Z"/><path class="cls-5" d="M243.71,88.08c0,.2-1.52.23-1.52,0v-.62h1.52Z"/><path class="cls-5" d="M243,88a.55.55,0,1,1,.59-.54A.57.57,0,0,1,243,88Zm0-1a.45.45,0,1,0,.49.45A.47.47,0,0,0,243,87Z"/><path class="cls-8" d="M245.86,173.62a6.22,6.22,0,0,0-.59,12.43h0l.59-12.43Z"/><path class="cls-8" d="M251.78,180.13a6.23,6.23,0,0,0-5.92-6.51s-2.65,1.56-2.85,6.1c-.2,4.75,2.26,6.33,2.26,6.33A6.23,6.23,0,0,0,251.78,180.13Z"/><path class="cls-5" d="M247,173.73c0,.39-2.89.45-2.89,0v-1.19H247Z"/><path class="cls-5" d="M245.56,173.49a1,1,0,1,1,1.12-1A1.08,1.08,0,0,1,245.56,173.49Zm0-1.9a.86.86,0,1,0,0,1.71.86.86,0,1,0,0-1.71Z"/><path class="cls-3" d="M206.14,259.67a4.68,4.68,0,0,0-.44,9.35h0l.45-9.35Z"/><path class="cls-3" d="M210.6,264.56a4.67,4.67,0,0,0-4.45-4.89s-2,1.17-2.15,4.58c-.15,3.58,1.7,4.77,1.7,4.77A4.69,4.69,0,0,0,210.6,264.56Z"/><path class="cls-4" d="M207,259.75c0,.29-2.17.34-2.17,0v-.89H207Z"/><path class="cls-4" d="M205.92,259.57a.79.79,0,1,1,.85-.78A.81.81,0,0,1,205.92,259.57Zm0-1.43a.65.65,0,1,0,.7.65A.67.67,0,0,0,205.92,258.14Z"/><path class="cls-3" d="M253.39,377.12a4.54,4.54,0,1,0-.42,9.07h0l.42-9.07Z"/><path class="cls-3" d="M257.72,381.87a4.54,4.54,0,0,0-4.33-4.75s-1.93,1.13-2.08,4.44c-.15,3.48,1.66,4.63,1.66,4.63A4.55,4.55,0,0,0,257.72,381.87Z"/><path class="cls-4" d="M254.23,377.19c0,.29-2.1.33-2.1,0v-.86h2.1Z"/><path class="cls-4" d="M253.18,377a.77.77,0,1,1,.82-.76A.79.79,0,0,1,253.18,377Zm0-1.39a.63.63,0,1,0,0,1.25.63.63,0,1,0,0-1.25Z"/><path class="cls-3" d="M167.75,379.11a5.95,5.95,0,0,0-.56,11.88h0l.56-11.88Z"/><path class="cls-3" d="M173.41,385.33a6,6,0,0,0-5.66-6.22s-2.53,1.49-2.72,5.83c-.2,4.54,2.16,6.05,2.16,6.05A5.93,5.93,0,0,0,173.41,385.33Z"/><path class="cls-4" d="M168.85,379.21c0,.37-2.76.43-2.76,0v-1.13h2.76Z"/><path class="cls-4" d="M167.47,379a1,1,0,1,1,1.07-1A1,1,0,0,1,167.47,379Zm0-1.82a.82.82,0,1,0,.89.82A.86.86,0,0,0,167.47,377.17Z"/><path class="cls-3" d="M101,403.38a5.39,5.39,0,0,0-.51,10.76h0l.51-10.76Z"/><path class="cls-3" d="M106.08,409a5.4,5.4,0,0,0-5.13-5.64s-2.29,1.35-2.46,5.28c-.18,4.11,2,5.48,2,5.48A5.38,5.38,0,0,0,106.08,409Z"/><path class="cls-4" d="M102,403.47c0,.34-2.5.4-2.5,0v-1H102Z"/><path class="cls-4" d="M100.7,403.27a.91.91,0,1,1,0-1.81.91.91,0,1,1,0,1.81Zm0-1.64a.74.74,0,1,0,.8.74A.77.77,0,0,0,100.7,401.63Z"/><path class="cls-3" d="M350.46,378.21a6.5,6.5,0,0,0-.61,13h0l.61-13Z"/><path class="cls-3" d="M356.65,385a6.51,6.51,0,0,0-6.19-6.8s-2.77,1.63-3,6.37c-.21,5,2.37,6.62,2.37,6.62A6.5,6.5,0,0,0,356.65,385Z"/><path class="cls-4" d="M351.66,378.32c0,.41-3,.47-3,0v-1.24h3Z"/><path class="cls-4" d="M350.15,378.08a1.1,1.1,0,1,1,1.18-1.1A1.15,1.15,0,0,1,350.15,378.08Zm0-2a.89.89,0,1,0,1,.89A.94.94,0,0,0,350.15,376.09Z"/><path class="cls-3" d="M194.07,334.68a6.45,6.45,0,1,0-.61,12.89h0l.61-12.89Z"/><path class="cls-3" d="M200.21,341.43a6.45,6.45,0,0,0-6.14-6.75s-2.75,1.61-2.95,6.32c-.22,4.93,2.34,6.57,2.34,6.57A6.45,6.45,0,0,0,200.21,341.43Z"/><path class="cls-4" d="M195.26,334.78c0,.41-3,.47-3,0v-1.23h3Z"/><path class="cls-4" d="M193.77,334.54a1.09,1.09,0,1,1,1.16-1.09A1.13,1.13,0,0,1,193.77,334.54Zm0-2a.89.89,0,1,0,1,.88A.93.93,0,0,0,193.77,332.57Z"/><path class="cls-3" d="M313.42,326.9a4.93,4.93,0,1,0-.46,9.84h0l.46-9.84Z"/><path class="cls-3" d="M318.11,332.05a4.93,4.93,0,0,0-4.69-5.15s-2.1,1.23-2.25,4.82c-.17,3.77,1.79,5,1.79,5A4.92,4.92,0,0,0,318.11,332.05Z"/><path class="cls-4" d="M314.33,327c0,.31-2.28.36-2.28,0V326h2.28Z"/><path class="cls-4" d="M313.19,326.8a.83.83,0,1,1,.89-.83A.87.87,0,0,1,313.19,326.8Zm0-1.51a.68.68,0,1,0,.74.68A.71.71,0,0,0,313.19,325.29Z"/><path class="cls-4" d="M232.49,540.63C228.67,489.44,228,438.16,228,438.16L226.38,31.38A1.25,1.25,0,0,0,225,30.1c-1.07,0-1.28,1.28-1.3,1.28L222,438.63s-.4,51.28-4.36,102Z"/></g></g></g></svg>