<svg xmlns="http://www.w3.org/2000/svg" viewBox="0 0 270 270"><defs><style>.cls-1{fill:#fff;}.cls-2{fill:#a01a22;}.cls-3{fill:#002d26;}.cls-4{fill:#a78126;}.cls-5{fill:#d7b88b;}</style></defs><g id="Capa_2" data-name="Capa 2"><g id="Home"><rect class="cls-1" width="270" height="270" rx="9.75"/><path class="cls-2" d="M218.78,16.72c.61,0,1.23.23,1.84.33a9.11,9.11,0,0,1,1.69.43,5.48,5.48,0,0,1,2.75,2.08,7.06,7.06,0,0,1,.86,1.48,10.13,10.13,0,0,1,.7,1.58,12.06,12.06,0,0,1,.49,3.77,31.21,31.21,0,0,1-.1,3.87,11.58,11.58,0,0,1-1.08,3.44c-.29.61-.68,1.14-1,1.73a7.2,7.2,0,0,1-.94,1.49,9.83,9.83,0,0,1-2.72,2.21c-1,.53-2,.95-3.06,1.4-.27.12-.45.35-.73.45a3.89,3.89,0,0,0-.69.3c-.46.31-.92.63-1.35,1a6.53,6.53,0,0,0-1.38,2.89l-.55,1.59a8.39,8.39,0,0,0-.27.85,1.53,1.53,0,0,1-.07.36v-.09a2.69,2.69,0,0,1-.11.7v-.09a4.62,4.62,0,0,1-.28,1L212.35,51c-.28,1-.53,2-.74,3a5.73,5.73,0,0,1,2.3-.79,10.48,10.48,0,0,1,1.12,0c.43,0,.84-.09,1.27-.12a7.15,7.15,0,0,1,4.51,1.6,21.19,21.19,0,0,1,1.91,1.64c.23.2.79.8,1.14.58.87-.56.74-2.32.54-3.14a2.28,2.28,0,0,1,.29-1.64c.26-.37.73-.28,1.12-.26a.82.82,0,0,1,.92.76,12.62,12.62,0,0,1,.13,1.74,7.12,7.12,0,0,1-.14,2,6,6,0,0,0,0,.85l-.07.89c0,.63-.18,1.29-.25,1.94a4.39,4.39,0,0,0-.07.58,1.34,1.34,0,0,1-.09.71c-.31.65-1.39.41-1.85.06s-.38-.82-.58-1.24-.67-.29-1-.29c-.56.06-1.12,0-1.67.06a8.69,8.69,0,0,1-1.76.18,9.83,9.83,0,0,1-3.63-.89l.14.06a8,8,0,0,0-2.05-.53,4.37,4.37,0,0,1-1,0,3.53,3.53,0,0,0-1.28.23c-.44.13-.69.55-1.09.72a1.12,1.12,0,0,1-1.26-.23c-.45-.37-.4-.91-.38-1.46s.08-1.26.16-1.89a40.91,40.91,0,0,1,1.8-7.71c.14-.43.15-.89.27-1.32s.37-1,.53-1.58a33.33,33.33,0,0,1,1.29-3.5,6,6,0,0,1,2.27-2.33,17,17,0,0,1,1.55-1,2.54,2.54,0,0,0,.46-.35l.25-.25.21-.16,0-.06a15.38,15.38,0,0,0,1.67-3.06c.44-1.09.83-2.48,1.19-3.69a10.76,10.76,0,0,0,.37-1.09c.08-.36.05-.75.1-1.11a10.7,10.7,0,0,0,.22-1.1c0-.4,0-.8,0-1.21a17.49,17.49,0,0,0-.19-1.79,24.71,24.71,0,0,1-.4-2.58,4,4,0,0,0-.53-1.92,5.2,5.2,0,0,0-.57-.76c-.2-.24-.24-.38-.57-.3s-.91.09-1.24.48a8.85,8.85,0,0,0-1,1.73l0-.11a14.73,14.73,0,0,0-.51,2.16,20.86,20.86,0,0,0,0,2.74,6,6,0,0,1-.1,2.57,1.16,1.16,0,0,1-.61.77,2.16,2.16,0,0,1-1.13.06c-.94,0-1.88,0-2.82.06a3.59,3.59,0,0,1-2.1-.3c-.75-.48-.58-1.2-.58-2a19,19,0,0,1-.13-2.51c.29-2.39,1-4.77,3-6.27A10.19,10.19,0,0,1,215,17a7.76,7.76,0,0,1,2-.24,15.79,15.79,0,0,1,1.82,0Z"/><path class="cls-2" d="M245.88,16.66a4.3,4.3,0,0,0,.73.3l.72.15a8.56,8.56,0,0,1,5.34,3.33A13.9,13.9,0,0,1,255,26.79c.19,1.16.51,2.28.8,3.41a25.72,25.72,0,0,1,.55,3.37c.23,1.92,0,3.81.07,5.74s-.17,3.77-.23,5.66c0,1,0,1.91-.12,2.85s-.24,1.86-.41,2.79c-.3,1.77-.42,3.57-1.42,5.13a8.19,8.19,0,0,1-2.44,2.43,8.33,8.33,0,0,1-1.67.88c-.47.15-1,.1-1.41.27a15,15,0,0,1-3.55.94,10.38,10.38,0,0,1-1.93-.12c-.49,0-1,.07-1.46,0-2.37,0-4.66-1.71-6.14-3.46a15,15,0,0,1-1.94-3,10.27,10.27,0,0,1-.64-2.87,34.51,34.51,0,0,1-.82-4.61c0-.81.08-1.61.06-2.42s-.12-1.47-.15-2.21c.06.24,0-.09,0-.11l-.06-.41-.12-.94c0-.62,0-1.25,0-1.87a25.76,25.76,0,0,1,.27-3.72,35.19,35.19,0,0,0,.1-3.56,14.09,14.09,0,0,1,.63-3.59c.39-1.23.89-2.42,1.36-3.61a9,9,0,0,1,1.59-2.83,15.22,15.22,0,0,1,2.5-2.24,5.62,5.62,0,0,1,1.4-.72c.28-.1.58-.16.88-.24a1.5,1.5,0,0,1,.36-.11l-.08.05a9.08,9.08,0,0,1,3.28-1.05A3.61,3.61,0,0,1,245.88,16.66ZM245,19.39c-.21.15-.45.26-.66.42l-.13.09A8.75,8.75,0,0,0,242,23.05c-.31.66-.65,1.3-1,1.94l-.5.94-.14.29a16.77,16.77,0,0,0-.31,2.11c-.11.79-.36,1.54-.52,2.31a17,17,0,0,0-.38,2.34c-.06.87,0,1.74-.1,2.6-.1,1.3-.08,2.6-.17,3.9s-.11,2.65-.09,4a8.13,8.13,0,0,0,.16,1.71,9.32,9.32,0,0,1,.21,1.82,24,24,0,0,0,.2,3.49,34.57,34.57,0,0,0,1,3.57,10.08,10.08,0,0,0,1.56,3l.34.4c.19.25.19.27.52.3s.77,0,1.15-.09a6.07,6.07,0,0,0,2.43-1.43,14.71,14.71,0,0,0,1.32-1.17,3.64,3.64,0,0,0,.65-1.23c.42-1.23.69-2.51,1-3.78a14.93,14.93,0,0,0,.49-3.18c0-1.32,0-2.64.13-4a38.15,38.15,0,0,0,.25-4c0-1.35-.24-2.7-.38-4s-.27-2.7-.31-4c0-1.19-.21-2.35-.36-3.53v.08a25.56,25.56,0,0,0-.77-2.54c-.35-.9-.75-1.77-1.14-2.65a7.48,7.48,0,0,0-1.16-2.35,3.92,3.92,0,0,0-.52-.39l-.39-.23Z"/><path class="cls-3" d="M138.5,104.19c8.83-.82,17.17-3.51,26.13-3,4.83.28,9.55.88,14.34,1.41a35.92,35.92,0,0,0,6.37.57,5.39,5.39,0,0,0,4.66-3.3c-2.31-.09-4.7-.57-6.2-.69-10.26-.79-20.57-1.37-30.84,0-4.88.67-9.83,1.55-14.77,1.57-10.22,0-20.11-2.63-30.26-3.27a56.64,56.64,0,0,0-16,1.21C89.56,99.24,86,100.23,83,100c-.16,1.14-.31,2.28-.48,3.42C101.11,104.93,119.92,105.92,138.5,104.19Z"/><path class="cls-3" d="M87.58,86.78l4.51.35c3,.23,6,.45,9,.61,5.53.3,11,1,16.54,1.52,11,1.12,22.28,0,33.28,1.22s21.89,3.43,33,4.38c2.88.25,5.75.47,8.62.89,3.43.49,1.05-10.62.42-11.83-1.73-3.3-5.07-2.6-8.19-2.83-2.46-.18-4.92-.36-7.38-.52-4.41-.29-8.91-.62-13.33-.47-8.92.29-17.84.9-26.76.81s-18,.33-27,.5c-4.35.08-8.71.06-13.06.21-4,.13-8.18.64-12.13.11C83.47,83.41,85.27,86.6,87.58,86.78Z"/><path class="cls-3" d="M83.24,96.71c4.57-.27,8.9-1.81,13.42-2.33,8-.92,15.81.12,23.72,1.32,8.71,1.33,17.26,2.33,26.05,1,2.48-.36,5.06-.83,7.67-1.21-1.09-.11-2.19-.18-3.3-.19-3.18,0-6.33.36-9.5.4-7.34.09-14.14-1-21.32-2.22-7.76-1.3-15.66-2.13-23.45-3.27-3.43-.51-7-.79-10.38-1.55a16.68,16.68,0,0,1-1.67-.45c-2.07,1.31-2.66,3.71-2.76,6C81.65,96,81.14,96.83,83.24,96.71Z"/><path class="cls-3" d="M197.13,136.91c-.22-6.34-.85-13.34-3.5-19.21-1.65-3.67-4.13-7.08-5.24-10.94-4.17.88-8.22-1.42-12.34-2-10.73-1.47-21.24,0-31.73,2.39-4.83,1.09-9.71,2.65-14.68,3a104.27,104.27,0,0,1-16.1-.31c-9.17-.86-18.25-2.42-27.39-3.6,1.11,3.25-.26,6.33-1.61,9.51a78.81,78.81,0,0,0-4.17,15.05C78.87,138.12,79.1,146,78,153.43q.3,9.7.45,19.41c.07,5.6.3,11.21.2,16.8-.1,5.1-.79,10.15-.69,15.24.1,5.6.33,11.2.56,16.8.2,5,.11,10.31,1.08,15.29,3.16,16.3,26.12,15.71,38.55,17.25,8.73,1.08,17.58,2.14,26.39,1.76,10.14-.44,19.71-1.42,29.76-2.73,6.55-.86,13.28-1.92,18.94-5.55,3.94-2.52,4-7.68,4.28-12,.39-6.59.57-13.18.78-19.78.42-13.19.45-26.39.24-39.58S197.58,150,197.13,136.91Z"/><path class="cls-3" d="M72,101c2.23,1.21,5.1.86,7.49.44,1.52-.27.92-2.44-.54-2.28-2.68.29-6.68.84-7.76-2.46-.46-1.4.75-2.42,1.85-3a3.89,3.89,0,0,1,1.08-.34c.16.78.34,1.55.54,2.3a1.34,1.34,0,0,0,2.64-.27c.09-.68.16-1.37.19-2.06h.79a.75.75,0,0,0,.23-1.47,10,10,0,0,0-1-.31c0-4.31-.78-8.74-1-13A56.08,56.08,0,0,1,77.88,63.4,53.77,53.77,0,0,1,91.2,38.65c8.1-8.43,21.46-16.57,33.13-18,12.17-1.49,23.58-2.7,35,2.85,7.49,3.81,15.19,8.63,21.08,14.66,6.05,6.17,9.12,15.23,11.47,23.36a122.73,122.73,0,0,1,4.2,22.06,5.76,5.76,0,0,0-1.81.7c-1.57,1-.14,3.49,1.32,2.48a5.56,5.56,0,0,1,.74-.42c.08,1.11.15,2.22.21,3.32.09,2,3.2,2.14,3.15.09,0-1.12-.07-2.23-.12-3.34a4.11,4.11,0,0,1,2,3.91,4.51,4.51,0,0,1-3.36,3.85c-1.44.47-2.58,0-4-.13a.39.39,0,0,0-.36.2l-.09.17a.8.8,0,0,0,.23,1.06c1.82,1.36,4.47.89,6.36,0a6.56,6.56,0,0,0,3.38-5.58,6,6,0,0,0-4.29-6.06,142.14,142.14,0,0,0-3.6-24.39c-2.3-9.57-4.91-18.6-12-25.77-6.44-6.53-15-11.63-23.32-15.38-6.52-2.95-14.8-5.66-22.14-4.16a69.49,69.49,0,0,0-8.31.73,70.92,70.92,0,0,0-16.26,3.79A61.6,61.6,0,0,0,88.49,35.72,63.38,63.38,0,0,0,74.3,61.28a55.17,55.17,0,0,0-1.73,16,100.72,100.72,0,0,0,1.12,14.06c-2.69.38-5,2-5,5.11C68.72,98.42,70.33,100.08,72,101Z"/><path class="cls-4" d="M120.11,152.51a12.73,12.73,0,0,1,1.44-2.44,10.79,10.79,0,0,0,1.61-2,.66.66,0,0,0-.71-.88c-1.89.46-3.22,3.11-3.74,4.81A.75.75,0,0,0,120.11,152.51Z"/><path class="cls-4" d="M129.17,163.59a8.13,8.13,0,0,0-5.55-1.05c-.63.11-.83,1.13-.15,1.32a20.29,20.29,0,0,0,2.55.44,11.06,11.06,0,0,0,2.92.24A.53.53,0,0,0,129.17,163.59Z"/><path class="cls-4" d="M120.55,175.48a.74.74,0,0,0-1.25.77c.52,1.31,1.32,2.52,1.9,3.82.64,1.46,1,3,1.71,4.46.26.51,1.19.48,1.2-.19a11.44,11.44,0,0,0-1.08-4.51A14.12,14.12,0,0,0,120.55,175.48Z"/><path class="cls-4" d="M107.92,180.28c-1.09,1.77-2.5,4-2.71,6.1a.62.62,0,0,0,1.11.43,10.68,10.68,0,0,0,1.24-2.62c.44-1.13.89-2.25,1.31-3.39C109.07,180.24,108.26,179.74,107.92,180.28Z"/><path class="cls-4" d="M98.89,175.59a17,17,0,0,0-2.19,2.6,8,8,0,0,0-1.61,3.13.54.54,0,0,0,.86.47,10.23,10.23,0,0,0,1.84-2.3c.66-1,1.45-1.93,2.09-2.94C100.29,175.91,99.5,175,98.89,175.59Z"/><path class="cls-4" d="M94.84,165.61c-1.51-.41-3.55-1.17-5.1-.76a.6.6,0,0,0-.13,1.14,7.46,7.46,0,0,0,2.35.49c.85.12,1.7.29,2.54.48S95.6,165.82,94.84,165.61Z"/><path class="cls-4" d="M97.78,155.41c.22.64,1.22.31,1.12-.33a6.6,6.6,0,0,0-1.82-3.39c-1-1.13-1.9-2.32-2.89-3.45-.31-.36-1.06-.24-1.07.32C93.11,151.5,96.88,152.8,97.78,155.41Z"/><path class="cls-4" d="M106.1,149.67a.56.56,0,0,0,.9.34c1-.81,1-2,.93-3.23a15,15,0,0,0-.45-4.59.67.67,0,0,0-1.22,0,12.48,12.48,0,0,0-.16,3.56C106.14,147.06,106,148.4,106.1,149.67Z"/><path class="cls-4" d="M124.06,169.4c-2.36-1.33-4.71-2.7-7.14-3.9a.87.87,0,0,1-.37-1.3c1.45-2.33,3-4.58,4.69-6.75-2.16.56-4.31,1.11-6.44,1.82a.84.84,0,0,1-1.16-.85,31.42,31.42,0,0,0-.46-5.43l-3.69,4.86a.91.91,0,0,1-1.42,0,30.4,30.4,0,0,0-3.54-4.1c.2,1.32.4,2.64.61,4a.87.87,0,0,1-.71,1l-7.61.87c1.25,1.35,2.49,2.71,3.63,4.16a2.36,2.36,0,0,1,.73,1.57,4.49,4.49,0,0,1-1.29,2.18q-1.38,1.74-2.79,3.46,3.27.28,6.54.54a.79.79,0,0,1,.69.86,22.94,22.94,0,0,0,.48,4.92,18.21,18.21,0,0,0,3.93-4.86.88.88,0,0,1,1.4,0c1.17,1.76,2.35,3.51,3.52,5.26.21-2.3.36-4.61.43-6.93a.88.88,0,0,1,1-.79A18.81,18.81,0,0,0,124.06,169.4Z"/><path class="cls-4" d="M149,228.9c3,.27,6.44-1.74,9.32-3.54l-10.51-2.3a1.05,1.05,0,0,1-.79-1,48.84,48.84,0,0,0-.57-11.78L141,217c-.84,1-2.13,3.38-3.83,3.08-1.22-.21-2-.94-3.26-1.29s-2.59-.63-3.91-.9a25.28,25.28,0,0,1-3.84-1c-.38-.16-.76-.34-1.13-.54a1.22,1.22,0,0,1-.84-.56,1.56,1.56,0,0,1-.16.2c3.17,3.31,6.35,6.58,9.76,9.64a1.06,1.06,0,0,1-.21,1.65,48.59,48.59,0,0,0-7.67,6.56c3,.17,6.26-.44,9.21-.7.75-.06,1.11.72,1,1.34a45.34,45.34,0,0,0-.36,10.79c2-1.57,4.23-5.74,5.26-7.14.79-1.07,1.65-2.87,3.09-3.26,1.28-.36,2.87,1,3.89,1.5a37.69,37.69,0,0,0,6.52,2.29,33.8,33.8,0,0,0-6.26-7.87A1.08,1.08,0,0,1,149,228.9Z"/><path class="cls-2" d="M153.24,203.61c-1.94.17-4.17-1.13-6-2.29l6.8-1.49a.7.7,0,0,0,.51-.67,31.38,31.38,0,0,1,.36-7.63q1.78,2.17,3.55,4.36c.55.67,1.38,2.18,2.48,2,.79-.14,1.32-.61,2.11-.83s1.68-.41,2.53-.59a16.49,16.49,0,0,0,2.48-.66c.25-.11.5-.22.73-.35a.79.79,0,0,0,.55-.36l.1.13c-2,2.13-4.11,4.25-6.31,6.23a.69.69,0,0,0,.13,1.07,31.54,31.54,0,0,1,5,4.24,40.6,40.6,0,0,1-6-.45c-.49,0-.72.47-.66.87a29.68,29.68,0,0,1,.23,7c-1.28-1-2.74-3.72-3.4-4.62-.52-.69-1.07-1.86-2-2.11s-1.86.67-2.52,1a24,24,0,0,1-4.22,1.48,22,22,0,0,1,4.05-5.09C154.12,204.39,153.86,203.55,153.24,203.61Z"/><path class="cls-5" d="M147.3,183.11c-.49,1.26-.06,3,.36,4.48q1.16-2.13,2.32-4.26a.49.49,0,0,1,.55-.21,21.46,21.46,0,0,0,5.16,1.24l-2.22-3.21c-.34-.5-1.19-1.35-.85-2.05a14.29,14.29,0,0,1,1-1.24c.33-.52.6-1.05.88-1.59a11.24,11.24,0,0,1,.93-1.52,5.08,5.08,0,0,1,.38-.43.58.58,0,0,1,.34-.29l-.06-.09c-1.83.95-3.64,1.91-5.4,3a.47.47,0,0,1-.69-.3,21.7,21.7,0,0,0-1.87-4.14,30.35,30.35,0,0,0-.85,4.07.49.49,0,0,1-.71.27,21,21,0,0,0-4.62-1.51,17.73,17.73,0,0,0,2.42,3.17c.37.48,1,1.08,1,1.75s-.81,1.11-1.15,1.49a17.64,17.64,0,0,0-1.8,2.53,15.22,15.22,0,0,0,4.19-1.71C147,182.37,147.46,182.71,147.3,183.11Z"/><path class="cls-5" d="M183.69,201.27a4.94,4.94,0,0,0,.23,2.86l1.48-2.72a.3.3,0,0,1,.35-.13,13.93,13.93,0,0,0,3.3.79l-1.42-2c-.22-.32-.76-.87-.54-1.31s.42-.49.61-.8a11,11,0,0,0,.57-1,7.38,7.38,0,0,1,.59-1l.24-.27a.36.36,0,0,1,.22-.19l0-.06c-1.17.61-2.33,1.23-3.45,1.92a.31.31,0,0,1-.44-.19,13.34,13.34,0,0,0-1.19-2.64,19.58,19.58,0,0,0-.55,2.59c0,.22-.29.25-.45.18a13.42,13.42,0,0,0-2.95-1,12.09,12.09,0,0,0,1.55,2c.23.3.66.69.65,1.11s-.51.71-.73,1a10.51,10.51,0,0,0-1.15,1.61,9.69,9.69,0,0,0,2.67-1.09C183.46,200.8,183.79,201,183.69,201.27Z"/><path class="cls-5" d="M109.87,201.35a2.63,2.63,0,0,0,.12,1.5l.77-1.42a.16.16,0,0,1,.19-.07,7.31,7.31,0,0,0,1.72.41c-.25-.36-.5-.71-.74-1.07-.12-.17-.4-.45-.29-.68a4.35,4.35,0,0,1,.33-.42,5.45,5.45,0,0,0,.29-.53,3.76,3.76,0,0,1,.31-.5l.12-.15a.24.24,0,0,1,.12-.09l0,0c-.61.32-1.22.64-1.8,1a.17.17,0,0,1-.23-.1,7.46,7.46,0,0,0-.62-1.38,10.84,10.84,0,0,0-.29,1.35.16.16,0,0,1-.23.09,7.1,7.1,0,0,0-1.54-.5,6.36,6.36,0,0,0,.8,1.06c.13.16.35.36.34.58s-.26.37-.38.5a5.57,5.57,0,0,0-.6.84,5.16,5.16,0,0,0,1.4-.57C109.75,201.11,109.92,201.22,109.87,201.35Z"/><path class="cls-5" d="M166.09,137.11a3.89,3.89,0,0,0,.17,2.24c.39-.71.78-1.42,1.16-2.13a.26.26,0,0,1,.28-.11,10.55,10.55,0,0,0,2.58.62l-1.11-1.6c-.17-.25-.59-.68-.42-1s.33-.38.48-.62a8.78,8.78,0,0,0,.44-.79,5.35,5.35,0,0,1,.47-.76l.18-.22a.27.27,0,0,1,.18-.14l0,0c-.92.48-1.83,1-2.7,1.5a.24.24,0,0,1-.35-.15,11.3,11.3,0,0,0-.93-2.07,14.52,14.52,0,0,0-.43,2c0,.16-.23.19-.35.13a10.75,10.75,0,0,0-2.31-.75,8.72,8.72,0,0,0,1.21,1.58c.18.24.51.54.51.88s-.4.55-.57.74a8.66,8.66,0,0,0-.91,1.27,7.68,7.68,0,0,0,2.1-.86C165.91,136.74,166.17,136.91,166.09,137.11Z"/><path class="cls-5" d="M88.68,190.24a2.54,2.54,0,0,0,.12,1.5c.25-.48.51-1,.77-1.42a.15.15,0,0,1,.18-.07,7.84,7.84,0,0,0,1.72.41c-.24-.36-.49-.71-.74-1.07-.11-.17-.39-.45-.28-.68a4.23,4.23,0,0,1,.32-.42c.11-.17.2-.35.3-.53a3.76,3.76,0,0,1,.31-.5l.12-.15a.2.2,0,0,1,.12-.09.05.05,0,0,1,0,0c-.61.32-1.22.64-1.8,1a.17.17,0,0,1-.23-.1,7.46,7.46,0,0,0-.62-1.38,9.3,9.3,0,0,0-.29,1.35c0,.11-.15.13-.24.09a6.77,6.77,0,0,0-1.54-.5,6.38,6.38,0,0,0,.81,1.06c.12.16.35.36.34.58s-.27.37-.38.5a4.94,4.94,0,0,0-.6.84,5.16,5.16,0,0,0,1.4-.57C88.56,190,88.73,190.11,88.68,190.24Z"/><path class="cls-2" d="M86,155.13a2.62,2.62,0,0,0,.11,1.5l.78-1.42a.15.15,0,0,1,.18-.07,7.31,7.31,0,0,0,1.72.41c-.24-.36-.49-.71-.74-1.07-.11-.17-.4-.45-.28-.68a4.23,4.23,0,0,1,.32-.42c.11-.17.2-.35.3-.53a3.76,3.76,0,0,1,.31-.5,1.58,1.58,0,0,1,.12-.15.18.18,0,0,1,.12-.09l0,0c-.61.32-1.21.64-1.8,1a.16.16,0,0,1-.22-.1,6.89,6.89,0,0,0-.63-1.38A9.26,9.26,0,0,0,86,153a.17.17,0,0,1-.24.09,6.93,6.93,0,0,0-1.54-.5A5.88,5.88,0,0,0,85,153.6c.12.16.34.36.34.58s-.27.37-.38.5a4.94,4.94,0,0,0-.6.84,5.23,5.23,0,0,0,1.39-.57C85.86,154.89,86,155,86,155.13Z"/><path class="cls-2" d="M175.61,211.27a5.13,5.13,0,0,1-1.49-2.55l2.86,1.43a.31.31,0,0,0,.37-.09,14.5,14.5,0,0,1,2.33-2.61c0,.85,0,1.71,0,2.57,0,.39-.14,1.18.31,1.42a7.62,7.62,0,0,0,1,.31c.37.16.71.34,1.07.53a8,8,0,0,0,1.08.47,1.9,1.9,0,0,0,.36.09.4.4,0,0,0,.3,0,.09.09,0,0,0,0,.07c-1.35.18-2.69.34-4.05.41a.31.31,0,0,0-.26.42,14.64,14.64,0,0,1,.54,2.94,19.72,19.72,0,0,1-2-1.88.32.32,0,0,0-.48.12,13.79,13.79,0,0,1-1.93,2.55,10.93,10.93,0,0,1,.12-2.62c0-.4.15-1-.11-1.33s-.85-.3-1.18-.38a10.71,10.71,0,0,1-1.92-.69,10.17,10.17,0,0,1,2.91-.65A.32.32,0,0,0,175.61,211.27Z"/><path class="cls-2" d="M117.87,220.72a6.44,6.44,0,0,0,1.86-3.19l-3.57,1.79a.4.4,0,0,1-.47-.12,17.73,17.73,0,0,0-2.91-3.26c0,1.07,0,2.14,0,3.21,0,.5.17,1.47-.38,1.78a10.5,10.5,0,0,1-1.24.39c-.47.19-.9.42-1.34.65a9.57,9.57,0,0,1-1.35.6l-.45.11a.41.41,0,0,1-.37,0v.1c1.68.21,3.36.41,5.06.5a.4.4,0,0,1,.32.53,17.83,17.83,0,0,0-.68,3.67,24,24,0,0,0,2.49-2.34.39.39,0,0,1,.61.15,17,17,0,0,0,2.41,3.19,14.93,14.93,0,0,0-.15-3.29c0-.49-.19-1.21.13-1.66s1.07-.37,1.47-.47a13.27,13.27,0,0,0,2.41-.86,12.75,12.75,0,0,0-3.64-.81A.4.4,0,0,1,117.87,220.72Z"/><path class="cls-2" d="M121.92,242.14a2.47,2.47,0,0,1-.74-1.27l1.42.71a.17.17,0,0,0,.19,0,7.31,7.31,0,0,1,1.17-1.31v1.29c0,.19-.07.59.15.71a4.74,4.74,0,0,0,.5.15,5.44,5.44,0,0,1,.54.27,3.54,3.54,0,0,0,.53.23l.18.05a.2.2,0,0,0,.15,0v0c-.67.08-1.34.17-2,.2a.16.16,0,0,0-.13.21,7.32,7.32,0,0,1,.27,1.47,8.8,8.8,0,0,1-1-.94.17.17,0,0,0-.25.06,6.69,6.69,0,0,1-1,1.28A6,6,0,0,1,122,244c0-.2.08-.49,0-.67s-.43-.15-.59-.19a5.3,5.3,0,0,1-1-.34,5.16,5.16,0,0,1,1.46-.33A.16.16,0,0,0,121.92,242.14Z"/><path class="cls-2" d="M130.76,172.11a2.56,2.56,0,0,1-.75-1.27l1.43.71a.17.17,0,0,0,.19,0,7.26,7.26,0,0,1,1.16-1.31v1.29c0,.2-.07.59.15.71a3.65,3.65,0,0,0,.5.15,5.28,5.28,0,0,1,.53.27,3.65,3.65,0,0,0,.54.23l.18.05a.2.2,0,0,0,.15,0v0c-.67.09-1.34.17-2,.2a.16.16,0,0,0-.13.21,7.45,7.45,0,0,1,.27,1.47,8.9,8.9,0,0,1-1-.94.16.16,0,0,0-.24.06,6.69,6.69,0,0,1-1,1.28,5,5,0,0,1,.06-1.31c0-.2.07-.49-.06-.67s-.42-.15-.59-.19a5.48,5.48,0,0,1-1-.34,4.83,4.83,0,0,1,1.46-.32A.17.17,0,0,0,130.76,172.11Z"/><path class="cls-2" d="M191.54,208.53a2.59,2.59,0,0,1-.75-1.28l1.43.72a.16.16,0,0,0,.19-.05,6.83,6.83,0,0,1,1.16-1.3v1.28c0,.2-.07.59.16.72a4,4,0,0,0,.49.15c.19.08.36.17.54.26a3.28,3.28,0,0,0,.54.24l.18,0a.17.17,0,0,0,.15,0v0c-.68.08-1.35.16-2,.2-.1,0-.15.12-.13.21a6.7,6.7,0,0,1,.28,1.47,9.92,9.92,0,0,1-1-.94.15.15,0,0,0-.24.06,6.74,6.74,0,0,1-1,1.28,6.13,6.13,0,0,1,.06-1.32c0-.2.08-.48,0-.66s-.43-.15-.59-.19a6.44,6.44,0,0,1-1-.34,4.78,4.78,0,0,1,1.45-.33A.16.16,0,0,0,191.54,208.53Z"/><path class="cls-2" d="M91.85,224.61a2.59,2.59,0,0,1-.75-1.28l1.43.72a.16.16,0,0,0,.19-.05,6.83,6.83,0,0,1,1.16-1.3V224c0,.2-.06.59.16.71a4,4,0,0,0,.49.16c.19.08.36.17.54.26a5.22,5.22,0,0,0,.54.24l.18,0a.21.21,0,0,0,.15,0v0c-.68.09-1.35.17-2,.21-.1,0-.15.11-.13.21a6.7,6.7,0,0,1,.28,1.47,11.2,11.2,0,0,1-1-.94c-.08-.08-.19,0-.24.06a6.67,6.67,0,0,1-1,1.27,6.07,6.07,0,0,1,.06-1.31c0-.2.08-.48,0-.66s-.43-.15-.59-.19a5.52,5.52,0,0,1-1-.35,5.08,5.08,0,0,1,1.45-.32C91.89,224.88,92,224.69,91.85,224.61Z"/><path class="cls-2" d="M186.32,156a2.65,2.65,0,0,1-.74-1.28l1.43.71a.15.15,0,0,0,.18,0,7.31,7.31,0,0,1,1.17-1.31v1.29c0,.2-.07.59.16.71s.32.08.49.16a3.82,3.82,0,0,1,.54.26,3.25,3.25,0,0,0,.54.23l.18.05a.16.16,0,0,0,.15,0s0,0,0,0c-.68.09-1.35.17-2,.2a.16.16,0,0,0-.13.21,7.48,7.48,0,0,1,.28,1.47,8.9,8.9,0,0,1-1-.94.16.16,0,0,0-.24.06,7.18,7.18,0,0,1-1,1.28,6,6,0,0,1,.06-1.31c0-.2.08-.49,0-.67s-.43-.14-.59-.19a5.21,5.21,0,0,1-1-.34,4.7,4.7,0,0,1,1.45-.32A.16.16,0,0,0,186.32,156Z"/><path class="cls-2" d="M160.08,117.72a2.65,2.65,0,0,1-.74-1.28l1.43.72a.16.16,0,0,0,.19,0,6.83,6.83,0,0,1,1.16-1.3v1.28c0,.2-.07.59.16.71a4,4,0,0,0,.49.16c.19.08.36.17.54.26a4.41,4.41,0,0,0,.54.24l.18,0a.21.21,0,0,0,.15,0s0,0,0,0c-.68.08-1.35.16-2,.2-.1,0-.15.12-.13.21a6.7,6.7,0,0,1,.28,1.47,11.2,11.2,0,0,1-1-.94.15.15,0,0,0-.24.06,7.11,7.11,0,0,1-1,1.27,6.07,6.07,0,0,1,.06-1.31c0-.2.08-.48-.05-.66s-.43-.15-.59-.19a5.23,5.23,0,0,1-1-.35A5,5,0,0,1,160,118,.16.16,0,0,0,160.08,117.72Z"/><path class="cls-2" d="M135.87,194.13c1.1-.74,1.73-2.4,2.23-3.83l-4.28,2.14a.47.47,0,0,1-.56-.13,21.76,21.76,0,0,0-3.49-3.92c0,1.28,0,2.57,0,3.86,0,.59.21,1.76-.46,2.14-.48.26-1,.24-1.49.46s-1.07.51-1.6.78a10.66,10.66,0,0,1-1.62.72,5.29,5.29,0,0,1-.54.13.56.56,0,0,1-.45,0,.24.24,0,0,1,0,.12c2,.25,4,.49,6.07.6a.48.48,0,0,1,.39.63,22.11,22.11,0,0,0-.82,4.41,29.55,29.55,0,0,0,3-2.81.47.47,0,0,1,.73.17,19.79,19.79,0,0,0,2.9,3.83,18.1,18.1,0,0,0-.18-3.93c0-.6-.23-1.46.15-2s1.28-.44,1.77-.57a16,16,0,0,0,2.89-1,14.93,14.93,0,0,0-4.36-1A.48.48,0,0,1,135.87,194.13Z"/><path class="cls-4" d="M190,185.84c-1.69-1-3.37-1.94-5.11-2.8a.62.62,0,0,1-.27-.93c1-1.67,2.16-3.27,3.36-4.83-1.55.41-3.09.8-4.61,1.3a.6.6,0,0,1-.83-.6,21.81,21.81,0,0,0-.33-3.89l-2.64,3.48a.66.66,0,0,1-1,0,22.37,22.37,0,0,0-2.53-2.94c.14.95.28,1.9.43,2.84a.61.61,0,0,1-.5.7l-5.45.62c.9,1,1.78,1.94,2.6,3a1.66,1.66,0,0,1,.52,1.12,3.2,3.2,0,0,1-.92,1.56l-2,2.48c1.55.14,3.11.26,4.67.38a.58.58,0,0,1,.5.62,16.42,16.42,0,0,0,.34,3.52A12.84,12.84,0,0,0,179,188a.64.64,0,0,1,1,0c.83,1.25,1.68,2.5,2.51,3.76.16-1.65.26-3.31.31-5a.63.63,0,0,1,.7-.56A13.46,13.46,0,0,0,190,185.84Z"/><path class="cls-5" d="M98.27,237.93c1.2-.68,2.4-1.38,3.64-2a.44.44,0,0,0,.19-.66c-.74-1.19-1.54-2.33-2.39-3.44,1.1.29,2.19.57,3.28.92a.43.43,0,0,0,.59-.43,15.94,15.94,0,0,1,.24-2.77c.62.83,1.25,1.66,1.88,2.48a.46.46,0,0,0,.72,0,15.17,15.17,0,0,1,1.81-2.09c-.11.67-.21,1.35-.31,2a.44.44,0,0,0,.36.5l3.87.44c-.63.69-1.26,1.38-1.84,2.12a1.21,1.21,0,0,0-.38.8,2.31,2.31,0,0,0,.66,1.11l1.42,1.77-3.33.27a.41.41,0,0,0-.35.44,11.68,11.68,0,0,1-.25,2.51,9.44,9.44,0,0,1-2-2.48.46.46,0,0,0-.72,0l-1.79,2.67c-.11-1.17-.18-2.35-.22-3.53a.45.45,0,0,0-.5-.4A9.57,9.57,0,0,1,98.27,237.93Z"/><path class="cls-5" d="M167,164.1c1-.54,1.92-1.1,2.91-1.59a.35.35,0,0,0,.16-.53,32.84,32.84,0,0,0-1.91-2.75c.87.23,1.75.45,2.62.74a.34.34,0,0,0,.47-.35,12.52,12.52,0,0,1,.19-2.21l1.51,2a.37.37,0,0,0,.58,0,11.52,11.52,0,0,1,1.44-1.67c-.08.54-.16,1.08-.25,1.62a.36.36,0,0,0,.29.4l3.1.35c-.51.55-1,1.11-1.48,1.7a1,1,0,0,0-.3.64,1.79,1.79,0,0,0,.53.88l1.14,1.42-2.67.22a.32.32,0,0,0-.28.35,8.87,8.87,0,0,1-.2,2,7.53,7.53,0,0,1-1.6-2,.36.36,0,0,0-.57,0c-.48.72-1,1.43-1.43,2.15-.09-.94-.15-1.89-.18-2.83a.35.35,0,0,0-.4-.32A7.7,7.7,0,0,1,167,164.1Z"/><path class="cls-5" d="M113.68,126.12c.48-.28,1-.55,1.46-.8a.17.17,0,0,0,.07-.26,14.66,14.66,0,0,0-.95-1.38c.44.12.88.23,1.31.37a.17.17,0,0,0,.24-.17,6.83,6.83,0,0,1,.09-1.11l.75,1a.19.19,0,0,0,.29,0,6.5,6.5,0,0,1,.72-.84l-.12.81a.18.18,0,0,0,.14.2l1.55.18c-.25.27-.5.55-.73.84-.07.09-.17.2-.15.32a.89.89,0,0,0,.26.45l.57.71-1.33.1a.17.17,0,0,0-.15.18,4.71,4.71,0,0,1-.09,1,3.35,3.35,0,0,1-.8-1,.19.19,0,0,0-.29,0l-.72,1.07c0-.47-.07-.94-.08-1.41a.2.2,0,0,0-.21-.17A3.77,3.77,0,0,1,113.68,126.12Z"/><path class="cls-2" d="M135.1,150.47c.72-.41,1.44-.83,2.18-1.2a.27.27,0,0,0,.12-.4c-.45-.71-.93-1.39-1.44-2.06.66.17,1.32.34,2,.56a.26.26,0,0,0,.36-.26,9.07,9.07,0,0,1,.14-1.66l1.13,1.48a.27.27,0,0,0,.43,0,9.33,9.33,0,0,1,1.08-1.25l-.18,1.21a.27.27,0,0,0,.21.3l2.33.26c-.38.42-.76.83-1.11,1.28a.72.72,0,0,0-.22.48,1.36,1.36,0,0,0,.39.66c.28.36.57.71.85,1.06l-2,.17a.24.24,0,0,0-.22.26,6.9,6.9,0,0,1-.14,1.51,5.43,5.43,0,0,1-1.2-1.49.27.27,0,0,0-.43,0L138.28,153c-.06-.71-.11-1.41-.13-2.12a.26.26,0,0,0-.3-.24A5.8,5.8,0,0,1,135.1,150.47Z"/><path class="cls-2" d="M98.5,194.14c-.24,2.43-.46,4.87-.85,7.28a.81.81,0,0,0,.77,1c2.47.14,4.93.16,7.4.06-1.53,1.29-3.06,2.59-4.68,3.78a.76.76,0,0,0,0,1.3,28.14,28.14,0,0,1,3.76,3.17l-5.5.18a.82.82,0,0,0-.76,1,27.35,27.35,0,0,1,1.17,4.74l-2.6-2.51a.77.77,0,0,0-1.09,0l-4.59,5.14c-.35-1.63-.7-3.24-1.17-4.83-.14-.47-.3-1.1-.78-1.36a4,4,0,0,0-2.27-.18c-1.34.07-2.67.15-4,.24,1-1.7,2-3.39,3-5.08a.72.72,0,0,0-.28-1,20.9,20.9,0,0,1-3.36-2.92,16.27,16.27,0,0,1,5.62-.35.81.81,0,0,0,.75-1l-2-5.33c1.81,1,3.58,2.14,5.32,3.3a.82.82,0,0,0,1.1-.31A16.87,16.87,0,0,1,98.5,194.14Z"/><path class="cls-2" d="M164.3,224.74c1,2.3,1.93,4.61,3,6.85a.81.81,0,0,1-.46,1.17c-2.37.89-4.77,1.65-7.21,2.31,1.9.79,3.78,1.59,5.73,2.27a.77.77,0,0,1,.37,1.26,28.36,28.36,0,0,0-2.7,4.24l5.42-1.49a.83.83,0,0,1,1,.77,27.49,27.49,0,0,0,.3,5c.59-1.08,1.19-2.16,1.77-3.24a.8.8,0,0,1,1.07-.32l6,3.62c-.15-1.69-.29-3.37-.32-5.07a2.17,2.17,0,0,1,.34-1.55,4.09,4.09,0,0,1,2.17-.87c1.32-.34,2.65-.66,4-1-1.48-1.36-3-2.71-4.48-4.05a.73.73,0,0,1,0-1,21.57,21.57,0,0,0,2.4-3.86,16.64,16.64,0,0,0-5.59,1.35.81.81,0,0,1-1-.76q.18-2.91.37-5.82-2.18,2.35-4.19,4.84a.81.81,0,0,1-1.16,0A17.42,17.42,0,0,0,164.3,224.74Z"/></g></g></svg>