<svg xmlns="http://www.w3.org/2000/svg" viewBox="0 0 270 270"><defs><style>.cls-1{fill:#fff;}.cls-2{fill:#002d26;}.cls-3{fill:#a01a22;}.cls-4{fill:#a78126;}</style></defs><g id="Capa_2" data-name="Capa 2"><g id="Home"><rect class="cls-1" width="270" height="270" rx="9.75"/><path class="cls-2" d="M212,18.38c.29-.26.61.08.88.2a5.75,5.75,0,0,0,1.35.37l.64.17c.13,0,.29,0,.41.1s.07.14.28.17l.31.05.56.06a6.12,6.12,0,0,0,1,.18c.45,0,.91.06,1.36.09a7.41,7.41,0,0,1,1.2.34,8.57,8.57,0,0,0,1.52.11.49.49,0,0,1,.55.38,1.75,1.75,0,0,1-.2,1.51c-.22.26-.78.28-1.09.42a1.76,1.76,0,0,0-.57.4,7.58,7.58,0,0,0-.45,1l-.1.45,0,.77a18,18,0,0,1-.1,2.52v-.11c0,.72-.13,1.43-.12,2.15l0,1.09c0,.07,0,.57.06.63a19.69,19.69,0,0,1,.08,4.34c-.13,1.54-.23,3.11-.45,4.64a19.57,19.57,0,0,0,0,3.75c0,.69.09,1.38.06,2.08,0,.48-.09.94-.14,1.42-.12,1.23.06,2.51,0,3.75a11.31,11.31,0,0,1-.19,2,11.05,11.05,0,0,0-.27,1.37c0,.41-.12.82-.12,1.23,0,.25.16.43.22.68a6,6,0,0,1,.12.74,2.34,2.34,0,0,0,1.88,1.61,1.73,1.73,0,0,0,.51,0c.16,0,.17-.08.32-.11a.4.4,0,0,1,.42.19,1.82,1.82,0,0,1,.16,1c0,.32-.13.82-.46.93a1.39,1.39,0,0,1-.7.06h-.87a13.48,13.48,0,0,0-1.55.12l-.76.12c-.23,0-.46.06-.69.06a2.57,2.57,0,0,1-1.32,0c-.14-.12-.06-.18-.27-.18h-.3l-.36.06a11.25,11.25,0,0,1-1.37.24c-.37.11-.59.35-1,.41a2,2,0,0,1-.6-.18c-.11-.06-.22-.18-.3-.23h-.31a6.09,6.09,0,0,1-1.4.17,1,1,0,0,0-.58.12c-.16.06-.4.18-.57.06a.83.83,0,0,0-.54-.12.44.44,0,0,1-.36.18c-.59-.18-.47-1.19-.32-1.61a.83.83,0,0,1,.78-.59l1.12-.07c.67-.49,1.54-.64,2.12-1.26a2.3,2.3,0,0,0,.43-1.54l.13-1.87c.07-1.36.06-2.72,0-4.08a12.86,12.86,0,0,1,0-2,13.45,13.45,0,0,0,.22-1.55V45.52c0-.5.1-1,.11-1.49,0-1.19,0-2.38,0-3.57a11.59,11.59,0,0,1,.1-2,15.07,15.07,0,0,0,.28-1.61l.11-2c0-.56.11-1.1.18-1.66s0-1.25.11-1.88.13-1.16.21-1.74v.1a6.39,6.39,0,0,0,.11-.85,15.65,15.65,0,0,1,.21-2.05c0-.54.14-1.09.14-1.6V23c-.76.5-1.56.94-2.32,1.44a9.2,9.2,0,0,0-1.42,1.06A8.44,8.44,0,0,1,209,26.53a21.52,21.52,0,0,0-2.38,1.87c-.47.41-.91.85-1.4,1.23a3.67,3.67,0,0,1-1.24.78c-.45.12-1.39.06-1.63-.45a1.14,1.14,0,0,1-.37-.57.85.85,0,0,1,.13-.56,1.22,1.22,0,0,1,.66-.43l.29-.1a1.2,1.2,0,0,1,.24-.26c.17-.13.38-.17.53-.31l.59-.5c.76-.65,1.52-1.31,2.31-1.94a16.63,16.63,0,0,0,1.43-1.07A12.78,12.78,0,0,1,209.51,23c.51-.38,1.05-.72,1.59-1.05a2.71,2.71,0,0,0,1.09-.92.67.67,0,0,0-.1-.59,1.77,1.77,0,0,1-.41-1.16,1.4,1.4,0,0,1,.37-.94Z"/><path class="cls-2" d="M237.05,18.44c.62,0,1.23.23,1.84.33a7.62,7.62,0,0,1,1.69.43,5.59,5.59,0,0,1,2.76,2.07,7,7,0,0,1,.85,1.48,10.72,10.72,0,0,1,.71,1.59,12.28,12.28,0,0,1,.48,3.77,31.26,31.26,0,0,1-.1,3.87,11.58,11.58,0,0,1-1.08,3.44c-.29.6-.67,1.14-1,1.73a6.81,6.81,0,0,1-.94,1.49,9.83,9.83,0,0,1-2.72,2.21c-1,.52-2,.94-3.05,1.4-.28.12-.46.34-.74.45a3.79,3.79,0,0,0-.69.3,16,16,0,0,0-1.35,1,6.64,6.64,0,0,0-1.38,2.89l-.55,1.58c-.1.28-.2.57-.27.85a1.35,1.35,0,0,1-.07.36v-.08a2.38,2.38,0,0,1-.11.7v-.1a4.54,4.54,0,0,1-.27,1l-.45,1.49c-.28,1-.52,2-.73,3a5.7,5.7,0,0,1,2.29-.8c.37,0,.75,0,1.12,0s.84-.09,1.27-.12a7.13,7.13,0,0,1,4.51,1.6A17.57,17.57,0,0,1,241,58c.23.19.79.8,1.15.57.87-.55.73-2.32.53-3.14a2.3,2.3,0,0,1,.29-1.64c.27-.37.73-.27,1.13-.26a.83.83,0,0,1,.91.77,11.14,11.14,0,0,1,.13,1.74,7.15,7.15,0,0,1-.14,2,7.87,7.87,0,0,0,0,.84l-.07.89a18.91,18.91,0,0,1-.25,2,3.14,3.14,0,0,0-.06.58,1.46,1.46,0,0,1-.1.71c-.31.64-1.39.41-1.85.06s-.38-.83-.58-1.24-.67-.29-1-.29c-.55.06-1.12,0-1.67.06a8.61,8.61,0,0,1-1.76.17,9.82,9.82,0,0,1-3.63-.88l.14.06a7.93,7.93,0,0,0-2.05-.53,4.29,4.29,0,0,1-1,0,3.2,3.2,0,0,0-1.29.23c-.43.13-.69.55-1.09.72a1.12,1.12,0,0,1-1.26-.23c-.44-.37-.4-.92-.38-1.47s.08-1.25.16-1.88A40.73,40.73,0,0,1,229,50.1c.14-.43.16-.89.27-1.32s.37-1.05.54-1.58a31.17,31.17,0,0,1,1.28-3.5,5.87,5.87,0,0,1,2.28-2.33,17.75,17.75,0,0,1,1.54-1,3,3,0,0,0,.46-.34l.25-.25.21-.16,0-.06a14.71,14.71,0,0,0,1.67-3.07c.45-1.08.83-2.47,1.2-3.68.11-.37.29-.71.37-1.09s.05-.75.1-1.12a10,10,0,0,0,.21-1.09c0-.4,0-.81,0-1.21,0-.59-.1-1.23-.19-1.79a25.17,25.17,0,0,1-.41-2.58,3.8,3.8,0,0,0-.53-1.92,4.71,4.71,0,0,0-.57-.76c-.19-.24-.24-.38-.56-.3s-.92.09-1.25.47a9.47,9.47,0,0,0-1,1.73l0-.1a12.33,12.33,0,0,0-.51,2.16,20.88,20.88,0,0,0,0,2.74,6.19,6.19,0,0,1-.09,2.57,1.2,1.2,0,0,1-.62.77,2.23,2.23,0,0,1-1.12.06c-1,0-1.89,0-2.83.06a3.59,3.59,0,0,1-2.1-.3c-.74-.48-.58-1.21-.58-2a19,19,0,0,1-.13-2.51c.29-2.4,1-4.77,3-6.28a10.11,10.11,0,0,1,3.26-1.64,8.12,8.12,0,0,1,2-.25,15.62,15.62,0,0,1,1.81,0Z"/><path class="cls-3" d="M169.85,79a10,10,0,0,1-.67,2.87,37.27,37.27,0,0,1,6.13,5c1.1-1.71,2.06-3.57,1.32-5.54a.84.84,0,0,1,0-.54c-.4-.4-.83-.79-1.27-1.15a48.7,48.7,0,0,0-5.53-3.92A8.75,8.75,0,0,1,169.85,79Z"/><path class="cls-3" d="M159.77,73.73a25.82,25.82,0,0,1-.63,3.15,25,25,0,0,1,4.93,1.93c.89.48,1.86,1,2.85,1.62a9.32,9.32,0,0,0,.5-1.49,42.61,42.61,0,0,0,.33-4.37c-1.24-.68-2.5-1.32-3.79-1.9s-2.86-1.21-4.32-1.75A7.91,7.91,0,0,1,159.77,73.73Z"/><path class="cls-3" d="M146.91,75.35a52.49,52.49,0,0,1,9.86,1,39.82,39.82,0,0,0,1.24-6,66.48,66.48,0,0,0-10.8-2.64A26.13,26.13,0,0,1,146.91,75.35Z"/><path class="cls-3" d="M133.17,75.86l2.06-.13c2.84-.17,6-.35,9.12-.39a27.27,27.27,0,0,0,.54-8A65.84,65.84,0,0,0,134.76,67L133.1,67A68.32,68.32,0,0,0,133.17,75.86Z"/><path class="cls-3" d="M164.81,123.47a37.24,37.24,0,0,1-10.33,3.67c1.93,4.26,2,9.1,1.92,13.68,3.56-.77,7.38-1.42,10.86-2.55-1.38-2.07-.74-5.47-1.1-7.82S165.18,125.8,164.81,123.47Z"/><path class="cls-2" d="M168.83,120.8c-.58.47-1.18.9-1.8,1.32a24.93,24.93,0,0,1,2.58,8.65c.28,1.87.95,4.44.36,6.41,8.18-4.27,6.4-14.54,4.21-22.49A26.05,26.05,0,0,1,168.83,120.8Z"/><path class="cls-3" d="M177.57,89.73a1.88,1.88,0,0,1,.82.73,9.35,9.35,0,0,1,1.15,3.13c3.62-.75,1.35-7.11.41-8.59-.22-.36-.47-.71-.72-1.06A13.19,13.19,0,0,1,177,88.88C177.17,89.16,177.38,89.44,177.57,89.73Z"/><path class="cls-3" d="M97.26,86.94a12.66,12.66,0,0,1-.56-7.21c-2.92,3.76-4.21,8.21-1.19,11.89a9.4,9.4,0,0,1,1.87-4.47A1.43,1.43,0,0,1,97.26,86.94Z"/><path class="cls-3" d="M134.53,101.54c-6.49,0-10.48,5.06-16,6.7a.83.83,0,0,1,0,.15c-.73,2.25,13.19-.08,14.35-.39a19.39,19.39,0,0,0,5.56-2C142.54,103.24,135.56,101.53,134.53,101.54Z"/><path class="cls-4" d="M159.81,81c-7.24-2.24-15.38-2.93-23-3a104,104,0,0,0-23.34,2.57,27.3,27.3,0,0,0-9.19,3.72,1.14,1.14,0,0,1,0,1.47c-5.85,8-5.79,20.08,1.52,27.24s17.38,10.22,27.67,11.21c9.76.94,22.52,1.12,30.85-4.58,4.15-2.84,8.08-8.76,9.51-13.36a31.62,31.62,0,0,0,1.42-7.94c.05-1.08.27-2.49.24-3.81C173,89,165.83,82.82,159.81,81Zm-54,10.37c1-3.33,8.69-6.12,11.71-3.9a.53.53,0,0,1-.12.87c-1.76.79-3.93.47-5.81,1.16s-3.17,2-5,2.64A.65.65,0,0,1,105.81,91.34Zm8.39,9.86s0,0,0,0a.33.33,0,0,1,0,.06,1.47,1.47,0,0,1-.1.22,4.39,4.39,0,0,1-.38.63,4.44,4.44,0,0,1-2.88,1.92c-2.08.33-4.26-1-4.48-2.86a3.26,3.26,0,0,1-.33-2.13,3,3,0,0,1,.93-1.66,3.32,3.32,0,0,1,1.18-1.08,5.46,5.46,0,0,1,3.74-.2,3.31,3.31,0,0,1,2.74,2.8A4.31,4.31,0,0,1,114.2,101.2Zm7.86,11.55c-2.66-.07-10.24-3-5.92-6a1.37,1.37,0,0,1,.54-.22,55.67,55.67,0,0,1,8.91-4.69c2.73-1.23,5.82-2.58,8.94-2.3,2.91.26,11.66,3.17,7.29,7.12C137.2,110.82,128.38,112.91,122.06,112.75Zm23.76,6.89c-2.39.41-7.87-.3-7.17-3.52a1.1,1.1,0,0,1,1.56-.59c.73.33,1.21,1,2,1.17a9.39,9.39,0,0,0,2.25.21,1.85,1.85,0,0,0,1.67-3c-1-1.63,1.61-3,2.68-1.45A4.54,4.54,0,0,1,145.82,119.64ZM161.41,105a3.57,3.57,0,0,1-3.57.66,7,7,0,0,1-1.46-.68,2.87,2.87,0,0,1-1.89-2.13,4.13,4.13,0,0,1,1-3.67c1.84-2,5.72-1.86,7.17.53A3.8,3.8,0,0,1,161.41,105Zm3.53-8.65c-1.48-.65-2.26-1.92-3.58-2.73-1.16-.71-2.46-1.22-3.66-1.89-.57-.32-.28-1,.32-1.08a7.65,7.65,0,0,1,4.73.78c1.3.8,2.28,1.89,3.63,2.65C168,95,166.58,97.11,164.94,96.39Z"/><path class="cls-2" d="M152.06,127.59a70.72,70.72,0,0,1-15.56.55,29.49,29.49,0,0,1,.92,12.45l2.74.21c4.51.32,9.14.91,13.65.42-.19-2.61-.37-5.24-.74-7.83C152.81,131.58,152.06,129.47,152.06,127.59Z"/><path class="cls-2" d="M60.76,93.34c-4.07-.69-8.52-.62-11.52,2.36-4.6,4.59-1.89,11.74,3.75,14.42,4.91,2.34,13.57,2.4,14.8-4,.85-4.47-1.63-10.86-6.65-12.57A1.35,1.35,0,0,1,60.76,93.34Zm-8,3a3,3,0,0,1,1.67,1.46,1.14,1.14,0,0,1-.46,1.6A1.33,1.33,0,0,1,52.24,99a7.4,7.4,0,0,1-.82-1.41A1,1,0,0,1,52.75,96.36Zm3,7.58c-.6.41-1.2.82-1.82,1.2a2.21,2.21,0,0,1-2.2.43.83.83,0,0,1-.45-.74c0-.83.75-1.25,1.41-1.67s1.21-.8,1.8-1.22a1.3,1.3,0,0,1,1.71.41A1.15,1.15,0,0,1,55.76,103.94Zm7,5.72c-1,.69-2.54-.23-3.35-.81a6.59,6.59,0,0,1-2.1-2.42,1.1,1.1,0,0,1,1.93-1A4.8,4.8,0,0,0,61,107.18c.66.38,1.76.6,2.09,1.3A.86.86,0,0,1,62.74,109.66Zm2-7.34c.78-.39,1.68-.33,2,.55a1.06,1.06,0,0,1-.31,1.08c-1.3,1.27-4,1-5.52.3-1.34-.61-.17-2.32,1.14-1.81A3.92,3.92,0,0,0,64.78,102.32Zm-2.13-7c.47,1.48-.85,3.34-1.94,4.32S57.86,99.07,59,98a4.09,4.09,0,0,0,1-1.35,15.56,15.56,0,0,1,.57-1.62A1.18,1.18,0,0,1,62.65,95.32Z"/><path class="cls-3" d="M98.9,82.51a16.68,16.68,0,0,0,.43,2.56,25.86,25.86,0,0,1,7.53-4.25c-1.19-2.92-.51-5.54.21-8.31,0,0,0-.06,0-.09s0-.28,0-.41c-.81.35-1.6.71-2.37,1.1a24.82,24.82,0,0,0-5.13,3.56A25.68,25.68,0,0,0,98.9,82.51Z"/><path class="cls-3" d="M120.51,77.3c3.76-.62,7.38-1,10.38-1.26a34.66,34.66,0,0,1-.15-8.87c-3.4.22-6.93.59-10.43,1.17,0,1.59-.58,3.13-.54,4.73A14.74,14.74,0,0,0,120.51,77.3Z"/><path class="cls-3" d="M108.74,75a13.22,13.22,0,0,0,.33,5,69.81,69.81,0,0,1,9.06-2.29,15.57,15.57,0,0,1-.59-6.78,15.29,15.29,0,0,1,.36-2.17A60,60,0,0,0,109.57,71C109.63,72.41,109,73.62,108.74,75Z"/><path class="cls-3" d="M194.45,151.81a62.52,62.52,0,0,1,3.11,7.74,24.73,24.73,0,0,1,10.19-6.07c-1.75-1.88-3.61-3.69-5.56-5.41l-.88-.76c-.84.65-2,1.15-2.74,1.69A24.35,24.35,0,0,1,194.45,151.81Z"/><path class="cls-2" d="M190.14,144.46a51.19,51.19,0,0,1,3.43,5.6,15.82,15.82,0,0,1,3.3-2.75c.72-.51,1.55-1.22,2.44-1.73-1.8-1.53-3.65-3-5.53-4.48a21.37,21.37,0,0,0-2.07,1.62A16.12,16.12,0,0,0,190.14,144.46Z"/><path class="cls-3" d="M179.59,133.64a47.77,47.77,0,0,1,9,8.79,12.36,12.36,0,0,1,3.12-2.87l-.16-.12c-3.82-2.81-8.29-4.29-12.26-6.71-.07.22-.15.43-.23.65A1.41,1.41,0,0,1,179.59,133.64Z"/><path class="cls-3" d="M133.72,127.9c-.59-.05-1.17-.11-1.75-.18a73.47,73.47,0,0,1-8.82-1.54,89.08,89.08,0,0,0-.17,12.56,1.28,1.28,0,0,1,0,.19c3.81.6,7.64,1,11.49,1.4-.22-2.25-.19-4.53-.36-6.79C134,131.66,133.7,129.79,133.72,127.9Z"/><path class="cls-3" d="M212.69,144.17a50.65,50.65,0,0,0-3.52,5.13.91.91,0,0,1-.38.35c2,2,3.92,4.06,5.68,6.2,2.47-4.14,5.27-8.24,7.29-12.55.47-1-1.86-2.64-4.66-4.21C215.35,140.27,213.76,142.81,212.69,144.17Z"/><path class="cls-2" d="M198.17,161.49q1,3.36,1.71,6.83A48.88,48.88,0,0,1,214,161.21a64.88,64.88,0,0,0-4.66-6,46,46,0,0,0-10.79,6.09A1.1,1.1,0,0,1,198.17,161.49Z"/><path class="cls-3" d="M149.33,42.37c-6.72-4.53-14-8.34-22.13-10.11-7.59-1.64-14.65-1.36-22.33-.85a1.53,1.53,0,0,1-.66-.09c-5.9,1.89-11.42,5.88-16.39,9.12a119.33,119.33,0,0,0-15.64,12.4c-2.61,2.4-5.57,4.84-7.56,7.73a29.81,29.81,0,0,0-4,9.41c-1.82,6.7-1.93,12.91-2.19,19.73a.84.84,0,0,1-.43.72,20.81,20.81,0,0,1,2.37.16.75.75,0,0,1,0-.15C61,82.8,64.75,76,70.22,70.32a41.78,41.78,0,0,1,9.24-7.57c3-1.73,6.27-4,9.61-5.3a17.43,17.43,0,0,1,.69-6.65c.38-1.24,2.69-1,2.5.31A20.82,20.82,0,0,0,94,63.67,34.17,34.17,0,0,1,103,48.13a1.6,1.6,0,0,1,2.35,2.18c-3.59,4.1-6.64,7.92-8.07,13.13A39.67,39.67,0,0,0,96.15,75.7a17.54,17.54,0,0,1,2.54-1.88c11.47-6.8,27.13-10.12,40.64-9.64,13,.47,27,3.74,37.17,11.71C173.34,61.78,161.46,50.53,149.33,42.37Z"/><path class="cls-3" d="M201.32,176.92a31.9,31.9,0,0,1,8.26-4.31,55.08,55.08,0,0,1,9.22-2.89,53.5,53.5,0,0,0-3.5-6.5,140.33,140.33,0,0,0-15,7.19C200.69,172.56,201,174.74,201.32,176.92Z"/><path class="cls-2" d="M204.93,138.22a41.13,41.13,0,0,0-2.92,4.61.91.91,0,0,1-.24.27c1.37,1.23,2.68,2.43,3.91,3.57l1.61,1.52a29.14,29.14,0,0,1,5-7.22,22.65,22.65,0,0,1,2.84-3c-2.66-1.37-5.27-2.55-6.06-3l-.51-.26A26.5,26.5,0,0,0,204.93,138.22Z"/><path class="cls-4" d="M173.21,139.93c-10.42,5.5-23.09,5.42-34.6,4.54a182.72,182.72,0,0,1-19.13-2.22c-5.54-1-12.11-2-17-4.89a14.62,14.62,0,0,1-4.34-3.86C77.7,145.82,64.1,167.41,64.46,190.3c.19,12.54,2.54,24.75,10.31,35.25,5.3,7.18,12.7,14.4,21.23,18.14a36.06,36.06,0,0,0,5,1.89c3.15.88,6.5.83,9.69,1.47,4,.8,8.44.63,12.47.73a198.43,198.43,0,0,0,26.26-.9,147.9,147.9,0,0,0,26.53-5.13c4.85-1.46,10.1-2.76,12.85-7.13a52.61,52.61,0,0,0,5-10.38c5.37-15,6.06-31.25,4.08-46.89-1.06-8.45-2.47-17.2-6.63-24.89a61.44,61.44,0,0,0-13.4-16.55A12.43,12.43,0,0,1,173.21,139.93ZM142,179.22c.63-.7,1.26-1.4,1.9-2.09a35.2,35.2,0,0,1-.16-3.92,26.52,26.52,0,0,1,.12-5.42c.12-.76,1.45-.72,1.6,0a34.9,34.9,0,0,1,.52,4.68c0,.75.11,1.51.17,2.27l3-3.08c-.48-1-.06-2.64,0-3.69a20.24,20.24,0,0,1,.43-4.18c.2-.76,1.57-.82,1.71,0a26.58,26.58,0,0,1,0,5.71c1.09-1.07,2.19-2.11,3.33-3.12a1.48,1.48,0,0,1,.09-1.27,2.94,2.94,0,0,1,.2-.85,1.36,1.36,0,0,1,1.59-.84c1.11.16,2.71.67,2.64,1.92a2.5,2.5,0,0,1-1.71,2.32,2.38,2.38,0,0,1-1.27,0c-.84.87-1.72,1.72-2.61,2.57l.9-.09c1.28-.13,2.55-.27,3.83-.36,1.6-.11,1.51,2.07,0,2.25-1.9.23-3.83.39-5.75.53a14.46,14.46,0,0,1-1.52.09c-1.4,1.33-2.79,2.67-4.13,4,1.15-.1,2.35-.33,3.41-.43,1.6-.14,3.2-.29,4.8-.41s1.59,2.18,0,2.34c-1.86.19-3.74.32-5.6.48a19.87,19.87,0,0,1-4.48.22.66.66,0,0,1-.15,0c-1,1.1-1.92,2.22-2.78,3.38a.8.8,0,0,1-.18.27l-.1.08a1,1,0,0,1-1.57-.61C140.12,180.83,141.26,180.06,142,179.22Zm-11.24-19.63a1.77,1.77,0,0,1,3.11-.38c4.42,7.38,6.68,18.63,2.35,26.49,0,0,0,.06,0,.1a1.61,1.61,0,0,1-2,1.87c-4.58-.86-5-8.07-5.33-11.55A42.73,42.73,0,0,1,130.77,159.59ZM112.5,170.4c1.74.16,3.46.47,5.18.8a28.65,28.65,0,0,1-2.2-3.58,1.84,1.84,0,0,1-.42.08,1.8,1.8,0,0,1-2-1.4,1.67,1.67,0,0,1-.09-2.05,2.35,2.35,0,0,1,2-1.07,2.62,2.62,0,0,1,2.11,1,2.57,2.57,0,0,1-.07,2.23c1,1.53,2,3,3,4.49.21-1.59.4-3.18.61-4.76.18-1.42,2.55-1.49,2.45,0-.17,2.39-.54,4.78-.93,7.15a.71.71,0,0,1-.16.35l.63.87c.29.41.61.83.93,1.25a6.74,6.74,0,0,0,.13-1.1,5.46,5.46,0,0,1,.26-1.93,1,1,0,0,1,1.78-.21c.9,1.68.28,4-.27,5.7a19,19,0,0,1,2.89,4.94c.24.68-.7,1.06-1.21.65A21.66,21.66,0,0,1,123,179a33.82,33.82,0,0,1-7-1.07,1,1,0,0,1,.28-1.88c1.7.11,3.39.29,5.09.47-.45-.7-.91-1.39-1.37-2l-.41-.57a30.23,30.23,0,0,1-7.54-2.1A.75.75,0,0,1,112.5,170.4ZM84.9,197.05a2.07,2.07,0,0,1-1.1-1.78c0-.17,0-.33,0-.5-.21-2,2.87-2.48,3.89-1,0,0,4.53-.4,4.73-.45a17.43,17.43,0,0,0,5.3-1.82c3-1.79,5.65-4.48,6.46-7.83,2-8.11-4.76-12.07-11.87-14.8a1.27,1.27,0,1,1,.72-2.44c8.27,1.81,16,7.51,15.51,15.46,2.91-.51,6.73.2,8.82.63,4.47.91,11.11,1.94,13.76,5.8.69,1-.22,2-1.27,2.06a2,2,0,0,1-.64.25,31.48,31.48,0,0,1-13.35-.35c-2.77-.57-6.42-1.08-9-2.71C103.13,194.67,93.36,200.42,84.9,197.05Zm34.57,3.17c-1.09.67-2.16,1.37-3.22,2.07,0,1.87-.08,3.73-.14,5.6-.06,1.56-2.68,1.57-2.63,0,0-1.28.11-2.56.17-3.83-1.42,1-2.82,2-4.2,3.08a3.09,3.09,0,0,1-2.93,2.73,2.56,2.56,0,0,1-2.31-1.11,2.28,2.28,0,0,1-.57-1.74,4.54,4.54,0,0,1,1.38-2.49c.64-.7,2-.56,2.81-.23a3.2,3.2,0,0,1,.82.51l2.33-1.76a15,15,0,0,1-3.35-.68c-1-.34-.95-2,.27-1.86a54.37,54.37,0,0,0,6.11.32c1.32-.93,2.66-1.83,4-2.68a12.89,12.89,0,0,1-4.65-1.54.91.91,0,0,1,.74-1.65,71.23,71.23,0,0,0,7.21,1.3,34,34,0,0,1,6.59-2.65c.64-.18,1.24.66.68,1.09a40,40,0,0,1-4.79,3l0,.17a58.53,58.53,0,0,0-1.76,7.46c-.26,1.52-2.75.87-2.49-.64a46.87,46.87,0,0,1,1.18-5.25Zm9.65,43.38c-4.54-5.73-8.21-13.57-16.85-14.77a20.5,20.5,0,0,0-19.93,8.42c-.5.72-2,.52-1.89-.47,1-8.39,13.2-12,21-11.18,9.38,1,18,8.48,20.86,16.74C133,244.23,130.22,245,129.12,243.6Zm11.68-29.37a1.11,1.11,0,0,1-.25.51c-.15,1.28-.36,2.57-.62,3.85s-1.8,1.51-2.85,1.08c-2-.82-2.54-2.84-3.24-4.64a41.72,41.72,0,0,1-2.67-9.09c-.69-4.67-1-9.9,1.8-14.06l0,0a1.8,1.8,0,0,1,2.48-.88,6.07,6.07,0,0,1,1.27.8,1.82,1.82,0,0,1,.58.53c2,2.12,2.67,5.52,3.07,8.21C141.07,205,141.68,209.77,140.8,214.23Zm.36-18.56a.76.76,0,0,1,1-1.16,40.61,40.61,0,0,1,5,3.05,1.28,1.28,0,0,1,.6-.19,44,44,0,0,0,8.41-1,1.17,1.17,0,1,1,.66,2.24,25.65,25.65,0,0,1-6.93.9c1.15.82,2.31,1.64,3.49,2.38l1,.65c1-.59,2.59-.24,3.74-.34,1.37-.13,2.66-.68,3.94-.11a.72.72,0,0,1,.3,1c-.93,1.18-3,1.36-4.78,1.36q2.46,1.46,5,2.86a3.23,3.23,0,0,1,2.88-.37,2.41,2.41,0,0,1,1.62,3.12,2,2,0,0,1-.85,1,1.92,1.92,0,0,1-1.11.14,3.24,3.24,0,0,1-1.64.13,2.22,2.22,0,0,1-1.85-1.71c-1.76-1-3.51-2-5.23-3,0,.18.06.36.1.55a15.07,15.07,0,0,1,.29,3.07,1,1,0,0,1-1.93.24,21.29,21.29,0,0,1-1.08-4.93c0-.2-.07-.41-.1-.62-1-.61-1.93-1.24-2.88-1.88l-1-.67a13.59,13.59,0,0,1,0,4.27c-.17,1-1.79.89-2,0a41,41,0,0,1-.9-6.23A30.59,30.59,0,0,1,141.16,195.67Zm39.31,42.4c-3-1.94-4.94-4.91-8-6.8a20.38,20.38,0,0,0-9.95-3.47c-4.39-.12-8,.94-10.39,4.6a36.33,36.33,0,0,0-4.35,9.74c-.35,1.19-2.54,1-2.38-.3,1-8.4,6.26-15.37,15.38-17.25,7.93-1.63,18.95,4.56,22.17,11.21C183.58,237.15,182.1,239.13,180.47,238.07Zm-4.16-67.18c-5.6,3.17-10.59,8-10.41,14.59.19,7.12,7.79,10.44,14.14,12.17,1.48.41,1.74,2.78,0,3-7,1-16.16-5-18.06-11.74-2.36,2.17-9,2.87-11.37,3.24-3.91.61-8.19,1-10.5-2.55a1.57,1.57,0,0,1-.21-1.36c-1-.63-1.37-2.07,0-2.74,4.85-2.3,10.54-4.62,16.12-3.41a13.6,13.6,0,0,1,5.66,2.39A19.58,19.58,0,0,1,175,168,1.58,1.58,0,0,1,176.31,170.89Z"/><path class="cls-2" d="M119.91,125.29a44.74,44.74,0,0,1-8.68-3.57c-.21,2.27-1,4.57-1,6.85s.7,4.93-.23,7.07a1.6,1.6,0,0,1-.27.42l.3.08c3.32.94,6.68,1.68,10.07,2.3A59.58,59.58,0,0,1,119.91,125.29Z"/><path class="cls-3" d="M106.49,127.45c.22-2.49.33-5.41,1.64-7.66a26.43,26.43,0,0,1-6.74-6.64c-.31-.45-.6-.91-.88-1.38-1.54,5-2.84,10.23-1.31,15.4,1.3,4.42,4,6.57,8,8C105.93,133,106.29,129.81,106.49,127.45Z"/><path class="cls-3" d="M179.94,130a27.47,27.47,0,0,1,6.07,2,22.4,22.4,0,0,1,.68-3c.08-.27.16-.55.25-.83a28.43,28.43,0,0,1-6.81-1.71A21.93,21.93,0,0,1,179.94,130Z"/><path class="cls-2" d="M187.69,132.81a48,48,0,0,1,5.81,3.57,14.66,14.66,0,0,1,2.54-4.23,15.35,15.35,0,0,1,1.51-1.73c-1.72-.5-3.47-.95-5.3-1.35-1-.2-2-.37-3.05-.54a13,13,0,0,0-.63,1.85C188.3,131.2,188,132,187.69,132.81Z"/><path class="cls-3" d="M198,133.54a21.65,21.65,0,0,0-2.59,4.22c1.72,1.31,3.37,2.69,5,4.08a17.14,17.14,0,0,1,5.67-8.27,59.47,59.47,0,0,0-5.73-2.29C199.67,132.11,198.61,132.79,198,133.54Z"/><path class="cls-4" d="M205.33,185.76a41.47,41.47,0,0,0-2.91-7.19c-.43-.7-1.83-.44-1.73.44a34.08,34.08,0,0,0,2.2,7.37,36.08,36.08,0,0,0,3,7.19,1,1,0,0,0,1.9-.74A42.19,42.19,0,0,0,205.33,185.76Z"/><path class="cls-4" d="M214.17,189.81a22.34,22.34,0,0,0-2.43-5.65c-.62-1.17-1.29-2.31-2-3.45-.52-.89-2.05-2.53-2.15-3.52a.89.89,0,0,0-.91-.84h-.17a1.07,1.07,0,0,0-1.07,1.3c.56,2,2.2,4,3.24,5.88,1.27,2.28,2.25,4.82,3.89,6.89A.86.86,0,0,0,214.17,189.81Z"/><path class="cls-4" d="M220.49,186.72c-1.41-4.1-5-7.8-7.49-11.4a1.05,1.05,0,0,0-1.84,1,43.65,43.65,0,0,0,3.44,5.44c1.32,2,2.51,4.19,4.35,5.79C219.6,188.11,220.78,187.57,220.49,186.72Z"/><path class="cls-4" d="M228,185.12c-2.59-4.34-5.5-9.26-9.72-12.42-.79-.58-2.2.19-1.51,1.08,1.8,2.34,3.85,4.48,5.53,6.91,1.32,1.92,2.2,4.45,4.46,5.57C227.55,186.66,228.43,185.87,228,185.12Z"/><path class="cls-4" d="M232.61,179.83c-.9-1.63-2.57-2.94-3.93-4.26-1.64-1.61-3.23-3.32-5-4.78-.85-.7-2.44.25-1.67,1.2,1.36,1.67,2.95,3.17,4.48,4.71s2.91,3.34,4.79,4.4A1,1,0,0,0,232.61,179.83Z"/><path class="cls-4" d="M227.66,164.46c-.83-1.84-2.73-3.19-4.25-4.55a49.71,49.71,0,0,0-5.28-4.18c-.93-.63-1.88.69-1.17,1.41,1.5,1.52,3.12,2.94,4.71,4.39,1.42,1.3,2.79,3.1,4.62,3.91C226.93,165.73,228,165.24,227.66,164.46Z"/><path class="cls-4" d="M233.7,157.87c-1-1.7-3.26-2.66-5-3.65-2.07-1.17-4.1-2.35-6.07-3.66a1,1,0,0,0-1.33,1.59,31.39,31.39,0,0,0,5.44,3.85c1.8,1.09,3.73,2.68,5.8,3.25A1,1,0,0,0,233.7,157.87Z"/><path class="cls-4" d="M235.31,150a20.45,20.45,0,0,0-4.71-2.39c-1.75-.8-3.46-1.65-5.19-2.48a1.06,1.06,0,1,0-1.13,1.79,52.85,52.85,0,0,0,5,2.81,15.38,15.38,0,0,0,5.27,2A1,1,0,0,0,235.31,150Z"/><path class="cls-4" d="M236.52,146.28c-1.31-1.33-3.2-2-4.9-2.85-1.88-.89-3.83-1.67-5.77-2.45-1.31-.53-2.49,1.21-1.15,1.83,1.89.87,3.74,1.8,5.6,2.71a21.4,21.4,0,0,0,5.25,2.31A.94.94,0,0,0,236.52,146.28Z"/><path class="cls-4" d="M54.94,90.84a13.47,13.47,0,0,0-8.36-1.92c-.37.06-.31.55,0,.64,2.68.75,5.32,1.2,7.94,2.21C55.11,92,55.45,91.13,54.94,90.84Z"/><path class="cls-4" d="M48.73,94.78c-2.25-1.08-5.83.08-7.83,1.24-.42.25-.13.79.33.72,1.26-.19,2.47-.63,3.71-.89s2.45-.13,3.68-.31A.41.41,0,0,0,48.73,94.78Z"/><path class="cls-4" d="M45.82,99.25a12.83,12.83,0,0,0-6,7.56.48.48,0,0,0,.87.34c1.86-2.47,2.87-5.29,5.73-7A.53.53,0,0,0,45.82,99.25Z"/><path class="cls-4" d="M48.07,107.05a.52.52,0,0,0-1,0c-.07,2.4.1,5.29,1.34,7.46.22.39,1,.23.93-.23C49,111.84,48.23,109.52,48.07,107.05Z"/><path class="cls-4" d="M55.92,117a21.46,21.46,0,0,1-3.19-6c-.24-.63-1.3-.37-1.09.28A31.19,31.19,0,0,0,53.21,115c.51,1,1,2.15,2.18,2.57C55.75,117.73,56.16,117.26,55.92,117Z"/><path class="cls-4" d="M69.67,115.54c-1.13-.26-2.25-.32-3.36-.68a8.31,8.31,0,0,1-3.25-2.09c-.59-.58-1.53.29-.94.87,1.76,1.75,4.87,3.45,7.55,2.8A.46.46,0,0,0,69.67,115.54Z"/><path class="cls-4" d="M73.6,111.16c-.95-.33-2-.39-3-.65a18.54,18.54,0,0,1-3.49-1.39.5.5,0,1,0-.53.84c1.86,1.2,4.69,2.44,7,2.13C74.16,112,74,111.31,73.6,111.16Z"/><path class="cls-4" d="M75.58,105.41a12.32,12.32,0,0,0-2.79-.19,20.42,20.42,0,0,1-3.38-.58.56.56,0,1,0-.31,1.07,22,22,0,0,0,3.25.65,5.57,5.57,0,0,0,3.34-.19A.41.41,0,0,0,75.58,105.41Z"/><path class="cls-4" d="M75.79,93.6a15.5,15.5,0,0,0-3.29,1.91,32.74,32.74,0,0,1-4.66,2.24.54.54,0,1,0,.31,1,29.69,29.69,0,0,0,4.58-1.91c1.24-.65,2.88-1.47,3.57-2.66A.43.43,0,0,0,75.79,93.6Z"/><path class="cls-4" d="M69.08,89.5a8.21,8.21,0,0,0-1.47,2.12c-.24.4-.51.78-.78,1.17s-.67,1.23-1.15,1.36a.44.44,0,0,0,0,.85c1.08.33,1.75-.92,2.27-1.6.78-1,1.83-2.33,1.89-3.61C69.86,89.41,69.36,89.27,69.08,89.5Z"/></g></g></svg>