<?xml version="1.0" encoding="UTF-8" standalone="no"?>
<!-- Created with Inkscape (http://www.inkscape.org/) -->

<svg
   xmlns:dc="http://purl.org/dc/elements/1.1/"
   xmlns:cc="http://creativecommons.org/ns#"
   xmlns:rdf="http://www.w3.org/1999/02/22-rdf-syntax-ns#"
   xmlns:svg="http://www.w3.org/2000/svg"
   xmlns="http://www.w3.org/2000/svg"
   xmlns:sodipodi="http://sodipodi.sourceforge.net/DTD/sodipodi-0.dtd"
   xmlns:inkscape="http://www.inkscape.org/namespaces/inkscape"
   width="17.700624mm"
   height="19.737917mm"
   viewBox="0 0 17.700624 19.737917"
   version="1.1"
   id="svg1528"
   inkscape:version="0.92.5 (2060ec1f9f, 2020-04-08)"
   sodipodi:docname="individual-challenge-btn.svg">
  <defs
     id="defs1522" />
  <sodipodi:namedview
     id="base"
     pagecolor="#ffffff"
     bordercolor="#666666"
     borderopacity="1.0"
     inkscape:pageopacity="0.0"
     inkscape:pageshadow="2"
     inkscape:zoom="3.959798"
     inkscape:cx="-27.301573"
     inkscape:cy="45.661815"
     inkscape:document-units="mm"
     inkscape:current-layer="g28"
     showgrid="false"
     fit-margin-top="0"
     fit-margin-left="0"
     fit-margin-right="0"
     fit-margin-bottom="0"
     inkscape:window-width="1366"
     inkscape:window-height="719"
     inkscape:window-x="0"
     inkscape:window-y="25"
     inkscape:window-maximized="1" />
  <metadata
     id="metadata1525">
    <rdf:RDF>
      <cc:Work
         rdf:about="">
        <dc:format>image/svg+xml</dc:format>
        <dc:type
           rdf:resource="http://purl.org/dc/dcmitype/StillImage" />
        <dc:title />
      </cc:Work>
    </rdf:RDF>
  </metadata>
  <g
     inkscape:label="Capa 1"
     inkscape:groupmode="layer"
     id="layer1"
     transform="translate(-72.0366,-126.11319)">
    <g
       id="g2110"
       transform="translate(281.21429,123.22024)">
      <path
         class="st0"
         d="m -208.88665,22.20753 0.10583,-9.233958 h 4.23334 l 0.39687,0.79375 c 0,0 1.95792,-0.3175 2.30188,-0.582083 0.34395,-0.264584 3.59833,-1.375834 3.83645,-4.1539591 0,0 -0.18521,-1.666875 1.16417,-1.666875 1.34938,0 1.71979,2.6722921 0.39688,5.5562501 l 3.73062,0.05292 c 0,0 2.11667,1.375833 0,2.301875 0,0 0.55562,2.354791 -1.13771,2.487083 0,0 1.13771,2.010833 -0.79375,2.196042 0,0 1.24354,2.143125 -1.00541,2.248958 -2.24896,0.105833 -5.79438,0 -5.79438,0 l -2.69875,-0.767292 c 0,0 0,0.767292 -0.39687,0.767292 -0.39688,0 -4.33917,0 -4.33917,0 z"
         id="path8"
         inkscape:connector-curvature="0"
         style="fill:#ffffff;stroke-width:0.26458332" />
      <g
         transform="matrix(0.26458333,0,0,0.26458333,-215.52769,-0.30851174)"
         id="g28">
        <path
           class="st4"
           d="m 43,57.6 v 24.6 c 0,1.6 -1.3,2.9 -2.9,2.9 H 25.5 V 54.7 H 40 c 1.7,0 3,1.3 3,2.9 z"
           id="path10"
           inkscape:connector-curvature="0"
           style="fill:#7ab6d9;fill-opacity:1" />
        <path
           class="st4"
           d="m 72,20.3 v -6.7 c 0,-0.8 -0.7,-1.5 -1.5,-1.5 -0.8,0 -1.5,0.7 -1.5,1.5 v 6.7 c 0,0.8 0.7,1.5 1.5,1.5 0.9,0 1.5,-0.7 1.5,-1.5 z"
           id="path12"
           inkscape:connector-curvature="0"
           style="fill:#7ab6d9;fill-opacity:1" />
        <path
           class="st1"
           d="m 37.2,57.5 c -0.8,0 -1.5,0.7 -1.5,1.5 0,0.8 0.7,1.5 1.5,1.5 0.8,0 1.5,-0.7 1.5,-1.5 0,-0.8 -0.7,-1.5 -1.5,-1.5 z"
           id="path14"
           inkscape:connector-curvature="0"
           style="fill:#3c3c3b" />
        <path
           class="st1"
           d="M 85.1,48.8 H 74.3 c 1.7,-4.3 2.4,-9.4 2.2,-13.9 0,-0.9 -0.1,-1.4 -0.1,-1.7 -0.1,-3.1 -2.7,-5.7 -5.8,-5.7 -3.2,0 -5.8,2.6 -5.8,5.8 v 1.5 C 64.8,44 53,49.1 44.1,51.4 43.4,49.9 41.9,48.8 40.1,48.8 H 25.5 c -0.8,0 -1.5,0.7 -1.5,1.5 v 34.9 c 0,0.8 0.7,1.5 1.5,1.5 H 40 c 1.8,0 3.3,-1.1 4,-2.6 0.7,0.2 1.4,0.4 2.1,0.5 5.1,1.3 7.9,2.1 14.7,2.1 h 15.6 c 3.2,0 5.8,-2.6 5.8,-5.8 0,-1.2 -0.4,-2.3 -1,-3.2 2.2,-0.8 3.9,-2.9 3.9,-5.5 0,-1.2 -0.4,-2.3 -1,-3.2 2.2,-0.8 3.9,-2.9 3.9,-5.5 0,-1.2 -0.4,-2.3 -1,-3.2 2.2,-0.8 3.9,-2.9 3.9,-5.5 0,-3.4 -2.6,-6 -5.8,-6 z M 41.5,82.2 c 0,0.8 -0.7,1.5 -1.5,1.5 H 27 v -32 h 13.1 c 0.8,0 1.5,0.7 1.5,1.5 v 29 z M 85.1,57.5 c -3.1,0 -3.9,0 -7.3,0 -0.8,0 -1.5,0.7 -1.5,1.5 0,0.8 0.7,1.5 1.5,1.5 h 4.4 c 1.6,0 2.9,1.3 2.9,2.9 0,1.6 -1.3,2.9 -2.9,2.9 h -7.3 c -0.8,0 -1.5,0.7 -1.5,1.5 0,0.8 0.7,1.5 1.5,1.5 h 4.4 c 1.6,0 2.9,1.3 2.9,2.9 0,1.6 -1.3,2.9 -2.9,2.9 -3.1,0 -3.9,0 -7.3,0 -0.8,0 -1.5,0.7 -1.5,1.5 0,0.8 0.7,1.5 1.5,1.5 h 4.4 c 1.6,0 2.9,1.3 2.9,2.9 0,1.6 -1.3,2.9 -2.9,2.9 H 60.8 c -6.4,0 -8.9,-0.7 -13.9,-2 -0.7,-0.2 -1.5,-0.4 -2.4,-0.6 v -27 C 55,51.8 67.7,45.7 67.7,34.8 v -1.5 c 0,-1.6 1.3,-2.9 2.9,-2.9 1.6,0 2.9,1.3 2.9,2.9 v 0 c 0,0.6 0.8,8.4 -2.4,15.4 h -4.9 c -0.8,0 -1.5,0.7 -1.5,1.5 0,0.8 0.7,1.5 1.5,1.5 1,0 17.2,0 18.9,0 1.6,0 2.9,1.3 2.9,2.9 0,1.6 -1.3,2.9 -2.9,2.9 z"
           id="path16"
           inkscape:connector-curvature="0"
           style="fill:#3c3c3b" />
        <path
           class="st1"
           d="m 37.2,63.3 c -0.8,0 -1.5,0.7 -1.5,1.5 v 11.6 c 0,0.8 0.7,1.5 1.5,1.5 0.8,0 1.5,-0.7 1.5,-1.5 V 64.7 C 38.6,63.9 38,63.3 37.2,63.3 Z"
           id="path18"
           inkscape:connector-curvature="0"
           style="fill:#3c3c3b" />
        <path
           class="st4"
           d="m 51.7,31.9 c 0,0.8 0.7,1.5 1.5,1.5 H 59 c 0.8,0 1.5,-0.7 1.5,-1.5 0,-0.8 -0.7,-1.5 -1.5,-1.5 h -5.8 c -0.9,0.1 -1.5,0.7 -1.5,1.5 z"
           id="path20"
           inkscape:connector-curvature="0"
           style="fill:#7ab6d9;fill-opacity:1" />
        <path
           class="st4"
           d="m 80.7,31.9 c 0,0.8 0.7,1.5 1.5,1.5 H 88 c 0.8,0 1.5,-0.7 1.5,-1.5 0,-0.8 -0.7,-1.5 -1.5,-1.5 h -5.8 c -0.8,0.1 -1.5,0.7 -1.5,1.5 z"
           id="path22"
           inkscape:connector-curvature="0"
           style="fill:#7ab6d9;fill-opacity:1" />
        <path
           class="st4"
           d="m 81.9,18.6 -4.1,4.1 c -0.6,0.6 -0.6,1.5 0,2.1 0.6,0.6 1.5,0.6 2.1,0 L 84,20.7 c 0.6,-0.6 0.6,-1.5 0,-2.1 -0.6,-0.6 -1.6,-0.6 -2.1,0 z"
           id="path24"
           inkscape:connector-curvature="0"
           style="fill:#7ab6d9;fill-opacity:1" />
        <path
           class="st4"
           d="m 63.4,24.7 c 0.6,-0.6 0.6,-1.5 0,-2.1 l -4.1,-4.1 c -0.6,-0.6 -1.5,-0.6 -2.1,0 -0.6,0.6 -0.6,1.5 0,2.1 l 4.1,4.1 c 0.6,0.6 1.5,0.6 2.1,0 z"
           id="path26"
           inkscape:connector-curvature="0"
           style="fill:#7ab6d9;fill-opacity:1" />
      </g>
    </g>
  </g>
</svg>
