<?xml version="1.0" encoding="UTF-8" standalone="no"?>
<!-- Created with Inkscape (http://www.inkscape.org/) -->

<svg
   width="17.700624mm"
   height="19.737917mm"
   viewBox="0 0 17.700624 19.737917"
   version="1.1"
   id="svg1528"
   inkscape:version="1.1.1 (eb90963e84, 2021-10-02)"
   sodipodi:docname="individual-challenge-btn.svg"
   xmlns:inkscape="http://www.inkscape.org/namespaces/inkscape"
   xmlns:sodipodi="http://sodipodi.sourceforge.net/DTD/sodipodi-0.dtd"
   xmlns="http://www.w3.org/2000/svg"
   xmlns:svg="http://www.w3.org/2000/svg"
   xmlns:rdf="http://www.w3.org/1999/02/22-rdf-syntax-ns#"
   xmlns:cc="http://creativecommons.org/ns#"
   xmlns:dc="http://purl.org/dc/elements/1.1/">
  <defs
     id="defs1522" />
  <sodipodi:namedview
     id="base"
     pagecolor="#ffffff"
     bordercolor="#666666"
     borderopacity="1.0"
     inkscape:pageopacity="0.0"
     inkscape:pageshadow="2"
     inkscape:zoom="2.881358"
     inkscape:cx="-52.579374"
     inkscape:cy="43.382321"
     inkscape:document-units="mm"
     inkscape:current-layer="g28"
     showgrid="false"
     fit-margin-top="0"
     fit-margin-left="0"
     fit-margin-right="0"
     fit-margin-bottom="0"
     inkscape:window-width="1920"
     inkscape:window-height="1031"
     inkscape:window-x="0"
     inkscape:window-y="25"
     inkscape:window-maximized="1"
     inkscape:pagecheckerboard="0" />
  <metadata
     id="metadata1525">
    <rdf:RDF>
      <cc:Work
         rdf:about="">
        <dc:format>image/svg+xml</dc:format>
        <dc:type
           rdf:resource="http://purl.org/dc/dcmitype/StillImage" />
        <dc:title />
      </cc:Work>
    </rdf:RDF>
  </metadata>
  <g
     inkscape:label="Capa 1"
     inkscape:groupmode="layer"
     id="layer1"
     transform="translate(-72.0366,-126.11319)">
    <g
       id="g2110"
       transform="translate(281.21429,123.22024)">
      <path
         class="st0"
         d="m -208.88665,22.20753 0.10583,-9.233958 h 4.23334 l 0.39687,0.79375 c 0,0 1.95792,-0.3175 2.30188,-0.582083 0.34395,-0.264584 3.59833,-1.375834 3.83645,-4.1539591 0,0 -0.18521,-1.666875 1.16417,-1.666875 1.34938,0 1.71979,2.6722921 0.39688,5.5562501 l 3.73062,0.05292 c 0,0 2.11667,1.375833 0,2.301875 0,0 0.55562,2.354791 -1.13771,2.487083 0,0 1.13771,2.010833 -0.79375,2.196042 0,0 1.24354,2.143125 -1.00541,2.248958 -2.24896,0.105833 -5.79438,0 -5.79438,0 l -2.69875,-0.767292 c 0,0 0,0.767292 -0.39687,0.767292 -0.39688,0 -4.33917,0 -4.33917,0 z"
         id="path8"
         inkscape:connector-curvature="0"
         style="fill:#ffffff;stroke-width:0.26458332" />
      <g
         transform="matrix(0.26458333,0,0,0.26458333,-215.52769,-0.30851174)"
         id="g28">
        <path
           class="st4"
           d="m 43,57.6 v 24.6 c 0,1.6 -1.3,2.9 -2.9,2.9 H 25.5 V 54.7 H 40 c 1.7,0 3,1.3 3,2.9 z"
           id="path10"
           inkscape:connector-curvature="0"
           style="fill:#7ab6d9;fill-opacity:1" />
        <path
           class="st4"
           d="m 72,20.3 v -6.7 c 0,-0.8 -0.7,-1.5 -1.5,-1.5 -0.8,0 -1.5,0.7 -1.5,1.5 v 6.7 c 0,0.8 0.7,1.5 1.5,1.5 0.9,0 1.5,-0.7 1.5,-1.5 z"
           id="path12"
           inkscape:connector-curvature="0"
           style="fill:#7ab6d9;fill-opacity:1" />
        <path
           class="st1"
           d="m 37.2,57.5 c -0.8,0 -1.5,0.7 -1.5,1.5 0,0.8 0.7,1.5 1.5,1.5 0.8,0 1.5,-0.7 1.5,-1.5 0,-0.8 -0.7,-1.5 -1.5,-1.5 z"
           id="path14"
           inkscape:connector-curvature="0"
           style="fill:#3c3c3b" />
        <path
           class="st1"
           d="M 85.1,48.8 H 74.3 c 1.7,-4.3 2.4,-9.4 2.2,-13.9 0,-0.9 -0.1,-1.4 -0.1,-1.7 -0.1,-3.1 -2.7,-5.7 -5.8,-5.7 -3.2,0 -5.8,2.6 -5.8,5.8 v 1.5 C 64.8,44 53,49.1 44.1,51.4 43.4,49.9 41.9,48.8 40.1,48.8 H 25.5 c -0.8,0 -1.5,0.7 -1.5,1.5 v 34.9 c 0,0.8 0.7,1.5 1.5,1.5 H 40 c 1.8,0 3.3,-1.1 4,-2.6 0.7,0.2 1.4,0.4 2.1,0.5 5.1,1.3 7.9,2.1 14.7,2.1 h 15.6 c 3.2,0 5.8,-2.6 5.8,-5.8 0,-1.2 -0.4,-2.3 -1,-3.2 2.2,-0.8 3.9,-2.9 3.9,-5.5 0,-1.2 -0.4,-2.3 -1,-3.2 2.2,-0.8 3.9,-2.9 3.9,-5.5 0,-1.2 -0.4,-2.3 -1,-3.2 2.2,-0.8 3.9,-2.9 3.9,-5.5 0,-3.4 -2.6,-6 -5.8,-6 z M 41.5,82.2 c 0,0.8 -0.7,1.5 -1.5,1.5 H 27 v -32 h 13.1 c 0.8,0 1.5,0.7 1.5,1.5 v 29 z M 85.1,57.5 c -3.1,0 -3.9,0 -7.3,0 -0.8,0 -1.5,0.7 -1.5,1.5 0,0.8 0.7,1.5 1.5,1.5 h 4.4 c 1.6,0 2.9,1.3 2.9,2.9 0,1.6 -1.3,2.9 -2.9,2.9 h -7.3 c -0.8,0 -1.5,0.7 -1.5,1.5 0,0.8 0.7,1.5 1.5,1.5 h 4.4 c 1.6,0 2.9,1.3 2.9,2.9 0,1.6 -1.3,2.9 -2.9,2.9 -3.1,0 -3.9,0 -7.3,0 -0.8,0 -1.5,0.7 -1.5,1.5 0,0.8 0.7,1.5 1.5,1.5 h 4.4 c 1.6,0 2.9,1.3 2.9,2.9 0,1.6 -1.3,2.9 -2.9,2.9 H 60.8 c -6.4,0 -8.9,-0.7 -13.9,-2 -0.7,-0.2 -1.5,-0.4 -2.4,-0.6 v -27 C 55,51.8 67.7,45.7 67.7,34.8 v -1.5 c 0,-1.6 1.3,-2.9 2.9,-2.9 1.6,0 2.9,1.3 2.9,2.9 v 0 c 0,0.6 0.8,8.4 -2.4,15.4 h -4.9 c -0.8,0 -1.5,0.7 -1.5,1.5 0,0.8 0.7,1.5 1.5,1.5 1,0 17.2,0 18.9,0 1.6,0 2.9,1.3 2.9,2.9 0,1.6 -1.3,2.9 -2.9,2.9 z"
           id="path16"
           inkscape:connector-curvature="0"
           style="fill:#3c3c3b" />
        <path
           class="st1"
           d="m 37.2,63.3 c -0.8,0 -1.5,0.7 -1.5,1.5 v 11.6 c 0,0.8 0.7,1.5 1.5,1.5 0.8,0 1.5,-0.7 1.5,-1.5 V 64.7 C 38.6,63.9 38,63.3 37.2,63.3 Z"
           id="path18"
           inkscape:connector-curvature="0"
           style="fill:#3c3c3b" />
        <path
           class="st4"
           d="m 51.7,31.9 c 0,0.8 0.7,1.5 1.5,1.5 H 59 c 0.8,0 1.5,-0.7 1.5,-1.5 0,-0.8 -0.7,-1.5 -1.5,-1.5 h -5.8 c -0.9,0.1 -1.5,0.7 -1.5,1.5 z"
           id="path20"
           inkscape:connector-curvature="0"
           style="fill:#7ab6d9;fill-opacity:1" />
        <path
           class="st4"
           d="m 80.7,31.9 c 0,0.8 0.7,1.5 1.5,1.5 H 88 c 0.8,0 1.5,-0.7 1.5,-1.5 0,-0.8 -0.7,-1.5 -1.5,-1.5 h -5.8 c -0.8,0.1 -1.5,0.7 -1.5,1.5 z"
           id="path22"
           inkscape:connector-curvature="0"
           style="fill:#7ab6d9;fill-opacity:1" />
        <path
           class="st4"
           d="m 81.9,18.6 -4.1,4.1 c -0.6,0.6 -0.6,1.5 0,2.1 0.6,0.6 1.5,0.6 2.1,0 L 84,20.7 c 0.6,-0.6 0.6,-1.5 0,-2.1 -0.6,-0.6 -1.6,-0.6 -2.1,0 z"
           id="path24"
           inkscape:connector-curvature="0"
           style="fill:#7ab6d9;fill-opacity:1" />
        <path
           class="st4"
           d="m 63.4,24.7 c 0.6,-0.6 0.6,-1.5 0,-2.1 l -4.1,-4.1 c -0.6,-0.6 -1.5,-0.6 -2.1,0 -0.6,0.6 -0.6,1.5 0,2.1 l 4.1,4.1 c 0.6,0.6 1.5,0.6 2.1,0 z"
           id="path26"
           inkscape:connector-curvature="0"
           style="fill:#7ab6d9;fill-opacity:1" />
        <path
           style="fill:#ae8000;stroke:#ae8000;stroke-width:0.430071;stroke-opacity:1"
           d="M 3.2255296,57.199392 V 43.007061 h 7.0961654 7.096165 v 13.676246 c 0,10.063652 -0.136324,13.81257 -0.516085,14.19233 -0.356424,0.356425 -2.551752,0.516085 -7.096165,0.516085 H 3.2255296 Z m 11.3968714,1.290212 c 0,-7.081835 -0.002,-7.096449 -0.991331,-7.236697 -2.018457,-0.286137 -2.234199,0.409443 -2.234199,7.203342 0,6.793763 0.203878,7.482636 2.147333,7.25552 l 1.078197,-0.126 z m -0.04612,-10.859283 c 0.607792,-0.969575 -0.109373,-2.203923 -1.391369,-2.394755 -1.24153,-0.184809 -2.185874,1.719742 -1.351314,2.725325 0.698921,0.842148 2.114501,0.671531 2.742683,-0.33057 z"
           id="path871"
           transform="translate(24,12.100013)" />
        <path
           style="fill:#ae8000;stroke:#ae8000;stroke-width:0.0701027;stroke-opacity:1"
           d="M 45.877696,9.4813901 C 45.628752,9.3551541 45.424774,9.1837011 45.286778,8.9846964 L 45.076036,8.680785 45.054747,5.0238938 c -0.01489,-2.5571288 0.0024,-3.7380085 0.05744,-3.9266198 0.101887,-0.34906046 0.572126,-0.85705074 0.890678,-0.96218253 0.84057,-0.27741305 1.728348,0.2268096 1.915156,1.08773283 0.05186,0.2389949 0.06964,1.4964584 0.05457,3.8596214 -0.02216,3.4755713 -0.02367,3.5076138 -0.179431,3.7990104 -0.250639,0.4688988 -0.786973,0.7927164 -1.312964,0.7927164 -0.12228,0 -0.393407,-0.086752 -0.602503,-0.1927824 z"
           id="path947"
           transform="translate(24,12.100013)" />
        <path
           style="fill:#ae8000;stroke:#ae8000;stroke-width:0.0701027;stroke-opacity:1"
           d="m 54.240385,12.960837 c -0.734562,-0.363601 -1.037227,-1.165413 -0.711221,-1.88415 0.187015,-0.412309 4.373359,-4.6328133 4.800341,-4.8395115 1.185789,-0.5740307 2.500495,0.7403171 1.925706,1.9251816 -0.192529,0.3968764 -4.50127,4.6915029 -4.854301,4.8383989 -0.36193,0.150598 -0.80653,0.135305 -1.160525,-0.03992 z"
           id="path986"
           transform="translate(24,12.100013)" />
        <path
           style="fill:#ae8000;stroke:#ae8000;stroke-width:0.0701027;stroke-opacity:1"
           d="m 57.624419,21.12591 c -0.726658,-0.386147 -1.0497,-1.156716 -0.767784,-1.831437 0.145613,-0.348499 0.351397,-0.557398 0.747928,-0.759248 l 0.330657,-0.168318 h 3.216029 3.216028 l 0.308963,0.163113 c 0.169929,0.08971 0.403601,0.29748 0.519271,0.461707 0.186317,0.264531 0.210308,0.355881 0.210308,0.800799 0,0.583424 -0.143289,0.860438 -0.624222,1.206778 l -0.287113,0.206763 -3.329879,0.0158 c -2.932727,0.01392 -3.354961,0.0025 -3.540186,-0.09596 z"
           id="path1025"
           transform="translate(24,12.100013)" />
        <path
           style="fill:#ae8000;stroke:#ae8000;stroke-width:0.0701027;stroke-opacity:1"
           d="m 38.026621,12.975696 c -0.390988,-0.125328 -0.59798,-0.309179 -2.720012,-2.415924 -2.579008,-2.5604289 -2.67991,-2.7042933 -2.457782,-3.5042647 0.117128,-0.4218219 0.57296,-0.8673629 1.020508,-0.9974686 0.339092,-0.098577 0.411813,-0.098704 0.743873,-0.0013 0.345253,0.1012727 0.512148,0.2524022 2.695679,2.4410432 1.280202,1.2831977 2.36066,2.4218921 2.401018,2.5304331 0.188112,0.505923 0.02567,1.215957 -0.357943,1.564547 -0.363425,0.330247 -0.955776,0.501398 -1.325341,0.382936 z"
           id="path1064"
           transform="translate(24,12.100013)" />
        <path
           style="fill:#ae8000;stroke:#ae8000;stroke-width:0.0701027;stroke-opacity:1"
           d="m 28.570914,21.085054 c -0.386102,-0.197637 -0.672207,-0.551751 -0.782334,-0.968298 -0.155239,-0.587179 0.06035,-1.103152 0.627541,-1.501884 l 0.302864,-0.212913 3.322828,-0.0195 c 3.166521,-0.01859 3.335245,-0.01314 3.586799,0.115857 1.017752,0.521894 1.095061,1.886068 0.142615,2.516542 l -0.288861,0.191213 -3.300027,0.01919 -3.300027,0.01919 z"
           id="path1103"
           transform="translate(24,12.100013)" />
      </g>
    </g>
  </g>
</svg>
