<svg xmlns="http://www.w3.org/2000/svg" viewBox="0 0 270 270"><defs><style>.cls-1{fill:#fff;}.cls-2{fill:#a78126;}.cls-3{fill:#002d26;}</style></defs><g id="Capa_2" data-name="Capa 2"><g id="Home"><rect class="cls-1" width="270" height="270" rx="9.75"/><path class="cls-2" d="M236.25,18.79a4.48,4.48,0,0,1,2.06,0,7.92,7.92,0,0,1,1.93.3,6.05,6.05,0,0,1,1.8.74,14.25,14.25,0,0,1,1.49,1.31,9.27,9.27,0,0,1,.82.84,4.88,4.88,0,0,1,.46.8,13.87,13.87,0,0,1,.81,1.64,13,13,0,0,1,.58,1.62l.27,1c0,.1.26.7.19.78l-.09-.17a5.38,5.38,0,0,0,.42.95,1.23,1.23,0,0,1,.22.75,1.72,1.72,0,0,1-.91,1.42A12.46,12.46,0,0,1,242.41,32a5.38,5.38,0,0,1-2,.41,1.23,1.23,0,0,1-1-1.17,1.12,1.12,0,0,0-.08-.51,1.88,1.88,0,0,1-.1-.47c0-.24,0-.47,0-.71a5.9,5.9,0,0,1,0-1.19c0-.11,0-.39,0-.49l0,.08c-.14-.92-.2-1.86-.28-2.8v.09a26,26,0,0,0-.18-2.81l.06.12a4.61,4.61,0,0,0-.48-1,.78.78,0,0,0-.26-.22,1.42,1.42,0,0,1-.54.17c-.33.19-.63.44-1,.63a2.68,2.68,0,0,0-.77.52l.08-.1c-.15.09-.27.32-.4.45a3.18,3.18,0,0,0-.5.7c-.41.7-.75,1.44-1.19,2.13a23.74,23.74,0,0,0-1.27,2,12.61,12.61,0,0,0-.76,2,20.27,20.27,0,0,0-.59,4.72c-.08,1.52-.14,3-.28,4.53A17,17,0,0,1,236,37.8a11.14,11.14,0,0,1,4.8.36,7.4,7.4,0,0,1,2.66,1.6,7,7,0,0,1,1.69,2.78,14.52,14.52,0,0,1,.78,3.63c.11,1.3,0,2.61.1,3.91a10.18,10.18,0,0,1-.41,3.72c-.16.65-.35,1.3-.56,1.93a17.68,17.68,0,0,1-.6,1.73,6.81,6.81,0,0,1-2.18,2.66A26.91,26.91,0,0,1,239,61.91c-.09-.06-.26.06-.37.12a3.77,3.77,0,0,1-1.59.29h.06l-.37.12a2.14,2.14,0,0,0-.62.06,2.06,2.06,0,0,1-1.18-.06,1.63,1.63,0,0,0-.54-.12l-.71-.06a3.6,3.6,0,0,1-1.31-.35,13.4,13.4,0,0,1-2.48-1.12,9.86,9.86,0,0,1-2-1.59,6.28,6.28,0,0,1-1.4-1.37l-.07-.1.06.09c0-.17-.37-.46-.46-.58s-.45-.55-.42-.64l.09.1a4.16,4.16,0,0,1-1.09-2.38l-.37-2.76c-.12-1-.28-1.92-.31-2.89l-.08-2.91c0-1-.2-2-.16-3.06,0-.45.07-.9.07-1.35a12.49,12.49,0,0,1,0-1.37c.09-.81.16-1.62.28-2.43a9.74,9.74,0,0,1,.34-2.15l-.11.26a13.74,13.74,0,0,0,.35-2.21,19.63,19.63,0,0,1,.52-2.27c.2-.76.39-1.53.53-2.31a5.85,5.85,0,0,0,.11-.84,2,2,0,0,1,.09-.59c0-.09.05-.35.07-.1v-.12a9.61,9.61,0,0,1,.31-1.7,7.16,7.16,0,0,1,.74-1.86,11.78,11.78,0,0,1,1.37-1.54,7.36,7.36,0,0,1,1.42-1.25,15.74,15.74,0,0,1,5.78-2l.8-.1Zm.11,21.39c-.48,0-1,.11-1.44.19a17.77,17.77,0,0,0-2,.51,7.51,7.51,0,0,0-1.82,1c-.21.19-.35.22-.35.51l0,1.74c0,1.33-.06,2.63,0,4s.06,2.6.16,3.9c.16,2.1.67,4.51,2.14,6.1.46.49.94,1,1.44,1.43a1,1,0,0,0,.51.31c.24.06.37-.15.59-.23s.51,0,.72-.14a3.78,3.78,0,0,0,.56-.4,7.45,7.45,0,0,0,.86-1,11.69,11.69,0,0,0,1.87-6,19.73,19.73,0,0,0,0-2.55c0-.86,0-1.71,0-2.57a11.59,11.59,0,0,0-.89-4.54l-.08-.16-.33-.69a3.44,3.44,0,0,0-.3-.53s-.13-.17,0-.09a4.92,4.92,0,0,0-.73-.64l-.34-.25Zm-1.7,19.6c-.07,0,0,0,.05,0Z"/><path class="cls-3" d="M173.67,124.7a48.11,48.11,0,0,1-36-27.13,30.84,30.84,0,0,0-.53-5c-.31-1.61-3-1.24-2.85.38,0,.07,0,.13,0,.19-1.22,0-2.37,1-1.82,2.4s1.05,2.58,1.63,3.82c-2,16.83-17.27,26.94-33.81,30.12-2,.39-1.83,3.38,0,3.89,19.3,5.35,30.4,22.48,35.88,40.74.64,2.1,4,1.76,3.9-.53a44.39,44.39,0,0,1,33.6-45.08C175.43,128,175.62,125,173.67,124.7Zm-36.93,39.19c-5.8-13.91-15.19-26.15-29.08-32.2,13.37-4.29,26.13-13.79,29.28-27.13a51.64,51.64,0,0,0,29.11,22.38A48.14,48.14,0,0,0,136.74,163.89Z"/><path class="cls-3" d="M141.34,63.9c-.27-3.57-1.3-22.89-7.74-20-3.21,1.42-3.77,4.85-4.82,8a74.4,74.4,0,0,0-3.49,16.75c-.88,9.15,1.08,21.46,8.34,27.89a2,2,0,0,0,3.85.39A86.17,86.17,0,0,0,141.34,63.9Zm-6.6,28.58c-3.22-6.38-5.59-12.1-5.83-19.75-.25-8.16,2.14-16.24,4.8-23.85q1.64-1.74,1.51,1.35c.57,2,1,4,1.37,6a77.19,77.19,0,0,1,1.31,13.82A75.57,75.57,0,0,1,134.74,92.48Z"/><path class="cls-3" d="M164.29,50.16c-1.11-8.5-11.19,1.35-13.16,3.51-6.21,6.8-10.79,17.13-12.46,26.14-.24,1.27,1.5,2.19,2.18.92,3.34-6.28,5.35-13.12,9-19.28a37.51,37.51,0,0,1,7.5-8.87c5.8-5.12,2.49,4.31,1.74,7-4.16,14.82-13.42,28-25.29,37.63-1.92,1.57.82,4.3,2.72,2.72A83.09,83.09,0,0,0,155.4,77.57C159.65,70.28,165.43,58.8,164.29,50.16Z"/><path class="cls-3" d="M136.19,95.08c-16,2.54-30.78-18.06-34.91-31.27a29.2,29.2,0,0,1-.86-3.7,25.07,25.07,0,0,1,6.12,2.68,32.8,32.8,0,0,1,9.19,7.76c5.69,6.59,9.11,15.27,14.1,22.39a1.34,1.34,0,0,0,2.32-1.35c-4.7-9.9-10.29-22.21-19.24-29.05-3.23-2.47-16.73-11.66-16.3-1.72.42,9.68,8.1,19.66,14.49,26.29,6.85,7.1,15.88,13.38,26.14,11.77C139.74,98.48,138.67,94.69,136.19,95.08Z"/><path class="cls-3" d="M138.84,172.69c-9.77,2.29-16,11.33-19.9,20-4.69,10.59-8.19,24.37-7.67,36a2,2,0,0,0,1.93,1.93c8.55.14,15.26-14.14,18.44-20.53a71.5,71.5,0,0,0,7.29-33.48,1.79,1.79,0,0,0-.32-1c.39-.24.76-.5,1.16-.74A1.2,1.2,0,0,0,138.84,172.69Zm-7.87,29a69.07,69.07,0,0,1-6.27,13c-1.76,2.93-5.57,9.84-9.58,11.64.06-9.49,2.93-19.52,5.84-28.4A39.24,39.24,0,0,1,135.16,178,77.18,77.18,0,0,1,131,201.7Z"/><path class="cls-3" d="M161.85,190.65c-6.24-7.55-14.08-13.59-23.49-16.53-2.41-.75-3.43,3-1,3.76l.14.05c.65,8.75,7,16.21,12.58,22.55C156.67,208,164,215,173.71,218.19a2,2,0,0,0,2.49-1.9C174.91,206.52,168,198.05,161.85,190.65Zm-7.9,8.48c-5.7-6.13-10.22-12.13-12.8-19.78,6.52,2.85,11.89,7.37,16.74,12.73,5.14,5.7,11.27,13.3,13.63,21.06C164.58,210,159.14,204.72,154,199.13Z"/><path class="cls-3" d="M148.1,193.89c-.92-2.25-4.63-1.27-3.69,1,2.2,5.4,2.16,10.76,1.6,16.47-.51,5.28-.63,11.79-2.07,17.12-2.88-2.27-5.44-12.21-5.94-14.2-1.35-5.36-1.42-11-1.22-16.44.07-1.64-2.63-2.05-2.9-.4A48.75,48.75,0,0,0,136,221c1.19,3.55,4.43,12.42,9.23,11.85a2,2,0,0,0,1.87-1.43c1.93-5.42,1.81-12.38,2.54-18.1C150.48,206.68,150.66,200.17,148.1,193.89Z"/><path class="cls-3" d="M100.39,130c-6.81-15.89-29.2-16.81-43.76-18.68a1.91,1.91,0,0,0-1.88,1.43c-1.36,5.8,10.44,11.95,14.49,14.29A58,58,0,0,0,97,134.44a1.81,1.81,0,0,0,1.9-1.91A1.75,1.75,0,0,0,100.39,130ZM68,121.78c-1-.63-6.17-3.87-8.45-6.16,13.45,1.61,28.75,3.16,37,14.86a58.53,58.53,0,0,1-19.12-3.79A54.16,54.16,0,0,1,68,121.78Z"/><path class="cls-3" d="M99.51,131.35c-.06.16-.13.32-.18.48a1.33,1.33,0,0,0-1.13-1.07c-10-1.71-19.2,3.86-27.3,9-7.2,4.54-13.76,10-16.59,18.27a2,2,0,0,0,1.38,2.43c9.4,1.8,19.78-3.42,27.75-8,7.63-4.38,17.29-11.22,19.79-20.08C103.91,130,100.26,129,99.51,131.35ZM81.45,149.06c-6,3.66-14.88,8.15-22.43,7.82,2.87-6,8.28-10.1,13.87-13.73,7.79-5.07,15.45-8.83,24.87-9.19a1.51,1.51,0,0,0,.77-.26C95.21,140.4,87.51,145.38,81.45,149.06Z"/><path class="cls-3" d="M76.12,136.29c-8.45,3.22-23.23,2.33-30.52-3.58-1.21-1,4.55-2.72,5.32-3a32.42,32.42,0,0,1,8.94-.94c5.27,0,10.33,1.41,15.51,2,2,.24,2-2.59.43-3.2-9.08-3.59-27.23-5.54-34.59,2.69a2,2,0,0,0-.5,1.9c2.17,5.2,8.19,7.12,13.29,8.19,7.49,1.57,15.9,2.39,23.17-.37C79.5,139.18,78.49,135.39,76.12,136.29Z"/><path class="cls-3" d="M220.47,148.85a65.63,65.63,0,0,0-20.64-13.44c-3.63-1.56-7.38-2.83-11.15-4-3.28-1-6.91-1.69-10.13-3.1a68.26,68.26,0,0,0,37.74-26.79,1.83,1.83,0,0,0-1.58-2.73A54.08,54.08,0,0,0,168.82,128c-1.13,2.22,2.24,4.18,3.34,2,.09-.19.21-.38.31-.58,4.68,20,29.63,22.5,46.59,22.86A2,2,0,0,0,220.47,148.85Zm-9.65-46.17a65.26,65.26,0,0,1-36,22.62A49.16,49.16,0,0,1,210.82,102.68Zm-33.91,29.08c5.05,2.4,10.92,3.39,16.12,5.21a68.07,68.07,0,0,1,20.64,11.14C199.42,147.53,183.69,144.87,176.91,131.76Z"/><path class="cls-3" d="M229,120.41c-6.09-.36-11.64-3.93-17.7-4.88a38.88,38.88,0,0,0-15.22,1c-2.35.57-1.35,4.22,1,3.62a35.92,35.92,0,0,1,19.24.28c2.76.78,5.25,1.95,7.87,2.79-11.35,6.8-23.94,8.77-37.31,7.32-1.78-.2-2.13,2.71-.42,3.09,15,3.39,31.09-.83,43.48-9.71A1.88,1.88,0,0,0,229,120.41Z"/><path class="cls-3" d="M125.44,144.84a2.16,2.16,0,0,0-2.79-1.73,1.19,1.19,0,0,0-1.25-.74c-9.07,1.17-16.43,6.73-21.81,13.89-5.1,6.81-12,15-9.76,24.09a1.94,1.94,0,0,0,2.36,1.34c8.73-2.44,17.59-8.33,24.26-14.36C122.72,161.67,126.51,153.29,125.44,144.84ZM112.25,165.9a60.8,60.8,0,0,1-19,11.41c-.36-7.22,6.29-14.95,10.44-20.18,5-6.32,11.09-8.33,17.92-11.76C122.46,153.7,118.3,160.46,112.25,165.9Z"/><path class="cls-3" d="M90.54,178.21l-.28.24c-13.4-6.9-30.16,1.45-40.07,10.76a2,2,0,0,0,.39,3c13.07,8.74,32.6-2,42.66-11.32C95.07,179.24,92.37,176.58,90.54,178.21Zm-35.65,12c8.89-7.61,20.73-12.47,32.19-9.12C78.29,187.78,64.86,194.51,54.89,190.17Z"/><path class="cls-3" d="M93.11,180.39a2,2,0,0,0-3.58-1.08,1.35,1.35,0,0,0-1.43.36c-5.84,6.05-11.5,13.5-12.69,22-.74,5.31-1.51,12.29,4.12,15.1a2,2,0,0,0,2.62-.69C89.89,205.12,94.69,194.05,93.11,180.39Zm-13,32c-3.24-3.83-.64-13.28.93-16.8,2-4.57,5.72-8.37,8.49-12.56C90.12,194.08,86.25,203.22,80.08,212.34Z"/><path class="cls-3" d="M176.66,88.18a1.86,1.86,0,0,0-2-.83A36.47,36.47,0,0,0,157.52,98c-4.15,4.57-8.56,11.64-7.56,18,.2,1.28,1.77,1.39,2.58.68a2,2,0,0,0,0,.24l.13.35a1.93,1.93,0,0,0,2.33,1.32c6-1.85,11.94-7,15.46-12.06C173.54,102.21,180.63,93.58,176.66,88.18Zm-12.34,20c-3.1,3.2-7.2,5.13-11,7a1.21,1.21,0,0,0-.26.2c-.06-5.7,4.41-11.94,8.1-16a30.36,30.36,0,0,1,12.81-8C174.38,96,166.55,105.85,164.32,108.14Z"/><path class="cls-3" d="M182.93,53.73a1.82,1.82,0,0,0-2.21-1.26C171.47,56,169.58,65,170.13,73.76c.1,1.56,1.53,16.14,4.94,16.44a1.87,1.87,0,0,0,3.09,1.66c4.59-4.18,6.31-10.59,7.89-16.4C188.09,68,185.64,60.67,182.93,53.73Zm-.33,20.78c-.92,4.33-2.5,9.35-5.36,13a1.58,1.58,0,0,0-2.72-.79c1.84-1.8-.12-6.88-.37-9-.3-2.55-.4-5.14-.54-7.7-.27-5,2.1-10.7,6.65-13.31C182.54,62.46,184,68.15,182.6,74.51Z"/><path class="cls-3" d="M207,69.8c-4.61-2.91-12.32,1-16.3,3.45-4.55,2.76-11.53,7.48-12.43,13.07-.2,1.22,1.32,2.51,2.31,1.34a64.16,64.16,0,0,1,7.87-8.28c2.95-2.43,10.48-8,15.26-7-1.87,3.52-6.39,6.77-9.24,8.83-3.35,2.42-11.24,8.35-15.57,6.91-2-.66-2.72,2.34-.85,3.06,5.61,2.12,12.19-3.18,16.72-6s11.43-7.77,13.06-13.33A1.84,1.84,0,0,0,207,69.8Z"/><path class="cls-3" d="M174.39,155.45q-5.74-5.25-11.61-10.39c-2.87-2.52-5.77-5.91-9.65-6.72-2.52-.53-3.59,3.33-1.06,3.86,5.12,1.08,10.74,8.21,14.52,11.62,2,1.77,10.17,10.62,11.66,10-6.21,2.56-14.05-1.72-18.61-5.6-3.43-2.92-8.79-9-9.15-13.77a1.61,1.61,0,0,0-3.21,0c-.54,6.36,6.74,14.34,11.46,17.95,5.84,4.47,14.33,7.77,21.6,4.84C186.93,164.6,176.06,157,174.39,155.45Z"/><path class="cls-3" d="M215.06,163.94a70.66,70.66,0,0,0-23.1-4.78c-5.48-.22-11.61.08-14.79,5.13a1.91,1.91,0,0,0,1.44,2.91c-2.47,7.29-1.39,15.94,1.29,23,1.35,3.55,7,12.86,11.92,11.8,4.73-1,2-11.44,1.45-14.65a45.4,45.4,0,0,0-7.1-17.36,37.51,37.51,0,0,0,10,2.07c6.42.36,12.94-2.17,18.86-4.29A2,2,0,0,0,215.06,163.94Zm-28.46,30.4c-2.3-2.45-3.55-5.76-4.51-8.89a34.67,34.67,0,0,1-.8-15.87,46.39,46.39,0,0,1,9.15,27.73C190.44,198.57,187,194.71,186.6,194.34Zm11.68-26.26c-5.52.57-10.86-1.41-15.83-3.59,3.67-2.39,10-1.4,13.72-1.13a54.61,54.61,0,0,1,12.27,2.46A51,51,0,0,1,198.28,168.08Z"/><path class="cls-3" d="M114.87,103.55c-7.31-4.47-14.82-8.49-23.38-9.86A2,2,0,0,0,89,95.08c-.72,3.11.46,5,2.49,7.39a170.29,170.29,0,0,0,12.66,12.83c4.28,4,16,10.21,20.86,4a2.32,2.32,0,0,0,.28-.54,2,2,0,0,0,.32-.87C126.36,110.64,120.36,106.91,114.87,103.55Zm-4.06,11.78c-2.44-1.26-4.43-3.36-6.36-5.28S95,102.12,93.22,98.11a53.4,53.4,0,0,1,13,5c5.55,2.9,14.87,6.85,15.89,13.72C119.46,119.33,113.25,116.58,110.81,115.33Z"/><path class="cls-3" d="M93.06,80.44c-.69-4.69-1.66-15.09-7-16.72A1.89,1.89,0,0,0,83.71,65a35.43,35.43,0,0,0,1.42,25.56A21.63,21.63,0,0,0,70.59,87.4c-4.26.46-15.56,1.63-15,7.67.53,5.37,11.31,8.37,15.46,9.14a28.09,28.09,0,0,0,21.38-5,2,2,0,0,0,.55-2.7C94.67,91.32,93.85,85.8,93.06,80.44Zm-3.94-1c.8,3.83,1.62,8.63,1.07,12.89C86.36,85,84.85,77.25,86.57,69.12,88,72.08,88.78,77.8,89.12,79.42Zm-25.64,18c-3.63-2-4.26-3,0-4.42a45,45,0,0,1,9.08-2c6.39-.72,11.07,2.37,15.38,6.45A25.14,25.14,0,0,1,63.48,97.46Z"/></g></g></svg>