<?xml version="1.0" encoding="UTF-8" standalone="no"?>
<svg
   xmlns:dc="http://purl.org/dc/elements/1.1/"
   xmlns:cc="http://creativecommons.org/ns#"
   xmlns:rdf="http://www.w3.org/1999/02/22-rdf-syntax-ns#"
   xmlns:svg="http://www.w3.org/2000/svg"
   xmlns="http://www.w3.org/2000/svg"
   width="39.874119mm"
   height="39.854717mm"
   viewBox="0 0 39.874119 39.854717"
   version="1.1"
   id="svg1838">
  <defs
     id="defs1832" />
  <metadata
     id="metadata1835">
    <rdf:RDF>
      <cc:Work
         rdf:about="">
        <dc:format>image/svg+xml</dc:format>
        <dc:type
           rdf:resource="http://purl.org/dc/dcmitype/StillImage" />
        <dc:title></dc:title>
      </cc:Work>
    </rdf:RDF>
  </metadata>
  <g
     id="layer1"
     transform="translate(-88.920084,-255.23931)">
    <g
       id="g1793"
       transform="matrix(0.35277777,0,0,-0.35277777,-71.199361,1234.6683)">
      <g
         id="g1058"
         transform="translate(471.0565,2753.6069)">
        <path
           d="m 0,0 c -1.514,2.027 -3.932,3.339 -6.656,3.339 -4.586,0 -8.304,-3.717 -8.304,-8.303 0,-2.725 1.312,-5.143 3.339,-6.657 0.429,-5.582 5.09,-9.978 10.782,-9.978 5.974,0 10.817,4.843 10.817,10.817 C 9.979,-5.09 5.582,-0.429 0,0"
           style="fill:#ffffff;fill-opacity:1;fill-rule:nonzero;stroke:none"
           id="path1060" />
      </g>
      <g
         id="g1062"
         transform="translate(539.7581,2710.1514)">
        <path
           d="m 0,0 h 8.923 c -7.905,10.714 -20.614,17.667 -34.951,17.667 -23.976,0 -43.412,-19.437 -43.412,-43.412 0,-3.408 0.474,-6.352 1.333,-8.917 H 0 Z"
           style="fill:#7ab6d9;fill-opacity:1;fill-rule:nonzero;stroke:none"
           id="path1064" />
      </g>
      <g
         id="g1066"
         transform="translate(521.9258,2766.0645)">
        <path
           d="m 0,0 c -1.718,4.704 -6.231,8.062 -11.529,8.062 -5.298,0 -9.812,-3.358 -11.53,-8.062 -4.805,-1.204 -8.364,-5.55 -8.364,-10.728 0,-6.108 4.952,-11.06 11.06,-11.06 3.61,0 6.815,1.73 8.834,4.405 2.018,-2.675 5.223,-4.405 8.833,-4.405 6.108,0 11.06,4.952 11.06,11.06 C 8.364,-5.55 4.805,-1.204 0,0"
           style="fill:#ffffff;fill-opacity:1;fill-rule:nonzero;stroke:none"
           id="path1068" />
      </g>
      <g
         id="g1070"
         transform="translate(483.9911,2696.5322)">
        <path
           d="m 0,0 c 0,3.427 1.624,6.651 4.378,8.69 1.95,1.445 3.1,3.727 3.1,6.154 0,4.228 -3.428,7.656 -7.657,7.656 h -7.497 c -5.843,-7.396 -9.331,-16.735 -9.331,-26.891 0,-7.532 2.25,-12.86 6.078,-16.63 L 0,-1.262 Z"
           style="fill:#ffffff;fill-opacity:1;fill-rule:nonzero;stroke:none"
           id="path1072" />
      </g>
      <g
         id="g1074"
         transform="translate(537.8348,2725.7822)">
        <path
           d="m 0,0 c -0.594,0.062 -1.194,0.097 -1.8,0.097 -7.313,0 -13.24,-5.928 -13.24,-13.241 0,-4.5 2.285,-8.691 6.068,-11.129 l 4.591,-2.958 c 2.432,-1.568 3.902,-4.264 3.902,-7.158 0,-2.697 -1.279,-5.235 -3.447,-6.84 -2.188,-1.622 -3.478,-4.182 -3.478,-6.905 0,-3.498 2.836,-6.334 6.334,-6.334 5.434,0 10.394,3.075 12.828,7.934 1.989,3.969 3.424,8.27 4.215,12.804 0,0.03 10e-4,0.059 10e-4,0.089 C 15.974,-20.073 9.749,-7.961 0,0"
           style="fill:#ffffff;fill-opacity:1;fill-rule:nonzero;stroke:none"
           id="path1076" />
      </g>
      <g
         id="g1078"
         transform="translate(512.7093,2708.167)">
        <path
           d="m 0,0 c -1.966,1.873 -4.819,2.479 -7.377,1.565 -3.265,-1.166 -5.445,-4.259 -5.445,-7.727 v -3.504 c 0,-3.513 2.847,-6.36 6.36,-6.36 2.321,0 4.459,1.265 5.575,3.3 l 2.23,4.065 C 2.911,-5.804 2.36,-2.249 0,0"
           style="fill:#ffffff;fill-opacity:1;fill-rule:nonzero;stroke:none"
           id="path1080" />
      </g>
      <g
         id="g1082"
         transform="translate(510.3966,2665.5742)">
        <path
           d="m 0,0 v -0.006 c 0,6.902 -2.742,13.523 -7.623,18.403 -3.417,3.417 -8.051,5.337 -12.884,5.337 l -10.037,10.038 c -2.334,2.333 -6.117,2.333 -8.45,0 -2.334,-2.334 -2.334,-6.117 0,-8.45 l 11.636,-11.635 0.889,-0.891 -12.863,12.864 c -2.75,2.749 -4.294,6.478 -4.294,10.366 v 14.016 c 0,2.597 -1.867,4.816 -4.425,5.262 -3.267,0.568 -6.256,-1.947 -6.256,-5.262 V 37.49 c 0,-9.114 3.62,-17.855 10.065,-24.3 L -31.052,0 Z"
           style="fill:#ffffff;fill-opacity:1;fill-rule:nonzero;stroke:none"
           id="path1084" />
      </g>
      <g
         id="g1086"
         transform="translate(510.3966,2665.5742)">
        <path
           d="m 0,0 v -0.006 c 0,6.902 2.742,13.523 7.623,18.403 3.417,3.417 8.051,5.337 12.884,5.337 l 10.037,10.038 c 2.334,2.333 6.117,2.333 8.45,0 2.334,-2.334 2.334,-6.117 0,-8.45 L 27.358,13.687 26.468,12.796 39.332,25.66 c 2.75,2.749 4.294,6.478 4.294,10.366 v 14.016 c 0,2.597 1.867,4.816 4.425,5.262 3.267,0.568 6.256,-1.947 6.256,-5.262 V 37.49 c 0,-9.114 -3.621,-17.855 -10.065,-24.3 L 31.052,0 Z"
           style="fill:#ffffff;fill-opacity:1;fill-rule:nonzero;stroke:none"
           id="path1088" />
      </g>
      <g
         id="g1090"
         transform="translate(549.7366,2753.6069)">
        <path
           d="m 0,0 c 1.514,2.027 3.932,3.339 6.656,3.339 4.586,0 8.304,-3.717 8.304,-8.303 0,-2.725 -1.313,-5.143 -3.339,-6.657 -0.429,-5.582 -5.09,-9.978 -10.782,-9.978 -5.974,0 -10.818,4.843 -10.818,10.817 C -9.979,-5.09 -5.582,-0.429 0,0"
           style="fill:#ffffff;fill-opacity:1;fill-rule:nonzero;stroke:none"
           id="path1092" />
      </g>
      <g
         id="g1094"
         transform="translate(512.117,2700.5674)">
        <path
           d="m 0,0 -2.229,-4.063 c -0.73,-1.33 -2.124,-2.156 -3.641,-2.156 -2.289,0 -4.152,1.863 -4.152,4.153 v 3.503 c 0,2.529 1.6,4.798 3.98,5.649 0.553,0.197 1.122,0.293 1.685,0.293 1.255,0 2.481,-0.477 3.426,-1.378 C 0.702,4.445 1.085,1.978 0,0 m 2.115,9.197 c -2.584,2.463 -6.279,3.248 -9.642,2.047 -4.133,-1.476 -6.91,-5.417 -6.91,-9.807 v -3.503 c 0,-4.724 3.843,-8.568 8.567,-8.568 3.129,0 6.007,1.704 7.512,4.447 l 2.229,4.064 C 5.917,1.606 5.196,6.262 2.115,9.197"
           style="fill:#3c3c3b;fill-opacity:1;fill-rule:nonzero;stroke:none"
           id="path1096" />
      </g>
      <g
         id="g1098"
         transform="translate(546.053,2673.3008)">
        <path
           d="m 0,0 -6.166,-6.165 c -0.862,-0.862 -0.862,-2.26 0,-3.122 0.431,-0.432 0.996,-0.648 1.561,-0.648 0.565,0 1.13,0.216 1.561,0.648 l 6.166,6.165 C 3.984,-2.26 3.984,-0.862 3.122,0 2.26,0.862 0.862,0.862 0,0"
           style="fill:#3c3c3b;fill-opacity:1;fill-rule:nonzero;stroke:none"
           id="path1100" />
      </g>
      <g
         id="g1102"
         transform="translate(539.3799,2700.9072)">
        <path
           d="m 0,0 -2.464,-2.464 c -0.657,0.753 -1.418,1.416 -2.266,1.963 l -4.592,2.958 c -3.166,2.041 -5.056,5.508 -5.056,9.273 0,6.084 4.949,11.034 11.033,11.034 h 0.822 C 4.234,17.097 9.184,9.297 11.209,0.34 7.999,3.185 3.073,3.072 0,0 m -9.412,-9.412 c -5.106,-0.229 -9.873,-2.325 -13.509,-5.963 -2.622,-2.621 -4.663,-5.668 -6.062,-8.984 -1.4,3.316 -3.441,6.363 -6.062,8.984 -3.637,3.638 -8.404,5.734 -13.51,5.963 l -4.626,4.626 v 0.411 c 0,2.716 1.302,5.301 3.484,6.917 2.501,1.852 3.993,4.815 3.993,7.927 0,5.438 -4.424,9.863 -9.864,9.863 h -2.531 c 7.521,7.502 17.879,12.106 29.116,12.106 7.686,0 14.961,-2.152 21.197,-5.913 -6.36,-1.913 -11.007,-7.819 -11.007,-14.794 0,-5.273 2.647,-10.127 7.08,-12.985 l 4.591,-2.958 c 0.584,-0.376 1.097,-0.846 1.524,-1.386 z M -69.176,0.34 c 1.302,5.757 3.813,11.035 7.235,15.577 h 6.373 c 3.005,0 5.449,-2.444 5.449,-5.448 0,-1.72 -0.825,-3.357 -2.206,-4.379 -2.338,-1.732 -4.004,-4.2 -4.78,-6.952 L -57.967,0 c -3.072,3.072 -7.999,3.185 -11.209,0.34 m -8.567,40.908 c -0.049,0.635 -0.37,1.218 -0.88,1.6 -1.559,1.164 -2.453,2.945 -2.453,4.887 0,3.362 2.735,6.096 6.096,6.096 1.942,0 3.724,-0.894 4.888,-2.453 0.381,-0.51 0.964,-0.831 1.599,-0.879 4.453,-0.342 7.94,-4.111 7.94,-8.581 0,-4.747 -3.862,-8.609 -8.61,-8.609 -4.469,-10e-4 -8.238,3.487 -8.58,7.939 m 31.073,13.181 c 0,4.069 2.753,7.599 6.693,8.587 0.711,0.178 1.287,0.696 1.538,1.384 1.444,3.954 5.243,6.612 9.455,6.612 4.212,0 8.012,-2.658 9.456,-6.612 0.251,-0.688 0.827,-1.206 1.537,-1.384 3.941,-0.988 6.693,-4.518 6.693,-8.587 0,-4.881 -3.971,-8.852 -8.852,-8.852 -2.359,0 -4.556,0.913 -6.202,2.538 l 3.997,3.997 c 0.862,0.862 0.862,2.26 0,3.122 -0.862,0.862 -2.26,0.862 -3.122,0 l -1.299,-1.299 v 7.426 c 0,1.22 -0.989,2.208 -2.208,2.208 -1.219,0 -2.207,-0.988 -2.207,-2.208 v -9.653 l -3.517,3.517 c -0.862,0.861 -2.26,0.861 -3.122,0 -0.862,-0.862 -0.862,-2.26 0,-3.122 l 4.994,-4.995 c -1.447,-0.989 -3.166,-1.531 -4.981,-1.531 -4.881,0 -8.853,3.971 -8.853,8.852 m 57.195,-3.93 c 0.636,0.048 1.219,0.369 1.6,0.879 1.164,1.56 2.946,2.453 4.888,2.453 3.361,0 6.095,-2.734 6.095,-6.096 0,-1.942 -0.893,-3.723 -2.452,-4.887 -0.51,-0.382 -0.831,-0.965 -0.88,-1.6 -0.342,-4.452 -4.111,-7.94 -8.581,-7.94 -4.747,0 -8.61,3.862 -8.61,8.61 10e-4,4.47 3.488,8.239 7.94,8.581 M 24.842,20.485 c -1.709,1.438 -3.952,2.044 -6.153,1.661 -3.624,-0.631 -6.254,-3.758 -6.254,-7.437 v -4.34 C 9.804,16.056 6.004,21.191 1.227,25.416 l 3.918,4.973 c 1.809,-0.953 3.867,-1.496 6.051,-1.496 6.436,0 11.912,4.781 12.872,11.052 2.18,1.98 3.456,4.825 3.456,7.79 0,5.796 -4.715,10.511 -10.511,10.511 -2.966,0 -5.81,-1.276 -7.791,-3.456 C 2.952,53.83 -1.83,48.354 -1.83,41.918 c 0,-3.41 1.32,-6.517 3.472,-8.841 l -3.86,-4.899 c -7.16,5.19 -15.687,8.192 -24.558,8.621 v 6.126 c 1.981,-1.144 4.248,-1.764 6.626,-1.764 7.316,0 13.268,5.952 13.268,13.268 0,5.71 -3.62,10.714 -8.933,12.543 -2.337,5.1 -7.493,8.455 -13.169,8.455 -5.675,0 -10.831,-3.355 -13.168,-8.455 -5.313,-1.829 -8.933,-6.833 -8.933,-12.543 0,-7.316 5.952,-13.268 13.268,-13.268 2.377,0 4.645,0.62 6.626,1.764 v -6.126 c -8.87,-0.428 -17.399,-3.431 -24.558,-8.62 l -3.86,4.898 c 2.152,2.324 3.472,5.431 3.472,8.841 0,6.436 -4.782,11.913 -11.052,12.872 -1.981,2.18 -4.825,3.457 -7.791,3.457 -5.796,0 -10.511,-4.716 -10.511,-10.511 0,-2.966 1.276,-5.811 3.456,-7.791 0.96,-6.27 6.436,-11.052 12.872,-11.052 2.184,0 4.242,0.543 6.051,1.496 l 3.918,-4.973 C -63.97,21.192 -67.771,16.057 -70.402,10.37 v 4.339 c 0,3.679 -2.63,6.806 -6.255,7.437 -2.2,0.382 -4.443,-0.223 -6.152,-1.661 -1.709,-1.437 -2.689,-3.543 -2.689,-5.776 V 2.157 c 0,-9.769 3.804,-18.953 10.712,-25.861 l 13.19,-13.19 c 0.431,-0.431 0.996,-0.647 1.561,-0.647 0.565,0 1.13,0.216 1.561,0.647 0.862,0.862 0.862,2.26 0,3.123 l -13.191,13.189 c -6.073,6.074 -9.418,14.149 -9.418,22.739 v 12.552 c 0,0.927 0.407,1.801 1.116,2.397 0.71,0.597 1.64,0.848 2.554,0.69 1.504,-0.263 2.596,-1.561 2.596,-3.087 V 0.693 c 0,-4.506 1.755,-8.741 4.94,-11.927 l 11.974,-11.974 0.89,-0.89 c 0.862,-0.862 2.26,-0.862 3.122,0 0.862,0.863 0.862,2.26 0,3.122 L -66.417,-8.45 c -1.468,1.469 -1.468,3.859 0,5.328 1.469,1.469 3.859,1.469 5.328,0 l 10.038,-10.038 c 0.414,-0.414 0.976,-0.647 1.561,-0.647 4.277,0 8.298,-1.666 11.323,-4.69 4.499,-4.498 6.976,-10.48 6.976,-16.842 0,-1.219 0.989,-2.208 2.208,-2.208 1.219,0 2.207,0.989 2.207,2.208 0,6.362 2.478,12.344 6.977,16.842 3.024,3.024 7.045,4.69 11.322,4.69 0.586,0 1.148,0.233 1.561,0.647 L 3.122,-3.122 c 1.469,1.469 3.859,1.469 5.328,0 1.469,-1.469 1.469,-3.858 0,-5.327 L -4.076,-20.976 c -0.862,-0.862 -0.862,-2.259 0,-3.122 0.431,-0.43 0.996,-0.646 1.561,-0.646 0.565,0 1.13,0.216 1.561,0.646 l 0.89,0.89 11.974,11.974 c 3.186,3.186 4.94,7.421 4.94,11.927 v 14.016 c 0,1.526 1.092,2.825 2.596,3.086 0.913,0.159 1.844,-0.092 2.554,-0.689 0.709,-0.596 1.116,-1.47 1.116,-2.397 V 2.157 c 0,-5.319 -1.336,-10.604 -3.865,-15.284 -0.579,-1.073 -0.179,-2.412 0.894,-2.992 1.072,-0.578 2.412,-0.18 2.991,0.893 2.875,5.323 4.395,11.334 4.395,17.383 v 12.552 c 0,2.233 -0.98,4.339 -2.689,5.776"
           style="fill:#3c3c3b;fill-opacity:1;fill-rule:nonzero;stroke:none"
           id="path1104" />
      </g>
      <g
         id="g1106"
         transform="translate(554.6395,2680.9707)">
        <path
           d="m 0,0 c -0.583,0 -1.152,-0.234 -1.563,-0.645 -0.411,-0.41 -0.645,-0.98 -0.645,-1.562 0,-0.581 0.234,-1.148 0.645,-1.562 0.413,-0.41 0.98,-0.646 1.563,-0.646 0.581,0 1.148,0.236 1.561,0.646 0.41,0.414 0.647,0.981 0.647,1.562 0,0.582 -0.237,1.149 -0.647,1.562 C 1.148,-0.234 0.581,0 0,0"
           style="fill:#3c3c3b;fill-opacity:1;fill-rule:nonzero;stroke:none"
           id="path1108" />
      </g>
    </g>
  </g>
</svg>
