<?xml version="1.0" encoding="UTF-8" standalone="no"?>
<svg
   xmlns:dc="http://purl.org/dc/elements/1.1/"
   xmlns:cc="http://creativecommons.org/ns#"
   xmlns:rdf="http://www.w3.org/1999/02/22-rdf-syntax-ns#"
   xmlns:svg="http://www.w3.org/2000/svg"
   xmlns="http://www.w3.org/2000/svg"
   width="45.339565mm"
   height="35.328541mm"
   viewBox="0 0 45.339565 35.328541"
   version="1.1"
   id="svg1678">
  <defs
     id="defs1672" />
  <metadata
     id="metadata1675">
    <rdf:RDF>
      <cc:Work
         rdf:about="">
        <dc:format>image/svg+xml</dc:format>
        <dc:type
           rdf:resource="http://purl.org/dc/dcmitype/StillImage" />
        <dc:title></dc:title>
      </cc:Work>
    </rdf:RDF>
  </metadata>
  <g
     id="layer1"
     transform="translate(-71.068316,-260.52621)">
    <g
       id="g1639"
       transform="matrix(0.35277777,0,0,-0.35277777,-192.15149,1235.3947)">
      <g
         id="g1018"
         transform="translate(838.1822,2715.5449)">
        <path
           d="M 0,0 C 0,22.575 -16.391,41.311 -37.918,44.987 -59.446,41.311 -75.836,22.575 -75.836,0 c 0,-22.576 16.39,-41.312 37.918,-44.987 C -16.391,-41.312 0,-22.576 0,0"
           style="fill:#7ab6d9;fill-opacity:1;fill-rule:nonzero;stroke:none"
           id="path1020" />
      </g>
      <g
         id="g1022"
         transform="translate(855.8692,2740.6016)">
        <path
           d="m 0,0 h 3.699 c 2.441,0 4.42,-1.979 4.42,-4.419 0,-2.441 -1.979,-4.42 -4.42,-4.42 H 0 c -2.441,0 -4.419,1.979 -4.419,4.42 C -4.419,-1.979 -2.441,0 0,0"
           style="fill:#7ab6d9;fill-opacity:1;fill-rule:nonzero;stroke:none"
           id="path1024" />
      </g>
      <g
         id="g1026"
         transform="translate(873.95,2672.6152)">
        <path
           d="m 0,0 c 0.003,-3.537 -2.586,-6.542 -6.085,-7.063 -3.899,0.582 -6.589,4.213 -6.008,8.112 0.111,0.746 0.34,1.47 0.677,2.143 L -6.085,13.854 -0.754,3.192 C -0.257,2.202 0.001,1.108 0,0"
           style="fill:#7ab6d9;fill-opacity:1;fill-rule:nonzero;stroke:none"
           id="path1028" />
      </g>
      <g
         id="g1030"
         transform="translate(816.824,2721.4873)">
        <path
           d="m 0,0 c 0,-3.15 -2.553,-5.705 -5.704,-5.706 h -0.003 -26.629 c -2.102,-0.002 -3.803,-1.707 -3.802,-3.809 0.002,-2.098 1.703,-3.798 3.802,-3.8 h 1.9 c 3.152,0 5.707,-2.556 5.707,-5.707 0,-3.152 -2.555,-5.707 -5.707,-5.707 h -34.01 c -6.708,14.895 -4.959,32.237 4.588,45.492 l 40.835,0.163 c 2.102,0 3.805,-1.703 3.805,-3.805 0,-2.1 -1.703,-3.805 -3.805,-3.805 h -5.706 c -2.102,0 -3.805,-1.703 -3.805,-3.804 0,-2.102 1.703,-3.805 3.805,-3.805 H -5.707 C -2.555,5.707 0,3.152 0,0.001 Z"
           style="fill:#ffffff;fill-opacity:1;fill-rule:nonzero;stroke:none"
           id="path1032" />
      </g>
      <g
         id="g1034"
         transform="translate(839.0203,2707.9365)">
        <path
           d="m 0,0 c -1.304,-7.765 -4.604,-15.058 -9.576,-21.163 h -1.978 c -1.674,0 -3.032,1.356 -3.033,3.031 v 0.002 c 10e-4,1.675 -1.357,3.032 -3.032,3.032 h -0.017 l -2.66,-0.016 c -0.036,0 -0.069,-0.003 -0.105,-0.003 -2.044,0.003 -3.699,1.661 -3.698,3.704 0.001,2.1 -1.699,3.802 -3.798,3.804 h -0.006 c -2.101,0.002 -3.803,1.707 -3.801,3.808 0.002,2.099 1.703,3.799 3.801,3.801 z"
           style="fill:#ffffff;fill-opacity:1;fill-rule:nonzero;stroke:none"
           id="path1036" />
      </g>
      <g
         id="g1038"
         transform="translate(836.9654,2730.998)">
        <path
           d="m 0,0 h -11.079 c -1.853,0.001 -3.355,1.503 -3.356,3.355 0.001,2.349 -1.902,4.253 -4.25,4.254 h -0.003 -1.453 c -2.102,0 -3.805,1.704 -3.805,3.805 0,2.102 1.703,3.805 3.805,3.805 H -9.154 C -5.134,10.795 -2.024,5.624 0,0"
           style="fill:#ffffff;fill-opacity:1;fill-rule:nonzero;stroke:none"
           id="path1040" />
      </g>
      <g
         id="g1042"
         transform="translate(807.314,2683.208)">
        <path
           d="M 0,0 C 0,-2.103 -1.704,-3.807 -3.806,-3.807 H -4.35 c -1.799,0 -3.258,-1.457 -3.26,-3.256 0,-3.421 -2.75,-6.207 -6.17,-6.25 -5.618,0.049 -11.177,1.138 -16.399,3.211 -0.851,2.484 0.472,5.187 2.955,6.039 0.497,0.17 1.019,0.256 1.545,0.256 h 1.425 c 0.787,0.003 1.425,0.641 1.428,1.428 0,3.414 2.767,6.182 6.181,6.182 H -3.806 C -1.706,3.801 -0.004,2.1 0,0"
           style="fill:#ffffff;fill-opacity:1;fill-rule:nonzero;stroke:none"
           id="path1044" />
      </g>
      <g
         id="g1046"
         transform="translate(805.4083,2759.7622)">
        <path
           d="m 0,0 c -0.042,-3.422 -2.829,-6.174 -6.251,-6.173 h -11.816 c -2.627,-0.001 -4.756,2.128 -4.756,4.755 0,0.501 0.079,1 0.234,1.476 C -15.171,1.916 -7.408,1.896 0,0"
           style="fill:#ffffff;fill-opacity:1;fill-rule:nonzero;stroke:none"
           id="path1048" />
      </g>
      <g
         id="g1050"
         transform="translate(858.0789,2720.7148)">
        <path
           d="m 0,0 c 6.099,-0.008 11.042,-4.95 11.048,-11.049 v -8.839 H 2.21 v 8.839 c 0,1.221 -0.99,2.21 -2.21,2.21 h -16.357 c 0.091,1.211 0.138,2.434 0.138,3.669 -10e-4,1.727 -0.094,3.452 -0.279,5.17 z M -2.21,4.419 H -6.629 V 8.838 H -2.21 Z M -8.839,17.677 H 0 c 1.22,0 2.21,-0.99 2.21,-2.209 0,-1.221 -0.99,-2.21 -2.21,-2.21 h -8.839 c -1.22,0 -2.21,0.989 -2.21,2.21 0,1.219 0.99,2.209 2.21,2.209 M -20.972,-10.57 h -25.989 c -3.322,0 -6.014,-2.694 -6.014,-6.015 0,-3.321 2.692,-6.014 6.014,-6.014 0.88,-0.001 1.594,-0.714 1.595,-1.594 0,-3.265 2.646,-5.911 5.911,-5.911 0.045,0 0.09,0 0.136,10e-4 l 2.636,0.016 h 0.006 c 0.453,0 0.821,-0.368 0.822,-0.821 v -10e-4 c 10e-4,-1.945 1.08,-3.731 2.802,-4.636 -6.426,-6.581 -14.778,-10.949 -23.848,-12.474 0.486,1.085 0.737,2.26 0.736,3.448 0,0.58 0.47,1.05 1.05,1.05 h 0.546 c 3.322,-0.023 6.033,2.651 6.055,5.973 0.023,3.321 -2.652,6.032 -5.973,6.055 h -0.082 -12.841 c -4.329,-0.006 -7.946,-3.3 -8.355,-7.61 h -0.68 c -3.124,-0.003 -5.865,-2.085 -6.708,-5.093 -8.008,3.936 -14.62,10.228 -18.949,18.031 h 30.412 c 4.372,0.025 7.895,3.591 7.87,7.962 -0.025,4.336 -3.534,7.845 -7.87,7.87 h -1.902 c -0.881,0 -1.595,0.714 -1.595,1.595 0,0.881 0.714,1.595 1.595,1.595 h 26.631 c 4.371,0 7.916,3.544 7.916,7.916 0,4.373 -3.545,7.916 -7.916,7.916 h -19.023 c -0.881,0.012 -1.585,0.736 -1.573,1.617 0.011,0.864 0.709,1.561 1.573,1.573 h 5.707 c 3.321,0.004 6.011,2.699 6.008,6.02 -0.004,3.322 -2.699,6.012 -6.021,6.009 l -36.231,-0.215 c 5.116,5.752 11.665,10.045 18.98,12.443 0.705,-3.192 3.532,-5.467 6.802,-5.471 h 11.818 c 3.562,0.003 6.741,2.234 7.957,5.583 5.607,-1.783 10.794,-4.687 15.244,-8.535 h -5.535 c -3.321,0.022 -6.032,-2.652 -6.055,-5.974 -0.022,-3.321 2.653,-6.032 5.974,-6.054 h 0.082 1.452 c 1.129,-0.001 2.043,-0.916 2.044,-2.044 0.004,-3.073 2.493,-5.562 5.565,-5.565 h 9.488 c 0.616,-1.918 1.096,-3.877 1.437,-5.862 V 2.209 c 0,-0.241 0.04,-0.481 0.119,-0.71 0.617,-3.995 0.676,-8.057 0.176,-12.068 z m -8.759,-21.167 c -0.037,0.002 -0.073,0.006 -0.111,0.006 h -0.773 c -0.454,0 -0.822,0.368 -0.823,0.822 10e-4,2.894 -2.345,5.242 -5.239,5.242 h -0.031 l -2.659,-0.015 h -0.048 c -0.823,-0.023 -1.509,0.626 -1.532,1.45 0,0.014 0,0.028 0,0.042 -0.004,3.319 -2.695,6.009 -6.014,6.013 -0.881,0 -1.595,0.714 -1.595,1.595 0,0.881 0.714,1.595 1.595,1.595 h 25.204 c -1.417,-6.094 -4.138,-11.809 -7.975,-16.75 z m -30.853,-12.834 c -0.004,-2.189 -1.746,-3.978 -3.934,-4.038 -4.938,0.044 -9.831,0.932 -14.469,2.63 0.048,1.369 1.171,2.456 2.541,2.458 h 1.427 c 2.008,10e-4 3.634,1.628 3.637,3.635 0.002,2.194 1.779,3.97 3.972,3.973 h 12.84 c 0.881,0.012 1.604,-0.692 1.616,-1.573 0.011,-0.881 -0.693,-1.605 -1.574,-1.617 h -0.042 -0.546 c -3.019,-0.002 -5.465,-2.449 -5.468,-5.467 z m -43.647,22.815 c -5.588,13.51 -3.994,28.926 4.24,41.007 l 39.714,0.236 c 0.881,0 1.595,-0.714 1.595,-1.594 0,-0.881 -0.714,-1.595 -1.595,-1.595 h -5.706 c -3.322,-0.024 -5.996,-2.734 -5.974,-6.056 0.023,-3.289 2.684,-5.95 5.974,-5.972 h 19.022 c 1.931,0.001 3.498,-1.564 3.499,-3.496 0.002,-1.93 -1.563,-3.497 -3.494,-3.499 h -0.005 -26.631 c -3.322,0 -6.015,-2.692 -6.015,-6.013 0,-3.323 2.693,-6.015 6.015,-6.015 h 1.902 c 1.931,-0.018 3.483,-1.597 3.466,-3.527 -0.017,-1.907 -1.559,-3.45 -3.466,-3.467 h -32.338 c -0.068,0.001 -0.136,-0.003 -0.203,-0.009 m 40.15,60.029 c 2.956,10e-4 5.904,-0.299 8.799,-0.896 -0.672,-1.399 -2.086,-2.291 -3.639,-2.293 h -11.817 c -1.274,0.002 -2.351,0.946 -2.521,2.21 3.016,0.651 6.093,0.979 9.178,0.979 m 32.759,-14.94 c 2.833,-3.25 5.168,-6.902 6.928,-10.839 h -7.799 c -0.632,0 -1.145,0.513 -1.145,1.146 -0.004,3.568 -2.895,6.459 -6.464,6.463 h -1.452 c -0.881,-0.012 -1.605,0.693 -1.616,1.573 -0.012,0.881 0.693,1.605 1.573,1.616 0.015,0 0.028,0 0.042,0 h 9.511 c 0.142,0 0.283,0.014 0.421,0.041 z m -21.424,18 c -3.711,0.904 -7.516,1.36 -11.335,1.359 -26.392,0 -47.863,-21.471 -47.863,-47.862 0,-26.147 21.077,-47.462 47.133,-47.853 0.061,-0.005 0.122,-0.01 0.183,-0.01 0.062,0 0.122,0.004 0.183,0.005 0.122,0 0.242,-0.005 0.364,-0.005 23.635,0 43.321,17.221 47.177,39.774 H -2.21 v -8.839 c 0,-1.219 0.99,-2.209 2.21,-2.209 h 13.258 c 1.221,0 2.21,0.99 2.21,2.209 v 11.049 C 15.458,-3.364 9.814,3.151 2.21,4.259 v 4.96 C 5.661,10.44 7.468,14.229 6.246,17.68 5.309,20.326 2.807,22.095 0,22.097 h -8.839 c -3.661,-0.002 -6.628,-2.971 -6.626,-6.632 10e-4,-2.808 1.77,-5.31 4.416,-6.246 v -4.8 h -6.135 C -20.839,22.108 -34.11,36.25 -51.532,41.02 Z"
           style="fill:#3c3c3b;fill-opacity:1;fill-rule:nonzero;stroke:none"
           id="path1052" />
      </g>
      <g
         id="g1054"
         transform="translate(869.4095,2669.8779)">
        <path
           d="m 0,0 c -0.914,-1.373 -2.455,-2.198 -4.104,-2.196 h -1.194 c -2.724,0 -4.933,2.208 -4.933,4.931 0,0.767 0.178,1.522 0.521,2.207 L -4.701,14.96 0.307,4.942 C 1.096,3.358 0.979,1.474 0,0 m -4.701,22.11 c -0.837,0 -1.602,-0.472 -1.977,-1.221 l -6.985,-13.97 c -2.31,-4.619 -0.438,-10.237 4.182,-12.547 1.298,-0.649 2.731,-0.987 4.183,-0.987 h 1.194 C 1.06,-6.616 5.247,-2.429 5.247,2.736 5.247,4.187 4.909,5.62 4.26,6.919 L -2.725,20.89 c -0.374,0.748 -1.14,1.22 -1.976,1.22"
           style="fill:#3c3c3b;fill-opacity:1;fill-rule:nonzero;stroke:none"
           id="path1056" />
      </g>
    </g>
  </g>
</svg>
