<?xml version="1.0" encoding="utf-8"?>
<!-- Generator: Adobe Illustrator 24.3.0, SVG Export Plug-In . SVG Version: 6.00 Build 0)  -->
<svg version="1.1" xmlns="http://www.w3.org/2000/svg" xmlns:xlink="http://www.w3.org/1999/xlink" x="0px" y="0px"
	 viewBox="0 0 566.93 566.93" style="enable-background:new 0 0 566.93 566.93;" xml:space="preserve">
<style type="text/css">
	.st0{fill:#D1E4EE;}
	.st1{fill:none;stroke:#1979A8;stroke-miterlimit:10;}
	.st2{display:none;}
	.st3{display:inline;}
	.st4{fill:#06B2B1;}
	.st5{display:inline;fill:#06B2B1;}
	.st6{fill:#8CBCD3;}
	.st7{fill:#529ABD;}
	.st8{display:inline;fill:#3086B0;}
	.st9{display:inline;fill:#1979A8;}
</style>
<g id="_x30__x25_">
	<path class="st0" d="M366.67,289.18c-4.46,5.08-6.54,11.53-11.78,16.18c-6.45,5.73-14.91,8.52-22.46,12.7
		c-20.17,11.15-15.38,16.08-57.35,31.77c-7.27,2.72-14.69,5.46-22.45,5.82c-7.76,0.36-16.05-2.05-20.94-8.08
		c-5.92-7.28-5.64-17.88-10.32-26.01c-5.67-9.87-22.33-13.12-19.48-26.53c2.61-12.26,16.45-18.01,23.26-27.71
		c10.08-14.36,2.46-20.97,30.55-37.63c33.39-19.8,58.09-31.39,96.98,1.05c9.2,7.69,6.58,11.16,7.4,17.59
		c1.7,13.32,17.84,10.99,17.72,25.57C377.74,282.17,371.24,283.98,366.67,289.18z"/>
	<path class="st1" d="M466.05,219.93c-13.4-6.59-7.45-23.26,3.93-26.26c11.38-3.01,18.18-7.73,34.07-20.9
		c15.83-13.17,10.45-32.42,11.38-37.57c1.01-5.16,5.23-5.51,0.43-12.18c-4.8-6.65-6.45-2.72-11.67-3.36
		c-5.15-0.72-21.76-11.89-39.22-1.01c-17.53,10.95-24.11,15.96-30.56,25.77c-6.45,9.81-24.12,10.3-26.2-4.51
		c-2.08-14.74-10.24-73.01-66.34-86.26c-56.19-13.23-77.17,2.52-105.72,22.05c-28.63,19.55,17.53,15.54,76.01,31.07
		c33,8.73,13.89,12.88-3.65,13.38c-23.55,0.57-125.11,15.01-170.91,144.35c-1.3,3.65-5.4,5.41-8.98,3.93
		c-43.17-17.97-92.78,26.58-88.02,35.17c15.88,28.52,62.94,12.6,83.65,29.69c1.61,1.33,2.81,3.11,3.45,5.1
		c2.61,8.2,4.24,24.79,23.19,48.24c18.76,29.13,36.09,33.78,41.01,39.45c13.25,24.77-19.68,66.49,3.16,91.4
		c6.67,7.29,64.55-25.86,61.07-72.51c-0.28-3.87,2.69-7.2,6.56-7.29c137.18-2.8,182.82-94.68,190.76-116.89
		c5.94-16.46,15.89-33.35,13.89,0.79c-3.66,60.34-21.97,102.92,5.58,81.95c27.56-21.04,49.03-36.01,54.12-93.47
		C532.1,252.58,479.43,226.52,466.05,219.93z"/>
	<path class="st1" d="M481.94,378.07c-22.56,3.66-8.73-46.72-7.58-56.18c0.69-5.7,1.37-11.57-0.18-17.1
		c-6.96-24.96-30.41,0.59-34.45,13.02c-2.86,8.81-3.98,18.28-8.41,26.43c-10.83,19.94-36.82,25.23-54.24,39.79
		c-9.44,7.88-16.75,18.82-28.09,23.58c-9.52,3.99-20.4,2.93-30.38,5.54c-10.54,2.74-19.73,9.44-30.31,11.97
		c-8.03,1.93-16.44,1.33-24.6,2.59c-15.42,2.39-27.17,17.66-28.76,33.08c-0.67,6.47,1.27,13.22-0.73,19.41
		c-2.64,8.15-12.72,12.96-20.72,9.9c-20.36-7.78-7.23-43.2-11.76-58.99c-7.14-24.85-36.17-36.34-47.82-58.64
		c-12.65-24.21-11.72-53.38-45.18-58.8c-8.02-1.3-16.32-0.44-24.29-2.06c-26.09-5.3-21.33-31.79,0.49-35.57
		c10.11-1.75,20.33,1.4,30.47,3c13.57,2.15,32.26-4.77,37.29-18.56c6.24-17.12,2.79-34.08,17.51-48.1
		c7.03-6.69,16.33-10.65,23.14-17.55c6.58-6.66,10.46-15.64,17.17-22.17c9.9-9.64,24.43-12.6,36.24-19.81
		c8.62-5.25,15.91-12.83,25.36-16.41c18.21-6.9,40.72,2.43,57.12-8.05c22.05-14.1-2.04-23.71-14.39-29.32
		c-24.16-11-41.31-5.87-51.19-9.91c-9.04-3.69-15.2-17.24,5.49-22.92c70.08-19.24,112.65,15,123.63,53.51
		c6.86,24.01-0.14,22.76-3.26,33.62c-5.63,19.62,25.77,21.4,43.35,8.17c8.6-6.47,15.7-14.98,25.16-20.09
		c22.63-12.25,42.13,6.22,29.5,27.35c-4.24,7.09-11.17,12.82-17.65,17.79c-9.48,7.28-23.95,8.31-27.69,21.85
		c-2.59,9.37,5.1,13.59,11.61,18.07c8.17,5.64,14.81,13.14,23.73,18.06c4.48,2.47,9.25,4.44,13.48,7.33
		C531.55,279.53,506.74,374.04,481.94,378.07z"/>
	<path class="st1" d="M485.2,276.81c-3.71,3.32-15.98,1.08-22.98,2.76c-9.44,2.25-31.2,15.21-41.11,37.84
		c-4.57,10.44-6.91,22.49-15.27,30.23c-6.62,6.13-15.95,8.44-23.23,13.79c-7.97,5.86-12.98,14.98-20.7,21.14
		c-49.62,39.62-76.36,14.57-121.02,46.95c-7.09,5.12-12.78,16.92-20.57,20.18c-4.39,1.85-14.57-0.45-8.8-16.17
		c6.43-17.51-11.63-20.79-20.28-33.03c-6.19-8.78-6.12-21.13-13.32-29.09c-3.81-4.23-9.24-6.67-13.45-10.5
		c-12.4-11.29-12.51-32.67-26.38-42.1c-6.84-4.66-16.9-6.42-19.54-14.27c-2.01-5.97,1.81-12.54,6.92-16.24
		c9.09-6.59,24.24-7.49,33.47-22.31c6.77-10.87,11.39-47.18,53.36-71.57c9.77-5.68,18.82-9.57,27.71-16.61
		c9.98-7.91,19.62-17.49,31.35-22.75c13.46-6.02,28.82-5.41,43.36-7.88c37.51-6.37,29.55-26.6,44.76-36.77
		c5.06-3.37,9.15-3.26,11.71,2.32c5.36,11.68-3.12,24.78-4.36,37.58c-0.98,10.15,3.5,21.19,12.49,26
		c9.01,4.81,19.94,2.62,30.17,2.91c10.21,0.3,22.36,5.65,22.86,15.86c0.31,6.26-4.05,11.82-4.96,18.03
		c-1.46,10.06,6.48,19.26,15.45,24.07c8.95,4.82,19.2,6.79,28.22,11.49C488.45,257.81,489.17,273.27,485.2,276.81z"/>
	<path class="st1" d="M377.88,325.46c-5.46,8.62-10.19,17.88-17.33,25.16c-19.61,19.95-79.21,37.04-107.37,43.14
		c-39.54,8.57-40.25-12.07-45.45-25.74c-8.49-22.28-30.08-35-35.29-59.02c-6.11-28.14,13.03-37.18,18.92-45.39
		c4.91-6.87,6-15.67,8.41-23.78c5.82-19.51,24.17-22.07,40.25-30.18c10.89-5.48,18.63-16.22,29.42-21.41
		c12.88-6.19,29.71-8.36,43.49-12.25c26.88-7.57,35.7,8.81,53.02,22.7c6.61,5.29,13.66,4.55,20.82,8.3
		c13.93,7.28,8.91,28.46,17.63,39.96c5.52,7.28,16.15,11.1,17.98,20.06C425.7,283.37,401.9,287.51,377.88,325.46z"/>
	<path class="st1" d="M366.67,289.18c-4.46,5.08-6.54,11.53-11.78,16.18c-6.45,5.73-14.91,8.52-22.46,12.7
		c-20.17,11.15-15.38,16.08-57.35,31.77c-7.27,2.72-14.69,5.46-22.45,5.82c-7.76,0.36-16.05-2.05-20.94-8.08
		c-5.92-7.28-5.64-17.88-10.32-26.01c-5.67-9.87-22.33-13.12-19.48-26.53c2.61-12.26,16.45-18.01,23.26-27.71
		c10.08-14.36,2.46-20.97,30.55-37.63c33.39-19.8,58.09-31.39,96.98,1.05c9.2,7.69,6.58,11.16,7.4,17.59
		c1.7,13.32,17.84,10.99,17.72,25.57C377.74,282.17,371.24,283.98,366.67,289.18z"/>
</g>
<g id="Residuos_1_1_" class="st2">
	<g class="st3">
		<path class="st4" d="M354.23,295.59c-0.96-1.77-2.81-3.01-4.97-3.09c-3.25-0.12-5.99,2.42-6.11,5.67
			c-0.08,2.1,0.95,3.98,2.57,5.09c-1.7,0.98-2.87,2.78-2.94,4.88c-0.08,2.1,0.95,3.99,2.57,5.09c-1.7,0.98-2.87,2.79-2.94,4.89
			c-0.12,3.25,2.42,5.99,5.67,6.11c2.16,0.08,4.09-1.01,5.18-2.71c0.96,1.77,2.81,3.01,4.96,3.09c3.25,0.12,5.99-2.42,6.11-5.67
			c0.08-2.1-0.95-3.99-2.57-5.09c1.7-0.98,2.87-2.78,2.94-4.88c0.08-2.1-0.95-3.98-2.57-5.09c1.7-0.98,2.87-2.78,2.94-4.88
			c0.12-3.25-2.42-5.99-5.67-6.11C357.25,292.8,355.32,293.89,354.23,295.59z M362.15,318.86c-0.08,2.05-1.81,3.65-3.86,3.58
			c-2.05-0.08-3.65-1.81-3.58-3.86c0.08-2.05,1.81-3.65,3.86-3.58C360.63,315.08,362.23,316.81,362.15,318.86z M352.01,318.48
			c-0.08,2.05-1.81,3.65-3.86,3.58c-2.05-0.08-3.65-1.81-3.58-3.86c0.08-2.05,1.81-3.65,3.86-3.58
			C350.48,314.7,352.08,316.42,352.01,318.48z M362.53,308.88c-0.08,2.05-1.81,3.65-3.86,3.58c-2.05-0.08-3.65-1.81-3.58-3.86
			c0.08-2.05,1.81-3.65,3.86-3.58C361,305.1,362.61,306.83,362.53,308.88z M352.38,308.5c-0.08,2.05-1.81,3.65-3.86,3.58
			c-2.05-0.08-3.65-1.81-3.58-3.86c0.08-2.05,1.81-3.65,3.86-3.58C350.85,304.72,352.46,306.45,352.38,308.5z M345.32,298.25
			c0.08-2.05,1.81-3.65,3.86-3.58c2.05,0.08,3.65,1.81,3.58,3.86c-0.08,2.05-1.81,3.65-3.86,3.58
			C346.85,302.03,345.24,300.3,345.32,298.25z M362.9,298.91c-0.08,2.05-1.81,3.65-3.86,3.58c-2.05-0.08-3.65-1.81-3.58-3.86
			c0.08-2.05,1.81-3.65,3.86-3.58C361.38,295.13,362.98,296.86,362.9,298.91z"/>
	</g>
	<path class="st5" d="M207.62,295.1l-2.14,3.13c-0.06,0.09-0.04,0.22,0.05,0.29l0,0c0.09,0.06,0.22,0.04,0.29-0.05l2.14-3.13
		l0.51,0.35l-2.14,3.13c-0.06,0.09-0.04,0.22,0.05,0.29l0,0c0.09,0.06,0.22,0.04,0.29-0.05l2.14-3.13l0.51,0.35l-2.14,3.13
		c-0.06,0.09-0.04,0.22,0.05,0.29l0,0c0.09,0.06,0.22,0.04,0.29-0.05l2.14-3.13l0.52,0.35c-0.57,0.83-2.26,3.32-3.17,4.61
		c-0.31,0.44-0.73,0.65-1.17,0.67c-0.29,0.02-0.56,0.16-0.71,0.4l-6.99,11.28c-0.46,0.74-1.43,0.94-2.15,0.45l-0.03-0.02
		c-0.71-0.49-0.87-1.47-0.35-2.16l8-10.59c0.17-0.23,0.21-0.53,0.12-0.81c-0.13-0.42-0.1-0.89,0.21-1.34
		c0.88-1.33,2.58-3.79,3.15-4.62L207.62,295.1z"/>
	<path class="st5" d="M340.64,215.45c2.38,0.11,4.24,1.57,4.16,3.27c-0.08,1.7-2.07,2.98-4.44,2.87c-1.7-0.08-3.13-0.85-3.79-1.9
		c-0.18-0.28-0.47-0.47-0.81-0.47l-12.21,0c-0.84,0-1.51-0.7-1.47-1.54l0-0.03c0.04-0.84,0.77-1.47,1.6-1.4l12.15,1.12
		c0.33,0.03,0.65-0.12,0.85-0.39C337.45,216.01,338.95,215.37,340.64,215.45z"/>
	<path class="st5" d="M271.69,360.06l-8.13-11.19c-0.69-0.94-1.91-1.33-3.01-0.95l-0.1,0.03l-0.75-2.18
		c-0.11-0.32-0.46-0.5-0.79-0.39l-0.75,0.26l-0.59-1.72l5.37-1.85c0.06-0.02,0.09-0.09,0.07-0.15l-0.01-0.01
		c-0.24-0.71-1.02-1.09-1.73-0.84l-7.64,2.62c-0.2,0.07-0.31,0.29-0.24,0.49l0.23,0.68c0.07,0.2,0.29,0.31,0.49,0.24l1.65-0.57
		l0.59,1.72l-0.75,0.26c-0.32,0.11-0.5,0.46-0.39,0.79l0.75,2.18l-0.1,0.03c-1.1,0.38-1.83,1.43-1.79,2.6l0.46,13.82
		c0.11,3.26,3.17,5.75,6.33,4.94c0.14-0.04,0.28-0.08,0.42-0.13l8.02-2.75c0.14-0.05,0.28-0.1,0.41-0.16
		C272.72,366.54,273.61,362.7,271.69,360.06z"/>
	<path class="st5" d="M366.73,272.6c-0.15,0.02-0.29-0.1-0.31-0.25l-0.05-0.46c-0.15-1.5,0.04-3.01,0.58-4.42l1.86-4.95
		c0.07-0.19,0.24-0.32,0.44-0.34l0.21-0.02l-0.03-0.31l-0.07,0.01c-0.08,0.01-0.16-0.05-0.16-0.13l-0.09-0.91
		c-0.03-0.27,0.17-0.51,0.44-0.54l2.05-0.21c0.27-0.03,0.51,0.17,0.54,0.44l0.09,0.91c0.01,0.08-0.05,0.16-0.13,0.16l-0.07,0.01
		l0.03,0.31l0.26-0.03c0.2-0.02,0.4,0.07,0.5,0.25l2.82,4.48c0.8,1.27,1.3,2.71,1.45,4.21l0.05,0.46c0.02,0.15-0.1,0.29-0.25,0.3
		l0,0l0.26,2.58h0c0.15-0.02,0.29,0.1,0.3,0.25l0.13,1.31c0.02,0.15-0.1,0.29-0.25,0.3h0l0.26,2.58l0,0c0.15-0.02,0.29,0.1,0.3,0.25
		l0.13,1.3c0.02,0.15-0.1,0.29-0.25,0.3h0l0.26,2.58l0,0c0.15-0.02,0.29,0.1,0.3,0.25l0.48,4.75c0.12,1.2-0.75,2.27-1.95,2.4
		l-6.36,0.65c-1.2,0.12-2.27-0.75-2.39-1.95l-0.48-4.75c-0.02-0.15,0.1-0.29,0.25-0.31h0l-0.26-2.58h0
		c-0.15,0.02-0.29-0.1-0.31-0.25l-0.13-1.3c-0.02-0.15,0.1-0.29,0.25-0.31h0l-0.26-2.58l0,0c-0.15,0.02-0.29-0.1-0.31-0.25
		l-0.13-1.3c-0.02-0.15,0.1-0.29,0.25-0.31h0L366.73,272.6L366.73,272.6z"/>
	<path class="st5" d="M255.23,237.91l-3.73-1.81c-0.11-0.05-0.25-0.01-0.3,0.1l0,0c-0.05,0.11-0.01,0.25,0.1,0.3l3.73,1.81
		l-0.3,0.61l-3.73-1.81c-0.11-0.05-0.25-0.01-0.3,0.1l0,0c-0.05,0.11-0.01,0.25,0.1,0.3l3.73,1.81l-0.3,0.61l-3.73-1.81
		c-0.11-0.05-0.25-0.01-0.3,0.1l0,0c-0.05,0.11-0.01,0.25,0.1,0.3l3.73,1.81l-0.3,0.62c-1-0.48-3.96-1.91-5.5-2.68
		c-0.53-0.27-0.82-0.69-0.92-1.16c-0.07-0.31-0.26-0.58-0.55-0.7l-13.35-5.73c-0.87-0.37-1.25-1.4-0.84-2.25l0.02-0.03
		c0.41-0.85,1.45-1.19,2.29-0.74l12.77,6.93c0.28,0.15,0.61,0.14,0.89,0c0.43-0.21,0.94-0.25,1.48,0c1.58,0.74,4.52,2.17,5.51,2.66
		L255.23,237.91z"/>
</g>
<g id="_x32_5_x25_">
	<path class="st6" d="M422.36,267.01c-1.83-8.96-12.46-12.78-17.98-20.06c-8.72-11.5-3.71-32.68-17.63-39.96
		c-7.16-3.75-14.21-3-20.82-8.3c-17.31-13.89-26.13-30.28-53.02-22.71c-13.78,3.89-30.61,6.06-43.49,12.25
		c-10.79,5.19-18.53,15.93-29.42,21.41c-16.08,8.11-34.43,10.67-40.25,30.18c-2.41,8.11-3.5,16.91-8.41,23.78
		c-5.89,8.21-25.03,17.24-18.92,45.39c5.22,24.02,26.8,36.74,35.29,59.02c5.2,13.67,5.92,34.31,45.45,25.74
		c28.16-6.1,87.76-23.2,107.37-43.14c7.15-7.28,11.87-16.54,17.33-25.16C401.9,287.51,425.7,283.37,422.36,267.01z M366.67,289.18
		c-4.46,5.08-6.54,11.53-11.78,16.18c-6.45,5.73-14.91,8.52-22.46,12.7c-20.17,11.15-15.38,16.08-57.35,31.77
		c-7.27,2.72-14.69,5.46-22.45,5.82c-7.76,0.36-16.05-2.05-20.94-8.08c-5.92-7.28-5.64-17.88-10.32-26.01
		c-5.67-9.87-22.33-13.12-19.48-26.53c2.61-12.26,16.45-18.01,23.26-27.71c10.08-14.36,2.46-20.97,30.55-37.63
		c33.38-19.8,58.09-31.39,96.98,1.05c9.2,7.69,6.58,11.16,7.4,17.59c1.7,13.32,17.84,10.99,17.72,25.57
		C377.74,282.17,371.24,283.98,366.67,289.18z"/>
</g>
<g id="Residuos_2_1_" class="st2">
	<path class="st5" d="M317.29,360.71l20.39-2.29c0.34-0.04,0.65,0.21,0.69,0.55l0,0.01c0.04,0.34-0.21,0.65-0.55,0.69l-1.92,0.22
		l-0.73,16.94c-0.04,1.02-0.82,1.86-1.84,1.97l-7.28,0.82c-1.01,0.11-1.96-0.53-2.23-1.51l-4.46-16.36l-1.92,0.22
		c-0.34,0.04-0.65-0.21-0.69-0.55l0-0.01C316.7,361.06,316.95,360.75,317.29,360.71z"/>
	<path class="st5" d="M181.47,306.75l-8.11,8.02c-0.68,0.68-1.73,0.83-2.58,0.37l-0.07-0.04l-0.9,1.68
		c-0.13,0.25-0.44,0.34-0.69,0.21l-0.58-0.31l-0.71,1.32l4.13,2.22c0.05,0.03,0.06,0.09,0.04,0.13l-0.01,0.01
		c-0.29,0.55-0.97,0.75-1.52,0.46l-5.87-3.15c-0.16-0.08-0.21-0.28-0.13-0.43l0.28-0.52c0.08-0.16,0.28-0.21,0.43-0.13l1.27,0.68
		l0.71-1.32l-0.58-0.31c-0.25-0.13-0.34-0.44-0.21-0.69l0.9-1.68l-0.07-0.04c-0.85-0.46-1.3-1.41-1.11-2.36l2.21-11.19
		c0.52-2.64,3.34-4.25,5.81-3.18c0.11,0.05,0.22,0.1,0.33,0.16l6.16,3.31c0.11,0.06,0.21,0.12,0.31,0.19
		C183.17,301.61,183.38,304.86,181.47,306.75z"/>
	<path class="st5" d="M182.69,336.26c-0.61-0.2-1.35,0.21-1.91,0.61c-0.94,0.67-2.23,1.51-1.23,2.64c0.75,0.84,2.46,0.73,2.78,2
		c0.17,0.66-0.25,1.35-0.11,2.01c0.18,0.85,1.18,1.25,2.04,1.34c0.87,0.09,1.81,0.03,2.53,0.53c1.18,0.83,1.11,2.71,2.2,3.65
		c0.97,0.84,2.47,0.63,3.61,1.23c1.22,0.63,1.79,2.03,2.57,3.16c0.78,1.13,2.28,2.11,3.46,1.4c0.93-0.56,1.23-1.95,2.27-2.25
		c0.55-0.16,1.26,0.02,1.63-0.42c0.26-0.3,0.21-0.75,0.14-1.15c-0.23-1.38-0.46-2.78-1-4.08c-0.53-1.3-1.4-2.5-2.63-3.18
		c-0.9-0.5-1.96-0.69-2.82-1.24c-1.84-1.17-2.34-3.47-3.54-5.15c-1.15-1.62-3.73-3.04-5.53-3.81c-0.53,0.87-0.77,1.9-0.68,2.92
		c-0.59-0.4-1.18-0.8-1.77-1.2c-0.66,0.07-0.44,1.45-1.11,1.49c-0.27,0.01-0.46-0.24-0.69-0.38
		C182.86,336.33,182.77,336.29,182.69,336.26z"/>
	<path class="st5" d="M363.53,207.46c-0.81,0.21-1.34,1.17-1.68,2c-0.57,1.39-1.41,3.22,0.48,3.77c1.42,0.41,3.22-0.9,4.46,0.27
		c0.64,0.61,0.66,1.66,1.28,2.3c0.79,0.82,2.17,0.56,3.19,0.06c1.02-0.5,2.03-1.22,3.16-1.17c1.88,0.09,3.11,2.22,4.97,2.51
		c1.66,0.26,3.17-1.02,4.84-1.16c1.79-0.15,3.38,1,5.03,1.7c1.65,0.7,3.99,0.74,4.8-0.86c0.64-1.26,0-3.01,0.95-4.06
		c0.5-0.56,1.41-0.85,1.51-1.59c0.07-0.51-0.29-0.98-0.64-1.36c-1.21-1.37-2.44-2.75-3.93-3.81c-1.49-1.06-3.29-1.79-5.11-1.69
		c-1.34,0.08-2.64,0.6-3.98,0.59c-2.84-0.02-4.99-2.21-7.48-3.23c-2.4-0.99-6.24-0.77-8.75-0.37c0.02,1.33,0.47,2.64,1.27,3.7
		c-0.93-0.03-1.86-0.06-2.78-0.1c-0.68,0.53,0.52,1.91-0.19,2.41c-0.29,0.2-0.68,0.06-1.03,0.05
		C363.77,207.41,363.65,207.43,363.53,207.46z"/>
	<path class="st5" d="M239.96,391.25c0.19,0.14,0.23,0.41,0.1,0.61l6.45,4.31c0.13-0.19,0.4-0.25,0.6-0.14l2.45,1.42
		c0.42,0.24,0.55,0.79,0.28,1.19l-0.01,0.02c-0.27,0.4-0.82,0.5-1.21,0.2l-2.25-1.72c-0.19-0.14-0.23-0.41-0.1-0.61l-6.45-4.31
		c-0.13,0.19-0.4,0.26-0.6,0.14l-2.45-1.42c-0.42-0.24-0.55-0.79-0.28-1.19l0.01-0.02c0.27-0.4,0.82-0.5,1.21-0.2L239.96,391.25z"/>
	<path class="st5" d="M188.12,268.84c0.17,0.13,0.21,0.36,0.09,0.54l5.73,3.83c0.12-0.17,0.35-0.23,0.53-0.12l2.18,1.26
		c0.37,0.22,0.48,0.7,0.25,1.06l-0.01,0.01c-0.24,0.36-0.73,0.44-1.07,0.18l-2-1.53c-0.17-0.13-0.21-0.36-0.09-0.54l-5.73-3.83
		c-0.12,0.17-0.35,0.23-0.53,0.12l-2.18-1.26c-0.37-0.22-0.48-0.7-0.25-1.06l0.01-0.01c0.24-0.36,0.73-0.44,1.07-0.18L188.12,268.84
		z"/>
	<path class="st5" d="M306.45,193.19c3.72-4.47,2.96-7.61,3.35-10.87c0.41-3.41,0-6.15,0.16-9.59c0.16-3.52,0.95-6.97,1.13-10.49
		c0.06-1.19-0.04-2.44-0.65-3.46c-0.58-0.97-1.56-1.62-2.52-2.21c-7.15-4.42-9.61-5.64-17.94-6.74c-1.44-0.19-3.28,0.59-4.6,1.13
		c-0.54,0.22-1.09,0.48-1.47,0.92c-0.36,0.41-0.54,0.95-0.7,1.47c-0.61,1.94-1.11,3.91-1.5,5.9c-1.33,6.78-2.11,13.72-2.93,20.61
		c-0.46,3.94-1.46,10.83,3.36,12.59c2.93,1.07,4.97-0.91,4.99-4.13c0.02-5.64-0.81-10.43,6.51-8.98c2.19,0.44,4.29,0.42,5.92,2.14
		c2.3,2.42,1.47,6.67,1.75,9.54C301.58,193.72,304.39,195.67,306.45,193.19z M282.82,188.33c-0.71,0.03-1.73-1.22-1.98-1.79
		c-0.99-2.24-0.06-5.52,1.09-7.53c0.44-0.77,0.87-0.73,1.31-0.34c1.56,1.37,0.92,3.5,0.71,5.27c-0.01,0.07-0.01,0.17-0.02,0.27
		C283.89,185.39,284.1,188.28,282.82,188.33z M307.39,185.66c0.05,1.26-0.84,3.95-2.5,3.75c-0.46-0.06-0.88-0.38-1.06-0.81
		c-0.1-0.24-0.12-0.51-0.15-0.77c-0.11-1.29-0.84-6.31,0.93-6.88c0.27-0.09,0.57-0.03,0.84,0.08c1.7,0.66,1.86,2.64,1.92,4.25
		C307.38,185.41,307.38,185.53,307.39,185.66z"/>
</g>
<g id="_x35_0_x25_">
	<path class="st7" d="M471.06,248.69c-9.01-4.71-19.26-6.67-28.22-11.49c-8.96-4.81-16.91-14.01-15.45-24.07
		c0.91-6.21,5.28-11.77,4.96-18.03c-0.5-10.21-12.65-15.56-22.86-15.86c-10.22-0.29-21.15,1.9-30.17-2.91
		c-8.99-4.81-13.47-15.85-12.49-26c1.23-12.8,9.72-25.9,4.36-37.58c-2.56-5.58-6.65-5.69-11.71-2.32
		c-15.21,10.16-7.25,30.39-44.76,36.77c-14.54,2.47-29.9,1.86-43.36,7.88c-11.73,5.26-21.37,14.84-31.35,22.75
		c-8.89,7.04-17.94,10.93-27.71,16.61c-41.97,24.39-46.59,60.7-53.36,71.57c-9.23,14.82-24.38,15.73-33.47,22.31
		c-5.11,3.7-8.94,10.27-6.92,16.24c2.64,7.84,12.7,9.61,19.54,14.27c13.86,9.43,13.98,30.81,26.38,42.1
		c4.21,3.83,9.63,6.27,13.45,10.5c7.2,7.96,7.13,20.31,13.32,29.09c8.65,12.24,26.72,15.51,20.28,33.03
		c-5.77,15.71,4.41,18.02,8.8,16.17c7.79-3.26,13.48-15.06,20.57-20.18c44.66-32.38,71.4-7.33,121.02-46.95
		c7.72-6.16,12.73-15.28,20.7-21.14c7.28-5.35,16.61-7.66,23.23-13.79c8.36-7.74,10.7-19.79,15.27-30.23
		c9.91-22.63,31.67-35.58,41.11-37.84c7-1.67,19.26,0.57,22.98-2.76C489.17,273.27,488.45,257.81,471.06,248.69z M377.88,325.46
		c-5.46,8.62-10.19,17.88-17.33,25.16c-19.61,19.95-79.22,37.04-107.37,43.14c-39.54,8.57-40.25-12.07-45.45-25.74
		c-8.49-22.28-30.08-35-35.29-59.02c-6.11-28.14,13.03-37.18,18.92-45.39c4.91-6.87,6-15.67,8.41-23.78
		c5.82-19.51,24.17-22.07,40.25-30.18c10.89-5.48,18.63-16.22,29.42-21.41c12.88-6.19,29.71-8.36,43.49-12.25
		c26.88-7.57,35.7,8.81,53.02,22.71c6.61,5.29,13.66,4.55,20.82,8.3c13.93,7.28,8.91,28.46,17.63,39.96
		c5.52,7.28,16.15,11.1,17.98,20.06C425.7,283.37,401.9,287.51,377.88,325.46z"/>
</g>
<g id="Residuos_3">
	<path class="st4" d="M458.32,267.69c11.39,33.76-3.13-9.29,7.24,21.47c0.53,1.56,2.22,2.4,3.78,1.87l14.4-4.86
		c1.56-0.53,2.4-2.22,1.87-3.78l-2.74-8.13c-0.82-2.43-2.09-4.68-3.75-6.63l-2.29-2.69c-0.76-0.9-1.61-1.73-2.52-2.48l-1.87-1.53
		l0.18-0.06l-0.58-1.7l-3.95,1.33l0.57,1.7l0.23-0.08l-0.68,2.85c-0.15,0.64-0.76,1.07-1.42,0.99l-6.49-0.76
		C458.95,265.06,457.88,266.38,458.32,267.69z M466.19,273.65c0.27,0.81-0.16,1.69-0.97,1.96l-0.03,0.01
		c-0.81,0.27-1.69-0.16-1.96-0.97l-1.59-4.71c-0.27-0.81,0.16-1.69,0.98-1.96l0.03-0.01c0.81-0.27,1.69,0.16,1.96,0.97
		L466.19,273.65z"/>
	<path class="st4" d="M166.39,347.15c0.14-0.3,0.33-0.56,0.56-0.78c-0.27-0.11-0.42-0.39-0.33-0.66l0.94-2.98
		c0.09-0.28,0.4-0.43,0.7-0.34l4.94,1.56c0.3,0.09,0.47,0.4,0.38,0.68l-0.94,2.98c-0.08,0.26-0.37,0.41-0.65,0.35
		c0.06,0.31,0.07,0.63,0.01,0.96l-2.85,20.08c0,0.02-0.03,0.04-0.05,0.03l-11.85-3.73c-0.02-0.01-0.03-0.03-0.02-0.06L166.39,347.15
		z"/>
	<path class="st4" d="M149.56,265.05c0.05-0.43,0.35-0.72,0.7-0.8c0.15-0.03,0.26-0.14,0.28-0.32c0.23-2.16,1.23-2.59,7-7.65
		c0.89-0.78,1.91-0.63,2.41-1.38c0.14-0.21-0.68,0.04-0.63-0.38c0.15-1.45,0.09-2.01,0.62-1.95c4.24,0.45,4.58,0.34,4.52,0.89
		c-0.17,1.56-0.12,1.82-0.42,1.79c-0.23-0.02-0.5-0.09-0.45,0.04c0.34,0.84,1.36,0.9,2.07,1.85c4.64,6.21,5.48,6.8,5.25,8.94
		c-0.02,0.18,0.07,0.31,0.21,0.37c0.77,0.36,0.66,1.52-0.18,1.71c-0.32,0.08-0.28,0.34-0.36,1.07c-0.05,0.47,0.82,0.37,0.72,1.26
		c-0.05,0.43-0.35,0.72-0.7,0.8c-0.32,0.08-0.28,0.34-0.36,1.07c-0.05,0.47,0.82,0.37,0.72,1.26c-0.05,0.43-0.35,0.72-0.7,0.8
		c-0.15,0.03-0.26,0.15-0.28,0.3c-0.08,0.73-0.17,0.98,0.13,1.12c0.33,0.15,0.56,0.5,0.51,0.93c-0.09,0.89-0.92,0.61-0.97,1.08
		c-0.08,0.73-0.17,0.98,0.13,1.12c0.33,0.15,0.56,0.5,0.51,0.93c-0.09,0.89-0.92,0.62-0.97,1.08c-0.08,0.74-0.17,0.98,0.13,1.12
		c0.33,0.15,0.56,0.5,0.51,0.93c-0.09,0.89-0.92,0.62-0.97,1.09c-0.08,0.73-0.17,0.98,0.13,1.12c0.78,0.36,0.65,1.52-0.18,1.71
		c-0.32,0.07-0.29,0.46-0.28,0.32c-0.11,1.05-1.05,1.8-2.09,1.69c-0.17-0.02-16.73-1.76-16.59-1.75c-1.04-0.11-1.8-1.05-1.69-2.09
		c0.05-0.52-0.82-0.37-0.72-1.3c0.09-0.89,0.92-0.61,0.97-1.09c0.08-0.73,0.17-0.98-0.13-1.12c-0.33-0.15-0.56-0.5-0.51-0.93
		c0.09-0.89,0.92-0.61,0.97-1.08c0.08-0.73,0.17-0.98-0.13-1.12c-0.77-0.36-0.66-1.52,0.18-1.71c0.32-0.08,0.28-0.34,0.36-1.07
		c0.05-0.48-0.82-0.36-0.72-1.28c0.09-0.89,0.92-0.61,0.97-1.09c0.08-0.73,0.17-0.98-0.13-1.12c-0.33-0.15-0.56-0.5-0.51-0.93
		c0.09-0.89,0.92-0.62,0.97-1.08c0.08-0.73,0.17-0.98-0.13-1.12c-0.33-0.15-0.56-0.5-0.51-0.93c0.09-0.89,0.92-0.61,0.97-1.08
		l0.08-0.77C150.33,265.84,149.47,265.94,149.56,265.05z"/>
	<path class="st4" d="M427,320.34l5.94,15.57c0.47,1.18,1.82,1.75,2.99,1.25l0.04-0.02c1.17-0.5,1.69-1.87,1.16-3.02
		c-7.65-16.62-8.04-16.48-9.7-19.41c-0.64-1.14-1.35-2.24-2.24-3.2c-4.3-4.65-4-4.55-4.85-7.6c-0.02-0.07,0-0.14,0.06-0.16l1.7-0.73
		c0.12-0.05,0.18-0.2,0.13-0.32l0,0c-0.03-0.06,0-0.13,0.06-0.16h0c0.06-0.03,0.09-0.1,0.06-0.16l-0.05-0.11
		c-0.03-0.06-0.1-0.09-0.16-0.06l0,0c-0.06,0.03-0.13,0-0.16-0.06l-0.05-0.11c-0.03-0.06,0-0.13,0.06-0.16l0,0
		c0.06-0.03,0.09-0.1,0.06-0.16l-0.05-0.11c-0.03-0.06-0.1-0.09-0.16-0.06l0,0c-0.06,0.03-0.13,0-0.16-0.06l-0.05-0.11
		c-0.03-0.06,0-0.14,0.06-0.16l0,0c0.06-0.03,0.09-0.1,0.06-0.16l-0.05-0.11c-0.03-0.06-0.1-0.09-0.16-0.06l0,0
		c-0.06,0.03-0.13,0-0.16-0.06l-0.05-0.11c-0.03-0.06,0-0.13,0.06-0.16l0,0c0.06-0.03,0.09-0.1,0.06-0.16l-0.05-0.11
		c-0.03-0.06-0.1-0.09-0.16-0.06l0,0c-0.06,0.03-0.13,0-0.16-0.06l-0.05-0.11c-0.03-0.06,0-0.13,0.06-0.16l0,0
		c0.06-0.03,0.09-0.1,0.06-0.16l-0.05-0.11c-0.03-0.06-0.1-0.09-0.16-0.06l0,0c-0.06,0.03-0.13,0-0.16-0.06l-0.05-0.11
		c-0.03-0.06,0-0.13,0.06-0.16l0,0c0.06-0.03,0.09-0.1,0.06-0.16l-0.05-0.11c-0.03-0.06-0.1-0.09-0.16-0.06l0,0
		c-0.06,0.03-0.13,0-0.16-0.06l-0.05-0.11c-0.03-0.06,0-0.13,0.06-0.16l0,0c0.06-0.03,0.09-0.1,0.06-0.16l-0.05-0.11
		c-0.03-0.06-0.1-0.09-0.16-0.06l0,0c-0.06,0.03-0.13,0-0.16-0.06l-0.05-0.11c-0.03-0.06,0-0.13,0.06-0.16l0,0
		c0.06-0.03,0.09-0.1,0.06-0.16l-0.05-0.11c-0.03-0.06-0.1-0.09-0.16-0.06l0,0c-0.06,0.03-0.13,0-0.16-0.06l-0.05-0.11
		c-0.03-0.06,0-0.13,0.06-0.16l0,0c0.06-0.03,0.09-0.1,0.06-0.16l0,0c-0.05-0.12-0.2-0.18-0.32-0.13l-2.13,0.91
		c-0.05,0.02-0.1,0.01-0.14-0.03c-0.31-0.35-0.84-0.18-1.16-0.04l-0.01,0c-0.41,0.18-0.61,0.66-0.43,1.08
		c2.97,6.96,6.16,12.44,8.04,15.46C425.13,316.15,426.16,318.21,427,320.34z"/>
	<path class="st4" d="M398.01,372.92l8.88-1.22c3.09-0.42,5.02-3.56,4.01-6.51l-6.49-18.97c-0.29-0.86-1.16-1.4-2.06-1.27
		l-1.62,0.22l-0.04-0.31l1.19-0.16c0.16-0.02,0.27-0.17,0.24-0.32l-0.14-1.04c-0.02-0.16-0.17-0.27-0.32-0.24l-0.62,0.09l-0.45-3.25
		c-0.13-0.95-1.01-1.62-1.97-1.49l-1.76,0.24c-0.96,0.13-1.62,1.01-1.49,1.97l0.45,3.25l-0.5,0.07c-0.16,0.02-0.27,0.17-0.24,0.32
		l0.14,1.04c0.02,0.16,0.17,0.26,0.32,0.24l1.08-0.15l0.04,0.31l-1.5,0.21c-0.9,0.12-1.59,0.87-1.64,1.78l-1.13,20.01
		C392.22,370.85,394.93,373.35,398.01,372.92z M395.11,358.49l0.12-5c0.01-0.53,0.61-0.95,1.35-0.93h0.03c0.73,0.02,1.32,0.46,1.3,1
		l-0.11,5c-0.01,0.53-0.62,0.95-1.35,0.93l-0.03,0C395.68,359.47,395.1,359.02,395.11,358.49z"/>
	<path class="st4" d="M226.24,191.08l5.06,2.3c0.29,0.13,0.64,0.03,0.82-0.23l7.58-11.31c0.14-0.21,0.06-0.49-0.17-0.59l-9.55-4.34
		c-0.23-0.1-0.49,0.02-0.56,0.26l-3.54,13.14C225.79,190.63,225.95,190.95,226.24,191.08z"/>
	<path class="st4" d="M270.78,408.21c0.36,0.27,0.44,0.77,0.2,1.14l12.17,8.13c0.25-0.37,0.75-0.48,1.13-0.26l4.62,2.68
		c0.79,0.46,1.03,1.49,0.52,2.25l-0.02,0.03c-0.51,0.76-1.55,0.93-2.28,0.38l-4.25-3.25c-0.36-0.27-0.44-0.77-0.2-1.14l-12.17-8.13
		c-0.25,0.37-0.75,0.48-1.13,0.26l-4.62-2.68c-0.79-0.46-1.03-1.49-0.52-2.25l0.02-0.03c0.51-0.76,1.55-0.93,2.28-0.38
		L270.78,408.21z"/>
	<path class="st4" d="M186.36,229.48c0.23-0.23,0.61-0.24,0.85-0.03l7.17-8.03c-0.24-0.22-0.27-0.59-0.07-0.85l2.43-3.09
		c0.42-0.53,1.19-0.6,1.69-0.15l0.02,0.02c0.5,0.45,0.52,1.23,0.04,1.7l-2.8,2.76c-0.23,0.23-0.61,0.24-0.85,0.03l-7.17,8.03
		c0.24,0.22,0.27,0.59,0.07,0.85l-2.43,3.09c-0.41,0.53-1.19,0.6-1.69,0.15l-0.02-0.02c-0.5-0.45-0.52-1.23-0.04-1.7L186.36,229.48z
		"/>
	<path class="st4" d="M378.29,149.73c-3.86-1.73-3.38-5.32-6.46-3.35c-1.33,0.84-4.77,6.72-10.28,11.51
		c-1.19,1.03-3.86,3.4-4.03,4.83c-0.3,2.5,3.93,5.07,5.56,5.78c7.52,3.26,7.56,5.64,10.74,8.75c2.04,2,4.66,3.22,6.97,4.86
		c1.4,0.99,4.12,4.82,6.15,4.12c1.27-0.44,1.96-2.2,2.85-3.09c4.23-4.27,6.61-9.36,8.31-11.77c1.13-1.6,3.44-4.5,1.09-6.05
		c-1.28-0.85-1.82-0.81-4.4-3.24c-3.76-3.54-5.34-3.45-8.29-6.04C383.2,153.13,381.76,151.28,378.29,149.73z M392.51,168.86
		c-0.29-0.18,1.22,0.55,1.62,2.06c0.27,1.03-1.17,3.83-2.97,5.51c-1.24,1.16-2.26,0.91-3.59-0.28c-0.19-0.17-0.23-0.45-0.09-0.67
		C391.99,168.68,391.97,168.53,392.51,168.86z"/>
</g>
<g id="_x37_5_x25__1_" class="st2">
	<path class="st8" d="M466.05,219.93c-13.4-6.59-7.45-23.26,3.93-26.26c11.38-3.01,18.18-7.73,34.07-20.9
		c15.83-13.17,10.45-32.42,11.38-37.57c1.01-5.16,5.23-5.51,0.43-12.18c-4.8-6.65-6.45-2.72-11.67-3.36
		c-5.15-0.72-21.76-11.89-39.22-1.01c-17.53,10.95-24.11,15.96-30.56,25.77c-6.45,9.81-24.12,10.3-26.2-4.51
		c-2.08-14.74-10.24-73.01-66.34-86.26c-56.19-13.23-77.17,2.52-105.72,22.05c-28.63,19.55,17.53,15.54,76.01,31.07
		c33,8.73,13.89,12.88-3.65,13.38c-23.55,0.57-125.11,15.01-170.91,144.35c-1.3,3.65-5.4,5.41-8.98,3.93
		c-43.17-17.97-92.78,26.58-88.02,35.17c15.88,28.52,62.94,12.6,83.65,29.69c1.61,1.33,2.81,3.11,3.45,5.1
		c2.61,8.2,4.24,24.79,23.19,48.24c18.76,29.13,36.09,33.78,41.01,39.45c13.25,24.77-19.68,66.49,3.16,91.4
		c6.67,7.29,64.55-25.86,61.07-72.51c-0.28-3.87,2.69-7.2,6.56-7.29c137.18-2.8,182.82-94.68,190.76-116.89
		c5.94-16.46,15.89-33.35,13.89,0.79c-3.66,60.34-21.97,102.92,5.58,81.95c27.56-21.04,49.03-36.01,54.12-93.47
		C532.1,252.58,479.43,226.52,466.05,219.93z M485.2,276.81c-3.71,3.32-15.98,1.08-22.98,2.76c-9.44,2.25-31.2,15.21-41.11,37.84
		c-4.57,10.44-6.91,22.49-15.27,30.23c-6.62,6.13-15.95,8.44-23.23,13.79c-7.97,5.86-12.98,14.98-20.7,21.14
		c-49.62,39.62-76.36,14.57-121.02,46.95c-7.09,5.12-12.78,16.92-20.57,20.18c-4.39,1.85-14.57-0.45-8.8-16.17
		c6.43-17.51-11.63-20.79-20.28-33.03c-6.19-8.78-6.12-21.13-13.32-29.09c-3.81-4.23-9.24-6.67-13.45-10.5
		c-12.4-11.29-12.51-32.67-26.38-42.1c-6.84-4.66-16.9-6.42-19.54-14.27c-2.01-5.97,1.81-12.54,6.92-16.24
		c9.09-6.59,24.24-7.49,33.47-22.31c6.77-10.87,11.39-47.18,53.36-71.57c9.77-5.68,18.82-9.57,27.71-16.61
		c9.98-7.91,19.62-17.49,31.35-22.75c13.46-6.02,28.82-5.41,43.36-7.88c37.51-6.37,29.55-26.6,44.76-36.77
		c5.06-3.37,9.15-3.26,11.71,2.32c5.36,11.68-3.12,24.78-4.36,37.58c-0.98,10.15,3.5,21.19,12.49,26
		c9.01,4.81,19.94,2.62,30.17,2.91c10.21,0.3,22.36,5.65,22.86,15.86c0.31,6.26-4.05,11.82-4.96,18.03
		c-1.46,10.06,6.48,19.26,15.45,24.07c8.95,4.82,19.2,6.79,28.22,11.49C488.45,257.81,489.17,273.27,485.2,276.81z"/>
</g>
<g id="Residuos_4">
	<path class="st4" d="M58.85,291.06c0.05-0.43,0.35-0.72,0.7-0.8c0.15-0.03,0.26-0.14,0.28-0.32c0.23-2.16,1.23-2.59,7-7.65
		c0.89-0.78,1.91-0.63,2.41-1.38c0.14-0.21-0.68,0.04-0.63-0.38c0.15-1.45,0.09-2.01,0.62-1.95c4.24,0.45,4.58,0.34,4.52,0.89
		c-0.17,1.56-0.12,1.82-0.42,1.79c-0.23-0.02-0.5-0.09-0.45,0.04c0.34,0.84,1.36,0.9,2.07,1.85c4.64,6.21,5.48,6.8,5.25,8.94
		c-0.02,0.18,0.07,0.31,0.21,0.37c0.77,0.36,0.66,1.52-0.18,1.71c-0.32,0.08-0.28,0.34-0.36,1.07c-0.05,0.47,0.82,0.37,0.72,1.26
		c-0.05,0.43-0.35,0.72-0.7,0.8c-0.32,0.08-0.28,0.34-0.36,1.07c-0.05,0.47,0.82,0.37,0.72,1.26c-0.05,0.43-0.35,0.72-0.7,0.8
		c-0.15,0.03-0.26,0.15-0.28,0.3c-0.08,0.73-0.17,0.98,0.13,1.12c0.33,0.15,0.56,0.5,0.51,0.93c-0.09,0.89-0.92,0.61-0.97,1.08
		c-0.08,0.73-0.17,0.98,0.13,1.12c0.33,0.15,0.56,0.5,0.51,0.93c-0.09,0.89-0.92,0.62-0.97,1.08c-0.08,0.74-0.17,0.98,0.13,1.12
		c0.33,0.15,0.56,0.5,0.51,0.93c-0.09,0.89-0.92,0.62-0.97,1.09c-0.08,0.73-0.17,0.98,0.13,1.12c0.78,0.36,0.65,1.52-0.18,1.71
		c-0.32,0.07-0.29,0.46-0.28,0.32c-0.11,1.05-1.05,1.8-2.09,1.69c-0.17-0.02-16.73-1.76-16.59-1.75c-1.04-0.11-1.8-1.05-1.69-2.09
		c0.05-0.52-0.82-0.37-0.72-1.3c0.09-0.89,0.92-0.61,0.97-1.09c0.08-0.73,0.17-0.98-0.13-1.12c-0.33-0.15-0.56-0.5-0.51-0.93
		c0.09-0.89,0.92-0.61,0.97-1.08c0.08-0.73,0.17-0.98-0.13-1.12c-0.77-0.36-0.66-1.52,0.18-1.71c0.32-0.08,0.28-0.34,0.36-1.07
		c0.05-0.48-0.82-0.36-0.72-1.28c0.09-0.89,0.92-0.61,0.97-1.09c0.08-0.73,0.17-0.98-0.13-1.12c-0.33-0.15-0.56-0.5-0.51-0.93
		c0.09-0.89,0.92-0.62,0.97-1.08c0.08-0.73,0.17-0.98-0.13-1.12c-0.33-0.15-0.56-0.5-0.51-0.93c0.09-0.89,0.92-0.61,0.97-1.08
		l0.08-0.77C59.62,291.85,58.75,291.95,58.85,291.06z"/>
	<g>
		<path class="st4" d="M383.36,381.78c0.87-1.82,0.78-4.04-0.42-5.83c-1.81-2.7-5.48-3.42-8.18-1.61c-1.74,1.17-2.66,3.11-2.6,5.07
			c-1.79-0.79-3.94-0.68-5.68,0.49c-1.74,1.17-2.66,3.11-2.6,5.07c-1.79-0.79-3.94-0.68-5.68,0.49c-2.7,1.81-3.42,5.48-1.61,8.18
			c1.2,1.79,3.23,2.71,5.24,2.6c-0.87,1.82-0.78,4.04,0.42,5.83c1.81,2.7,5.49,3.42,8.18,1.61c1.74-1.17,2.66-3.11,2.61-5.07
			c1.79,0.8,3.94,0.68,5.68-0.49c1.74-1.17,2.66-3.11,2.6-5.07c1.79,0.79,3.94,0.68,5.68-0.49c2.7-1.81,3.42-5.48,1.61-8.18
			C387.4,382.58,385.38,381.66,383.36,381.78z M369.21,401.88c-1.7,1.14-4.02,0.69-5.16-1.01c-1.14-1.7-0.69-4.02,1.01-5.16
			c1.7-1.14,4.02-0.69,5.16,1.01C371.37,398.42,370.91,400.74,369.21,401.88z M363.55,393.45c-1.7,1.14-4.02,0.69-5.16-1.01
			c-1.14-1.7-0.69-4.02,1.01-5.16c1.7-1.14,4.02-0.69,5.16,1.01C365.71,389.99,365.25,392.3,363.55,393.45z M377.5,396.31
			c-1.7,1.14-4.02,0.69-5.16-1.01c-1.14-1.7-0.69-4.02,1.01-5.16c1.7-1.14,4.02-0.69,5.16,1.01
			C379.66,392.86,379.2,395.17,377.5,396.31z M371.83,387.88c-1.7,1.14-4.02,0.69-5.16-1.01c-1.14-1.7-0.69-4.02,1.01-5.16
			c1.7-1.14,4.02-0.69,5.16,1.01C373.99,384.42,373.54,386.74,371.83,387.88z M375.97,376.14c1.7-1.14,4.02-0.69,5.16,1.01
			c1.14,1.7,0.69,4.02-1.01,5.16c-1.7,1.14-4.02,0.69-5.16-1.01C373.81,379.6,374.27,377.29,375.97,376.14z M385.78,390.75
			c-1.7,1.14-4.02,0.69-5.16-1.01c-1.14-1.7-0.69-4.02,1.01-5.16c1.7-1.15,4.02-0.69,5.16,1.01
			C387.94,387.29,387.48,389.61,385.78,390.75z"/>
	</g>
	<path class="st4" d="M469.26,147.6c0.52,4.56,2.72,5.84,4.37,7.84c1.72,2.1,3.51,3.36,5.38,5.32c1.92,2.01,3.46,4.35,5.36,6.38
		c0.64,0.68,1.41,1.31,2.33,1.52c0.87,0.2,1.77,0,2.64-0.23c6.42-1.66,8.46-2.4,13.64-6.55c0.89-0.72,1.45-2.19,1.87-3.24
		c0.17-0.43,0.32-0.88,0.28-1.34c-0.04-0.43-0.25-0.83-0.45-1.2c-0.77-1.4-1.62-2.76-2.54-4.08c-3.14-4.46-6.67-8.7-10.15-12.92
		c-2-2.42-5.38-6.75-9.01-4.96c-2.21,1.08-2.19,3.33-0.37,5.1c3.2,3.09,6.39,5.24,1.56,8.61c-1.45,1.01-2.59,2.22-4.45,2.21
		c-2.63-0.01-4.61-2.81-6.4-4.21C471.61,144.53,468.97,145.07,469.26,147.6z M484.93,136.78c0.37-0.42,1.64-0.32,2.1-0.15
		c1.82,0.66,3.18,2.98,3.69,4.73c0.2,0.68-0.06,0.89-0.52,0.93c-1.63,0.14-2.49-1.39-3.39-2.47c-0.04-0.05-0.09-0.1-0.15-0.16
		C486.03,139,484.27,137.54,484.93,136.78z M473.04,152.25c-0.74-0.66-1.79-2.64-0.77-3.47c0.28-0.23,0.7-0.3,1.04-0.16
		c0.19,0.08,0.36,0.21,0.52,0.34c0.8,0.64,4.06,2.97,3.41,4.29c-0.1,0.2-0.3,0.34-0.5,0.44c-1.3,0.61-2.52-0.39-3.47-1.23
		C473.19,152.38,473.11,152.31,473.04,152.25z"/>
	<path class="st4" d="M216.85,476.4c1.15-0.25,2.3,0.15,3.05,0.97l-0.09-0.24c-0.04-0.12,0.04-0.26,0.17-0.27l4.84-0.67
		c0.22-0.03,0.43,0.1,0.5,0.31l0.5,1.42c0.07,0.21-0.01,0.44-0.2,0.56l-4.19,2.51c-0.11,0.07-0.26,0.01-0.3-0.11l-0.09-0.24
		c-0.07,1.11-0.72,2.14-1.77,2.67l-22.09,12.13c-0.03,0.01-0.06,0-0.07-0.03L192,480.84c-0.01-0.03,0.01-0.06,0.04-0.07
		L216.85,476.4z"/>
	<path class="st4" d="M502.78,360.73c1-1.96,2.12-3.68,3.19-5.01c1.46-1.78,2.3-3.98,2.43-6.28c0.18-3.37,0.4-7.43,0.43-7.5
		c0.18,0.09,0.38,0.22,0.51-0.02c0.76-1.49,0.96-1.7,0.66-1.85c-0.58-0.29-1.04-0.54-1.42-0.73c-0.38-0.19-0.85-0.43-1.42-0.72
		c-0.3-0.15-0.35,0.14-1.11,1.62c-0.12,0.24,0.1,0.33,0.28,0.42c-0.04,0.07-3.2,2.63-5.82,4.75c-1.79,1.45-3.07,3.42-3.66,5.65
		c-0.44,1.65-1.18,3.56-2.18,5.52c-2.46,4.83-5.54,6.78-6.26,10.63c-0.28,1.5,0.42,2.21,1.51,1.87l0.02-0.01
		c0.44-0.14,0.92-0.39,1.07,0.07c0.2,0.62,0.33,1.24,1.08,1.62l0.37,0.19l0.36,0.19c0.75,0.38,1.33,0.12,1.95-0.08
		c0.45-0.15,0.54,0.38,0.68,0.83l0.01,0.02c0.36,1.07,1.35,1.23,2.4,0.12C500.54,369.19,500.31,365.56,502.78,360.73z"/>
	<path class="st4" d="M421.24,162.26c-0.26-0.54-0.2-1.15,0.12-1.62l-0.11,0.07c-0.06,0.04-0.13,0.01-0.15-0.05l-0.91-2.31
		c-0.04-0.1,0-0.22,0.09-0.29l0.64-0.42c0.09-0.06,0.22-0.05,0.3,0.03l1.73,1.77c0.05,0.05,0.04,0.13-0.02,0.16l-0.11,0.07
		c0.56-0.1,1.14,0.1,1.53,0.56l8.61,9.45c0.01,0.01,0.01,0.03-0.01,0.04l-6.57,4.26c-0.01,0.01-0.03,0-0.04-0.01L421.24,162.26z"/>
	<path class="st4" d="M388.26,105.74l-0.44,4.13c-0.01,0.12,0.08,0.23,0.2,0.25l0,0c0.12,0.01,0.23-0.08,0.25-0.2l0.44-4.13
		l0.68,0.07l-0.44,4.13c-0.01,0.12,0.08,0.23,0.2,0.25l0,0c0.12,0.01,0.23-0.08,0.25-0.2l0.44-4.13l0.68,0.07l-0.44,4.13
		c-0.01,0.12,0.08,0.23,0.2,0.25l0,0c0.12,0.01,0.23-0.08,0.25-0.2l0.44-4.13l0.68,0.07c-0.11,1.1-0.45,4.38-0.65,6.08
		c-0.07,0.59-0.37,1-0.78,1.26c-0.27,0.17-0.45,0.44-0.47,0.76l-0.86,14.5c-0.06,0.95-0.89,1.65-1.83,1.55l-0.03,0
		c-0.94-0.1-1.61-0.96-1.47-1.9l2.19-14.36c0.05-0.31-0.08-0.62-0.3-0.84c-0.34-0.34-0.55-0.8-0.5-1.39
		c0.16-1.74,0.51-4.99,0.63-6.09L388.26,105.74z"/>
	<path class="st4" d="M518.6,302.53l2.1-5.14c0.12-0.3,0.01-0.64-0.26-0.81l-11.59-7.13c-0.21-0.13-0.49-0.04-0.59,0.19l-3.97,9.71
		c-0.09,0.23,0.04,0.49,0.28,0.55l13.27,3.02C518.16,302.99,518.48,302.82,518.6,302.53z"/>
	<g>
		<path class="st4" d="M311.69,60.57c1.44-1.41,2.13-3.52,1.62-5.62c-0.77-3.16-3.96-5.11-7.12-4.34c-2.04,0.5-3.57,2-4.2,3.86
			c-1.41-1.36-3.46-2-5.5-1.5c-2.04,0.5-3.57,2-4.2,3.86c-1.41-1.36-3.46-2-5.5-1.5c-3.16,0.77-5.11,3.96-4.34,7.12
			c0.51,2.1,2.09,3.66,4.02,4.25c-1.44,1.41-2.13,3.52-1.62,5.62c0.77,3.16,3.97,5.1,7.12,4.34c2.04-0.5,3.57-2,4.2-3.86
			c1.4,1.36,3.46,2,5.5,1.5c2.04-0.5,3.57-2,4.2-3.86c1.41,1.36,3.46,2,5.5,1.5c3.16-0.77,5.11-3.96,4.34-7.12
			C315.2,62.72,313.62,61.15,311.69,60.57z M291.47,74.54c-1.99,0.48-4.01-0.74-4.49-2.74c-0.48-1.99,0.74-4.01,2.74-4.49
			c1.99-0.49,4.01,0.74,4.49,2.74C294.69,72.04,293.46,74.05,291.47,74.54z M289.07,64.67c-1.99,0.48-4.01-0.74-4.49-2.74
			c-0.48-1.99,0.74-4.01,2.74-4.49c1.99-0.49,4.01,0.74,4.49,2.74C292.29,62.17,291.06,64.19,289.07,64.67z M301.17,72.18
			c-1.99,0.49-4.01-0.74-4.49-2.74c-0.48-1.99,0.74-4.01,2.74-4.49c1.99-0.48,4.01,0.74,4.49,2.74
			C304.39,69.68,303.16,71.7,301.17,72.18z M298.77,62.31c-2,0.48-4.01-0.74-4.49-2.74c-0.49-2,0.74-4.01,2.74-4.49
			c1.99-0.48,4.01,0.74,4.49,2.73C301.99,59.81,300.76,61.83,298.77,62.31z M306.7,52.72c1.99-0.48,4.01,0.74,4.49,2.74
			c0.48,1.99-0.74,4.01-2.74,4.49c-1.99,0.48-4.01-0.74-4.49-2.74C303.48,55.22,304.71,53.21,306.7,52.72z M310.86,69.82
			c-1.99,0.48-4.01-0.74-4.49-2.74c-0.48-1.99,0.74-4.01,2.74-4.49c2-0.49,4.01,0.74,4.49,2.74
			C314.08,67.32,312.86,69.34,310.86,69.82z"/>
	</g>
</g>
<g id="_x31_00_x25__1_" class="st2">
	<path class="st9" d="M466.05,219.93c-13.4-6.59-7.45-23.26,3.93-26.26c11.38-3.01,18.18-7.73,34.07-20.9
		c15.83-13.17,10.45-32.42,11.38-37.57c1.01-5.16,5.23-5.51,0.43-12.18c-4.8-6.65-6.45-2.72-11.67-3.36
		c-5.15-0.72-21.76-11.89-39.22-1.01c-17.53,10.95-24.11,15.96-30.56,25.77c-6.45,9.81-24.12,10.3-26.2-4.51
		c-2.08-14.74-10.24-73.01-66.34-86.26c-56.19-13.23-77.17,2.52-105.72,22.05c-28.63,19.55,17.53,15.54,76.01,31.07
		c33,8.73,13.89,12.88-3.65,13.38c-23.55,0.57-125.11,15.01-170.91,144.35c-1.3,3.65-5.4,5.41-8.98,3.93
		c-43.17-17.97-92.78,26.58-88.02,35.17c15.88,28.52,62.94,12.6,83.65,29.69c1.61,1.33,2.81,3.11,3.45,5.1
		c2.61,8.2,4.24,24.79,23.19,48.24c18.76,29.13,36.09,33.78,41.01,39.45c13.25,24.77-19.68,66.49,3.16,91.4
		c6.67,7.29,64.55-25.86,61.07-72.51c-0.28-3.87,2.69-7.2,6.56-7.29c137.18-2.8,182.82-94.68,190.76-116.89
		c5.94-16.46,15.89-33.35,13.89,0.79c-3.66,60.34-21.97,102.92,5.58,81.95c27.56-21.04,49.03-36.01,54.12-93.47
		C532.1,252.58,479.43,226.52,466.05,219.93z M481.94,378.07c-22.56,3.66-8.73-46.72-7.58-56.18c0.69-5.7,1.37-11.57-0.18-17.1
		c-6.96-24.96-30.41,0.59-34.45,13.02c-2.86,8.81-3.98,18.28-8.41,26.43c-10.83,19.94-36.82,25.23-54.24,39.79
		c-9.44,7.88-16.75,18.82-28.09,23.58c-9.52,3.99-20.4,2.93-30.38,5.54c-10.54,2.74-19.73,9.44-30.31,11.97
		c-8.03,1.93-16.44,1.33-24.6,2.59c-15.42,2.39-27.17,17.66-28.76,33.08c-0.67,6.47,1.27,13.22-0.73,19.41
		c-2.64,8.15-12.72,12.96-20.72,9.9c-20.36-7.78-7.23-43.2-11.76-58.99c-7.14-24.85-36.17-36.34-47.82-58.64
		c-12.65-24.21-11.72-53.38-45.18-58.8c-8.02-1.3-16.32-0.44-24.29-2.06c-26.09-5.3-21.33-31.79,0.49-35.57
		c10.11-1.75,20.33,1.4,30.47,3c13.57,2.15,32.26-4.77,37.29-18.56c6.24-17.12,2.79-34.08,17.51-48.1
		c7.03-6.69,16.33-10.65,23.14-17.55c6.58-6.66,10.46-15.64,17.17-22.17c9.9-9.64,24.43-12.6,36.24-19.81
		c8.62-5.25,15.91-12.83,25.36-16.41c18.21-6.9,40.72,2.43,57.12-8.05c22.05-14.1-2.04-23.71-14.39-29.32
		c-24.16-11-41.31-5.87-51.19-9.91c-9.04-3.69-15.2-17.24,5.49-22.92c70.08-19.24,112.65,15,123.63,53.51
		c6.86,24.01-0.14,22.76-3.26,33.62c-5.63,19.62,25.77,21.4,43.35,8.17c8.6-6.47,15.7-14.98,25.16-20.09
		c22.63-12.25,42.13,6.22,29.5,27.35c-4.24,7.09-11.17,12.82-17.65,17.79c-9.48,7.28-23.95,8.31-27.69,21.85
		c-2.59,9.37,5.1,13.59,11.61,18.07c8.17,5.64,14.81,13.14,23.73,18.06c4.48,2.47,9.25,4.44,13.48,7.33
		C531.55,279.53,506.74,374.04,481.94,378.07z"/>
</g>
</svg>
