<svg xmlns="http://www.w3.org/2000/svg" viewBox="0 0 270 270"><defs><style>.cls-1{fill:#fff;}.cls-2{fill:#a01a22;}.cls-3{fill:#002d26;}.cls-4{fill:#a78126;}</style></defs><g id="Capa_2" data-name="Capa 2"><g id="Home"><rect class="cls-1" width="270" height="270" rx="9.75"/><path class="cls-2" d="M235.37,19.94c.62,0,1.23.23,1.84.33a8.73,8.73,0,0,1,1.69.43,5.56,5.56,0,0,1,2.76,2.08,7.06,7.06,0,0,1,.86,1.48,11.16,11.16,0,0,1,.7,1.58,12.38,12.38,0,0,1,.48,3.78,31.05,31.05,0,0,1-.1,3.86,11.36,11.36,0,0,1-1.08,3.45c-.28.6-.67,1.14-1,1.72a7.25,7.25,0,0,1-.95,1.49,9.51,9.51,0,0,1-2.72,2.21c-1,.53-2,.95-3.05,1.4-.27.13-.46.35-.74.46a3.39,3.39,0,0,0-.68.29c-.46.31-.93.63-1.36,1a6.64,6.64,0,0,0-1.38,2.89L230.11,50c-.1.28-.19.56-.27.85a1.53,1.53,0,0,1-.07.36v-.09a2.33,2.33,0,0,1-.11.7v-.09a4.12,4.12,0,0,1-.27,1l-.45,1.49c-.28,1-.52,2-.73,3a5.74,5.74,0,0,1,2.29-.79,10.48,10.48,0,0,1,1.12,0c.43,0,.85-.09,1.27-.12a7.16,7.16,0,0,1,4.51,1.6,18.75,18.75,0,0,1,1.91,1.64c.23.2.79.8,1.15.58.87-.55.74-2.32.53-3.14a2.29,2.29,0,0,1,.29-1.64c.27-.37.73-.28,1.13-.26a.83.83,0,0,1,.92.76,12.62,12.62,0,0,1,.13,1.74,7.51,7.51,0,0,1-.14,2,4.8,4.8,0,0,0,0,.85l-.08.89a18.73,18.73,0,0,1-.25,1.94,3.25,3.25,0,0,0-.06.59,1.54,1.54,0,0,1-.09.7c-.32.65-1.4.41-1.86.06s-.38-.82-.58-1.23-.67-.3-1-.3c-.55.06-1.12,0-1.66.06a8.76,8.76,0,0,1-1.76.18,9.72,9.72,0,0,1-3.63-.88l.13,0a7.53,7.53,0,0,0-2.05-.52,4.91,4.91,0,0,1-1,0,3.2,3.2,0,0,0-1.29.23c-.43.12-.69.54-1.09.72a1.11,1.11,0,0,1-1.25-.24c-.45-.37-.41-.91-.39-1.46s.08-1.26.16-1.88a41.62,41.62,0,0,1,1.8-7.72c.14-.42.16-.88.27-1.32s.37-1,.54-1.58a31.91,31.91,0,0,1,1.28-3.5,5.94,5.94,0,0,1,2.28-2.33,15.6,15.6,0,0,1,1.54-1,2.24,2.24,0,0,0,.46-.35l.25-.25.22-.16,0-.06A15.34,15.34,0,0,0,235.82,38c.45-1.09.83-2.48,1.2-3.69a10.76,10.76,0,0,0,.37-1.09c.08-.36.05-.75.1-1.11a10.65,10.65,0,0,0,.21-1.1q0-.6,0-1.2c0-.6-.1-1.23-.19-1.79a22.49,22.49,0,0,1-.4-2.59,3.8,3.8,0,0,0-.54-1.91,4.79,4.79,0,0,0-.57-.77c-.19-.24-.24-.38-.56-.3s-.92.1-1.24.48a8.67,8.67,0,0,0-1,1.73l0-.1a12.22,12.22,0,0,0-.51,2.15,22.75,22.75,0,0,0,0,2.74,6.18,6.18,0,0,1-.09,2.57,1.2,1.2,0,0,1-.62.77,2.13,2.13,0,0,1-1.12.06c-1,0-1.89,0-2.83.07a3.6,3.6,0,0,1-2.1-.31c-.74-.48-.57-1.2-.57-2a20.88,20.88,0,0,1-.14-2.51c.29-2.39,1-4.77,3-6.27a10.44,10.44,0,0,1,3.26-1.65,8.11,8.11,0,0,1,2-.24,15.66,15.66,0,0,1,1.81,0Z"/><path class="cls-3" d="M210.43,148.56a77,77,0,0,0-19.11-46.89c-10-11.62-26-22.48-41.82-23.6a16.53,16.53,0,0,0-.09-4.49c-.63-3.68-2.34-10.63-7.14-10.86-6.64-.31-13.64-1.17-20,1.17-3.41.4-3.76,5.74-3.9,8.7a23.58,23.58,0,0,0,.27,5.88c-37.24,9.47-63.45,45-59,83.64A79.27,79.27,0,0,0,85.82,211.7c8.62,7.67,19,12.25,30.07,15.3a87.88,87.88,0,0,0,28.36,3.23c9.47-.58,21.09-4.22,29.61-7.94,10.73-4.71,16.7-11.26,24.23-20.24C211.06,186.66,211.47,167.72,210.43,148.56Zm-87.5-81.44c5.43-1.8,10.82-1.57,16.52-1.39,4.12.13,5.78,3.5,6.77,7a17.23,17.23,0,0,1,.32,4.58c-.09,3.72-3-.36-3.32-1.84-.54-2.52-3.19-3-5.17-2.29-.85.31-1,1-1.39,1.84a1.34,1.34,0,0,0-.18.71c-1.39.36-2.73.77-4.12,1.13a27.12,27.12,0,0,1-.9-3.32,1.35,1.35,0,0,0-.9-.9c-2.06-.54-3.14.13-4.26,1.93-1.53,2.38-4.85,4.44-4.89.13C121.36,72.1,121.41,69.27,122.93,67.12Z"/><path class="cls-4" d="M158,168.3a20.08,20.08,0,0,1-.67-4c-.07-.62-.13-1.24-.23-1.85-.05-.32-.39-1.23-.2-1.46s1.08-.31,1.35-.41a5.07,5.07,0,0,0,1.16-.59,3.08,3.08,0,0,0,1.34-2.15c.05-.38-.35-.65-.67-.67l-3.15-.23-1.47-.1a2.63,2.63,0,0,1-1.05-.33c-.3-.16-.45-.38-.79-.49a14.21,14.21,0,0,1-1.38-.76c-2.12-1-5.05-.62-7.32-.66l-10-.16c-2,0-3.31-.59-4.26-2.41a26,26,0,0,1-1.62-4.66c-.48-1.6,5.2-1,6.18-2a1.88,1.88,0,0,0-.45-2.76,45.31,45.31,0,0,0-5.87-3.34.49.49,0,0,0,0-.21l0,0a.77.77,0,0,0-.28-.37l-.11-.12a2.48,2.48,0,0,1-.19-.26,3.17,3.17,0,0,0,.85-.59,5.86,5.86,0,0,0,2.56-5.1,18.66,18.66,0,0,0-.27-3.34,1.14,1.14,0,0,1,0-.45,1,1,0,0,1,.19-.34,6.12,6.12,0,0,0,.9-1.37,3.41,3.41,0,0,0,.22-1.76,21.37,21.37,0,0,0-.32-2.25c0-.16-.06-.55-.22-.65s-.4.12-.44.31c-.1.45-.07.91-.15,1.35a4.9,4.9,0,0,1-.15.92l0,.08c-.17.3-.68.3-.95.17a2,2,0,0,1-.77-.88c-1-1.75-1.63-3.68-3-5.22-.08-.1-.21-.2-.33-.14a.2.2,0,0,0-.1.12c-.22.54.37,1.08.62,1.49a4.77,4.77,0,0,1,.67,1.77,3.13,3.13,0,0,1,0,.61c0,.23,0,.77-.24.93s-.7,0-.92-.12a1.14,1.14,0,0,1-.57-.77c0-.22.13-.59-.11-.74a.23.23,0,0,0-.26,0c-.26.23-.22,1-.16,1.33a3.88,3.88,0,0,0,1.46,2.23,6.86,6.86,0,0,1,2.51,2.08,3.55,3.55,0,0,1,.44,2.3,1.15,1.15,0,0,1-.66,1,2.58,2.58,0,0,1-1.54-.27,3.44,3.44,0,0,1-.55-.39,10.56,10.56,0,0,0-1-.75c-.31-.2-.71-.63-1.11-.57s-.44.61-.29.9a1.87,1.87,0,0,0,.47.54l1.36,1.18a5.22,5.22,0,0,1,2,2.64,1.38,1.38,0,0,1,0,.7c-.06.2-1.2,1.39-1.33,1.21a11.75,11.75,0,0,0-2-1.9.71.71,0,0,0-1.17.31,1.49,1.49,0,0,0,.06.92.45.45,0,0,0,0,.28c.08.28.18.56.28.84-.75,0-1.44.25-2.17.3a10,10,0,0,1-1.93-.37c-.41,0-.83,0-1.24,0a5.31,5.31,0,0,1-.88-.19,7.14,7.14,0,0,1-1.78-.69c-.36-.21-1.13-.56-1.18-1s.68-.88,1.15-1a6.66,6.66,0,0,0,1.09-.26,3,3,0,0,0,.83-.53,4.09,4.09,0,0,0,1.15-1.43c.15-.35.31-1-.36-.92a1.35,1.35,0,0,0-.46.24,5.42,5.42,0,0,1-1.29.66c-.81.29-3,.39-2.58-1a4.3,4.3,0,0,1,1.19-1.91,2.37,2.37,0,0,0,.62-.64,5.11,5.11,0,0,0,.47-1c.66-2.12-.33-4.72-.18-6.91a.47.47,0,0,0-.9-.25,1,1,0,0,0-.09.42c-.15,1.74-.17,3.48-.44,5.2-.11.68-.42,2.23-1.43,2a3.63,3.63,0,0,1-1.56-1,14.27,14.27,0,0,1-1.45-1.65,3.91,3.91,0,0,0-1.07-1.15c-.58-.32-.82.42-.63.85.84,1.9,2.24,3.29,2.51,5.43.18,1.43.13,2.87.32,4.3a7.82,7.82,0,0,0,.55,2.07,3.73,3.73,0,0,0,1.16,1.76l.54.37.31.21c.78.45,1.62.77,2.39,1.24.48.29.93.64,1.39,1a4.63,4.63,0,0,1,.8.73,3.23,3.23,0,0,1,.48,1.11c.21.67.43,1.34.62,2a12.54,12.54,0,0,1,.35,1.89c.24,2.06.49,4.13.73,6.2.46,3.89.85,8.32,3,11.57a31.28,31.28,0,0,0-3.08,2.59q-1.69,1.45-3.25,3.06a1,1,0,0,1-.47.34,2.13,2.13,0,0,0-.27.07.52.52,0,0,0-.22.22,3.29,3.29,0,0,0-.82,1.94,2.26,2.26,0,0,0,.69,1.76,5,5,0,0,0,.9.51c.24.16.46.39.7.57.7.53,1.34,1.14,2,1.67,1,.74,2.07,1.31,3,2.08.45.37.8.82,1.22,1.2s1.15.95,1.69,1.46a4.9,4.9,0,0,1-.32,1.15c-.13.41-.26.83-.41,1.23a20.6,20.6,0,0,1-2.33,4.58c-.44.63-1.13.94-1.66,1.52a.43.43,0,0,0-.16.36c0,.15.2.22.35.26a6.68,6.68,0,0,0,1.54.24,2,2,0,0,0,1.14-.36,1.78,1.78,0,0,0,.7-1,1.5,1.5,0,0,1,.23-.41,1.83,1.83,0,0,1,.63-.38c.47-.22.53-.58.75-1,.57-1.12,1.07-2.27,1.58-3.42.26-.6.52-1.19.79-1.78.18-.37.34-.78.55-1.13a2.59,2.59,0,0,0,.61-1.28c0-.29,0-.58,0-.87a4.08,4.08,0,0,1,.64-1.76l3-5.42a5.84,5.84,0,0,1,.8-1.22,3.92,3.92,0,0,1,1.77-1.08c.94-.2,1.91,0,2.86-.16s1.94-.38,2.95-.5a1.74,1.74,0,0,1,.72,0c.62.21,1.1.95,1.51,1.41a22.59,22.59,0,0,0,1.89,1.9,7.28,7.28,0,0,1,1.27,1.33,2,2,0,0,1,.28,1.75,2.55,2.55,0,0,1-.46.71,25.83,25.83,0,0,0-2,2.57,19.31,19.31,0,0,0-1.43,2.43,58.37,58.37,0,0,0-2.2,6.58l-.24.81a1.43,1.43,0,0,0-.09.5,2,2,0,0,0,1.44-.17l.41-.16a.78.78,0,0,0,.59-.61c.11-.37.29-.72.38-1.11s.21-.89.59-1.08c.12-.07.26-.09.38-.15.34-.16.66-1,.78-1.34.22-.66.43-1.32.64-2a8.92,8.92,0,0,1,.43-1.12,8.31,8.31,0,0,1,.87-1.26l1.31-1.65a14.42,14.42,0,0,1,1.14-1.34,4.85,4.85,0,0,0,1-1.13,4.51,4.51,0,0,0-.09-2.92,8.09,8.09,0,0,1-.2-2.59c.08-.64.82-.65,1.34-.43a2.9,2.9,0,0,1,.73.51,31.8,31.8,0,0,1,2.55,2.51,3.87,3.87,0,0,1,1.16,2,6.61,6.61,0,0,1-.67,2.78c-.32,1-.65,2-1,3s-.54,2-.81,2.94c-.33,1.18-.58,2.35-1,3.5l-.45,1.36a.58.58,0,0,0,0,.18.37.37,0,0,0,.31.34,1,1,0,0,0,.49,0,4.55,4.55,0,0,0,2.19-1.15c.53-.58.18-1.41.57-2,.15-.25.44-.38.64-.59a1.85,1.85,0,0,0,.44-1.37,10.11,10.11,0,0,1-.11-1.45,11.86,11.86,0,0,1,.24-1.47,12,12,0,0,1,1-2.8c.29-.58.63-1.14.88-1.73a9.53,9.53,0,0,0,.49-1.63,7.13,7.13,0,0,0,.31-1.35,4.29,4.29,0,0,0-.55-1.48,13.79,13.79,0,0,0-.75-1.42c-.38-.64-.82-1.25-1.14-1.93A6.78,6.78,0,0,1,158,168.3Zm-28.81,5.53,0,.13c-.19.52-.41,1-.63,1.53-.57,1.31-1.08,2.62-1.58,3.94-.08-.37-.21-.8-.57-.91-.18-.06-.39,0-.57-.08s-.44-.43-.51-.73c-.19-.71-.54-.88-1.18-1.2-1-.48-2.5-1.81-2.59-2.94-.09-1,1.1-1.14,1.81-1.41l3.54-1.37a5,5,0,0,1,.93-.3,16.66,16.66,0,0,1,2.44.07C129.79,171.64,129.55,172.74,129.17,173.83Z"/><path class="cls-3" d="M131.33,26.34c17.18-4,7.76,28.29,7.16,37.87a19.58,19.58,0,0,1,2.86-.34c.87-10,4.88-19.61,2.83-29.73-.91-4.51-5-11.75-10.52-10.95-6,.85-12.5,2.86-13.21,9.9C119.39,43.75,124.24,53.52,125,64a1.32,1.32,0,0,0,2.63,0C128.55,52.91,114.15,30.36,131.33,26.34Z"/><path class="cls-4" d="M86.54,126.83c0,.09-.07.22-.12.37l1.33-1.52a.3.3,0,0,1,.46.09c.21.51.41,1,.62,1.51,0-.59.1-1.19.16-1.78a.3.3,0,0,1,.52-.18,5.21,5.21,0,0,0,2,1.09l-1-1.24a.34.34,0,0,1,.19-.55,6.86,6.86,0,0,0,1.44-.33,8.48,8.48,0,0,1-2.33-.43.33.33,0,0,1-.11-.56c.49-.57,1-1.14,1.44-1.73-.65.32-1.29.76-1.87,1.07a.31.31,0,0,1-.44-.38,13,13,0,0,0,.31-2.55,8.1,8.1,0,0,0-1.23,2,.34.34,0,0,1-.5.17c-.43-.34-.86-.68-1.28-1a15,15,0,0,0,.76,1.69c.18.34-.22.61-.51.45a15.36,15.36,0,0,0-1.77-.78c.56.52,1.19.94,1.77,1.48.21.2,0,.51-.2.58s-1,.26-1.65.49l2,.06a.29.29,0,0,1,.14,0,.31.31,0,0,1,.31.39C86.85,125.74,86.7,126.29,86.54,126.83Z"/><path class="cls-4" d="M91.77,187a69.55,69.55,0,0,0,1.33,8.15.09.09,0,0,0,0-.05.33.33,0,0,1,.4-.23,5.16,5.16,0,0,1,1.21.63,71.39,71.39,0,0,1-2.37-8.74,32.87,32.87,0,0,1-.58-4.64,26.75,26.75,0,0,1,0-4.65h0l-.68,0c.25,1.44.13,2.93.28,4.37C91.5,183.58,91.6,185.29,91.77,187Z"/><path class="cls-2" d="M80.92,171.85c.24.35-.3.74-.59.45-2.16-2.13-4.35,1.92-1.79,3.12,1.85.86,3.53-.31,4.94-1.44a19.53,19.53,0,0,0,5.57-6.49l0,0c-.31-2.85-.59-5.69-.84-8.54a20.21,20.21,0,0,1-3,4A5.67,5.67,0,0,1,80.43,165a2.74,2.74,0,0,1-1.94-1.14q-.64,3.75-1.12,7.53A2.5,2.5,0,0,1,80.92,171.85Z"/><path class="cls-2" d="M80.86,160.71c.36.2.09.65-.25.6-2-.3-2.12,2.73-.06,2.78a4.45,4.45,0,0,0,1.74-.23,6.69,6.69,0,0,0,2.56-1.94,48.24,48.24,0,0,0,3.25-4.55v-.11l-.13-.2a.31.31,0,0,1,.07-.41c-.15-2-.3-4-.42-6-1.05,2.55-3.09,5.4-5.75,5.06a2.23,2.23,0,0,1-1.57-.92Q79.6,157.87,79,161A1.56,1.56,0,0,1,80.86,160.71Z"/><path class="cls-2" d="M81.76,152c-.83.57-1.56,2.13-.31,2.68a2.67,2.67,0,0,0,3.07-.93,15.25,15.25,0,0,0,3-5.22c-.11-1.84-.21-3.68-.29-5.52a8.1,8.1,0,0,1-2.3,2.9,1.73,1.73,0,0,1-2.2.2c-.06,0-.09-.1-.14-.14-.32,1.18-.66,2.36-1,3.55-.17.63-.33,1.27-.49,1.91a4,4,0,0,1,1.63-.57.33.33,0,0,1,.16.62A12.36,12.36,0,0,0,81.76,152Z"/><path class="cls-2" d="M89.25,169a19.61,19.61,0,0,1-4.79,5.32c-1.72,1.39-3.62,2.83-5.93,2.06a3,3,0,0,1-1.59-1.25c-.06.65-.14,1.3-.19,1.95,4.47-.21,9-.35,13.44-.5,0,0,0,0,0,0Q89.68,172.78,89.25,169Z"/><path class="cls-2" d="M104.14,171.55c-1,2.63-4.15,3-6.51,2a20.48,20.48,0,0,1-7.58-5.68c.32,2.87.66,5.73,1,8.59a.65.65,0,0,1,0,.14h.09c4.67-.15,9.4-.13,14-1.2C104.8,174.09,104.49,172.81,104.14,171.55Z"/><path class="cls-2" d="M89.16,158.87q.34,3.87.76,7.72c2.56,2.28,5.06,5.2,8.47,6.26,1.65.52,4.51.52,5-1.72a2,2,0,0,0-1.4-2.53,3.6,3.6,0,0,0-1.34-.23c-1.25.13-1.43.75-.52,1.85.51-.22,1,.49.45.77-2.25,1.18-3.05-2.67-.76-3.36a4,4,0,0,1,3.3.57c-.61-1.77-1.23-3.55-1.85-5.32-.23-.67-.47-1.32-.71-2a2.93,2.93,0,0,1-1.42,1.61C95.08,164.58,91.5,162,89.16,158.87Z"/><path class="cls-2" d="M92.79,152.68c-1.91-.77-3.23-2.57-4.39-4.25,0,.61.06,1.21.1,1.82q.23,3.57.53,7.13c1.25,1.79,2.66,3.81,4.77,4.5a6.8,6.8,0,0,0,4.16.17c.84-.32,2-1.05,1.9-2.13a1.58,1.58,0,0,0-.72-1.38c-1.07-.09-1.61.24-1.62,1-.07.48-.85.36-.84-.12a2,2,0,0,1,2.67-1.78c-.72-2-1.44-4.06-2.18-6.08A3.45,3.45,0,0,1,92.79,152.68Z"/><path class="cls-2" d="M91.3,144.08a8.06,8.06,0,0,1-3.27-3.5c.09,2.33.19,4.66.32,7,0,0,.07,0,.09,0,1.49,1.43,2.83,3.89,5,4.38,1.27.28,3.32,0,3.33-1.67l-.18-.5c-.12-.34-.25-.68-.38-1a1.56,1.56,0,0,0-.54-.4c-.52-.22-1.92-.31-1.56.71.13.36-.35.55-.6.34-1.28-1.08.64-2.38,1.79-2.08a2.54,2.54,0,0,1,.44.15c-.53-1.43-1.07-2.86-1.61-4.29A2.05,2.05,0,0,1,91.3,144.08Z"/><path class="cls-2" d="M85.78,137.3a3.3,3.3,0,0,0,.64-1.12c.2-.56.36-1.13.54-1.69,0-1.4,0-2.79,0-4.18,0-.4,0-.82,0-1.24-.06.34-.12.68-.19,1-.45,2.19-1,4.36-1.54,6.51-.06.25-.14.5-.2.75C85.06,137.66,85.44,137.7,85.78,137.3Z"/><path class="cls-2" d="M87.88,131.49c.36.38.5,1.1.8,1.52a1.91,1.91,0,0,0,.95.78c.27.07.69.1.87-.11l-1.27-3.33c-.46-1.19-1-2.4-1.45-3.62,0,1.38,0,2.79,0,4.12,0,.16,0,.32,0,.48A.21.21,0,0,1,87.88,131.49Z"/><path class="cls-2" d="M88.82,134.25a3.53,3.53,0,0,1-1-1.26c0,.29,0,.58,0,.88a.29.29,0,0,1,0,.32h0c0,1.05,0,2.09.07,3.13,0,.48,0,1,0,1.44.59.87,1,1.84,1.62,2.69a5.4,5.4,0,0,0,1.73,1.7,1.5,1.5,0,0,0,2.36-1.05c-.66-1.76-1.3-3.52-2-5.27-.3-.8-.61-1.6-.91-2.39A2,2,0,0,1,88.82,134.25Z"/><path class="cls-2" d="M83.83,145.58a2.31,2.31,0,0,0,.79-.52,8.5,8.5,0,0,0,1.15-1.39,8.18,8.18,0,0,0,.83-1.61,4.74,4.74,0,0,1,.5-1.28l0,0c0-1.3-.1-2.6-.13-3.9a2.6,2.6,0,0,1-1.33,1.46,1.46,1.46,0,0,1-1,0c-.6,2.19-1.2,4.39-1.81,6.58C83,145.35,83.28,145.81,83.83,145.58Z"/><path class="cls-4" d="M90.21,187.74c.07,1.74.16,3.49.33,5.23.1,1.09.29,2.19.41,3.29a4.37,4.37,0,0,1,.32-.55.3.3,0,0,1,.47-.06c.26.26.54.5.81.74A67.8,67.8,0,0,1,91,187a46.33,46.33,0,0,1-.28-5.14,39.63,39.63,0,0,1,0-4.36l-.78,0C90.35,180.88,90.07,184.37,90.21,187.74Z"/><path class="cls-4" d="M179.31,126.27c0,.1-.08.23-.13.37l1.34-1.51a.3.3,0,0,1,.46.08c.2.51.41,1,.61,1.52,0-.6.1-1.19.16-1.79a.3.3,0,0,1,.52-.18,5.12,5.12,0,0,0,2,1.09l-1-1.23a.34.34,0,0,1,.18-.56,7,7,0,0,0,1.45-.33,8.06,8.06,0,0,1-2.33-.43.33.33,0,0,1-.12-.56c.5-.56,1-1.14,1.45-1.72-.65.32-1.3.76-1.88,1.07-.26.14-.49-.13-.44-.39a12.26,12.26,0,0,0,.31-2.55,8.38,8.38,0,0,0-1.22,2,.34.34,0,0,1-.5.17l-1.29-1a15.11,15.11,0,0,0,.77,1.69c.17.34-.22.61-.52.46a13.75,13.75,0,0,0-1.76-.79c.55.52,1.18.94,1.76,1.48.22.21,0,.51-.19.59s-1,.25-1.65.48l2,.06a.32.32,0,0,1,.14,0,.3.3,0,0,1,.3.39Z"/><path class="cls-4" d="M184.54,186.45a68.17,68.17,0,0,0,1.33,8.15.13.13,0,0,1,0-.06.32.32,0,0,1,.39-.23,5.07,5.07,0,0,1,1.22.64,70.26,70.26,0,0,1-2.37-8.75,32.89,32.89,0,0,1-.59-4.64,26.63,26.63,0,0,1,0-4.64h0l-.68,0c.25,1.43.13,2.92.29,4.37C184.27,183,184.36,184.73,184.54,186.45Z"/><path class="cls-2" d="M173.68,171.29c.25.36-.29.74-.58.45-2.16-2.13-4.36,1.92-1.8,3.12,1.85.86,3.54-.31,4.95-1.44a19.65,19.65,0,0,0,5.57-6.49s0,0,0,0q-.47-4.26-.83-8.54a21.4,21.4,0,0,1-3,4,5.7,5.7,0,0,1-4.77,2.08,2.83,2.83,0,0,1-1.95-1.14q-.65,3.75-1.11,7.52A2.49,2.49,0,0,1,173.68,171.29Z"/><path class="cls-2" d="M173.63,160.16c.35.19.09.65-.25.6-2-.31-2.12,2.73-.06,2.77a4.46,4.46,0,0,0,1.74-.22,6.51,6.51,0,0,0,2.55-1.95,46.59,46.59,0,0,0,3.26-4.55s0-.07,0-.1l-.12-.2a.3.3,0,0,1,.07-.41c-.16-2-.3-4-.43-6-1,2.55-3.09,5.4-5.74,5.06a2.21,2.21,0,0,1-1.57-.92c-.47,2-.9,4.1-1.3,6.16A1.56,1.56,0,0,1,173.63,160.16Z"/><path class="cls-2" d="M174.53,151.44c-.83.57-1.57,2.13-.32,2.68a2.69,2.69,0,0,0,3.08-.93,15.39,15.39,0,0,0,3-5.22c-.1-1.84-.2-3.68-.28-5.52a8.23,8.23,0,0,1-2.31,2.9,1.75,1.75,0,0,1-2.2.21c-.05,0-.08-.1-.13-.15-.33,1.18-.66,2.36-1,3.55l-.48,1.91a4,4,0,0,1,1.62-.57.34.34,0,0,1,.17.63A11.32,11.32,0,0,0,174.53,151.44Z"/><path class="cls-2" d="M182,168.46a19.76,19.76,0,0,1-4.78,5.33c-1.73,1.38-3.62,2.82-5.94,2.05a2.93,2.93,0,0,1-1.58-1.25c-.07.65-.14,1.3-.2,2,4.48-.21,9-.36,13.44-.5,0,0,0,0,0-.06C182.6,173.49,182.3,171,182,168.46Z"/><path class="cls-2" d="M196.91,171c-1,2.63-4.15,3-6.51,2a20.59,20.59,0,0,1-7.58-5.68c.31,2.86.65,5.72,1,8.58a.76.76,0,0,1,0,.15h.1c4.66-.15,9.4-.12,14-1.2C197.57,173.53,197.26,172.26,196.91,171Z"/><path class="cls-2" d="M181.93,158.31q.33,3.87.75,7.72c2.57,2.28,5.07,5.21,8.47,6.26,1.66.52,4.52.52,5-1.71a2,2,0,0,0-1.4-2.54,3.64,3.64,0,0,0-1.34-.23c-1.26.13-1.43.75-.53,1.85.52-.22,1,.49.45.77-2.25,1.19-3-2.67-.76-3.36a4,4,0,0,1,3.3.58q-.92-2.67-1.84-5.33c-.23-.66-.48-1.32-.71-2a2.91,2.91,0,0,1-1.43,1.61C187.85,164,184.27,161.46,181.93,158.31Z"/><path class="cls-2" d="M185.56,152.12c-1.91-.77-3.24-2.56-4.39-4.25,0,.61.06,1.22.1,1.83.15,2.37.33,4.75.52,7.13,1.26,1.78,2.66,3.81,4.78,4.49a6.78,6.78,0,0,0,4.15.17c.85-.32,2-1.05,1.9-2.13a1.58,1.58,0,0,0-.72-1.38c-1.07-.09-1.61.24-1.61,1-.07.48-.86.36-.84-.11a2,2,0,0,1,2.67-1.78L189.94,151A3.45,3.45,0,0,1,185.56,152.12Z"/><path class="cls-2" d="M184.07,143.53A8.14,8.14,0,0,1,180.8,140q.12,3.49.32,7l.09,0c1.48,1.43,2.82,3.9,4.95,4.38,1.27.28,3.32,0,3.34-1.67l-.18-.5c-.13-.34-.26-.68-.38-1a1.81,1.81,0,0,0-.54-.4c-.52-.22-1.93-.31-1.57.71.13.37-.35.56-.59.35-1.29-1.09.64-2.38,1.79-2.09a3.75,3.75,0,0,1,.43.16c-.53-1.44-1.07-2.86-1.6-4.29A2.07,2.07,0,0,1,184.07,143.53Z"/><path class="cls-2" d="M178.55,136.75a3.41,3.41,0,0,0,.64-1.13c.19-.56.36-1.13.54-1.69,0-1.39,0-2.79-.06-4.18,0-.4,0-.82,0-1.23-.06.33-.11.67-.18,1-.45,2.18-1,4.35-1.54,6.5l-.21.76C177.83,137.11,178.2,137.15,178.55,136.75Z"/><path class="cls-2" d="M180.65,130.93c.36.38.49,1.11.8,1.52a1.91,1.91,0,0,0,1,.78c.26.07.69.1.87-.11L182,129.79c-.45-1.19-1-2.4-1.44-3.61,0,1.38,0,2.78,0,4.11,0,.16,0,.33,0,.49A.19.19,0,0,1,180.65,130.93Z"/><path class="cls-2" d="M181.58,133.7a3.53,3.53,0,0,1-1-1.27c0,.29,0,.59,0,.88a.31.31,0,0,1,0,.32h0c0,1.05,0,2.09.07,3.13,0,.48,0,1,0,1.44.58.87,1,1.84,1.62,2.69a5.54,5.54,0,0,0,1.73,1.71,1.5,1.5,0,0,0,2.35-1.06q-1-2.64-2-5.27l-.92-2.39A2,2,0,0,1,181.58,133.7Z"/><path class="cls-2" d="M176.6,145a2.18,2.18,0,0,0,.78-.52,8.08,8.08,0,0,0,2-3,5.42,5.42,0,0,1,.5-1.27s0,0,0,0c-.05-1.3-.11-2.6-.13-3.9a2.62,2.62,0,0,1-1.34,1.46,1.38,1.38,0,0,1-1,0q-.9,3.3-1.81,6.58C175.79,144.8,176.05,145.25,176.6,145Z"/><path class="cls-4" d="M183,187.18c.08,1.75.17,3.49.33,5.23.1,1.1.3,2.19.42,3.29.1-.18.19-.37.31-.55a.31.31,0,0,1,.48-.06c.26.26.53.5.81.75a66.36,66.36,0,0,1-1.54-9.39,49.16,49.16,0,0,1-.27-5.14,37.31,37.31,0,0,1,0-4.36l-.77,0C183.12,180.33,182.83,183.81,183,187.18Z"/><path class="cls-2" d="M154.4,79.82c-11.66,6.33-30.48,10.75-42.46,2.81-1.22-.8-2.63.76-1.94,1.94,3.25,5.62,13.83,5.44,19.47,5.5a52.28,52.28,0,0,0,26.61-7.37A1.67,1.67,0,0,0,154.4,79.82Z"/><path class="cls-2" d="M163.82,83.09c-18.77,9.79-43.81,19.49-61.32,2a1.48,1.48,0,0,0-2.08,2.09c18.09,18.5,45.45,9,65-1.4C167.13,84.81,165.58,82.17,163.82,83.09Z"/><path class="cls-4" d="M125.78,91v.79c0,.07.12.07.12,0V91A.06.06,0,0,0,125.78,91Z"/><path class="cls-4" d="M172.92,88.38C161.49,96.16,148.14,99.2,134.5,100c-13.85.79-28.32-1-39.39-10-1.44-1.18-3.53.84-2.08,2.09,10.42,9,24.2,11.48,37.62,11.46,15.44,0,31.14-3.36,43.91-12.33C176.25,90,174.66,87.2,172.92,88.38Z"/><path class="cls-4" d="M96,93a62.93,62.93,0,0,0-4.85,6,1.78,1.78,0,0,0,0,1.77,1.4,1.4,0,0,0,1.05.8,1.72,1.72,0,0,0,1.7-.45,62.49,62.49,0,0,0,4.75-6C99.65,93.45,97.28,91.68,96,93Z"/><path class="cls-4" d="M101.62,97.13a24.18,24.18,0,0,0-1.69,3.23,8.55,8.55,0,0,0-1.13,3.4,1.56,1.56,0,0,0,2.65,1.1,8.43,8.43,0,0,0,1.56-3.21,23.79,23.79,0,0,0,1-3.5A1.33,1.33,0,0,0,101.62,97.13Z"/><path class="cls-4" d="M112.19,101.23a1.41,1.41,0,0,0-2.75-.37,24.36,24.36,0,0,0-.94,5.38,1.79,1.79,0,0,0,1.3,1.71,1.77,1.77,0,0,0,2.24-1.71A22.12,22.12,0,0,0,112.19,101.23Z"/><path class="cls-4" d="M121,107.89a27.76,27.76,0,0,1-.42-4.37,1.5,1.5,0,0,0-2.93-.4,8.55,8.55,0,0,0,.09,5.67A1.69,1.69,0,0,0,121,107.89Z"/><path class="cls-4" d="M134.71,108.74c-.17-.84-.66-1.6-.89-2.44a29.27,29.27,0,0,0-.45-2.9,1.43,1.43,0,0,0-2.58-.34c-1.19,1.81-.32,5.85,1.29,7.22A1.59,1.59,0,0,0,134.71,108.74Z"/><path class="cls-4" d="M145.84,105.2a10.44,10.44,0,0,1-1.37-3.22c-.4-1.55-3-1.27-2.84.38a11.53,11.53,0,0,0,1,3.88c.52,1.17,1.55,3,3,2.81a1.31,1.31,0,0,0,1.25-1C147.22,106.91,146.45,106.14,145.84,105.2Z"/><path class="cls-4" d="M155.61,104a10.23,10.23,0,0,0-1.39-1.7,7.86,7.86,0,0,1-1.09-2.09,1.51,1.51,0,0,0-1.41-1.08,1.47,1.47,0,0,0-1.47,1.47c.18,2.11,1.34,5,3.54,5.77C155.25,106.88,156.18,105.22,155.61,104Z"/><path class="cls-4" d="M164.83,102c-.2-1.15-1.57-1.59-2.38-2.29a10,10,0,0,1-1.68-2.41c-.77-1.19-2.94-.83-2.83.77a7.27,7.27,0,0,0,1.87,3.91c.92,1.14,2.85,2.63,4.32,1.74A1.57,1.57,0,0,0,164.83,102Z"/><path class="cls-4" d="M172.27,99.5a2.55,2.55,0,0,0-1-1.36c-.57-.34-1.24-.49-1.82-.82A20.26,20.26,0,0,1,166.77,95a1.34,1.34,0,0,0-2.22,1.29c.27,1.57,1.65,2.91,2.87,3.82s3.08,1.82,4.52.61A1.23,1.23,0,0,0,172.27,99.5Z"/><path class="cls-4" d="M176,94.92a9.54,9.54,0,0,1-3.09-2.87,1.72,1.72,0,0,0-1.89-.77,1.68,1.68,0,0,0-1.18,2.06,8.3,8.3,0,0,0,4.83,4.71C176.52,98.75,177.61,95.88,176,94.92Z"/><path class="cls-2" d="M123.62,225.28a.06.06,0,0,0,0,.12C123.69,225.4,123.69,225.28,123.62,225.28Z"/><path class="cls-2" d="M123.62,224.17a1.18,1.18,0,0,0,0,2.35A1.18,1.18,0,0,0,123.62,224.17Z"/><path class="cls-2" d="M157.67,224.08c-8.72-6.33-26.23-5.81-35,.07a1.37,1.37,0,0,0,1.05,2.49c5.62-1.35,10.57-3.15,16.47-3.3s10.89,2.09,16.51,3.13A1.32,1.32,0,0,0,157.67,224.08Z"/><path class="cls-2" d="M168.29,219.49a55.24,55.24,0,0,0-29.93-7.25c-9.24.31-20.73,3.16-27.6,9.69-1.05,1,.28,2.37,1.44,1.86,8.84-3.91,16.27-7.63,26.16-8.26a50.39,50.39,0,0,1,28.19,6.93A1.72,1.72,0,0,0,168.29,219.49Z"/><path class="cls-2" d="M175.68,215.62c-11-6.09-22.6-10.63-35.29-10.51-13.08.12-26.61,5.82-37.65,12.44a1.65,1.65,0,0,0,1.66,2.85c10.47-5.93,21.93-10.53,34-11.69,12.55-1.2,24.78,4,35.45,10C175.89,219.91,177.72,216.75,175.68,215.62Z"/><path class="cls-2" d="M105.27,215.51a16.43,16.43,0,0,0-2.14-1.55,18.24,18.24,0,0,1-2-1.82,1.46,1.46,0,0,0-2.27.29,1.44,1.44,0,0,0,0,1.46h0c1.06,1.64,3.05,3.62,5,4A1.46,1.46,0,0,0,105.27,215.51Z"/><path class="cls-2" d="M110.07,211.71a36.92,36.92,0,0,0-2.65-3.07,1.46,1.46,0,0,0-2.29,1.76,33.89,33.89,0,0,0,2,3c.71.92,1.75,2.32,3.09,1.54S110.75,212.59,110.07,211.71Z"/><path class="cls-2" d="M116.31,207.57A9.24,9.24,0,0,0,115,205c-.8-1-2.34-.11-2.37,1a7.73,7.73,0,0,0,.46,2.51,11.2,11.2,0,0,0,1,2.77c.8,1.28,3.17.88,3-.82A11.25,11.25,0,0,0,116.31,207.57Z"/><path class="cls-2" d="M123.89,207.8A16.92,16.92,0,0,1,123,206a10.78,10.78,0,0,1-.37-2.19c-.23-1.64-2.66-1.39-3,0A6.09,6.09,0,0,0,121.7,210C123.12,211,124.52,209.11,123.89,207.8Z"/><path class="cls-2" d="M130.62,204.31a13.3,13.3,0,0,1-.21-1.56,1.7,1.7,0,0,0-1.66-1.66,1.68,1.68,0,0,0-1.66,1.66c0,1.53.13,3.32,1.08,4.55a1.54,1.54,0,0,0,1.55.41,1.65,1.65,0,0,0,1.18-1.53A5.7,5.7,0,0,0,130.62,204.31Z"/><path class="cls-2" d="M137.56,204.65a7.92,7.92,0,0,1-.19-3.49,1.43,1.43,0,0,0-2.6-1.1,6.41,6.41,0,0,0-.32,5.9C135.29,207.78,138,206.44,137.56,204.65Z"/><path class="cls-2" d="M145.88,200.88a1.58,1.58,0,0,0-2.62-.69,4.84,4.84,0,0,0-1,2.5c-.19,1-.48,1.93.13,2.81a1.5,1.5,0,0,0,2,.53,3.15,3.15,0,0,0,1.28-2.4A5.61,5.61,0,0,0,145.88,200.88Z"/><path class="cls-2" d="M153.5,201a1.18,1.18,0,0,0-2,0c-.64,1.1-.59,2.62-.86,3.85-.49,2.14,2.87,3,3.24.9C154.13,204.34,154.46,202.27,153.5,201Z"/><path class="cls-2" d="M161.41,202.75a1.47,1.47,0,0,0-1.06-1.39,1.45,1.45,0,0,0-1.78,1c-.11.7-.26,1.4-.37,2.11a10.77,10.77,0,0,0-.36,2.25,1.57,1.57,0,0,0,2.9.78A8.49,8.49,0,0,0,161.41,202.75Z"/><path class="cls-2" d="M169,206.39a1.46,1.46,0,0,0-1.41-1.08,1.49,1.49,0,0,0-1.41,1.08c-.22.55-.41,1.12-.62,1.69a7,7,0,0,1-1,1.57c-1.13,1.59,1.36,3.44,2.66,2.06A6.46,6.46,0,0,0,169,206.39Z"/><path class="cls-2" d="M172.54,209.67a20,20,0,0,1-1.71,2.89,1.73,1.73,0,0,0,.27,2.11,1.77,1.77,0,0,0,2.47,0,6.43,6.43,0,0,0,1.86-4.22C175.53,209,173.18,208.28,172.54,209.67Z"/><path class="cls-2" d="M173.87,222.27c10.72-4.71,16.67-11.23,24.24-20.24,12.94-15.38,13.34-34.29,12.33-53.45a77,77,0,0,0-19.1-46.89C180.88,89.56,164,78.3,147.59,77.93c-1.84,0-1.83,2.77,0,2.85,15.88.73,30.76,12.29,41,23.67,11.68,13,17.11,29.19,18,46.42.94,18.38-.05,35.29-12.29,49.94-7.27,8.7-11.07,12.28-21,17.51-7.12,3.76-15.62,8.11-24.71,8.5-7.18.31-19.79.44-26.88-1.36-2.81-.72-5.63-2-8.47-2.87a74.16,74.16,0,0,1-9.52-3.66,69.17,69.17,0,0,1-16.64-11c-13.59-12.09-21.7-29.71-23.8-47.61C59,123.63,85.62,88.58,121.39,81.09c2-.43,1.18-3.6-.86-3.13-38.27,8.75-65.39,44.87-60.81,84.14A79.31,79.31,0,0,0,85.8,211.7c8.65,7.67,19,12.23,30.08,15.28a87.13,87.13,0,0,0,28.36,3.25C153.73,229.66,165.34,226,173.87,222.27Z"/><path class="cls-4" d="M146.53,77.32c-.1,3.71-3-.35-3.32-1.86-.52-2.52-3.2-2.94-5.15-2.27-.86.3-1,1-1.38,1.82a1.38,1.38,0,0,0-.19.71l-4.11,1.15a29.29,29.29,0,0,1-.92-3.33,1.3,1.3,0,0,0-.9-.89c-2.07-.53-3.14.14-4.28,1.92-1.5,2.36-4.84,4.42-4.89.15,0-2.6,0-5.47,1.52-7.59,5.45-1.81,10.85-1.57,16.53-1.39,4.14.13,5.8,3.5,6.78,7A15.68,15.68,0,0,1,146.53,77.32Zm2.87-3.73c-.61-3.69-2.34-10.65-7.15-10.87-6.63-.32-13.61-1.15-19.93,1.17-3.41.4-3.8,5.74-3.94,8.69-.19,4.28-.33,10.12,5.36,9.69a5,5,0,0,0,3.51-2.46,18.35,18.35,0,0,0,1.35-3c1-2.58,1.41,2.53,1.76,3.36,1.31,3.12,7.16,1.26,8.45-1a4.56,4.56,0,0,0,.44-2.1c.11-2.54,1.75,2.34,1.85,2.52,1.1,1.87,3,2,4.92,2.1C150.13,81.9,149.85,76.31,149.4,73.59Z"/></g></g></svg>