<svg xmlns="http://www.w3.org/2000/svg" viewBox="0 0 270 270"><defs><style>.cls-1{fill:#fff;}.cls-2{fill:#a78126;}.cls-3{fill:#002d26;}.cls-4{fill:#a01a22;}</style></defs><g id="Capa_2" data-name="Capa 2"><g id="Home"><rect class="cls-1" width="270" height="270" rx="9.75"/><path class="cls-2" d="M189,207.25c-.13,1.09-.25,2.2-.39,3.29a14.26,14.26,0,0,1-.23,1.48,9.32,9.32,0,0,1-.48,1.76,3.29,3.29,0,0,0-.17,2.66,2.11,2.11,0,0,1-.2,1.92,8.27,8.27,0,0,0-1.14,2.84,2.87,2.87,0,0,1-.68,1.21,3,3,0,0,0-.73,2.48c.15,1.12.3,2.25.49,3.38a7.18,7.18,0,0,1-.11,2.81,15.64,15.64,0,0,1-1.41,3.91c-.6,1.12-1.16,2.27-1.72,3.42a9.74,9.74,0,0,1-2.67,3.27,6.23,6.23,0,0,0-1.85,2.32,8.28,8.28,0,0,1-1.78,2.5c-.43.42-.81.91-1.24,1.35a18.15,18.15,0,0,1-1.68,1.6,13.18,13.18,0,0,0-2.87,3c-.71,1-1.41,2.06-2.07,3.12a10.38,10.38,0,0,1-2.5,2.66,40.07,40.07,0,0,1-6.46,4.26c-.77.39-1.56.73-2.36,1a5.47,5.47,0,0,1-3.11.21,9,9,0,0,0-2.48,0,17.63,17.63,0,0,1-3.91,0,16.52,16.52,0,0,0-8.07,1.24,8.57,8.57,0,0,1-3.49.63,8.62,8.62,0,0,0-3.76.53,2.8,2.8,0,0,1-2.2,0,3.09,3.09,0,0,0-2.35-.05,2.78,2.78,0,0,1-1.14.17,17.31,17.31,0,0,1-9-3,5.46,5.46,0,0,0-1.65-.74,4.12,4.12,0,0,1-1.89-1.15,12.12,12.12,0,0,0-3.77-2.68c-1.32-.58-1.61-1.07-1.45-2.53a2.06,2.06,0,0,0,0-.82c-.18-.61-.49-.78-1.13-.67a2.24,2.24,0,0,0-.64.17,3.26,3.26,0,0,1-2.19.28,4,4,0,0,0-2,.28,1.6,1.6,0,0,1-2.26-.88,3,3,0,0,1-.25-.62,18.24,18.24,0,0,0-1.22-3.36,3.35,3.35,0,0,1-.23-1.54A3.44,3.44,0,0,0,97,245.8a26.17,26.17,0,0,0-4.84-2.92,5,5,0,0,1-1.83-1.41c-.7-.89-1.45-1.75-2.14-2.66-.57-.75-1.11-1.53-1.6-2.33a7.6,7.6,0,0,1-.61-1.54c-.2-.61-.38-1.22-.53-1.84a7.71,7.71,0,0,1-.27-1.63,44.06,44.06,0,0,1,.14-6.08,9.35,9.35,0,0,0-.1-1.82c-.09-1.1-.2-2.21-.26-3.31-.08-1.28-.06-2.56-.18-3.83a5.55,5.55,0,0,0-.56-1.9,23.94,23.94,0,0,1-1.92-6,1.79,1.79,0,0,1,.42-1.39c.6-.88.58-1-.3-1.65-.16-.12-.32-.22-.47-.34-.41-.35-.52-.63-.25-1.09a1.2,1.2,0,0,0,0-1.24,8.18,8.18,0,0,1-.66-3.08,2.82,2.82,0,0,1,.87-2.26,17.7,17.7,0,0,1,2.27-2.31.61.61,0,0,0-.11-1.13,2.21,2.21,0,0,0-1-.17c-.76,0-.89-.1-1-.87s-.18-1.32-.32-2a4.47,4.47,0,0,1,0-2.38,2.59,2.59,0,0,0,.16-1,6.38,6.38,0,0,1,1.43-4A6.5,6.5,0,0,1,86,181.1a1.13,1.13,0,0,0,.49-.43A9.34,9.34,0,0,1,89.6,178l1.87-1.24a13.6,13.6,0,0,1,1.35-.83,53.27,53.27,0,0,1,7.47-3.26,36.24,36.24,0,0,0,6.35-2.72,39,39,0,0,0,3.6-2.07,5.38,5.38,0,0,1,1.72-.58c.42-.11.89-.1,1.3-.25a3.57,3.57,0,0,0,1.18-.72,2.52,2.52,0,0,1,1.49-.83,1.3,1.3,0,0,0,1.09-.8,3.15,3.15,0,0,1,1.12-1.2,25,25,0,0,1,7.11-3.38,3.49,3.49,0,0,0,.7-.27,40.07,40.07,0,0,1,6-2.24c1.69-.54,3.36-1.15,5-1.73.45-.15.9-.27,1.35-.41a3.83,3.83,0,0,0,1-.38,3.52,3.52,0,0,1,3.58-.19,34,34,0,0,0,4.13,1.74,3.46,3.46,0,0,1,1.22.85,5,5,0,0,0,2.66,1.29,3.62,3.62,0,0,1,2.56,1.54,2.87,2.87,0,0,0,.71.57c.15.11.37.15.51.27.86.71,1.68,1.47,2.59,2.14a1.94,1.94,0,0,1,.48,2.3,2.58,2.58,0,0,0,.07,1.93,3.58,3.58,0,0,1,.21,1.62,2.73,2.73,0,0,0,1.53,3,15.31,15.31,0,0,1,4,3.24,24.44,24.44,0,0,0,2.71,2.47,6.09,6.09,0,0,0,1.51.86c.78.31,1.16.07,1.28-.76a9.14,9.14,0,0,0-.09-3.72,4.13,4.13,0,0,1-.18-1,3.63,3.63,0,0,1,.12-1.23,1.16,1.16,0,0,1,1.58-.8,5.07,5.07,0,0,1,2.4,1.44,17.7,17.7,0,0,0,3.17,2.94,5.57,5.57,0,0,1,1.58,2c1.1,2,2.23,4,3.28,6.09.63,1.23,1.15,2.52,1.71,3.79.16.38.29.78.46,1.16.94,2.14,1.89,4.27,2.83,6.4a15.56,15.56,0,0,1,1.17,4.4,15.46,15.46,0,0,0,1,4A14.81,14.81,0,0,1,189,207.25ZM140.73,260.5c.56,0,1.11,0,1.67,0a12.23,12.23,0,0,0,3.46-.4,43.34,43.34,0,0,0,13.1-5.84c1-.66,1.91-1.45,2.94-2a22.23,22.23,0,0,0,3.4-2.53l5.93-5.12a4.09,4.09,0,0,1,.53-.4,8.84,8.84,0,0,0,2.78-2.83,4.51,4.51,0,0,0,.8-2,24.2,24.2,0,0,1,1.34-5.49,3.26,3.26,0,0,0,.21-.8c.08-.9-.47-1.32-1.3-1a3.52,3.52,0,0,0-.63.4,4.25,4.25,0,0,0-1.44,2.27,5.49,5.49,0,0,1-2.83,3.64,24,24,0,0,1-2.46,1,4.42,4.42,0,0,0-1.84,1.09,4.07,4.07,0,0,1-2.15,1.21,2.49,2.49,0,0,0-2.15,1.93c0,.05,0,.1-.05.16a2.38,2.38,0,0,1-1.63,1.53A15.39,15.39,0,0,0,159,246c-.68.3-1.36.63-2.06.88a2.49,2.49,0,0,0-1.39,1,1.86,1.86,0,0,1-.88.72,2,2,0,0,0-1.55,1.75,1.43,1.43,0,0,1-1.34,1.28,7.11,7.11,0,0,0-2.41.87,4.06,4.06,0,0,1-2.07.55,2.7,2.7,0,0,0-2.51,1.2,1.88,1.88,0,0,1-1.52.9,8.73,8.73,0,0,1-2.56-.13,7.81,7.81,0,0,0-3.53-.15,3.06,3.06,0,0,0-2.54,1.61,2,2,0,0,1-1.59,1.09,2.43,2.43,0,0,0-.79.25,1,1,0,0,0,0,1.69,2.43,2.43,0,0,0,.93.34C135.65,260.07,138.14,260.81,140.73,260.5Zm38.82-51.43a13.75,13.75,0,0,0-.56-4.4,2.54,2.54,0,0,0-1.13-1.69c-.77-.46-1.24-.26-1.3.63a12.82,12.82,0,0,0,.06,2.48,7.35,7.35,0,0,1-.73,4.36,14,14,0,0,0-1,2.73,16.53,16.53,0,0,1-1.47,4A4.28,4.28,0,0,0,173,219c-.16,2.17.92,4,1.87,5.77.4.76,1.07.8,1.75.24a3.72,3.72,0,0,0,1.27-1.91c.16-.56.39-1.1.56-1.65a18,18,0,0,0,.61-2.23c.22-1.26.36-2.53.51-3.8a18.58,18.58,0,0,0,.16-2.23C179.71,211.79,179.62,210.4,179.55,209.07Z"/><path class="cls-3" d="M145.39,179.64c.81,0,1.6.14,2.39.13l-.19,0c2.12.17,4.24.39,6.36.39a2.08,2.08,0,0,1,2,1.62,5,5,0,0,1-.16,2.54v-.17a4.81,4.81,0,0,1-.63,1.78,6.76,6.76,0,0,0-.45,1.45l-.6,2.23c-.17.66-.21,1.32-.33,2-.22,1.27-.63,2.41-.83,3.7-.15,1,.2,2.32-1.1,2.55a2.82,2.82,0,0,1-2.21-.43c-.39-.33-.31-.82-.27-1.28a16.33,16.33,0,0,1,.3-2.1,12.63,12.63,0,0,0,.41-2.26c0-.14.07-1.35-.13-1.36a2.11,2.11,0,0,0-1.6-.84h.12c-.7,0-1.36-.19-2.08-.19h-4.62a5,5,0,0,1-.95,0l.14-.05c-2.14.52-4.46.22-6.63.23s-4.46-.12-6.69-.18c0,.83-.13,2.09-.18,2.7-.11,1.36-.21,2.73-.38,4.09v.12l0,.53v5.76c0,1.09.2,2.16.21,3.25v3.54a16.44,16.44,0,0,1,9-2.48h2.58c.6,0,1.18.19,1.78.2s1.39.2,2.08.2a15.33,15.33,0,0,1,2.14.19,3.14,3.14,0,0,0,.61,0,4.78,4.78,0,0,1,1.34.33,8.23,8.23,0,0,1,2.36,1.36,7.75,7.75,0,0,1,3.25,4.07,35.22,35.22,0,0,1,1.23,5.4l.67,2.9a12.43,12.43,0,0,1,.08,2.92c0,1.07,0,2.14,0,3.21v1.62c0,.06.06.59,0,.39a23.55,23.55,0,0,1,.29,2.79c.08.86.12,1.72.12,2.59a41.87,41.87,0,0,1-.24,5.48l0-.16a4.88,4.88,0,0,1-.43,2.28,12.71,12.71,0,0,1-1.28,2.52,14.58,14.58,0,0,1-3.92,3.87,20.55,20.55,0,0,1-10.86,3.44h.19a10.58,10.58,0,0,1-3,.19,15.85,15.85,0,0,1-3.77,0,19.85,19.85,0,0,1-3.24-1.59,8.37,8.37,0,0,1-2.77-1.64,7.29,7.29,0,0,1-1.58-3l-1.12-3.35A17,17,0,0,1,121.6,240a15.79,15.79,0,0,1-.43-2,3.22,3.22,0,0,0-.13-.87c-.13-.75-.18-1.51-.3-2.26l.18.31a4.35,4.35,0,0,1-.25-2.69,6.89,6.89,0,0,1,.44-2.59,3,3,0,0,1,2.41-1.14,9,9,0,0,1,1.84-.26l-.22,0c.8-.16,1.61-.18,2.42-.27a6,6,0,0,1,2.19-.06c1.16.33,1.43,1.33,1.53,2.38,0,.44.2,1.09.3,1.61.13.71.16,1.44.31,2.14a12.45,12.45,0,0,1,.33,2,9.25,9.25,0,0,0,.12.92c0,.12.1.78,0,.68l0,.13c0-.23.19.32.18.3l.14.37.22,1c.14.64.29,1.28.38,1.92l.57,3.76a9.58,9.58,0,0,0,.75,2.62c.32.64.73.43,1.33.64a1.32,1.32,0,0,0,.63.08s.4,0,.21,0a4.87,4.87,0,0,0,1.51-.44,7.19,7.19,0,0,0,1.08-.8,7.59,7.59,0,0,0,2-2.18,49.37,49.37,0,0,0,2.06-4.89,7.68,7.68,0,0,0,.63-3.2c-.07-1.22-.07-2.45-.07-3.67a64.83,64.83,0,0,0-.37-7.76c-.27-2.27-.76-4.45-1.24-6.69a27.74,27.74,0,0,0-1.9-5.16,6,6,0,0,0-.38-.81l-.72-.63c-.2-.18-.36-.51-.58-.65a7.7,7.7,0,0,0-1-.57,7.92,7.92,0,0,0-3.79-.17,16,16,0,0,0-3.21.87c.21-.08-.39.25-.42.27l-1.22.74a13.59,13.59,0,0,0-1.45,1.18c-.46.42-.34,1.42-.52,2a5.44,5.44,0,0,1-.66,1.66c-.44.65-1.3.58-2,.53s-1.59-.15-1.77-1a3.34,3.34,0,0,1,.08-1.26,5.37,5.37,0,0,0,0-.89,5,5,0,0,1,.19-1.92v.17c0-1.44.2-2.89.19-4.29v-3.83c0-.08-.06-.3,0-.36l0,.17a41.74,41.74,0,0,1-.2-6.71,34.86,34.86,0,0,1,.38-5.59c0-1,.21-1.91.21-2.87a21.46,21.46,0,0,1,.15-3l.06-.74c0-.37.19-.75.19-1.11a5.62,5.62,0,0,1,.19-2.16v.17c0-1.1,0-2.22,1.1-2.82a3.47,3.47,0,0,1,1.72-.23h2.19c1.45,0,2.92-.06,4.38,0a16.77,16.77,0,0,0,1.87.06,4.87,4.87,0,0,1,1-.12l-.21,0a46.62,46.62,0,0,1,5.91-.32Z"/><path class="cls-4" d="M97.47,69.42c.66-2.59,1.18-4.85,1.81-7.08a150.79,150.79,0,0,1,4.91-14.94,5.46,5.46,0,0,1,4.73-2.94c.72.06,1,.5.55,1.08a3.59,3.59,0,0,0-.68,1.84,3.64,3.64,0,0,1-1,2,13.18,13.18,0,0,0-2.46,5.29,58.5,58.5,0,0,0-1.4,7.59c-.5,3.63-1.22,7.22-1.68,10.86A6.58,6.58,0,0,1,100.83,77a1.84,1.84,0,0,0-.4,1c-.07.69-.36,1.21-1.17.76-.38-.21-.52,0-.76.21a3,3,0,0,1-4.58-1.72c-1-5.57-2.07-11.14-3.12-16.71,0-.31,0-.69-.39-.85-.28.12-.26.37-.26.59-.05,3.08-1,6-1.58,9a50.1,50.1,0,0,1-1.37,6.06,15.38,15.38,0,0,1-3.13,5.07.66.66,0,0,1-.26.21c-2.53.73-5,2.06-7.72.77a10.07,10.07,0,0,1-4.16-3.89,25.26,25.26,0,0,1-2.86-8.3c-1.15-5.53-.8-11-.32-16.6a89.78,89.78,0,0,1,1.92-10.45,6.31,6.31,0,0,0-.19-2.78c-.11-.5,0-.46.4-.6a5.1,5.1,0,0,1,2.54-.15c.5.08,1,.34,1.07.72.17.79.83.91,1.3,1.32a12.57,12.57,0,0,1,2.89,3.19c.35.61-.35,1.15,0,1.84a10.35,10.35,0,0,1,1,6.3c-.12,1,.44,2.07.17,3.09-.43,1.59.66,3.21-.2,4.76.79,2.14.44,4.39.66,6.59s.74,4.12.9,6.21c0,.24.08.48.36.48s.5-.33.59-.6c.55-1.52,1.13-3,1.59-4.57q1.88-6.3,3.64-12.62c.42-1.49.65-3,1-4.53a3.26,3.26,0,0,1,0-.45c.46-1.44,4.27-3.62,6-2.89.16.07.36,0,.36.31.12,3.59,1.2,7.07,1.31,10.67.07,2.51.3,5,.57,7.53A29,29,0,0,0,97.47,69.42Z"/><path class="cls-4" d="M216.63,73.62l1-.24c-.84,1.28-.43,2.45,0,3.61.13.32.34.6.23,1a.91.91,0,0,0,.46,1.24c.09,0,.24.17.22.23-.32,1.28,1,1.47,1.48,2.23.29.46.57.92-.06,1.22s-.24.8-.37,1.18c-.39,1.09-.77,1.4-1.89,1.07A12.24,12.24,0,0,1,215,83.84c-1.91-1.11-2.95-2.92-4-4.76-1.94-3.52-2.73-7.43-3.81-11.25-.83-2.94-.65-6-1.08-9a4.85,4.85,0,0,0-.09-.68c-.08-.23,0-.6-.38-.62s-.42.29-.53.53a26.76,26.76,0,0,0-1.93,5.72,2.7,2.7,0,0,1-.61,1.55.46.46,0,0,0-.17.29c.21,2.61-1.28,5.15-.52,7.74.69,2.37-.08,4.54-.44,6.78-.19,1.2-.85,2.53-1.76,2.88a6.88,6.88,0,0,1-3.09.61c-2.54-.18-3.55-2.08-5-3.55a1.24,1.24,0,0,1-.21-.63c-.58-3.08-1.54-6.07-2.3-9.1-1-3.85-1.92-7.7-2.62-11.6-.06-.37,0-1-.51-1s-.65.51-.7.94c-.08.78-.43,1.85-.83,2-1.5.65-.38,2.18-1.29,3.07-.5.49-.23,1.72-.42,2.59-.64,3.1-.36,6.25-.41,9.37a10.16,10.16,0,0,0,.55,4,2.94,2.94,0,0,1,0,2.09c-.35,1.13-1.51,1.25-2.39,1.5a4.29,4.29,0,0,1-3.67-.72.67.67,0,0,1-.27-.77c.61-4.6.06-9.29,1.22-13.87,1.34-5.29,2.93-10.46,6-15.07a3.37,3.37,0,0,0,.32-.7c.48-1.23.39-2.88,2.36-3,.65,0,1.26-.51,1.92-.62,1.84-.32,4.05.39,4.49,2.68a1.27,1.27,0,0,0,.15.54c1.09,1.2,1,2.78,1,4.18,0,.79,1,.24.82,1-.12.44-.5,1.07-.11,1.5,1.25,1.36,1.26,3.13,1.67,4.76.07.28.14.55.41.62s.41-.27.49-.49c.84-2.39,2-4.64,3-6.94.83-1.83,1.57-3.7,2.43-5.52a3.38,3.38,0,0,1,3.37-2.17c.44,0,.83-.48,1.4-.52,1.7-.13,2.74.85,3.62,2a7.48,7.48,0,0,1,1.53,2.74c.44,2.29,1.73,4.28,2.16,6.54.25,1.33.83,2.66.23,4a.35.35,0,0,0,0,.3c1.05,1.35.91,3,1.32,4.56.32,1.15.24,2.47,1.12,3.46.18.21.48.57-.2.66C217,72.7,216.81,73.11,216.63,73.62Z"/><path class="cls-4" d="M155.93,63.7c.06.49,0,.89.18,1.11s.6.45.26.8a.78.78,0,0,1-.92,0c-.45-.29-.71,0-1,.18s-.7.53-1.31.23-.85.39-.81.86c.13,1.83-.53,3.57-.52,5.38a19.4,19.4,0,0,0,.26,2.19,3.09,3.09,0,0,1-.61-1.66c0-.21-.08-.48-.37-.48s-.37.25-.43.46a1.53,1.53,0,0,0-.07.78A1.94,1.94,0,0,1,149.9,76c.41.47.65,0,1.07,0-.39.8-.12,1.26.75,1.19a9.36,9.36,0,0,0-1.06,4.09c0,1.5-1,2.49-2.72,2.76a2.5,2.5,0,0,1-2.83-1.82,1.1,1.1,0,0,0-.26-.49c-1.79-1.63-2.1-3.86-2.44-6.06-.5-3.24-1-6.48-1.34-9.75-.44-4.55-1.15-9.07-1-13.66,0-.48.15-1-.27-1.4a.39.39,0,0,1-.07-.41,13.51,13.51,0,0,0-.35-7.32,1.53,1.53,0,0,1-.19-.76c.11-.69.39-1.44-.83-1,0,0-.19-.13-.2-.21a.4.4,0,0,1,.41-.44c.57,0,.82-1.23,1.37-.6.84,1,1.42.27,2.13,0a5.28,5.28,0,0,1,1.44-.57c2.31-.24,3.93,1.28,4.38,3.55.3,1.54.22,3.07.41,4.59.05.48.2.36.53.41.77.12,1.37-.32,2.06-.47a64.05,64.05,0,0,1,8.25-1.3,26.1,26.1,0,0,1,7.28-.09c2.59.51,5.18,1,7.44,2.44a7.25,7.25,0,0,1,1.7,1.91c.67.89.2,1.5.31,2.17.24,1.36-.72,1.84-1.23,2.55A18.28,18.28,0,0,1,170,59.6a4.36,4.36,0,0,1-1.41.67c-.38.09-1.18,0-.6.84.18.28-.13.27-.3.28-.64,0-1.08.77-1.89.39-.42-.2-.58.48-.76.83s-.41,1-1.17,1-.81.74-.52,1.33a25.39,25.39,0,0,0,3,4.62c2,2.42,4.38,4.42,6.24,6.92.42.56.59.71-.33,1.18-2.08,1-3.3-.34-4.55-1.29a32.56,32.56,0,0,1-7.05-7.71,12.42,12.42,0,0,1-.67-1.31c-.52-1-.92-2.06-2.26-2.26C157,65,156.78,64.11,155.93,63.7Zm-7.23-3.93c1.78.27,3.48.79,5.17-.1a5.55,5.55,0,0,1,1.27-.48c1.87-.45,3.49-1.5,5.29-2.11.14,0,.24-.28.3-.45a1.53,1.53,0,0,1,.67-.73c1.37-.91,2.74-1.84,4.07-2.81a7.5,7.5,0,0,0,1.2-1.19c.37-.44.4-.82-.32-.94a16.25,16.25,0,0,0-4-.51,64,64,0,0,0-11.26,1.73c-.38.1-.84,0-.58.71.08.23-.45.64-.84.59-.58-.07,0-.37,0-.56a.36.36,0,0,0-.32-.27c-.56-.08-.52.43-.71.72s-.07.43.29.57c.84.32,1.57,1.87,1.07,2.22a1.77,1.77,0,0,0-.64,2C149.39,58.82,149.41,59.36,148.7,59.77Z"/><path class="cls-4" d="M134,77.33c-1,0-1,0-1.05,1.45-.42.13-.15-.8-.64-.45-.29.2-.15.6,0,.82.67.84-.42,1.75.12,2.62.07.1-.59.71-1.16.67a4.32,4.32,0,0,0-2.2,0c-.29.12-1.33,0-.88-1,.1-.22,0-.35-.19-.48-.77-.69-.78-1.72-1.12-2.6-.28-.72-.68-1.39-.91-2.13a12.85,12.85,0,0,1-.07-3c-.15-2.11-.21-4.22-.29-6.33,0-.53-.26-.79-.77-.73-2.32.32-4.65-.43-7,.11-.41.1-.62-.2-.9-.36-1-.56-1.4-.38-1.46.74-.11,2.13.14,4.25.08,6.39,0,1.26-.34,2.57.49,3.82.45.67-.92,2.89-1.67,3.52-1.73,1.43-3.26.06-4.85-.22-.48-.09-.91-2-.52-2.49.66-.77.46-1.64.48-2.47.07-2.68,0-5.36.14-8a37.29,37.29,0,0,1,5.53-17.87A58.06,58.06,0,0,1,120,43a10.34,10.34,0,0,1,3.71-2.54c1.51-.74,3.58.09,5,1.41,1.15,1.05,1.62,2.42,2.41,3.6,1.48,2.19,1.67,4.46,1.85,6.9.14,2.05.55,4.07.82,6.11a5.13,5.13,0,0,1,.07,1.35,2.61,2.61,0,0,0,.67,2.55c.61.59-.07,1.29-.16,1.9a21.27,21.27,0,0,0,0,4.85,38.43,38.43,0,0,1,.27,5.13,4.51,4.51,0,0,1-.94,1.85C133.48,76.52,134.19,76.86,134,77.33ZM125,56c-.11-2.47-.18-4.93-.35-7.37a4,4,0,0,0-.73-2.57c-.34-.39-.58-.56-1.08-.07a22.55,22.55,0,0,0-2.27,2.89c-1.11,1.5-1.31,3.46-2.37,5s-1.33,3.18-2,4.78a4.06,4.06,0,0,0,0,1.9c.07.52.28.76.8.73l7.33-.48c.72,0,.83-.45.84-1.06A32.83,32.83,0,0,1,125,56Z"/><path class="cls-4" d="M172.45,146.3c-.57-.36-1.06-.63,0-1.16a1.33,1.33,0,0,0,.56-1.74c-1.19-1.71-.9-3.78-1.56-5.6-.72-2-1.26-4-1.91-6.15-.88.49-.66,1.37-1,2.06a3.48,3.48,0,0,1-.76-3c.1-.9-.31-1.26-1.14-1.18-1.49.13-3,.3-4.47.48-.55.07-.7.47-.73,1a36.37,36.37,0,0,0-.09,5.22,15.61,15.61,0,0,1-.19,2.15,34.29,34.29,0,0,0,.55,6.08c.27,2.07.24,4.09-1,5.85a3.39,3.39,0,0,1-1.86,1.25c-1.4.13-2.59,1.16-4.1.81a8.61,8.61,0,0,1-2.07-.79c-.23-.12-.52-.28-.39-.56.65-1.35-.51-1.3-1.2-1.49-.5-.14-1-.28-.86-.83s.65,0,1-.17c0-1.61-1.25-2.88-1.29-4.49-.06-2.81-.11-5.62-.22-8.43a5.41,5.41,0,0,1,.67-2.7c.39-.8,1.28-2.11-.39-2.84-.29-.12-.2-.43-.2-.66,0-1.81.22-3.55,1.59-4.91.24-.25.53-.51.45-.85-.51-2.38.86-4.76-.16-7.21-.55-1.31.15-2.83.32-4.25.26-2.08.47-4.16.71-6.36-1.32.56-1.71,1.78-2.31,2.68-2.61,4-5.31,7.87-8.19,11.65-1.47,1.92-2.84,3.91-4.27,5.85-.54.72-.19,1.26.31,1.75a20.8,20.8,0,0,1,4.69,6.71,16.92,16.92,0,0,1,1.7,6,33.37,33.37,0,0,1-.44,5.54,38.24,38.24,0,0,1-3.5,10.32c-.42.92-.93,1.8-1.28,2.74a2.46,2.46,0,0,1-1.33,1.57,1,1,0,0,0-.5.35c-1.54,2.8-4.26,3.53-7.08,3.71a7.18,7.18,0,0,1-4.17-1.57c-1-.67-2-1.49-3-2.26-.6-.48-1.14-.83-1.31.53-.21-1-.51-1.72-1.46-2-.32-.08-.32-.47-.3-.76a70,70,0,0,1,.91-8,59.92,59.92,0,0,1,3.48-11.21,26.58,26.58,0,0,1,2.79-5.17c1-1.45.58-2.55-.31-3.69-1-1.31-2.1-2.6-3.19-3.85a24.57,24.57,0,0,1-6.18-13.31c-.36-3,.68-5.77,2.09-8.38.28-.51.63-1,1-1.47,1.82-2.81,4.5-4.75,7.09-6.71a20.86,20.86,0,0,1,3.35-1.65c1.15-.57,3.63.38,4.57,1.55.62.78,1.25,1.56,2,2.28a1.68,1.68,0,0,1-.39,2.85,15.87,15.87,0,0,0-4,2.76,12.27,12.27,0,0,0-3.06,4.31,26.61,26.61,0,0,0-.71,4c-.58,2.81.82,4.95,2,7.18a19.66,19.66,0,0,0,1.84,2.53c.72,1,1.09,1,1.76,0,3.09-4.65,6.32-9.21,9.85-13.54a50.38,50.38,0,0,1,6.84-7.09,2.13,2.13,0,0,0,1.07-1.83c0-.93.79-1.35,1.6-1.46a24,24,0,0,1,4.72-.09,1.86,1.86,0,0,1,1.89,1.93,14.74,14.74,0,0,0,.5,2.55,5.35,5.35,0,0,1,.15,2c-.09.77-.31,1.67.43,2.34.21.19.11.48.07.72-.24,1.41-.24,2.85-.42,4.27-.14,1,.2,2-.5,3.07-.16.24.77,1,.84,1.77,0,.24.28.51.22.7-.66,2.13.22,4.43-.74,6.54-.38.83.09,1.33,1,1.26,2.29-.17,4.58-.3,6.88-.25a1.56,1.56,0,0,0,1.65-2.28,6.54,6.54,0,0,1-.16-3c.1-1.11.44-2.44-.18-3.59-.22-.39-.14-.56.27-.74a.89.89,0,0,0,.34-1.54c-1.1-1-.85-2.26-.84-3.53.49-.11.45,1,1,.44.3-.33.22-1.09-.16-1.21-.89-.29-.7-1-.77-1.56-.05-.34,0-.72-.34-.9s-.46.4-.9.51c.49-1.93.64-3.83,1.24-5.65a7.61,7.61,0,0,0,.5-3.06c-.08-.83.29-1,1-.63.21.11.36.34.66.23,1.82-.69,3.43.34,5.07.75,1.13.28,1.75,1.07,2,2.54a21.25,21.25,0,0,1-.07,7c-.58,3.29-.28,6.51-.28,9.77,0,2,0,4-.05,5.93s.78,4,.43,6c-.1.6-.11,1.2-.25,1.79a5.45,5.45,0,0,0,.47,1.94c.37,1.33.17,2.69.44,4,.2.95.42,1.92.67,2.83a16.9,16.9,0,0,1,.43,5,2,2,0,0,1-2.08,2.07c-1.9.24-3.94.38-5.49-1.23.21,0,.65,0,.41-.3a7,7,0,0,0-1.56-1.35C172.59,145.64,172.47,146,172.45,146.3Zm-46.2,7.55c.26,1.55.57,2.83,2.41,3.37,1.55.45,1.5.65,1.81-1a29.72,29.72,0,0,0,.66-3.94,21.82,21.82,0,0,0,.28-3.58c-.15-1.63-.39-3.29-.49-4.94a13.08,13.08,0,0,0-.79-5.09c-.36.13-.4.38-.51.6-1,2.07-1.36,4.36-2,6.55-.79,2.72-2.08,5.34-2,8.29a3.65,3.65,0,0,0,.55,2.14C126.22,155.23,126.23,154.54,126.25,153.85Z"/><path class="cls-4" d="M46.37,99.89c-.11-.52.35-.7.45-1s.61-.75.06-1.09-.82,0-1.1.34c-.68.78-1.33,1.59-2,2.41a.83.83,0,0,1-.83.34c1.48-1.89,2.87-3.78,4.9-4.74a16.3,16.3,0,0,1,3.1-.94c1.42-.33,2,.82,2.61,1.72a2.06,2.06,0,0,1-.31,2.74,1.55,1.55,0,0,0-.27,1.9,3.41,3.41,0,0,1-.32,3.48c-.32.46-.49.81.22,1,.1,0,.23.15.23.24a48,48,0,0,0,.33,7.32c.27,1.36-.55,2.8.45,4.06.18.22.43.84-.31.94-.17,0-.4.09-.21.28,1.16,1.13-.16,1.37-.76,2,.7.1,1.09.74,1.8.72.22,0,.4.11.29.24-.85,1,.86,2.36-.49,3.39-.2.15.15,1.38.54,1.88a6.68,6.68,0,0,1,.9,2.59c.59-.14.72-.62.93-1.07,1.85-4,3.41-8.2,5.69-12,1-1.71.58-3.66.59-5.51a13.35,13.35,0,0,0-.28-2c0-.3,0-.69.22-.81,1.78-.94,2.76-3.08,4.82-3.51s4.33-1.11,6.19.83a2,2,0,0,1,.7,1.51,41.79,41.79,0,0,1-.35,5.35,40.81,40.81,0,0,0-.13,5c0,3.57,1,7.07.88,10.63a15.71,15.71,0,0,0,.73,4.34c.47,1.85.3,4,1.68,5.68.71-2.23,1-4.47,1.43-6.65a87.88,87.88,0,0,1,3.5-12.12c.85-2.27,1.58-4.58,2.5-6.82a36,36,0,0,1,5.84-10.28,6.14,6.14,0,0,1,4.53-2.3c1.36,0,1.62.2,1.08,1.9-.71,2.25-.94,4.63-1.92,6.81-.13.29-.15.66-.48.84-.43-.06-.29-.8-.75-.7s-.48.63-.57,1c-.37,1.68-1.69,2.84-2.36,4.38-1.25,2.9-3.07,5.6-3.16,8.92,0,.12,0,.28,0,.37-1,1.34-.7,2.9-.84,4.41a22,22,0,0,0,.07,3,24.42,24.42,0,0,1-.38,4.25c-.08.59-.31,1.12.18,1.64a.77.77,0,0,1,.07.59c-.58,2.59.49,5.21-.12,7.77-.45,1.86-.36,3.91-1.84,5.44a3.5,3.5,0,0,1-2.32,1.33c-2,.08-3.83,1-5.76,1.36a11,11,0,0,1-1.61.16c-1.81.13-2.52-1.25-3.24-2.44-.19-.3-.48-.6-.68-.87s-1.11-.48-.36-1.23c.18-.19-.17-.49-.42-.42s-.57.12-.6-.28C69,146.9,68,145.91,68,144.53a2.32,2.32,0,0,0-1.21-2.12c-.56-.29-.77-1.45-.71-1.95.14-1.21-.56-2.07-.89-3a22.27,22.27,0,0,1-1.1-5.08c-.22-2.25-.43-4.51-.82-6.77.21,2.13-.94,4-.88,6.16,0,1.45-.23,2.92-.24,4.39,0,1.67-.06,3.41,0,5s-.67,3.38.43,4.89c0,0,0,.1,0,.12-1,1.18,0,2.44-.15,3.65-.12.94-.55,1.58-1.62,1.51a2.71,2.71,0,0,0-2,.78c-1.23,1.07-2.8,1.66-4,2.65-1.72,1.38-3.74.91-5.57,1.43a5.77,5.77,0,0,1-4.65-.56,7.83,7.83,0,0,1-3.6-4.49A77.12,77.12,0,0,1,38,140c-.63-3.2-.58-6.44-1-9.65a26.71,26.71,0,0,1,.27-6.72c0-.38.93-1.57-.66-1.42a1.48,1.48,0,0,1,.3-1.49,2.78,2.78,0,0,0,.91-1.83,46.33,46.33,0,0,1,3.17-9.73c.07-.15.26-.35.22-.43-.58-1,.43-1.74.56-2.63.24-1.59,1.92-2.24,2.53-3.61,1.39.27,1.7-.63,1.87-1.7,0-.1.19-.25.27-.24,1.45.19,2.12-1.37,3.44-1.5.3,0,.71-.22.72-.59a1,1,0,0,0-.39-.73c-.33-.24-.62.11-.89.26C48.25,98.54,47.83,99.92,46.37,99.89ZM44,152.44c-1.18-1.82-1.44-4-2.3-5.92a1.45,1.45,0,0,1-.24-1.17,4.42,4.42,0,0,0-.06-2.57,46.81,46.81,0,0,1-1.18-7.53c-.24-2.53-.25-5.07-.29-7.61a51,51,0,0,1,.92-7.33,15.91,15.91,0,0,1,.64-3.78c.1-.27.3-.85-.22-1a.78.78,0,0,0-.9.7c0,1.45-1.1,2.61-1.26,3.93C38.75,123.15,38,126,38,129c-.05,2.7.43,5.3.53,7.95.07,1.72,1,3.22,1.13,4.93a4.11,4.11,0,0,0,.12,1.47c.62,1.52,1.06,3.11,1.75,4.59A14.41,14.41,0,0,0,44,152.44Zm-1.9-19c.22,3.42.15,6.75,1.15,10.17a27.92,27.92,0,0,0,4.45,9.62C44.75,147,43.94,140.06,42.1,133.46Z"/><path class="cls-4" d="M235,144.21c1.11.15,1.29.62,1.57,1.38.45,1.22.44,2.6,1.27,3.69.41.54-.38,1.14,0,1.87a7.14,7.14,0,0,1,.51,5.81c-.44,1.34-.07,3.17-1.78,4a.37.37,0,0,0-.21.52c.72,1.59-.62,2.69-1,4-.14.51-.56,1-.73,1.55-.61,1.89-2.26,3-3.46,4.39a14.19,14.19,0,0,1-4.21,3.27c-3.91,2.07-7.49,2.44-10.94-1.58a17.53,17.53,0,0,1-3.77-6c-1-3-.4-6,.44-9a42.22,42.22,0,0,1,5.49-12.3,13,13,0,0,1,2.71-3.1,2.18,2.18,0,0,0,.79-3.1,3.15,3.15,0,0,1-.17-.6s0-.06.09-.12c.49.18.34.93.95,1.09a16.74,16.74,0,0,0-2.54-5.46c.07,1,.84,1.73.82,2.74a42.37,42.37,0,0,1-3.36-6.91c-.49-1.51-.88-3-1.33-4.56-1.1-3.69-.46-7.28.61-10.84a19.56,19.56,0,0,1,4-8,26.27,26.27,0,0,1,8.66-6.69,6.56,6.56,0,0,1,4.62,0c.39.11.48.43.64.72.76,1.36,1.24,2.87,2.47,4a3.06,3.06,0,0,1,.7,2.45.65.65,0,0,1-.44.66,15.55,15.55,0,0,1-4.16,1.61,4.54,4.54,0,0,0-3.25,2.93c-.54,1.2-1.4,2.28-1.47,3.7,0,.31-.38.62-.63.9s-.48.35-.24.59c.83.85.28,1.65-.06,2.41a4.7,4.7,0,0,0,.11,4,23.88,23.88,0,0,1,1,4.37c.46,1.93,1.4,3.71,1.72,5.7.11.65,1,1,1.37,1.71.5,1,1.33.26,2,.12a52.82,52.82,0,0,1,7.79-1.23c1.29-.08,2.65-.17,3.23,1.44.06.15.33.22.49.35.37.3,1,.49.93,1s-.78.35-1.2.51c-1.39.52-2.79-.14-4.19,0a32.07,32.07,0,0,0-5.81,1.45c-.72.22-.87.58-.59,1.3a3.44,3.44,0,0,0,.88,1.47C236.22,143.18,235.87,143.6,235,144.21Zm-20.38,20.7a2.53,2.53,0,0,0,.68,2.49,28,28,0,0,0,4.46,3.41c.88.45,1.39.27,1.79-.73a35.87,35.87,0,0,0,2.11-8.47c.34-2.47.37-5,.47-7.42a50.43,50.43,0,0,0-.48-6.47c0-.41-.17-.82-.25-1.23-.17-.78-.42-.76-.94-.2a22.94,22.94,0,0,0-3.82,6c-.93,1.93-1.56,4-2.38,6A18.59,18.59,0,0,0,214.6,164.91Zm4.12-35.1c.17-1.05-.46-1.86-.8-2.75a.29.29,0,0,0-.42-.14.26.26,0,0,0-.08.42C218.18,128,218.1,129.07,218.72,129.81Z"/><path class="cls-4" d="M187.42,137.28a10.32,10.32,0,0,1,.82-3.73.81.81,0,0,0,0-.61c-1.05-2.35-.17-4.77-.29-7.15,0-.77.2-1.58-.6-2.15-.35-.24-.19-.69,0-.93.74-1.25.14-2.07-.73-2.94a.93.93,0,0,1,.16-1.63,3.93,3.93,0,0,0,1.47-1.28c-.16-.1-.24-.19-.29-.17-1.49.38-1.51.38-1.34-1.14a79.5,79.5,0,0,1,1.75-11.49c.17-.68.44-1.32.55-2a1.2,1.2,0,0,1,1.66-.88c2.54,1.32,5.05.41,7.57.15A27.77,27.77,0,0,1,210,102.35c.46.16,1.2.18,1.08,1a1.31,1.31,0,0,1-1.34,1.1,15.89,15.89,0,0,1-2.49,0,19,19,0,0,0-7,.56.56.56,0,0,1-.12,0,3.29,3.29,0,0,0-2.18.36c-.63.54-.06,1.41-.07,2.13a24.31,24.31,0,0,0,0,3.52c.08.59.46,1.59-.74,1.77-.09,0-.16.17-.23.26.75.61.58,1.29.4,2.11-.07.29.11.77-.07,1.2s-.55,1,.41.89c.21,0,.13.15.13.26,0,2.13.27,4.26-.28,6.35-.08.3.05.41.1.63.19.75.35,1.58-1.07,1.85,1,.38,1.3.78,1.18,1.6-.15,1,.76.93,1.31.87,2.49-.28,5,.2,7.48-.31.06,0,.14.06.35.16-1.14,1.33-2.14,2.72-4,3a25.79,25.79,0,0,1-4.08.62c-.62,0-1,.29-1,.89s-.36,1-1,1.13c1.32,1.09.82,2.53.94,3.82.2,2.07-.35,4.16.22,6.24.22.8.67.93,1.35.94a79.14,79.14,0,0,0,8-.48c1.52-.13,3.07-.05,4.5-.88.51-.3,1.56-.24,1.69.53s-.61,1.48-1.27,1.81a38.8,38.8,0,0,1-10,3.77,23.43,23.43,0,0,1-11.58-.5,8.44,8.44,0,0,1-3.57-2.21c-.44-.44-.85-.79-.51-1.6.24-.56-.18-1.16-.91-1.36s-1.14-.54-.32-1.2c.43-.35.26-.84.21-1.29a11.44,11.44,0,0,1-.32-2.61c0-.39-.16-.83.55-.85.42,0,.61-.41.39-.85s-.23-1,.43-1.17S187.19,136.85,187.42,137.28Z"/><path class="cls-4" d="M97.58,140.06c.46.45,0,1.24.67,1.57.53-.26.11-.87.59-1.34a2.7,2.7,0,0,1-.27,2.49c-.22.32-.36.59-.13.88a13.45,13.45,0,0,0,2.56,3.13c.38-.46,0-.68-.18-.92-.54-1-1.26-1.94-.34-3.09a.34.34,0,0,0,0-.35c-1.17-1.56-.11-3.3-.25-4.94-.21-2.53-.09-5.15-.06-7.73,0-4.38.45-8.74.66-13.11,0-.86-.46-1.59-.35-2.78-1.09,1-.35,2.4-1.43,3,.38-1.77-.44-3.54.18-5.43.88-2.69,1.33-5.5,2.48-8.12a18.16,18.16,0,0,0,1.55-3.8.39.39,0,0,1,.22-.25c1.95-.72,5.25.45,6.75,2.11a6.73,6.73,0,0,1,1.42,6.92c-.34,1.19.11,2.5-.19,3.73a8.73,8.73,0,0,0,0,4.28,1.56,1.56,0,0,1-.46,1.82c-.29.2-.25.5-.06.77,1,1.43,1,1.59-.12,3.08-.34.45-.32,1.07.37,1.15s.76.26.45.76a2.48,2.48,0,0,0-.27,2.1c.22.9-.44,1.75-.62,2.66,0,.21-.31.48-.07.63,1.48.92.69,2.13.38,3.21-.14.5-.5.87.19,1.2a.36.36,0,0,1,.11.62.54.54,0,0,0-.1.58,15.72,15.72,0,0,1,.59,4.49,3.67,3.67,0,0,0,.52,2.55c.81.95.19,2.18.49,3.24,0,.07,0,.21-.09.22-1.75.51-2.48,3-4.8,2.4a.72.72,0,0,0-.58.13c-.93,1.15-2.15.84-3.34.7a1.14,1.14,0,0,0-.24,0c-3.16.68-4.32-1.52-5.31-3.79A10.45,10.45,0,0,1,97.58,140.06Z"/><path class="cls-4" d="M113.06,88.14c0,.21.06.46,0,.52-1.67,1.26-1.89,3.47-3.24,5-.57.62-.92.89-1.37-.09s-1-1.81-1.44-2.76a5.16,5.16,0,0,0-2-2.51c-.23-.13-.58-.32-.41-.65a.82.82,0,0,1,.64-.3,4.37,4.37,0,0,0,2.32-.72c1.52-.78,3.05-.24,4.53.18A1.19,1.19,0,0,1,113.06,88.14Z"/><path class="cls-4" d="M97.41,139.18c-.3-.64,0-1.25-.1-1.85,0-.22,0-.43.31-.43a.69.69,0,0,1,.45.11.31.31,0,0,1-.07.52C97.16,137.88,98.48,138.85,97.41,139.18Z"/></g></g></svg>