<svg xmlns="http://www.w3.org/2000/svg" viewBox="0 0 270 270"><defs><style>.cls-1{fill:#fff;}.cls-2{fill:#a78126;}.cls-3{fill:#a01a22;}</style></defs><g id="Capa_2" data-name="Capa 2"><g id="Home"><rect class="cls-1" width="270" height="270" rx="9.75"/><path class="cls-2" d="M74.77,32.1c3.13,6,8.36,8.78,12.32,12.92,7.32,7.67,13.91,16,21.13,23.72a114.47,114.47,0,0,0,14.52,12.92c2.08,1.58,3.15.87,4.5-.84,4.14-5.26,6-11.69,9.09-17.46,1-1.8,1.81-3.67,2.89-5.44-2.17,7.12-4.31,14.22-7.08,21.14-.71,1.79-.82,3.93-1.9,5.67-2.43,3.93-5.29,4.66-8.78,1.72-7.36-6.2-14.69-12.44-20.84-19.92C95,59.72,89.31,53,83.32,46.3c1.32,4.11,1.63,8.41,2.82,12.55a178.82,178.82,0,0,0,7.14,19.84c1.36,3.24,3,6.51,4.66,9.69,3.18,6.12,6.81,12,9.76,18.25.19.4.47.94,0,1.36-2.58,2.35-3.1,6-5.33,8.49-1,1.1-2.78,1.52-4.16,2.41a200.6,200.6,0,0,0-27.8,21.41c-4.77,4.42-8.94,9.34-13.54,13.88a18.08,18.08,0,0,0-2.78,4.12c-.39.71-1.77,1.06-1.12,2.09.44.68,1.45.32,2.24.31,6.6-.14,12.78-2.28,18.92-4.32,11.39-3.8,22.7-7.84,34-11.94,2.65-1,5-2.66,7.72-3.6,6.51-2.25,11.91.31,16.73,4.06,3,2.31,2.43,6.41,2.3,9.73a86.85,86.85,0,0,1-1.28,13.82c-.4,2-.47,4.1-1,6.07-1.31,4.81-.87,9.81-1.77,14.68a37.62,37.62,0,0,0-.21,10.92c.25,2.22-1.14,4.57.39,6.83.14.22-.7,1.08.06,1.46s1.2-.42,1.61-.91a98.64,98.64,0,0,0,9.41-13.93,170.06,170.06,0,0,1,14.38-21.87c5.45-6.83,11.15-13.6,18.75-18.25,5.77-3.53,10.8-4.17,16,1.11a46.59,46.59,0,0,0,7.62,6.33c-1.42-2.89-2.89-5.75-4.25-8.66-3.18-6.78-6.25-13.62-7.52-21-.46-2.7-2.26-3.26-4.42-3.85-4.77-1.3-6.67-4.53-5.74-9.37.31-1.58.81-2.58,2.75-1.61A4.82,4.82,0,0,0,185,116c5.44-4.48,12-7.07,17.68-11.2,7.21-5.27,15.11-9.59,21.76-15.62,1.11-1,3.19-2,2.58-3.59S224.33,85,223,85a153.35,153.35,0,0,0-26.46,3.19c-10.75,2.1-21.31,5.22-32.24,6.44-1.58.18-2.46,0-3.48-1.62-1.37-2.21-1.91-4.7-3.19-6.9a4.76,4.76,0,0,1,.11-5.35c3.26-4.12,4-9.12,5.3-13.91a139.1,139.1,0,0,0,5-25.4,26.6,26.6,0,0,0-.24-7.07c-.32-1.78-1.14-2.32-2.87-1.66-2.34.89-4.8,1.47-7.19,2.4,3.68-1.64,6-5.23,9.75-6.61,3.49-1.3,6.07.5,6.49,4.14,1.39,12.25.06,24.27-2.84,36.21a96.81,96.81,0,0,0-1.55,10.78c-.23,1.83.76,2.63,2.54,2.85,5.75.71,11.37-.51,17-1,12.83-1.17,25.62-3,38.56-1.87a12.49,12.49,0,0,0,4.58-.93c4.27-1.29,5.83,2.31,8.14,4.53,1.83,1.76.64,3.42-.24,5.06-4.74,8.8-12.39,14.72-20.29,20.33-5.64,4-11.4,7.89-17.27,11.56-3.08,1.93-6.5,3.31-10,5,6.29,3.94,8,10.51,10.8,16.39,4.52,9.4,9.26,18.69,13.89,28,2.47,5,1.5,7.28-3.41,9.78-7.67,3.92-14.68,2.65-21.58-1.91A108,108,0,0,1,179.23,167c-.58-.53-1.15-1.08-1.77-1.56-3.28-2.54-3.84-2.87-5.88.54-3.75,6.25-8.26,12-11,19-2,5.12-4.91,10.13-7.22,15.27-2.61,5.78-5.91,11.19-8.22,17.17a56.55,56.55,0,0,1-9.23,15.9c-2,2.34-5.24,3-6.91,5.8-.38.63-2.79.63-3.91.13-3.73-1.65-7.4-.55-11.08-.27-5,.37-8.77-2.09-12.07-5.24-1.24-1.18-2.32-3.17-.22-5.18,1.41-1.34,1.94-3.17-.36-4.62a2.76,2.76,0,0,1-.73-3.12c2.39-3.7.46-7.4.36-11.09,0-1.54-.77-3.26,1.86-3.88,1.37-.32.89-3.94-.66-4.41-1.14-.35-1-.77-.87-1.65.91-5.24,1.77-10.49,2.63-15.74a42.68,42.68,0,0,1,2.94-9.5,4.18,4.18,0,0,0,.36-3.4c-1.44-3.47-1.17-7.05-.52-10.63.33-1.84.65-3.69,1.06-5.51.44-2-.55-1.95-1.88-1.33-4.52,2.14-9,4.35-13.55,6.43-3.16,1.45-6.16,3.18-9.44,4.44-4.5,1.72-8.56,4.36-13.23,5.91-7.67,2.54-15.25,5.27-23.39,3-5.12-1.42-10.41-2.64-14.39-6.82-3.15-3.31-3.73-4.49-2.08-8.72.62-1.57,1.4-3.13,1.17-4.82s1.53-1.7,2.15-2.74c6.17-10.2,14.75-18.35,23-26.82,3.49-3.59,6.76-7.41,10.45-10.8,1.52-1.4,3.2-2.63,4.67-4.08,3.13-3.08,6.15-6.27,9.26-9.36a2.76,2.76,0,0,0,.64-3.43,117.5,117.5,0,0,1-6-18.79c-2.33-10.59-4.45-21.18-1.74-32.15.56-2.26,2.41-5.21-.15-7.68C74.48,36.12,74.34,34.48,74.77,32.1Z"/><path class="cls-3" d="M137.57,70.45a23.63,23.63,0,0,1,6.81.59,28.57,28.57,0,0,1,5.9,2.63,17.07,17.07,0,0,1,5.34,4,15.83,15.83,0,0,1,2.61,5.46,16.14,16.14,0,0,1,.91,3.91l0,.22s-.09-.1-.14-.19a7.59,7.59,0,0,1,.58,1.67l-.12-.23c.59,1.32.18,2.66.42,4a21.17,21.17,0,0,1,.24,4.21l-.06,5.41a9.21,9.21,0,0,1-.88,4.51l.12-.18a11.06,11.06,0,0,1-1,3.19l-1.45,3.67a12.6,12.6,0,0,1-4.6,5.89l.49-.35a14.67,14.67,0,0,1-2.05,1.81,18.84,18.84,0,0,1,3.68,2.51,22.89,22.89,0,0,1,3,2.69,17,17,0,0,1,3.46,7c.76,2.84,1.66,5.4,1.42,8.38-.12,1.54.2,3,.19,4.55l-.05,4.3a59.36,59.36,0,0,1-.6,8.22,25.5,25.5,0,0,1-2.63,7.74c-1.18,2.3-2.12,5-4,6.79a30.91,30.91,0,0,1-7,4.49l.25-.15c-3.45,1.6-7.11,1.74-10.85,1.74l-5.62.15a10.52,10.52,0,0,1-4.75-.73,70.7,70.7,0,0,1-6.5-5.22,18.39,18.39,0,0,1-4.45-7.66,93.83,93.83,0,0,1-2.21-9.52,19.9,19.9,0,0,1-.48-2.67c0-.54-.26-1-.29-1.56a24,24,0,0,1,.26-4.32,14.06,14.06,0,0,1,.44-3.13,9.36,9.36,0,0,1,1.76-3c1.55-1.63,4.13-1.64,6.2-1.89,2.62-.32,5.78,0,7.73,2s2.08,5.84,1.37,8.37c.11-.41,0,.71,0,.74l0,2.75-.06,5.53a46.57,46.57,0,0,0,0,4.87,23.54,23.54,0,0,0,1,3.87,33.48,33.48,0,0,0,1.88,4.25c.29.67.28.85,1.05.66a14.56,14.56,0,0,0,1.56-.35,15.09,15.09,0,0,0,3.35-1.45,14.54,14.54,0,0,0,3.19-2.92l-.18.23.54-.71c.17-.25.46-.36.65-.59l-.29.22c2.07-2,2.49-5.45,3.32-8.05a15.85,15.85,0,0,0,.71-2.11l.34-2.09c.18-1.24,0-2.74.46-3.82a14.76,14.76,0,0,0,.12-2.11,7.18,7.18,0,0,0,0-2.49,7.29,7.29,0,0,1-.29-2.22c0-.64-.2-1.25-.25-1.89-.05-.79-.05-1.58-.15-2.37-.37-2.94-1.23-5.78-1.54-8.74a15.92,15.92,0,0,0-1.21-5.65c-.52-1-1.51-.64-2.27-1.34a17.29,17.29,0,0,0-3.35-.59c-2.44-.16-5.53,1-7.75-.47-1.19-.75-1.08-2.15-1-3.39s.38-1.72,1.65-1.89a9.53,9.53,0,0,0,1.94-.15,5.76,5.76,0,0,1,2.07-.17l2.26,0c.58,0,1-.51,1.56-.71a4.22,4.22,0,0,0,2.34-1.93,21.64,21.64,0,0,1,1.07-4l-.09.28a9.1,9.1,0,0,0,.71-1.84,6.08,6.08,0,0,1,.33-1.91v.29c0-1,.25-2.55.29-3.29.1-1.44.31-2.87.36-4.3a27.58,27.58,0,0,0,.08-4.54c-.2-1.38-.17-2.8-.43-4.17a21.94,21.94,0,0,0-1.41-4,18.93,18.93,0,0,1-1.18-4.74,5.5,5.5,0,0,0-1.94-3.3,9.26,9.26,0,0,0-3.42-1.56c-1.05-.34-2.57,1.12-3.42,1.84l-.23.15.19-.14c-.35.11-1,1-1.17,1.17a6.46,6.46,0,0,0-1.2,1.73c-.53,1.13-1.05,3-1.38,3.88s-.73,2.16-1,3.25c0,0-.37,1.17-.41,1.46v-.17l0,2.78c0,.86-.28,1.69-.31,2.53a3.12,3.12,0,0,1-2.4,3,3,3,0,0,1-1.07,0,7.12,7.12,0,0,0-1.3,0,20.14,20.14,0,0,1-2.15-.37,37.69,37.69,0,0,0-3.84-.22c-1.44,0-3.31-.38-4.15-1.68s-.49-3.44-.45-4.91A21.57,21.57,0,0,1,113.69,86a23.49,23.49,0,0,1,1.7-4.49,14.07,14.07,0,0,1,3.34-5.24,17,17,0,0,1,5.17-3.12,37.12,37.12,0,0,1,13.65-2.72Z"/></g></g></svg>