<?xml version="1.0" encoding="UTF-8" standalone="no"?>
<svg
   xmlns:dc="http://purl.org/dc/elements/1.1/"
   xmlns:cc="http://creativecommons.org/ns#"
   xmlns:rdf="http://www.w3.org/1999/02/22-rdf-syntax-ns#"
   xmlns:svg="http://www.w3.org/2000/svg"
   xmlns="http://www.w3.org/2000/svg"
   width="39.497002mm"
   height="39.497978mm"
   viewBox="0 0 39.497002 39.497978"
   version="1.1"
   id="svg782">
  <defs
     id="defs776" />
  <metadata
     id="metadata779">
    <rdf:RDF>
      <cc:Work
         rdf:about="">
        <dc:format>image/svg+xml</dc:format>
        <dc:type
           rdf:resource="http://purl.org/dc/dcmitype/StillImage" />
        <dc:title></dc:title>
      </cc:Work>
    </rdf:RDF>
  </metadata>
  <g
     id="layer1"
     transform="translate(-47.531259,-241.81022)">
    <path
       d="m 55.310578,280.53698 h 7.443611 v -3.80259 c 0,-2.09338 -0.966964,-4.06964 -2.619728,-5.35481 l -1.730727,-1.34514 c -1.719792,-1.33738 -2.725914,-3.39408 -2.725914,-5.57248 v -4.10492 c 0,-1.21814 -0.987778,-2.20557 -2.205567,-2.20557 -0.03422,0 -0.06809,10e-4 -0.101247,0.003 -0.01517,0.072 -0.02681,0.14499 -0.03493,0.21978 l -0.01905,-0.11289 v -0.10371 c -1.067858,0.0744 -1.926167,0.9084 -2.037645,1.96497 l -0.0194,-0.11252 v -8.24088 c 0,-1.38501 -1.122892,-2.5072 -2.507545,-2.5072 -0.115358,0 -0.2286,0.008 -0.340078,0.0233 -0.07126,0.23283 -0.109713,0.47942 -0.109713,0.73519 v 16.67368 c 3.51e-4,3.13937 1.048101,6.1902 2.976737,8.66705 z"
       style="fill:#4b868e;fill-opacity:1;fill-rule:nonzero;stroke:none;stroke-width:0.352777"
       id="path88" />
    <path
       d="m 71.754078,276.57995 v 3.95711 h 7.495116 l 4.03084,-5.17595 c 1.929342,-2.47721 2.976737,-5.52803 2.977092,-8.66705 v -16.67404 c 0,-0.31326 -0.05786,-0.61277 -0.163338,-0.889 -0.110419,-0.0152 -0.223308,-0.0236 -0.338312,-0.0236 -1.384655,0 -2.50684,1.12254 -2.50684,2.50719 v 8.24089 l -0.01939,0.11289 c -0.11007,-1.03999 -0.942627,-1.86408 -1.986495,-1.9611 v 0.254 l -0.01939,0.11289 c -0.01342,-0.12876 -0.03845,-0.25329 -0.07303,-0.37394 -0.03775,-0.002 -0.07585,-0.003 -0.113946,-0.003 -1.218142,0 -2.205567,0.98742 -2.205567,2.20557 v 4.10457 c 0,2.17875 -1.006123,4.23545 -2.726621,5.57283 l -1.73002,1.34514 c -1.653471,1.28482 -2.620082,3.26108 -2.620082,5.35446"
       style="fill:#4b868e;fill-opacity:1;fill-rule:nonzero;stroke:none;stroke-width:0.352777"
       id="path92" />
    <path
       d="m 83.749897,246.74162 c -0.875593,0 -1.698977,0.34114 -2.318456,0.96026 -0.619125,0.61948 -0.96026,1.44251 -0.96026,2.31811 v 5.98452 c -0.427215,-0.23742 -0.918282,-0.37324 -1.440744,-0.37324 -1.641475,0 -2.97674,1.33562 -2.97674,2.97709 v 4.10492 c 0,1.95474 -0.885118,3.76379 -2.428522,4.96359 l -1.730728,1.34514 c -1.8542,1.4418 -2.917472,3.61526 -2.917472,5.96371 v 5.55131 c 0,0.4258 0.34537,0.77117 0.771525,0.77117 0.426156,0 0.771172,-0.34537 0.771172,-0.77117 v -5.55131 c 0,-1.86867 0.846314,-3.59834 2.321984,-4.74522 l 1.730375,-1.34549 c 1.922285,-1.49402 3.024364,-3.74721 3.024364,-6.18173 v -4.10492 c 0,-0.79093 0.643467,-1.43404 1.434042,-1.43404 0.790927,0 1.434042,0.64311 1.434042,1.43404 v 7.66727 c 0,1.30069 -0.37465,2.5647 -1.084088,3.65478 l -0.999771,1.53741 c -0.20955,0.1778 -0.317148,0.46214 -0.255764,0.75 0.08925,0.41628 0.498475,0.68227 0.91581,0.59337 l 0.04445,-0.01 c 0.199673,-0.0427 0.37465,-0.16298 0.485775,-0.33408 l 1.102783,-1.69545 c 0.872421,-1.34161 1.3335,-2.8963 1.3335,-4.4965 v -16.25567 c 0,-0.46355 0.187325,-0.89923 0.515408,-1.22696 0.327732,-0.32774 0.763413,-0.50836 1.227315,-0.50836 0.957085,0 1.735667,0.77894 1.735667,1.73532 v 16.67404 c -3.52e-4,2.9538 -0.999419,5.86352 -2.813757,8.19291 l -4.031543,5.17595 c -0.26176,0.3362 -0.201083,0.82057 0.13476,1.08268 0.141113,0.10971 0.307975,0.16263 0.47343,0.16263 0.23001,0 0.4572,-0.10231 0.609245,-0.29704 l 4.031192,-5.17595 c 2.02424,-2.59963 3.139371,-5.84589 3.139371,-9.14118 v -16.67404 c 0,-1.80764 -1.470731,-3.27837 -3.278365,-3.27837 m -21.084822,22.28039 -1.730727,-1.34514 c -1.543403,-1.1998 -2.428522,-3.00885 -2.428522,-4.96359 v -4.10492 c 0,-1.64147 -1.335264,-2.97709 -2.976739,-2.97709 -0.522111,0 -1.013531,0.13582 -1.440745,0.37324 v -5.98452 c 0,-0.8756 -0.341136,-1.69863 -0.960261,-2.31811 -0.619477,-0.61912 -1.442508,-0.96026 -2.318455,-0.96026 -1.807634,0 -3.278364,1.47073 -3.278364,3.27837 v 5.75415 c 0,0.42581 0.345369,0.77118 0.771525,0.77118 0.425803,0 0.771172,-0.34537 0.771172,-0.77118 v -5.75415 c 0,-0.95638 0.778933,-1.73532 1.735667,-1.73532 0.463903,0 0.899583,0.18062 1.227314,0.50836 0.328083,0.32773 0.508705,0.76341 0.508705,1.22696 l 0.0067,16.25564 c 0,1.6002 0.461081,3.15454 1.3335,4.49651 l 1.102784,1.69545 c 0.111477,0.17109 0.286102,0.29104 0.485775,0.33408 l 0.0448,0.009 c 0.416277,0.0889 0.826558,-0.17674 0.915458,-0.59338 0.06138,-0.28751 -0.04621,-0.57185 -0.255764,-0.74965 l -0.99977,-1.53742 c -0.709437,-1.09009 -1.084087,-2.35409 -1.084087,-3.65478 v -7.66728 c 0,-0.79093 0.643114,-1.43404 1.434042,-1.43404 0.790575,0 1.434042,0.64311 1.434042,1.43404 v 4.10492 c 0,2.43452 1.10243,4.68771 3.024363,6.18173 l 1.730375,1.34514 c 1.47567,1.14723 2.321984,2.8769 2.321984,4.74557 v 5.55131 c 0,0.4258 0.345369,0.77117 0.771525,0.77117 0.425802,0 0.771172,-0.34537 0.771172,-0.77117 v -5.55131 c 0,-2.34845 -1.063272,-4.52191 -2.917472,-5.96371 m -10.777008,5.86493 c -1.814336,-2.32939 -2.813755,-5.23911 -2.814108,-8.19291 v -5.11846 c 0,-0.42615 -0.345369,-0.77152 -0.771172,-0.77152 -0.426156,0 -0.771525,0.34537 -0.771525,0.77152 v 5.11846 c 3.53e-4,3.29529 1.11513,6.54155 3.139722,9.14118 l 4.030839,5.17595 c 0.1524,0.19473 0.379589,0.29704 0.609247,0.29704 0.165453,0 0.332317,-0.0529 0.473428,-0.16263 0.336197,-0.26211 0.396522,-0.74648 0.134408,-1.08268 z m -3.58528,-15.4873 c 0.202847,0 0.401814,-0.0825 0.545394,-0.22613 0.143228,-0.14323 0.225778,-0.34255 0.225778,-0.54539 0,-0.2025 -0.08255,-0.40182 -0.225778,-0.5454 -0.14358,-0.14323 -0.342547,-0.22578 -0.545394,-0.22578 -0.202847,0 -0.402167,0.0825 -0.545747,0.22578 -0.143228,0.14358 -0.225778,0.3429 -0.225778,0.5454 0,0.20284 0.08255,0.40216 0.225778,0.54539 0.14358,0.14358 0.3429,0.22613 0.545747,0.22613 m 21.885627,-0.63747 c 1.895828,-1.34726 3.027186,-3.53977 3.027186,-5.86493 v -1.03999 c 0,-1.83268 -0.818797,-3.54647 -2.246489,-4.70006 -1.397352,-1.12959 -3.19793,-1.56386 -4.938888,-1.18991 -2.715331,0.58208 -4.6863,3.02295 -4.6863,5.80354 0,1.32433 0.426861,2.57704 1.233664,3.62303 0.821972,1.06539 2.067277,1.68204 3.416652,1.69227 1.357842,0.0109 2.623608,-0.59266 3.46957,-1.65488 0.615597,-0.77293 0.954616,-1.74272 0.954616,-2.7305 v -0.883 c 0,-0.85337 -0.351014,-1.68698 -0.963083,-2.28741 -0.60572,-0.59478 -1.39947,-0.91228 -2.236258,-0.89747 -1.697214,0.0325 -3.077634,1.44004 -3.077634,3.13796 v 0.042 c 0,1.07809 0.876653,1.9551 1.954742,1.9551 0.988483,0 1.80728,-0.73696 1.937103,-1.68981 0.01199,-0.0536 0.01799,-0.10936 0.01799,-0.16616 v -0.0991 c 0,-0.4258 -0.345369,-0.77152 -0.771525,-0.77152 -0.426155,0 -0.771525,0.34572 -0.771525,0.77152 0,0.22755 -0.184502,0.41205 -0.412044,0.41205 -0.227189,0 -0.412044,-0.1845 -0.412044,-0.41205 v -0.042 c 0,-0.86324 0.701675,-1.57903 1.564216,-1.59561 0.41522,-0.006 0.818445,0.15416 1.12642,0.45649 0.318205,0.31221 0.500944,0.74437 0.500944,1.18604 v 0.88336 c 0,0.63994 -0.219781,1.26823 -0.618772,1.76883 -0.543984,0.68333 -1.35502,1.07385 -2.228145,1.07385 -0.0078,0 -0.01517,0 -0.02293,-3.4e-4 -0.872067,-0.007 -1.676047,-0.40464 -2.206625,-1.0922 -0.5969,-0.77329 -0.912283,-1.70039 -0.912283,-2.68041 0,-2.0581 1.457677,-3.86468 3.466394,-4.29507 1.283405,-0.27516 2.612319,0.0459 3.645958,0.88124 1.063625,0.85937 1.673578,2.13536 1.673578,3.50026 v 1.03999 c 0,1.82668 -0.889,3.54894 -2.378428,4.60693 -2.266597,1.61113 -5.410552,1.33032 -7.313083,-0.65335 -1.316567,-1.37266 -2.041878,-3.17712 -2.041878,-5.08 0,-1.98014 0.776817,-3.83681 2.187223,-5.22746 1.410052,-1.38994 3.278011,-2.13995 5.259916,-2.11173 3.988505,0.0561 7.233355,3.34434 7.233355,7.32896 0,0.82303 -0.108653,3.68794 -1.507066,5.98805 -0.180622,0.29704 -0.140406,0.67839 0.09878,0.93063 l 0.04692,0.0501 c 0.0049,0.005 0.0099,0.0102 0.01482,0.0152 l 0.762001,0.762 c 0.301273,0.30127 0.789868,0.30162 1.090789,0 0.301625,-0.30127 0.301625,-0.78987 0,-1.09114 l -0.395816,-0.39582 c 1.092903,-2.08809 1.357135,-4.40619 1.416402,-5.63739 h 0.322085 c 0.426156,0 0.771525,-0.34502 0.771525,-0.77117 0,-0.4258 -0.345369,-0.77153 -0.771525,-0.77153 h -0.354548 c -0.19191,-1.82845 -0.947912,-3.49956 -2.09056,-4.8327 l 0.321381,-0.32138 c 0.301271,-0.30128 0.301271,-0.78987 0,-1.09115 -0.301273,-0.30091 -0.789517,-0.30091 -1.091142,0 l -0.331258,0.33162 c -1.321506,-1.09291 -2.961217,-1.81293 -4.753681,-1.9932 v -0.35031 c 0,-0.42615 -0.345369,-0.77152 -0.771525,-0.77152 -0.426155,0 -0.771525,0.34537 -0.771525,0.77152 v 0.3295 c -1.764947,0.127 -3.42653,0.76905 -4.813652,1.85667 l -0.37077,-0.37113 c -0.301272,-0.30091 -0.789869,-0.30091 -1.090789,0 -0.301272,0.30128 -0.301272,0.78987 0,1.09115 l 0.33267,0.33302 c -1.216378,1.34479 -1.979084,3.00002 -2.210859,4.78225 h -0.382058 c -0.426155,0 -0.771525,0.34573 -0.771525,0.77153 0,0.42615 0.34537,0.77117 0.771525,0.77117 h 0.314325 c 0.07761,1.86337 0.730956,3.63255 1.872544,5.09129 l -0.281163,0.28081 c -0.301273,0.30127 -0.301273,0.78987 0,1.09114 0.150988,0.15064 0.348191,0.22613 0.545394,0.22613 0.197556,0 0.394758,-0.0755 0.545747,-0.22613 l 0.246945,-0.24694 c 1.123244,0.97508 2.53365,1.5755 4.034719,1.70779 0.211314,0.0187 0.421922,0.0279 0.632178,0.0279 0.129822,0 0.259291,-0.005 0.389114,-0.0116 v 0.31715 c 0,0.4258 0.345369,0.77153 0.771172,0.77153 0.426155,0 0.771525,-0.34573 0.771525,-0.77153 v -0.56903 c 0.802569,-0.2226 1.566686,-0.58349 2.255308,-1.0728"
       style="fill:#3c3c3b;fill-opacity:1;fill-rule:nonzero;stroke:none;stroke-width:0.352777"
       id="path96" />
  </g>
</svg>
