<svg xmlns="http://www.w3.org/2000/svg" viewBox="0 0 270 270"><defs><style>.cls-1{fill:#fff;}.cls-2{fill:#a01a22;}.cls-3{fill:#002d26;}.cls-4{fill:#a78126;}</style></defs><g id="Capa_2" data-name="Capa 2"><g id="Home"><rect class="cls-1" width="270" height="270" rx="9.75"/><path class="cls-2" d="M25,16.66c.28-.25.6.08.87.21a6.26,6.26,0,0,0,1.35.36l.64.18c.13,0,.29,0,.41.09s.07.14.28.17l.31,0,.56.06a7.58,7.58,0,0,0,1,.19c.45,0,.91.06,1.37.08a8.86,8.86,0,0,1,1.19.34,7.72,7.72,0,0,0,1.52.11.48.48,0,0,1,.55.38,1.75,1.75,0,0,1-.2,1.51c-.22.27-.78.28-1.09.43a1.62,1.62,0,0,0-.57.4,6,6,0,0,0-.44,1l-.11.46,0,.76a18.1,18.1,0,0,1-.1,2.53v-.12c0,.72-.13,1.43-.12,2.15l0,1.1c0,.06,0,.57.06.63a19.59,19.59,0,0,1,.08,4.33c-.13,1.54-.23,3.11-.45,4.65a20.31,20.31,0,0,0,0,3.74c0,.69.09,1.39.06,2.08,0,.48-.09.94-.14,1.42-.12,1.24.06,2.52,0,3.75a11.43,11.43,0,0,1-.2,2,10.55,10.55,0,0,0-.27,1.36c0,.41-.12.82-.12,1.23,0,.25.16.44.22.68a6,6,0,0,1,.12.74,2.35,2.35,0,0,0,1.88,1.62,1.75,1.75,0,0,0,.51,0c.16,0,.17-.07.32-.11a.4.4,0,0,1,.42.19,1.82,1.82,0,0,1,.16,1c0,.33-.12.82-.45.94a1.56,1.56,0,0,1-.71.06h-.87a11.56,11.56,0,0,0-1.55.12l-.76.11c-.23,0-.46.06-.69.06a2.43,2.43,0,0,1-1.31,0c-.15-.12-.06-.17-.28-.17h-.29l-.37,0a11.25,11.25,0,0,1-1.37.24c-.37.11-.59.35-1,.41a2,2,0,0,1-.6-.18,2.37,2.37,0,0,1-.3-.23h-.3a6.12,6.12,0,0,1-1.41.18,1,1,0,0,0-.58.11c-.16.06-.4.18-.56.06a.88.88,0,0,0-.55-.12.42.42,0,0,1-.35.18c-.6-.18-.48-1.19-.33-1.6a.82.82,0,0,1,.78-.59L22.45,58c.67-.49,1.55-.64,2.12-1.26A2.3,2.3,0,0,0,25,55.19l.14-1.87c.06-1.36.05-2.72,0-4.08a12.86,12.86,0,0,1,0-2,13.28,13.28,0,0,0,.22-1.54V43.81c0-.5.1-1,.11-1.5,0-1.19,0-2.37,0-3.56a11.48,11.48,0,0,1,.1-2,15.7,15.7,0,0,0,.28-1.62l.11-2a15.33,15.33,0,0,1,.19-1.66c.08-.63,0-1.26.1-1.89s.13-1.16.21-1.74V28a6.18,6.18,0,0,0,.11-.85,17.58,17.58,0,0,1,.21-2.05c0-.53.15-1.09.15-1.6v-2.2c-.76.5-1.56.95-2.33,1.44a10.7,10.7,0,0,0-1.42,1.06,7.39,7.39,0,0,1-1.25,1.06,21.36,21.36,0,0,0-2.38,1.88c-.47.4-.91.84-1.4,1.22a3.52,3.52,0,0,1-1.24.78c-.45.12-1.39.06-1.63-.44a1.08,1.08,0,0,1-.36-.58.8.8,0,0,1,.12-.56,1.2,1.2,0,0,1,.66-.42l.29-.11a1,1,0,0,1,.25-.26c.16-.13.37-.17.52-.31l.59-.49c.76-.65,1.52-1.32,2.31-1.95a16.52,16.52,0,0,0,1.43-1.06,12.63,12.63,0,0,1,1.36-1.18c.51-.38,1.05-.73,1.59-1.06a2.64,2.64,0,0,0,1.09-.92.7.7,0,0,0-.09-.59,1.76,1.76,0,0,1-.42-1.16,1.42,1.42,0,0,1,.37-.94Z"/><path class="cls-2" d="M58.57,16.28a1.92,1.92,0,0,1,1.37.16c.52.27.18.91.15,1.38A16.87,16.87,0,0,0,60,20.28a14.79,14.79,0,0,1,0,2.49,17.7,17.7,0,0,1-.51,2.59,8.27,8.27,0,0,1-.36,1.13c-.11.26-1.06,3.86-1.43,5.38-.09.37-.19.74-.32,1.11s-.32.72-.42,1.1l-.64,2.42c-.35,1.24-.65,2.49-1,3.71s-.78,2.24-1,3.39-.52,2.52-.81,3.78-.58,2.62-.82,3.93c-.19,1-.34,2.08-.43,3.12-.06.67-.11,1.33-.2,2a2.58,2.58,0,0,0,1.26.86,2.48,2.48,0,0,0,1.58.24c.49-.3.68.48.7.81a1.17,1.17,0,0,1-.66,1.22,4.72,4.72,0,0,1-1.59,0,26.09,26.09,0,0,1-3.65-.06,34.26,34.26,0,0,0-3.51.06,1.61,1.61,0,0,1-.87.06,1.84,1.84,0,0,0-.81,0,4.85,4.85,0,0,1-.85.05c-.31,0-.58.07-.88.07-.61,0-1.23,0-1.83.11l-.72.06c-.19.06-.37.12-.5-.06a1.47,1.47,0,0,1-.19-1.16c0-.28.38-1.09.79-.79l.93-.11a1.73,1.73,0,0,0,.72-.11c.17-.11.42-.14.61-.25s.46-.17.68-.28c.51-.27.69-.79,1.1-1.17s.4-.84.44-1.39a21.83,21.83,0,0,1,.38-3.26,11.61,11.61,0,0,1,.67-2.59A23.81,23.81,0,0,0,46.38,46c.14-.74.12-1.53.33-2.25.29-.94.55-1.88.88-2.8a9.07,9.07,0,0,1,3.13-4.35,43.07,43.07,0,0,0,3.66-2.93l-.11.08a4.17,4.17,0,0,0,.91-2.19c.22-.85.4-1.72.65-2.57s.44-1.76.75-2.6c.13-.35.34-.68.47-1.05,0-.11.12-.21,0-.27s-.27-.06-.18-.06c-1.65-.16-3.3-.42-4.95-.63-1.49-.18-3-.09-4.49-.27l-.26,0L46.38,24l-1.22-.11-1-.14a2.3,2.3,0,0,0-1.13.12,4.29,4.29,0,0,0-.92.36c-.21.12-.34.47-.45.69a3.23,3.23,0,0,0-.48,1,5.9,5.9,0,0,1-.23.92c-.09.24,0,.62-.17.81a1,1,0,0,1-.58.2,1.43,1.43,0,0,1-1.29-.37c-.35-.5,0-1.49.2-2a13.34,13.34,0,0,0,.7-2.25l.14-.54c.05-.19-.08-.34-.1-.53a1.75,1.75,0,0,1,.24-.87c-.09.23.19-.19.19-.2l-.21.19.28-1a1.75,1.75,0,0,0,.12-.32l.29-.81,0,.1c.3-.82.54-2.17,1.6-2.3a1.32,1.32,0,0,1,.62.09,1.53,1.53,0,0,1,.3.19l.45.09a8.49,8.49,0,0,0,1.22.24h-.12a12.88,12.88,0,0,1,2.32.26c.4,0,.81,0,1.17,0,1.37.12,2.76.07,4.12.3s2.71.21,4,.36l.43,0h-.1c.34,0,.61.12.86-.18s.2-.59.39-.84a1.69,1.69,0,0,1,.09-.49c0-.15,0-.11,0-.28a.66.66,0,0,1,.48-.51Z"/><path class="cls-3" d="M204.42,117.32c3.75-2.77,5.38-6.21,7.81-9.77-.13-.53-.25-1-.38-1.57-2.33-1.13-4.15-3-6.13-4.7a52.87,52.87,0,0,0-7.48-5.39q-3.26,12.8-6.61,25.56A21.94,21.94,0,0,0,204.42,117.32Z"/><path class="cls-4" d="M205.36,241.72c.89-1.67,1.76-3.36,2.6-5.05a1.38,1.38,0,0,1,2.37,0c.65,1,1.22,2,1.76,3a24.16,24.16,0,0,1,1.46-3.8,1.39,1.39,0,0,1,2.38,0c.31.6.64,1.17,1,1.72a78.49,78.49,0,0,1-2.37-24.3c-3.29.23-6.55.27-9.63.21A176.89,176.89,0,0,1,205.36,241.72Z"/><path class="cls-3" d="M207.13,84.24q-1.38-7-2.52-14.14-2.21,9.27-4.51,18.5a40.12,40.12,0,0,0,3.81-1.94C205,86,206,85,207.13,84.24Z"/><path class="cls-3" d="M203.91,153.71c6-2.78,12.64-5.83,17.25-10.7-11.37-.87-22.09-8.45-31.32-14.72q-3.9,14.91-7.71,29.83A46,46,0,0,0,203.91,153.71Z"/><path class="cls-3" d="M203.45,156.59c-6.08,2.52-12.69,4.37-19.28,4.07,2.3,1.61,4.35,3.66,6.86,5,4.64,2.42,9.67,3.77,14.68,5.2s10.17,2.91,15.36,3.93c3.49.69,7,1,10.53,1.47-3.13-10.29-6.25-20.61-9.25-31C217.45,150.51,209.82,154,203.45,156.59Z"/><path class="cls-4" d="M211.14,103q-1.87-8.07-3.51-16.17A22.71,22.71,0,0,1,204.34,89a43.52,43.52,0,0,1-4.93,2.34l-.66,2.58a38.23,38.23,0,0,1,6.53,4.24C207.28,99.75,209.09,101.52,211.14,103Z"/><path class="cls-4" d="M213.19,111.5a23.89,23.89,0,0,1-7.53,8A25.12,25.12,0,0,1,191,123.83c-.19.71-.37,1.42-.56,2.12,9.83,6.06,19.07,12.57,30.47,14.37C218.19,130.75,215.58,121.15,213.19,111.5Z"/><path class="cls-3" d="M205.67,195c-10.43,3-21.39,5.36-32.25,4.1,2.62,6.9,14.51,8.3,20.61,8.69,8.53.55,17.45,1.09,25.9-.55,6.64-1.3,14.5-3.58,18.06-9.77-1.34-4.51-2.71-9-4.08-13.55C225.83,189.7,214.91,192.3,205.67,195Z"/><path class="cls-4" d="M205,192.33c9.4-2.81,20-5.36,28.11-11.27l-.6-2c-9.7,0-19.86-3.51-29-6.19-8.62-2.55-15.63-5.66-22.13-11.75q-1,3.84-1.94,7.69-1.83,7.38-3.65,14.77c-1,3.9-3,8.73-2.87,12.83C183.82,197.25,194.41,195.49,205,192.33Z"/><path class="cls-4" d="M205.51,45.52a6.28,6.28,0,0,0-2.83.09,6.91,6.91,0,0,0-1.8.5c-1.43.61-2,2-2.58,3.33a5.42,5.42,0,0,0-.4,2.28,4,4,0,0,0,.85,2.79c.08.17.15.35.23.53,1.15,2.31,5.28,3.45,7.5,2.15a5.62,5.62,0,0,0,2.25-2.77,6.77,6.77,0,0,0,.44-.58C211.3,50.74,209,46.22,205.51,45.52Z"/><path class="cls-2" d="M142.71,25.89A72.46,72.46,0,0,0,152,40.29a1.49,1.49,0,0,1-.12,1.8q-4.75,6.13-9.12,12.54,5.19-1,10.33-2.33c1.16-.29,3.35-1.2,4.49-.2,1.78,1.57,1.33,4.16,1.4,6.3a64.45,64.45,0,0,0,.43,8.34,48.55,48.55,0,0,0,4.44-6.2c1.26-2.13,2.17-4.59,3.73-6.5a1.53,1.53,0,0,1,1.42-.49c3.14.58,6.12,2.62,9.06,3.84q3.38,1.41,6.82,2.65-4.35-7-8.67-14a1.52,1.52,0,0,1,.41-2.1c4.44-2.34,8.87-4.7,13.14-7.33-5.78-.57-12.09-.9-17.12-3.19a1.44,1.44,0,0,1-.78-1.59,58.86,58.86,0,0,0,2-14.3c-4.16,4.45-8.54,9.33-13.4,12.6-1.67,1.12-6.38-1.36-8.15-1.83Q147.55,27,142.71,25.89Z"/><path class="cls-2" d="M35.89,197.17a55,55,0,0,1,4.94,12.14A1.13,1.13,0,0,0,42,210c4-.2,7.89-.26,11.84-.22q-2.91,2.8-6,5.45c-.69.6-2.22,1.57-2.09,2.72.2,1.8,2,2.66,3.33,3.64a49.24,49.24,0,0,1,5,3.92,37.81,37.81,0,0,1-5.83.06,39.2,39.2,0,0,0-5.7-.51,1.16,1.16,0,0,0-.93.68c-1,2.22-1,5-1.56,7.35q-.6,2.73-1.32,5.43-2.49-5.78-5-11.56a1.16,1.16,0,0,0-1.5-.66c-3.4,1.76-6.82,3.49-10.33,5,2.17-3.86,4.73-8,5.49-12.11a1.1,1.1,0,0,0-.65-1.18A44.85,44.85,0,0,1,17,213c4.6-.66,9.57-1.26,13.75-2.88,1.43-.55,1.94-4.58,2.42-5.9C34,201.87,34.94,199.51,35.89,197.17Z"/><path class="cls-2" d="M231.55,83.42a43.81,43.81,0,0,0,3.22,9.76.86.86,0,0,1-.34,1q-3.69,2.83-7.18,5.89,3.17.19,6.34.22c.71,0,2.12-.2,2.63.56.79,1.18.14,2.61-.14,3.86a39.48,39.48,0,0,0-1,4.9,28.86,28.86,0,0,0,3.52-2.92,29.76,29.76,0,0,1,3.15-3.2.89.89,0,0,1,.89-.07c1.73.81,3.15,2.44,4.67,3.6q1.76,1.32,3.55,2.57l-2.9-9.44A.92.92,0,0,1,248.5,99c2.93-.68,5.85-1.38,8.72-2.26-3.26-1.2-6.87-2.35-9.44-4.44a.89.89,0,0,1-.21-1,35.27,35.27,0,0,0,3.33-8c-3.08,2-6.36,4.12-9.68,5.28-1.13.39-3.49-1.76-4.44-2.3Q234.19,84.79,231.55,83.42Z"/><path class="cls-4" d="M157.93,196.05a2,2,0,0,1,.39-3,64.89,64.89,0,0,0,9.1-8.5,51.76,51.76,0,0,1-20.16-17.68,2,2,0,0,1,1.15-2.82,75.42,75.42,0,0,0,18.27-10.5,116.63,116.63,0,0,1-23-26.39,1.91,1.91,0,0,1,.29-2.27,103.12,103.12,0,0,0,7.68-10.48,100.1,100.1,0,0,1-23-16.18,1.88,1.88,0,0,1,.37-2.92,51.44,51.44,0,0,0,9.51-7.92,42.38,42.38,0,0,1-16.76-19,1.83,1.83,0,0,1,.64-2.46,19.08,19.08,0,0,0,6.68-5,204.88,204.88,0,0,1-25-38.64,138.42,138.42,0,0,1-22.85,41,16.4,16.4,0,0,0,9.53,3.44A1.82,1.82,0,0,1,92.5,69a101.45,101.45,0,0,1-22.35,38.61,33.88,33.88,0,0,0,18.18,5.56,1.89,1.89,0,0,1,1.8,2.36,88.32,88.32,0,0,1-23.7,37,25.81,25.81,0,0,0,15,6.73,1.93,1.93,0,0,1,1.84,2.42,78.62,78.62,0,0,1-19.91,32.18,28.83,28.83,0,0,0,10.87,3.67,2,2,0,0,1,1.91,2.51c-2.07,8.09-7.6,14-13.62,19.37,8.33,5,18.25,6,27.83,6.61a212.34,212.34,0,0,0,32.2-.19,208.17,208.17,0,0,0,33.37-5.51c7.62-1.95,15.16-4.12,21.76-8.25-3.08-.81-5.5-3.13-8-5.31Q163.59,201.6,157.93,196.05ZM118.52,78.5a46.73,46.73,0,0,0,1.62,7,54.91,54.91,0,0,1,2,6c.23,1.13-1.3,2.39-2.18,1.26-2.94-3.79-3.77-9.2-4.3-13.85C115.42,77.23,118.26,76.85,118.52,78.5ZM103.75,48.08c.42,4.06,2.09,7.93,2.61,12a51.36,51.36,0,0,1,.45,12.75c-.17,1.37-2.29,2-2.63.35-1-4.74-.82-9.64-1.64-14.42-.61-3.57-1.9-7-1.87-10.68C100.68,46.05,103.56,46.14,103.75,48.08Zm-20,160.33c-.43,1.93-.92,3.86-1.48,5.75a13.53,13.53,0,0,1-2,4.77c-.8,1-2.23.07-2.31-1-.14-1.82.66-3.71,1.23-5.42s1.09-3.29,1.71-4.91A1.46,1.46,0,0,1,83.76,208.41ZM90,139.06c.42-1.47,2.93-1.23,2.75.38-.24,2.08-.47,4.16-.64,6.25a23.73,23.73,0,0,1-.66,5.78,1.38,1.38,0,0,1-2.64,0C87.68,147.77,89,142.7,90,139.06ZM94,207.32c-.14,1.59-2.51,2.13-2.92.39-1.25-5.18-1.17-10.79-1.48-16.1-.16-2.78-1.77-8,.57-10.17a1.5,1.5,0,0,1,2.35,1.81c-.61,1.4.34,4.87.47,6.4q.25,2.94.48,5.89C93.72,199.44,94.31,203.41,94,207.32ZM99.52,108c-1.6-6.92-1.66-14.32-2.82-21.36-.31-1.89,2.46-2.74,2.93-.81,1.62,6.8,3.48,14.79,2.59,21.8C102,109.06,99.9,109.64,99.52,108Zm3.56,50.86c-1.73-7.44-.81-16.22-.33-23.8a1.55,1.55,0,0,1,3.09,0c.17,7.71,1.22,16.18,0,23.8C105.66,160.31,103.39,160.2,103.08,158.86Zm4.11,56.74a1.15,1.15,0,0,1-1.89.5c-3-3.33-1.76-10.22-1-14.24.39-2,3.22-1.09,3,.81a33.35,33.35,0,0,0-.21,7.06C107.22,211.68,107.82,213.7,107.19,215.6ZM113.4,53.76a1,1,0,0,1-1.9.51C109.72,51,109.17,47,108,43.54c-.66-1.9,2.35-2.71,3-.83C112.13,46.13,113.74,50.09,113.4,53.76Zm9,154.92a1.46,1.46,0,0,1-2.86.39c-1.46-4.06-1.68-8.81-2.12-13.08-.25-2.46-1.74-6.9.54-8.71,1.17-.92,3.27.3,2.25,1.73-.74,1,.56,5.28.73,6.5.23,1.59.44,3.17.66,4.76A42.49,42.49,0,0,1,122.36,208.68Zm-1.06-76.27c-2.88-8.17-4.32-17-6.7-25.41-.52-1.83,2.12-2.46,2.79-.77,3.17,8,6.36,17.17,6.52,25.83A1.33,1.33,0,0,1,121.3,132.41Zm7.84,47.16c-1-3.44-1.3-7.14-1.78-10.71-.53-4-1.3-8-1.11-12a1.2,1.2,0,0,1,2.34-.32c1.29,3.8,1.67,7.92,2.25,11.88.53,3.56,1.3,7.19,1.23,10.79A1.5,1.5,0,0,1,129.14,179.57Zm10.08-28.1c-1.82-3.83-2.79-8-4.54-11.87-1.27-2.83-3.3-5.7-3.22-8.9,0-1.64,2.65-2.12,2.95-.4.64,3.68,3.18,7.1,4.6,10.56a33.84,33.84,0,0,1,2.86,9.9A1.43,1.43,0,0,1,139.22,151.47Zm15,59.59a20.79,20.79,0,0,1-5.28-6.1c-1.49-2.29-3.44-4.89-3.93-7.61-.23-1.22,1.24-2.35,2.22-1.3,1.71,1.85,2.72,4.34,4.17,6.41s3.55,4.24,4.78,6.64C156.79,210.29,155.49,211.93,154.22,211.06Z"/><path class="cls-3" d="M126.89,230.44c-1.39-4.78-6-4-9.34-1.9a1.74,1.74,0,0,0-.2-.38l-.14-.21a1.68,1.68,0,0,0-1.82-.74l-.29.06A1.58,1.58,0,0,0,114,228.4c-.49,3.22.72,6.9,1.22,10.08l2.7,17.2a1.76,1.76,0,0,0,1.27,1.27c3.11.53,10,2.16,11.11-2.6C132,247.1,128.91,237.38,126.89,230.44Z"/></g></g></svg>