<?xml version="1.0" encoding="UTF-8" standalone="no"?>
<!-- Created with Inkscape (http://www.inkscape.org/) -->

<svg
   xmlns:dc="http://purl.org/dc/elements/1.1/"
   xmlns:cc="http://creativecommons.org/ns#"
   xmlns:rdf="http://www.w3.org/1999/02/22-rdf-syntax-ns#"
   xmlns:svg="http://www.w3.org/2000/svg"
   xmlns="http://www.w3.org/2000/svg"
   xmlns:sodipodi="http://sodipodi.sourceforge.net/DTD/sodipodi-0.dtd"
   xmlns:inkscape="http://www.inkscape.org/namespaces/inkscape"
   width="16.971941mm"
   height="16.546001mm"
   viewBox="0 0 16.971941 16.546001"
   version="1.1"
   id="svg1453"
   inkscape:version="0.92.5 (2060ec1f9f, 2020-04-08)"
   sodipodi:docname="collective-challenge-btn.svg">
  <defs
     id="defs1447" />
  <sodipodi:namedview
     id="base"
     pagecolor="#ffffff"
     bordercolor="#666666"
     borderopacity="1.0"
     inkscape:pageopacity="0.0"
     inkscape:pageshadow="2"
     inkscape:zoom="3.959798"
     inkscape:cx="-5.4831765"
     inkscape:cy="3.6110818"
     inkscape:document-units="mm"
     inkscape:current-layer="g2023"
     showgrid="false"
     fit-margin-top="0"
     fit-margin-left="0"
     fit-margin-right="0"
     fit-margin-bottom="0"
     inkscape:window-width="1366"
     inkscape:window-height="719"
     inkscape:window-x="0"
     inkscape:window-y="25"
     inkscape:window-maximized="1" />
  <metadata
     id="metadata1450">
    <rdf:RDF>
      <cc:Work
         rdf:about="">
        <dc:format>image/svg+xml</dc:format>
        <dc:type
           rdf:resource="http://purl.org/dc/dcmitype/StillImage" />
        <dc:title />
      </cc:Work>
    </rdf:RDF>
  </metadata>
  <g
     inkscape:label="Capa 1"
     inkscape:groupmode="layer"
     id="layer1"
     transform="translate(-95.079505,-136.78057)">
    <g
       id="g2023"
       transform="translate(294.82143,129.26786)">
      <path
         class="st4"
         d="m -192.9399,18.476007 -1.34938,5.212292 3.99521,-3.413125 z"
         id="path8"
         inkscape:connector-curvature="0"
         style="fill:#7ab6d9;stroke-width:0.26458332;fill-opacity:1" />
      <path
         class="st4"
         d="m -183.15032,7.8926734 -15.875,6.4293746 c -0.39687,0.15875 -0.42333,0.714375 -0.0265,0.899584 l 3.75709,1.878541 z"
         id="path10"
         inkscape:connector-curvature="0"
         style="fill:#7ab6d9;stroke-width:0.26458332;fill-opacity:1" />
      <path
         class="st4"
         d="M -183.15032,7.8926734"
         id="path12"
         inkscape:connector-curvature="0"
         style="fill:#4b868e;stroke-width:0.26458332" />
      <polygon
         class="st0"
         points="45,87.9 41.2,63 87.1,28.2 74.4,83.6 50.1,68.2 "
         id="polygon14"
         style="fill:#ffffff"
         transform="matrix(0.26458333,0,0,0.26458333,-206.19553,0.43142347)" />
      <g
         id="g20"
         transform="matrix(0.26458333,0,0,0.26458333,-206.19553,0.43142347)">
        <path
           class="st1"
           d="m 88.2,27.2 c -0.4,-0.4 -0.9,-0.5 -1.4,-0.4 -0.3,0.1 -0.3,0.1 -0.3,0.1 l -60,24.3 c -1.2,0.5 -2.1,1.7 -2.1,3 -0.1,1.3 0.7,2.6 1.9,3.2 l 13.6,6.6 3.7,23.6 c -0.1,0.6 0.2,1.2 0.7,1.5 0.2,0.1 0.5,0.2 0.8,0.2 h 0.1 c 0.5,0 1,-0.2 1.2,-0.7 l 14.1,-12 10.9,7.2 c 0.9,0.6 2.1,0.7 3.1,0.3 1,-0.4 1.8,-1.3 2,-2.4 l 12,-53.2 v 0 0 c 0.1,-0.4 0,-0.9 -0.3,-1.3 z m -3.8,6.1 -10.8,47.8 c 0,0.2 -0.1,0.2 -0.2,0.3 -0.1,0 -0.2,0.1 -0.4,0 L 52.4,67.9 Z M 57.8,75 47.7,83.6 51,70.6 Z M 48.7,67.7 C 48.6,68.1 48.1,70 45.4,80.4 L 42.8,63.7 56.1,53.6 c 0.3,-0.2 0.5,-0.6 0.6,-1 0.1,-0.4 0,-0.8 -0.3,-1.1 C 55.9,50.8 55,50.7 54.3,51.2 L 41,61.2 27.6,54.5 c -0.2,-0.1 -0.2,-0.3 -0.2,-0.4 0,-0.1 0.1,-0.3 0.2,-0.4 l 49.7,-20.1 -14,10.7 c -0.3,0.2 -0.5,0.6 -0.6,1 -0.1,0.4 0.1,0.8 0.3,1.1 0.2,0.3 0.6,0.5 1,0.6 0.4,0.1 0.8,0 1.1,-0.3 l 9.2,-7 L 49,67.1 c -0.1,0.2 -0.2,0.4 -0.3,0.6 z"
           id="path16"
           inkscape:connector-curvature="0"
           style="fill:#3c3c3b" />
        <path
           class="st1"
           d="m 59.8,50.5 c 0.7,0 1.4,-0.5 1.5,-1.3 0.1,-0.6 -0.2,-1.2 -0.8,-1.5 -0.5,-0.3 -1.2,-0.2 -1.7,0.1 -0.5,0.4 -0.7,1 -0.5,1.6 0.2,0.7 0.8,1.1 1.5,1.1 z"
           id="path18"
           inkscape:connector-curvature="0"
           style="fill:#3c3c3b" />
      </g>
    </g>
  </g>
</svg>
