<svg xmlns="http://www.w3.org/2000/svg" viewBox="0 0 270 270"><defs><style>.cls-1{fill:#fff;}.cls-2{fill:#002d26;}.cls-3{fill:#a01a22;}.cls-4{fill:#a78126;}</style></defs><g id="Capa_2" data-name="Capa 2"><g id="Home"><rect class="cls-1" width="270" height="270" rx="9.75"/><path class="cls-2" d="M31.33,20c.62,0,1.23.23,1.84.33a8.73,8.73,0,0,1,1.69.43,5.46,5.46,0,0,1,2.76,2.08,7.06,7.06,0,0,1,.86,1.48,10.13,10.13,0,0,1,.7,1.58,12.39,12.39,0,0,1,.49,3.78,33.11,33.11,0,0,1-.1,3.86A11.64,11.64,0,0,1,38.49,37c-.29.6-.68,1.14-1,1.72a7.65,7.65,0,0,1-.94,1.49,9.87,9.87,0,0,1-2.73,2.21c-1,.53-2,1-3,1.4-.27.13-.46.35-.74.46a3.39,3.39,0,0,0-.68.29c-.46.31-.92.63-1.35,1a6.43,6.43,0,0,0-1.38,2.89l-.55,1.59a6.45,6.45,0,0,0-.27.85,2.29,2.29,0,0,1-.07.36v-.09a2.7,2.7,0,0,1-.12.7v-.09a4.12,4.12,0,0,1-.27,1l-.44,1.49c-.28,1-.53,2-.74,3a5.74,5.74,0,0,1,2.29-.79,10.67,10.67,0,0,1,1.13,0c.42,0,.84-.09,1.26-.12A7.21,7.21,0,0,1,33.37,58a21.19,21.19,0,0,1,1.91,1.64c.23.2.79.8,1.14.58.87-.55.74-2.32.53-3.14a2.25,2.25,0,0,1,.3-1.64c.26-.37.72-.28,1.12-.26a.83.83,0,0,1,.92.76,12.62,12.62,0,0,1,.13,1.74,7.51,7.51,0,0,1-.14,2,4.8,4.8,0,0,0,0,.85l-.08.89c0,.64-.17,1.29-.24,1.94a2.51,2.51,0,0,0-.07.59,1.42,1.42,0,0,1-.09.7c-.31.65-1.4.41-1.85.06s-.39-.82-.58-1.23-.67-.3-1-.3c-.56.06-1.12,0-1.67.06a8.76,8.76,0,0,1-1.76.18,9.77,9.77,0,0,1-3.63-.88l.13,0a7.46,7.46,0,0,0-2-.52,5,5,0,0,1-1,0,3.4,3.4,0,0,0-1.29.22c-.43.13-.68.55-1.09.73a1.13,1.13,0,0,1-1.25-.24c-.45-.37-.41-.91-.38-1.46s.07-1.26.15-1.88a41.64,41.64,0,0,1,1.81-7.72c.13-.43.15-.88.26-1.32s.38-1,.54-1.58a36.64,36.64,0,0,1,1.28-3.5A5.94,5.94,0,0,1,27.61,43c.5-.35,1-.71,1.54-1a2.24,2.24,0,0,0,.46-.35l.26-.25.21-.16,0-.06a15.38,15.38,0,0,0,1.67-3.06c.44-1.09.83-2.48,1.19-3.69a10.76,10.76,0,0,0,.37-1.09c.08-.36,0-.75.1-1.11a10.7,10.7,0,0,0,.22-1.1c0-.4,0-.8,0-1.2,0-.6-.1-1.23-.19-1.79a22.83,22.83,0,0,1-.4-2.59,4,4,0,0,0-.53-1.92,5.2,5.2,0,0,0-.57-.76c-.2-.24-.24-.38-.57-.3s-.91.1-1.24.48a8.63,8.63,0,0,0-1,1.73l0-.11a13.55,13.55,0,0,0-.51,2.16,22.75,22.75,0,0,0,0,2.74,6,6,0,0,1-.09,2.57,1.17,1.17,0,0,1-.62.77,2.13,2.13,0,0,1-1.12.06c-.94,0-1.89,0-2.83.06a3.57,3.57,0,0,1-2.09-.3c-.75-.48-.58-1.2-.58-2a20.88,20.88,0,0,1-.14-2.51c.29-2.39,1-4.77,3-6.27a10.34,10.34,0,0,1,3.26-1.65,8.11,8.11,0,0,1,2-.24,15.79,15.79,0,0,1,1.82,0Z"/><path class="cls-2" d="M53.93,20c.28-.25.6.08.87.21a6.91,6.91,0,0,0,1.35.37l.64.17c.13,0,.29,0,.41.09s.07.14.28.17l.31.05.56.06a7.58,7.58,0,0,0,1,.19c.45,0,.91.06,1.36.08a10.21,10.21,0,0,1,1.2.34,7.72,7.72,0,0,0,1.52.11.48.48,0,0,1,.55.39,1.75,1.75,0,0,1-.2,1.51c-.22.26-.78.28-1.09.42a1.62,1.62,0,0,0-.57.4,6.33,6.33,0,0,0-.44,1l-.11.46,0,.76a18,18,0,0,1-.1,2.53v-.12c0,.73-.13,1.43-.12,2.15l0,1.1c0,.06,0,.57.06.63a19.6,19.6,0,0,1,.08,4.33c-.13,1.55-.23,3.11-.45,4.65a20.31,20.31,0,0,0,0,3.74c0,.7.09,1.39.06,2.08,0,.48-.09.95-.14,1.42-.12,1.24.06,2.52,0,3.75a11.43,11.43,0,0,1-.2,2,10.55,10.55,0,0,0-.27,1.36c0,.41-.12.82-.12,1.23,0,.25.16.44.22.68a6.33,6.33,0,0,1,.12.74,2.35,2.35,0,0,0,1.88,1.62,1.73,1.73,0,0,0,.51,0c.16,0,.17-.07.32-.11a.4.4,0,0,1,.42.19,1.86,1.86,0,0,1,.16,1c0,.32-.12.81-.45.93a1.44,1.44,0,0,1-.71.06h-.87a13.48,13.48,0,0,0-1.55.12l-.76.11c-.23,0-.46.06-.69.06a2.43,2.43,0,0,1-1.31,0c-.15-.12-.06-.17-.28-.17h-.29l-.37.05a11.25,11.25,0,0,1-1.37.24,5.73,5.73,0,0,1-1,.41,1.74,1.74,0,0,1-.6-.18,2.37,2.37,0,0,1-.3-.23h-.3a5.62,5.62,0,0,1-1.41.18,1,1,0,0,0-.58.12c-.16,0-.4.17-.56,0a.88.88,0,0,0-.55-.12.44.44,0,0,1-.36.18c-.59-.18-.47-1.19-.32-1.6a.82.82,0,0,1,.78-.59l1.12-.08c.67-.48,1.55-.64,2.12-1.26a2.29,2.29,0,0,0,.43-1.54l.14-1.87c.06-1.36,0-2.71,0-4.07a13,13,0,0,1,0-2,13.28,13.28,0,0,0,.22-1.54V47.12c0-.5.1-1,.11-1.5,0-1.18,0-2.37,0-3.56a11.54,11.54,0,0,1,.1-2,15.25,15.25,0,0,0,.28-1.62l.11-2a15.33,15.33,0,0,1,.19-1.66c.08-.63,0-1.26.1-1.89s.13-1.16.21-1.73v.09a6.24,6.24,0,0,0,.11-.84,17.75,17.75,0,0,1,.21-2.06c0-.53.15-1.09.15-1.6v-2.2c-.76.51-1.56,1-2.33,1.44a10.7,10.7,0,0,0-1.42,1.06,7.39,7.39,0,0,1-1.25,1.06A21.36,21.36,0,0,0,48.49,30c-.47.4-.91.84-1.4,1.22a3.52,3.52,0,0,1-1.24.78c-.45.12-1.39.07-1.63-.44a1.1,1.1,0,0,1-.36-.58.8.8,0,0,1,.12-.56,1.2,1.2,0,0,1,.66-.42l.29-.11a2,2,0,0,1,.24-.26c.17-.13.38-.16.53-.31l.59-.49c.76-.65,1.52-1.32,2.31-1.95A16.52,16.52,0,0,0,50,25.82a12.63,12.63,0,0,1,1.36-1.18c.51-.38,1-.73,1.59-1.06a2.57,2.57,0,0,0,1.09-.92.7.7,0,0,0-.09-.59,1.76,1.76,0,0,1-.42-1.15,1.4,1.4,0,0,1,.37-.94Z"/><path class="cls-2" d="M110.68,119c-3.66-3.84-8.69-6.57-12-10.75-3.06-3.9-2.69-10.77,1-14.22a7.25,7.25,0,0,1,3.36-1.78,15.13,15.13,0,0,1,2.44,0l-.11-.08c-2.46-1.51-7.09-5.51-10.22-2.79-.18.16-.36.31-.54.49A10.68,10.68,0,0,0,91.85,94c-4.72,13.72,8.5,21.36,21.15,27.2a19.26,19.26,0,0,1-2-1.88Z"/><path class="cls-3" d="M110.06,180.37l-1.62,4.53a23.11,23.11,0,0,0,3.06-.82,1.81,1.81,0,0,0,1.25-1.13A2.2,2.2,0,0,0,110.06,180.37Z"/><path class="cls-3" d="M115.7,206.54l-.2-.1c1.93,1.09,3.83,2.23,5.68,3.44C120,208.51,116.86,207.21,115.7,206.54Z"/><path class="cls-3" d="M114.46,168.29c-.4,1.1-.8,2.22-1.22,3.33,2.17-.58,4-1.72,4.68-3.94.16-.61-.57-1.11-1.14-1.05a11.17,11.17,0,0,0-1.84.26C114.78,167.37,114.62,167.82,114.46,168.29Z"/><path class="cls-2" d="M107.62,206.46c-.39,2.16-2.64,9.35.83,10.27.28.08.57.14.85.2,1.28.26,2.56.45,3.8.73.59.1,1.2.19,1.81.27s2.09.42,3.27.51a2.87,2.87,0,0,0,1.71-.25c.91-.61.12-3.29.34-4.29.06-.32,1-2.92,1.19-3.65a.22.22,0,0,0-.06-.13l-.18-.24c-1.85-1.21-3.75-2.35-5.68-3.44l-.1-.06c-1.47-.76-7.05-3.55-7-3.9C108.12,203.8,107.82,205.12,107.62,206.46Z"/><path class="cls-2" d="M113.54,185.91a125.64,125.64,0,0,1,12.6,7.59c.62-2.52,1.25-5,1.87-7.55.36-1.48.72-3,1.11-4.47a1.29,1.29,0,0,1-.63-.36,85.62,85.62,0,0,0-9.57-9.28c-1.54,3.92-3.1,7.83-4.5,11.73l-.36,1C113.88,185,113.72,185.46,113.54,185.91Z"/><path class="cls-3" d="M120.22,219.14c1.41-.51,1.62-2.81,1.64-4.17s-.4-2.68-.27-4a1.08,1.08,0,0,0-.17-.7c-.19.73-1.13,3.33-1.19,3.65-.22,1,.57,3.68-.34,4.29a2.87,2.87,0,0,1-1.71.25c-1.18-.09-2.6-.43-3.27-.51s-1.22-.17-1.81-.27a13,13,0,0,1,2.1.64C116.46,218.82,118.82,219.64,120.22,219.14Z"/><path class="cls-3" d="M112.75,183l1.67.62-.36,1c-.18.45-.34.91-.52,1.36a125.64,125.64,0,0,1,12.6,7.59c.62-2.52,1.25-5,1.87-7.55l2.24.56a2.29,2.29,0,0,0,2.22,3c-1.26,5.35-2.51,10.71-4,16S126,217,122.81,221.58a2.37,2.37,0,0,1-1.16.78,2.73,2.73,0,0,1-2.18.87c-5.1-.34-15.92-.4-17.55-6.38-1.79-6.83,1.31-15.62,3.3-22.14,1-3.3,2.1-6.57,3.22-9.81a23.11,23.11,0,0,0,3.06-.82A1.81,1.81,0,0,0,112.75,183Zm-3.45,34a35.36,35.36,0,0,0,3.8.73,13,13,0,0,1,2.1.64c1.26.52,3.62,1.34,5,.84s1.62-2.81,1.64-4.17-.4-2.68-.27-4a1.08,1.08,0,0,0-.17-.7c0-.11.06-.19,0-.19l-.28-.18c-1.18-1.37-4.32-2.67-5.48-3.34l-.2-.1-.1-.06c-2.3-1.31-4.63-2.59-7-3.9-.33,1.32-.63,2.64-.83,4-.39,2.16-2.64,9.35.83,10.27C108.73,216.81,109,216.87,109.3,216.93Z"/><path class="cls-3" d="M130.25,186.51a2.29,2.29,0,0,0,2.22,3c.28-1.16.54-2.35.82-3.51.16-.69.32-1.37.51-2.06-.74.39-1.49.76-2.24,1.11A2.34,2.34,0,0,0,130.25,186.51Z"/><path class="cls-2" d="M132.29,158.71c.79.71,1.69,1.35,2.52,2a61.25,61.25,0,0,1,5.36-11.84,28.08,28.08,0,0,1-11.67-3.47c-.18-.1-.33-.2-.49-.3-.63,2.62-1.37,5.22-2.21,7.84a.87.87,0,0,1,.41.14C128.29,154.9,130.21,156.92,132.29,158.71Z"/><path class="cls-3" d="M135.2,171.28c-1.17,1.06-.19,2.42,1.07,2.76.41-1.59.85-3.19,1.31-4.76C136.77,169.93,136,170.57,135.2,171.28Z"/><path class="cls-3" d="M140.17,148.89a61.25,61.25,0,0,0-5.36,11.84c-.83-.67-1.73-1.31-2.52-2-2.08-1.79-4-3.81-6.08-5.61a.87.87,0,0,0-.41-.14c.84-2.62,1.58-5.22,2.21-7.84a13.23,13.23,0,0,1-1.51-1h0c0,.12-.08.23-.12.37-.61,2.27-.72,4.53-1.3,6.84a3.4,3.4,0,0,0-.11,2.06,3.45,3.45,0,0,0,1.1,1.37c2.61,2.28,5.83,4.07,7.73,6.9a1.33,1.33,0,0,0,.72.68,1.14,1.14,0,0,0,.83-.18,5,5,0,0,0,2.38-3c.42-1.2.59-2.48.89-3.7a15.55,15.55,0,0,1,2.31-5.06,13.33,13.33,0,0,0,1-1.57A8.77,8.77,0,0,1,140.17,148.89Z"/><path class="cls-3" d="M113.24,171.62c-1.06,2.93-2.12,5.84-3.18,8.75a2.2,2.2,0,0,1,2.69,2.58l1.67.62c1.4-3.9,3-7.81,4.5-11.73a85.62,85.62,0,0,1,9.57,9.28,1.29,1.29,0,0,0,.63.36c-.39,1.49-.75,3-1.11,4.47l2.24.56a2.34,2.34,0,0,1,1.31-1.49c.75-.35,1.5-.72,2.24-1.11.78-3.29,1.59-6.6,2.47-9.87-1.26-.34-2.24-1.7-1.07-2.76.78-.71,1.57-1.35,2.38-2,.34-1.28.72-2.56,1.1-3.82,1.75-5.86,4.34-11.45,6.07-17.33a8.3,8.3,0,0,1-2.8.71,13.33,13.33,0,0,1-1,1.57,15.55,15.55,0,0,0-2.31,5.06c-.3,1.22-.47,2.5-.89,3.7a5,5,0,0,1-2.38,3,1.14,1.14,0,0,1-.83.18,1.33,1.33,0,0,1-.72-.68c-1.9-2.83-5.12-4.62-7.73-6.9a3.45,3.45,0,0,1-1.1-1.37,3.4,3.4,0,0,1,.11-2.06c.58-2.31.69-4.57,1.3-6.84,0-.14.08-.25.12-.37a9.8,9.8,0,0,1-2-2c-4,7.84-6.61,16.56-9.54,24.84a11.17,11.17,0,0,1,1.84-.26c.57-.06,1.3.44,1.14,1.05C117.27,169.9,115.41,171,113.24,171.62Z"/><path class="cls-2" d="M149.61,120c2.75-5.9,5.48-11.88,8.45-17.72a4,4,0,0,1-.31-.4,98.53,98.53,0,0,0-6.47-10.64c-3.58,6.41-6.63,13.16-9.51,19.8C144.26,114.1,146.85,117.09,149.61,120Z"/><path class="cls-3" d="M148.15,123s0,0,0,0a.14.14,0,0,1,0-.05A.07.07,0,0,0,148.15,123Zm9.6-21.12a98.53,98.53,0,0,0-6.47-10.64c-3.58,6.41-6.63,13.16-9.51,19.8,2.49,3.09,5.08,6.08,7.84,9,2.75-5.9,5.48-11.88,8.45-17.72A4,4,0,0,1,157.75,101.85Zm5.28-22c.29.5.55,1,.86,1.49-.29-.58-.51-1.15-.78-1.72C163.09,79.67,163.05,79.73,163,79.82Zm8.78-17.2,2,2.75a56.52,56.52,0,0,0-10.69,9.13c.37.62.8,1.17,1.09,1.66.67,1.13,1.31,2.3,1.89,3.48.92,1.76,1.74,3.54,2.5,5.34.62-.79,1.31-1.55,2-2.32l3.42,3.1c-5,5.47-8.31,12.1-11.54,18.7q-5,10.23-9.94,20.43a.39.39,0,0,0-.16,0c-1.5.21-2.93,2-4,2.85a12.37,12.37,0,0,1-4.49,2.48,4.43,4.43,0,0,1-.87.16l0,0a1.66,1.66,0,0,1-.77,0,8,8,0,0,1-1,.18,10.45,10.45,0,0,1-5-1.59c-4-2.44-1.21-7.55-2.23-11.07v0a1.67,1.67,0,0,0,.57-.9,13.79,13.79,0,0,0,.53-3c6.33-15.56,13.53-31.27,26.31-43.21A73.73,73.73,0,0,1,171.81,62.62Z"/><path class="cls-2" d="M173.85,65.37a56.52,56.52,0,0,0-10.69,9.13c.37.62.8,1.17,1.09,1.66.67,1.13,1.31,2.3,1.89,3.48.92,1.76,1.74,3.54,2.5,5.34.62-.79,1.31-1.55,2-2.32a37.08,37.08,0,0,1,7-6c-.16-2.37-.29-4.75-.65-7.12-.28-1.85-.69-3.67-.84-5.5C175.35,64.44,174.6,64.89,173.85,65.37Z"/><path class="cls-2" d="M166,134.36c-4-.08-10.44-.6-13.91,2,0,0,0,.1,0,.14,6.81-.87,13.49.05,20.36.52a74.87,74.87,0,0,0,9,.15,21,21,0,0,0,2.57-.64c2.39-.78,12.5-5.16,7-9.25a13.69,13.69,0,0,0-2.53-1.49l-.3.85a9.61,9.61,0,0,1-4.54,5,21.51,21.51,0,0,1-5.35,1.61,53,53,0,0,1-6,1.07C170.9,134.37,167.06,133.74,166,134.36Z"/><path class="cls-2" d="M215,60.33c-5.84-2.95-13-3.82-20-3,.88,2.4-.12,5.45-.73,7.86a66.64,66.64,0,0,1-2.2,6.86,26,26,0,0,1,11.16,2C207,69.39,211,64.84,215,60.33Z"/><path class="cls-4" d="M76.36,167.48a85.16,85.16,0,0,1,21.87-.4c3.23.31,6.48.88,9.73,1,2.54.05,4.67-.73,7-1.15-.16.48-.32.93-.48,1.4-.4,1.1-.8,2.22-1.22,3.33-1.06,2.93-2.12,5.84-3.18,8.75l-1.62,4.53c-7.85,1.57-15.7-1-23.66-1.71-10.7-.88-20.32,3.21-26.16,11.63a2.27,2.27,0,0,1-2.61.62c-2.08-.88-2.51-2.72-2.38-4.73a1.81,1.81,0,0,1-1.6.06c-.39-.16-.78-.32-1.18-.5a2.09,2.09,0,0,1-1.2-2.75C53.29,176.56,64.51,169.41,76.36,167.48Z"/><path class="cls-4" d="M24.86,148c.87,3.06,3.19,4.61,6.14,6l2.91,1a.55.55,0,0,0-.12.16,8.36,8.36,0,0,0-2.57,4.79,2.14,2.14,0,0,0,1.92,2.34c8.35,1.62,16.65,2.47,25,.59,8.51-1.91,15-7.32,19.95-13.81,2.36-3.13,3.86-6.71,6.44-9.69,3.41-3.94,11.39-1,15.65,0,7.93,1.85,15.81,3.49,23.72,1.78a7,7,0,0,1-.8-2.58,7,7,0,0,0,.8,2.58,6,6,0,0,0,.57.89,9.8,9.8,0,0,0,2,2h0a13.23,13.23,0,0,0,1.51,1c.16.1.31.2.49.3a28.08,28.08,0,0,0,11.67,3.47,8.77,8.77,0,0,0,1.78,0,8.3,8.3,0,0,0,2.8-.71,8,8,0,0,0,1.07-.67,15.54,15.54,0,0,0,4.44-5.57c.58,6.23.08,11.87-3,17.61-2.29,4.2-6,6.84-9.63,9.78-.46,1.57-.9,3.17-1.31,4.76-.88,3.27-1.69,6.58-2.47,9.87-.18.69-.35,1.37-.51,2.06-.28,1.16-.54,2.35-.82,3.51a2.15,2.15,0,0,0,.92-.23c10.5-5.09,18.93-12.5,23.91-22.53a41.11,41.11,0,0,0,4.13-16.06c.17-2.88.31-6.9-1.21-9.72,7.18,2.22,16.73,1.74,23.48.22l.17,0c.73-.07,1.44-.19,2.17-.3,7.9-1.3,21.69-7.12,17.32-16.65S187.54,112,177.5,113.23c-8.23,1-18.81,5-24,11.84a2.19,2.19,0,0,0-.94-.18.39.39,0,0,0-.16,0c-1.5.21-2.93,2-4,2.85a12.37,12.37,0,0,1-4.49,2.48,4.43,4.43,0,0,1-.87.16,8.4,8.4,0,0,1-1.79.13,10.45,10.45,0,0,1-5-1.59c-4-2.44-1.21-7.55-2.23-11.07v0a1.67,1.67,0,0,0,.57-.9,13.79,13.79,0,0,0,.53-3h0c.83-10-7.67-20.74-14.81-27a25.4,25.4,0,0,0-17.75-6.56c-4.2.22-9.3,2.65-11.21,6.33h0a6.26,6.26,0,0,0-.52.51c-6.7,7.33-5.35,17.14.31,24.6,7.65,10.11,22,13.94,33.07,19.77a.28.28,0,0,0,.12,0,2.07,2.07,0,0,1-.08.2,136.51,136.51,0,0,0-26.22-4c-6.32-.46-15.38-2.56-19.65,2.94-2.3,3-3.62,6.68-5.85,9.76-3.19,4.48-7.78,6.46-13.3,7.4-10.4,1.76-21.35.46-31.27-2.73A2.31,2.31,0,0,0,24.86,148Zm127.2-11.48s0-.1,0-.14c.19-.79.37-1.58.57-2.36a1.54,1.54,0,0,0,1.3-.65c6-7.89,24.35-12.29,34.52-7.56a13.69,13.69,0,0,1,2.53,1.49c5.46,4.09-4.65,8.47-7,9.25a21,21,0,0,1-2.57.64,74.87,74.87,0,0,1-9-.15C165.55,136.55,158.87,135.63,152.06,136.5ZM113,121.21h0c-12.65-5.84-25.87-13.48-21.15-27.2a10.68,10.68,0,0,1,2.78-4.12c.18-.18.36-.33.54-.49,3.13-2.72,7.76,1.28,10.22,2.79l.11.08a82,82,0,0,1,10.07,7.57,56.37,56.37,0,0,1,8.57,9.25c2.47,3.32,3.35,6.86,4.5,10.57h0a17.6,17.6,0,0,0-1.44,2.93,37.74,37.74,0,0,0-1.46,4.56C122.16,125.26,117.62,123.36,113,121.21ZM49.28,159.73a37.84,37.84,0,0,0,6.32-.68A37.84,37.84,0,0,1,49.28,159.73Z"/><path class="cls-2" d="M213.39,91.88a29.54,29.54,0,0,1-1.19,5.2c2.49-.92,5.39-1.39,7.62-2.07a33.69,33.69,0,0,0,6.56-3,41,41,0,0,0,.31-17.48,33.88,33.88,0,0,1-6.55,4.81c-2.57,1.56-5.14,3.26-7.87,4.59A17.53,17.53,0,0,1,213.39,91.88Z"/><path class="cls-3" d="M192.93,57.65a.75.75,0,0,1,0,.22,1.27,1.27,0,0,1,.14-.24S193,57.65,192.93,57.65ZM219.82,95a33.69,33.69,0,0,0,6.56-3,41,41,0,0,0,.31-17.48,33.88,33.88,0,0,1-6.55,4.81c-2.57,1.56-5.14,3.26-7.87,4.59a17.53,17.53,0,0,1,1.12,8,29.54,29.54,0,0,1-1.19,5.2C214.69,96.16,217.59,95.69,219.82,95Zm12.51-10.68c-.63,7.37-2.14,17.06-7.81,22.71-4.53,4.61-12,5.43-18,3.33a2.38,2.38,0,0,1-1.51-1.88c-.57-8.26,7.45-17.86,1.52-25.6-6.29-8.23-18.69-7.92-26.8-2.15a35.84,35.84,0,0,0-5.64,5l-3.42-3.1a37.08,37.08,0,0,1,7-6c-.16-2.37-.29-4.75-.65-7.12-.28-1.85-.69-3.67-.84-5.5-.77.45-1.52.9-2.27,1.38l-2-2.75c9.83-6.39,21.33-10.31,33.66-9.12C223,55.21,233.82,68,232.33,84.33ZM194.27,65.21a66.64,66.64,0,0,1-2.2,6.86,26,26,0,0,1,11.16,2C207,69.39,211,64.84,215,60.33c-5.84-2.95-13-3.82-20-3C195.88,59.75,194.88,62.8,194.27,65.21Z"/></g></g></svg>