<svg xmlns="http://www.w3.org/2000/svg" viewBox="0 0 270 270"><defs><style>.cls-1{fill:#fff;}.cls-2{fill:#002d26;}.cls-3{fill:#a01a22;}.cls-4{fill:#a78126;}.cls-5{fill:#d7b88b;}</style></defs><g id="Capa_2" data-name="Capa 2"><g id="Home"><rect class="cls-1" width="270" height="270" rx="9.75"/><path class="cls-2" d="M191.42,70.83c1.67-.11,2.13,3,.35,3.16S189.11,71,191.42,70.83Z"/><path class="cls-2" d="M47.48,124.85a1.2,1.2,0,0,0-2.08.3c-1.32-.15-6.56-.74-9.27-1.12,0,0,0-.09,0-.13,1.71-1,5-4.42,5.9-5.35a1.11,1.11,0,0,0,.61.11c1.69-.12.86-2.07.2-2.12a1.21,1.21,0,0,0-1.19,1.61c-.83.88-4.12,4.32-5.75,5.25a1,1,0,0,0-.3-.28l1.61-10.3c1.45-.25.68-2,0-2.09-1.27-.09-1.77,1.81-.59,2.08L35,123.09h-.09l-.14-.22c-1.61-2.57-4.37-6.49-5.1-7.5,1-1.35-1-2-1.46-1.54-.88.86.11,2.43,1.06,1.91.76,1.08,3.45,4.89,5,7.42l.14.22a1.5,1.5,0,0,0-.23.33c-2.28-.39-8-1.23-9.23-1.41,0-.81-1.35-1.14-1.73-.77-1,1,.44,2.89,1.47,1.54a1.27,1.27,0,0,0,.12-.23c1.09.16,6.92,1,9.25,1.4a1,1,0,0,0,0,.34c-2.21,1.74-5.36,4.64-6.13,5.35-.65-.29-1.61.37-1.59.86,0,1.41,2.44,1.62,2.12,0a1.28,1.28,0,0,0-.15-.42c.78-.72,3.94-3.63,6.11-5.33l.19.1-1.57,10.08c-.54.09-1.06.55-1,.91.06,1.41,2.44,1.62,2.13,0a1,1,0,0,0-.54-.81l1.58-10.1.3-.07c1.78,2.69,4.21,6.21,5,7.33a.72.72,0,0,0-.27.51c.05,1.41,2.44,1.63,2.13,0a.92.92,0,0,0-1.4-.77c-.76-1.1-3.21-4.63-5-7.33a1.21,1.21,0,0,0,.09-.2c2.85.41,8.38,1,9.42,1.15a1.06,1.06,0,0,0,.22.33C46.9,127.27,47.87,125.39,47.48,124.85Z"/><path class="cls-2" d="M141.61,228.53a1.43,1.43,0,0,0-2.48.37c-1.57-.18-7.82-.89-11-1.34a.75.75,0,0,0-.05-.16c2-1.13,6-5.25,7-6.37a1.33,1.33,0,0,0,.73.14c2-.15,1-2.47.23-2.53a1.44,1.44,0,0,0-1.41,1.92c-1,1.05-4.9,5.14-6.86,6.25a1,1,0,0,0-.35-.33l1.92-12.27c1.73-.29.81-2.42,0-2.48-1.52-.12-2.11,2.15-.71,2.47l-1.91,12.24h-.11c-.06-.08-.12-.18-.17-.26-1.92-3.06-5.21-7.72-6.07-8.93,1.21-1.61-1.18-2.39-1.74-1.83-1,1,.13,2.89,1.26,2.27.91,1.28,4.11,5.83,6,8.84,0,.08.11.18.17.26a1.48,1.48,0,0,0-.28.39c-2.72-.47-9.53-1.46-11-1.67a1.45,1.45,0,0,0-2.06-.93c-1.2,1.18.52,3.45,1.74,1.84a1.28,1.28,0,0,0,.15-.28c1.29.19,8.24,1.2,11,1.68a1.08,1.08,0,0,0,.06.4c-2.64,2.07-6.39,5.52-7.31,6.37a1.52,1.52,0,0,0-1.9,1c.07,1.68,2.91,1.94,2.54-.05a1.81,1.81,0,0,0-.18-.5c.92-.86,4.68-4.32,7.26-6.34a1,1,0,0,0,.24.11l-1.88,12c-.63.11-1.26.65-1.24,1.08.07,1.68,2.91,1.93,2.53-.05a1.2,1.2,0,0,0-.64-1l1.89-12,.35-.08c2.12,3.2,5,7.39,5.94,8.72a.9.9,0,0,0-.32.62c.06,1.68,2.9,1.93,2.53,0a1.09,1.09,0,0,0-1.66-.92c-.91-1.31-3.82-5.51-5.94-8.73a.94.94,0,0,0,.1-.23c3.4.48,10,1.22,11.22,1.36a1.43,1.43,0,0,0,.26.4C140.92,231.42,142.07,229.18,141.61,228.53Z"/><path class="cls-2" d="M167.46,42.32c1,1-.6,3-1.7,2S166.05,41,167.46,42.32Z"/><path class="cls-2" d="M164.66,73.49c-.08,2.29-4.4,2.5-4.36.06S164.77,70.33,164.66,73.49Z"/><path class="cls-2" d="M232.07,219.91c-.07,2.29-4.39,2.5-4.35.06S232.18,216.74,232.07,219.91Z"/><path class="cls-2" d="M252,161.11c-.08,2.29-4.4,2.5-4.36.06S252.05,157.94,252,161.11Z"/><path class="cls-2" d="M194,35.12c1.38-.08,1.77,2.51.29,2.63S192.06,35.25,194,35.12Z"/><path class="cls-2" d="M201.89,57.15c2.28-.15,2.91,4.13.48,4.33S198.73,57.35,201.89,57.15Z"/><path class="cls-2" d="M188.71,226.79c2.29-.15,2.92,4.13.49,4.33S185.55,227,188.71,226.79Z"/><path class="cls-2" d="M50.77,239.15c1.67-.11,2.13,3,.35,3.16S48.45,239.3,50.77,239.15Z"/><path class="cls-2" d="M90,55.35c1.68-.11,2.14,3,.36,3.16S87.65,55.49,90,55.35Z"/><path class="cls-2" d="M26.81,210.64c1,1-.6,3-1.71,2S25.4,209.34,26.81,210.64Z"/><path class="cls-2" d="M71.94,77.24c1,1-.61,3-1.71,2S70.53,75.93,71.94,77.24Z"/><path class="cls-2" d="M31.8,168.85c-.08,2.29-4.4,2.5-4.35.07S31.91,165.69,31.8,168.85Z"/><path class="cls-2" d="M53.33,203.44c1.38-.08,1.77,2.51.29,2.63S51.41,203.57,53.33,203.44Z"/><path class="cls-2" d="M67.82,223.16c2.29-.14,2.92,4.14.49,4.33S64.66,223.36,67.82,223.16Z"/><path class="cls-2" d="M57.61,96.35c2.29-.15,2.92,4.13.49,4.32S54.45,96.55,57.61,96.35Z"/><path class="cls-2" d="M250.8,107.6a.78.78,0,0,0-1.34.23c-.85-.08-4.25-.37-6-.57l0-.09a25.17,25.17,0,0,0,3.73-3.55.67.67,0,0,0,.39.06c1.09-.11.53-1.35.09-1.37a.77.77,0,0,0-.73,1.06,25.55,25.55,0,0,1-3.64,3.48.75.75,0,0,0-.19-.17l.87-6.68c.93-.19.4-1.33,0-1.35-.83,0-1.12,1.2-.35,1.35l-.87,6.67h-.06l-.09-.14c-1.08-1.64-2.93-4.12-3.42-4.76.63-.89-.67-1.28-1-1-.56.57.11,1.56.71,1.21.52.69,2.32,3.11,3.38,4.71l.1.15a.8.8,0,0,0-.15.21c-1.48-.22-5.18-.66-6-.75a.79.79,0,0,0-1.13-.48c-.64.66.33,1.87,1,1a.71.71,0,0,0,.07-.16c.71.09,4.49.54,6,.76a.49.49,0,0,0,0,.21c-1.41,1.16-3.39,3.09-3.88,3.57a.8.8,0,0,0-1,.58c.06.91,1.6,1,1.37-.07a1,1,0,0,0-.1-.27c.49-.48,2.48-2.41,3.85-3.54l.13.06-.85,6.54c-.34.07-.67.37-.66.6.06.91,1.61,1,1.38-.06a.67.67,0,0,0-.36-.52l.85-6.55.19,0c1.19,1.71,2.83,3.94,3.35,4.65a.46.46,0,0,0-.17.34c.06.91,1.6,1,1.37-.07a.59.59,0,0,0-.91-.47c-.51-.7-2.15-2.94-3.35-4.65a.35.35,0,0,0,.05-.13c1.85.21,5.44.52,6.11.58a.69.69,0,0,0,.15.21C250.47,109.17,251.06,107.94,250.8,107.6Z"/><path class="cls-2" d="M142.56,54.25a1.57,1.57,0,0,0-2.49,1.17c-1.71.32-8.5,1.59-12,2.15,0-.06-.07-.1-.1-.15,1.78-1.84,4.59-7.44,5.33-9a1.41,1.41,0,0,0,.81-.1c2.07-.8.29-2.92-.56-2.72a1.57,1.57,0,0,0-.87,2.46c-.7,1.42-3.5,7-5.2,8.77a1.28,1.28,0,0,0-.47-.23l-1.93-13.51c1.72-.86.08-2.81-.74-2.62-1.64.37-1.53,2.94,0,2.82l1.93,13.48-.11,0-.26-.22c-3-2.61-8-6.44-9.25-7.44.75-2.07-2-2.13-2.42-1.36-.77,1.42,1.07,3,2.05,2,1.37,1.06,6.2,4.8,9.15,7.36l.26.23a1.68,1.68,0,0,0-.17.49c-3,.38-10.47,1.53-12.08,1.78a1.59,1.59,0,0,0-2.46-.32c-.88,1.63,1.66,3.46,2.42,1.38a1.52,1.52,0,0,0,.06-.34c1.42-.22,9-1.39,12.11-1.78a1.14,1.14,0,0,0,.19.4c-2.11,3-4.94,7.86-5.63,9-.93-.12-1.87,1.08-1.66,1.68.61,1.74,3.67,1.1,2.64-.87a2,2,0,0,0-.35-.47c.7-1.2,3.54-6,5.6-9a.87.87,0,0,0,.28,0l1.89,13.21c-.63.33-1.11,1.1-1,1.54.61,1.74,3.68,1.1,2.65-.87a1.33,1.33,0,0,0-1-.81l-1.89-13.25a1.6,1.6,0,0,0,.34-.2c3.26,2.69,7.65,6.16,9,7.26a1,1,0,0,0-.14.75c.6,1.75,3.67,1.1,2.64-.86a1.2,1.2,0,0,0-2-.43c-1.37-1.09-5.78-4.57-9.05-7.26a.89.89,0,0,0,0-.28c3.73-.59,10.89-1.93,12.23-2.18a1.5,1.5,0,0,0,.4.33C142.76,57.5,143.25,54.78,142.56,54.25Z"/><path class="cls-3" d="M68.33,158.33c.56-3.26,9.25-9,10.45-22.85s.09-20.9,8.39-31.42,17.11-15.64,26.35-15.72,21.71,4.9,32,1.78,16.19-5,27.27-3.15,20,4.49,25.85,11,11.46,9.85,11.76,21.61-3.88,14.06,5.68,18.83,13.75,22.91,10.52,35.64-4.31,13.12-6.34,12.64,2.76-13.5-5.09-18.52-13.77-6.45-16.81-12.29-3.7-24.28-16.58-22.11S167,142.4,167.94,152.34s6.07,20.51,4.67,29.06S67.52,163.07,68.33,158.33Z"/><path class="cls-4" d="M53.51,191.16c7.76,3.35,31.28-12.22,63-5.6,31.05,6.49,41.72,28.5,50.29,30.56s18-18.72,6.92-34.24-37.95-27.75-63.87-30.2S63.47,152.54,53,168,49,189.21,53.51,191.16Z"/><path class="cls-4" d="M201.69,183.86c-2.26,3.9-5.47,14.49,5.57,19.29s17.93-1.28,20.46-5.61,2.6-14.34-8.74-17.76C210.84,177.33,204.55,178.91,201.69,183.86Z"/><path class="cls-5" d="M212.36,194.18c-.72,3.48-7.44,4.1-8.9.89s.28-6.32,3-6.65S213.26,189.8,212.36,194.18Z"/><path class="cls-5" d="M91.83,161c-.56-1.65-5.12-4.07-8.76-3.9-2.68.13-7.91.34-11.26,1.47-4.38,1.48-9.15,3.89-11.64,6.27-1.81,1.71-4.61,6.15-4.18,7.43,1.6,4.75,12.8,1.13,20.72-1.54S92.79,163.85,91.83,161Z"/><path class="cls-3" d="M221.89,20c.62,0,1.23.23,1.84.33a8.73,8.73,0,0,1,1.69.43,5.5,5.5,0,0,1,2.76,2.08,7.06,7.06,0,0,1,.86,1.48,11.16,11.16,0,0,1,.7,1.58,12.38,12.38,0,0,1,.48,3.78,31.05,31.05,0,0,1-.1,3.86A11.36,11.36,0,0,1,229,37c-.28.6-.67,1.14-1,1.72a7.25,7.25,0,0,1-.95,1.49,9.83,9.83,0,0,1-2.72,2.21c-1,.53-2,1-3,1.4-.27.13-.46.35-.74.46a3.39,3.39,0,0,0-.68.29c-.46.31-.93.63-1.36,1a6.64,6.64,0,0,0-1.38,2.89l-.55,1.59c-.1.28-.19.56-.27.85a1.53,1.53,0,0,1-.07.36v-.09a2.33,2.33,0,0,1-.11.7v-.09a4.12,4.12,0,0,1-.27,1l-.45,1.49c-.28,1-.52,2-.73,3a5.74,5.74,0,0,1,2.29-.79,10.48,10.48,0,0,1,1.12,0c.43,0,.85-.09,1.27-.12a7.16,7.16,0,0,1,4.51,1.6,18.75,18.75,0,0,1,1.91,1.64c.23.2.79.8,1.15.58.87-.55.74-2.32.53-3.14a2.29,2.29,0,0,1,.29-1.64c.27-.37.73-.28,1.13-.26a.83.83,0,0,1,.92.76,12.62,12.62,0,0,1,.13,1.74,7.51,7.51,0,0,1-.14,2,4.8,4.8,0,0,0,0,.85l-.08.89a18.73,18.73,0,0,1-.25,1.94,3.25,3.25,0,0,0-.06.59,1.54,1.54,0,0,1-.09.7c-.32.65-1.4.41-1.86.06s-.38-.82-.58-1.23-.67-.3-1-.3c-.55.06-1.12,0-1.66.06a8.79,8.79,0,0,1-1.77.18,9.72,9.72,0,0,1-3.62-.88l.13,0a7.53,7.53,0,0,0-2-.52,4.91,4.91,0,0,1-1,0,3.37,3.37,0,0,0-1.29.22c-.43.13-.69.55-1.09.73a1.13,1.13,0,0,1-1.25-.24c-.45-.37-.41-.91-.39-1.46s.08-1.26.16-1.88a41.62,41.62,0,0,1,1.8-7.72c.14-.43.16-.88.27-1.32s.37-1,.54-1.58a31.91,31.91,0,0,1,1.28-3.5A5.94,5.94,0,0,1,218.17,43a15.6,15.6,0,0,1,1.54-1,2.24,2.24,0,0,0,.46-.35l.25-.25.22-.16,0-.06a15.34,15.34,0,0,0,1.66-3.06c.45-1.09.83-2.48,1.2-3.69a10.76,10.76,0,0,0,.37-1.09c.08-.36.05-.75.1-1.11a10.65,10.65,0,0,0,.21-1.1q0-.6,0-1.2c-.05-.6-.1-1.23-.19-1.79a25.36,25.36,0,0,1-.41-2.59,3.75,3.75,0,0,0-.53-1.92,5.2,5.2,0,0,0-.57-.76c-.19-.24-.24-.38-.56-.3s-.92.1-1.24.48a8.67,8.67,0,0,0-1,1.73l0-.11a12.55,12.55,0,0,0-.51,2.16,22.75,22.75,0,0,0,0,2.74,6.18,6.18,0,0,1-.09,2.57,1.2,1.2,0,0,1-.62.77,2.13,2.13,0,0,1-1.12.06c-.95,0-1.89,0-2.83.06a3.59,3.59,0,0,1-2.1-.3c-.74-.48-.57-1.2-.57-2a20.88,20.88,0,0,1-.14-2.51c.29-2.39,1-4.77,3-6.27a10.24,10.24,0,0,1,3.26-1.65,8.11,8.11,0,0,1,2-.24,15.66,15.66,0,0,1,1.81,0Z"/><path class="cls-3" d="M248.17,21.06a1.75,1.75,0,0,1,.81.39c.4.22.89.26,1.31.44A1.84,1.84,0,0,0,251,22a1.09,1.09,0,0,1,.49.19A1.19,1.19,0,0,1,252,23a1.14,1.14,0,0,1,0,.52c0,.13-.12.24-.11.38a19.6,19.6,0,0,1-.08,2.54c-.06,1,0,2,0,3a36,36,0,0,1-.05,5.69l0,.23v.74c0,.51-.13,1-.19,1.51-.12,1.16-.07,2.35-.1,3.5l-.08,4v2.36c0,.21-.09.32.16.32h.92q1,0,2-.09a7.43,7.43,0,0,1,1.41-.16,2.13,2.13,0,0,1,1.26.33,1.61,1.61,0,0,1,.39,1.39c0,.49-.24.68-.74.72a7.3,7.3,0,0,1-.81,0A6.65,6.65,0,0,0,255,50a27.32,27.32,0,0,1-3.73.16c0,.71.07,1.38.13,2.08s0,1.53.08,2.3a22.2,22.2,0,0,1,.05,2.31,8.93,8.93,0,0,1,0,1.16l-.09.57a1.75,1.75,0,0,0,.08.88,2.07,2.07,0,0,0,.65.7,1.77,1.77,0,0,0,1,.2c.41,0,.82.11,1.23.17s.76,0,1,.16a.91.91,0,0,1,.25.61,1.62,1.62,0,0,1-.25,1.18c-.18.23-.42.17-.67.17a6.22,6.22,0,0,0-1.05-.06c-.72,0-1.35-.24-2.06-.17l-.48.06a1,1,0,0,1-.37.23,1.21,1.21,0,0,1-1,0,4.12,4.12,0,0,0-.86,0c-.09,0-.32-.06-.4,0h.11a4.43,4.43,0,0,1-.89.12l-.47-.06a.85.85,0,0,1-.37.12,1.51,1.51,0,0,1-.73-.06,1.49,1.49,0,0,0-.73-.06,32.19,32.19,0,0,0-3.4.12c-.35,0-.94.23-1.14-.18a1.59,1.59,0,0,1-.14-.84,1.3,1.3,0,0,1,.32-.86c.17-.17.4-.13.62-.14s.54,0,.64-.07.35-.16.58-.2a3,3,0,0,0,.64-.28,4.67,4.67,0,0,0,1.35-.78c.19-.16.11-.53.12-.78l0-.75c0-.57.06-1.13.06-1.69,0-1.14-.09-2.29,0-3.42,0-.4.12-.81.12-1.21a13.13,13.13,0,0,1,.06-1.54,23.87,23.87,0,0,1-2.39-.09L241,49.87c-1.49-.18-3,.2-4.45.13l-3-.19a2,2,0,0,1-.85-.13c-1.19-.59-.5-1.89-.13-2.69a11.64,11.64,0,0,1,.43-1.3,3,3,0,0,1,.51-.66s.19-.26.13-.16l.1-.15c.38-.63.7-1.3,1.07-1.93.26-.46.69-1,.94-1.36l2-2.79a6.25,6.25,0,0,1,.86-1.85c.31-.46.72-.84,1-1.3.9-1.33,1.75-2.71,2.55-4.09a47.11,47.11,0,0,0,2.16-4.25,19.21,19.21,0,0,1,1.85-3.88c-.22.24,0-.08,0-.16l.1-.25a3.82,3.82,0,0,0,.2-.53,1.35,1.35,0,0,1,.61-.88,1.74,1.74,0,0,1,1-.39Zm-2.06,8a49,49,0,0,1-2.57,4.79L242,36.26a12,12,0,0,1-.77,1.1,7.36,7.36,0,0,0-.63.75c-.41.68-.54,1.49-1,2.14s-.93,1.18-1.35,1.81-.93,1.23-1.32,1.9l-1.72,2.79c-.15.16-.17.53-.24.74l0-.08c0,.05,0,.08,0,.08.53,0,1.05,0,1.57.12h-.09a16.31,16.31,0,0,0,2-.08,11.14,11.14,0,0,1,2.38-.09l1.1.09a11.58,11.58,0,0,1,1.15.21,17.6,17.6,0,0,0,2.41.05c0-1.63.14-3.24.21-4.87s.11-3.24.26-4.85c.12-1.32.25-2.65.26-4,0-1.68-.06-3.34-.08-5Z"/></g></g></svg>