<svg xmlns="http://www.w3.org/2000/svg" viewBox="0 0 270 270"><defs><style>.cls-1{fill:#fff;}.cls-2{fill:#a78126;}.cls-3{fill:#a01a22;}.cls-4{fill:#002d26;}</style></defs><g id="Capa_2" data-name="Capa 2"><g id="Home"><rect class="cls-1" width="270" height="270" rx="9.75"/><path class="cls-2" d="M211.66,18.38c.28-.26.6.08.87.2a5.75,5.75,0,0,0,1.35.37l.64.17c.14,0,.29,0,.41.1s.07.14.29.17l.3.05.56.06a6.29,6.29,0,0,0,1,.18c.46,0,.91.06,1.37.09a7.3,7.3,0,0,1,1.19.34,8.57,8.57,0,0,0,1.52.11.48.48,0,0,1,.55.38,1.74,1.74,0,0,1-.19,1.51c-.23.26-.79.28-1.09.42a1.81,1.81,0,0,0-.58.4,6.43,6.43,0,0,0-.44,1l-.11.45,0,.77a18,18,0,0,1-.1,2.52v-.11c0,.72-.12,1.43-.12,2.15l0,1.09c0,.07,0,.57.06.63a19.69,19.69,0,0,1,.08,4.34c-.13,1.54-.22,3.11-.45,4.64a20.42,20.42,0,0,0,0,3.75c0,.69.09,1.38.07,2.08,0,.48-.1.94-.14,1.42-.13,1.23.06,2.51,0,3.75a11.32,11.32,0,0,1-.2,2,9.44,9.44,0,0,0-.26,1.37c0,.41-.13.82-.13,1.23,0,.25.16.43.22.68a6,6,0,0,1,.12.74,2.34,2.34,0,0,0,1.88,1.61,1.76,1.76,0,0,0,.51,0c.16,0,.17-.08.32-.11a.38.38,0,0,1,.42.19,1.82,1.82,0,0,1,.16,1c0,.32-.12.82-.45.93a1.42,1.42,0,0,1-.71.06h-.86a13.48,13.48,0,0,0-1.56.12l-.75.12c-.24,0-.47.06-.7.06a2.53,2.53,0,0,1-1.31,0c-.15-.12-.06-.18-.28-.18h-.29l-.37.06a11.25,11.25,0,0,1-1.37.24,6.23,6.23,0,0,1-1,.41,2,2,0,0,1-.6-.18c-.11-.06-.21-.18-.3-.23H211a6.11,6.11,0,0,1-1.41.17,1,1,0,0,0-.58.12c-.16.06-.4.18-.56.06a.86.86,0,0,0-.55-.12.42.42,0,0,1-.35.18c-.59-.18-.48-1.2-.33-1.61a.83.83,0,0,1,.78-.59l1.13-.07c.67-.49,1.54-.64,2.11-1.26a2.3,2.3,0,0,0,.43-1.54L211.8,55c.06-1.36,0-2.72,0-4.08a12.86,12.86,0,0,1,0-2,13.45,13.45,0,0,0,.22-1.55V45.52c0-.5.1-1,.11-1.49,0-1.19,0-2.38,0-3.57a11.59,11.59,0,0,1,.1-2,15.07,15.07,0,0,0,.28-1.61l.11-2c0-.56.11-1.1.19-1.66s0-1.25.1-1.88.13-1.16.22-1.74l0,.1a4.22,4.22,0,0,0,.11-.85,17.58,17.58,0,0,1,.21-2.05c0-.54.15-1.09.15-1.6V23c-.76.5-1.56.94-2.33,1.44a9.2,9.2,0,0,0-1.42,1.06,8.91,8.91,0,0,1-1.24,1.06,21.63,21.63,0,0,0-2.39,1.87c-.47.41-.91.85-1.4,1.23a3.67,3.67,0,0,1-1.24.78c-.45.12-1.39.06-1.62-.45a1.07,1.07,0,0,1-.37-.57.8.8,0,0,1,.13-.56,1.15,1.15,0,0,1,.66-.43l.28-.1a1,1,0,0,1,.25-.26c.17-.13.37-.17.52-.31l.59-.5c.77-.65,1.52-1.31,2.31-1.94a16.63,16.63,0,0,0,1.43-1.07A12.89,12.89,0,0,1,209.13,23c.51-.38,1-.72,1.58-1.05a2.64,2.64,0,0,0,1.09-.92.7.7,0,0,0-.09-.59,1.72,1.72,0,0,1-.41-1.16,1.35,1.35,0,0,1,.36-.94Z"/><path class="cls-2" d="M241.29,18.57c.47,0,1,.08,1.41.08l-.11,0c1.26.11,2.52.24,3.77.24a1.23,1.23,0,0,1,1.2,1,3,3,0,0,1-.09,1.51v-.11a2.94,2.94,0,0,1-.38,1.06,4.29,4.29,0,0,0-.27.86l-.35,1.32c-.1.39-.13.78-.2,1.18-.13.75-.37,1.42-.49,2.19s.12,1.38-.65,1.51a1.64,1.64,0,0,1-1.31-.25c-.23-.2-.18-.49-.16-.76a8.42,8.42,0,0,1,.18-1.24,7.8,7.8,0,0,0,.24-1.35c0-.08,0-.79-.08-.8a1.22,1.22,0,0,0-.95-.5h.08c-.42,0-.81-.12-1.24-.12h-2.74a3.54,3.54,0,0,1-.56,0l.08,0a17.29,17.29,0,0,1-3.94.13c-1.32,0-2.64-.07-4-.1,0,.49-.08,1.24-.11,1.6-.07.81-.12,1.62-.22,2.42v.08l0,.31v3.42c0,.65.12,1.28.13,1.92V36.2a9.75,9.75,0,0,1,5.37-1.47h1.52c.36,0,.7.11,1.06.11s.83.12,1.24.12a10.71,10.71,0,0,1,1.26.11,1.54,1.54,0,0,0,.37,0,3.16,3.16,0,0,1,.79.2,4.69,4.69,0,0,1,1.4.81,4.52,4.52,0,0,1,1.93,2.41,20.6,20.6,0,0,1,.73,3.2l.4,1.73a7.16,7.16,0,0,1,0,1.73c0,.63,0,1.27,0,1.9v1s0,.35,0,.23a11.53,11.53,0,0,1,.17,1.66c.05.51.08,1,.08,1.54a27.27,27.27,0,0,1-.14,3.25v-.1a2.92,2.92,0,0,1-.25,1.36,7.75,7.75,0,0,1-.76,1.49,8.79,8.79,0,0,1-2.33,2.3,12.08,12.08,0,0,1-6.44,2h.11a6,6,0,0,1-1.79.12,9.33,9.33,0,0,1-2.24,0,12.19,12.19,0,0,1-1.92-.94,5,5,0,0,1-1.65-1,4.27,4.27,0,0,1-.93-1.79l-.67-2a10.36,10.36,0,0,1-.73-1.87,10.24,10.24,0,0,1-.25-1.2,2.34,2.34,0,0,0-.08-.52c-.08-.44-.1-.89-.18-1.33l.11.18a2.58,2.58,0,0,1-.15-1.6,4.26,4.26,0,0,1,.26-1.54,1.8,1.8,0,0,1,1.43-.67,4.54,4.54,0,0,1,1.09-.15l-.13,0c.48-.09,1-.1,1.44-.15a3.31,3.31,0,0,1,1.29,0c.69.19.86.79.92,1.41a9.6,9.6,0,0,0,.17,1c.08.43.1.86.18,1.28a6.77,6.77,0,0,1,.2,1.18c0,.19.05.36.07.55s.06.46,0,.4l0,.08c0-.14.11.19.1.18l.09.21.13.59c.08.38.17.76.23,1.14l.33,2.23a6,6,0,0,0,.44,1.55c.2.38.44.26.79.38a.82.82,0,0,0,.38.05s.24,0,.12,0a3,3,0,0,0,.9-.27,5,5,0,0,0,.64-.47,4.8,4.8,0,0,0,1.17-1.29,27.89,27.89,0,0,0,1.22-2.91,4.56,4.56,0,0,0,.38-1.89c0-.73-.05-1.46-.05-2.18a37.1,37.1,0,0,0-.22-4.6c-.16-1.35-.45-2.64-.73-4a16.45,16.45,0,0,0-1.13-3.06,3.12,3.12,0,0,0-.23-.49l-.42-.37c-.12-.11-.22-.3-.35-.38a5.08,5.08,0,0,0-.59-.35,5,5,0,0,0-2.26-.1,10.48,10.48,0,0,0-1.9.52c.12,0-.23.15-.25.16l-.72.44a8.21,8.21,0,0,0-.86.7c-.28.25-.2.85-.31,1.2a3.25,3.25,0,0,1-.39,1c-.26.38-.77.34-1.19.31s-.94-.09-1-.57a1.91,1.91,0,0,1,0-.75,3.2,3.2,0,0,0,0-.53,3.07,3.07,0,0,1,.11-1.13v.1c0-.86.12-1.72.11-2.55V33.83s0-.18,0-.22l0,.1a24,24,0,0,1-.12-4,21.66,21.66,0,0,1,.22-3.31c0-.57.13-1.13.13-1.7a11.73,11.73,0,0,1,.09-1.78l0-.44c0-.22.11-.45.11-.66a3.25,3.25,0,0,1,.12-1.28v.1c0-.65,0-1.32.65-1.67a2.08,2.08,0,0,1,1-.14h1.3c.86,0,1.73,0,2.6,0a10.29,10.29,0,0,0,1.11,0,3,3,0,0,1,.59-.07l-.13,0a27.43,27.43,0,0,1,3.51-.19Z"/><path class="cls-2" d="M101.29,190.69a65.14,65.14,0,0,0-1.49-18C97.48,178.48,99.33,184.78,101.29,190.69Z"/><path class="cls-3" d="M99.3,194.55h-.22c-6.14.29-12.28.75-18.43.65-2.69,0-5.33-.59-8-.5-3.56.11-4.86,1.41-5.22,5.1-.41,4.32,1.07,8.3,1.88,12.5.89,4.63,1.82,9.26,2.57,13.92.68,4.24,1.32,8.51,1.63,12.8.22,3.11.11,6.33.18,9.46a5.19,5.19,0,0,0,5.09,5c1.35,0,2.54-.68,3.9-.81,1.92-.18,3.89-.2,5.82-.22,5.21-.06,10.42.5,15.62.41.52,0,1,0,1.57-.07C107.42,233,97.78,214.18,99.3,194.55Z"/><path class="cls-2" d="M85.18,187.77A13.75,13.75,0,0,0,80.1,187a9.44,9.44,0,0,0-3.67.86c5.59,1,10.41,3.72,16,3.8l-.52-.42A24.33,24.33,0,0,0,85.18,187.77Z"/><path class="cls-2" d="M88.24,177.67a22.41,22.41,0,0,0,1,5.25,15,15,0,0,0,4.2,6.39l2.18,1.51a1.25,1.25,0,0,1,.56,1.1l2.9-.13c-3-5.94-5.85-12.13-9.29-17.82C87.76,170.55,88.19,177.25,88.24,177.67Z"/><path class="cls-2" d="M107.6,172.18a10.73,10.73,0,0,0-1.86,2.73c-.85,1.85-1.49,3.77-2.23,5.66a73.84,73.84,0,0,1,.28,10.94l.7,0c3.25-3.48,6-10,5.47-14.75C110,177.26,109.55,170,107.6,172.18Z"/><path class="cls-2" d="M111.21,184.73a22.78,22.78,0,0,1-2.82,5.8c2.87-.4,5.81-2.17,8.17-3.65a18.86,18.86,0,0,0,5.82-5.33C118.18,181.07,115,182.73,111.21,184.73Z"/><path class="cls-3" d="M135.05,235.17c-.12-4.77-.18-9.55-.29-14.33s-.23-9.54-.55-14.3c-.25-3.67.76-9.79-2.43-12.53-4.06-3.48-12.08-1.06-16.68-.65s-9.08.8-13.63,1.06c.93,10.38,2.85,20.33,4.74,30.57,1.69,9.14,3,18.3,2,27.58a104.84,104.84,0,0,1,11.07-1.15c3.46,0,6.87,1,10.32,1.2,2.56.18,4.77.87,6-2.13a9.36,9.36,0,0,0,.4-4.31C135.61,242.49,135.14,238.9,135.05,235.17Z"/><path class="cls-4" d="M102.2,201l.24,1.83C113,202,123.55,200.61,134.1,200c0-.63-.12-1.24-.22-1.84C123.32,198.84,112.76,200.18,102.2,201Z"/><path class="cls-4" d="M67.38,200.38a15.63,15.63,0,0,0,0,1.81c10.63,1.8,21.27,1.68,31.93.91,0-.62-.08-1.23-.1-1.85C88.58,202,78,202.09,67.38,200.38Z"/><path class="cls-2" d="M104.35,214.81c.13.7.25,1.4.38,2.1q14.94-.53,29.9-1c0-.7,0-1.39-.06-2.09Z"/><path class="cls-2" d="M82.87,215.53c-4.13.15-8.63-.1-12.9.36.13.7.27,1.39.4,2.09q15.43-.42,30.86-1l-.39-2.09Q91.85,215.23,82.87,215.53Z"/><path class="cls-2" d="M106.87,228.75c.12.68.22,1.36.33,2,9.24-.37,18.49-.65,27.74-.72,0-.69,0-1.38,0-2.07C125.56,228.09,116.21,228.38,106.87,228.75Z"/><path class="cls-2" d="M84.9,229.65c-4,.17-8.31,0-12.47.36.12.79.24,1.59.34,2.38,3.6-.06,7.25-.45,10.73-.6,6.55-.27,13.11-.57,19.67-.84l.86,0c-.12-.68-.26-1.36-.4-2Z"/><path class="cls-4" d="M108.44,242.72c0,.7,0,1.4,0,2.1a257.22,257.22,0,0,1,27.16-1.63l-.21-2.11A246.55,246.55,0,0,0,108.44,242.72Z"/><path class="cls-4" d="M73.63,244.3c0,.66,0,1.32,0,2a48.27,48.27,0,0,0,11.53.73c6.83-.15,13.62-1,20.39-1.86l.25,0c0-.7-.08-1.39-.13-2.08C94.93,244.3,84.38,245.54,73.63,244.3Z"/><path class="cls-2" d="M135,232.16c-2.26.21-4.51.5-6.72.63q-10.31.61-20.6,1.19h0c.28,2.12.49,4.23.64,6.35,6.66-.36,13.31-.79,20-1.19,2.27-.14,4.64-.17,7-.35-.09-1.2-.17-2.4-.2-3.62Z"/><path class="cls-2" d="M73,234.32c.19,1.56.35,3.13.47,4.71,0,.2,0,.4,0,.6a185.18,185.18,0,0,0,31.95.85c-.23-2.14-.52-4.26-.87-6.39C94.09,234.31,83.38,232.85,73,234.32Z"/><path class="cls-4" d="M134.74,220.05a275.2,275.2,0,0,0-29.7-1.4l1.17,6.34.09.49c9.56-.06,19,.53,28.57,1.11,0-1.92-.07-3.83-.11-5.75C134.75,220.58,134.75,220.31,134.74,220.05Z"/><path class="cls-4" d="M71,221.2c.31,1.67.62,3.35.89,5,.05.3.09.6.14.91,10.33-.58,20.62-1.4,31-1.61-.47-2.28-.94-4.55-1.39-6.82A244.42,244.42,0,0,0,71,221.2Z"/><path class="cls-2" d="M134.17,202.67h-2.65c-8,0-16.06.87-24,1.48l-4.8.36q.39,2.76.85,5.5l4-.27c6.29-.46,12.58-.87,18.88-1.19a66.19,66.19,0,0,1,8,.17c0-.73-.06-1.46-.11-2.19C134.13,205.43,134.17,204.08,134.17,202.67Z"/><path class="cls-2" d="M68.4,208.42c.31,1.29.63,2.58.88,3.89l.12.65c10.15-1.37,20.44-2,30.67-2.7-.27-1.84-.49-3.67-.65-5.51C89,205.49,78.55,206.33,68.4,208.42Z"/><path class="cls-4" d="M206.65,138.13a76.93,76.93,0,0,0-7.25,9.18c-2.78,4.43-5.25,9.1-9.16,12.72a25.51,25.51,0,0,1-10,6,8.54,8.54,0,0,1-7.69-1.46c-.31-.23-.79-.41-.55-1,0-.08-.12-.33-.12-.33-1.49.5-1.27-1.26-2.12-1.62a.89.89,0,0,1-.46-.67c.14-2.44-1.81-4.13-2.11-6.56-.53-4.41.44-8.6.94-12.87a29.47,29.47,0,0,1,3.3-10.18c.45-.85,1-1.66,1.46-2.48.74.23-.28,1,.42,1.11.52,0,.64-.59.87-1a16.39,16.39,0,0,0,2-3.1,3.31,3.31,0,0,0-2,1.86c-.13.33-.12.85-.65.69s-.3-.66-.23-1.06c.53-2.77,2.66-4.63,4-6.92,2.16-3.63,4.91-6.94,6.2-11,1.39-4.37.71-6.34-3-9a45.75,45.75,0,0,1-4.82-3.6c-.68-.63-.74-.28-1.05.38-.92,2-1.13,4.2-2.15,6.13-.33.63.19,1.17,0,1.84a43.79,43.79,0,0,1-2.25,7.44c-1.28,2.84-2,5.91-3.53,8.64s-3.05,5.52-4.79,8.15a75.33,75.33,0,0,1-5.11,7.09,11.93,11.93,0,0,1-7.32,4,10.44,10.44,0,0,0-1.91.39,8.14,8.14,0,0,1-11.12-5.67,26.61,26.61,0,0,1-.6-8.57c0-.5,0-1,0-1.65a4.82,4.82,0,0,0-1.59,1.55c-2.19,3.12-4.85,5.7-8.68,6.65-3.39.85-9.35.05-10.44-4.73a5.55,5.55,0,0,0-.36-.81,48.72,48.72,0,0,0-2.08,5.58c-1.1,2.92-1.81,6-2.74,8.91-.81,2.59-1.6,5-3.6,6.88-2.65,2.44-7.82,4.46-10.91,2.41a9.22,9.22,0,0,1-2.69-3.1c-1.84-2.95-1.32-6-1.4-9.1a42.23,42.23,0,0,1,1.15-9.22c1.07-5.64,2.89-11.11,3.78-16.8a13.4,13.4,0,0,0,.57-3.51,21.65,21.65,0,0,0-3,5.5,143.11,143.11,0,0,0-4.23,13.92,71.53,71.53,0,0,0-2.14,16.71,44,44,0,0,0,.78,5.53,7.61,7.61,0,0,0,1.07,3.81c.7,1,.25,2.17.29,3.27,0,.12-.08.33-.17.36-1.83.63-3,3.36-5.55,1.73-.15-.1-.52.09-.76.21a7.43,7.43,0,0,1-3.2.77,4.53,4.53,0,0,0-2.23.66,3.18,3.18,0,0,1-4.08-.57c-.63-.66-.46-1.53-.6-2.27-1.81-8.9-3.28-17.84-3.19-27,0-2.82,0-5.62.32-8.7-2,2-3.53,4.05-5.33,5.85a22.09,22.09,0,0,1-5.73,3.92c-1.62.84-3.39,1.33-4.78,2.73-1.65,1.68-4,1.7-6.23,1.87-6.28.46-11.36-3.54-13-9.44-2.71-9.54-1.69-18.52,3.89-26.87,1.35-2,2.68-4.06,4.2-6a23.7,23.7,0,0,1,12.94-8.26,7.7,7.7,0,0,1,5.87.36,3.6,3.6,0,0,1,2.06,3.27,16.41,16.41,0,0,1-5,11.76c-.7.69-1.11.43-1.42-.32-.69-1.68-.84-3.28.46-4.83.65-.77,1-1.77,1.6-2.62.4-.58-.08-.82-.3-1.19s-.57-.26-.93-.07a13.12,13.12,0,0,0-5.59,6.23c-2.19,4.57-2.2,9.4-1.69,14.32a39.81,39.81,0,0,0,1.61,8.76,30.38,30.38,0,0,0,1.68,3.84c.51,1,1.25,1.27,2.42.8,2.84-1.14,4.84-3.23,6.83-5.42a80.36,80.36,0,0,0,6.34-8.14c1.15-1.64,1.84-3.57,3.23-5.06a2.79,2.79,0,0,0,.56-1.56c.08-.47.59-1,0-1.38s-.49.7-1.11.66c.81-2.7,1.56-5.37,2.42-8a63.74,63.74,0,0,0,2.07-10.12c.88-5.66,1.54-11.38,3.89-16.69A47.3,47.3,0,0,1,89,59.78,11.46,11.46,0,0,1,94,57a1.44,1.44,0,0,1,2.12,1.12A14.68,14.68,0,0,1,96,67c-1.15,3.43-2.2,6.87-3.59,10.22-2.34,5.61-4.08,11.45-6.2,17.14-.61,1.65-1.22,3.32-1.83,5-.75,2-.25,4.25-.36,6.38-.29,5.58-.42,11.16-.6,16.74a15.48,15.48,0,0,0,.33,4.08c.84-2.15,1.73-4.28,2.5-6.45a50.88,50.88,0,0,1,5.48-10.78,67.09,67.09,0,0,1,9.12-11,5.72,5.72,0,0,1,1.2-.94c1.85-1,2.43-.66,3,1.34,1,3.29.47,6.53,0,9.79s-.93,6.33-1.39,9.49c-.68,4.78-1.42,9.56-2,14.36a38.61,38.61,0,0,0-.33,10.41,6.4,6.4,0,0,0,.26.91c.19.69.07,1.84.86,1.82s1.21-1,1.55-1.82c1.89-4.26,3.77-8.52,5.68-12.77A125.14,125.14,0,0,0,116,113.65a64.38,64.38,0,0,1,5.62-14.28c2.21-3.93,4.87-7.56,8.82-9.92a8.2,8.2,0,0,1,7.23-.93,8.82,8.82,0,0,0,1.78.29c1.22.17,1.6,1,1.31,2.18-1.4,5.52-5.25,9.34-9,13.23a67.84,67.84,0,0,1-8.51,7.56,2.25,2.25,0,0,0-1,1.29c-.91,4.66-2.16,9.31-1.12,14.09.7,3.21,1.41,3.86,4.58,1.87a30.83,30.83,0,0,0,8.66-8.45,29.59,29.59,0,0,1,2.31-2.82c2.2-2.42,2.83-5.52,3.76-8.49a46.28,46.28,0,0,1,7.21-14.55,20.48,20.48,0,0,1,5.95-5.78c3.19-1.82,6.39-1.23,9.63-.33a.75.75,0,0,1,.56,1.08c-.93,3.11-1.5,6.33-3.29,9.14a21.67,21.67,0,0,1-5,5.21c-1.89,1.49-3.49,3.41-5.76,4.33s-2.57,2.81-2.86,4.87c-.75,5.2-2.07,10.32-2.17,15.6a15.16,15.16,0,0,0,.89,6.6c.7,1.54,1.57,1.85,3.11,1.05a20,20,0,0,0,5.52-4.46,63.53,63.53,0,0,0,9.79-15.4c3.47-7.13,6.28-14.54,9.36-21.84a1.8,1.8,0,0,0,.1-1.33,13.84,13.84,0,0,1-.27-5.55c.15-1.06-.27-2.13.64-3.14,1.41-1.59,3.29-2,5.17-2.37,1.07-.21.61.74.52,1.15-.36,1.77-.82,3.52-1.24,5.27a10.14,10.14,0,0,0-.15,3.88c.28,1.94,1.58,3.08,3.21,4A35.72,35.72,0,0,1,191,104a12.55,12.55,0,0,1,3,7.42c.49,4.37-1,8.3-1.93,12.37-.53,2.25-1.52,4.35-2.18,6.55-.87,2.9-1.91,5.78-2.51,8.73-.81,4-1.61,8-1,12.12.14,1,.35,1.29,1.22.54a82,82,0,0,0,9.33-9.77,63.19,63.19,0,0,1,7.83-7.86,5.44,5.44,0,0,0,2.07-3.31c1.84-9.63,7.74-15.54,17.08-18.15,1.24-.35,2.67-.5,3.49.66s-.33,2.17-1,3.06A8.74,8.74,0,0,1,223.2,119a7.13,7.13,0,0,0-3.09,3.28,35.7,35.7,0,0,0-4,10.54,10.08,10.08,0,0,0,.69,6.15c1.45,3.25,2.81,6.52,4,9.87.35,1,.73,1.46,1.92,1a53,53,0,0,1,8.84-2.59c4.91-1,9.8-1.17,14.57.68a7.18,7.18,0,0,1,3.09,1.86c.22.27.44.53.2.86-.36.48-.54-.06-.78-.17a19.63,19.63,0,0,0-7.64-1.38c-4.75-.21-9.22,1.19-13.68,2.58-1.25.39-2.48.81-3.7,1.29-.81.32-1,.77-.66,1.48a39.35,39.35,0,0,1,2.34,9.49,20.45,20.45,0,0,1-.92,10,30.66,30.66,0,0,1-7.57,11.44,18.84,18.84,0,0,1-6.35,4.21,8.84,8.84,0,0,1-6.7.11A13.31,13.31,0,0,1,196,182a5.72,5.72,0,0,1-.35-4.39,46.15,46.15,0,0,1,4.89-10.6,44.47,44.47,0,0,1,8.2-9.32,2.81,2.81,0,0,0,1-2.91c-.56-3.36-1.17-6.71-1.78-10.06A48.92,48.92,0,0,0,206.65,138.13ZM147.86,106.7c.1,0,.2,0,.28,0,5.48-2.8,10.09-6.51,12.68-12.27.36-.79.64-2,0-2.65a2.86,2.86,0,0,0-3-.6A9.89,9.89,0,0,0,153.14,94c-2.95,3.07-4.18,7-5.12,11C147.89,105.51,147.43,106.08,147.86,106.7Zm61.52,55.63a36.91,36.91,0,0,0-8.08,11.78,11.31,11.31,0,0,0-1.1,6.82c.17.93.28,2.14,1.29,2.42s1.48-.95,1.91-1.69C206.84,175.77,208.36,169.28,209.38,162.33ZM84.9,85.93c2.15-4.67,4.33-9.33,6.44-14,1.19-2.63,2.37-5.28,2.21-8.28,0-.56.08-1.3-.49-1.48s-1.12.4-1.51.84A24,24,0,0,0,86.1,74.14,55.76,55.76,0,0,0,84.9,85.93Zm38.77,22a1.12,1.12,0,0,0,1-.3,83.21,83.21,0,0,0,6.91-6.08c2.11-1.94,4.4-3.77,5.26-6.72.36-1.24,0-1.77-1.36-1.47a9.66,9.66,0,0,0-4,2.11C127.55,98.72,125.34,103.07,123.67,107.9ZM72.16,149.69l.44-.05c-.35-3.48-.71-7-1.06-10.44l-.47.05A39.82,39.82,0,0,0,72.16,149.69Zm2.46-7c.95-1.19,0-2.5.56-3.78a3.42,3.42,0,0,0-1-3.5A42.69,42.69,0,0,0,74.62,142.66Zm-1.73,3.54a19.35,19.35,0,0,0,1.37,7.26C73.81,151,73.89,148.52,72.89,146.2Z"/></g></g></svg>