<?xml version="1.0" encoding="UTF-8" standalone="no"?>
<svg
   xmlns:dc="http://purl.org/dc/elements/1.1/"
   xmlns:cc="http://creativecommons.org/ns#"
   xmlns:rdf="http://www.w3.org/1999/02/22-rdf-syntax-ns#"
   xmlns:svg="http://www.w3.org/2000/svg"
   xmlns="http://www.w3.org/2000/svg"
   width="46.029316mm"
   height="44.285217mm"
   viewBox="0 0 46.029316 44.285217"
   version="1.1"
   id="svg1282">
  <defs
     id="defs1276" />
  <metadata
     id="metadata1279">
    <rdf:RDF>
      <cc:Work
         rdf:about="">
        <dc:format>image/svg+xml</dc:format>
        <dc:type
           rdf:resource="http://purl.org/dc/dcmitype/StillImage" />
        <dc:title></dc:title>
      </cc:Work>
    </rdf:RDF>
  </metadata>
  <g
     id="layer1"
     transform="translate(-29.146058,-56.476442)">
    <g
       id="g1233"
       transform="matrix(0.35277777,0,0,-0.35277777,-445.39557,1034.7002)">
      <g
         id="g1138"
         transform="translate(1348.4298,2684.0459)">
        <path
           d="M 0,0 15.904,27.546 33.565,17.35 15.493,-13.952 0.337,-5.202 Z"
           style="fill:#ffffff;fill-opacity:1;fill-rule:nonzero;stroke:none"
           id="path1140" />
      </g>
      <g
         id="g1142"
         transform="translate(1393.8488,2668.75)">
        <path
           d="m 0,0 c 0,5.631 -4.565,10.196 -10.197,10.196 h -26.391 v 10e-4 c -3.643,0 -7.009,1.944 -8.831,5.099 -1.822,-3.156 -1.822,-7.043 0,-10.198 l 5.887,-10.197 c 1.822,-3.155 5.188,-5.098 8.83,-5.098 h 20.505 C -4.565,-10.197 0,-5.632 0,0"
           style="fill:#7ab6d9;fill-opacity:1;fill-rule:nonzero;stroke:none"
           id="path1144" />
      </g>
      <g
         id="g1146"
         transform="translate(1357.1661,2715.75)">
        <path
           d="m 0,0 22.221,9.682 c 3.144,1.37 6.716,-0.693 7.102,-4.101 l 2.726,-24.085 c 0.471,-4.157 -3.991,-7.081 -7.615,-4.988 L -0.512,-9.09 C -4.137,-6.997 -3.836,-1.672 0,0"
           style="fill:#7ab6d9;fill-opacity:1;fill-rule:nonzero;stroke:none"
           id="path1148" />
      </g>
      <g
         id="g1150"
         transform="translate(1379.3868,2725.4316)">
        <path
           d="m 0,0 -22.221,-9.682 c -3.836,-1.672 -4.136,-6.997 -0.512,-9.089 L 2.213,-33.174 C -10.63,-25.759 -11.02,-4.802 0,0"
           style="fill:#ffffff;fill-opacity:1;fill-rule:nonzero;stroke:none"
           id="path1152" />
      </g>
      <g
         id="g1154"
         transform="translate(1425.129,2765.9077)">
        <path
           d="M 0,0 15.904,-27.546 -1.757,-37.744 -19.83,-6.441 -4.673,2.309 Z"
           style="fill:#ffffff;fill-opacity:1;fill-rule:nonzero;stroke:none"
           id="path1156" />
      </g>
      <g
         id="g1158"
         transform="translate(1389.1735,2734.2217)">
        <path
           d="m 0,0 c 4.877,-2.815 11.113,-1.145 13.929,3.732 l 13.196,22.856 v -0.001 c 1.821,3.156 5.188,5.099 8.831,5.099 -1.822,3.155 -5.189,5.099 -8.832,5.099 H 15.35 c -3.643,0 -7.009,-1.944 -8.83,-5.098 L -3.733,13.929 C -6.548,9.052 -4.877,2.815 0,0"
           style="fill:#7ab6d9;fill-opacity:1;fill-rule:nonzero;stroke:none"
           id="path1160" />
      </g>
      <g
         id="g1162"
         transform="translate(1448.2531,2742.5098)">
        <path
           d="m 0,0 -2.726,-24.084 c -0.385,-3.408 -3.958,-5.471 -7.102,-4.101 l -22.221,9.682 c -3.836,1.671 -4.137,6.997 -0.513,9.089 L -7.615,4.989 C -3.991,7.081 0.471,4.158 0,0"
           style="fill:#7ab6d9;fill-opacity:1;fill-rule:nonzero;stroke:none"
           id="path1164" />
      </g>
      <g
         id="g1166"
         transform="translate(1445.5275,2718.4258)">
        <path
           d="m 0,0 2.726,24.084 c 0.47,4.158 -3.992,7.081 -7.616,4.989 L -29.836,14.67 C -16.993,22.085 1.352,11.944 0,0"
           style="fill:#ffffff;fill-opacity:1;fill-rule:nonzero;stroke:none"
           id="path1168" />
      </g>
      <g
         id="g1170"
         transform="translate(1457.6427,2658.5859)">
        <path
           d="M 0,0 H -31.808 V 20.394 H 4.336 V 2.893 Z"
           style="fill:#ffffff;fill-opacity:1;fill-rule:nonzero;stroke:none"
           id="path1172" />
      </g>
      <g
         id="g1174"
         transform="translate(1448.1803,2705.5674)">
        <path
           d="M 0,0 C -4.877,-2.815 -6.548,-9.052 -3.732,-13.929 L 9.463,-36.785 H 9.462 c 1.822,-3.155 1.822,-7.042 0,-10.197 3.644,0 7.011,1.944 8.832,5.099 l 5.887,10.196 c 1.821,3.155 1.821,7.041 0,10.197 L 13.929,-3.732 C 11.113,1.145 4.876,2.816 0,0"
           style="fill:#7ab6d9;fill-opacity:1;fill-rule:nonzero;stroke:none"
           id="path1176" />
      </g>
      <g
         id="g1178"
         transform="translate(1425.818,2650.2998)">
        <path
           d="m 0,0 -19.495,14.402 c -2.758,2.038 -2.758,6.163 0,8.202 L 0,37.006 c 3.366,2.487 8.128,0.084 8.128,-4.101 V 4.1 C 8.128,-0.084 3.366,-2.487 0,0"
           style="fill:#7ab6d9;fill-opacity:1;fill-rule:nonzero;stroke:none"
           id="path1180" />
      </g>
      <g
         id="g1182"
         transform="translate(1406.3229,2664.7021)">
        <path
           d="m 0,0 19.495,-14.402 c 3.366,-2.488 8.128,-0.084 8.128,4.1 V 18.504 C 27.623,3.674 9.669,-7.143 0,0"
           style="fill:#ffffff;fill-opacity:1;fill-rule:nonzero;stroke:none"
           id="path1184" />
      </g>
      <g
         id="g1186"
         transform="translate(1357.2604,2680.8584)">
        <path
           d="M 0,0 C -2.592,0 -5.029,1.227 -6.583,3.257 L 3.717,21.099 18.068,12.813 10.67,0 H 0.049 Z m -1.239,30.396 c 0.069,1.227 0.782,2.252 1.908,2.744 l 22.221,9.681 c 0.412,0.18 0.845,0.269 1.277,0.269 0.548,0 1.094,-0.145 1.589,-0.431 0.886,-0.511 1.459,-1.386 1.574,-2.401 l 2.726,-24.085 c 0.137,-1.221 -0.393,-2.351 -1.421,-3.024 -1.027,-0.673 -2.276,-0.709 -3.34,-0.094 L 0.349,27.458 c -1.064,0.613 -1.658,1.713 -1.588,2.938 M 26.392,0 H 15.085 l 6.294,10.901 2.005,-1.157 c 1.094,-0.632 2.302,-0.945 3.507,-0.945 1.336,0 2.669,0.386 3.839,1.152 2.227,1.458 3.423,4.007 3.124,6.653 l -2.726,24.084 c -0.253,2.233 -1.514,4.158 -3.461,5.282 -1.946,1.124 -4.244,1.254 -6.304,0.355 L -0.858,36.644 c -2.44,-1.063 -4.049,-3.374 -4.199,-6.032 -0.15,-2.657 1.189,-5.134 3.495,-6.466 L 0.407,23.01 -10.486,4.143 c -2.156,-3.735 -2.156,-8.375 0,-12.11 l 5.887,-10.196 c 2.156,-3.733 6.174,-6.054 10.486,-6.054 h 2.177 c 1.056,0 1.912,0.856 1.912,1.911 0,1.056 -0.856,1.911 -1.912,1.911 H 5.887 c -2.95,0 -5.7,1.588 -7.175,4.144 l -5.887,10.195 c -0.958,1.66 -1.294,3.579 -1.008,5.422 2.191,-2.006 5.086,-3.176 8.13,-3.188 0.017,-10e-4 0.035,-10e-4 0.053,-10e-4 h 26.392 c 4.568,0 8.285,-3.717 8.285,-8.286 0,-4.569 -3.717,-8.286 -8.285,-8.286 H 15.71 c -1.056,0 -1.911,-0.855 -1.911,-1.911 0,-1.055 0.855,-1.911 1.911,-1.911 h 10.682 c 6.676,0 12.108,5.432 12.108,12.108 C 38.5,-5.433 33.068,0 26.392,0"
           style="fill:#3c3c3b;fill-opacity:1;fill-rule:nonzero;stroke:none"
           id="path1188" />
      </g>
      <g
         id="g1190"
         transform="translate(1396.4161,2735.0488)">
        <path
           d="m 0,0 c -2.138,-0.572 -4.371,-0.278 -6.287,0.828 -3.957,2.284 -5.317,7.361 -3.033,11.318 L 0.933,29.904 c 1.475,2.555 4.224,4.142 7.175,4.142 h 11.773 c 1.916,0 3.747,-0.669 5.2,-1.837 -2.833,-0.895 -5.292,-2.816 -6.826,-5.445 -0.01,-0.016 -0.019,-0.032 -0.028,-0.048 L 5.031,3.86 C 3.924,1.944 2.137,0.573 0,0 m 23.6,2.751 -7.398,12.813 5.31,9.197 c 0.009,0.014 0.017,0.029 0.026,0.043 1.296,2.246 3.576,3.743 6.112,4.073 L 37.95,11.036 Z M 8.341,1.949 13.995,11.741 20.289,0.84 18.32,-0.298 c -2.305,-1.33 -3.644,-3.807 -3.494,-6.465 0.15,-2.657 1.758,-4.968 4.199,-6.031 l 7.037,-3.066 c 0.967,-0.422 2.093,0.02 2.515,0.988 0.422,0.968 -0.021,2.095 -0.988,2.517 l -7.037,3.065 c -1.126,0.491 -1.84,1.516 -1.909,2.742 -0.069,1.227 0.525,2.325 1.589,2.94 l 24.946,14.403 c 1.064,0.614 2.313,0.579 3.34,-0.095 1.027,-0.673 1.558,-1.803 1.42,-3.024 l -2.726,-24.084 c -0.114,-1.016 -0.688,-1.891 -1.573,-2.402 -0.885,-0.511 -1.93,-0.57 -2.866,-0.162 l -8.175,3.562 c -0.968,0.422 -2.094,-0.021 -2.515,-0.988 -0.422,-0.968 0.021,-2.095 0.988,-2.516 l 8.175,-3.563 c 0.906,-0.394 1.858,-0.59 2.807,-0.59 1.207,0 2.407,0.317 3.497,0.946 1.947,1.124 3.208,3.05 3.461,5.283 l 2.726,24.084 c 0.299,2.645 -0.898,5.194 -3.125,6.652 -2.226,1.459 -5.041,1.538 -7.345,0.207 L 41.262,12.948 30.369,31.814 c -2.156,3.735 -6.175,6.056 -10.487,6.055 H 8.108 c -4.312,0 -8.33,-2.32 -10.486,-6.054 L -12.63,14.057 c -3.339,-5.782 -1.35,-13.202 4.432,-16.539 1.865,-1.078 3.936,-1.628 6.034,-1.628 1.052,0 2.111,0.138 3.154,0.418 3.123,0.837 5.734,2.84 7.351,5.641"
           style="fill:#3c3c3b;fill-opacity:1;fill-rule:nonzero;stroke:none"
           id="path1192" />
      </g>
      <g
         id="g1194"
         transform="translate(1470.7062,2674.8369)">
        <path
           d="m 0,0 -5.887,-10.196 c -0.958,-1.659 -2.452,-2.91 -4.19,-3.584 0.64,2.9 0.206,5.99 -1.303,8.633 -0.009,0.016 -0.018,0.033 -0.027,0.048 l -13.196,22.856 c -1.106,1.917 -1.4,4.149 -0.828,6.287 0.573,2.138 1.944,3.925 3.861,5.031 1.916,1.107 4.15,1.401 6.287,0.828 2.137,-0.573 3.924,-1.944 5.031,-3.86 L 0,8.285 C 1.475,5.729 1.475,2.555 0,0 m -34.849,2.23 h 14.796 l 5.309,-9.196 c 0.008,-0.014 0.016,-0.029 0.025,-0.045 1.296,-2.245 1.453,-4.968 0.471,-7.329 h -20.601 z m -3.822,-22.667 c 0,-1.228 -0.655,-2.292 -1.752,-2.845 -1.097,-0.553 -2.341,-0.448 -3.329,0.282 l -19.495,14.402 c -0.822,0.608 -1.294,1.541 -1.294,2.564 0,1.021 0.472,1.956 1.294,2.563 l 19.495,14.403 c 0.568,0.42 1.222,0.633 1.883,0.633 0.488,0 0.98,-0.116 1.446,-0.351 1.097,-0.553 1.752,-1.617 1.752,-2.846 z M 3.311,10.196 -6.942,27.954 c -1.617,2.801 -4.228,4.805 -7.352,5.642 -3.124,0.837 -6.387,0.407 -9.188,-1.21 -2.801,-1.617 -4.805,-4.229 -5.642,-7.353 -0.836,-3.124 -0.407,-6.387 1.21,-9.187 l 5.654,-9.792 h -12.589 v 2.315 c 0,2.661 -1.476,5.06 -3.852,6.258 -2.376,1.199 -5.182,0.962 -7.323,-0.62 L -65.519,-0.396 c -1.808,-1.335 -2.844,-3.39 -2.844,-5.638 0,-2.247 1.036,-4.302 2.844,-5.638 l 19.495,-14.403 c 1.235,-0.912 2.692,-1.377 4.16,-1.377 1.075,0 2.158,0.25 3.163,0.757 2.376,1.198 3.852,3.596 3.852,6.258 v 2.274 h 21.786 c 4.313,0 8.331,2.32 10.487,6.055 l 5.887,10.196 c 2.156,3.734 2.156,8.374 0,12.108"
           style="fill:#3c3c3b;fill-opacity:1;fill-rule:nonzero;stroke:none"
           id="path1196" />
      </g>
    </g>
  </g>
</svg>
