<?xml version="1.0" encoding="UTF-8" standalone="no"?>
<svg
   xmlns:dc="http://purl.org/dc/elements/1.1/"
   xmlns:cc="http://creativecommons.org/ns#"
   xmlns:rdf="http://www.w3.org/1999/02/22-rdf-syntax-ns#"
   xmlns:svg="http://www.w3.org/2000/svg"
   xmlns="http://www.w3.org/2000/svg"
   width="41.248604mm"
   height="40.137115mm"
   viewBox="0 0 41.248604 40.137115"
   version="1.1"
   id="svg1497">
  <defs
     id="defs1491" />
  <metadata
     id="metadata1494">
    <rdf:RDF>
      <cc:Work
         rdf:about="">
        <dc:format>image/svg+xml</dc:format>
        <dc:type
           rdf:resource="http://purl.org/dc/dcmitype/StillImage" />
        <dc:title></dc:title>
      </cc:Work>
    </rdf:RDF>
  </metadata>
  <g
     id="layer1"
     transform="translate(-12.637603,-75.181468)">
    <g
       id="g1464"
       transform="matrix(0.35277777,0,0,-0.35277777,-358.46109,1051.7465)">
      <g
         id="g1110"
         transform="translate(1165.1278,2680.8447)">
        <path
           d="m 0,0 -43.034,74.547 c -1.15,1.988 -3.267,3.21 -5.564,3.21 -2.297,0 -4.418,-1.222 -5.564,-3.21 L -97.199,0 c -1.148,-1.98 -1.148,-4.436 0,-6.419 1.145,-1.988 3.264,-3.214 5.562,-3.214 h 86.074 c 2.297,0 4.415,1.226 5.562,3.214 C 1.148,-4.436 1.148,-1.98 0,0"
           style="fill:#7ab6d9;fill-opacity:1;fill-rule:nonzero;stroke:none"
           id="path1112" />
      </g>
      <g
         id="g1114"
         transform="translate(1077.6949,2684.1689)">
        <path
           d="m 0,0 c -1.076,0 -2.064,0.711 -2.366,1.797 l -4.427,15.851 -15.849,-4.427 c -1.309,-0.372 -2.662,0.397 -3.027,1.704 -0.368,1.308 0.394,2.665 1.703,3.028 l 18.215,5.092 c 0.627,0.179 1.301,0.098 1.868,-0.227 0.569,-0.318 0.987,-0.85 1.162,-1.48 L 2.368,3.121 C 2.733,1.812 1.967,0.458 0.661,0.092 0.441,0.028 0.217,0 0,0"
           style="fill:#3c3c3b;fill-opacity:1;fill-rule:nonzero;stroke:none"
           id="path1116" />
      </g>
      <g
         id="g1118"
         transform="translate(1144.6102,2654.4414)">
        <path
           d="m 0,0 c -0.628,0 -1.258,0.242 -1.739,0.722 l -13.366,13.373 c -0.96,0.961 -0.96,2.517 0,3.476 l 13.374,13.374 c 0.96,0.959 2.515,0.959 3.475,0 0.961,-0.962 0.961,-2.515 0,-3.477 L -9.891,15.831 1.737,4.197 C 2.697,3.235 2.697,1.682 1.737,0.72 1.259,0.242 0.629,0 0,0 Z"
           style="fill:#3c3c3b;fill-opacity:1;fill-rule:nonzero;stroke:none"
           id="path1120" />
      </g>
      <g
         id="g1122"
         transform="translate(1133.0521,2735.9092)">
        <path
           d="M 0,0 C -0.21,0 -0.423,0.028 -0.634,0.083 L -18.91,4.964 c -1.311,0.35 -2.091,1.7 -1.74,3.011 0.351,1.311 1.694,2.089 3.009,1.74 L -1.74,5.468 2.504,21.362 c 0.351,1.312 1.697,2.093 3.009,1.743 1.312,-0.351 2.09,-1.699 1.742,-3.01 L 2.374,1.826 C 2.081,0.727 1.087,0 0,0"
           style="fill:#3c3c3b;fill-opacity:1;fill-rule:nonzero;stroke:none"
           id="path1124" />
      </g>
      <g
         id="g1126"
         transform="translate(1078.5612,2712.6309)">
        <path
           d="M 0,0 C -0.418,0 -0.841,0.105 -1.228,0.327 -2.404,1.008 -2.807,2.51 -2.127,3.687 L 24.788,50.32 c 1.877,3.249 5.373,5.265 9.122,5.265 3.75,0 7.245,-2.016 9.12,-5.265 L 56.514,26.963 c 0.676,-1.176 0.274,-2.678 -0.9,-3.359 -1.181,-0.675 -2.68,-0.273 -3.358,0.902 L 38.773,47.863 c -1,1.73 -2.864,2.806 -4.863,2.806 -2.001,0 -3.862,-1.076 -4.864,-2.806 L 2.131,1.229 C 1.675,0.437 0.848,0 0,0"
           style="fill:#3c3c3b;fill-opacity:1;fill-rule:nonzero;stroke:none"
           id="path1128" />
      </g>
      <g
         id="g1130"
         transform="translate(1158.3295,2667.7695)">
        <path
           d="M 0,0 H -0.035 -27.04 c -1.356,0 -2.457,1.102 -2.457,2.458 0,1.358 1.101,2.458 2.457,2.458 H -0.035 0 c 3.094,0 5.612,2.518 5.612,5.613 0,1.167 -0.35,2.28 -1.015,3.224 -0.043,0.06 -0.083,0.126 -0.12,0.187 l -26.035,45.105 c -0.676,1.177 -0.273,2.68 0.9,3.359 1.179,0.679 2.679,0.277 3.359,-0.901 L 8.682,16.489 c 1.207,-1.754 1.847,-3.813 1.847,-5.96 C 10.529,4.726 5.805,0 0,0"
           style="fill:#3c3c3b;fill-opacity:1;fill-rule:nonzero;stroke:none"
           id="path1132" />
      </g>
      <g
         id="g1134"
         transform="translate(1119.3226,2667.7695)">
        <path
           d="m 0,0 h -52.673 c -3.748,0 -7.242,2.016 -9.12,5.263 -1.877,3.251 -1.875,7.286 0,10.534 l 12.96,22.457 c 0.679,1.175 2.179,1.58 3.358,0.901 1.177,-0.68 1.58,-2.184 0.901,-3.359 L -57.535,13.337 c -1.001,-1.733 -1.001,-3.883 0,-5.616 0.999,-1.728 2.862,-2.805 4.862,-2.805 H 0.001 c 1.359,0 2.458,-1.1 2.458,-2.458 C 2.458,1.104 1.359,0 0,0"
           style="fill:#3c3c3b;fill-opacity:1;fill-rule:nonzero;stroke:none"
           id="path1136" />
      </g>
    </g>
  </g>
</svg>
