<svg xmlns="http://www.w3.org/2000/svg" viewBox="0 0 270 270"><defs><style>.cls-1{fill:#fff;}.cls-2{fill:#002d26;}.cls-3{fill:#a78126;}</style></defs><g id="Capa_2" data-name="Capa 2"><g id="Home"><rect class="cls-1" width="270" height="270" rx="9.75"/><path class="cls-2" d="M242.65,18.71c.57.12,1.17.08,1.74.19a8.32,8.32,0,0,1,1.69.54,21.48,21.48,0,0,1,3,1.24A10.56,10.56,0,0,1,251.67,23a8.11,8.11,0,0,1,1.66,3,14.08,14.08,0,0,1,.35,1.94l.11,1,0,.16a58.48,58.48,0,0,1,.78,9l0,4.57c0,.75,0,1.51-.08,2.26l-.29,1.49v-.13c0,.49-.22,1-.23,1.45a13.45,13.45,0,0,1-.22,1.55,31.87,31.87,0,0,1-.84,3.47c-.32,1.18-.57,2.38-.82,3.58A8,8,0,0,1,251,59.35a7.56,7.56,0,0,1-4.89,3.14,8.42,8.42,0,0,1-3.45.3c-.18,0-.27-.06-.44,0l-.42.12a4.25,4.25,0,0,1-.87.06,7.83,7.83,0,0,1-1.67-.18,8.06,8.06,0,0,1-3-1.82,5.82,5.82,0,0,1-2-2.64,15.69,15.69,0,0,1-.74-3.59c-.06-.54-.18-1.07-.22-1.62s-.05-1.21-.07-1.81c0-.93-.07-2.23.84-2.79a3.54,3.54,0,0,1,1.41-.23L237.2,48c.93-.14,2.39-.24,2.63,1a3.41,3.41,0,0,1-.18,1.22,7.19,7.19,0,0,0,.06,1.67,15.78,15.78,0,0,0,.17,1.82c.13.58.33,1.14.47,1.72a20.51,20.51,0,0,0,.76,3.56,2.86,2.86,0,0,0,.86,1.22,2.38,2.38,0,0,0,1,.12c.4-.26.6-.84.9-1.2a7.63,7.63,0,0,0,.78-1.29,30.56,30.56,0,0,0,2.51-6.93,18.15,18.15,0,0,0,.4-3.45c0-.66.1-1.31.18-2l.13-.9a3.33,3.33,0,0,0,0-.37l.07-.53a10.4,10.4,0,0,1-3.81,1.55,7.66,7.66,0,0,0-1.52.25,3,3,0,0,1-1.84,0,10.43,10.43,0,0,1-3.57-1.79,11.81,11.81,0,0,1-2.88-2.47l.09.13c-.07,0-.23-.29-.26-.34a5.22,5.22,0,0,1-.67-1.48L233,38.15a12.07,12.07,0,0,1-.52-3.82V30.39c0-2.35-.11-4.89,1.12-7a12,12,0,0,1,2.21-2.66,7.87,7.87,0,0,1,3.28-1.5,15.27,15.27,0,0,1,1.88-.38l.87-.08a2.81,2.81,0,0,1,.82-.06Zm-.7,2.63a3.62,3.62,0,0,0-.77.43l.19-.18a6.16,6.16,0,0,0-1.67,1.82,5.53,5.53,0,0,0-.46,1.19l-.15.71,0,.15c-.1,1.1,0,2.21-.11,3.3-.05.51-.25,1-.32,1.5a7.24,7.24,0,0,0,0,.94c0,1.95,0,3.86.14,5.76a19.33,19.33,0,0,0,.52,2.09c.18.65.35,1.31.58,2a3.39,3.39,0,0,0,.82,1.26,3.69,3.69,0,0,0,.66.52A2.94,2.94,0,0,0,242,43c.25.1.66-.06.94-.09s.45,0,.67-.07a9.51,9.51,0,0,0,1.81-.57,5.32,5.32,0,0,0,2.43-1.82c.36-.6.25-.88.15-2l-.14-2.06c0-.68-.08-1.36-.09-2a6.85,6.85,0,0,0-.06-1l-.05-.29c-.08-.61-.1-1.22-.14-1.84a8.16,8.16,0,0,1-.09-1.1v.09c-.26-1.33-.58-2.67-.76-4a9.1,9.1,0,0,0-.85-3.33,2.37,2.37,0,0,0-.94-1c-.38-.21-.75-.54-1.18-.52a7.34,7.34,0,0,1-.94,0A2.38,2.38,0,0,0,242,21.34Z"/><path class="cls-3" d="M217.73,101.6c-13.57-4-32.47-3.57-42.19-15.43-5.28-6.44-6.41-13.75-8.42-21.33A73.47,73.47,0,0,0,155.63,40c-6.07-8.2-15.33-14.06-23-4.78-5.44,6.57-9.52,14.46-13.29,22-4,8-5.48,17.15-9.08,25.09C107,89.49,96.7,92.62,88.91,92.93c-10.76.42-21.13,3.08-31.67,5.23-7.29,1.49-23.35.32-27.14,7.5-7.15,13.57,24,29.07,33.29,34.09,9.47,5.12,14.22,11.29,11.85,21.55-2.88,12.45-8.64,25.25-6.81,38.44.66,4.71,1.84,12.84,5,16.92,5.24,6.82,20.45,3.36,25.93-.84,8.26-6.32,15.52-13.23,24.84-18.64,8.51-4.93,18.77-8.19,28.6-2.9,8.15,4.38,14.63,11.05,22.91,15.23A147.92,147.92,0,0,0,201.47,220c4.7,1.33,12.66,2.62,15.69-2.09,2.58-4,.88-9.92-.34-14.28-2.39-8.55-6.24-16.66-9.17-25.06-2.54-7.29-5.44-14.63.57-20.65,4.34-4.25,9.3-7,13.91-10.72,6.3-5.1,11.65-11.84,17.3-17.58,2.27-2.3,4.61-4.74,5.38-7.84C247.78,109.86,226.44,104.19,217.73,101.6Zm-2.86,39.09c-5,2.31-11.18,4.27-15.4,7.76-6.08,5.06-4.12,11.73-1.67,18.41,3.49,9.51,6,19.47,5.93,29.45,0,5.91-1.9,10.83-8.41,12-5.5,1-13.35-3.53-17.76-6.38-6.92-4.46-12.83-10-19.07-15.25-5.77-4.86-14-12.46-22-12.89-7.28-.39-11.7,6.86-16.21,11.14-3,2.86-6,5.71-9.15,8.44-5.48,4.78-11,10.85-18.93,11.81-18.88,2.28-9-24.86-6.88-32.36C88,163.6,96,150.65,87.09,142.22c-6.55-6.19-14.76-10.8-22.37-15.66-4.61-3-10.22-7.79-7.85-13.47,2.31-5.51,11-6.62,16.47-6.82,16.45-.6,43.25,2.42,49.34-15.91,2.48-7.48,6.68-51.46,25.42-38.8,7.27,4.91,7.39,14.94,9.68,22.2,3,9.61,7.59,28.6,20.18,30.37,11.78,1.66,22.52,3.52,33.88,7.41,7.95,2.72,16.23,5.81,17.82,14.54C231.14,134.15,220.72,138,214.87,140.69Z"/><path class="cls-2" d="M173.28,177c3.4-4.69,2.45-10.73-1.25-15.41-6.59-8.33-16.54-13.85-24.66-20.81a40.36,40.36,0,0,1,2.39,10.14c.24,4.13.32,14.71-5.68,15.4-5.46.62-10.18-9-11.21-12.82a19.59,19.59,0,0,1-.66-8.7c-4.28,3.19-8.8,6.12-12.91,9.47-3.69,3-7.27,6.45-9.21,10.8-.28.63-.58,1.28-.86,1.94a2.89,2.89,0,0,1,1.2-1.08c5.78-2.84,12.65,2.21,12.41,7.92,3.82-3.7,8.21-6.88,14.27-5.79a42.16,42.16,0,0,1,16.5,7.42,9.62,9.62,0,0,1,.22-8.64c3.85-7.37,15.91-9.51,19.12.31,1.13,3.46-4.25,5.6-5.43,2.1q-1.87-6-8-.09a7.75,7.75,0,0,0,1.57,7.14C164.35,179.84,170.22,181.24,173.28,177Z"/><path class="cls-2" d="M105.1,181.25c-1.73,8.87-6.68,18.05-15.56,14.42A9.68,9.68,0,0,1,86.8,194c-.59,7.75,7.19,5.42,10.15,3.27a158.2,158.2,0,0,0,15.6-13.2A9.45,9.45,0,0,1,105.1,181.25Z"/><path class="cls-2" d="M96,179.7c1.43,1.31,1.11,3.46-1,3.79a5.8,5.8,0,0,0-4.19,2.09q-3.18,5.63,5.46,3.89a19.38,19.38,0,0,0,3-6c1.43-4.59,1.5-9.32,2.65-13.94a1.89,1.89,0,0,1,.36-.69,29.34,29.34,0,0,1,2.57-6.4c-3.49.68-6.83.29-9.12-1.74-1,3.41-2.36,6.76-3.36,10.15-.78,2.64-1.52,5.28-2.22,7.94A5.09,5.09,0,0,1,96,179.7Z"/><path class="cls-2" d="M197,187.22a13.1,13.1,0,0,1-2.18,2.8c-3.64,3.62-7.89,2.92-11.57-.55-1.89-1.77-4.75-4.68-6.17-7.62a10.53,10.53,0,0,1-7.93,3.5,15.47,15.47,0,0,1-4.19-.62c3.31,2.88,6.61,5.76,10.13,8.4s21.32,15.07,22.26,5.49A47.46,47.46,0,0,0,197,187.22Z"/><path class="cls-2" d="M107.09,150.77c-1.66,1.54-4.26-.41-4.14-2.28a13,13,0,0,0-3.27,1.8,4.9,4.9,0,0,0-.64,4.28c1.06,3.47,4.07,2.69,6.9,1.65,4.57-1.66,7.25-4.59,10.84-7.48a1.9,1.9,0,0,1,.82-.38,102.78,102.78,0,0,1,16.13-11c-7.91.86-17.92.73-24.95-1.73-4.81-1.68-9-6.94-10.32-12.1-4.94-1.68-9.87-3.34-14.91-4.71A10.64,10.64,0,0,0,81.21,123a3.77,3.77,0,0,0,1.05,4.42,4,4,0,0,0,3.35,0c-3.57-1.13-1.43-5.89,2-4.91,3.24.91,5.54,5.41,3.09,8a8.62,8.62,0,0,1-5.51,2.67c4.27,3.12,9.13,7,11.17,11.72a8.13,8.13,0,0,1,4.73-1.89C105.91,142.67,111.49,146.69,107.09,150.77Z"/><path class="cls-2" d="M181.54,143.55c-.85,0-3.31-.37-3.6.69-.64,2.3,2.09,4,4.13,4.35,3.66.6,7.46.26,8.51-3.55a7.5,7.5,0,0,0-3.81-8.46c-3.6-2-7.26-1.17-10.81,0a1.75,1.75,0,0,1-.75.07c-4.19,1.86-9.92,2.56-13.62,2.9-2.44.22-5,.4-7.66.4,10.47,6.47,22.06,14.69,26.21,25.47a17.11,17.11,0,0,1-.35,12.08c1,1,1.53,2.24,2.51,3.46a31.05,31.05,0,0,0,5.47,5.7c4.93,3.66,7.83-10.92.91-8.19-3.35,1.32-5.71-3.7-2.37-5a9,9,0,0,1,7.59.61c-.55-1.71-1.12-3.41-1.72-5.06-1.89-5.2-3.61-10.43-2.78-15.53-6,2.12-15.94-.45-17.15-7.2-.54-2.94.43-6.31,3.56-7.5,2.7-1,5.93-.84,7.27,2.06A1.89,1.89,0,0,1,181.54,143.55Z"/><path class="cls-2" d="M137.64,75.68A8.84,8.84,0,0,1,141.22,69a10.78,10.78,0,0,1,8.44-1.74c-.12-.51-.26-1-.38-1.54-.73-3.29.08-8.23-4.66-9.15-8.07-1.57-11.51,11.82-13.38,22C132.91,76.24,134.43,75.13,137.64,75.68Z"/><path class="cls-2" d="M142.42,78.25a13.39,13.39,0,0,1,1.82,2.19c3,4.53,2.67,11.23,1.15,16.38,3.25-.77,6.62-.66,9.2,1,4.73,3.11,6.86,10.45,3.69,15a16.69,16.69,0,0,1,7.91-.95,7.87,7.87,0,0,1,4.94,1.43c.1.07.17.16.26.23.36.19.72.38,1.08.59a2.69,2.69,0,0,1,.64,3.85,47.49,47.49,0,0,1-28.35,15.37,5.36,5.36,0,0,1,.46.85c4.41.31,8.8,1,13.26.53A51.64,51.64,0,0,0,168.64,133q2.1-.59,4.14-1.35,6.94-3.31,2.44-4c-2.05,2.47-6.29-.61-4.28-3.13,1.84-2.32,6.82-6,9.79-2.26,2.16,2.73,1.91,5.63.65,8.3a14.44,14.44,0,0,1,10.8,3.92c2,.12,4,.75,6,.6,3.74-.28,7.73-1.41,9.67-4.64,1.62-2.7,2.3-7.06-.24-9.72s-5.91-1-7.66,1.48c-1.32,1.85-1,4.36,1.88,4.23a1.88,1.88,0,0,1,2,2.43c-2.55,7-13.11-.81-10-7.09a14.14,14.14,0,0,1,7.48-7.08,124.29,124.29,0,0,0-19.8-3.89c-6.95-.74-14.1-2.54-18.08-8.7a96.84,96.84,0,0,1-9.86-21.28,12.91,12.91,0,0,1-7.08.84c-1.35-.19-2.79-1.58-2.46-3,.68-2.79,3-3.37,4.38-2.09a7.85,7.85,0,0,0,2.88-.56c.59-2.5-2-4.73-4.88-4.08C143.33,72.64,142.28,75.5,142.42,78.25Z"/><path class="cls-2" d="M110.81,110.09a6,6,0,0,1,4.08,1.71,13.16,13.16,0,0,1-.29-2.28,2.71,2.71,0,0,1,2.48-2.39,18.89,18.89,0,0,1,15,5.31,15,15,0,0,1,3.79-10.36,17.72,17.72,0,0,1,5.55-3.88c-.12-4.53,1.14-10.25-1-14.39-.16-.32-3.07-4.53-3.89-3.51a9.49,9.49,0,0,0-1.89,3.38,8.49,8.49,0,0,0-.15,4.28c.43,1.49.66,1.62.68.4.26-1.78,3.05-2.85,4.28-1,3,4.41-2.23,9.81-7.12,6.67a7.61,7.61,0,0,1-3.17-4.51c-2.26,8.17-7.29,15.38-16,18.34-11.62,4-24.45,3.6-36.78,4.11-3.63.15-7.86.17-11.13,1.71-6,2.82.8,6.93,3.09,8.33s4.61,2.85,6.88,4.32c-.65-4.25,1.77-9.38,4.84-12.4a2.92,2.92,0,0,1,2.68-1,157.81,157.81,0,0,1,15.62,4.74C99.76,112.28,104.75,109.93,110.81,110.09Z"/><path class="cls-2" d="M114.43,177.69c-.51-2.17-1-4.34-1.52-6.51a2.91,2.91,0,0,1-4-3.38,14.48,14.48,0,0,0-1,3.8Q106.1,177.53,114.43,177.69Z"/><path class="cls-2" d="M204.35,138.83a24.82,24.82,0,0,1-8.87,1.23,13.53,13.53,0,0,1,.57,3.23A49.32,49.32,0,0,1,204.35,138.83Z"/><path class="cls-2" d="M108.06,119.72c1.52-.17,3-.22,4.55-.3-.36-2.18-2.46-3.24-6.35-3.17L104,121a22.5,22.5,0,0,0,2.18,5.32c2.17,4,5.92,4.43,10.12,4.83a112.29,112.29,0,0,0,16.48.44,44.59,44.59,0,0,1-8.5-6.56,45.82,45.82,0,0,1-6.38-6.88,20.81,20.81,0,0,1,.38,4.28,2.63,2.63,0,0,1-2.4,2.31,17.72,17.72,0,0,1-8.29-.63A2.25,2.25,0,0,1,108.06,119.72Z"/><path class="cls-2" d="M209.18,136.67c3.78-1.66,8.22-3.16,11.33-5.64,6.74-5.38-1-10.51-6.62-12.44-.59-.21-1.18-.4-1.77-.6.13.16.26.3.39.47C216.72,124.05,214.76,132.91,209.18,136.67Z"/><path class="cls-2" d="M139.17,123.2c.12.29.25.59.36.89.53.64,1.05,1.29,1.57,2,2.47-3.68,6.66-7,10-9.31a10.71,10.71,0,0,1-10.61-6.41,2.63,2.63,0,0,1,1.45-3.61,8.1,8.1,0,0,1,5.68-.25c2.16.59,1.88,3.58.13,4.26l-.19.06c4.67,4.24,10.4-8.77,2.42-9a14,14,0,0,0-9,3.11c-5.38,4.58-3.18,11.62-1.87,17.66A2.25,2.25,0,0,1,139.17,123.2Z"/></g></g></svg>