<?xml version="1.0" encoding="UTF-8" standalone="no"?>
<svg
   xmlns:dc="http://purl.org/dc/elements/1.1/"
   xmlns:cc="http://creativecommons.org/ns#"
   xmlns:rdf="http://www.w3.org/1999/02/22-rdf-syntax-ns#"
   xmlns:svg="http://www.w3.org/2000/svg"
   xmlns="http://www.w3.org/2000/svg"
   width="52.916672mm"
   height="24.984432mm"
   viewBox="0 0 52.916672 24.984432"
   version="1.1"
   id="svg1851">
  <defs
     id="defs1845">
    <clipPath
       clipPathUnits="userSpaceOnUse"
       id="clipPath965">
      <path
         d="m 453.427,77.025 h 70.822 v 70.822 h -70.822 z"
         id="path963" />
    </clipPath>
    <clipPath
       clipPathUnits="userSpaceOnUse"
       id="clipPath981">
      <path
         d="m 453.427,77.025 h 70.822 v 70.822 h -70.822 z"
         id="path979" />
    </clipPath>
    <clipPath
       clipPathUnits="userSpaceOnUse"
       id="clipPath1013">
      <path
         d="M 0,3850 H 1920 V 0 H 0 Z"
         id="path1011" />
    </clipPath>
  </defs>
  <metadata
     id="metadata1848">
    <rdf:RDF>
      <cc:Work
         rdf:about="">
        <dc:format>image/svg+xml</dc:format>
        <dc:type
           rdf:resource="http://purl.org/dc/dcmitype/StillImage" />
        <dc:title></dc:title>
      </cc:Work>
    </rdf:RDF>
  </metadata>
  <g
     id="layer1"
     transform="translate(-79.374999,-135.67445)">
    <path
       d="m 107.30724,160.65888 h 24.98443 v -24.98443 h -24.98443 z"
       style="fill:#004584;fill-opacity:1;fill-rule:nonzero;stroke:none;stroke-width:0.352777"
       id="path957" />
    <g
       id="g959"
       transform="matrix(0.35277777,0,0,-0.35277777,-52.651729,187.83159)">
      <g
         id="g961"
         clip-path="url(#clipPath965)">
        <g
           id="g967"
           transform="translate(501.4321,106.6289)">
          <path
             d="m 0,0 c 0,0 1.874,1.464 5.876,0.358 4.001,-1.105 6.498,2.264 7.287,3.633 L 5.718,-13.016 Z"
             style="fill:none;stroke:#06b2b1;stroke-width:0.74;stroke-linecap:butt;stroke-linejoin:miter;stroke-miterlimit:4;stroke-dasharray:none;stroke-opacity:1"
             id="path969" />
        </g>
      </g>
    </g>
    <g
       id="g971"
       transform="matrix(0.35277777,0,0,-0.35277777,128.08176,150.32068)">
      <path
         d="M 0,0 -5.175,-11.808 -10.383,0 -13.361,6.922 h -0.858 l 8.538,-19.383 1.053,0.043 8.464,19.34 H 2.978 Z"
         style="fill:#06b2b1;fill-opacity:1;fill-rule:nonzero;stroke:none"
         id="path973" />
    </g>
    <g
       id="g975"
       transform="matrix(0.35277777,0,0,-0.35277777,-52.651729,187.83159)">
      <g
         id="g977"
         clip-path="url(#clipPath981)">
        <g
           id="g983"
           transform="translate(475.1187,116.5313)">
          <path
             d="m 0,0 h 0.131 v 2.47 h 0.64 V 2.598 H 0.131 V 3.626 H 0 V 2.598 H -0.551 V 2.47 H 0 Z m 1.12,1.299 c 0,-0.779 0.564,-1.363 1.312,-1.363 0.748,0 1.313,0.584 1.313,1.363 0,0.774 -0.565,1.362 -1.313,1.362 C 1.684,2.661 1.12,2.073 1.12,1.304 Z m 0.131,0 c 0,0.705 0.508,1.234 1.181,1.234 0.673,0 1.181,-0.529 1.181,-1.234 0,-0.706 -0.508,-1.236 -1.181,-1.236 -0.673,0 -1.181,0.53 -1.181,1.231 z"
             style="fill:#ffffff;fill-opacity:1;fill-rule:nonzero;stroke:none"
             id="path985" />
        </g>
        <g
           id="g987"
           transform="translate(475.1187,116.5313)">
          <path
             d="m 0,0 h 0.131 v 2.47 h 0.64 V 2.598 H 0.131 V 3.626 H 0 V 2.598 H -0.551 V 2.47 H 0 Z m 1.12,1.299 c 0,-0.779 0.564,-1.363 1.312,-1.363 0.748,0 1.313,0.584 1.313,1.363 0,0.774 -0.565,1.362 -1.313,1.362 C 1.684,2.661 1.12,2.073 1.12,1.304 Z m 0.131,0 c 0,0.705 0.508,1.234 1.181,1.234 0.673,0 1.181,-0.529 1.181,-1.234 0,-0.706 -0.508,-1.236 -1.181,-1.236 -0.673,0 -1.181,0.53 -1.181,1.231 z"
             style="fill:none;stroke:#ffffff;stroke-width:0.055;stroke-linecap:butt;stroke-linejoin:miter;stroke-miterlimit:3.127;stroke-dasharray:none;stroke-opacity:1"
             id="path989" />
        </g>
        <g
           id="g991"
           transform="translate(461.7393,123.7617)">
          <path
             d="m 0,0 h 1.871 c 0.476,0 0.87,0.061 1.193,0.172 0.728,0.313 1.174,0.9 1.184,1.82 0,0.355 -0.111,1.568 -1.527,1.972 0.445,0.223 1.062,0.607 1.062,1.639 0,0.556 -0.193,1.244 -0.88,1.608 C 2.609,7.383 2.225,7.484 1.588,7.484 H 0 Z M 0.303,7.211 H 1.588 C 2.235,7.201 2.508,7.11 2.721,6.988 3.105,6.816 3.479,6.321 3.479,5.644 3.479,5.117 3.348,4.602 2.721,4.248 2.458,4.106 2.104,4.056 1.659,4.056 H 0.303 Z m 0,-3.429 h 1.356 c 0.607,0 0.869,-0.01 1.274,-0.181 C 3.55,3.327 3.944,2.74 3.944,1.992 3.934,1.163 3.52,0.678 2.953,0.435 2.65,0.323 2.275,0.272 1.881,0.272 H 0.303 Z M 8.647,0 h 4.106 V 0.272 H 8.951 v 3.359 h 3.802 V 3.904 H 8.951 v 3.307 h 3.802 V 7.484 H 8.647 Z m 8.718,0 h 3.469 v 0.272 h -3.165 v 7.212 h -0.304 z m 6.493,3.742 c 0,-2.245 1.74,-3.874 3.884,-3.874 2.144,0 3.884,1.629 3.884,3.874 0,2.245 -1.74,3.873 -3.884,3.873 -2.144,0 -3.884,-1.628 -3.884,-3.863 z m 0.304,0 c 0,2.073 1.598,3.601 3.58,3.601 1.983,0 3.58,-1.528 3.58,-3.601 0,-2.073 -1.597,-3.6 -3.58,-3.6 -1.982,0 -3.58,1.527 -3.58,3.589 z M 36.471,7.484 H 36.015 V 0 h 0.304 V 7.181 L 41.538,0 h 0.384 V 7.484 H 41.619 V 0.404 Z M 53.583,5.825 c -0.677,1.113 -2.022,1.79 -3.398,1.79 -2.144,0 -3.884,-1.628 -3.884,-3.873 0,-2.245 1.74,-3.874 3.884,-3.874 1.648,0 3.044,0.921 3.661,2.195 0.172,0.344 0.283,0.718 0.324,1.102 H 49.346 V 2.893 h 4.46 C 53.674,2.194 53.239,1.507 52.602,0.991 51.975,0.485 51.136,0.142 50.185,0.142 c -1.982,0 -3.581,1.527 -3.581,3.6 0,2.073 1.599,3.601 3.581,3.601 0.728,0 1.406,-0.193 1.982,-0.557 0.395,-0.242 0.749,-0.566 1.052,-0.961 z"
             style="fill:#ffffff;fill-opacity:1;fill-rule:nonzero;stroke:none"
             id="path993" />
        </g>
        <g
           id="g995"
           transform="translate(461.7393,123.7617)">
          <path
             d="m 0,0 h 1.871 c 0.476,0 0.87,0.061 1.193,0.172 0.728,0.313 1.174,0.9 1.184,1.82 0,0.355 -0.111,1.568 -1.527,1.972 0.445,0.223 1.062,0.607 1.062,1.639 0,0.556 -0.193,1.244 -0.88,1.608 C 2.609,7.383 2.225,7.484 1.588,7.484 H 0 Z M 0.303,7.211 H 1.588 C 2.235,7.201 2.508,7.11 2.721,6.988 3.105,6.816 3.479,6.321 3.479,5.644 3.479,5.117 3.348,4.602 2.721,4.248 2.458,4.106 2.104,4.056 1.659,4.056 H 0.303 Z m 0,-3.429 h 1.356 c 0.607,0 0.869,-0.01 1.274,-0.181 C 3.55,3.327 3.944,2.74 3.944,1.992 3.934,1.163 3.52,0.678 2.953,0.435 2.65,0.323 2.275,0.272 1.881,0.272 H 0.303 Z M 8.647,0 h 4.106 V 0.272 H 8.951 v 3.359 h 3.802 V 3.904 H 8.951 v 3.307 h 3.802 V 7.484 H 8.647 Z m 8.718,0 h 3.469 v 0.272 h -3.165 v 7.212 h -0.304 z m 6.493,3.742 c 0,-2.245 1.74,-3.874 3.884,-3.874 2.144,0 3.884,1.629 3.884,3.874 0,2.245 -1.74,3.873 -3.884,3.873 -2.144,0 -3.884,-1.628 -3.884,-3.863 z m 0.304,0 c 0,2.073 1.598,3.601 3.58,3.601 1.983,0 3.58,-1.528 3.58,-3.601 0,-2.073 -1.597,-3.6 -3.58,-3.6 -1.982,0 -3.58,1.527 -3.58,3.589 z M 36.471,7.484 H 36.015 V 0 h 0.304 V 7.181 L 41.538,0 h 0.384 V 7.484 H 41.619 V 0.404 Z M 53.583,5.825 c -0.677,1.113 -2.022,1.79 -3.398,1.79 -2.144,0 -3.884,-1.628 -3.884,-3.873 0,-2.245 1.74,-3.874 3.884,-3.874 1.648,0 3.044,0.921 3.661,2.195 0.172,0.344 0.283,0.718 0.324,1.102 H 49.346 V 2.893 h 4.46 C 53.674,2.194 53.239,1.507 52.602,0.991 51.975,0.485 51.136,0.142 50.185,0.142 c -1.982,0 -3.581,1.527 -3.581,3.6 0,2.073 1.599,3.601 3.581,3.601 0.728,0 1.406,-0.193 1.982,-0.557 0.395,-0.242 0.749,-0.566 1.052,-0.961 z"
             style="fill:none;stroke:#ffffff;stroke-width:0.1;stroke-linecap:butt;stroke-linejoin:miter;stroke-miterlimit:6.255;stroke-dasharray:none;stroke-opacity:1"
             id="path997" />
        </g>
        <g
           id="g999"
           transform="translate(461.6216,98.4717)">
          <path
             d="m 0,0 c 0.267,-3.742 3.341,-5.346 5.72,-5.346 2.94,0 5.746,2.273 5.746,5.533 0,4.303 -3.956,5.025 -4.918,5.292 -2.726,0.696 -5.345,1.47 -5.319,4.625 0,2.592 2.005,4.302 4.517,4.302 3.181,0 4.063,-2.299 4.357,-3.875 h 0.802 c -0.428,3.234 -2.78,4.597 -5.105,4.597 -2.86,0 -5.453,-1.871 -5.372,-5.158 0,-3.742 3.447,-4.571 5.185,-4.998 1.897,-0.508 5.051,-1.256 5.051,-4.892 0,-2.833 -2.485,-4.704 -4.971,-4.704 -1.524,0 -4.41,0.829 -4.891,4.624 z m 20.312,-4.998 h 10.852 v 0.722 h -10.05 v 8.874 h 10.05 v 0.721 h -10.05 v 8.74 h 10.05 V 14.78 H 20.312 Z"
             style="fill:#06b2b1;fill-opacity:1;fill-rule:nonzero;stroke:none"
             id="path1001" />
        </g>
      </g>
    </g>
    <g
       id="g1003"
       transform="matrix(0.35277777,0,0,-0.35277777,83.471917,144.73999)">
      <path
         d="M 0,0 H 3.458 V -2.536 H -2.68 v 20.17 H 3.458 V 15.069 H 0 V 8.903 H 2.997 V 6.425 H 0 Z"
         style="fill:#000000;fill-opacity:1;fill-rule:nonzero;stroke:none"
         id="path1005" />
    </g>
    <g
       id="g1007"
       transform="matrix(0.35277777,0,0,-0.35277777,-52.651729,187.83159)">
      <g
         id="g1009"
         clip-path="url(#clipPath1013)">
        <g
           id="g1015"
           transform="translate(396.8125,119.6133)">
          <path
             d="m 0,0 h -3.199 c -0.864,6.714 -1.729,13.456 -2.564,20.17 h 2.737 l 0.778,-8.327 c 0.202,-2.565 0.433,-5.1 0.663,-7.665 0.202,2.565 0.432,5.1 0.663,7.665 l 0.749,8.327 h 2.766 z"
             style="fill:#000000;fill-opacity:1;fill-rule:nonzero;stroke:none"
             id="path1017" />
        </g>
        <g
           id="g1019"
           transform="translate(404.2466,122.1494)">
          <path
             d="M 0,0 H 3.458 V -2.536 H -2.68 v 20.17 H 3.458 V 15.069 H 0 V 8.903 H 2.997 V 6.425 H 0 Z"
             style="fill:#000000;fill-opacity:1;fill-rule:nonzero;stroke:none"
             id="path1021" />
        </g>
        <g
           id="g1023"
           transform="translate(416.3774,125.8369)">
          <path
             d="m 0,0 c -0.173,2.421 -0.23,5.13 -0.23,7.55 v 6.396 h 2.42 v -20.17 h -2.536 l -3.4,13.917 C -3.602,5.331 -3.515,2.68 -3.515,0.145 v -6.369 h -2.421 v 20.17 h 2.565 z"
             style="fill:#000000;fill-opacity:1;fill-rule:nonzero;stroke:none"
             id="path1025" />
        </g>
        <g
           id="g1027"
           transform="translate(425.6562,119.6133)">
          <path
             d="M 0,0 H -2.68 V 17.605 H -4.927 V 20.17 H 2.276 V 17.605 H 0 Z"
             style="fill:#000000;fill-opacity:1;fill-rule:nonzero;stroke:none"
             id="path1029" />
        </g>
        <g
           id="g1031"
           transform="translate(434.5889,122.9561)">
          <path
             d="m 0,0 v 13.485 c 0,0.692 -0.26,1.21 -1.038,1.21 -0.777,0 -1.066,-0.518 -1.066,-1.21 V 0 c 0,-0.749 0.289,-1.239 1.066,-1.239 C -0.26,-1.239 0,-0.749 0,0 m -4.783,-0.029 v 13.514 c 0,2.075 0.835,3.63 3.745,3.63 2.911,0 3.718,-1.555 3.718,-3.63 V -0.029 c 0,-2.075 -0.807,-3.602 -3.718,-3.602 -2.91,0 -3.745,1.527 -3.745,3.602"
             style="fill:#000000;fill-opacity:1;fill-rule:nonzero;stroke:none"
             id="path1033" />
        </g>
        <g
           id="g1035"
           transform="translate(444.4727,125.1748)">
          <path
             d="m 0,0 c 0,5.561 -4.755,3.458 -4.755,9.537 v 1.758 c 0,2.075 0.894,3.601 3.717,3.601 2.824,0 3.718,-1.526 3.718,-3.601 V 8.846 H 0 v 2.449 c 0,0.691 -0.23,1.182 -1.038,1.182 -0.777,0 -1.037,-0.491 -1.037,-1.182 V 9.624 c 0,-4.783 4.755,-2.651 4.755,-9.566 v -2.334 c 0,-2.076 -0.894,-3.574 -3.718,-3.574 -2.823,0 -3.717,1.498 -3.717,3.574 v 2.765 h 2.68 v -2.737 c 0,-0.691 0.26,-1.21 1.037,-1.21 0.808,0 1.038,0.519 1.038,1.21 z"
             style="fill:#000000;fill-opacity:1;fill-rule:nonzero;stroke:none"
             id="path1037" />
        </g>
        <g
           id="g1039"
           transform="translate(387.9722,88.5381)">
          <path
             d="m 0,0 v 13.485 c 0,0.692 -0.259,1.21 -1.037,1.21 -0.778,0 -1.067,-0.518 -1.067,-1.21 V 0 c 0,-0.749 0.289,-1.238 1.067,-1.238 C -0.259,-1.238 0,-0.749 0,0 m -4.783,-0.028 v 13.513 c 0,2.076 0.835,3.631 3.746,3.631 2.91,0 3.717,-1.555 3.717,-3.631 V -0.028 c 0,-2.076 -0.807,-3.602 -3.717,-3.602 -2.911,0 -3.746,1.526 -3.746,3.602"
             style="fill:#000000;fill-opacity:1;fill-rule:nonzero;stroke:none"
             id="path1041" />
        </g>
        <g
           id="g1043"
           transform="translate(401.7461,91.4199)">
          <path
             d="m 0,0 c -0.173,2.421 -0.231,5.129 -0.231,7.55 v 6.396 h 2.42 v -20.17 h -2.535 l -3.4,13.917 c 0.144,-2.362 0.23,-5.013 0.23,-7.548 v -6.369 h -2.42 v 20.17 h 2.564 z"
             style="fill:#000000;fill-opacity:1;fill-rule:nonzero;stroke:none"
             id="path1045" />
        </g>
        <g
           id="g1047"
           transform="translate(409.3818,105.3662)">
          <path
             d="M 0,0 H 2.68 V -17.635 H 5.446 V -20.17 H 0 Z"
             style="fill:#000000;fill-opacity:1;fill-rule:nonzero;stroke:none"
             id="path1049" />
        </g>
        <path
           d="m 419.266,105.366 h 2.68 v -20.17 h -2.68 z"
           style="fill:#000000;fill-opacity:1;fill-rule:nonzero;stroke:none"
           id="path1051" />
        <g
           id="g1053"
           transform="translate(433.3271,91.4199)">
          <path
             d="m 0,0 c -0.173,2.421 -0.23,5.129 -0.23,7.55 v 6.396 h 2.42 v -20.17 h -2.536 l -3.4,13.917 C -3.602,5.331 -3.515,2.68 -3.515,0.145 v -6.369 h -2.421 v 20.17 h 2.565 z"
             style="fill:#000000;fill-opacity:1;fill-rule:nonzero;stroke:none"
             id="path1055" />
        </g>
        <g
           id="g1057"
           transform="translate(443.6436,87.7314)">
          <path
             d="M 0,0 H 3.458 V -2.535 H -2.68 v 20.17 H 3.458 V 15.07 H 0 V 8.904 H 2.997 V 6.426 H 0 Z"
             style="fill:#000000;fill-opacity:1;fill-rule:nonzero;stroke:none"
             id="path1059" />
        </g>
        <path
           d="m 376.476,113.589 h 76.951 v 32.031 h -76.951 z m 79.178,-2.228 h -81.405 v 36.486 h 81.405 z"
           style="fill:#000000;fill-opacity:1;fill-rule:nonzero;stroke:none"
           id="path1061" />
        <path
           d="m 376.476,79.252 h 76.951 v 32.11 h -76.951 z m 79.178,-2.227 h -81.405 v 36.563 h 81.405 z"
           style="fill:#000000;fill-opacity:1;fill-rule:nonzero;stroke:none"
           id="path1063" />
        <path
           d="m 455.654,79.252 h 66.368 v 66.368 h -66.368 z m 68.595,-2.227 h -70.822 v 70.822 h 70.822 z"
           style="fill:#000000;fill-opacity:1;fill-rule:nonzero;stroke:none"
           id="path1065" />
      </g>
    </g>
  </g>
</svg>
