<svg xmlns="http://www.w3.org/2000/svg" viewBox="0 0 270 270"><defs><style>.cls-1{fill:#fff;}.cls-2{fill:#002d26;}.cls-3{fill:#a78126;}.cls-4{fill:#d7b88b;}.cls-5{fill:#a01a22;}</style></defs><g id="Capa_2" data-name="Capa 2"><g id="Home"><rect class="cls-1" width="270" height="270" rx="9.75"/><path class="cls-2" d="M210.25,16.66c.28-.25.6.08.87.21a6.41,6.41,0,0,0,1.35.36l.65.18c.13,0,.28,0,.4.09s.08.14.29.17l.3,0,.57.06a7.45,7.45,0,0,0,1,.19c.46,0,.91.06,1.37.08a8.59,8.59,0,0,1,1.2.34,7.62,7.62,0,0,0,1.51.11.48.48,0,0,1,.55.38,1.71,1.71,0,0,1-.19,1.51c-.23.27-.78.28-1.09.43a1.53,1.53,0,0,0-.57.4,6,6,0,0,0-.45,1l-.11.46,0,.76a18.1,18.1,0,0,1-.1,2.53v-.12c0,.72-.12,1.43-.12,2.15l0,1.1c0,.06,0,.57.06.63a18.44,18.44,0,0,1,.08,4.33c-.12,1.54-.22,3.11-.45,4.65a20.31,20.31,0,0,0,0,3.74c0,.69.08,1.39.06,2.08,0,.48-.1.94-.14,1.42-.12,1.24.06,2.52,0,3.75a12.44,12.44,0,0,1-.19,2,10.55,10.55,0,0,0-.27,1.36c0,.41-.12.82-.12,1.23A2.81,2.81,0,0,0,217,55c.06.24.09.49.13.74A2.32,2.32,0,0,0,219,57.35a1.8,1.8,0,0,0,.52,0c.16,0,.17-.07.31-.11a.4.4,0,0,1,.42.19,1.82,1.82,0,0,1,.17,1c0,.33-.13.82-.46.94a1.51,1.51,0,0,1-.7.06h-.87a11.43,11.43,0,0,0-1.55.12l-.76.11c-.23,0-.46.06-.69.06a2.46,2.46,0,0,1-1.32,0c-.15-.12-.06-.17-.28-.17h-.29l-.37,0a10.92,10.92,0,0,1-1.37.24c-.36.11-.58.35-1,.41a1.85,1.85,0,0,1-.59-.18,1.92,1.92,0,0,1-.31-.23h-.3a6.12,6.12,0,0,1-1.41.18,1,1,0,0,0-.58.11c-.16.06-.4.18-.56.06a.85.85,0,0,0-.55-.12.42.42,0,0,1-.35.18c-.59-.18-.48-1.19-.32-1.6a.8.8,0,0,1,.77-.59l1.13-.08c.67-.49,1.54-.64,2.12-1.26a2.3,2.3,0,0,0,.43-1.54l.13-1.87c.06-1.36.05-2.72,0-4.08a10.72,10.72,0,0,1,0-2c.06-.52.2-1,.21-1.54V43.81c0-.5.1-1,.12-1.5,0-1.19,0-2.37,0-3.56a9.74,9.74,0,0,1,.1-2,15.64,15.64,0,0,0,.27-1.62l.11-2c0-.57.11-1.1.19-1.66s.05-1.26.1-1.89.14-1.16.22-1.74l0,.1a5,5,0,0,0,.12-.85,14.1,14.1,0,0,1,.21-2.05c0-.53.14-1.09.14-1.6v-2.2c-.76.5-1.56.95-2.33,1.44a10.6,10.6,0,0,0-1.41,1.06,7.39,7.39,0,0,1-1.25,1.06,20.58,20.58,0,0,0-2.39,1.88c-.46.4-.91.84-1.4,1.22a3.48,3.48,0,0,1-1.23.78c-.46.12-1.4.06-1.63-.44a1.1,1.1,0,0,1-.37-.58.81.81,0,0,1,.13-.56,1.13,1.13,0,0,1,.66-.42l.29-.11a1,1,0,0,1,.24-.26c.17-.13.37-.17.52-.31l.59-.49c.77-.65,1.53-1.32,2.31-1.95a16.67,16.67,0,0,0,1.44-1.06,11,11,0,0,1,1.36-1.18c.51-.38,1.05-.73,1.59-1.06a2.68,2.68,0,0,0,1.08-.92.7.7,0,0,0-.09-.59,1.7,1.7,0,0,1-.41-1.16,1.41,1.41,0,0,1,.36-.94Z"/><path class="cls-2" d="M238.12,16.11c.28,0,.54,0,.81,0a6,6,0,0,1,1.49.57,19.38,19.38,0,0,1,3.29,1.46A6.9,6.9,0,0,1,246,20.39a7.87,7.87,0,0,1,.87,3c.18,1.24.19,2.47.26,3.71a10.87,10.87,0,0,1-.39,3.26,9.09,9.09,0,0,1-3.87,5.31,12.2,12.2,0,0,1,2.64,2.38,8.53,8.53,0,0,1,1.26,2.9,9.38,9.38,0,0,1,.38,1.73c.06.47.19.92.27,1.39a15.72,15.72,0,0,1,0,3.43,23,23,0,0,1-.35,3.61,18.67,18.67,0,0,1-1.07,3.35,11.39,11.39,0,0,1-1.71,2.73,5.63,5.63,0,0,1-2.42,1.89.83.83,0,0,0-.34.19l-.49.17.1-.06a7.62,7.62,0,0,1-3.59.88,6.16,6.16,0,0,0-1.05,0,4.17,4.17,0,0,1-.79,0c-.21-.06-.39-.24-.6-.24s-.45.06-.7.06a10.43,10.43,0,0,1-3.49-.88,8.39,8.39,0,0,1-3.07-1.94c-1.68-1.81-1.92-4.22-2.34-6.55a22.17,22.17,0,0,1-.42-3.91,16.4,16.4,0,0,1,.25-4c.59-2.33,1.5-4.68,3.53-6.12a10.09,10.09,0,0,1-2.32-6.37,15.46,15.46,0,0,1,.31-3.72c.19-1.07.24-2.17.44-3.24a8.16,8.16,0,0,1,3.68-5.47,7.81,7.81,0,0,1,3.17-1.18c1.06-.14,2.09-.44,3.16-.51a1.55,1.55,0,0,1,.74-.07ZM232.3,41.7c-.11.88-.43,1.73-.53,2.61s-.09,1.75-.14,2.62-.06,2-.06,3c0,.4.11.78.13,1.19s-.07.75,0,1.11c.1.69.09,1.65.19,2.21a9.06,9.06,0,0,0,.33,1.16l0-.08a7.51,7.51,0,0,0,.73,1.26.77.77,0,0,0,.44.33l.68.25a2.69,2.69,0,0,0,.55.17,4.29,4.29,0,0,1,.8,0l.81.1c.24,0,.41-.1.64-.18a5.81,5.81,0,0,1,.71-.11,1.86,1.86,0,0,0,.41-.28c.33-.25.7-.44,1-.7a4.89,4.89,0,0,0,1.2-1.68,10.33,10.33,0,0,0,.93-2.76,16.31,16.31,0,0,0,.12-2.62c0-1.08.13-2.15,0-3.24a4.64,4.64,0,0,0-.13-1.12c-.11-.44-.28-.86-.38-1.31-.16-.29-.27-.63-.44-.92a2.87,2.87,0,0,0-.56-.77A4,4,0,0,0,238,40.73l-2.91-.79a7.88,7.88,0,0,1-1.44-.4c-.12,0-.49-.26-.57-.17l-.63,1.31Zm4.86-23c-.52.07-.85.51-1.34.71l.19-.07-.33.2-.46.48-.1.12a11.32,11.32,0,0,0-1.51,4.58,12.14,12.14,0,0,0-.15,1.8c0,.84-.15,1.66-.25,2.5v-.09c-.07.12,0,.34,0,.42a2.5,2.5,0,0,0,.26,1.52,6.71,6.71,0,0,0,.95,1.56c1,1.08,2.72,1,4,1.46a14,14,0,0,0,1.42-1.83,10.27,10.27,0,0,0,.78-2.06,6.3,6.3,0,0,0,.2-1.73l0-1.23a2.91,2.91,0,0,0,0-.58c-.11-.75-.12-1.5-.19-2.25a13.17,13.17,0,0,0-.28-1.5,7.61,7.61,0,0,0-1.42-3.83c-.37-.41-1.29-.23-1.78-.17Z"/><path class="cls-3" d="M124.56,115.07c-2.53,1.41-3.17,3.36-1.9,5.85.19.57.37,1.15.56,1.73q.91,2.4,2,4.72c1.07,2.3,2.16,4.59,3.35,6.82s2.5,4.45,3.86,6.6C131.37,131.87,129.23,122.56,124.56,115.07Z"/><path class="cls-4" d="M177.81,209.8l3.85-.07,2.58,0q2.77-3.54,5.46-7.16a1,1,0,0,1,1.6-.2c3,2.36,5.93,4.76,8.87,7.21l-2.3,0,4.12,0c2.09,0,4.74.15,7.4.19-6.07-5.53-12.2-11-18.64-16.18Q184.52,201.88,177.81,209.8Z"/><path class="cls-4" d="M212.8,209.68c-1,.07-2.08.07-3.14.06C210.72,209.75,211.77,209.75,212.8,209.68Z"/><path class="cls-5" d="M186.79,209.68h-1.26l11.29-.11c-2-1.7-4-3.41-6.07-5.07C189.45,206.25,188.12,208,186.79,209.68Z"/><path class="cls-3" d="M189.33,167.82a1,1,0,0,1,1.6-.21c10.17,8.1,20.42,16.67,29.41,26.14-2.11-15.51-2.45-31.64-3-47.39-12.27.12-24.51.19-36.76.93-6.7.4-13.4.87-20.08,1.45-5.8.5-11.88,1.64-17.7,1.21A47.54,47.54,0,0,1,166,173.42a2.24,2.24,0,0,1-1.91,3.33c-7.93.47-14.6-3.71-20.47-8.65a51.17,51.17,0,0,1-8.06-7.83c1.17,14.64,17.34,23.13,30.25,28.11,2,.78,1.24,3.92-.91,3.28-1.49-.44-3-1-4.46-1.53,1.91,1.87,3.8,3.77,5.62,5.72A340.18,340.18,0,0,0,189.33,167.82Z"/><path class="cls-4" d="M153.45,210.15c-4.67-4.24-9.41-8.42-14.27-12.47a80,80,0,0,0,1.56,9.5q1.88,1.51,3.74,3.06c-1,0-2,0-2.93,0l12.6-.12h-.7Z"/><path class="cls-4" d="M139.1,196.93c-.07-.67-.14-1.34-.2-2C139,195.59,139,196.26,139.1,196.93Z"/><path class="cls-3" d="M111.19,130c-1-.5-10.19-4.67-10.16-1.67.19,15.92,18.3,19.2,31.14,19.55-4.38-3.54-8.18-7.58-12.34-11.42A39.77,39.77,0,0,0,111.19,130Z"/><path class="cls-4" d="M97.44,62.05c-2.78-.14-5.56-.24-8.35-.2.55,0,1.1,0,1.65,0q-6.4,7.65-12.36,15.65a1,1,0,0,1-1.6.21c-6.1-4.86-12.23-9.89-18.1-15.18a12.8,12.8,0,0,0-6.21,2.12c8.14,7.47,16.22,14.91,24.86,21.86Q86.81,73.82,97.44,62.05Z"/><path class="cls-3" d="M107.35,148.39c1.28-.16,2.57-.35,3.87-.53a29.76,29.76,0,0,1-5.17-3.08c-4.6-3.45-10.85-11.84-8.72-18.13,2.37-7,13.17-2.27,17.41.42a67.57,67.57,0,0,1,12,10.27,119.27,119.27,0,0,1-6-12.11c-1.88-4.49-4.27-12.76,1.79-15.33,5-2.14,8.12,6.66,9.6,10.73,0-.78-.06-1.56-.1-2.32-.11-2.5-.19-5-.28-7.46C121.4,102.61,111,93.89,102,84.22a338.52,338.52,0,0,0-23.23,28,1,1,0,0,1-1.6.21C67.45,104.73,57.66,96.57,49,87.61c0-.46,0-.92,0-1.38.14,4.1.26,8.2.44,12.3q.78,18,2,35.92.42,6.08.87,12.15c11.65,2.34,23.83,2.61,35.68,2.57A159.67,159.67,0,0,0,107.35,148.39Z"/><path class="cls-4" d="M51.12,65.92a3,3,0,0,1,.24-.26A3,3,0,0,0,51.12,65.92Z"/><path class="cls-4" d="M48.67,76.32q0-1.2.09-2.37Q48.69,75.12,48.67,76.32Z"/><path class="cls-2" d="M100.71,82.6a1.12,1.12,0,0,1,.32-.23.85.85,0,0,1,1.34-.23c9.68,8.81,19.11,17.72,29.25,26-.13-3.28-.3-6.55-.65-9.84,0,.36.06.72.09,1.08l-.65-.52q-3.89-3.11-7.69-6.29T115.15,86q-3.72-3.32-7.3-6.79c-1.18-1.16-2.36-2.33-3.51-3.51-.57-.59-1.15-1.19-1.71-1.79-.16-.16-.37-.59-.61-.63s-.38.31-.54.49l-.51.55-1,1.16-2.1,2.33q-3.34,3.76-6.59,7.64t-6.37,7.83q-3.12,3.94-6.11,8a1,1,0,0,1-1.6.2c-9.82-7.82-19.72-16.08-28.48-25.16,0,1.37,0,2.77,0,4.22s.11,2.83.15,4.25c9.5,8.67,18.79,17.41,28.83,25.49A343.87,343.87,0,0,1,100.71,82.6Z"/><path class="cls-4" d="M128.83,78.42c-.18-1.49-.42-3.13-.61-4.81-4.07-3.3-8.13-6.67-12.1-10.15h0c-3.14-.23-6.28-.5-9.41-.76,7.42,6.81,14.82,13.59,22.58,20C129.15,81.29,129,79.85,128.83,78.42Z"/><path class="cls-4" d="M207.2,62.05a13.42,13.42,0,0,1,1.76.79A13.42,13.42,0,0,0,207.2,62.05Z"/><path class="cls-4" d="M134.81,109.67c-.12-.73-.23-1.46-.34-2.19C134.58,108.21,134.69,108.94,134.81,109.67Z"/><path class="cls-5" d="M103.5,62.44c-1.16-.09-2.32-.15-3.49-.22A335.79,335.79,0,0,0,78.38,88.48a1,1,0,0,1-1.6.2,312.86,312.86,0,0,1-25.85-22.5,7.41,7.41,0,0,0-.76,1,2.68,2.68,0,0,1-.26.37,25.44,25.44,0,0,0-1.13,6.15c9.53,8.7,18.85,17.47,28.92,25.58-.08-.07,5.61-7.31,6.13-8q3.14-4,6.38-7.82c2.16-2.57,4.36-5.12,6.6-7.62.92-1,1.8-2.1,2.75-3.1.48-.49,1-1,1.48-1.42.19-.17.3-.39.57-.45a.83.83,0,0,1,.76.22c9.41,8.56,18.59,17.21,28.41,25.28q-.56-5.38-1.14-10.75A280.08,280.08,0,0,1,103.5,62.44Z"/><path class="cls-4" d="M161.86,61.92c8.66,8,17.23,15.9,26.41,23.29q9-12,18.93-23.16a37.81,37.81,0,0,0-4.32-1.2c-.41-.1-.83-.15-1.25-.23q-6.37,7.6-12.31,15.58a1,1,0,0,1-1.6.21c-6.08-4.84-12.19-9.86-18.05-15.13l.45,0c-3.24.25-6.47.52-9.71.8h0Z"/><path class="cls-5" d="M212.79,67.73a7.32,7.32,0,0,0-3.66-4.8c-7,7.78-13.59,15.85-19.81,24.24a1,1,0,0,1-1.6.2c-9.84-7.84-19.77-16.12-28.54-25.22l1.23-.11h0l-7,.59.33,0q-10.69,11.9-20.26,24.73a1.08,1.08,0,0,1-.8.48c.19,3.19.41,6.37.66,9.56,2.12-2.9,10.11-12.74,11-13.76q3-3.54,6-7c1-1.17,2.06-2.33,3.1-3.48C154,72.54,154.5,72,155,71.4s.8-1.12,1.46-1.16a2.91,2.91,0,0,1,.93,0c.9.22,1.44,1.35,2.07,2s1.3,1.22,2,1.81l3.88,3.52c2.31,2.12,4.63,4.25,7,6.35,4.66,4.22,9.38,8.38,14.24,12.38.7.58,1.41,1.15,2.13,1.73a344.11,344.11,0,0,1,23-27.69,1,1,0,0,1,1.68.55h0A21.8,21.8,0,0,0,212.79,67.73Z"/><path class="cls-2" d="M213.41,70.88h-.08a1,1,0,0,1-.24.88A337.53,337.53,0,0,0,189.7,100a1,1,0,0,1-1.6.2q-3.22-2.55-6.4-5.16c-4.75-3.89-9.43-7.87-13.94-12-2.24-2.07-4.45-4.19-6.6-6.37-1-1.06-2.21-2.11-3.15-3.27-.28-.35-.52-.81-1-.75s-.81.58-1.11.9l-1.51,1.66-3,3.42q-3,3.44-5.93,7-5.94,7.14-11.47,14.6a1.13,1.13,0,0,1-.3.28c.18,2.19.47,4.43.81,6.69,3.24-4.27,6.56-8.49,10-12.61q3-3.59,6.07-7.09c1-1.16,2.06-2.32,3.11-3.47.52-.58,1-1.16,1.57-1.73.38-.41.74-1,1.33-1.08a1.94,1.94,0,0,1,.54,0c.58.13.82.55,1.22.92.88.82,1.78,1.59,2.66,2.39l3.48,3.19q3.47,3.18,6.94,6.35c4.65,4.22,9.34,8.38,14.17,12.39.26.22,3.15,2.56,3.15,2.57a345.86,345.86,0,0,1,23-27.69c.76-.82,1.9.1,1.68,1h.79c0-.28,0-.56,0-.84C213.85,77.86,213.91,74.37,213.41,70.88Z"/><path class="cls-3" d="M217,136.85q-1-18.85-2-37.73c-.29-5.61-.52-11.23-.86-16.84h-.79a1.1,1.1,0,0,1-.24.45,339,339,0,0,0-23.39,28.21,1,1,0,0,1-1.6.21q-3.47-2.76-6.89-5.57c-4.74-3.89-9.4-7.87-13.89-12q-3.36-3.12-6.58-6.38a44.68,44.68,0,0,1-3.16-3.3c-.28-.35-.36-.65-.83-.36a4.27,4.27,0,0,0-.71.76c-.53.57-1,1.15-1.57,1.72q-1.56,1.72-3.09,3.48-3.07,3.5-6,7.08-5.43,6.52-10.5,13.33c1.37,8.47,3.13,17.25,2.38,25.51,2.22-7.2,5.38-13.77,13.43-16.26a1.9,1.9,0,0,1,2.39,1.81,21.3,21.3,0,0,1-.12,3c4.63-4.68,13.72-13.85,19.85-10.26,7,4.12-1.6,15.22-5.09,18.45-5.82,5.38-12.56,9.56-19.18,13.9,4-.54,8.09-.69,12-1q10-.86,20.08-1.47c12.18-.71,24.39-1.48,36.59-1.71C217.09,140.16,217,138.5,217,136.85Z"/><path class="cls-4" d="M132.31,76.79c0,1.24-.05,2.45,0,3.57.09,2.11.23,4.21.35,6.32,0-.48-.05-1-.08-1.44q8.67-11.58,18.27-22.4h0c-2.38.19-4.76.35-7.14.5q-5.25,6.39-10.19,13A1,1,0,0,1,132.31,76.79Z"/><path class="cls-5" d="M61.94,62.34c5,4.52,10.1,9,15.39,13.21q5.22-7,10.77-13.68l1,0c-7,.08-14.1.31-21.14.49C66.13,62.39,64.05,62.3,61.94,62.34Z"/><path class="cls-5" d="M119.93,63.7h0q4,3.54,8.06,7a18.44,18.44,0,0,1,.69-6.7C125.75,64,122.84,63.87,119.93,63.7Z"/><path class="cls-5" d="M172.86,61c5,4.52,10.11,9,15.41,13.24q5.34-7.14,11-14C190.57,59,181.62,60.21,172.86,61Z"/><path class="cls-5" d="M132.39,74.34l.08.07c2.76-3.69,5.61-7.31,8.51-10.89-3.09.18-6.19.32-9.28.38C132.6,67,132.52,70.75,132.39,74.34Z"/><path class="cls-3" d="M110.5,196.21c.28.35.36.65.83.35a3.89,3.89,0,0,0,.71-.75l1.57-1.73q1.56-1.72,3.09-3.47,3.08-3.5,6-7.08,5.25-6.32,10.17-12.9a45.37,45.37,0,0,1-.82-9.34c-.46.9-.94,1.77-1.4,2.57a50.91,50.91,0,0,1-9,11.75c-5,4.69-11.57,10-18.48,13.24,1.41,1.35,2.82,2.67,4.18,4.06A42.79,42.79,0,0,1,110.5,196.21Z"/><path class="cls-4" d="M66,187.84c-.44,0-.89.09-1.33.11C65.15,187.93,65.6,187.89,66,187.84Z"/><path class="cls-3" d="M105.77,182.42a66.4,66.4,0,0,0,11.94-8.48,48.33,48.33,0,0,0,9.78-12,33,33,0,0,0,2-4.72,68.89,68.89,0,0,1-11.12,7.29c-6.72,3.77-13.5,7.43-20.27,11.11-2,1.08-4,2.15-6,3.22q3.86,3.27,7.58,6.68C101.73,184.53,103.82,183.56,105.77,182.42Z"/><path class="cls-5" d="M132.06,210.28h4.47a31.51,31.51,0,0,1-1.27-4.18C134.21,207.51,133.13,208.89,132.06,210.28Z"/><path class="cls-4" d="M134.56,203.7a1.37,1.37,0,0,1,.17-.17h0a56.37,56.37,0,0,1-.72-6.75q-5.22,6.87-10.76,13.48l8.61,0h-2.32Q132.09,207,134.56,203.7Z"/><path class="cls-4" d="M59.13,206.73h0s0,0-.07-.06Z"/><path class="cls-4" d="M76.77,209.78h0Z"/><path class="cls-4" d="M75.58,209.76h0Z"/><path class="cls-4" d="M75.58,209.76h0Z"/><path class="cls-5" d="M84.67,209.89c-1.61-1.37-3.21-2.74-4.86-4.07-1,1.33-2,2.64-3,4l1.62,0Z"/><path class="cls-4" d="M67.11,209.28l.26,0-.25,0Z"/><path class="cls-4" d="M80.36,203.66c2.58,2.06,5.18,4.15,7.75,6.27l9.27.13c-5.73-5.2-11.51-10.33-17.57-15.2q-5.55,7.42-11.48,14.54c2,.19,4,.28,6,.33,1.51-1.94,3-3.89,4.48-5.87A1,1,0,0,1,80.36,203.66Z"/><path class="cls-4" d="M74.28,209.74l1.21,0h0l-1.21,0Z"/><path class="cls-4" d="M68.31,209.42l0,0-1-.09Z"/><path class="cls-4" d="M66.9,209.25c-.33,0-.64-.11-1-.16l0,0C66.23,209.18,66.57,209.21,66.9,209.25Z"/><path class="cls-4" d="M67.12,209.27l-.22,0,.21,0Z"/><path class="cls-4" d="M58.29,205.88a5.81,5.81,0,0,0,.78.79,5.78,5.78,0,0,1-.77-.8Z"/><path class="cls-2" d="M221.47,201.09c-.26-1.46-.47-2.92-.69-4.39h0c-10.05-9.14-19.81-18.41-30.4-26.93a343.73,343.73,0,0,1-23,27.68,1,1,0,0,1-.32.23.85.85,0,0,1-1.34.24c-4-3.6-7.86-7.2-11.79-10.78h0a46.52,46.52,0,0,1-16.5-13.94c.18,2.81.24,5.58.38,8.13q3.8,3,7.55,6.17t7.56,6.51q3.72,3.33,7.3,6.8c1.18,1.15,2.36,2.32,3.51,3.51.57.59,1.15,1.19,1.71,1.79.16.16.37.59.61.63s.37-.31.54-.49l.51-.56,1-1.16c.71-.77,1.4-1.54,2.1-2.32q3.35-3.78,6.59-7.64t6.37-7.83q3.12-3.94,6.11-8a1,1,0,0,1,1.6-.21c10.48,8.35,21.06,17.2,30.24,27A8.09,8.09,0,0,0,221.47,201.09Z"/><path class="cls-2" d="M137.9,182.76l0-.37c0,.12,0,.24,0,.36Z"/><path class="cls-2" d="M137.87,182.39c0-.34,0-.69-.05-1h0C137.82,181.7,137.85,182,137.87,182.39Z"/><path class="cls-2" d="M123.67,185.57q-3,3.59-6.07,7.08c-1,1.17-2.06,2.33-3.11,3.48-.52.58-1,1.15-1.57,1.72-.38.42-.74,1.05-1.33,1.09a1.94,1.94,0,0,1-.54-.05c-.58-.12-.82-.54-1.22-.92-.88-.81-1.78-1.58-2.66-2.39l-3.48-3.18-2.81-2.57A28.66,28.66,0,0,1,95,191.45c-1.16.18-2.52-1.32-1.32-2.27a28.28,28.28,0,0,1,3.79-2.46l-.74-.67q-3.36-3-6.75-6l-5.92,3.17,2.3,1.86c4.75,3.89,9.43,7.87,13.94,12,2.24,2.08,4.45,4.2,6.6,6.38a44.21,44.21,0,0,1,3.15,3.27c.28.34.52.81,1.05.75s.81-.58,1.11-.91c.51-.55,1-1.1,1.51-1.66q1.53-1.69,3-3.42,3-3.43,5.93-6.95,5.75-6.92,11.11-14.13c-.13-2.3-.34-4.59-.58-6.89C130.14,177.59,127,181.63,123.67,185.57Z"/><path class="cls-2" d="M86.91,177.36c-1.44-1.24-2.87-2.49-4.33-3.7l-3.15-2.58c-4.27,5.73-8.74,11.3-13.35,16.75A25.94,25.94,0,0,0,75,184.5c1.12-1.47,2.26-2.92,3.36-4.41a1,1,0,0,1,1.6-.21l1.14.92h0l1.06-.65c2.1-1.27,4.24-2.49,6.35-3.75C88,176.72,87.44,177,86.91,177.36Z"/><path class="cls-2" d="M58.3,205.87c-.11-.14-.21-.29-.31-.44.1.15.19.31.3.45Z"/><path class="cls-2" d="M63.68,190.63c-2.35,2.72-4.73,5.41-7.18,8.06l0-.44c.24,2.72.29,5.08,1.35,6.92q6.62-7.35,12.81-15.07h0A10.46,10.46,0,0,1,63.68,190.63Z"/><path class="cls-2" d="M58,205.43c-.05-.09-.12-.17-.17-.26h0A2.4,2.4,0,0,0,58,205.43Z"/><path class="cls-5" d="M156.9,210.12h0l-2.26,0Z"/><path class="cls-5" d="M154.15,210.15h0Z"/><path class="cls-5" d="M190.38,180.74c.08.07-5.61,7.3-6.13,8q-3.13,3.95-6.38,7.81t-6.6,7.63c-.92,1-1.8,2.09-2.75,3.09-.48.5-1,1-1.48,1.43-.19.17-.3.38-.57.45a.86.86,0,0,1-.76-.22c-9.19-8.36-18.16-16.79-27.72-24.7,0-.45-.06-.95-.09-1.43h0c0,.49.06,1,.1,1.45.34,3.58.57,7.06.89,10.51,6.11,4.92,12.21,10,18,15.4q9.12-.12,18.23-.27c5.06-5.92,9.94-12,14.58-18.25a1,1,0,0,1,1.6-.21c7.29,5.81,14.62,11.86,21.5,18.3,3-.18,5.81-.81,7.4-2.53C210.36,198.17,200.77,189.1,190.38,180.74Z"/><path class="cls-5" d="M123.74,196.45q-3,3.56-6,7c-1,1.16-2.06,2.32-3.1,3.48l-1.57,1.72c-.42.45-.8,1.11-1.46,1.16H111a2.09,2.09,0,0,1-.35,0c-.9-.23-1.44-1.35-2.07-2l-2-1.81c-1.29-1.17-2.59-2.33-3.88-3.51q-3.47-3.19-7-6.36c-4.49-4.06-9-8.06-13.7-11.91l-7,3.72-.4.21h0q-7.47,9.56-15.6,18.55a8.35,8.35,0,0,0,2.91,1.53,25.07,25.07,0,0,0,3.88.84c4.43-5.27,8.72-10.65,12.83-16.19a1,1,0,0,1,1.6-.21c7,5.54,13.94,11.3,20.55,17.41l10.11.08,9.58.08q6.91-8.13,13.31-16.68c0-1.91,0-3.79.06-5.62,0-1.43,0-2.85,0-4.27C131.14,187.37,124.51,195.53,123.74,196.45Z"/><path class="cls-3" d="M62,189.93c-.91-.49-.56-2.17.55-2,.26,0,.52,0,.78.05,5.23-6.1,10.27-12.36,15-18.81a1,1,0,0,1,1.6-.21q3.47,2.76,6.89,5.56c.68.56,1.35,1.14,2,1.7,3.5-2.08,7-4.18,10.51-6.2,6-3.45,12.13-6.74,18-10.41,3.73-2.34,7.07-5.45,10.69-8a62.38,62.38,0,0,1-8.1-.95c-12,.91-23.88,2.88-36,2.27-7.09-.35-14.18-.67-21.26-1.22a59.26,59.26,0,0,1-10.24-1.42q1,13.36,2.13,26.72.8,9.47,1.63,18.92,2.79-3,5.51-6.17A1,1,0,0,0,62,189.93Z"/><path class="cls-3" d="M167,127a22.08,22.08,0,0,0,3.16-4.77c1.16-2.58-.53-6-3.5-4.08A70.49,70.49,0,0,0,150.8,132a74.84,74.84,0,0,1-7.14,12.77c4.76-3.17,9.44-6.54,14.06-9.84C161,132.62,164.42,130.14,167,127Z"/><path class="cls-3" d="M139.07,142.6a73.19,73.19,0,0,1,8.54-12.92,25.83,25.83,0,0,0,1.51-5.88C142.74,127.26,140.9,135.26,139.07,142.6Z"/><path class="cls-3" d="M146.84,164.91c4.13,3.38,8.45,6.4,13.58,7.22-5.13-9.12-12.88-15.44-22.58-19.83a2.34,2.34,0,0,1-1.4-.26C138,157.6,142.51,161.37,146.84,164.91Z"/><polygon class="cls-2" points="103.5 62.44 103.5 62.44 103.52 62.44 103.5 62.44"/><path class="cls-2" d="M129.31,82.73h0c0,.24.05.48.08.71C129.36,83.21,129.34,83,129.31,82.73Z"/><path class="cls-2" d="M51.36,65.66a7.49,7.49,0,0,1,1.11-1A7.49,7.49,0,0,0,51.36,65.66Z"/><path class="cls-2" d="M100,62.19l-2.59-.14,2.57.17Z"/><path class="cls-2" d="M50.9,66.16l0,0c.06-.08.12-.18.19-.26C51.05,66,51,66.07,50.9,66.16Z"/><path class="cls-2" d="M132.72,87.81h0c0-.38,0-.75-.07-1.13C132.67,87.06,132.69,87.43,132.72,87.81Z"/><path class="cls-2" d="M129.31,82.73c-7.76-6.44-15.16-13.22-22.58-20h0l-3.18-.26h0a280.08,280.08,0,0,0,26.14,23.27c-.08-.76-.17-1.51-.25-2.27C129.36,83.21,129.34,83,129.31,82.73Z"/><path class="cls-2" d="M97.44,62.05Q86.84,73.83,77.33,86.52c-8.64-7-16.72-14.39-24.86-21.86h0a7.49,7.49,0,0,0-1.11,1,3,3,0,0,0-.24.26c-.07.08-.13.18-.19.26a312.86,312.86,0,0,0,25.85,22.5,1,1,0,0,0,1.6-.2A335.79,335.79,0,0,1,100,62.22l-2.57-.17Z"/><path class="cls-2" d="M150.85,62.84h0q-9.6,10.81-18.27,22.4c0,.48.06,1,.08,1.44s0,.75.07,1.13a1.08,1.08,0,0,0,.8-.48q9.54-12.85,20.26-24.73l-.33,0Z"/><path class="cls-2" d="M209,62.84a13.42,13.42,0,0,0-1.76-.79h0q-10,11.17-18.93,23.16c-9.18-7.39-17.75-15.34-26.41-23.29l-2.68.23c8.77,9.1,18.7,17.38,28.54,25.22a1,1,0,0,0,1.6-.2c6.22-8.39,12.85-16.46,19.81-24.24Z"/><path class="cls-2" d="M209.14,62.92l-.18-.08.17.09Z"/><polygon class="cls-3" points="127.99 70.66 127.99 70.66 127.99 70.66 127.99 70.66"/><polygon class="cls-3" points="58.68 62.54 58.68 62.54 58.68 62.54 58.68 62.54"/><polygon class="cls-3" points="48.67 76.33 48.67 76.33 48.67 76.33 48.67 76.33"/><path class="cls-3" d="M130.78,96.46h0c.07.6.13,1.21.19,1.82C130.91,97.67,130.85,97.06,130.78,96.46Z"/><path class="cls-3" d="M48.77,73.74a1.48,1.48,0,0,1,0,.21,1.36,1.36,0,0,0,0-.2Z"/><path class="cls-3" d="M141,63.52h0l2.73-.18Z"/><path class="cls-3" d="M172.86,61c-.92.09-1.83.18-2.74.24l2.74-.23Z"/><path class="cls-3" d="M199.33,60.2l0,0c.36.06.73.08,1.1.14C200,60.33,199.68,60.25,199.33,60.2Z"/><path class="cls-3" d="M133.38,97.37c.07,1,.13,1.94.21,2.91-.08-1-.14-1.94-.21-2.91Z"/><path class="cls-2" d="M128,70.66h0q-4.08-3.42-8.06-7h0l-3.78-.24h0c4,3.48,8,6.85,12.1,10.15C128.12,72.63,128,71.65,128,70.66Z"/><path class="cls-2" d="M78.38,77.51q5.94-8,12.36-15.65c-.55,0-1.1,0-1.65,0l-1,0q-5.55,6.71-10.77,13.68C72,71.3,67,66.86,61.94,62.34h0c-1.09,0-2.19.08-3.26.2h0c5.87,5.29,12,10.32,18.1,15.18A1,1,0,0,0,78.38,77.51Z"/><path class="cls-2" d="M130.78,96.46c-9.82-8.07-19-16.72-28.41-25.28a.83.83,0,0,0-.76-.22c-.27.06-.38.28-.57.45-.51.45-1,.93-1.48,1.42-1,1-1.83,2.07-2.75,3.1-2.24,2.5-4.44,5-6.6,7.62s-4.29,5.18-6.38,7.82c-.52.65-6.21,7.89-6.13,8C67.63,91.22,58.31,82.45,48.78,73.75a1.36,1.36,0,0,1,0,.2q-.07,1.17-.09,2.37h0c8.76,9.08,18.66,17.34,28.48,25.16a1,1,0,0,0,1.6-.2q3-4,6.11-8t6.37-7.83q3.24-3.87,6.59-7.64l2.1-2.33,1-1.16.51-.55c.16-.18.24-.54.54-.49s.45.47.61.63c.56.6,1.14,1.2,1.71,1.79,1.15,1.18,2.33,2.35,3.51,3.51q3.57,3.48,7.3,6.79t7.57,6.52q3.81,3.18,7.69,6.29l.65.52c0-.36-.05-.72-.09-1.08C130.91,97.67,130.85,97.06,130.78,96.46Z"/><path class="cls-2" d="M143.71,63.34l-2.73.18c-2.9,3.58-5.75,7.2-8.51,10.89l-.08-.07h0c0,.82-.06,1.63-.08,2.43h0a1,1,0,0,0,1.21-.42Q138.45,69.72,143.71,63.34Z"/><path class="cls-2" d="M189.32,76.2q5.93-8,12.31-15.58l-1.24-.23c-.37-.06-.74-.08-1.1-.14q-5.68,6.85-11,14C183,70,177.89,65.53,172.86,61l-2.74.23-.45,0c5.86,5.27,12,10.29,18.05,15.13A1,1,0,0,0,189.32,76.2Z"/><path class="cls-2" d="M211.65,70.33a344.11,344.11,0,0,0-23,27.69c-.72-.58-1.43-1.15-2.13-1.73-4.86-4-9.58-8.16-14.24-12.38-2.33-2.1-4.65-4.23-7-6.35L161.44,74c-.66-.59-1.31-1.19-2-1.81s-1.17-1.73-2.07-2a2.91,2.91,0,0,0-.93,0c-.66,0-1,.7-1.46,1.16s-1.05,1.14-1.57,1.72c-1,1.15-2.08,2.31-3.1,3.48q-3.06,3.47-6,7c-.85,1-8.84,10.86-11,13.76.07,1,.13,1.94.21,2.91,0,0,0,.09,0,.14a1.13,1.13,0,0,0,.3-.28q5.52-7.45,11.47-14.6,2.91-3.53,5.93-7l3-3.42,1.51-1.66c.3-.32.62-.85,1.11-.9s.77.4,1,.75c.94,1.16,2.1,2.21,3.15,3.27,2.15,2.18,4.36,4.3,6.6,6.37,4.51,4.16,9.19,8.14,13.94,12q3.18,2.61,6.4,5.16a1,1,0,0,0,1.6-.2,337.53,337.53,0,0,1,23.39-28.22C214,70.8,212.54,69.37,211.65,70.33Z"/><path class="cls-2" d="M138.88,194.71a1.23,1.23,0,0,0,0,.2,1.23,1.23,0,0,1,0-.2Z"/><path class="cls-2" d="M139.17,197.67h0c0-.25-.05-.5-.08-.75C139.13,197.18,139.15,197.43,139.17,197.67Z"/><polygon class="cls-2" points="212.8 209.68 212.8 209.68 212.8 209.68 212.8 209.68"/><path class="cls-2" d="M177.81,209.8h0l-2.69,0Z"/><path class="cls-2" d="M209.41,209.75h0Z"/><path class="cls-2" d="M120.6,210.26h0Z"/><path class="cls-2" d="M134,196.77c0-1.06-.09-2.13-.1-3.19h0c0,1.06.05,2.13.1,3.2Z"/><path class="cls-2" d="M97.38,210.06l.89,0-.89,0Z"/><path class="cls-2" d="M138.9,194.91c.06.68.13,1.35.2,2,0,.25.05.5.08.75,4.86,4,9.6,8.23,14.27,12.47l3.45,0c-5.8-5.38-11.9-10.49-18-15.41A1.23,1.23,0,0,0,138.9,194.91Z"/><path class="cls-2" d="M191.3,191.38a1,1,0,0,0-1.6.21c-4.64,6.26-9.52,12.33-14.58,18.25l2.69,0q6.7-7.94,12.94-16.25c6.44,5.18,12.57,10.65,18.64,16.18h.27c1.06,0,2.11,0,3.14-.06h0C205.92,203.24,198.59,197.19,191.3,191.38Z"/><path class="cls-2" d="M120.6,210.26h2.65q5.55-6.6,10.76-13.48c0-1.07-.09-2.14-.1-3.2Q127.52,202.15,120.6,210.26Z"/><path class="cls-2" d="M78.76,192.9q-6.18,8.32-12.85,16.23c.78.12,1.59.21,2.4.29q5.94-7.12,11.5-14.56c6.06,4.87,11.84,10,17.57,15.2l.89,0,2.64,0c-6.61-6.11-13.6-11.87-20.55-17.41A1,1,0,0,0,78.76,192.9Z"/><path class="cls-2" d="M100.91,210.1h0l-2.64,0Z"/><path class="cls-3" d="M140.74,207.18c.24,1,.51,2,.81,3.09-.3-1-.57-2.06-.81-3.09Z"/><path class="cls-3" d="M184.24,209.71l1.29,0-1.29,0Z"/><path class="cls-3" d="M196.82,209.58h0Z"/><path class="cls-3" d="M135.26,206.11c-.2-.85-.38-1.71-.53-2.58.15.87.33,1.73.53,2.58Z"/><path class="cls-3" d="M88.11,209.93h0l-3.44,0Z"/><path class="cls-3" d="M134,183.69c0-1.1-.07-2.2-.14-3.29.07,1.09.11,2.19.14,3.29Z"/><path class="cls-3" d="M84.08,183.18l-2,1.06,2-1.06Z"/><path class="cls-2" d="M141.55,210.27c1,0,1.95,0,2.93,0q-1.86-1.55-3.74-3.06C141,208.21,141.25,209.23,141.55,210.27Z"/><path class="cls-2" d="M189.7,202.55q-2.69,3.62-5.46,7.16l1.29,0h1.26c1.33-1.71,2.66-3.43,4-5.17,2.06,1.66,4.07,3.37,6.07,5.07h1.05l2.3,0c-2.94-2.45-5.91-4.85-8.87-7.21A1,1,0,0,0,189.7,202.55Z"/><path class="cls-2" d="M190.93,178.57a1,1,0,0,0-1.6.21q-3,4-6.11,8t-6.37,7.83q-3.24,3.87-6.59,7.64c-.7.78-1.39,1.55-2.1,2.32l-1,1.16-.51.56c-.17.18-.24.53-.54.49s-.45-.47-.61-.63c-.56-.6-1.14-1.2-1.71-1.79-1.15-1.19-2.33-2.36-3.51-3.51q-3.57-3.48-7.3-6.8t-7.56-6.51q-3.75-3.14-7.57-6.18c0,1,.11,1.95.19,2.85,9.56,7.91,18.53,16.34,27.72,24.7a.86.86,0,0,0,.76.22c.27-.07.38-.28.57-.45.51-.46,1-.93,1.48-1.43.95-1,1.83-2.06,2.75-3.09q3.36-3.76,6.6-7.63t6.38-7.81c.52-.66,6.21-7.89,6.13-8,10.39,8.36,20,17.43,29.82,26.41h0a4,4,0,0,0,.35-.46c.08-.12.17-.24.25-.37a6.24,6.24,0,0,0,.37-.73h0C212,195.77,201.41,186.92,190.93,178.57Z"/><path class="cls-2" d="M134.73,203.53a1.37,1.37,0,0,0-.17.17q-2.48,3.31-5,6.58h2.52c1.07-1.39,2.15-2.77,3.2-4.17-.2-.85-.38-1.71-.53-2.58Z"/><path class="cls-2" d="M78.76,203.86c-1.47,2-3,3.93-4.48,5.88l2.49,0c1-1.32,2-2.63,3-4,1.65,1.33,3.25,2.7,4.86,4.07l3.44,0c-2.57-2.12-5.17-4.21-7.75-6.27A1,1,0,0,0,78.76,203.86Z"/><path class="cls-2" d="M133.82,180.4q-5.35,7.2-11.11,14.13-2.91,3.53-5.93,6.95-1.52,1.72-3,3.42c-.5.56-1,1.11-1.51,1.66-.3.33-.62.86-1.11.91s-.77-.41-1.05-.75a44.21,44.21,0,0,0-3.15-3.27c-2.15-2.18-4.36-4.3-6.6-6.38-4.51-4.16-9.19-8.14-13.94-12l-2.3-1.86-2,1.06c4.67,3.85,9.21,7.85,13.7,11.91q3.49,3.16,7,6.36c1.29,1.18,2.59,2.34,3.88,3.51l2,1.81c.63.61,1.17,1.73,2.07,2a2.91,2.91,0,0,0,.93,0c.66-.05,1-.71,1.46-1.16l1.57-1.72c1-1.16,2.08-2.32,3.1-3.48q3.06-3.47,6-7c.77-.92,7.4-9.08,10.22-12.76C133.93,182.59,133.89,181.49,133.82,180.4Z"/><path class="cls-2" d="M74.74,188.17c-.63.33-1.26.66-1.9,1l-.23.12c-.66.31-1.32.6-2,.85h0q-6.19,7.72-12.82,15.07a5.69,5.69,0,0,0,1.32,1.56q8.13-9,15.61-18.56Z"/><path class="cls-2" d="M78.13,182.66h0L80.78,181l.33-.21h0L80,179.88a1,1,0,0,0-1.6.21c-1.1,1.49-2.24,2.94-3.36,4.41h0C76.08,183.91,77.12,183.29,78.13,182.66Z"/><path class="cls-5" d="M78.75,112.25a338.52,338.52,0,0,1,23.23-28c9,9.67,19.42,18.39,29.74,26.63h0c0-.91-.06-1.81-.1-2.72h0c-10.14-8.26-19.57-17.17-29.25-26a.85.85,0,0,0-1.34.23,1.12,1.12,0,0,0-.32.23,343.87,343.87,0,0,0-23,27.69c-10-8.08-19.33-16.82-28.83-25.49h0c0,.48,0,1,.05,1.43s0,.92,0,1.38c8.69,9,18.48,17.12,28.18,24.85A1,1,0,0,0,78.75,112.25Z"/><path class="cls-5" d="M156,84.26a4.27,4.27,0,0,1,.71-.76c.47-.29.55,0,.83.36a44.68,44.68,0,0,0,3.16,3.3q3.21,3.27,6.58,6.38c4.49,4.17,9.15,8.15,13.89,12q3.42,2.82,6.89,5.57a1,1,0,0,0,1.6-.21,339,339,0,0,1,23.39-28.21c.88-1-.55-2.4-1.44-1.44a345.86,345.86,0,0,0-23,27.69s-2.89-2.35-3.15-2.57c-4.83-4-9.52-8.17-14.17-12.39q-3.48-3.17-6.94-6.35l-3.48-3.19c-.88-.8-1.78-1.57-2.66-2.39-.4-.37-.64-.79-1.22-.92a1.94,1.94,0,0,0-.54,0c-.59,0-1,.67-1.33,1.08-.53.57-1,1.15-1.57,1.73-1.05,1.15-2.08,2.31-3.11,3.47q-3.09,3.51-6.07,7.09c-3.44,4.12-6.76,8.34-10,12.61h0l.06.37c.11.73.22,1.46.34,2.19l0,.2h0q5.08-6.8,10.5-13.33,3-3.58,6-7.08,1.53-1.75,3.09-3.48C155,85.41,155.51,84.83,156,84.26Z"/><path class="cls-5" d="M220.78,196.7c-.15-1-.31-2-.44-2.95h0c-9-9.47-19.24-18-29.41-26.14a1,1,0,0,0-1.6.21,340.18,340.18,0,0,1-23.23,28c-1.82-1.95-3.71-3.85-5.62-5.72h0a60.81,60.81,0,0,1-6.54-3h0c3.93,3.58,7.84,7.18,11.79,10.78a.85.85,0,0,0,1.34-.24,1,1,0,0,0,.32-.23,343.73,343.73,0,0,0,23-27.68c10.59,8.52,20.35,17.79,30.4,26.93Z"/><path class="cls-5" d="M62,189.93a1,1,0,0,1-.22-.18q-2.72,3.12-5.51,6.17c.06.78.13,1.56.2,2.33l0,.44c2.45-2.65,4.83-5.34,7.18-8.06h0A9.22,9.22,0,0,1,62,189.93Z"/><path class="cls-5" d="M80,168.92a1,1,0,0,0-1.6.21c-4.78,6.45-9.82,12.71-15,18.81h0a12.52,12.52,0,0,0,1.37,0h0c.44,0,.89-.06,1.33-.11h0c4.61-5.45,9.08-11,13.35-16.75l3.15,2.58c1.46,1.21,2.89,2.46,4.33,3.7.53-.33,1.07-.64,1.61-1l.37-.22c-.67-.56-1.34-1.14-2-1.7Q83.45,171.68,80,168.92Z"/><path class="cls-5" d="M132.91,170.64h0q-4.93,6.57-10.17,12.9-3,3.58-6,7.08-1.53,1.74-3.09,3.47L112,195.81a3.89,3.89,0,0,1-.71.75c-.47.3-.55,0-.83-.35a42.79,42.79,0,0,0-3.16-3.3c-1.36-1.39-2.77-2.71-4.18-4.06-.75.36-1.51.68-2.28,1l2.81,2.57,3.48,3.18c.88.81,1.78,1.58,2.66,2.39.4.38.64.8,1.22.92a1.94,1.94,0,0,0,.54.05c.59,0,1-.67,1.33-1.09.53-.57,1-1.14,1.57-1.72,1.05-1.15,2.08-2.31,3.11-3.48q3.09-3.5,6.07-7.08c3.29-3.94,6.47-8,9.57-12.06h0c0-.39-.07-.78-.11-1.17C133.07,171.78,133,171.21,132.91,170.64Z"/><path class="cls-5" d="M90,180h0q3.39,3,6.75,6l.74.67c.72-.4,1.45-.79,2.19-1.16q-3.72-3.42-7.58-6.68Z"/></g></g></svg>