<svg xmlns="http://www.w3.org/2000/svg" viewBox="0 0 270 270"><defs><style>.cls-1{fill:#fff;}.cls-2{fill:#a78126;}.cls-3{fill:#a01a22;}.cls-4{fill:#002d26;}</style></defs><g id="Capa_2" data-name="Capa 2"><g id="Home"><rect class="cls-1" width="270" height="270" rx="9.75"/><path class="cls-2" d="M251.78,18.4a1.92,1.92,0,0,1,1.37.16c.52.27.18.91.15,1.38a16.73,16.73,0,0,0-.09,2.45,14.92,14.92,0,0,1,0,2.5,17.7,17.7,0,0,1-.51,2.59,9.26,9.26,0,0,1-.36,1.13c-.11.26-1.06,3.86-1.43,5.38-.09.37-.19.74-.32,1.11s-.32.72-.42,1.1l-.64,2.42c-.35,1.23-.65,2.48-1,3.71s-.78,2.24-1,3.39-.52,2.52-.81,3.78-.58,2.62-.82,3.93c-.19,1-.34,2.08-.43,3.12-.06.67-.11,1.33-.2,2a2.72,2.72,0,0,0,1.26.86,2.48,2.48,0,0,0,1.58.23c.49-.29.68.48.7.81a1.18,1.18,0,0,1-.66,1.23,5,5,0,0,1-1.59,0,26.09,26.09,0,0,1-3.65-.06,31.63,31.63,0,0,0-3.51.06,1.52,1.52,0,0,1-.87,0,2.21,2.21,0,0,0-.81,0,4.06,4.06,0,0,1-.85.06c-.31,0-.58.06-.88.06-.61,0-1.23.06-1.83.12l-.72.06c-.19.06-.37.12-.5-.06a1.47,1.47,0,0,1-.19-1.16c.05-.28.38-1.09.79-.8l.93-.1c.24,0,.51,0,.72-.11a5.56,5.56,0,0,1,.61-.25c.22-.12.46-.17.68-.28.51-.27.69-.8,1.1-1.17s.4-.84.44-1.39a21.68,21.68,0,0,1,.38-3.26,11.61,11.61,0,0,1,.67-2.59,24.24,24.24,0,0,0,.58-2.79c.14-.74.12-1.53.33-2.25.29-.94.55-1.88.88-2.8a9.07,9.07,0,0,1,3.13-4.35,45.14,45.14,0,0,0,3.66-2.93l-.11.08a4.17,4.17,0,0,0,.91-2.19c.22-.85.4-1.72.65-2.57s.44-1.76.75-2.6c.13-.36.34-.69.47-1.05,0-.11.12-.21,0-.27s-.27-.07-.18-.06c-1.65-.17-3.3-.43-5-.63-1.49-.19-3-.1-4.49-.27l-.26,0-.79-.05L238.37,26l-1-.14a2.19,2.19,0,0,0-1.13.12,4.29,4.29,0,0,0-.92.36c-.21.12-.34.47-.45.68a3.18,3.18,0,0,0-.48,1,5.9,5.9,0,0,1-.23.92c-.09.24,0,.62-.17.8a1,1,0,0,1-.58.21,1.43,1.43,0,0,1-1.29-.37c-.35-.5,0-1.49.2-2a13.23,13.23,0,0,0,.7-2.24l.14-.54c0-.19-.08-.34-.1-.53a1.72,1.72,0,0,1,.24-.87c-.09.22.19-.19.19-.2l-.21.19.28-1a1.75,1.75,0,0,0,.12-.32l.29-.81,0,.1c.3-.82.54-2.17,1.6-2.3a1.32,1.32,0,0,1,.62.09,1.17,1.17,0,0,1,.3.19l.45.08a8.52,8.52,0,0,0,1.22.25H238a13.84,13.84,0,0,1,2.32.25c.4,0,.81,0,1.17,0,1.37.12,2.76.07,4.12.3s2.71.21,4.05.36l.43,0H250c.34,0,.61.12.86-.19s.2-.59.39-.83a1.63,1.63,0,0,1,.09-.49c.05-.15,0-.11,0-.28a.66.66,0,0,1,.48-.51Z"/><path class="cls-3" d="M80.89,144.77c-1.5,3.74-2.72,7.55-4.71,11,4.32-.41,8.64-.89,13-1.3,2.46-9.59,7.59-18.7,11.59-27.77-3.72.08-7.45.15-11.17.18C86.88,132.92,83.37,138.59,80.89,144.77Z"/><path class="cls-3" d="M74.92,126.53l0,.08a347.3,347.3,0,0,1-17.8,30,137.25,137.25,0,0,0,16.47-.6c2.57-4.83,3.89-10.36,6.15-15.34,2.1-4.62,4.19-9.49,7-13.75C82.82,127,78.78,127.22,74.92,126.53Z"/><path class="cls-2" d="M144.85,183.23v0l-.13-.06c-2.17-1.11-4.28-2.25-6.41-3.28,1.49,5.9,1.05,12.68,1.35,18.63,0,.35.05.69.06,1a5.87,5.87,0,0,1,1.12,2.15c1.2,2.19,1.1,5.66.3,7.93-.09.42-.17.84-.29,1.25a1.11,1.11,0,0,1-.18.36c.42,4.16.88,8.32,1.3,12.47,2.37,0,4.73.12,7.1.28a1.86,1.86,0,0,1-.06-.43C148.58,209.9,150,196.12,144.85,183.23Z"/><path class="cls-2" d="M127.23,199.36c-.34-7.24-1.49-15.2-.63-22.47a1.15,1.15,0,0,1-.34.13,16.84,16.84,0,0,0-7.62,4.15c1.06,7.63.44,15.61,1,23.3.43,6.33,2.51,13.81,1.33,20.05l1.1-.08q3.49-.25,7-.44l0-.17C128.32,215.68,127.6,207.53,127.23,199.36Z"/><path class="cls-2" d="M116.52,183.55c-7.84,10.44-6.76,29.82-4.61,40.62a1.54,1.54,0,0,1-.1,1l7.43-.52c-2.39-5.82-1.73-13.78-2-20C116.86,197.77,116,190.47,116.52,183.55Z"/><path class="cls-2" d="M119.85,228.33c-9.53.7-19.86,2.38-29.36.4.23,1.78.37,3.57.51,5.38,3.93.39,7.86.84,11.78,1,6.89.37,13.78.6,20.68.75,10.94.24,21.62.62,32.38-.52l-1.26-6.9C143.05,227,131.42,227.48,119.85,228.33Z"/><path class="cls-2" d="M108.61,184c-.83,3.27-2.67,11-6.52,11.72a9.65,9.65,0,0,1-1.86.13c.51,10,1.37,20,1.58,29.93l4-.23c1-.05,2-.12,3-.18a1.87,1.87,0,0,1-.19-.52c-2.36-13.39-3.24-40.41,11.13-48.55-.25,0-.5.07-.76.13C114.39,177.38,109.92,178.85,108.61,184Z"/><path class="cls-2" d="M135.39,204.52a4.51,4.51,0,0,1,0-.52,19.79,19.79,0,0,1,.31-3,1.29,1.29,0,0,1,.83-1l.12-.49a1.15,1.15,0,0,1,.46-.67,2.11,2.11,0,0,0,0-.25c-.69-6.19-2-13.49-.76-19.72a36.28,36.28,0,0,0-7.74-2.58c1.55,7.3,1.21,15.41,1.7,22.8.52,8,1.07,16,1.74,24.05a1.64,1.64,0,0,1-.07.64c2.43-.1,4.86-.18,7.28-.19-.41-4.09-.73-8.19-1-12.28C136.05,210.09,135.39,207.22,135.39,204.52Z"/><path class="cls-3" d="M189.23,126c-.72.13-1.46.21-2.2.27.54,5.42.75,10.87.83,16.32.07,4.6.49,9.56.06,14.26.92.18,1.84.39,2.77.61A16.21,16.21,0,0,0,196,157c2.57-.79-.22-8.05-.78-10.3C193.46,139.81,190.73,133,189.23,126Z"/><path class="cls-3" d="M116.48,140.18a137.15,137.15,0,0,1-5,14.22c3.84.21,7.7.43,11.62.5,1.74,0,3.49,0,5.23-.06,0-.05,0-.09,0-.15,2.5-9.53,5.56-18.81,7.75-28.4l-15.81.14C120.26,131,117.83,135.92,116.48,140.18Z"/><path class="cls-3" d="M103.57,126.63c-2.24,9.63-8.09,18.17-11.26,27.58a135.29,135.29,0,0,1,16.61,0c1.84-5.59,4-11.09,5.7-16.72,1.11-3.59,1.76-7.83,3.75-11.09l-7.24.06Q107.35,126.56,103.57,126.63Z"/><path class="cls-3" d="M136,138.13c-1.77,5.58-3.59,11.13-5.59,16.63,4-.18,8-.42,12-.3,1.85.06,3.69.26,5.53.5l.09-.77c.2-1.37.41-2.74.62-4.11.56-3.42,1.16-6.83,1.75-10.24.79-4.53,1.4-9.19,2.57-13.66q-7.11,0-14.22.1C138.52,130.32,137.2,134.3,136,138.13Z"/><path class="cls-3" d="M184.45,126.39c-3,0-6.14-.23-8.81-.2H173.7c1.05,9.72.46,19.76-.1,29.49a82.13,82.13,0,0,1,11.05.66c-.16-4.6.32-9.35.25-13.87C184.81,137.12,184.56,131.76,184.45,126.39Z"/><path class="cls-3" d="M152.15,146.11c-.31,1.8-.5,6-1.29,9.22A57,57,0,0,0,159,156c4,0,7.9-.21,11.75-.27.55-9.83.2-19.69.72-29.5-5.35,0-10.7,0-16.06,0C154.94,132.85,153.3,139.57,152.15,146.11Z"/><path class="cls-2" d="M147.18,172.56a26.91,26.91,0,0,0-7.25-2.72,114.26,114.26,0,0,0-18.24-2.28c-6.43-.36-14.38-.3-19.22,4.72a31.85,31.85,0,0,0-7.28,11.85c-.64,2.06-1,4.1.36,5.93,2,2.84,5.74,1.85,6.83-1,1.42-3.71,1.81-7.9,4.68-11a16.87,16.87,0,0,1,9.58-5,38.49,38.49,0,0,1,26,5c1.06.61,7.78,4.63,7.68-.66A5.7,5.7,0,0,0,147.18,172.56Z"/><path class="cls-2" d="M189.89,108.05a30.05,30.05,0,0,0-9.52-3.1c-5.44-.67-10.59,0-16,.58a195.71,195.71,0,0,1-30.53.54c-20.36-.9-40.6-3.32-60.27,3.63-2.48,2.82-5.93,9.58-.84,12.15,2.38,1.21,4.9,1.26,7.51,1.23,5.52-.06,11-.1,16.55-.06,10.9.08,21.81-.09,32.71-.17l7.47-.06a1,1,0,0,1,1.25,0c7.81-.06,15.61-.15,23.41-.33,5.39-.12,10.81-.4,16.2-.23,2.7.08,5.39.1,8.09,0,5.26-.08,6.46-2.81,5.95-7.19C191.68,113.31,191.84,109,189.89,108.05Z"/><path class="cls-3" d="M169,194.55c-1.09-.1-2.17-.25-3.21-.42.69,4.88.81,9.88,1.24,14.8a11.21,11.21,0,0,1,2.62-.24A115.2,115.2,0,0,1,169,194.55Z"/><path class="cls-2" d="M163.72,242.73l-.09-.31a1.65,1.65,0,0,1,.38-1.58q-.1-1.08-.27-2.16c-13.5,2.16-26.82,1.66-40.47,1.35-13.14-.3-27.64.32-40.66-2.57.67,3.11,1.48,6.16,2.39,9.22,13,0,26.11,2.36,39.22,2.39,13.42,0,26.79-1.14,40.17-1.89,0-1.23-.07-2.44-.15-3.66A1.55,1.55,0,0,1,163.72,242.73Z"/><path class="cls-4" d="M183.08,177.41c0-5.51-.39-11.23.33-16.73A56.31,56.31,0,0,0,172.1,160c-5.66.25-11.37,1.11-17,.57s-11.09-1.33-16.74-1.18-11.54.66-17.3.25c-11.87-.85-23.1-1.43-35-.21-6.69.68-13.37,1.41-20.07,1.7,2.09,12.65,3,25.54,4.24,38.29q.89,9.39,1.49,18.8c.35,5.55,1.8,12.34.4,17.83a18.32,18.32,0,0,1,6,.22c0-.09,0-.19,0-.29a2,2,0,0,1,1.57-2.41,1.59,1.59,0,0,1,.5-.08c2.14,0,4.28.11,6.43.27A57.33,57.33,0,0,1,86,226a2,2,0,0,1,2.61-1.81,24.76,24.76,0,0,0,10.43,1.68c-1.79-9.73-2-20.56-1.5-30.44-4-1.17-7.31-4.6-6.79-9,.84-7,5.9-13.13,11.2-17.48s13.29-4.7,19.91-4.4c7.93.36,16.82.3,24.35,3.16,5.09,1.94,9.17,5.45,8.19,11.33-.56,3.35-3.51,5-6.53,4.92,2.6,5,3.15,10.77,3.57,16.38.59,7.78.67,15.62.77,23.42a1.56,1.56,0,0,1-.05.44c1.39.13,2.79.29,4.18.48a2,2,0,0,1,1.87,1.56c.58,2.88,1.15,5.75,1.72,8.63,1.18-.17,2.36-.35,3.54-.57a2.09,2.09,0,0,1,2,.71,1.85,1.85,0,0,1,2.16,1.57c.17.92.32,1.84.46,2.77,4.37-.79,9.46-.49,13.55-.43.77,0,1.54,0,2.3.06q-.63-20.56-.81-41.13Q183.1,187.64,183.08,177.41ZM89,210.72a1.33,1.33,0,0,1-.85.19,23.7,23.7,0,0,0-6,0,7.22,7.22,0,0,1-2.72.33c-2.23-.44-2.5-2.08-2.73-4.13-.39-3.47-.78-6.95-1.14-10.42a6,6,0,0,1,0-2.45,5.73,5.73,0,0,1-.62-.25,1.6,1.6,0,0,1-1.88-.11c-3.69-2.62-3.94-8.43.32-10.74s11.24-2,15.32.67c3.42,2.25,2,6.22-.48,8.53,1.82,5.47,2.29,11.75,2.5,17.4A1.15,1.15,0,0,1,89,210.72Zm90.46-20a5.45,5.45,0,0,1-3.22,3.14,31.55,31.55,0,0,1,.9,6.38c.29,2.88.57,5.77.85,8.65a1.59,1.59,0,0,1-.21,1c1,.72.81,2.66-.76,2.53-3-.24-7.68-1.84-10.53-.54a1.35,1.35,0,0,1-1.95-1.23c-.18-5.63-.91-11.31-.83-16.95l-3.06-.59c-5.22-.93-6.35-5.63-4.85-9.85a.65.65,0,0,1,0-.24c.77-5.88,11.05-5.11,15.23-4.6C177,179.2,181.74,184.67,179.42,190.76Z"/><path class="cls-2" d="M172.28,182.51a10.8,10.8,0,0,0-5.38-1.61,13.42,13.42,0,0,0-7.86,2.16c.27,3.06-.13,6,4.49,6.57a54.23,54.23,0,0,0,9.07.74C179.18,190,174.6,183.85,172.28,182.51Z"/><path class="cls-3" d="M174.47,200.51a34.26,34.26,0,0,1-.32-6.06,16.8,16.8,0,0,1-3.05.21c.65,4.7.85,9.51,1.12,14.23,1,.13,2.07.32,3.05.49a1.42,1.42,0,0,1,0-.2Q174.84,204.84,174.47,200.51Z"/><path class="cls-2" d="M195.23,162.19a21.37,21.37,0,0,1-8.13-.44c.64,5.88.17,12,.22,17.89q.09,10.23.27,20.45c.23,13,.6,26,1,39.07,2.29.13,4.58.3,6.87.53q-.22-20.15-.32-40.28C195.09,187.11,194.36,174.51,195.23,162.19Z"/><path class="cls-3" d="M81.1,195a14.22,14.22,0,0,1-2.77-.06c.23,1.11.18,2.37.3,3.4.28,2.32.52,4.63.77,6.95a13.59,13.59,0,0,0,.36,3A7.58,7.58,0,0,0,82.1,208,61.79,61.79,0,0,1,81.1,195Z"/><path class="cls-3" d="M82.92,194.72c1,4.23,1.31,8.81,1.85,13.15,1.1,0,2.21.1,3.3.18-.4-4.8-1.6-9.55-2-14.32A15.27,15.27,0,0,1,82.92,194.72Z"/><path class="cls-2" d="M78.89,185.86c-2.31,0-7.39,2-3.82,4.81a1.93,1.93,0,0,1,.62.83c4.52.24,12.51-.14,11.29-4.05C86.4,185.58,80.45,185.83,78.89,185.86Z"/><path class="cls-2" d="M222.62,226.55c12.28,0,12.3-19.1,0-19.1s-12.31,19.1,0,19.1Z"/><path class="cls-2" d="M46.33,111.31c12.28,0,12.3-19.09,0-19.09s-12.31,19.09,0,19.09Z"/><path class="cls-2" d="M205.79,85.83c-2.11,6.77,8.41,10.06,10.52,3.28s-8.41-10.06-10.52-3.28Z"/><path class="cls-2" d="M34.51,189.91C32.4,196.68,42.92,200,45,193.18s-8.41-10.05-10.52-3.27Z"/><path class="cls-2" d="M48.54,19.65C46.43,26.42,57,29.71,59.06,22.93s-8.41-10.06-10.52-3.28Z"/><path class="cls-2" d="M22.9,229.36c7.09,0,7.1-11,0-11s-7.1,11,0,11Z"/><path class="cls-2" d="M28.22,160c9.45,0,9.47-14.69,0-14.69S18.75,160,28.22,160Z"/><path class="cls-2" d="M225.26,159.77c7.09,0,7.1-11,0-11s-7.1,11,0,11Z"/><path class="cls-2" d="M25,60.63c7.09,0,7.11-11,0-11s-7.1,11,0,11Z"/><path class="cls-2" d="M143,78.24c9.45,0,9.46-14.69,0-14.69s-9.47,14.69,0,14.69Z"/><path class="cls-2" d="M171.53,39.49c9.45,0,9.46-14.69,0-14.69s-9.47,14.69,0,14.69Z"/><path class="cls-2" d="M256.6,181.4c3.63,0,3.63-5.63,0-5.63s-3.63,5.63,0,5.63Z"/><path class="cls-2" d="M253.44,251.88c3.62,0,3.63-5.63,0-5.63s-3.64,5.63,0,5.63Z"/><path class="cls-2" d="M230.58,118c3.63,0,3.64-5.63,0-5.63s-3.63,5.63,0,5.63Z"/><path class="cls-2" d="M253.88,95.65c3.62,0,3.63-5.63,0-5.63s-3.63,5.63,0,5.63Z"/><path class="cls-2" d="M102.18,35c3.63,0,3.63-5.63,0-5.63s-3.63,5.63,0,5.63Z"/><path class="cls-2" d="M93.31,74.55c3.62,0,3.63-5.63,0-5.63s-3.63,5.63,0,5.63Z"/><path class="cls-2" d="M202,43.64c3.63,0,3.63-5.63,0-5.63s-3.63,5.63,0,5.63Z"/></g></g></svg>